G04 #@! TF.GenerationSoftware,KiCad,Pcbnew,8.0.0*
G04 #@! TF.CreationDate,2024-03-25T13:12:05-04:00*
G04 #@! TF.ProjectId,_Sub_HW_Qcopter,5f537562-5f48-4575-9f51-636f70746572,rev?*
G04 #@! TF.SameCoordinates,PX9157080PYf23bb80*
G04 #@! TF.FileFunction,Copper,L1,Top*
G04 #@! TF.FilePolarity,Positive*
%FSLAX46Y46*%
G04 Gerber Fmt 4.6, Leading zero omitted, Abs format (unit mm)*
G04 Created by KiCad (PCBNEW 8.0.0) date 2024-03-25 13:12:05*
%MOMM*%
%LPD*%
G01*
G04 APERTURE LIST*
G04 Aperture macros list*
%AMRoundRect*
0 Rectangle with rounded corners*
0 $1 Rounding radius*
0 $2 $3 $4 $5 $6 $7 $8 $9 X,Y pos of 4 corners*
0 Add a 4 corners polygon primitive as box body*
4,1,4,$2,$3,$4,$5,$6,$7,$8,$9,$2,$3,0*
0 Add four circle primitives for the rounded corners*
1,1,$1+$1,$2,$3*
1,1,$1+$1,$4,$5*
1,1,$1+$1,$6,$7*
1,1,$1+$1,$8,$9*
0 Add four rect primitives between the rounded corners*
20,1,$1+$1,$2,$3,$4,$5,0*
20,1,$1+$1,$4,$5,$6,$7,0*
20,1,$1+$1,$6,$7,$8,$9,0*
20,1,$1+$1,$8,$9,$2,$3,0*%
%AMFreePoly0*
4,1,6,1.000000,0.000000,0.500000,-0.750000,-0.500000,-0.750000,-0.500000,0.750000,0.500000,0.750000,1.000000,0.000000,1.000000,0.000000,$1*%
%AMFreePoly1*
4,1,6,0.500000,-0.750000,-0.650000,-0.750000,-0.150000,0.000000,-0.650000,0.750000,0.500000,0.750000,0.500000,-0.750000,0.500000,-0.750000,$1*%
G04 Aperture macros list end*
G04 #@! TA.AperFunction,SMDPad,CuDef*
%ADD10RoundRect,0.100000X-0.225000X-0.100000X0.225000X-0.100000X0.225000X0.100000X-0.225000X0.100000X0*%
G04 #@! TD*
G04 #@! TA.AperFunction,SMDPad,CuDef*
%ADD11RoundRect,0.225000X-0.225000X-0.250000X0.225000X-0.250000X0.225000X0.250000X-0.225000X0.250000X0*%
G04 #@! TD*
G04 #@! TA.AperFunction,SMDPad,CuDef*
%ADD12RoundRect,0.200000X-0.200000X-0.275000X0.200000X-0.275000X0.200000X0.275000X-0.200000X0.275000X0*%
G04 #@! TD*
G04 #@! TA.AperFunction,SMDPad,CuDef*
%ADD13RoundRect,0.200000X-0.275000X0.200000X-0.275000X-0.200000X0.275000X-0.200000X0.275000X0.200000X0*%
G04 #@! TD*
G04 #@! TA.AperFunction,SMDPad,CuDef*
%ADD14RoundRect,0.225000X0.225000X0.250000X-0.225000X0.250000X-0.225000X-0.250000X0.225000X-0.250000X0*%
G04 #@! TD*
G04 #@! TA.AperFunction,SMDPad,CuDef*
%ADD15RoundRect,0.100000X0.225000X0.100000X-0.225000X0.100000X-0.225000X-0.100000X0.225000X-0.100000X0*%
G04 #@! TD*
G04 #@! TA.AperFunction,SMDPad,CuDef*
%ADD16RoundRect,0.147500X0.147500X0.172500X-0.147500X0.172500X-0.147500X-0.172500X0.147500X-0.172500X0*%
G04 #@! TD*
G04 #@! TA.AperFunction,SMDPad,CuDef*
%ADD17RoundRect,0.150000X-0.512500X-0.150000X0.512500X-0.150000X0.512500X0.150000X-0.512500X0.150000X0*%
G04 #@! TD*
G04 #@! TA.AperFunction,SMDPad,CuDef*
%ADD18RoundRect,0.200000X0.275000X-0.200000X0.275000X0.200000X-0.275000X0.200000X-0.275000X-0.200000X0*%
G04 #@! TD*
G04 #@! TA.AperFunction,SMDPad,CuDef*
%ADD19RoundRect,0.225000X0.250000X-0.225000X0.250000X0.225000X-0.250000X0.225000X-0.250000X-0.225000X0*%
G04 #@! TD*
G04 #@! TA.AperFunction,SMDPad,CuDef*
%ADD20RoundRect,0.250000X1.000000X0.650000X-1.000000X0.650000X-1.000000X-0.650000X1.000000X-0.650000X0*%
G04 #@! TD*
G04 #@! TA.AperFunction,SMDPad,CuDef*
%ADD21RoundRect,0.147500X0.172500X-0.147500X0.172500X0.147500X-0.172500X0.147500X-0.172500X-0.147500X0*%
G04 #@! TD*
G04 #@! TA.AperFunction,SMDPad,CuDef*
%ADD22RoundRect,0.218750X-0.218750X-0.256250X0.218750X-0.256250X0.218750X0.256250X-0.218750X0.256250X0*%
G04 #@! TD*
G04 #@! TA.AperFunction,ComponentPad*
%ADD23R,1.000000X1.000000*%
G04 #@! TD*
G04 #@! TA.AperFunction,ComponentPad*
%ADD24O,1.000000X1.000000*%
G04 #@! TD*
G04 #@! TA.AperFunction,ComponentPad*
%ADD25C,3.600000*%
G04 #@! TD*
G04 #@! TA.AperFunction,ConnectorPad*
%ADD26C,5.600000*%
G04 #@! TD*
G04 #@! TA.AperFunction,SMDPad,CuDef*
%ADD27R,0.950000X0.300000*%
G04 #@! TD*
G04 #@! TA.AperFunction,SMDPad,CuDef*
%ADD28R,0.800000X0.400000*%
G04 #@! TD*
G04 #@! TA.AperFunction,SMDPad,CuDef*
%ADD29RoundRect,0.100000X-0.100000X0.225000X-0.100000X-0.225000X0.100000X-0.225000X0.100000X0.225000X0*%
G04 #@! TD*
G04 #@! TA.AperFunction,SMDPad,CuDef*
%ADD30C,0.500000*%
G04 #@! TD*
G04 #@! TA.AperFunction,SMDPad,CuDef*
%ADD31RoundRect,0.218750X-0.256250X0.218750X-0.256250X-0.218750X0.256250X-0.218750X0.256250X0.218750X0*%
G04 #@! TD*
G04 #@! TA.AperFunction,SMDPad,CuDef*
%ADD32RoundRect,0.140000X0.140000X0.170000X-0.140000X0.170000X-0.140000X-0.170000X0.140000X-0.170000X0*%
G04 #@! TD*
G04 #@! TA.AperFunction,SMDPad,CuDef*
%ADD33RoundRect,0.075000X0.725000X0.075000X-0.725000X0.075000X-0.725000X-0.075000X0.725000X-0.075000X0*%
G04 #@! TD*
G04 #@! TA.AperFunction,SMDPad,CuDef*
%ADD34RoundRect,0.075000X0.075000X0.725000X-0.075000X0.725000X-0.075000X-0.725000X0.075000X-0.725000X0*%
G04 #@! TD*
G04 #@! TA.AperFunction,SMDPad,CuDef*
%ADD35RoundRect,0.100000X0.100000X-0.225000X0.100000X0.225000X-0.100000X0.225000X-0.100000X-0.225000X0*%
G04 #@! TD*
G04 #@! TA.AperFunction,SMDPad,CuDef*
%ADD36RoundRect,0.140000X-0.170000X0.140000X-0.170000X-0.140000X0.170000X-0.140000X0.170000X0.140000X0*%
G04 #@! TD*
G04 #@! TA.AperFunction,SMDPad,CuDef*
%ADD37RoundRect,0.200000X0.200000X0.275000X-0.200000X0.275000X-0.200000X-0.275000X0.200000X-0.275000X0*%
G04 #@! TD*
G04 #@! TA.AperFunction,SMDPad,CuDef*
%ADD38RoundRect,0.062500X-0.062500X0.187500X-0.062500X-0.187500X0.062500X-0.187500X0.062500X0.187500X0*%
G04 #@! TD*
G04 #@! TA.AperFunction,ComponentPad*
%ADD39C,0.600000*%
G04 #@! TD*
G04 #@! TA.AperFunction,SMDPad,CuDef*
%ADD40R,1.600000X0.900000*%
G04 #@! TD*
G04 #@! TA.AperFunction,SMDPad,CuDef*
%ADD41RoundRect,0.225000X-0.250000X0.225000X-0.250000X-0.225000X0.250000X-0.225000X0.250000X0.225000X0*%
G04 #@! TD*
G04 #@! TA.AperFunction,SMDPad,CuDef*
%ADD42R,0.800000X0.900000*%
G04 #@! TD*
G04 #@! TA.AperFunction,SMDPad,CuDef*
%ADD43RoundRect,0.218750X0.256250X-0.218750X0.256250X0.218750X-0.256250X0.218750X-0.256250X-0.218750X0*%
G04 #@! TD*
G04 #@! TA.AperFunction,SMDPad,CuDef*
%ADD44RoundRect,0.140000X0.170000X-0.140000X0.170000X0.140000X-0.170000X0.140000X-0.170000X-0.140000X0*%
G04 #@! TD*
G04 #@! TA.AperFunction,SMDPad,CuDef*
%ADD45RoundRect,0.150000X-0.150000X0.512500X-0.150000X-0.512500X0.150000X-0.512500X0.150000X0.512500X0*%
G04 #@! TD*
G04 #@! TA.AperFunction,SMDPad,CuDef*
%ADD46FreePoly0,270.000000*%
G04 #@! TD*
G04 #@! TA.AperFunction,SMDPad,CuDef*
%ADD47FreePoly1,270.000000*%
G04 #@! TD*
G04 #@! TA.AperFunction,SMDPad,CuDef*
%ADD48RoundRect,0.250000X0.262500X0.450000X-0.262500X0.450000X-0.262500X-0.450000X0.262500X-0.450000X0*%
G04 #@! TD*
G04 #@! TA.AperFunction,SMDPad,CuDef*
%ADD49RoundRect,0.062500X0.325000X0.062500X-0.325000X0.062500X-0.325000X-0.062500X0.325000X-0.062500X0*%
G04 #@! TD*
G04 #@! TA.AperFunction,SMDPad,CuDef*
%ADD50RoundRect,0.062500X0.062500X0.325000X-0.062500X0.325000X-0.062500X-0.325000X0.062500X-0.325000X0*%
G04 #@! TD*
G04 #@! TA.AperFunction,HeatsinkPad*
%ADD51C,0.500000*%
G04 #@! TD*
G04 #@! TA.AperFunction,HeatsinkPad*
%ADD52R,1.750000X1.750000*%
G04 #@! TD*
G04 #@! TA.AperFunction,SMDPad,CuDef*
%ADD53RoundRect,0.150000X-0.650000X-0.150000X0.650000X-0.150000X0.650000X0.150000X-0.650000X0.150000X0*%
G04 #@! TD*
G04 #@! TA.AperFunction,SMDPad,CuDef*
%ADD54RoundRect,0.062500X0.062500X-0.187500X0.062500X0.187500X-0.062500X0.187500X-0.062500X-0.187500X0*%
G04 #@! TD*
G04 #@! TA.AperFunction,SMDPad,CuDef*
%ADD55RoundRect,0.218750X0.381250X-0.218750X0.381250X0.218750X-0.381250X0.218750X-0.381250X-0.218750X0*%
G04 #@! TD*
G04 #@! TA.AperFunction,SMDPad,CuDef*
%ADD56RoundRect,0.147500X-0.172500X0.147500X-0.172500X-0.147500X0.172500X-0.147500X0.172500X0.147500X0*%
G04 #@! TD*
G04 #@! TA.AperFunction,SMDPad,CuDef*
%ADD57RoundRect,0.218750X0.218750X0.256250X-0.218750X0.256250X-0.218750X-0.256250X0.218750X-0.256250X0*%
G04 #@! TD*
G04 #@! TA.AperFunction,SMDPad,CuDef*
%ADD58RoundRect,0.150000X0.512500X0.150000X-0.512500X0.150000X-0.512500X-0.150000X0.512500X-0.150000X0*%
G04 #@! TD*
G04 #@! TA.AperFunction,SMDPad,CuDef*
%ADD59FreePoly0,0.000000*%
G04 #@! TD*
G04 #@! TA.AperFunction,SMDPad,CuDef*
%ADD60FreePoly1,0.000000*%
G04 #@! TD*
G04 #@! TA.AperFunction,SMDPad,CuDef*
%ADD61RoundRect,0.062500X0.187500X0.062500X-0.187500X0.062500X-0.187500X-0.062500X0.187500X-0.062500X0*%
G04 #@! TD*
G04 #@! TA.AperFunction,SMDPad,CuDef*
%ADD62R,0.900000X1.600000*%
G04 #@! TD*
G04 #@! TA.AperFunction,SMDPad,CuDef*
%ADD63RoundRect,0.243750X-0.456250X0.243750X-0.456250X-0.243750X0.456250X-0.243750X0.456250X0.243750X0*%
G04 #@! TD*
G04 #@! TA.AperFunction,SMDPad,CuDef*
%ADD64FreePoly0,90.000000*%
G04 #@! TD*
G04 #@! TA.AperFunction,SMDPad,CuDef*
%ADD65FreePoly1,90.000000*%
G04 #@! TD*
G04 #@! TA.AperFunction,ComponentPad*
%ADD66RoundRect,0.225000X-0.225000X-0.475000X0.225000X-0.475000X0.225000X0.475000X-0.225000X0.475000X0*%
G04 #@! TD*
G04 #@! TA.AperFunction,ComponentPad*
%ADD67O,0.900000X1.400000*%
G04 #@! TD*
G04 #@! TA.AperFunction,ComponentPad*
%ADD68RoundRect,0.225000X0.225000X0.475000X-0.225000X0.475000X-0.225000X-0.475000X0.225000X-0.475000X0*%
G04 #@! TD*
G04 #@! TA.AperFunction,ComponentPad*
%ADD69RoundRect,0.225000X0.475000X-0.225000X0.475000X0.225000X-0.475000X0.225000X-0.475000X-0.225000X0*%
G04 #@! TD*
G04 #@! TA.AperFunction,ComponentPad*
%ADD70O,1.400000X0.900000*%
G04 #@! TD*
G04 #@! TA.AperFunction,HeatsinkPad*
%ADD71R,5.600000X5.600000*%
G04 #@! TD*
G04 #@! TA.AperFunction,ComponentPad*
%ADD72C,0.500000*%
G04 #@! TD*
G04 #@! TA.AperFunction,SMDPad,CuDef*
%ADD73R,3.800000X3.800000*%
G04 #@! TD*
G04 #@! TA.AperFunction,ComponentPad*
%ADD74O,1.550000X0.890000*%
G04 #@! TD*
G04 #@! TA.AperFunction,ComponentPad*
%ADD75O,0.950000X1.250000*%
G04 #@! TD*
G04 #@! TA.AperFunction,ComponentPad*
%ADD76R,1.700000X1.700000*%
G04 #@! TD*
G04 #@! TA.AperFunction,ComponentPad*
%ADD77O,1.700000X1.700000*%
G04 #@! TD*
G04 #@! TA.AperFunction,ViaPad*
%ADD78C,0.600000*%
G04 #@! TD*
G04 #@! TA.AperFunction,ViaPad*
%ADD79C,0.350000*%
G04 #@! TD*
G04 #@! TA.AperFunction,ViaPad*
%ADD80C,0.508000*%
G04 #@! TD*
G04 #@! TA.AperFunction,Conductor*
%ADD81C,0.304800*%
G04 #@! TD*
G04 #@! TA.AperFunction,Conductor*
%ADD82C,0.152400*%
G04 #@! TD*
G04 #@! TA.AperFunction,Conductor*
%ADD83C,0.203200*%
G04 #@! TD*
G04 #@! TA.AperFunction,Conductor*
%ADD84C,0.508000*%
G04 #@! TD*
G04 #@! TA.AperFunction,Conductor*
%ADD85C,0.254000*%
G04 #@! TD*
G04 #@! TA.AperFunction,Conductor*
%ADD86C,0.200000*%
G04 #@! TD*
G04 #@! TA.AperFunction,Conductor*
%ADD87C,1.016000*%
G04 #@! TD*
G04 APERTURE END LIST*
D10*
X3149600Y38587200D03*
X3149600Y37287200D03*
X1249600Y37287200D03*
X1249600Y37937200D03*
X1249600Y38587200D03*
D11*
X31610000Y41277500D03*
X33160000Y41277500D03*
D12*
X15726000Y40808000D03*
X17376000Y40808000D03*
D13*
X37465000Y33604200D03*
X37465000Y31954200D03*
D14*
X43345001Y24583000D03*
X41795001Y24583000D03*
X11189000Y20828000D03*
X9639000Y20828000D03*
D15*
X9474534Y8875000D03*
X9474533Y9525000D03*
X9474534Y10175000D03*
X7574534Y10175000D03*
X7574535Y9525000D03*
X7574534Y8875000D03*
D16*
X27076200Y48209200D03*
X26106200Y48209200D03*
D17*
X8266000Y26792000D03*
X8266000Y25842000D03*
X8266000Y24892000D03*
X10541000Y24892000D03*
X10541000Y26792000D03*
D18*
X18819000Y47384200D03*
X18819000Y49034200D03*
D19*
X43256200Y46088000D03*
X43256200Y47638000D03*
D20*
X10890001Y29464000D03*
X6889999Y29464000D03*
D14*
X43066000Y42570400D03*
X41516000Y42570400D03*
D19*
X38989000Y977600D03*
X38989000Y2527600D03*
D12*
X5652000Y37973000D03*
X7302000Y37973000D03*
D21*
X19685000Y5380000D03*
X19685000Y6350000D03*
D19*
X1524000Y40754000D03*
X1524000Y42304000D03*
D22*
X1371500Y30861000D03*
X2946500Y30861000D03*
D23*
X48783000Y16764000D03*
D24*
X47512999Y16764000D03*
D18*
X12215000Y47384200D03*
X12215000Y49034200D03*
D11*
X40246000Y8255000D03*
X41796000Y8255000D03*
D25*
X47066200Y3048000D03*
D26*
X47066200Y3048000D03*
D13*
X40030000Y30226000D03*
X40030000Y28576000D03*
X21209000Y12255000D03*
X21209000Y10605000D03*
D14*
X18047000Y8153400D03*
X16497000Y8153400D03*
D23*
X48783000Y10033000D03*
D24*
X47512999Y10033000D03*
D16*
X11163000Y22098000D03*
X10193000Y22098000D03*
D14*
X11554000Y32361000D03*
X10004000Y32361000D03*
D27*
X45812000Y20114000D03*
X45812000Y20613999D03*
X45812000Y21114000D03*
X45812000Y21614000D03*
X45812000Y22114001D03*
X45812000Y22614000D03*
X45812000Y23114000D03*
X45812000Y23614000D03*
X45812000Y24114000D03*
X45812001Y24614000D03*
X45812000Y25114000D03*
X45812000Y25614000D03*
X45812000Y26114000D03*
X45812000Y26614000D03*
X45812001Y27114000D03*
X45812000Y27614000D03*
X45812000Y28114000D03*
X45812000Y28614000D03*
X45812000Y29114000D03*
X45812000Y29613999D03*
X45812000Y30114000D03*
X45812000Y30614000D03*
X45812000Y31114001D03*
X45812000Y31614000D03*
D28*
X48387000Y18989000D03*
X48387000Y32839000D03*
D19*
X8890000Y34404000D03*
X8890000Y35954000D03*
D29*
X35448000Y4506000D03*
X34798000Y4505999D03*
X34148000Y4506000D03*
X34148000Y2606000D03*
X34798000Y2606001D03*
X35448000Y2606000D03*
D19*
X22733000Y6350000D03*
X22733000Y7900000D03*
D14*
X43320000Y21463000D03*
X41770000Y21463000D03*
X43345001Y26107000D03*
X41795001Y26107000D03*
D30*
X10693400Y43865800D03*
D11*
X6083000Y39751000D03*
X7633000Y39751000D03*
D18*
X22758400Y10605000D03*
X22758400Y12255000D03*
D22*
X19993000Y40808000D03*
X21568000Y40808000D03*
D31*
X39090600Y33553400D03*
X39090600Y31978398D03*
D19*
X35843999Y35435500D03*
X35843999Y36985500D03*
D32*
X34566800Y49174400D03*
X33606800Y49174400D03*
D30*
X43840400Y5232400D03*
D33*
X33075000Y19527000D03*
X33075000Y20027000D03*
X33075000Y20527001D03*
X33075000Y21027000D03*
X33075000Y21526999D03*
X33075000Y22027000D03*
X33075000Y22527000D03*
X33075000Y23027001D03*
X33075000Y23527000D03*
X33075000Y24027000D03*
X33075000Y24527000D03*
X33075000Y25027000D03*
X33075001Y25527000D03*
X33075000Y26027000D03*
X33075000Y26527000D03*
X33075000Y27027000D03*
X33075000Y27527000D03*
X33075000Y28026999D03*
X33075000Y28527000D03*
X33075000Y29027000D03*
X33075000Y29527001D03*
X33075000Y30027000D03*
X33075000Y30526999D03*
X33075000Y31027000D03*
X33075000Y31527000D03*
D34*
X31400000Y33202000D03*
X30900000Y33202000D03*
X30399999Y33202000D03*
X29900000Y33202000D03*
X29400001Y33202000D03*
X28900000Y33202000D03*
X28400000Y33202000D03*
X27899999Y33202000D03*
X27400000Y33202000D03*
X26900000Y33202000D03*
X26400000Y33202000D03*
X25900000Y33202000D03*
X25400000Y33202001D03*
X24900000Y33202000D03*
X24400000Y33202000D03*
X23900000Y33202000D03*
X23400000Y33202000D03*
X22900001Y33202000D03*
X22400000Y33202000D03*
X21900000Y33202000D03*
X21399999Y33202000D03*
X20900000Y33202000D03*
X20400001Y33202000D03*
X19900000Y33202000D03*
X19400000Y33202000D03*
D33*
X17725000Y31527000D03*
X17725000Y31027000D03*
X17725000Y30526999D03*
X17725000Y30027000D03*
X17725000Y29527001D03*
X17725000Y29027000D03*
X17725000Y28527000D03*
X17725000Y28026999D03*
X17725000Y27527000D03*
X17725000Y27027000D03*
X17725000Y26527000D03*
X17725000Y26027000D03*
X17724999Y25527000D03*
X17725000Y25027000D03*
X17725000Y24527000D03*
X17725000Y24027000D03*
X17725000Y23527000D03*
X17725000Y23027001D03*
X17725000Y22527000D03*
X17725000Y22027000D03*
X17725000Y21526999D03*
X17725000Y21027000D03*
X17725000Y20527001D03*
X17725000Y20027000D03*
X17725000Y19527000D03*
D34*
X19400000Y17852000D03*
X19900000Y17852000D03*
X20400001Y17852000D03*
X20900000Y17852000D03*
X21399999Y17852000D03*
X21900000Y17852000D03*
X22400000Y17852000D03*
X22900001Y17852000D03*
X23400000Y17852000D03*
X23900000Y17852000D03*
X24400000Y17852000D03*
X24900000Y17852000D03*
X25400000Y17851999D03*
X25900000Y17852000D03*
X26400000Y17852000D03*
X26900000Y17852000D03*
X27400000Y17852000D03*
X27899999Y17852000D03*
X28400000Y17852000D03*
X28900000Y17852000D03*
X29400001Y17852000D03*
X29900000Y17852000D03*
X30399999Y17852000D03*
X30900000Y17852000D03*
X31400000Y17852000D03*
D35*
X3160000Y40579000D03*
X3810000Y40579001D03*
X4460000Y40579000D03*
X4460000Y42479000D03*
X3810000Y42478999D03*
X3160000Y42479000D03*
D36*
X36387000Y42265500D03*
X36387000Y41305500D03*
D37*
X7937000Y19430999D03*
X6287000Y19430999D03*
D13*
X21844000Y38417000D03*
X21844000Y36767000D03*
D19*
X34446999Y35435500D03*
X34446999Y36985500D03*
D38*
X41982901Y46119500D03*
X41482900Y46119500D03*
X40982900Y46119500D03*
X40482899Y46119500D03*
X40482899Y44219500D03*
X40982900Y44219500D03*
X41482900Y44219500D03*
X41982901Y44219500D03*
D39*
X41732899Y45169500D03*
D40*
X41232900Y45169500D03*
D39*
X40732901Y45169500D03*
D12*
X44006000Y9779000D03*
X45656000Y9779000D03*
D41*
X15341600Y44082000D03*
X15341600Y42532000D03*
X38989000Y5550200D03*
X38989000Y4000200D03*
D37*
X27241000Y39878000D03*
X25591000Y39878000D03*
D14*
X38722600Y48133000D03*
X37172600Y48133000D03*
D42*
X37169000Y22417000D03*
X37169000Y21017000D03*
X38269000Y21017000D03*
X38269000Y22417000D03*
D11*
X12636200Y7874000D03*
X14186200Y7874000D03*
X36817000Y23876000D03*
X38367000Y23876000D03*
D13*
X23444200Y44132000D03*
X23444200Y42482000D03*
D11*
X31610000Y39783499D03*
X33160000Y39783499D03*
D14*
X43320000Y19939000D03*
X41770000Y19939000D03*
D43*
X29840962Y44170499D03*
X29840962Y45745501D03*
D23*
X48773001Y35560000D03*
D24*
X47503000Y35560000D03*
X46233001Y35560000D03*
D12*
X44006000Y8255000D03*
X45656000Y8255000D03*
D25*
X47066200Y47040800D03*
D26*
X47066200Y47040800D03*
D22*
X41757500Y22987000D03*
X43332500Y22987000D03*
D23*
X48783000Y14478000D03*
D24*
X47512999Y14478000D03*
D22*
X41503500Y39319200D03*
X43078500Y39319200D03*
D21*
X12827000Y1928000D03*
X12827000Y2898000D03*
D36*
X37465000Y42265500D03*
X37465000Y41305500D03*
D44*
X29893200Y48237200D03*
X29893200Y49197200D03*
D19*
X13866000Y47434200D03*
X13866000Y48984200D03*
D17*
X17531500Y44257000D03*
X17531500Y43307000D03*
X17531500Y42357000D03*
X19806500Y42357000D03*
X19806500Y44257000D03*
D11*
X12636200Y10922000D03*
X14186200Y10922000D03*
D45*
X43494999Y30148500D03*
X42545000Y30148500D03*
X41595001Y30148500D03*
X41595001Y27873500D03*
X43494999Y27873500D03*
D12*
X1080000Y15240000D03*
X2730000Y15240000D03*
D46*
X1651000Y13043999D03*
D47*
X1651000Y11594001D03*
D18*
X34010600Y14770600D03*
X34010600Y16420600D03*
D14*
X35903200Y990600D03*
X34353200Y990600D03*
X18047000Y6604000D03*
X16497000Y6604000D03*
D32*
X31770200Y47193200D03*
X30810200Y47193200D03*
D18*
X34412961Y44133000D03*
X34412961Y45783000D03*
D19*
X37338000Y35435500D03*
X37338000Y36985500D03*
D45*
X9458999Y17520500D03*
X8509000Y17520500D03*
X7559001Y17520500D03*
X7559001Y15245500D03*
X9458999Y15245500D03*
D14*
X9284000Y13462000D03*
X7734000Y13462000D03*
D19*
X21209000Y6350000D03*
X21209000Y7900000D03*
D41*
X15621000Y2921000D03*
X15621000Y1371000D03*
D23*
X48742600Y42341800D03*
D24*
X47472599Y42341800D03*
X46202600Y42341800D03*
X44932600Y42341800D03*
D12*
X36767000Y29845001D03*
X38417000Y29845001D03*
D48*
X8249500Y32361000D03*
X6424500Y32361000D03*
D11*
X6337000Y21590000D03*
X7887000Y21590000D03*
D32*
X28976200Y48209200D03*
X28016200Y48209200D03*
D16*
X2113000Y26543000D03*
X1143000Y26543000D03*
D12*
X44006000Y12192000D03*
X45656000Y12192000D03*
D19*
X40071001Y25514000D03*
X40071001Y27064000D03*
D49*
X41860500Y10436000D03*
X41860500Y10936000D03*
X41860500Y11436000D03*
X41860500Y11936000D03*
D50*
X41148000Y12648500D03*
X40648000Y12648500D03*
X40148000Y12648500D03*
X39648000Y12648500D03*
D49*
X38935500Y11936000D03*
X38935500Y11436000D03*
X38935500Y10936000D03*
X38935500Y10436000D03*
D50*
X39648000Y9723500D03*
X40148000Y9723500D03*
X40648000Y9723500D03*
X41148000Y9723500D03*
D51*
X41023000Y10561000D03*
X41023000Y11811000D03*
D52*
X40398000Y11186000D03*
D51*
X39773000Y10561000D03*
X39773000Y11811000D03*
D53*
X29039000Y12827000D03*
X29039000Y11557000D03*
X29039000Y10287000D03*
X29039000Y9017000D03*
X36239000Y9017000D03*
X36239000Y10287000D03*
X36239000Y11557000D03*
X36239000Y12827000D03*
D16*
X33710600Y47193200D03*
X32740600Y47193200D03*
D25*
X3048000Y47040800D03*
D26*
X3048000Y47040800D03*
D14*
X38748000Y40134500D03*
X37198000Y40134500D03*
D12*
X39997000Y14429000D03*
X41647000Y14429000D03*
X41466000Y40792400D03*
X43116000Y40792400D03*
D16*
X2113000Y24511000D03*
X1143000Y24511000D03*
D54*
X7758999Y5273000D03*
X8259000Y5273000D03*
X8759000Y5273000D03*
X9259001Y5273000D03*
X9259001Y7173000D03*
X8759000Y7173000D03*
X8259000Y7173000D03*
X7758999Y7173000D03*
D39*
X8009001Y6223000D03*
D40*
X8509000Y6223000D03*
D39*
X9008999Y6223000D03*
D19*
X17168000Y47434200D03*
X17168000Y48984200D03*
D14*
X5474000Y7239000D03*
X3924000Y7239000D03*
D41*
X15697200Y11189000D03*
X15697200Y9639000D03*
D14*
X11189000Y19431000D03*
X9639000Y19431000D03*
D31*
X14351000Y15011501D03*
X14351000Y13436499D03*
D14*
X11189000Y23241000D03*
X9639000Y23241000D03*
D16*
X34571800Y48209200D03*
X33601800Y48209200D03*
D19*
X35610800Y14807600D03*
X35610800Y16357600D03*
D12*
X42609000Y37846000D03*
X44259000Y37846000D03*
D43*
X32258000Y990499D03*
X32258000Y2565501D03*
D18*
X25450800Y13399000D03*
X25450800Y15049000D03*
D19*
X20470000Y47434200D03*
X20470000Y48984200D03*
D11*
X12636200Y6350000D03*
X14186200Y6350000D03*
D12*
X42609000Y36449000D03*
X44259000Y36449000D03*
D55*
X6350000Y24718500D03*
X6350000Y26843500D03*
D56*
X18669000Y5334000D03*
X18669000Y4364000D03*
D10*
X37251600Y45379400D03*
X37251601Y44729400D03*
X37251600Y44079400D03*
X39151600Y44079400D03*
X39151599Y44729400D03*
X39151600Y45379400D03*
D41*
X14097000Y2921000D03*
X14097000Y1371000D03*
D12*
X36767000Y25400000D03*
X38417000Y25400000D03*
D16*
X2113000Y25527000D03*
X1143000Y25527000D03*
D18*
X31369000Y44133000D03*
X31369000Y45783000D03*
D23*
X48783000Y12192000D03*
D24*
X47512999Y12192000D03*
D12*
X42609000Y35052000D03*
X44259000Y35052000D03*
D15*
X38542000Y27036000D03*
X38541999Y27686000D03*
X38542000Y28336000D03*
X36642000Y28336000D03*
X36642000Y27036000D03*
D41*
X4572000Y32525000D03*
X4572000Y30975000D03*
D16*
X31775200Y48209200D03*
X30805200Y48209200D03*
D44*
X25194200Y48237200D03*
X25194200Y49197200D03*
D57*
X48793501Y6858000D03*
X47218499Y6858000D03*
D41*
X17145000Y2934000D03*
X17145000Y1384000D03*
D58*
X7015744Y34443501D03*
X7015744Y35393500D03*
X7015744Y36343499D03*
X4740744Y36343499D03*
X4740744Y34443501D03*
D19*
X33049999Y35435500D03*
X33049999Y36985500D03*
D41*
X21869400Y44082000D03*
X21869400Y42532000D03*
D12*
X44006000Y14478000D03*
X45656000Y14478000D03*
D41*
X37592000Y17920000D03*
X37592000Y16370000D03*
D44*
X32687200Y48237200D03*
X32687200Y49197200D03*
D11*
X12636200Y9398000D03*
X14186200Y9398000D03*
D54*
X40894000Y3683000D03*
X41394001Y3683000D03*
X41894001Y3683000D03*
X42394002Y3683000D03*
X42394002Y5583000D03*
X41894001Y5583000D03*
X41394001Y5583000D03*
X40894000Y5583000D03*
D39*
X41144002Y4633000D03*
D40*
X41644001Y4633000D03*
D39*
X42144000Y4633000D03*
D17*
X40010500Y17968000D03*
X40010500Y17018000D03*
X40010500Y16068000D03*
X42285500Y16068000D03*
X42285500Y17968000D03*
D23*
X48763000Y40132000D03*
D24*
X47492999Y40132000D03*
X46223000Y40132000D03*
X44953000Y40132000D03*
D11*
X36817000Y19558000D03*
X38367000Y19558000D03*
D59*
X25667501Y42037001D03*
D60*
X27117499Y42037001D03*
D14*
X43345002Y32131000D03*
X41795002Y32131000D03*
D41*
X9144000Y39764000D03*
X9144000Y38214000D03*
D11*
X6337000Y23241000D03*
X7887000Y23241000D03*
D37*
X2984000Y32512000D03*
X1334000Y32512000D03*
D12*
X44006000Y6858000D03*
X45656000Y6858000D03*
D57*
X48793501Y8259037D03*
X47218499Y8259037D03*
D61*
X7908483Y41149016D03*
X7908483Y41649017D03*
X7908483Y42149017D03*
X7908483Y42649018D03*
X6008483Y42649018D03*
X6008483Y42149017D03*
X6008483Y41649017D03*
X6008483Y41149016D03*
D39*
X6958483Y41399018D03*
D62*
X6958483Y41899017D03*
D39*
X6958483Y42399016D03*
D55*
X19177000Y36783500D03*
X19177000Y38908500D03*
D36*
X35306000Y42265500D03*
X35306000Y41305500D03*
D18*
X11176000Y15939000D03*
X11176000Y17589000D03*
D12*
X4128000Y15240000D03*
X5778000Y15240000D03*
D11*
X7734000Y11811000D03*
X9284000Y11811000D03*
D13*
X23368000Y38417000D03*
X23368000Y36767000D03*
D43*
X32888962Y44220249D03*
X32888962Y45795251D03*
D19*
X10033000Y1892000D03*
X10033000Y3442000D03*
D23*
X48768001Y37846000D03*
D24*
X47498000Y37846000D03*
X46228001Y37846000D03*
D41*
X18669000Y2934000D03*
X18669000Y1384000D03*
D63*
X1651000Y9827501D03*
X1651000Y7952499D03*
D18*
X15517000Y47384200D03*
X15517000Y49034200D03*
D12*
X44006000Y16764000D03*
X45656000Y16764000D03*
D25*
X3048000Y3048000D03*
D26*
X3048000Y3048000D03*
D12*
X42609000Y33655000D03*
X44259000Y33655000D03*
D13*
X32258000Y5651000D03*
X32258000Y4001000D03*
D64*
X25450800Y10324001D03*
D65*
X25450800Y11773999D03*
D13*
X16002000Y15049000D03*
X16002000Y13399000D03*
D66*
X40660001Y48133000D03*
D67*
X41910000Y48133000D03*
D68*
X41900000Y1659000D03*
D67*
X40650001Y1659000D03*
D69*
X8009000Y2042000D03*
D70*
X8009000Y3292000D03*
D51*
X39761000Y11801000D03*
X39761000Y10551000D03*
D52*
X40386000Y11176000D03*
D51*
X41011000Y11801000D03*
X41011000Y10551000D03*
X13710000Y37028500D03*
X13710000Y38278500D03*
D52*
X13085000Y37653500D03*
D51*
X12460000Y37028500D03*
X12460000Y38278500D03*
D69*
X8136000Y46619000D03*
D70*
X8136000Y47869000D03*
D51*
X32621500Y41539000D03*
X32621500Y40264000D03*
X32621500Y38989000D03*
X32621500Y37714000D03*
X32621500Y36439000D03*
X33896500Y41539000D03*
X33896500Y40264000D03*
X33896500Y38989000D03*
X33896500Y37714000D03*
X33896500Y36439000D03*
X35171500Y41539000D03*
X35171500Y40264000D03*
X35171500Y38989000D03*
D71*
X35171500Y38989000D03*
D51*
X35171500Y37714000D03*
X35171500Y36439000D03*
X36446500Y41539000D03*
X36446500Y40264000D03*
X36446500Y38989000D03*
X36446500Y37714000D03*
X36446500Y36439000D03*
X37721500Y41539000D03*
X37721500Y40264000D03*
X37721500Y38989000D03*
X37721500Y37714000D03*
X37721500Y36439000D03*
D72*
X14824000Y6852000D03*
X17024000Y6852000D03*
X13724000Y6852001D03*
X15924000Y6852001D03*
X13724000Y7952000D03*
X15924000Y7952000D03*
X17023999Y7952000D03*
X14824000Y7952001D03*
D73*
X15374000Y8502000D03*
D72*
X14824000Y9052000D03*
X15923999Y9052000D03*
X17024000Y9052000D03*
X13724000Y9052001D03*
X13724000Y10152000D03*
X14823999Y10152000D03*
X15924000Y10152000D03*
X17023999Y10152000D03*
D23*
X2159000Y35829001D03*
D24*
X2159000Y34559000D03*
D66*
X2042000Y19296000D03*
D67*
X3291999Y19296000D03*
D74*
X1494000Y22027000D03*
D75*
X4194000Y23027001D03*
X4194000Y28026999D03*
D74*
X1494000Y29027000D03*
D76*
X4375000Y12197000D03*
D77*
X4375000Y9657000D03*
D78*
X43256200Y48869600D03*
D79*
X24790400Y25501600D03*
D78*
X11353800Y42951400D03*
D79*
X38176200Y4013200D03*
X8788400Y24079200D03*
X23749000Y7594600D03*
X41097200Y18262600D03*
X36042600Y3556000D03*
X35433000Y3556000D03*
X33350200Y1295400D03*
X7899400Y24079200D03*
X38379400Y15392400D03*
X42494200Y21488400D03*
D78*
X19608800Y24257000D03*
D79*
X26162000Y49225000D03*
X24638000Y7594600D03*
X8788400Y20396200D03*
X10998200Y48133000D03*
D78*
X26289000Y35991800D03*
D79*
X42494200Y31242000D03*
D78*
X44729400Y20599400D03*
D79*
X14351000Y16179800D03*
X9347200Y22123400D03*
X33070800Y16560800D03*
X8788400Y21107400D03*
X40817800Y19456400D03*
X42519600Y29006800D03*
D78*
X30886400Y16306800D03*
X33401000Y18542000D03*
D79*
X42164000Y17043400D03*
D78*
X11252200Y3719597D03*
D79*
X36880800Y14224000D03*
X34798000Y3556000D03*
X35585400Y45110400D03*
X20980400Y43230800D03*
X39573200Y42316400D03*
X14605000Y41554400D03*
D78*
X17373600Y18643600D03*
X15774435Y31190165D03*
D79*
X10845800Y11201400D03*
X21742400Y23850600D03*
X41783000Y29006800D03*
D78*
X10109200Y35966400D03*
X34593765Y22988035D03*
D79*
X14605000Y40970200D03*
X38379400Y14808200D03*
X24003000Y16027400D03*
X40716200Y22148800D03*
X18643600Y40386000D03*
X40894000Y24333200D03*
X20091400Y2717800D03*
X20091400Y3378200D03*
X1524000Y43205400D03*
X40716200Y21513800D03*
X29006800Y49199800D03*
X20218400Y8407400D03*
X29311600Y24104600D03*
X36550600Y4038600D03*
X42494200Y19126200D03*
X31800800Y49225200D03*
X8788400Y22504400D03*
X26009600Y25501600D03*
D78*
X10578200Y49100000D03*
D79*
X21056600Y3073400D03*
D78*
X35280600Y30581600D03*
D79*
X24282400Y8026400D03*
X30556200Y9855200D03*
X41122600Y33782000D03*
X8788400Y21844000D03*
X29057600Y7924800D03*
X41503600Y38074600D03*
X29845000Y43154600D03*
X17983200Y46913800D03*
D78*
X20273000Y35247786D03*
D79*
X21437600Y49123600D03*
X8940800Y19710400D03*
X41783000Y33782000D03*
X38379400Y14224000D03*
X4013200Y39624000D03*
X41351200Y15392400D03*
X36195000Y47980600D03*
X40868600Y24790400D03*
X14732000Y46863000D03*
X25171400Y47523400D03*
D78*
X31064200Y34602800D03*
X34593765Y24028400D03*
D79*
X25400000Y25501600D03*
X20269200Y43230800D03*
X40817800Y18872200D03*
X8788400Y23266400D03*
X40716200Y22682200D03*
X24511000Y14300200D03*
D78*
X18440400Y33197800D03*
X10210800Y38201600D03*
D79*
X5537200Y19456400D03*
D78*
X27101800Y31750000D03*
D79*
X22783800Y13512800D03*
X36880800Y15367000D03*
X1778000Y36753800D03*
X8178800Y20396200D03*
X39079400Y22417000D03*
D78*
X15367448Y27916223D03*
D79*
X24460200Y45110400D03*
X27916550Y15910248D03*
X36880800Y14808200D03*
X42494200Y23139400D03*
X41071800Y29006800D03*
X41351200Y17043400D03*
D78*
X15949697Y20306315D03*
D79*
X39344600Y29260800D03*
X18643600Y40894000D03*
D78*
X15290800Y29743400D03*
D79*
X14605000Y40386000D03*
X36372800Y21031200D03*
X33324800Y711200D03*
X19507200Y43230800D03*
X18643600Y41402000D03*
X41097200Y17627600D03*
X14401800Y42545000D03*
X16433800Y1371600D03*
X11252200Y4419600D03*
X39903400Y22682200D03*
X10668000Y4419600D03*
X12166600Y19431000D03*
X11658600Y26720800D03*
X12166600Y26720800D03*
X12166600Y21590000D03*
X36499800Y3073400D03*
X10109200Y34569400D03*
X12166600Y23723600D03*
X38481000Y18465800D03*
X12166600Y20548600D03*
X17805400Y45059600D03*
X38481000Y17653000D03*
X11658600Y33248600D03*
X15341600Y45059600D03*
X44881800Y18262600D03*
X44018200Y31242000D03*
X38887400Y18008600D03*
X2235200Y38811200D03*
X44373800Y19253200D03*
X44373800Y18262600D03*
X38125400Y3098800D03*
X10109200Y33934400D03*
X12166600Y27254200D03*
X11125200Y33248600D03*
X11658600Y26212800D03*
X12166600Y21056600D03*
X44373800Y18770600D03*
X10617200Y34569400D03*
X36499800Y1930400D03*
X10617200Y33934400D03*
X11658600Y27254200D03*
X44881800Y18770600D03*
X16230600Y45059600D03*
X12166600Y18923000D03*
X12166600Y26212800D03*
X12166600Y19964400D03*
X12166600Y22682200D03*
X44881800Y19253200D03*
X17018000Y45059600D03*
X43408600Y31242000D03*
X38150800Y1930400D03*
X12166600Y23190200D03*
D78*
X20066000Y21336000D03*
D79*
X4445000Y33502600D03*
X26111200Y20548600D03*
X5105400Y33477200D03*
X25450800Y9372600D03*
X3175000Y33477200D03*
D78*
X11353800Y41757600D03*
X30154940Y20238660D03*
X30784800Y23037800D03*
X30911800Y30665800D03*
D80*
X39370000Y8255000D03*
D78*
X30911800Y29602000D03*
D79*
X35534600Y25171400D03*
D78*
X20091400Y19862800D03*
X30798536Y21093664D03*
D79*
X3606800Y34645600D03*
X4724400Y34086800D03*
X10210800Y14427200D03*
D78*
X30810200Y27559000D03*
X20040600Y30454600D03*
D79*
X20853400Y39039800D03*
D78*
X24587200Y31013400D03*
D79*
X3835400Y33477200D03*
X3606800Y34061400D03*
X38531000Y25514000D03*
D78*
X21359275Y30673625D03*
X27965400Y20040600D03*
D79*
X5384800Y39751000D03*
X20472400Y25984200D03*
X38709600Y49149000D03*
X34696400Y13157200D03*
X30556200Y13411200D03*
X5740400Y10845800D03*
X44399200Y43256200D03*
X44221400Y26593800D03*
X29159200Y22428200D03*
X34544000Y7543800D03*
X27863800Y27965400D03*
X38125400Y6172200D03*
X44145200Y23647400D03*
X47256400Y25146000D03*
X44196000Y27127200D03*
X1498600Y39649400D03*
X5461000Y8331200D03*
X35255200Y13716000D03*
D78*
X2819400Y7975600D03*
X38989000Y977600D03*
X2819400Y6858000D03*
X1955800Y6858000D03*
X1092200Y6858000D03*
X10287000Y40817800D03*
X10033000Y939800D03*
X43256200Y45237400D03*
D79*
X36265279Y34295565D03*
X34772600Y47371000D03*
X21539200Y45161200D03*
X23393400Y45161200D03*
X20269200Y45161200D03*
X34594800Y34213800D03*
X19507200Y45161200D03*
X38582600Y35560000D03*
X22758400Y45161200D03*
X30530800Y41224200D03*
X22123400Y45161200D03*
X39293800Y46228000D03*
X20980400Y45161200D03*
X39522400Y40239000D03*
X36423600Y30886400D03*
X38955899Y42638899D03*
X41376600Y34975800D03*
X39776400Y39497000D03*
X40106600Y41833800D03*
X44094400Y11201400D03*
X25603200Y38608000D03*
X37921500Y43230800D03*
X35433000Y48006000D03*
X22631400Y47040800D03*
X23266400Y47040800D03*
X23886751Y47068986D03*
X24638000Y47091600D03*
X13970000Y12141200D03*
X20548600Y4191000D03*
X11201400Y10566400D03*
X15974000Y12217400D03*
X11179149Y7486702D03*
X19812000Y7061200D03*
X19050000Y7264400D03*
X17907000Y5461000D03*
X17907000Y4013200D03*
X9931400Y6070600D03*
X11430000Y11988800D03*
X15392400Y4749800D03*
X35839400Y6096000D03*
X35280600Y6096000D03*
X36398200Y5520997D03*
X35737800Y5588000D03*
X21920200Y13512800D03*
X32258000Y6223000D03*
X10922000Y8001000D03*
X18948400Y6299200D03*
X36398200Y6096000D03*
X15316200Y12141200D03*
X4089400Y37922200D03*
X2971800Y24536400D03*
X16103600Y22005597D03*
X15341600Y21996400D03*
X2921000Y25527000D03*
X2921000Y26543000D03*
X16103600Y22580600D03*
X17627600Y39725600D03*
X18313400Y39725600D03*
X46888400Y26136600D03*
X34696400Y29184600D03*
X44805600Y31115000D03*
X16129000Y25019000D03*
X35026600Y21031200D03*
X46837600Y28625800D03*
X46913800Y22098000D03*
X21894800Y35966400D03*
X46837600Y29616400D03*
X22834600Y16510000D03*
X44780200Y25400000D03*
X21412200Y16484600D03*
X29794200Y34823400D03*
X44856400Y28473400D03*
X34620200Y21513800D03*
X46837600Y27609800D03*
X44500800Y29591000D03*
X15621000Y24003000D03*
X15748000Y25527000D03*
X46761400Y32080200D03*
X44856400Y22631400D03*
X34620200Y20523200D03*
X46837600Y30607000D03*
X20396200Y16484600D03*
X44907200Y26085800D03*
X44824505Y23205517D03*
X21844000Y36767000D03*
X46939200Y21107400D03*
X44805600Y30124400D03*
X15103553Y24511000D03*
X30403800Y35179000D03*
X46888400Y24130000D03*
X27889200Y16484600D03*
X46913800Y23114000D03*
X46939200Y20116800D03*
X26924000Y34848800D03*
X12954000Y3873000D03*
X35712400Y34137600D03*
X39642985Y36181651D03*
X13411200Y4749800D03*
X28473400Y43307000D03*
X36921499Y43332400D03*
X40132000Y23342600D03*
X39217600Y29921200D03*
X40665400Y13690600D03*
X33604200Y9652000D03*
X41910000Y9702800D03*
X38938200Y8813800D03*
X24434800Y19634200D03*
X34264600Y9652000D03*
X22961600Y23622000D03*
X25349200Y20523200D03*
X42976800Y10414000D03*
X38935500Y9654700D03*
X24448000Y22619200D03*
X43281600Y34899600D03*
X14249400Y18923000D03*
X42799000Y33934400D03*
X14833600Y18313400D03*
X30099000Y23393400D03*
X12763000Y17589000D03*
X26644600Y28575000D03*
X38742626Y12648858D03*
D78*
X43027600Y8255000D03*
D79*
X29667200Y13589000D03*
X24892000Y35128200D03*
X39116000Y35204400D03*
D78*
X42621200Y37846000D03*
D79*
X29972000Y38227000D03*
D78*
X42609000Y36449000D03*
D79*
X29311600Y37744400D03*
X31572200Y42926000D03*
X36804600Y46990000D03*
X18819000Y47384200D03*
X39192200Y46837600D03*
X16370300Y46875700D03*
X37998400Y49149000D03*
X11176000Y47396400D03*
X40411400Y37236400D03*
X34421499Y43383200D03*
X31057902Y43183149D03*
X14681200Y12166600D03*
X29006800Y39725600D03*
X39700200Y38227000D03*
X10820400Y8788400D03*
X40233600Y36220400D03*
X19323577Y9851950D03*
X29514800Y39243000D03*
X19100800Y9245600D03*
X39700200Y36753800D03*
X18999168Y10326699D03*
X23799800Y14833600D03*
X34620200Y19786600D03*
X10718800Y12700000D03*
X35128200Y11582400D03*
X25400000Y16433800D03*
X35204400Y29748391D03*
X29972000Y36220400D03*
X29972000Y37236400D03*
X22910800Y34823400D03*
X27914600Y34848800D03*
X4775200Y39624000D03*
X35423496Y26269219D03*
X35991800Y8077200D03*
X33883600Y5816600D03*
X28908666Y34846774D03*
X35128200Y10820400D03*
X25400000Y34798000D03*
X35382200Y27355800D03*
X27660600Y9753600D03*
X28412222Y35136897D03*
X39751000Y35102800D03*
X29997400Y41732200D03*
X24384000Y34772600D03*
X29514800Y40259000D03*
X35215800Y26805401D03*
X27609800Y10515600D03*
X28981400Y40741600D03*
X30581600Y36753800D03*
X23723600Y34798000D03*
X5232400Y40944800D03*
X37490400Y46786800D03*
X10566400Y45339000D03*
X15849600Y37414200D03*
X3149600Y39624000D03*
X13335000Y34493200D03*
X10354503Y9136455D03*
X13843000Y35204400D03*
X34467800Y5816600D03*
X14554200Y35864800D03*
X39979600Y5765800D03*
X15824200Y38354000D03*
X43078400Y44170600D03*
X12598400Y35001200D03*
X6121400Y8636000D03*
X38168200Y12674600D03*
X14122400Y28752800D03*
X27533600Y14833600D03*
X38227000Y7924800D03*
X40132000Y37744400D03*
X11277600Y6858000D03*
X10773605Y9530133D03*
X29210000Y42443400D03*
X11328400Y9677400D03*
X33832800Y43408600D03*
X2018800Y33477200D03*
D81*
X1244266Y36931934D02*
X1244266Y37272200D01*
X1422400Y36753800D02*
X1244266Y36931934D01*
X1778000Y36753800D02*
X1422400Y36753800D01*
X14351000Y15011501D02*
X14351000Y16179800D01*
D82*
X29400001Y15480801D02*
X29400001Y17852000D01*
X26749400Y12830200D02*
X29400001Y15480801D01*
X26749400Y9427490D02*
X26749400Y12830200D01*
X26135710Y8813800D02*
X26749400Y9427490D01*
X24764530Y8813800D02*
X26135710Y8813800D01*
X24228400Y9349930D02*
X24764530Y8813800D01*
X24228400Y13491490D02*
X24228400Y9349930D01*
X23257790Y14462100D02*
X24228400Y13491490D01*
X16904049Y15976600D02*
X18418549Y14462100D01*
X15316200Y15976600D02*
X16904049Y15976600D01*
X13004800Y18288000D02*
X15316200Y15976600D01*
X9829800Y37084000D02*
X13004800Y33909000D01*
X8178800Y37628228D02*
X8723028Y37084000D01*
X13004800Y33909000D02*
X13004800Y18288000D01*
X18418549Y14462100D02*
X23257790Y14462100D01*
X7950200Y38836600D02*
X8178800Y38608000D01*
X8178800Y38608000D02*
X8178800Y37628228D01*
X5003800Y38836600D02*
X7950200Y38836600D01*
X4089400Y37922200D02*
X5003800Y38836600D01*
X8723028Y37084000D02*
X9829800Y37084000D01*
X2413000Y33477200D02*
X2018800Y33477200D01*
X2819400Y36703000D02*
X3106800Y36415600D01*
X2514600Y36703000D02*
X2819400Y36703000D01*
X2133600Y37084000D02*
X2514600Y36703000D01*
X2133600Y37592000D02*
X2133600Y37084000D01*
X1788400Y37937200D02*
X2133600Y37592000D01*
X3106800Y36415600D02*
X3106800Y34171000D01*
X3106800Y34171000D02*
X2413000Y33477200D01*
X1249600Y37937200D02*
X1788400Y37937200D01*
X1752093Y38587200D02*
X1249600Y38587200D01*
X2417093Y37922200D02*
X1752093Y38587200D01*
X4089400Y37922200D02*
X2417093Y37922200D01*
D83*
X4923563Y37968963D02*
X4241800Y37287200D01*
X4241800Y37287200D02*
X3149600Y37287200D01*
X5647963Y37968963D02*
X4923563Y37968963D01*
X5652000Y37973000D02*
X5647963Y37968963D01*
X2459200Y38587200D02*
X2235200Y38811200D01*
X3149600Y38587200D02*
X2459200Y38587200D01*
D84*
X48768001Y42164000D02*
X48768001Y37846000D01*
D83*
X44399200Y41071800D02*
X47675801Y41071800D01*
D82*
X37172600Y48133000D02*
X37998400Y47307200D01*
D85*
X45812001Y27114000D02*
X45098200Y27114000D01*
D83*
X33045501Y990499D02*
X32258000Y990499D01*
D84*
X17145000Y1384000D02*
X19722800Y1384000D01*
D83*
X45812000Y20613999D02*
X44743999Y20613999D01*
X33655000Y990600D02*
X33350200Y1295400D01*
D84*
X8890000Y35954000D02*
X10096800Y35954000D01*
D82*
X17983200Y48169000D02*
X17168000Y48984200D01*
D84*
X1371500Y30861000D02*
X1371500Y29149500D01*
X1494000Y29027000D02*
X1494000Y27859200D01*
D81*
X48773001Y34574401D02*
X48773001Y35560000D01*
D82*
X37820600Y44729400D02*
X37251601Y44729400D01*
D81*
X20470000Y48984200D02*
X21298200Y48984200D01*
D82*
X38811200Y19558000D02*
X39090600Y19837400D01*
D85*
X10974603Y3442000D02*
X10033000Y3442000D01*
D86*
X24675600Y15049000D02*
X25450800Y15049000D01*
D81*
X48783000Y17917400D02*
X48783000Y16764000D01*
D86*
X15949697Y20306315D02*
X16229012Y20027000D01*
D83*
X38989000Y4000200D02*
X38189200Y4000200D01*
X9284000Y11811000D02*
X9284000Y11912000D01*
D82*
X20091400Y2565400D02*
X20091400Y2717800D01*
D86*
X6958483Y40742717D02*
X6958483Y41399018D01*
X10845800Y11201400D02*
X10515600Y10871200D01*
X3924000Y6540800D02*
X4241800Y6223000D01*
D82*
X20923000Y39878000D02*
X19993000Y40808000D01*
D81*
X25194200Y49197200D02*
X26134200Y49197200D01*
D86*
X3924000Y7239000D02*
X3924000Y6540800D01*
D83*
X5694600Y12197000D02*
X4375000Y12197000D01*
D85*
X40482899Y46119500D02*
X40482899Y45419502D01*
D83*
X3810000Y39827200D02*
X4013200Y39624000D01*
X5778000Y15240000D02*
X4375000Y13837000D01*
D86*
X14186200Y10922000D02*
X14186200Y10614200D01*
D84*
X15621000Y1371000D02*
X14097000Y1371000D01*
D82*
X33896500Y42328900D02*
X33896500Y41539000D01*
D83*
X34798000Y4505999D02*
X34798000Y3556000D01*
D81*
X32687200Y49197200D02*
X31828800Y49197200D01*
D83*
X9259001Y5273000D02*
X9259001Y5972998D01*
X44743999Y20613999D02*
X44729400Y20599400D01*
D85*
X44329400Y28543200D02*
X43916600Y28956000D01*
D86*
X33075000Y28527000D02*
X35283400Y28527000D01*
X16229012Y20027000D02*
X17725000Y20027000D01*
D83*
X43789600Y41681400D02*
X44399200Y41071800D01*
X34353200Y990600D02*
X33655000Y990600D01*
D82*
X39090600Y23152400D02*
X38367000Y23876000D01*
D84*
X4572000Y29768800D02*
X4191000Y29387800D01*
D83*
X33324800Y711200D02*
X33045501Y990499D01*
D81*
X16433800Y1371600D02*
X16433200Y1371000D01*
D84*
X20091400Y2565400D02*
X20091400Y3378200D01*
D86*
X31400000Y33202000D02*
X31400000Y34335200D01*
D82*
X37998400Y47307200D02*
X37998400Y44907200D01*
X7208485Y42649018D02*
X6958483Y42399016D01*
D86*
X4241800Y6223000D02*
X8009001Y6223000D01*
X10515600Y10007600D02*
X10033000Y9525000D01*
D83*
X42405000Y41681400D02*
X43789600Y41681400D01*
X42595800Y9054800D02*
X41796000Y8255000D01*
D81*
X48387000Y18989000D02*
X48387000Y18313400D01*
X40055800Y3606800D02*
X40055800Y4191000D01*
D85*
X43916600Y28956000D02*
X42773600Y28956000D01*
D83*
X41126000Y10436000D02*
X39761000Y11801000D01*
D86*
X7302000Y37973000D02*
X7924800Y37350200D01*
X35704400Y28948000D02*
X35704400Y30157800D01*
X30900000Y16320400D02*
X30886400Y16306800D01*
D85*
X9144000Y38214000D02*
X10198400Y38214000D01*
D84*
X11252200Y1778000D02*
X11252200Y4419600D01*
D86*
X34592365Y24027000D02*
X33075000Y24027000D01*
X35283400Y28527000D02*
X35534600Y28778200D01*
D83*
X8509000Y17520500D02*
X8509000Y16687800D01*
X3810000Y40579001D02*
X3810000Y39827200D01*
D86*
X23850600Y8026400D02*
X24282400Y8026400D01*
D83*
X7734000Y13462000D02*
X6959600Y13462000D01*
D81*
X48387000Y34188400D02*
X48773001Y34574401D01*
D84*
X1494000Y27859200D02*
X1143000Y27508200D01*
D83*
X38189200Y4000200D02*
X38176200Y4013200D01*
D86*
X23063200Y8813800D02*
X23850600Y8026400D01*
D81*
X26134200Y49197200D02*
X26162000Y49225000D01*
X40055800Y4191000D02*
X40497800Y4633000D01*
D86*
X21209000Y7900000D02*
X22122800Y8813800D01*
D84*
X1143000Y23571200D02*
X1494000Y23220200D01*
D82*
X14732000Y48118200D02*
X13866000Y48984200D01*
D81*
X38989000Y2540000D02*
X40055800Y3606800D01*
D84*
X8329500Y35393500D02*
X8890000Y35954000D01*
X1494000Y23220200D02*
X1494000Y22027000D01*
D83*
X5778000Y16141200D02*
X5778000Y15240000D01*
D82*
X38367000Y19558000D02*
X38811200Y19558000D01*
D83*
X8509000Y16687800D02*
X8229600Y16408400D01*
D82*
X14732000Y46863000D02*
X14732000Y48118200D01*
D86*
X35534600Y28778200D02*
X35704400Y28948000D01*
D82*
X38269000Y22417000D02*
X39079400Y22417000D01*
D86*
X31400000Y34335200D02*
X31064200Y34671000D01*
D83*
X1524000Y42304000D02*
X1524000Y43205400D01*
D86*
X7633000Y39751000D02*
X7633000Y40068200D01*
X5562601Y19430999D02*
X5537200Y19456400D01*
D84*
X4572000Y30975000D02*
X4572000Y29768800D01*
D82*
X42545000Y29184600D02*
X42545000Y30148500D01*
D83*
X8229600Y16408400D02*
X6045200Y16408400D01*
D82*
X33584000Y49197200D02*
X33606800Y49174400D01*
X38989000Y2527600D02*
X38989000Y2540000D01*
X29039000Y7943400D02*
X29057600Y7924800D01*
X39090600Y22428200D02*
X39090600Y23152400D01*
D86*
X7924800Y37350200D02*
X7924800Y36919200D01*
D82*
X32888962Y43336438D02*
X33896500Y42328900D01*
D81*
X40497800Y4633000D02*
X41144002Y4633000D01*
D86*
X10033000Y9525000D02*
X9474533Y9525000D01*
D82*
X39079400Y22417000D02*
X39090600Y22428200D01*
D86*
X24638000Y7594600D02*
X24155400Y7112000D01*
X7633000Y40068200D02*
X6958483Y40742717D01*
D83*
X6045200Y16408400D02*
X5778000Y16141200D01*
D82*
X29840962Y43158638D02*
X29845000Y43154600D01*
D86*
X22122800Y8813800D02*
X23063200Y8813800D01*
D82*
X32888962Y44220249D02*
X32888962Y43336438D01*
D83*
X40648000Y11801000D02*
X41011000Y11801000D01*
X42595800Y9956800D02*
X42595800Y9054800D01*
D86*
X34593765Y24028400D02*
X34592365Y24027000D01*
D83*
X40648000Y9723500D02*
X40648000Y10936000D01*
X48793501Y10022499D02*
X48783000Y10033000D01*
X40648000Y12648500D02*
X40648000Y11801000D01*
D81*
X29009400Y49197200D02*
X29006800Y49199800D01*
D85*
X7908483Y42649018D02*
X7208485Y42649018D01*
D86*
X35704400Y30157800D02*
X35280600Y30581600D01*
X18444600Y33202000D02*
X18440400Y33197800D01*
D85*
X42394002Y4382998D02*
X42144000Y4633000D01*
D83*
X41860500Y10436000D02*
X42116600Y10436000D01*
D82*
X37998400Y44907200D02*
X37820600Y44729400D01*
D86*
X22758400Y13487400D02*
X22783800Y13512800D01*
D82*
X25591000Y39878000D02*
X20923000Y39878000D01*
D83*
X9284000Y11912000D02*
X7734000Y13462000D01*
X6959600Y13462000D02*
X5694600Y12197000D01*
D81*
X48387000Y18313400D02*
X48783000Y17917400D01*
D82*
X17983200Y46913800D02*
X17983200Y48169000D01*
X42773600Y28956000D02*
X42545000Y29184600D01*
D81*
X16433200Y1371000D02*
X15621000Y1371000D01*
D83*
X42116600Y10436000D02*
X42595800Y9956800D01*
D84*
X4191000Y29387800D02*
X4191000Y28029999D01*
X14186200Y10152000D02*
X13724000Y10152000D01*
D86*
X10515600Y10871200D02*
X10515600Y10007600D01*
D82*
X36347400Y48133000D02*
X37172600Y48133000D01*
D81*
X29893200Y49197200D02*
X29009400Y49197200D01*
D84*
X20091400Y1752600D02*
X20091400Y2565400D01*
D85*
X42394002Y3683000D02*
X42394002Y4382998D01*
D83*
X9259001Y5972998D02*
X9008999Y6223000D01*
X41516000Y42570400D02*
X42405000Y41681400D01*
D86*
X7924800Y36919200D02*
X8890000Y35954000D01*
D83*
X47675801Y41071800D02*
X48768001Y42164000D01*
D84*
X19722800Y1384000D02*
X20091400Y1752600D01*
D82*
X29840962Y44170499D02*
X29840962Y43158638D01*
D84*
X1143000Y27508200D02*
X1143000Y23571200D01*
D82*
X36387000Y21017000D02*
X36372800Y21031200D01*
D86*
X19400000Y33202000D02*
X18444600Y33202000D01*
D81*
X43256200Y47638000D02*
X43256200Y48869600D01*
D85*
X44329400Y27882800D02*
X44329400Y28543200D01*
D81*
X48387000Y32839000D02*
X48387000Y34188400D01*
D83*
X48793501Y6858000D02*
X48793501Y10022499D01*
D86*
X24511000Y14884400D02*
X24675600Y15049000D01*
D84*
X10096800Y35954000D02*
X10109200Y35966400D01*
X7015744Y35393500D02*
X8329500Y35393500D01*
D82*
X37169000Y21017000D02*
X36387000Y21017000D01*
D86*
X23521000Y7112000D02*
X22733000Y7900000D01*
D85*
X45098200Y27114000D02*
X44329400Y27882800D01*
D83*
X41860500Y10436000D02*
X41126000Y10436000D01*
X40648000Y10936000D02*
X39773000Y11811000D01*
D86*
X22758400Y12255000D02*
X22758400Y13487400D01*
D84*
X14186200Y10614200D02*
X14186200Y10152000D01*
X11252200Y4419600D02*
X10668000Y4419600D01*
D81*
X21298200Y48984200D02*
X21437600Y49123600D01*
D82*
X29039000Y9017000D02*
X29039000Y7943400D01*
D86*
X30900000Y17852000D02*
X30900000Y16320400D01*
X31064200Y34671000D02*
X31064200Y34602800D01*
D82*
X20116800Y3352800D02*
X20091400Y3378200D01*
D81*
X31828800Y49197200D02*
X31800800Y49225200D01*
D83*
X1371500Y29149500D02*
X1494000Y29027000D01*
D82*
X40482899Y45419502D02*
X40732901Y45169500D01*
D86*
X24155400Y7112000D02*
X23521000Y7112000D01*
X20400001Y33202000D02*
X20400001Y35120785D01*
D84*
X13869000Y1143000D02*
X11887200Y1143000D01*
X14082800Y1356800D02*
X13869000Y1143000D01*
X11887200Y1143000D02*
X11252200Y1778000D01*
D82*
X36195000Y47980600D02*
X36347400Y48133000D01*
D84*
X4191000Y28029999D02*
X4194000Y28026999D01*
D86*
X10198400Y38214000D02*
X10210800Y38201600D01*
D85*
X11252200Y3719597D02*
X10974603Y3442000D01*
D81*
X32687200Y49197200D02*
X33584000Y49197200D01*
D86*
X6287000Y19430999D02*
X5562601Y19430999D01*
D83*
X4375000Y13837000D02*
X4375000Y12197000D01*
D82*
X14097000Y1371000D02*
X14082800Y1356800D01*
D86*
X24511000Y14300200D02*
X24511000Y14884400D01*
X20400001Y35120785D02*
X20273000Y35247786D01*
D82*
X39090600Y19837400D02*
X39090600Y22428200D01*
D84*
X37640000Y17968000D02*
X37592000Y17920000D01*
D83*
X43494999Y31854003D02*
X43345002Y32004000D01*
D84*
X43494999Y27873500D02*
X43494999Y26256998D01*
D83*
X43376001Y24614000D02*
X43345001Y24583000D01*
D84*
X43345001Y24583000D02*
X43345001Y26107000D01*
D83*
X45812001Y24614000D02*
X43376001Y24614000D01*
X43494999Y26256998D02*
X43345001Y26107000D01*
X43471000Y21614000D02*
X43320000Y21463000D01*
D84*
X43320000Y21463000D02*
X43320000Y19939000D01*
X43317200Y17968000D02*
X42285500Y17968000D01*
X43713400Y19545600D02*
X43713400Y18364200D01*
X43713400Y18364200D02*
X43317200Y17968000D01*
X43320000Y19939000D02*
X43713400Y19545600D01*
D83*
X45812000Y21614000D02*
X43471000Y21614000D01*
X40148000Y9723500D02*
X40132000Y9707500D01*
X9458999Y15245500D02*
X9458999Y13636999D01*
X40132000Y8255000D02*
X40386000Y8255000D01*
D86*
X31400000Y18993600D02*
X31400000Y17852000D01*
X31207200Y24527000D02*
X31038800Y24358600D01*
X30810200Y27559000D02*
X30810200Y28473400D01*
X30900000Y30677600D02*
X30911800Y30665800D01*
X33075000Y24527000D02*
X31207200Y24527000D01*
D82*
X36767000Y25400000D02*
X35763200Y25400000D01*
D85*
X36642000Y27036000D02*
X36642000Y25525000D01*
D86*
X30986799Y29527001D02*
X33075000Y29527001D01*
X17725000Y20527001D02*
X19257001Y20527001D01*
X30835600Y21259800D02*
X30798536Y21222736D01*
D82*
X36642000Y25525000D02*
X36767000Y25400000D01*
D86*
X30798536Y21222736D02*
X30798536Y21093664D01*
D83*
X25450800Y10324001D02*
X25450800Y9372600D01*
D86*
X21399999Y31813001D02*
X21399999Y33202000D01*
D83*
X40132000Y9707500D02*
X40132000Y8255000D01*
D86*
X30810200Y28473400D02*
X31363800Y29027000D01*
X33075000Y22027000D02*
X31602800Y22027000D01*
X31363800Y29027000D02*
X33075000Y29027000D01*
X31602800Y22027000D02*
X30835600Y21259800D01*
X30154940Y20238660D02*
X31400000Y18993600D01*
X17725000Y19527000D02*
X19755600Y19527000D01*
X19257001Y20527001D02*
X20066000Y21336000D01*
D83*
X21844000Y38417000D02*
X21221200Y39039800D01*
X21221200Y39039800D02*
X20853400Y39039800D01*
D86*
X31038800Y24358600D02*
X30784800Y24104600D01*
X22199600Y31013400D02*
X21399999Y31813001D01*
D83*
X9458999Y13636999D02*
X9284000Y13462000D01*
X40386000Y8255000D02*
X41148000Y9017000D01*
D86*
X24587200Y31013400D02*
X22199600Y31013400D01*
X20040600Y30454600D02*
X18968200Y31527000D01*
X18968200Y31527000D02*
X17725000Y31527000D01*
D83*
X41148000Y9017000D02*
X41148000Y9723500D01*
X10210800Y14427200D02*
X10210800Y13690600D01*
D86*
X30911800Y29602000D02*
X30986799Y29527001D01*
X30900000Y33202000D02*
X30900000Y30677600D01*
X30784800Y24104600D02*
X30784800Y23037800D01*
D83*
X10210800Y13690600D02*
X9982200Y13462000D01*
D86*
X19755600Y19527000D02*
X20091400Y19862800D01*
D84*
X40246000Y8255000D02*
X39370000Y8255000D01*
D83*
X23368000Y38417000D02*
X21844000Y38417000D01*
D82*
X35763200Y25400000D02*
X35534600Y25171400D01*
D83*
X9982200Y13462000D02*
X9284000Y13462000D01*
D86*
X38541999Y27686000D02*
X37820600Y27686000D01*
X40071001Y25514000D02*
X38531000Y25514000D01*
X37642800Y26174200D02*
X38417000Y25400000D01*
X37820600Y27686000D02*
X37642800Y27508200D01*
X37642800Y27508200D02*
X37642800Y26174200D01*
X38417000Y25400000D02*
X38531000Y25514000D01*
X30399999Y19053801D02*
X29413200Y20040600D01*
D85*
X19177000Y35458400D02*
X19900000Y34735400D01*
X21359275Y30673625D02*
X19900000Y32132900D01*
X19900000Y34735400D02*
X19900000Y33202000D01*
X19177000Y36783500D02*
X19177000Y35458400D01*
D86*
X30399999Y17852000D02*
X30399999Y19053801D01*
X29413200Y20040600D02*
X27965400Y20040600D01*
D85*
X19900000Y32132900D02*
X19900000Y33202000D01*
D82*
X34467800Y25527000D02*
X36118800Y23876000D01*
X36118800Y23876000D02*
X36817000Y23876000D01*
X36817000Y23863600D02*
X37169000Y23511600D01*
X33075001Y25527000D02*
X34467800Y25527000D01*
X36817000Y23876000D02*
X36817000Y23863600D01*
X37169000Y23511600D02*
X37169000Y22417000D01*
X34459800Y25027000D02*
X35737800Y23749000D01*
X35737800Y23749000D02*
X35737800Y20637200D01*
X33075000Y25027000D02*
X34459800Y25027000D01*
X35737800Y20637200D02*
X36817000Y19558000D01*
X38269000Y20844600D02*
X38269000Y21017000D01*
X37566600Y20142200D02*
X38269000Y20844600D01*
X37566600Y19761200D02*
X37566600Y20142200D01*
X37363400Y19558000D02*
X37566600Y19761200D01*
X36817000Y19558000D02*
X37363400Y19558000D01*
D83*
X6705600Y11811000D02*
X5740400Y10845800D01*
D82*
X39151599Y44729400D02*
X39573200Y44729400D01*
X38722600Y49136000D02*
X38709600Y49149000D01*
X3556000Y43357800D02*
X2819400Y43357800D01*
X1524000Y39674800D02*
X1498600Y39649400D01*
X3810000Y43103800D02*
X3556000Y43357800D01*
D83*
X38125400Y5740400D02*
X38315600Y5550200D01*
X37795200Y6172200D02*
X38125400Y6172200D01*
X34010600Y14770600D02*
X34010600Y14376400D01*
D82*
X41982901Y44219500D02*
X42441500Y44219500D01*
X42441500Y44219500D02*
X42868800Y44646800D01*
D83*
X37436400Y1571600D02*
X37436400Y5813400D01*
X35610800Y14807600D02*
X36239000Y14179400D01*
D82*
X6008483Y39825517D02*
X6083000Y39751000D01*
X5384800Y39751000D02*
X6083000Y39751000D01*
D83*
X5540000Y7173000D02*
X5474000Y7239000D01*
X35610800Y14807600D02*
X35573800Y14770600D01*
D82*
X2540000Y41122600D02*
X2171400Y40754000D01*
D83*
X6781800Y9525000D02*
X7574535Y9525000D01*
X38315600Y5550200D02*
X38989000Y5550200D01*
D86*
X35610800Y14807600D02*
X35610800Y14071600D01*
D82*
X39903400Y45059600D02*
X39903400Y46800789D01*
D83*
X35903200Y1587200D02*
X35903200Y990600D01*
D82*
X6008483Y41149016D02*
X6008483Y39825517D01*
D83*
X35661600Y1828800D02*
X35903200Y1587200D01*
X34798000Y2057400D02*
X35026600Y1828800D01*
D82*
X42868800Y44646800D02*
X43275649Y44646800D01*
X43611800Y43764200D02*
X43154600Y43307000D01*
X2819400Y43357800D02*
X2540000Y43078400D01*
X39903400Y46800789D02*
X38722600Y47981589D01*
D83*
X37436400Y5813400D02*
X37795200Y6172200D01*
D82*
X39903400Y4978400D02*
X39560800Y4978400D01*
X3810000Y42478999D02*
X3810000Y43103800D01*
X39573200Y44729400D02*
X39903400Y45059600D01*
D83*
X36855400Y990600D02*
X37436400Y1571600D01*
D82*
X47224400Y25114000D02*
X47256400Y25146000D01*
D83*
X34671000Y13716000D02*
X35255200Y13716000D01*
X7758999Y7173000D02*
X5540000Y7173000D01*
D82*
X38722600Y47981589D02*
X38722600Y48133000D01*
D83*
X7366000Y10845800D02*
X6731000Y10845800D01*
D82*
X43611800Y44310649D02*
X43611800Y43764200D01*
X2540000Y43078400D02*
X2540000Y41122600D01*
D86*
X35610800Y14807600D02*
X35610800Y14706600D01*
D83*
X35903200Y990600D02*
X36855400Y990600D01*
X43066000Y43218400D02*
X43154600Y43307000D01*
D82*
X39560800Y4978400D02*
X38989000Y5550200D01*
D83*
X43713400Y42570400D02*
X44399200Y43256200D01*
X5474000Y8318200D02*
X5461000Y8331200D01*
X7734000Y11811000D02*
X7734000Y11213800D01*
X6426200Y9880600D02*
X6781800Y9525000D01*
X7734000Y11811000D02*
X6705600Y11811000D01*
D82*
X38722600Y48133000D02*
X38722600Y49136000D01*
D83*
X6731000Y10845800D02*
X6426200Y10541000D01*
D86*
X35610800Y14071600D02*
X35255200Y13716000D01*
D82*
X43275649Y44646800D02*
X43611800Y44310649D01*
D83*
X43066000Y42570400D02*
X43713400Y42570400D01*
X7734000Y11213800D02*
X7366000Y10845800D01*
D82*
X1524000Y40754000D02*
X1524000Y39674800D01*
X40508000Y5583000D02*
X39903400Y4978400D01*
X40894000Y5583000D02*
X40508000Y5583000D01*
X45812000Y25114000D02*
X47224400Y25114000D01*
D83*
X38125400Y6172200D02*
X38125400Y5740400D01*
X35026600Y1828800D02*
X35661600Y1828800D01*
X34798000Y2606001D02*
X34798000Y2057400D01*
D82*
X2171400Y40754000D02*
X1524000Y40754000D01*
D83*
X5474000Y7239000D02*
X5474000Y8318200D01*
X36239000Y14179400D02*
X36239000Y12827000D01*
X43066000Y42570400D02*
X43066000Y43218400D01*
X6426200Y10541000D02*
X6426200Y9880600D01*
X34010600Y14376400D02*
X34671000Y13716000D01*
D85*
X9144000Y1295400D02*
X8813800Y965200D01*
X8634984Y41149016D02*
X9144000Y40640000D01*
X6454800Y4372000D02*
X7355800Y5273000D01*
X8813800Y965200D02*
X7315200Y965200D01*
X9144000Y40640000D02*
X9144000Y39764000D01*
D81*
X10033000Y1892000D02*
X10033000Y939800D01*
D85*
X7908483Y41149016D02*
X8634984Y41149016D01*
D82*
X43224700Y46119500D02*
X43256200Y46088000D01*
D81*
X43256200Y46088000D02*
X43256200Y45237400D01*
D85*
X38989000Y977600D02*
X39865600Y1854200D01*
X9359600Y1892000D02*
X9144000Y1676400D01*
X39865600Y1854200D02*
X39865600Y2223443D01*
X40894000Y3251843D02*
X40894000Y3683000D01*
X7355800Y5273000D02*
X7758999Y5273000D01*
X9144000Y39764000D02*
X10096800Y39764000D01*
X9144000Y1676400D02*
X9144000Y1295400D01*
X10287000Y39954200D02*
X10287000Y40817800D01*
X41982901Y46119500D02*
X43224700Y46119500D01*
X6454800Y1825600D02*
X6454800Y4372000D01*
X39865600Y2223443D02*
X40894000Y3251843D01*
X7315200Y965200D02*
X6454800Y1825600D01*
X10096800Y39764000D02*
X10287000Y39954200D01*
X10033000Y1892000D02*
X9359600Y1892000D01*
D82*
X24907200Y44257000D02*
X25667501Y43496699D01*
D83*
X38582600Y35560000D02*
X37462500Y35560000D01*
X31556700Y41224200D02*
X31610000Y41277500D01*
D82*
X23141400Y44257000D02*
X24907200Y44257000D01*
D83*
X30530800Y41224200D02*
X31556700Y41224200D01*
X31610000Y39783499D02*
X30828501Y39783499D01*
X33049999Y34564801D02*
X33401000Y34213800D01*
X33049999Y35435500D02*
X33049999Y34564801D01*
X30828501Y39783499D02*
X30530800Y40081200D01*
D82*
X37462500Y35560000D02*
X37338000Y35435500D01*
D83*
X33401000Y34213800D02*
X34594800Y34213800D01*
X34446999Y35435500D02*
X34594800Y35287699D01*
X35843999Y35435500D02*
X35843999Y34716845D01*
D82*
X25667501Y43496699D02*
X25667501Y42037001D01*
D83*
X35843999Y34716845D02*
X36265279Y34295565D01*
X30530800Y40081200D02*
X30530800Y41224200D01*
X34594800Y35287699D02*
X34594800Y34213800D01*
D82*
X23141400Y44257000D02*
X23266400Y44132000D01*
X39522400Y40239000D02*
X38852500Y40239000D01*
X38955899Y42638899D02*
X38955899Y41892301D01*
X38955899Y41892301D02*
X39522400Y41325800D01*
X39522400Y41325800D02*
X39522400Y40239000D01*
X38852500Y40239000D02*
X38748000Y40134500D01*
X35306000Y42265500D02*
X37465000Y42265500D01*
X37921500Y42722000D02*
X37465000Y42265500D01*
X37921500Y43230800D02*
X37921500Y42722000D01*
X34566800Y49174400D02*
X34566800Y48214200D01*
X35433000Y48006000D02*
X35433000Y48945800D01*
X35204400Y49174400D02*
X34566800Y49174400D01*
X35433000Y48945800D02*
X35204400Y49174400D01*
X34566800Y48214200D02*
X34571800Y48209200D01*
X33573800Y48237200D02*
X33601800Y48209200D01*
X32659200Y48209200D02*
X32687200Y48237200D01*
X31775200Y48209200D02*
X31775200Y47198200D01*
X32687200Y48237200D02*
X33573800Y48237200D01*
X31775200Y48209200D02*
X32659200Y48209200D01*
X31770200Y47193200D02*
X32740600Y47193200D01*
X31775200Y47198200D02*
X31770200Y47193200D01*
X28976200Y48209200D02*
X30805200Y48209200D01*
X30805200Y48209200D02*
X30805200Y47198200D01*
X30805200Y47198200D02*
X30810200Y47193200D01*
X27076200Y48209200D02*
X28016200Y48209200D01*
X25222200Y48209200D02*
X25194200Y48237200D01*
X22631400Y47040800D02*
X22631400Y47548800D01*
X26106200Y48209200D02*
X25222200Y48209200D01*
X22631400Y47548800D02*
X23319800Y48237200D01*
X23319800Y48237200D02*
X25194200Y48237200D01*
X21441200Y46463000D02*
X20470000Y47434200D01*
X18870000Y49034200D02*
X20470000Y47434200D01*
X23266400Y46710600D02*
X23018800Y46463000D01*
X23266400Y47040800D02*
X23266400Y46710600D01*
X23018800Y46463000D02*
X21441200Y46463000D01*
X18819000Y49034200D02*
X18870000Y49034200D01*
X23886751Y46695951D02*
X23301400Y46110600D01*
X15517000Y49034200D02*
X15568000Y49034200D01*
X17618000Y46110600D02*
X17168000Y46560600D01*
X23301400Y46110600D02*
X17618000Y46110600D01*
X17168000Y46560600D02*
X17168000Y47434200D01*
X23886751Y47068986D02*
X23886751Y46695951D01*
X15568000Y49034200D02*
X17168000Y47434200D01*
X14592200Y45758200D02*
X13866000Y46484400D01*
X13866000Y46484400D02*
X13866000Y47434200D01*
X24638000Y46532800D02*
X23863400Y45758200D01*
X12266000Y49034200D02*
X13866000Y47434200D01*
X23863400Y45758200D02*
X14592200Y45758200D01*
X24638000Y47091600D02*
X24638000Y46532800D01*
X12215000Y49034200D02*
X12266000Y49034200D01*
D86*
X11201400Y10566400D02*
X11557000Y10922000D01*
X11557000Y10922000D02*
X12433000Y10922000D01*
X11201400Y10566400D02*
X11709400Y10058400D01*
X11975800Y10058400D02*
X12636200Y9398000D01*
X12433000Y6350000D02*
X11078493Y6350000D01*
X11078493Y6350000D02*
X10777600Y6650893D01*
X10777600Y6650893D02*
X10777600Y7085153D01*
D85*
X20193000Y5334000D02*
X20548600Y4978400D01*
X18669000Y5334000D02*
X20193000Y5334000D01*
D86*
X10777600Y7085153D02*
X11179149Y7486702D01*
D85*
X20548600Y4978400D02*
X20548600Y4191000D01*
D86*
X11709400Y10058400D02*
X11975800Y10058400D01*
D81*
X19812000Y7061200D02*
X19583400Y6832600D01*
X19583400Y6832600D02*
X19583400Y6451600D01*
D84*
X22733000Y6350000D02*
X19685000Y6350000D01*
D86*
X19583400Y6451600D02*
X19685000Y6350000D01*
D83*
X17145000Y4699000D02*
X17145000Y2934000D01*
X17145000Y2934000D02*
X18669000Y2934000D01*
D86*
X19050000Y7264400D02*
X19050000Y7848600D01*
X17907000Y4013200D02*
X17907000Y3696000D01*
X18745200Y8153400D02*
X18047000Y8153400D01*
D83*
X18669000Y4364000D02*
X18669000Y2934000D01*
D86*
X19050000Y7848600D02*
X18745200Y8153400D01*
D83*
X17907000Y5461000D02*
X17145000Y4699000D01*
D86*
X17907000Y3696000D02*
X17145000Y2934000D01*
D81*
X12039600Y2159000D02*
X12270600Y1928000D01*
X12039600Y4699000D02*
X12039600Y2159000D01*
X9931400Y6070600D02*
X10668000Y6070600D01*
X12270600Y1928000D02*
X12827000Y1928000D01*
X10668000Y6070600D02*
X12039600Y4699000D01*
D86*
X15392400Y4114800D02*
X15621000Y3886200D01*
D83*
X12850000Y2921000D02*
X12827000Y2898000D01*
X15621000Y2921000D02*
X12850000Y2921000D01*
D86*
X15621000Y3886200D02*
X15621000Y2921000D01*
X15392400Y4749800D02*
X15392400Y4114800D01*
X21488400Y13512800D02*
X21209000Y13233400D01*
D83*
X15697200Y11760200D02*
X15316200Y12141200D01*
D86*
X12433000Y7874000D02*
X12306000Y8001000D01*
X21209000Y13233400D02*
X21209000Y12255000D01*
X21920200Y13512800D02*
X21488400Y13512800D01*
X18948400Y6299200D02*
X18643600Y6604000D01*
D83*
X32258000Y6223000D02*
X32258000Y5651000D01*
D86*
X12306000Y8001000D02*
X10922000Y8001000D01*
X18643600Y6604000D02*
X17793000Y6604000D01*
D83*
X15697200Y11189000D02*
X15697200Y11760200D01*
X8249500Y32361000D02*
X10004000Y32361000D01*
X6125301Y36343499D02*
X7015744Y36343499D01*
X5652000Y37973000D02*
X5652000Y36816800D01*
X5652000Y36816800D02*
X6125301Y36343499D01*
D82*
X2138400Y24536400D02*
X2113000Y24511000D01*
X2971800Y24536400D02*
X2138400Y24536400D01*
X17725000Y22027000D02*
X16125003Y22027000D01*
X16125003Y22027000D02*
X16103600Y22005597D01*
X15341600Y21996400D02*
X15811001Y21526999D01*
X2113000Y25527000D02*
X2921000Y25527000D01*
X15811001Y21526999D02*
X17725000Y21526999D01*
X17725000Y22527000D02*
X16157200Y22527000D01*
X16157200Y22527000D02*
X16103600Y22580600D01*
X2921000Y26543000D02*
X2113000Y26543000D01*
D87*
X1674101Y9804400D02*
X1651000Y9827501D01*
D84*
X1651000Y11594001D02*
X1651000Y9827501D01*
D87*
X4227600Y9804400D02*
X1674101Y9804400D01*
X4375000Y9657000D02*
X4227600Y9804400D01*
D82*
X16002000Y30099000D02*
X16002000Y27406600D01*
X17627600Y39725600D02*
X17119600Y39217600D01*
X16819000Y17852000D02*
X19400000Y17852000D01*
X15198235Y31987635D02*
X15198235Y30902765D01*
X16002000Y27406600D02*
X14274800Y25679400D01*
X17119600Y39217600D02*
X17119600Y33909000D01*
X14274800Y20396200D02*
X16819000Y17852000D01*
X17119600Y33909000D02*
X15198235Y31987635D01*
X14274800Y25679400D02*
X14274800Y20396200D01*
X15198235Y30902765D02*
X16002000Y30099000D01*
X15549000Y21027000D02*
X17725000Y21027000D01*
X14627353Y25396953D02*
X14627353Y21948647D01*
X14627353Y21948647D02*
X15549000Y21027000D01*
X18313400Y39725600D02*
X18313400Y39712551D01*
X17472000Y38871151D02*
X17472000Y33753400D01*
X18313400Y39712551D02*
X17472000Y38871151D01*
X17472000Y33753400D02*
X16383000Y32664400D01*
X16383000Y32664400D02*
X16383000Y27152600D01*
X16383000Y27152600D02*
X14627353Y25396953D01*
D83*
X44259000Y33528000D02*
X45313600Y33528000D01*
X46233001Y34447401D02*
X46233001Y35560000D01*
X45313600Y33528000D02*
X46233001Y34447401D01*
X44259000Y34925000D02*
X44259000Y35052000D01*
X45732200Y36525200D02*
X46537800Y36525200D01*
X46537800Y36525200D02*
X47503000Y35560000D01*
X44259000Y35052000D02*
X45732200Y36525200D01*
X47258999Y9779000D02*
X47512999Y10033000D01*
X45656000Y9779000D02*
X47258999Y9779000D01*
X45656000Y12192000D02*
X47512999Y12192000D01*
X47512999Y14478000D02*
X45656000Y14478000D01*
X45656000Y16764000D02*
X47512999Y16764000D01*
D82*
X34311200Y30027000D02*
X33075000Y30027000D01*
X46888400Y26136600D02*
X46865800Y26114000D01*
X46865800Y26114000D02*
X45812000Y26114000D01*
X34696400Y29641800D02*
X34311200Y30027000D01*
X34696400Y29184600D02*
X34696400Y29641800D01*
X16137000Y25027000D02*
X16129000Y25019000D01*
X17725000Y25027000D02*
X16137000Y25027000D01*
X45811001Y31115000D02*
X45812000Y31114001D01*
X44805600Y31115000D02*
X45811001Y31115000D01*
X45812000Y28614000D02*
X46825800Y28614000D01*
X33075000Y21027000D02*
X35022400Y21027000D01*
X35022400Y21027000D02*
X35026600Y21031200D01*
X46825800Y28614000D02*
X46837600Y28625800D01*
X22400000Y35461200D02*
X22400000Y33202000D01*
X22567400Y35966400D02*
X23368000Y36767000D01*
X46897799Y22114001D02*
X46913800Y22098000D01*
X45812000Y22114001D02*
X46897799Y22114001D01*
X21894800Y35966400D02*
X22400000Y35461200D01*
X21894800Y35966400D02*
X22567400Y35966400D01*
X22834600Y16510000D02*
X23266400Y16510000D01*
X23266400Y16510000D02*
X23400000Y16643600D01*
X45812000Y29613999D02*
X46835199Y29613999D01*
X46835199Y29613999D02*
X46837600Y29616400D01*
X23400000Y16643600D02*
X23400000Y17852000D01*
X21399999Y17852000D02*
X21399999Y16496801D01*
X21399999Y16496801D02*
X21412200Y16484600D01*
X44780200Y25400000D02*
X44994200Y25614000D01*
X44994200Y25614000D02*
X45812000Y25614000D01*
X44856400Y28473400D02*
X45215800Y28114000D01*
X29794200Y34823400D02*
X29400001Y34429201D01*
X29400001Y34429201D02*
X29400001Y33202000D01*
X45215800Y28114000D02*
X45812000Y28114000D01*
X33075000Y21526999D02*
X34607001Y21526999D01*
X46833400Y27614000D02*
X46837600Y27609800D01*
X45812000Y27614000D02*
X46833400Y27614000D01*
X34607001Y21526999D02*
X34620200Y21513800D01*
X15621000Y24003000D02*
X16145000Y24527000D01*
X44500800Y29591000D02*
X44977800Y29114000D01*
X44977800Y29114000D02*
X45812000Y29114000D01*
X16145000Y24527000D02*
X17725000Y24527000D01*
X46761400Y32080200D02*
X46761400Y31800800D01*
X16992600Y25527000D02*
X15748000Y25527000D01*
X17724999Y25527000D02*
X16992600Y25527000D01*
X46761400Y31800800D02*
X46574600Y31614000D01*
X46574600Y31614000D02*
X45812000Y31614000D01*
X45812000Y22614000D02*
X44873800Y22614000D01*
X44873800Y22614000D02*
X44856400Y22631400D01*
X33075000Y20527001D02*
X34616399Y20527001D01*
X46830600Y30614000D02*
X46837600Y30607000D01*
X45812000Y30614000D02*
X46830600Y30614000D01*
X34616399Y20527001D02*
X34620200Y20523200D01*
X20400001Y17852000D02*
X20400001Y16488401D01*
X44907200Y26466800D02*
X45054400Y26614000D01*
X45054400Y26614000D02*
X45812000Y26614000D01*
X20400001Y16488401D02*
X20396200Y16484600D01*
X44907200Y26085800D02*
X44907200Y26466800D01*
X44824505Y23205517D02*
X45232988Y23614000D01*
X45232988Y23614000D02*
X45812000Y23614000D01*
X21900000Y34564200D02*
X21900000Y33202000D01*
X21317000Y35147200D02*
X21900000Y34564200D01*
X21317000Y36240000D02*
X21317000Y35147200D01*
X45812000Y21114000D02*
X46932600Y21114000D01*
X21844000Y36767000D02*
X21317000Y36240000D01*
X46932600Y21114000D02*
X46939200Y21107400D01*
X44805600Y30124400D02*
X45801600Y30124400D01*
X16002000Y23495000D02*
X16534000Y24027000D01*
X15103553Y24511000D02*
X15103553Y23846998D01*
X16534000Y24027000D02*
X17725000Y24027000D01*
X15455551Y23495000D02*
X16002000Y23495000D01*
X15103553Y23846998D02*
X15455551Y23495000D01*
X45801600Y30124400D02*
X45812000Y30114000D01*
X45812000Y24114000D02*
X46872400Y24114000D01*
X46872400Y24114000D02*
X46888400Y24130000D01*
X30403800Y35179000D02*
X30399999Y35175199D01*
X30399999Y35175199D02*
X30399999Y33202000D01*
X45812000Y23114000D02*
X46913800Y23114000D01*
X27899999Y16495399D02*
X27889200Y16484600D01*
X27899999Y17852000D02*
X27899999Y16495399D01*
X46936400Y20114000D02*
X46939200Y20116800D01*
X26900000Y34824800D02*
X26924000Y34848800D01*
X45812000Y20114000D02*
X46936400Y20114000D01*
X26900000Y33202000D02*
X26900000Y34824800D01*
D85*
X8759000Y5273000D02*
X8759000Y4042000D01*
X8759000Y4042000D02*
X8009000Y3292000D01*
X8259000Y4601400D02*
X7924800Y4267200D01*
X6908800Y2794000D02*
X7660800Y2042000D01*
X7924800Y4267200D02*
X7416800Y4267200D01*
X7416800Y4267200D02*
X6908800Y3759200D01*
X8259000Y5273000D02*
X8259000Y4601400D01*
X6908800Y3759200D02*
X6908800Y2794000D01*
X7660800Y2042000D02*
X8009000Y2042000D01*
X42773600Y2272010D02*
X42773600Y863600D01*
X42773600Y863600D02*
X42511600Y601600D01*
X40650001Y1255800D02*
X40650001Y1659000D01*
X41894001Y3151609D02*
X42773600Y2272010D01*
X42511600Y601600D02*
X41304201Y601600D01*
X41304201Y601600D02*
X40650001Y1255800D01*
X41894001Y3683000D02*
X41894001Y3151609D01*
X41900000Y2503558D02*
X41900000Y1659000D01*
X41394001Y3683000D02*
X41394001Y3009557D01*
X41394001Y3009557D02*
X41900000Y2503558D01*
D83*
X40660001Y48133000D02*
X40537001Y48010000D01*
D85*
X40613201Y47880399D02*
X41482900Y47010700D01*
D83*
X40537001Y48010000D02*
X40537001Y47880399D01*
D85*
X40537001Y47880399D02*
X40613201Y47880399D01*
X41482900Y47010700D02*
X41482900Y46119500D01*
X41224200Y49273000D02*
X39951200Y49273000D01*
X39951200Y49273000D02*
X39725600Y49047400D01*
X39725600Y49047400D02*
X39725600Y47548800D01*
D82*
X41910000Y48587200D02*
X41910000Y48133000D01*
D85*
X40982900Y46799500D02*
X40982900Y46119500D01*
X40792400Y46990000D02*
X40982900Y46799500D01*
X39725600Y47548800D02*
X40284400Y46990000D01*
X41910000Y48587200D02*
X41224200Y49273000D01*
X40284400Y46990000D02*
X40792400Y46990000D01*
X9093200Y43510200D02*
X6807200Y45796200D01*
X7203600Y47869000D02*
X8136000Y47869000D01*
X8773417Y42149017D02*
X9093200Y42468800D01*
X9093200Y42468800D02*
X9093200Y43510200D01*
X7908483Y42149017D02*
X8773417Y42149017D01*
X6807200Y45796200D02*
X6807200Y47472600D01*
X6807200Y47472600D02*
X7203600Y47869000D01*
X8136000Y45585000D02*
X8136000Y46619000D01*
X9187817Y41649017D02*
X9652000Y42113200D01*
X9652000Y44069000D02*
X8136000Y45585000D01*
X7908483Y41649017D02*
X9187817Y41649017D01*
X9652000Y42113200D02*
X9652000Y44069000D01*
D83*
X44259000Y37719000D02*
X45452800Y38912800D01*
X45452800Y38912800D02*
X46431200Y38912800D01*
X46431200Y38912800D02*
X47498000Y37846000D01*
X44259000Y36512000D02*
X45593000Y37846000D01*
X44259000Y36322000D02*
X44259000Y36512000D01*
X45593000Y37846000D02*
X46228001Y37846000D01*
D82*
X26772449Y13399000D02*
X25450800Y13399000D01*
X28400000Y17852000D02*
X28400000Y15026551D01*
X28400000Y15026551D02*
X26772449Y13399000D01*
X25450800Y13399000D02*
X25450800Y11773999D01*
X28473400Y42291000D02*
X28219401Y42037001D01*
D83*
X27117499Y40001501D02*
X27241000Y39878000D01*
D82*
X28219401Y42037001D02*
X27117499Y42037001D01*
D83*
X27117499Y42037001D02*
X27117499Y40001501D01*
D82*
X28473400Y43307000D02*
X28473400Y42291000D01*
D85*
X20523200Y35941000D02*
X20523200Y38404800D01*
X20900000Y33202000D02*
X20900000Y35564200D01*
X20523200Y38404800D02*
X20019500Y38908500D01*
X20019500Y38908500D02*
X19177000Y38908500D01*
X20900000Y35564200D02*
X20523200Y35941000D01*
D82*
X35610800Y46812200D02*
X36136400Y46286600D01*
X34091600Y46812200D02*
X35610800Y46812200D01*
X33710600Y47193200D02*
X34091600Y46812200D01*
X36136400Y44117499D02*
X36921499Y43332400D01*
X36136400Y46286600D02*
X36136400Y44117499D01*
X16039499Y13399000D02*
X16002000Y13436499D01*
X16002000Y13399000D02*
X14388499Y13399000D01*
D83*
X47218499Y8259037D02*
X45660037Y8259037D01*
X45660037Y8259037D02*
X45656000Y8255000D01*
X47218499Y6858000D02*
X45656000Y6858000D01*
D82*
X37489198Y31978398D02*
X37465000Y31954200D01*
X39090600Y31978398D02*
X37489198Y31978398D01*
D83*
X43116000Y41021000D02*
X43116000Y39507500D01*
X43116000Y39507500D02*
X43078500Y39470000D01*
D82*
X34412961Y45783000D02*
X32901213Y45783000D01*
X32901213Y45783000D02*
X32888962Y45795251D01*
X29853213Y45783000D02*
X29840962Y45795251D01*
X31369000Y45783000D02*
X29853213Y45783000D01*
D83*
X2946500Y30861000D02*
X2946500Y30899500D01*
X2946500Y30899500D02*
X1334000Y32512000D01*
X40132000Y23342600D02*
X40553000Y23763600D01*
X42555900Y23763600D02*
X43332500Y22987000D01*
X40553000Y23763600D02*
X42555900Y23763600D01*
X23266400Y42482000D02*
X23266400Y41325800D01*
X22748600Y40808000D02*
X21568000Y40808000D01*
X23266400Y41325800D02*
X22748600Y40808000D01*
X32258000Y4001000D02*
X32258000Y2565501D01*
D86*
X41517501Y30226000D02*
X41595001Y30148500D01*
X40030000Y30226000D02*
X41517501Y30226000D01*
X39725200Y29921200D02*
X40030000Y30226000D01*
X39217600Y29921200D02*
X39725200Y29921200D01*
X40010500Y14442500D02*
X39997000Y14429000D01*
D83*
X40665400Y13760600D02*
X39997000Y14429000D01*
X40665400Y13690600D02*
X40665400Y13760600D01*
D86*
X40010500Y16068000D02*
X40010500Y14442500D01*
D82*
X35056364Y25793019D02*
X35724419Y25793019D01*
X35915600Y28117800D02*
X36133800Y28336000D01*
D86*
X36767000Y29845001D02*
X36767000Y28461000D01*
D82*
X34822383Y26027000D02*
X35056364Y25793019D01*
D86*
X36767000Y28461000D02*
X36642000Y28336000D01*
D82*
X33075000Y26027000D02*
X34822383Y26027000D01*
X35915600Y25984200D02*
X35915600Y28117800D01*
X35724419Y25793019D02*
X35915600Y25984200D01*
X36133800Y28336000D02*
X36642000Y28336000D01*
X16751800Y15049000D02*
X16002000Y15049000D01*
X27101800Y9144000D02*
X26289000Y8331200D01*
X23876000Y13345522D02*
X23111822Y14109700D01*
X23111822Y14109700D02*
X17691100Y14109700D01*
X17691100Y14109700D02*
X16751800Y15049000D01*
X29900000Y17852000D02*
X29900000Y15447400D01*
X23876000Y9178092D02*
X23876000Y13345522D01*
X24722892Y8331200D02*
X23876000Y9178092D01*
X29900000Y15447400D02*
X27101800Y12649200D01*
X27101800Y12649200D02*
X27101800Y9144000D01*
X26289000Y8331200D02*
X24722892Y8331200D01*
X24790400Y19278600D02*
X25628600Y19278600D01*
D83*
X38938200Y8813800D02*
X39395400Y8813800D01*
D82*
X25628600Y19278600D02*
X25900000Y19007200D01*
X25900000Y19007200D02*
X25900000Y17852000D01*
D83*
X39395400Y8813800D02*
X39648000Y9066400D01*
X39648000Y9066400D02*
X39648000Y9723500D01*
D82*
X24434800Y19634200D02*
X24790400Y19278600D01*
X25349200Y20523200D02*
X25806400Y20066000D01*
X27400000Y19361400D02*
X27400000Y17852000D01*
D83*
X38935500Y9654700D02*
X38938200Y9652000D01*
X38935500Y10436000D02*
X38935500Y9654700D01*
D82*
X26695400Y20066000D02*
X27400000Y19361400D01*
X25806400Y20066000D02*
X26695400Y20066000D01*
X15036800Y18923000D02*
X14249400Y18923000D01*
X19900000Y16572600D02*
X19710400Y16383000D01*
X19710400Y16383000D02*
X18770600Y16383000D01*
X16460200Y17499600D02*
X15036800Y18923000D01*
X42761400Y34899600D02*
X42609000Y35052000D01*
X19900000Y17852000D02*
X19900000Y16572600D01*
X17654000Y17499600D02*
X16460200Y17499600D01*
X18770600Y16383000D02*
X17654000Y17499600D01*
X43281600Y34899600D02*
X42761400Y34899600D01*
X24400000Y16729200D02*
X24174400Y16503600D01*
X18818200Y15725800D02*
X17396800Y17147200D01*
X24174400Y16503600D02*
X23768000Y16503600D01*
X23768000Y16503600D02*
X22990200Y15725800D01*
X22990200Y15725800D02*
X18818200Y15725800D01*
X15999800Y17147200D02*
X14833600Y18313400D01*
X17396800Y17147200D02*
X15999800Y17147200D01*
X24400000Y17852000D02*
X24400000Y16729200D01*
D83*
X4718900Y17520500D02*
X4128000Y16929600D01*
X2730000Y15240000D02*
X4128000Y15240000D01*
X7559001Y17520500D02*
X4718900Y17520500D01*
X4128000Y16929600D02*
X4128000Y15240000D01*
X11176000Y15939000D02*
X10400800Y15939000D01*
X8940800Y16408400D02*
X8534400Y16002000D01*
X10400800Y15939000D02*
X9931400Y16408400D01*
X8285900Y15245500D02*
X7559001Y15245500D01*
X8534400Y15494000D02*
X8285900Y15245500D01*
X9931400Y16408400D02*
X8940800Y16408400D01*
X8534400Y16002000D02*
X8534400Y15494000D01*
D82*
X33075000Y26527000D02*
X31099000Y26527000D01*
D83*
X8767414Y18567400D02*
X9458999Y17875815D01*
X9458999Y17520500D02*
X11107500Y17520500D01*
X8153400Y18567400D02*
X8767414Y18567400D01*
X11176000Y17589000D02*
X12763000Y17589000D01*
X11107500Y17520500D02*
X11176000Y17589000D01*
X12776200Y17602200D02*
X12763000Y17589000D01*
X9458999Y17875815D02*
X9458999Y17520500D01*
X7937000Y18783800D02*
X8153400Y18567400D01*
D82*
X30099000Y25527000D02*
X30099000Y23393400D01*
D83*
X7937000Y19430999D02*
X7937000Y18783800D01*
D82*
X31099000Y26527000D02*
X30099000Y25527000D01*
X25925515Y19642085D02*
X26400000Y19167600D01*
X26400000Y19167600D02*
X26400000Y17852000D01*
X26644600Y28575000D02*
X26644600Y23215600D01*
X26644600Y23215600D02*
X24688800Y21259800D01*
X24688800Y21259800D02*
X24688800Y20269200D01*
X25315915Y19642085D02*
X25925515Y19642085D01*
X24688800Y20269200D02*
X25315915Y19642085D01*
D83*
X39647642Y12648858D02*
X39648000Y12648500D01*
X43408600Y8255000D02*
X44006000Y8255000D01*
X43408600Y8255000D02*
X43027600Y8255000D01*
X38742626Y12648858D02*
X39647642Y12648858D01*
X43002200Y6858000D02*
X44006000Y6858000D01*
X40148000Y12648500D02*
X40148000Y13319000D01*
X39878000Y13589000D02*
X38074600Y13589000D01*
X37598400Y7766000D02*
X37973000Y7391400D01*
X42468800Y7391400D02*
X43002200Y6858000D01*
X40148000Y13319000D02*
X39878000Y13589000D01*
X38074600Y13589000D02*
X37598400Y13112800D01*
X37598400Y13112800D02*
X37598400Y7766000D01*
X37973000Y7391400D02*
X42468800Y7391400D01*
X43597800Y10936000D02*
X44006000Y10527800D01*
X41860500Y10936000D02*
X43597800Y10936000D01*
X44006000Y10527800D02*
X44006000Y9779000D01*
X41860500Y11436000D02*
X42627200Y11436000D01*
X43383200Y12192000D02*
X44006000Y12192000D01*
X42627200Y11436000D02*
X43383200Y12192000D01*
X43078400Y13550400D02*
X44006000Y14478000D01*
X42517600Y11936000D02*
X43078400Y12496800D01*
X43078400Y12496800D02*
X43078400Y13550400D01*
X41860500Y11936000D02*
X42517600Y11936000D01*
X44006000Y16040600D02*
X44006000Y16764000D01*
X42595800Y13360400D02*
X42595800Y14630400D01*
X41148000Y12648500D02*
X41326500Y12827000D01*
X42062400Y12827000D02*
X42595800Y13360400D01*
X42595800Y14630400D02*
X44006000Y16040600D01*
X41326500Y12827000D02*
X42062400Y12827000D01*
D82*
X29667200Y13589000D02*
X30683200Y14605000D01*
X30683200Y14605000D02*
X32195000Y14605000D01*
X29667200Y13589000D02*
X29260800Y13589000D01*
X24900000Y35120200D02*
X24892000Y35128200D01*
X24900000Y33202000D02*
X24900000Y35120200D01*
X29260800Y13589000D02*
X29039000Y13367200D01*
X29039000Y13367200D02*
X29039000Y12827000D01*
X32195000Y14605000D02*
X34010600Y16420600D01*
X37515800Y33604200D02*
X37465000Y33604200D01*
X39116000Y35204400D02*
X37515800Y33604200D01*
D86*
X42609000Y37846000D02*
X42621200Y37846000D01*
X15861800Y47384200D02*
X15517000Y47384200D01*
X16370300Y46875700D02*
X15861800Y47384200D01*
X12202800Y47396400D02*
X12215000Y47384200D01*
X11176000Y47396400D02*
X12202800Y47396400D01*
D82*
X40690800Y40245800D02*
X41466000Y41021000D01*
X40690800Y37515800D02*
X40690800Y40245800D01*
X40411400Y37236400D02*
X40690800Y37515800D01*
X34421499Y43383200D02*
X34421499Y44124462D01*
X34421499Y44124462D02*
X34412961Y44133000D01*
X31057902Y43183149D02*
X31067349Y43183149D01*
X31369000Y43484800D02*
X31369000Y44133000D01*
X31067349Y43183149D02*
X31369000Y43484800D01*
D83*
X21399000Y9245600D02*
X19100800Y9245600D01*
X22758400Y10605000D02*
X21399000Y9245600D01*
D82*
X19277469Y10605000D02*
X21209000Y10605000D01*
X18999168Y10326699D02*
X19277469Y10605000D01*
X15462168Y16329000D02*
X13360400Y18430768D01*
D83*
X16027400Y41783000D02*
X15726000Y41481600D01*
D82*
X16484600Y35026600D02*
X16484600Y40049400D01*
D83*
X23799800Y14833600D02*
X23774400Y14859000D01*
X17531500Y42357000D02*
X16957500Y41783000D01*
D82*
X13360400Y18430768D02*
X13360400Y31902400D01*
X16484600Y40049400D02*
X15726000Y40808000D01*
D83*
X16957500Y41783000D02*
X16027400Y41783000D01*
D82*
X17050018Y16329000D02*
X15462168Y16329000D01*
X18545417Y14833600D02*
X17050018Y16329000D01*
X23799800Y14833600D02*
X18545417Y14833600D01*
X13360400Y31902400D02*
X16484600Y35026600D01*
D83*
X15726000Y41481600D02*
X15726000Y40808000D01*
D82*
X34620200Y19786600D02*
X34379800Y20027000D01*
X34379800Y20027000D02*
X33075000Y20027000D01*
D83*
X10134600Y11353800D02*
X9474534Y10693734D01*
X10718800Y12700000D02*
X10134600Y12115800D01*
X9474534Y10693734D02*
X9474534Y10175000D01*
X10134600Y12115800D02*
X10134600Y11353800D01*
D82*
X35153600Y11557000D02*
X36239000Y11557000D01*
X35128200Y11582400D02*
X35153600Y11557000D01*
X25400000Y17851999D02*
X25400000Y16433800D01*
X35204400Y29748391D02*
X34425792Y30526999D01*
X34425792Y30526999D02*
X33075000Y30526999D01*
X22900001Y33202000D02*
X22900001Y34812601D01*
X22900001Y34812601D02*
X22910800Y34823400D01*
X27899999Y33202000D02*
X27899999Y34834199D01*
D83*
X4460000Y39939200D02*
X4460000Y40579000D01*
D82*
X27899999Y34834199D02*
X27914600Y34848800D01*
D83*
X4775200Y39624000D02*
X4460000Y39939200D01*
D82*
X36239000Y8324400D02*
X36239000Y9017000D01*
X35991800Y8077200D02*
X36239000Y8324400D01*
X35423496Y26269219D02*
X35078533Y26269219D01*
X35078533Y26269219D02*
X34320752Y27027000D01*
X34320752Y27027000D02*
X33075000Y27027000D01*
D83*
X33883600Y5816600D02*
X33883600Y5359400D01*
X34148000Y5095000D02*
X34148000Y4506000D01*
X33883600Y5359400D02*
X34148000Y5095000D01*
D82*
X28900000Y34838108D02*
X28900000Y33202000D01*
X28908666Y34846774D02*
X28900000Y34838108D01*
X35128200Y10820400D02*
X35128200Y10414000D01*
X35128200Y10414000D02*
X35255200Y10287000D01*
X25400000Y33202001D02*
X25400000Y34798000D01*
X35255200Y10287000D02*
X36239000Y10287000D01*
X34711001Y28026999D02*
X33075000Y28026999D01*
X28498800Y10287000D02*
X29039000Y10287000D01*
X27660600Y9753600D02*
X27965400Y9753600D01*
X27965400Y9753600D02*
X28498800Y10287000D01*
X35382200Y27355800D02*
X34711001Y28026999D01*
X37759400Y44079400D02*
X37277200Y44079400D01*
X40335200Y39293800D02*
X40335200Y40741600D01*
X39751000Y35102800D02*
X39751000Y35242849D01*
X39065200Y38531800D02*
X39395400Y38862000D01*
X40589200Y40995600D02*
X40589200Y42748200D01*
X40335200Y40741600D02*
X40589200Y40995600D01*
X39395400Y38862000D02*
X39903400Y38862000D01*
X39065200Y35928649D02*
X39065200Y38531800D01*
X28412222Y35136897D02*
X28400000Y35124675D01*
X38706400Y43132400D02*
X37759400Y44079400D01*
X37277200Y44079400D02*
X37251600Y44053800D01*
X28400000Y35124675D02*
X28400000Y33202000D01*
X39903400Y38862000D02*
X40335200Y39293800D01*
X40205000Y43132400D02*
X38706400Y43132400D01*
X40589200Y42748200D02*
X40205000Y43132400D01*
X39751000Y35242849D02*
X39065200Y35928649D01*
X24400000Y33202000D02*
X24400000Y34756600D01*
X24400000Y34756600D02*
X24384000Y34772600D01*
X28270200Y39928800D02*
X28600400Y40259000D01*
X29413200Y35737800D02*
X28270200Y36880800D01*
X30744070Y35737800D02*
X29413200Y35737800D01*
X33075000Y31527000D02*
X33075000Y33406870D01*
X33075000Y33406870D02*
X30744070Y35737800D01*
X28600400Y40259000D02*
X29514800Y40259000D01*
X28270200Y36880800D02*
X28270200Y39928800D01*
X27609800Y11023600D02*
X28143200Y11557000D01*
X34494201Y27527000D02*
X33075000Y27527000D01*
X27609800Y10515600D02*
X27609800Y11023600D01*
X28143200Y11557000D02*
X29039000Y11557000D01*
X35215800Y26805401D02*
X34494201Y27527000D01*
X34303600Y31027000D02*
X33075000Y31027000D01*
X30022800Y39090600D02*
X31394400Y37719000D01*
X28981400Y40741600D02*
X29705649Y40741600D01*
X31394400Y37719000D02*
X31394400Y35610800D01*
X34645600Y32359600D02*
X34645600Y31369000D01*
X31394400Y35610800D02*
X34645600Y32359600D01*
X34645600Y31369000D02*
X34303600Y31027000D01*
X29705649Y40741600D02*
X30022800Y40424449D01*
X30022800Y40424449D02*
X30022800Y39090600D01*
X23400000Y34474400D02*
X23400000Y33202000D01*
X23723600Y34798000D02*
X23400000Y34474400D01*
D83*
X5232400Y41427400D02*
X5454017Y41649017D01*
X5232400Y40944800D02*
X5232400Y41427400D01*
X5454017Y41649017D02*
X6008483Y41649017D01*
D82*
X37490400Y46786800D02*
X37251600Y46548000D01*
X10566400Y45339000D02*
X11988800Y45339000D01*
X13436600Y39827200D02*
X15849600Y37414200D01*
X37251600Y46548000D02*
X37251600Y45379400D01*
X13436600Y43891200D02*
X13436600Y39827200D01*
X11988800Y45339000D02*
X13436600Y43891200D01*
D83*
X3160000Y40579000D02*
X3160000Y39634400D01*
X3160000Y39634400D02*
X3149600Y39624000D01*
X10093048Y8875000D02*
X9474534Y8875000D01*
X10354503Y9136455D02*
X10093048Y8875000D01*
X34823400Y5461000D02*
X35155430Y5461000D01*
X34467800Y5816600D02*
X34823400Y5461000D01*
X35448000Y5168430D02*
X35448000Y4506000D01*
X35155430Y5461000D02*
X35448000Y5168430D01*
D82*
X39979600Y6096000D02*
X40182800Y6299200D01*
X40182800Y6299200D02*
X41198800Y6299200D01*
X41394001Y6103999D02*
X41394001Y5583000D01*
X41198800Y6299200D02*
X41394001Y6103999D01*
X39979600Y5765800D02*
X39979600Y6096000D01*
X43078400Y43815000D02*
X43078400Y44170600D01*
X41776632Y43484800D02*
X42748200Y43484800D01*
X42748200Y43484800D02*
X43078400Y43815000D01*
X41482900Y44219500D02*
X41482900Y43778532D01*
X41482900Y43778532D02*
X41776632Y43484800D01*
D83*
X7978800Y8051800D02*
X6705600Y8051800D01*
X6705600Y8051800D02*
X6121400Y8636000D01*
X8259000Y7173000D02*
X8259000Y7771600D01*
X8259000Y7771600D02*
X7978800Y8051800D01*
X38356000Y11936000D02*
X38935500Y11936000D01*
D82*
X18503986Y15373400D02*
X24060200Y15373400D01*
D83*
X38168200Y12674600D02*
X38168200Y12123800D01*
D82*
X13741400Y28371800D02*
X13741400Y18618200D01*
D83*
X38168200Y12123800D02*
X38356000Y11936000D01*
D82*
X15678200Y16681400D02*
X17195987Y16681400D01*
X14122400Y28752800D02*
X13741400Y28371800D01*
X17195987Y16681400D02*
X18503986Y15373400D01*
X26466800Y15900400D02*
X27533600Y14833600D01*
X24060200Y15373400D02*
X24587200Y15900400D01*
X24587200Y15900400D02*
X26466800Y15900400D01*
X13741400Y18618200D02*
X15678200Y16681400D01*
D83*
X38283800Y11436000D02*
X38935500Y11436000D01*
X38001600Y8150200D02*
X38001600Y11153800D01*
X38227000Y7924800D02*
X38001600Y8150200D01*
X38001600Y11153800D02*
X38283800Y11436000D01*
X8163800Y10175000D02*
X8534400Y9804400D01*
X8534400Y9804400D02*
X8534400Y8763000D01*
X8534400Y8763000D02*
X9259001Y8038399D01*
X7574534Y10175000D02*
X8163800Y10175000D01*
X9259001Y8038399D02*
X9259001Y7173000D01*
X8268990Y8458200D02*
X7991334Y8458200D01*
X7991334Y8458200D02*
X7574534Y8875000D01*
X8759000Y7968190D02*
X8268990Y8458200D01*
X8759000Y7173000D02*
X8759000Y7968190D01*
D82*
X37665000Y6651600D02*
X37058600Y6045200D01*
X35456800Y2597200D02*
X35448000Y2606000D01*
X41481400Y6651600D02*
X37665000Y6651600D01*
X41894001Y5583000D02*
X41894001Y6238999D01*
X41894001Y6238999D02*
X41481400Y6651600D01*
X36697049Y2597200D02*
X35456800Y2597200D01*
X37058600Y6045200D02*
X37058600Y2958751D01*
X37058600Y2958751D02*
X36697049Y2597200D01*
X42394002Y6323198D02*
X42394002Y5583000D01*
X34105800Y7004000D02*
X41713200Y7004000D01*
X41713200Y7004000D02*
X42394002Y6323198D01*
X33350200Y4064000D02*
X33350200Y6248400D01*
X33350200Y6248400D02*
X34105800Y7004000D01*
X34148000Y2606000D02*
X34148000Y3266200D01*
X34148000Y3266200D02*
X33350200Y4064000D01*
X40690800Y43484800D02*
X38852368Y43484800D01*
X40982900Y43776900D02*
X40690800Y43484800D01*
X38852368Y43484800D02*
X38379400Y43957768D01*
X38379400Y43957768D02*
X38379400Y45186600D01*
X38379400Y45186600D02*
X38572200Y45379400D01*
X38572200Y45379400D02*
X39151600Y45379400D01*
X40982900Y44219500D02*
X40982900Y43776900D01*
X40482899Y44219500D02*
X40032300Y44219500D01*
X40032300Y44219500D02*
X39892200Y44079400D01*
X39892200Y44079400D02*
X39151600Y44079400D01*
X5395217Y42149017D02*
X4826000Y41579800D01*
X3429000Y41579800D02*
X3160000Y41848800D01*
X4826000Y41579800D02*
X3429000Y41579800D01*
X3160000Y41848800D02*
X3160000Y42479000D01*
X6008483Y42149017D02*
X5395217Y42149017D01*
X5209418Y42649018D02*
X6008483Y42649018D01*
X4460000Y42479000D02*
X5039400Y42479000D01*
X5039400Y42479000D02*
X5209418Y42649018D01*
D83*
X1241451Y38575015D02*
X1244266Y38572200D01*
G04 #@! TA.AperFunction,Conductor*
G36*
X14596338Y43636058D02*
G01*
X14663314Y43616169D01*
X14695219Y43586373D01*
X14717208Y43557000D01*
X14749054Y43514458D01*
X14749055Y43514458D01*
X14749056Y43514456D01*
X14859437Y43431825D01*
X14883323Y43422916D01*
X14939256Y43381047D01*
X14963675Y43315583D01*
X14948825Y43247310D01*
X14899420Y43197903D01*
X14883329Y43190554D01*
X14859677Y43181732D01*
X14859675Y43181731D01*
X14749414Y43099189D01*
X14749411Y43099186D01*
X14666869Y42988925D01*
X14666867Y42988922D01*
X14618734Y42859873D01*
X14618733Y42859868D01*
X14612600Y42802837D01*
X14612600Y42782000D01*
X16070600Y42782000D01*
X16070600Y42802820D01*
X16070599Y42802837D01*
X16064466Y42859868D01*
X16064465Y42859873D01*
X16016332Y42988922D01*
X16016330Y42988925D01*
X15933788Y43099186D01*
X15933785Y43099189D01*
X15823525Y43181730D01*
X15799871Y43190553D01*
X15743939Y43232426D01*
X15719524Y43297891D01*
X15734377Y43366164D01*
X15783784Y43415568D01*
X15799871Y43422914D01*
X15823763Y43431825D01*
X15934144Y43514456D01*
X15984563Y43581809D01*
X16040496Y43623678D01*
X16084202Y43631494D01*
X16506503Y43630199D01*
X16573477Y43610310D01*
X16600408Y43586733D01*
X16625803Y43557000D01*
X18437198Y43557000D01*
X18457232Y43580457D01*
X18515738Y43618651D01*
X18551896Y43623925D01*
X18953693Y43622692D01*
X19020668Y43602803D01*
X19039411Y43587928D01*
X19045731Y43581829D01*
X19135449Y43534897D01*
X19202488Y43515212D01*
X19202492Y43515212D01*
X19202494Y43515211D01*
X19207732Y43514458D01*
X19275600Y43504700D01*
X21248616Y43504700D01*
X21315655Y43485015D01*
X21322927Y43479967D01*
X21387237Y43431825D01*
X21411123Y43422916D01*
X21467056Y43381047D01*
X21491475Y43315583D01*
X21476625Y43247310D01*
X21427220Y43197903D01*
X21411129Y43190554D01*
X21387477Y43181732D01*
X21387475Y43181731D01*
X21277214Y43099189D01*
X21277211Y43099186D01*
X21194669Y42988925D01*
X21194667Y42988922D01*
X21146534Y42859873D01*
X21146533Y42859868D01*
X21140400Y42802837D01*
X21140400Y42782000D01*
X21995400Y42782000D01*
X22062439Y42762315D01*
X22108194Y42709511D01*
X22119400Y42658000D01*
X22119400Y41828000D01*
X22165220Y41828000D01*
X22165236Y41828001D01*
X22222267Y41834134D01*
X22222272Y41834135D01*
X22337066Y41876951D01*
X22406757Y41881936D01*
X22468081Y41848452D01*
X22501566Y41787129D01*
X22504400Y41760770D01*
X22504400Y41288100D01*
X22484715Y41221061D01*
X22431911Y41175306D01*
X22380400Y41164100D01*
X22340699Y41164100D01*
X22273660Y41183785D01*
X22227905Y41236589D01*
X22224526Y41244743D01*
X22206383Y41293387D01*
X22124830Y41402330D01*
X22015887Y41483883D01*
X21888381Y41531441D01*
X21888379Y41531442D01*
X21888377Y41531442D01*
X21832038Y41537500D01*
X21832022Y41537500D01*
X21303978Y41537500D01*
X21303961Y41537500D01*
X21247622Y41531442D01*
X21247619Y41531442D01*
X21247619Y41531441D01*
X21134827Y41489371D01*
X21120113Y41483883D01*
X21011170Y41402330D01*
X20929617Y41293387D01*
X20929616Y41293386D01*
X20896413Y41204367D01*
X20854541Y41148435D01*
X20789076Y41124019D01*
X20720803Y41138872D01*
X20671399Y41188278D01*
X20664050Y41204369D01*
X20630937Y41293148D01*
X20549471Y41401972D01*
X20440643Y41483440D01*
X20440645Y41483440D01*
X20313282Y41530944D01*
X20313279Y41530945D01*
X20256955Y41537000D01*
X20243000Y41537000D01*
X20243000Y40682000D01*
X20223315Y40614961D01*
X20170511Y40569206D01*
X20119000Y40558000D01*
X19301500Y40558000D01*
X19301500Y40506545D01*
X19307555Y40450221D01*
X19307556Y40450218D01*
X19355060Y40322856D01*
X19399163Y40263942D01*
X19423580Y40198477D01*
X19408728Y40130204D01*
X19359323Y40080799D01*
X19299516Y40065632D01*
X18611476Y40067742D01*
X18544817Y40087426D01*
X18523006Y40101443D01*
X18493654Y40120307D01*
X18375155Y40155100D01*
X18375153Y40155100D01*
X18251647Y40155100D01*
X18251644Y40155100D01*
X18133148Y40120307D01*
X18125077Y40116621D01*
X18124368Y40118174D01*
X18067375Y40101443D01*
X18000337Y40121132D01*
X17954585Y40173939D01*
X17944646Y40243098D01*
X17967614Y40299078D01*
X17981922Y40318465D01*
X18027122Y40447636D01*
X18027124Y40447648D01*
X18030000Y40478310D01*
X18030000Y40558000D01*
X16722000Y40558000D01*
X16713252Y40549253D01*
X16702315Y40512003D01*
X16649511Y40466248D01*
X16580353Y40456304D01*
X16516797Y40485329D01*
X16510319Y40491361D01*
X16416818Y40584862D01*
X16383333Y40646185D01*
X16380499Y40672543D01*
X16380499Y41137743D01*
X16380499Y41137748D01*
X16377621Y41168451D01*
X16344906Y41261945D01*
X16341344Y41331724D01*
X16376072Y41392351D01*
X16438065Y41424579D01*
X16461947Y41426900D01*
X16640583Y41426900D01*
X16707622Y41407215D01*
X16753377Y41354411D01*
X16763321Y41285253D01*
X16757624Y41261944D01*
X16724877Y41168362D01*
X16724875Y41168353D01*
X16722000Y41137691D01*
X16722000Y41058000D01*
X18030000Y41058000D01*
X19301500Y41058000D01*
X19743000Y41058000D01*
X19743000Y41537000D01*
X19729044Y41537000D01*
X19672720Y41530945D01*
X19672717Y41530944D01*
X19545355Y41483440D01*
X19436528Y41401972D01*
X19355060Y41293145D01*
X19307556Y41165783D01*
X19307555Y41165780D01*
X19301500Y41109456D01*
X19301500Y41058000D01*
X18030000Y41058000D01*
X18030000Y41137691D01*
X18027124Y41168353D01*
X18027122Y41168365D01*
X17981921Y41297537D01*
X17981921Y41297538D01*
X17900653Y41407653D01*
X17900652Y41407654D01*
X17790536Y41488922D01*
X17661364Y41534123D01*
X17661352Y41534125D01*
X17630690Y41537000D01*
X17514464Y41537000D01*
X17447425Y41556685D01*
X17401670Y41609489D01*
X17391726Y41678647D01*
X17420751Y41742203D01*
X17426783Y41748681D01*
X17444283Y41766181D01*
X17505606Y41799666D01*
X17531964Y41802500D01*
X18075839Y41802500D01*
X18170552Y41817501D01*
X18170553Y41817502D01*
X18170555Y41817502D01*
X18284723Y41875674D01*
X18375326Y41966277D01*
X18433498Y42080445D01*
X18433498Y42080447D01*
X18433499Y42080448D01*
X18448500Y42175161D01*
X18889500Y42175161D01*
X18904500Y42080448D01*
X18910868Y42067951D01*
X18962674Y41966277D01*
X18962676Y41966275D01*
X18962678Y41966272D01*
X19053271Y41875679D01*
X19053273Y41875678D01*
X19053277Y41875674D01*
X19167445Y41817502D01*
X19167446Y41817502D01*
X19167448Y41817501D01*
X19167447Y41817501D01*
X19262161Y41802500D01*
X19262166Y41802500D01*
X20350839Y41802500D01*
X20445552Y41817501D01*
X20445553Y41817502D01*
X20445555Y41817502D01*
X20559723Y41875674D01*
X20650326Y41966277D01*
X20708498Y42080445D01*
X20708498Y42080447D01*
X20708499Y42080448D01*
X20723500Y42175161D01*
X20723500Y42282000D01*
X21140400Y42282000D01*
X21140400Y42261164D01*
X21146533Y42204133D01*
X21146534Y42204128D01*
X21194667Y42075079D01*
X21194669Y42075076D01*
X21277211Y41964815D01*
X21277214Y41964812D01*
X21387475Y41882270D01*
X21387478Y41882268D01*
X21516527Y41834135D01*
X21516532Y41834134D01*
X21573563Y41828001D01*
X21573580Y41828000D01*
X21619400Y41828000D01*
X21619400Y42282000D01*
X21140400Y42282000D01*
X20723500Y42282000D01*
X20723500Y42538840D01*
X20708499Y42633553D01*
X20708498Y42633555D01*
X20650326Y42747723D01*
X20650322Y42747727D01*
X20650321Y42747729D01*
X20559728Y42838322D01*
X20559725Y42838324D01*
X20559723Y42838326D01*
X20445555Y42896498D01*
X20445554Y42896499D01*
X20445551Y42896500D01*
X20445552Y42896500D01*
X20350839Y42911500D01*
X20350834Y42911500D01*
X19262166Y42911500D01*
X19262161Y42911500D01*
X19167447Y42896500D01*
X19126603Y42875688D01*
X19053277Y42838326D01*
X19053276Y42838325D01*
X19053271Y42838322D01*
X18962678Y42747729D01*
X18962675Y42747724D01*
X18962674Y42747723D01*
X18957082Y42736748D01*
X18904500Y42633553D01*
X18889500Y42538840D01*
X18889500Y42175161D01*
X18448500Y42175161D01*
X18448500Y42538840D01*
X18433499Y42633553D01*
X18433498Y42633555D01*
X18375326Y42747723D01*
X18375320Y42747729D01*
X18369587Y42755622D01*
X18371599Y42757085D01*
X18344892Y42805996D01*
X18349876Y42875688D01*
X18370474Y42907734D01*
X18369178Y42908676D01*
X18374915Y42916574D01*
X18433017Y43030605D01*
X18433017Y43030606D01*
X18437197Y43057000D01*
X16625802Y43057000D01*
X16629982Y43030606D01*
X16629982Y43030605D01*
X16688084Y42916574D01*
X16693822Y42908676D01*
X16691675Y42907117D01*
X16718107Y42858712D01*
X16713123Y42789020D01*
X16692218Y42756484D01*
X16693410Y42755618D01*
X16687676Y42747726D01*
X16687674Y42747724D01*
X16687674Y42747723D01*
X16682082Y42736748D01*
X16629500Y42633553D01*
X16614500Y42538840D01*
X16614500Y42263100D01*
X16594815Y42196061D01*
X16542011Y42150306D01*
X16490500Y42139100D01*
X16194600Y42139100D01*
X16127561Y42158785D01*
X16081806Y42211589D01*
X16070600Y42263100D01*
X16070600Y42282000D01*
X15591600Y42282000D01*
X15591600Y41902164D01*
X15571915Y41835125D01*
X15555281Y41814483D01*
X15441051Y41700254D01*
X15441049Y41700251D01*
X15394166Y41619049D01*
X15381367Y41571281D01*
X15345002Y41511620D01*
X15318444Y41495598D01*
X15319442Y41493711D01*
X15311229Y41489371D01*
X15200989Y41408011D01*
X15119630Y41297772D01*
X15074380Y41168459D01*
X15074378Y41168447D01*
X15071500Y41137754D01*
X15071500Y40478258D01*
X15071501Y40478252D01*
X15074379Y40447549D01*
X15074379Y40447547D01*
X15074380Y40447545D01*
X15119630Y40318229D01*
X15119631Y40318227D01*
X15133764Y40299078D01*
X15150576Y40276298D01*
X15174546Y40210669D01*
X15159230Y40142499D01*
X15109490Y40093431D01*
X15050425Y40078666D01*
X14347620Y40080821D01*
X14280641Y40100711D01*
X14235048Y40153655D01*
X14224000Y40204820D01*
X14224000Y42282000D01*
X14612600Y42282000D01*
X14612600Y42261164D01*
X14618733Y42204133D01*
X14618734Y42204128D01*
X14666867Y42075079D01*
X14666869Y42075076D01*
X14749411Y41964815D01*
X14749414Y41964812D01*
X14859675Y41882270D01*
X14859678Y41882268D01*
X14988727Y41834135D01*
X14988732Y41834134D01*
X15045763Y41828001D01*
X15045780Y41828000D01*
X15091600Y41828000D01*
X15091600Y42282000D01*
X14612600Y42282000D01*
X14224000Y42282000D01*
X14224000Y43512820D01*
X14243685Y43579859D01*
X14296489Y43625614D01*
X14348377Y43636819D01*
X14596338Y43636058D01*
G37*
G04 #@! TD.AperFunction*
G04 #@! TA.AperFunction,Conductor*
G36*
X8459039Y26072315D02*
G01*
X8504794Y26019511D01*
X8516000Y25968000D01*
X8516000Y24338001D01*
X8810299Y24338001D01*
X8810299Y24338002D01*
X8904894Y24352983D01*
X8904895Y24352983D01*
X8963705Y24382948D01*
X9032374Y24395844D01*
X9097115Y24369568D01*
X9137372Y24312461D01*
X9144000Y24272463D01*
X9144000Y23949296D01*
X9124315Y23882257D01*
X9094313Y23850030D01*
X9071810Y23833185D01*
X8989269Y23722925D01*
X8989267Y23722922D01*
X8941134Y23593873D01*
X8941133Y23593868D01*
X8935000Y23536837D01*
X8935000Y23491000D01*
X9765000Y23491000D01*
X9832039Y23471315D01*
X9877794Y23418511D01*
X9889000Y23367000D01*
X9889000Y23115000D01*
X9869315Y23047961D01*
X9816511Y23002206D01*
X9765000Y22991000D01*
X8935000Y22991000D01*
X8935000Y22945164D01*
X8941133Y22888133D01*
X8941134Y22888128D01*
X8989267Y22759079D01*
X8989269Y22759076D01*
X9071811Y22648815D01*
X9071814Y22648812D01*
X9182075Y22566270D01*
X9182078Y22566268D01*
X9311127Y22518135D01*
X9311132Y22518134D01*
X9368163Y22512001D01*
X9368180Y22512000D01*
X9532059Y22512000D01*
X9599098Y22492315D01*
X9644853Y22439511D01*
X9654797Y22370353D01*
X9654532Y22368603D01*
X9651268Y22348001D01*
X9651269Y22348000D01*
X10312400Y22348000D01*
X10312400Y21848000D01*
X9651269Y21848000D01*
X9658889Y21799886D01*
X9716632Y21686562D01*
X9716632Y21686561D01*
X9803194Y21600000D01*
X9812452Y21596165D01*
X9866856Y21552325D01*
X9888921Y21486031D01*
X9889000Y21481604D01*
X9889000Y19305000D01*
X9869315Y19237961D01*
X9816511Y19192206D01*
X9765000Y19181000D01*
X9513000Y19181000D01*
X9445961Y19200685D01*
X9400206Y19253489D01*
X9389000Y19305000D01*
X9389000Y20578000D01*
X8935000Y20578000D01*
X8935000Y20532164D01*
X8941133Y20475133D01*
X8941134Y20475128D01*
X8989267Y20346080D01*
X8993437Y20340510D01*
X9017853Y20275045D01*
X9003001Y20206772D01*
X8953595Y20157367D01*
X8894169Y20142200D01*
X8287588Y20142200D01*
X8246633Y20149159D01*
X8222458Y20157619D01*
X8222446Y20157621D01*
X8191753Y20160499D01*
X7682254Y20160499D01*
X7651550Y20157621D01*
X7627365Y20149158D01*
X7586412Y20142200D01*
X7363000Y20142200D01*
X7295961Y20161885D01*
X7250206Y20214689D01*
X7239000Y20266200D01*
X7239000Y20810614D01*
X7258685Y20877653D01*
X7311489Y20923408D01*
X7380647Y20933352D01*
X7422423Y20919448D01*
X7430079Y20915268D01*
X7559127Y20867135D01*
X7559132Y20867134D01*
X7616163Y20861001D01*
X7616180Y20861000D01*
X7637000Y20861000D01*
X7637000Y21340000D01*
X8137000Y21340000D01*
X8137000Y20861000D01*
X8157820Y20861000D01*
X8157836Y20861001D01*
X8214867Y20867134D01*
X8214872Y20867135D01*
X8343921Y20915268D01*
X8343924Y20915270D01*
X8454185Y20997812D01*
X8454188Y20997815D01*
X8514215Y21078000D01*
X8935000Y21078000D01*
X9389000Y21078000D01*
X9389000Y21557000D01*
X9368163Y21557000D01*
X9311132Y21550867D01*
X9311127Y21550866D01*
X9182078Y21502733D01*
X9182075Y21502731D01*
X9071814Y21420189D01*
X9071811Y21420186D01*
X8989269Y21309925D01*
X8989267Y21309922D01*
X8941134Y21180873D01*
X8941133Y21180868D01*
X8935000Y21123837D01*
X8935000Y21078000D01*
X8514215Y21078000D01*
X8536730Y21108076D01*
X8536732Y21108079D01*
X8584865Y21237128D01*
X8584866Y21237133D01*
X8590999Y21294164D01*
X8591000Y21294181D01*
X8591000Y21340000D01*
X8137000Y21340000D01*
X7637000Y21340000D01*
X7637000Y21716000D01*
X7656685Y21783039D01*
X7709489Y21828794D01*
X7761000Y21840000D01*
X8591000Y21840000D01*
X8591000Y21885820D01*
X8590999Y21885837D01*
X8584866Y21942868D01*
X8584865Y21942873D01*
X8536732Y22071922D01*
X8536730Y22071925D01*
X8454188Y22182186D01*
X8454185Y22182189D01*
X8343925Y22264730D01*
X8251191Y22299318D01*
X8195258Y22341190D01*
X8170841Y22406654D01*
X8185693Y22474927D01*
X8235099Y22524332D01*
X8251191Y22531682D01*
X8343925Y22566271D01*
X8454185Y22648812D01*
X8454188Y22648815D01*
X8536730Y22759076D01*
X8536732Y22759079D01*
X8584865Y22888128D01*
X8584866Y22888133D01*
X8590999Y22945164D01*
X8591000Y22945181D01*
X8591000Y22991000D01*
X7761000Y22991000D01*
X7693961Y23010685D01*
X7648206Y23063489D01*
X7637000Y23115000D01*
X7637000Y23970000D01*
X8137000Y23970000D01*
X8137000Y23491000D01*
X8591000Y23491000D01*
X8591000Y23536820D01*
X8590999Y23536837D01*
X8584866Y23593868D01*
X8584865Y23593873D01*
X8536732Y23722922D01*
X8536730Y23722925D01*
X8454188Y23833186D01*
X8454185Y23833189D01*
X8343924Y23915731D01*
X8343921Y23915733D01*
X8214872Y23963866D01*
X8214867Y23963867D01*
X8157836Y23970000D01*
X8137000Y23970000D01*
X7637000Y23970000D01*
X7616163Y23970000D01*
X7559132Y23963867D01*
X7559127Y23963866D01*
X7430077Y23915732D01*
X7422418Y23911550D01*
X7354143Y23896704D01*
X7288681Y23921126D01*
X7246815Y23977063D01*
X7239000Y24020387D01*
X7239000Y24385795D01*
X7258685Y24452834D01*
X7311489Y24498589D01*
X7380647Y24508533D01*
X7444203Y24479508D01*
X7450681Y24473476D01*
X7513069Y24411088D01*
X7513073Y24411085D01*
X7627105Y24352983D01*
X7721704Y24338001D01*
X8015999Y24338001D01*
X8016000Y24338002D01*
X8016000Y25968000D01*
X8035685Y26035039D01*
X8088489Y26080794D01*
X8140000Y26092000D01*
X8392000Y26092000D01*
X8459039Y26072315D01*
G37*
G04 #@! TD.AperFunction*
G04 #@! TA.AperFunction,Conductor*
G36*
X18129439Y45370115D02*
G01*
X18175194Y45317311D01*
X18186400Y45265800D01*
X18186400Y44091400D01*
X18166715Y44024361D01*
X18113911Y43978606D01*
X18062400Y43967400D01*
X14348000Y43967400D01*
X14280961Y43987085D01*
X14235206Y44039889D01*
X14224000Y44091400D01*
X14224000Y45265800D01*
X14243685Y45332839D01*
X14296489Y45378594D01*
X14348000Y45389800D01*
X18062400Y45389800D01*
X18129439Y45370115D01*
G37*
G04 #@! TD.AperFunction*
G04 #@! TA.AperFunction,Conductor*
G36*
X5531039Y34905315D02*
G01*
X5576794Y34852511D01*
X5588000Y34801000D01*
X5588000Y33855200D01*
X5568315Y33788161D01*
X5515511Y33742406D01*
X5464000Y33731200D01*
X5283200Y33731200D01*
X5283200Y31899400D01*
X5263515Y31832361D01*
X5210711Y31786606D01*
X5159200Y31775400D01*
X2638600Y31775400D01*
X2571561Y31795085D01*
X2525806Y31847889D01*
X2514600Y31899400D01*
X2514600Y33082408D01*
X2534285Y33149447D01*
X2576601Y33189795D01*
X2616055Y33212574D01*
X2677626Y33274145D01*
X2677626Y33274147D01*
X2687830Y33284350D01*
X2687834Y33284355D01*
X3123760Y33720281D01*
X3185083Y33753766D01*
X3211441Y33756600D01*
X3403600Y33756600D01*
X3403600Y33991255D01*
X3413040Y34038710D01*
X3414961Y34043349D01*
X3414964Y34043354D01*
X3437500Y34127462D01*
X3437500Y34801000D01*
X3457185Y34868039D01*
X3509989Y34913794D01*
X3561500Y34925000D01*
X5464000Y34925000D01*
X5531039Y34905315D01*
G37*
G04 #@! TD.AperFunction*
G04 #@! TA.AperFunction,Conductor*
G36*
X6902639Y33228915D02*
G01*
X6948394Y33176111D01*
X6959600Y33124600D01*
X6959600Y30378400D01*
X8816800Y30378400D01*
X8883839Y30358715D01*
X8929594Y30305911D01*
X8940800Y30254400D01*
X8940800Y26616200D01*
X8921115Y26549161D01*
X8868311Y26503406D01*
X8816800Y26492200D01*
X5509267Y26492200D01*
X5442228Y26511885D01*
X5396473Y26564689D01*
X5385268Y26616666D01*
X5386159Y26853924D01*
X5403836Y31555952D01*
X5423771Y31622911D01*
X5438595Y31641575D01*
X5465571Y31669531D01*
X5512503Y31759249D01*
X5532188Y31826288D01*
X5542700Y31899400D01*
X5542700Y33124600D01*
X5562385Y33191639D01*
X5615189Y33237394D01*
X5666700Y33248600D01*
X6835600Y33248600D01*
X6902639Y33228915D01*
G37*
G04 #@! TD.AperFunction*
G04 #@! TA.AperFunction,Conductor*
G36*
X3118039Y8489315D02*
G01*
X3163794Y8436511D01*
X3175000Y8385000D01*
X3175000Y6626400D01*
X3155315Y6559361D01*
X3102511Y6513606D01*
X3051000Y6502400D01*
X860600Y6502400D01*
X793561Y6522085D01*
X747806Y6574889D01*
X736600Y6626400D01*
X736600Y8385000D01*
X756285Y8452039D01*
X809089Y8497794D01*
X860600Y8509000D01*
X3051000Y8509000D01*
X3118039Y8489315D01*
G37*
G04 #@! TD.AperFunction*
G04 #@! TA.AperFunction,Conductor*
G36*
X41696539Y39549515D02*
G01*
X41742294Y39496711D01*
X41753500Y39445200D01*
X41753500Y38590200D01*
X41767454Y38590200D01*
X41767455Y38590201D01*
X41823779Y38596256D01*
X41945069Y38641496D01*
X42014760Y38646482D01*
X42076084Y38612998D01*
X42109570Y38551675D01*
X42104586Y38481983D01*
X42088175Y38451682D01*
X42002630Y38335772D01*
X41957380Y38206459D01*
X41957378Y38206447D01*
X41954500Y38175754D01*
X41954500Y37516258D01*
X41954501Y37516252D01*
X41957379Y37485549D01*
X41957379Y37485547D01*
X41957380Y37485545D01*
X41981552Y37416467D01*
X42002631Y37356227D01*
X42034722Y37312746D01*
X42083991Y37245988D01*
X42090560Y37239419D01*
X42089227Y37238087D01*
X42124506Y37191620D01*
X42129963Y37121964D01*
X42096894Y37060415D01*
X42085657Y37050679D01*
X42083991Y37049013D01*
X42002630Y36938772D01*
X41957380Y36809459D01*
X41957378Y36809447D01*
X41954500Y36778754D01*
X41954500Y36119258D01*
X41954501Y36119252D01*
X41957379Y36088549D01*
X41957379Y36088547D01*
X41957380Y36088545D01*
X41993330Y35985807D01*
X42002631Y35959227D01*
X42032347Y35918964D01*
X42083991Y35848988D01*
X42090560Y35842419D01*
X42089227Y35841087D01*
X42124506Y35794620D01*
X42129963Y35724964D01*
X42096894Y35663415D01*
X42085657Y35653679D01*
X42083991Y35652013D01*
X42002630Y35541772D01*
X41957380Y35412459D01*
X41957378Y35412447D01*
X41954500Y35381754D01*
X41954500Y35297190D01*
X41934815Y35230151D01*
X41882011Y35184396D01*
X41812853Y35174452D01*
X41749297Y35203477D01*
X41736787Y35215987D01*
X41724514Y35230151D01*
X41660755Y35303733D01*
X41660752Y35303735D01*
X41660750Y35303737D01*
X41556858Y35370505D01*
X41556853Y35370507D01*
X41438355Y35405300D01*
X41438353Y35405300D01*
X41314847Y35405300D01*
X41314844Y35405300D01*
X41196346Y35370507D01*
X41196341Y35370505D01*
X41092449Y35303737D01*
X41092447Y35303735D01*
X41092445Y35303734D01*
X41092445Y35303733D01*
X41084276Y35294305D01*
X41011566Y35210394D01*
X41011563Y35210390D01*
X40960260Y35098050D01*
X40960259Y35098048D01*
X40942683Y34975800D01*
X40960259Y34853553D01*
X40960260Y34853551D01*
X41011563Y34741211D01*
X41011566Y34741207D01*
X41092445Y34647867D01*
X41092447Y34647866D01*
X41092449Y34647864D01*
X41196341Y34581096D01*
X41196346Y34581094D01*
X41314844Y34546301D01*
X41314846Y34546300D01*
X41314847Y34546300D01*
X41438354Y34546300D01*
X41438354Y34546301D01*
X41530311Y34573301D01*
X41556853Y34581094D01*
X41556854Y34581095D01*
X41556856Y34581095D01*
X41660755Y34647867D01*
X41741634Y34741207D01*
X41741634Y34741208D01*
X41743230Y34743049D01*
X41802008Y34780824D01*
X41871877Y34780824D01*
X41930656Y34743050D01*
X41953189Y34698079D01*
X41954886Y34698672D01*
X42002630Y34562229D01*
X42083991Y34451988D01*
X42090560Y34445419D01*
X42089227Y34444087D01*
X42124506Y34397620D01*
X42129963Y34327964D01*
X42096894Y34266415D01*
X42085657Y34256679D01*
X42083991Y34255013D01*
X42002630Y34144772D01*
X41957380Y34015459D01*
X41957378Y34015447D01*
X41954500Y33984754D01*
X41954500Y33325258D01*
X41955685Y33312611D01*
X41957379Y33294549D01*
X41957379Y33294547D01*
X41957380Y33294545D01*
X41994163Y33189427D01*
X42002631Y33165227D01*
X42066129Y33079191D01*
X42086867Y33051092D01*
X42110838Y32985463D01*
X42095523Y32917293D01*
X42074779Y32889777D01*
X42045002Y32860000D01*
X42045002Y31402000D01*
X42065822Y31402000D01*
X42065838Y31402001D01*
X42122869Y31408134D01*
X42122874Y31408135D01*
X42251923Y31456268D01*
X42251926Y31456270D01*
X42362186Y31538812D01*
X42417833Y31613145D01*
X42473767Y31655016D01*
X42543459Y31660000D01*
X42604782Y31626515D01*
X42638266Y31565192D01*
X42641100Y31538834D01*
X42641100Y31518392D01*
X42647030Y31463239D01*
X42658239Y31411717D01*
X42665586Y31384937D01*
X42699454Y31325462D01*
X42715689Y31296952D01*
X42729421Y31281105D01*
X42761440Y31244152D01*
X42761443Y31244149D01*
X42761444Y31244148D01*
X42776049Y31230055D01*
X42783349Y31223012D01*
X42817923Y31162296D01*
X42814183Y31092527D01*
X42795000Y31064581D01*
X42795000Y29242805D01*
X42831733Y29211430D01*
X42869925Y29152922D01*
X42875200Y29117141D01*
X42875200Y27124200D01*
X42855515Y27057161D01*
X42802711Y27011406D01*
X42751200Y27000200D01*
X42545000Y27000200D01*
X42545000Y26810056D01*
X42525315Y26743017D01*
X42472511Y26697262D01*
X42403353Y26687318D01*
X42346689Y26710790D01*
X42251925Y26781731D01*
X42251922Y26781733D01*
X42122873Y26829866D01*
X42122869Y26829867D01*
X42076316Y26834873D01*
X42011765Y26861612D01*
X41971919Y26919006D01*
X41969427Y26988831D01*
X42001891Y27045842D01*
X42076327Y27120277D01*
X42134499Y27234445D01*
X42134499Y27234447D01*
X42134500Y27234448D01*
X42149501Y27329161D01*
X42149501Y28417840D01*
X42134500Y28512553D01*
X42134499Y28512555D01*
X42076327Y28626723D01*
X42076323Y28626727D01*
X42076322Y28626729D01*
X41985729Y28717322D01*
X41985726Y28717324D01*
X41985724Y28717326D01*
X41871556Y28775498D01*
X41871555Y28775499D01*
X41871552Y28775500D01*
X41871553Y28775500D01*
X41776840Y28790500D01*
X41776835Y28790500D01*
X41413167Y28790500D01*
X41413162Y28790500D01*
X41318448Y28775500D01*
X41267952Y28749770D01*
X41204278Y28717326D01*
X41204277Y28717325D01*
X41204272Y28717322D01*
X41113679Y28626729D01*
X41113676Y28626724D01*
X41055501Y28512553D01*
X41040501Y28417840D01*
X41040501Y27411225D01*
X41020816Y27344186D01*
X41019695Y27343215D01*
X41042978Y27306986D01*
X41046474Y27291448D01*
X41055501Y27234449D01*
X41055502Y27234446D01*
X41055503Y27234445D01*
X41113675Y27120277D01*
X41113677Y27120275D01*
X41113679Y27120272D01*
X41204272Y27029679D01*
X41204274Y27029678D01*
X41204278Y27029674D01*
X41303527Y26979104D01*
X41354322Y26931130D01*
X41371117Y26863309D01*
X41348579Y26797174D01*
X41321543Y26769354D01*
X41227812Y26699186D01*
X41145270Y26588925D01*
X41145268Y26588922D01*
X41097135Y26459873D01*
X41097134Y26459868D01*
X41091001Y26402837D01*
X41091001Y26357000D01*
X41921001Y26357000D01*
X41988040Y26337315D01*
X42033795Y26284511D01*
X42045001Y26233000D01*
X42045001Y24457000D01*
X42025316Y24389961D01*
X41972512Y24344206D01*
X41921001Y24333000D01*
X41091001Y24333000D01*
X41091001Y24287167D01*
X41094250Y24256957D01*
X41081846Y24188197D01*
X41034236Y24137059D01*
X40970961Y24119700D01*
X40506115Y24119700D01*
X40415552Y24095435D01*
X40365704Y24066654D01*
X40365703Y24066655D01*
X40334352Y24048553D01*
X40334350Y24048552D01*
X40075143Y23789346D01*
X40022397Y23758051D01*
X39951744Y23737306D01*
X39951741Y23737305D01*
X39847849Y23670537D01*
X39847847Y23670535D01*
X39766966Y23577194D01*
X39766963Y23577190D01*
X39715660Y23464850D01*
X39715659Y23464848D01*
X39698083Y23342600D01*
X39715659Y23220353D01*
X39715660Y23220351D01*
X39717047Y23217315D01*
X39766963Y23108011D01*
X39766966Y23108007D01*
X39847845Y23014667D01*
X39847847Y23014666D01*
X39847849Y23014664D01*
X39951741Y22947896D01*
X39951746Y22947894D01*
X40070244Y22913101D01*
X40070246Y22913100D01*
X40070247Y22913100D01*
X40193754Y22913100D01*
X40193754Y22913101D01*
X40312256Y22947895D01*
X40416155Y23014667D01*
X40497034Y23108007D01*
X40539423Y23200825D01*
X40548339Y23220348D01*
X40550838Y23228859D01*
X40552060Y23228501D01*
X40577359Y23283910D01*
X40583399Y23290398D01*
X40664185Y23371182D01*
X40725508Y23404667D01*
X40751865Y23407500D01*
X40942000Y23407500D01*
X41009039Y23387815D01*
X41054794Y23335011D01*
X41066000Y23283500D01*
X41066000Y23237000D01*
X41883500Y23237000D01*
X41950539Y23217315D01*
X41996294Y23164511D01*
X42007500Y23113000D01*
X42007500Y22238198D01*
X42017166Y22220496D01*
X42020000Y22194138D01*
X42020000Y19210000D01*
X42040820Y19210000D01*
X42040836Y19210001D01*
X42097867Y19216134D01*
X42097872Y19216135D01*
X42226921Y19264268D01*
X42226924Y19264270D01*
X42344286Y19352127D01*
X42345983Y19349861D01*
X42394642Y19376430D01*
X42464334Y19371446D01*
X42520267Y19329574D01*
X42544684Y19264110D01*
X42545000Y19255264D01*
X42545000Y18646500D01*
X42525315Y18579461D01*
X42472511Y18533706D01*
X42421000Y18522500D01*
X41741161Y18522500D01*
X41646447Y18507500D01*
X41575593Y18471397D01*
X41532277Y18449326D01*
X41532276Y18449325D01*
X41532271Y18449322D01*
X41441678Y18358729D01*
X41441675Y18358724D01*
X41383500Y18244553D01*
X41368500Y18149840D01*
X41368500Y17786161D01*
X41383500Y17691448D01*
X41383502Y17691445D01*
X41441674Y17577277D01*
X41441676Y17577275D01*
X41441678Y17577272D01*
X41532271Y17486679D01*
X41532273Y17486678D01*
X41532277Y17486674D01*
X41646445Y17428502D01*
X41646446Y17428502D01*
X41646448Y17428501D01*
X41646447Y17428501D01*
X41741161Y17413500D01*
X42421000Y17413500D01*
X42488039Y17393815D01*
X42533794Y17341011D01*
X42545000Y17289500D01*
X42545000Y16746500D01*
X42525315Y16679461D01*
X42472511Y16633706D01*
X42421000Y16622500D01*
X41741161Y16622500D01*
X41646447Y16607500D01*
X41570333Y16568717D01*
X41532277Y16549326D01*
X41532276Y16549325D01*
X41532271Y16549322D01*
X41441678Y16458729D01*
X41441675Y16458724D01*
X41383500Y16344553D01*
X41368500Y16249840D01*
X41368500Y15886161D01*
X41383500Y15791448D01*
X41396416Y15766100D01*
X41441674Y15677277D01*
X41441676Y15677275D01*
X41441678Y15677272D01*
X41532271Y15586679D01*
X41532273Y15586678D01*
X41532277Y15586674D01*
X41646445Y15528502D01*
X41646446Y15528502D01*
X41646448Y15528501D01*
X41646447Y15528501D01*
X41741161Y15513500D01*
X42421000Y15513500D01*
X42488039Y15493815D01*
X42533794Y15441011D01*
X42545000Y15389500D01*
X42545000Y15134564D01*
X42525315Y15067525D01*
X42508685Y15046888D01*
X42441998Y14980200D01*
X42408913Y14947115D01*
X42347589Y14913631D01*
X42277898Y14918615D01*
X42221965Y14960487D01*
X42221462Y14961164D01*
X42171653Y15028653D01*
X42171652Y15028654D01*
X42061536Y15109922D01*
X41932364Y15155123D01*
X41932352Y15155125D01*
X41901690Y15158000D01*
X41897000Y15158000D01*
X41897000Y14303000D01*
X41877315Y14235961D01*
X41824511Y14190206D01*
X41773000Y14179000D01*
X41521000Y14179000D01*
X41453961Y14198685D01*
X41408206Y14251489D01*
X41397000Y14303000D01*
X41397000Y15158000D01*
X41392310Y15158000D01*
X41361647Y15155125D01*
X41361635Y15155123D01*
X41232463Y15109922D01*
X41232462Y15109922D01*
X41122349Y15028656D01*
X41117770Y15022450D01*
X41062122Y14980200D01*
X40992465Y14974743D01*
X40930916Y15007810D01*
X40897016Y15068905D01*
X40894000Y15096085D01*
X40894000Y15725371D01*
X40907515Y15781666D01*
X40912498Y15791445D01*
X40912498Y15791447D01*
X40912499Y15791448D01*
X40927500Y15886161D01*
X40927500Y16249840D01*
X40912498Y16344554D01*
X40912498Y16344555D01*
X40907515Y16354335D01*
X40894000Y16410630D01*
X40894000Y16510001D01*
X40892047Y16511927D01*
X40858149Y16573023D01*
X40862663Y16642747D01*
X40868650Y16656493D01*
X40912017Y16741606D01*
X40916197Y16768000D01*
X39104802Y16768000D01*
X39108982Y16741606D01*
X39108983Y16741602D01*
X39147903Y16665217D01*
X39160799Y16596548D01*
X39134522Y16531807D01*
X39077415Y16491551D01*
X39039095Y16484934D01*
X39014400Y16484600D01*
X39014400Y14069100D01*
X38994715Y14002061D01*
X38941911Y13956306D01*
X38890400Y13945100D01*
X38027716Y13945100D01*
X37967414Y13928943D01*
X37967414Y13928942D01*
X37943540Y13922546D01*
X37937146Y13920832D01*
X37919101Y13910413D01*
X37857101Y13893800D01*
X36719100Y13893800D01*
X36652061Y13913485D01*
X36606306Y13966289D01*
X36595100Y14017800D01*
X36595100Y14226278D01*
X36595099Y14226285D01*
X36570834Y14316848D01*
X36548329Y14355827D01*
X36523951Y14398051D01*
X36457651Y14464351D01*
X36376619Y14545383D01*
X36343134Y14606706D01*
X36340300Y14633064D01*
X36340300Y15078454D01*
X36340300Y15078464D01*
X36334160Y15135573D01*
X36333932Y15136184D01*
X36285976Y15264761D01*
X36285975Y15264763D01*
X36262883Y15295610D01*
X36203344Y15375144D01*
X36092963Y15457775D01*
X36092962Y15457776D01*
X36092960Y15457777D01*
X36069075Y15466685D01*
X36013141Y15508556D01*
X35988724Y15574020D01*
X36003575Y15642293D01*
X36052980Y15691699D01*
X36069074Y15699049D01*
X36092725Y15707871D01*
X36202985Y15790412D01*
X36202988Y15790415D01*
X36285530Y15900676D01*
X36285532Y15900679D01*
X36333665Y16029728D01*
X36333666Y16029733D01*
X36339799Y16086764D01*
X36339800Y16086781D01*
X36339800Y16107600D01*
X35484800Y16107600D01*
X35442571Y16120000D01*
X36863000Y16120000D01*
X36863000Y16099164D01*
X36869133Y16042133D01*
X36869134Y16042128D01*
X36917267Y15913079D01*
X36917269Y15913076D01*
X36999811Y15802815D01*
X36999814Y15802812D01*
X37110075Y15720270D01*
X37110078Y15720268D01*
X37239127Y15672135D01*
X37239132Y15672134D01*
X37296163Y15666001D01*
X37296180Y15666000D01*
X37342000Y15666000D01*
X37342000Y16120000D01*
X37842000Y16120000D01*
X37842000Y15666000D01*
X37887820Y15666000D01*
X37887836Y15666001D01*
X37944867Y15672134D01*
X37944872Y15672135D01*
X38073921Y15720268D01*
X38073924Y15720270D01*
X38184185Y15802812D01*
X38184188Y15802815D01*
X38266730Y15913076D01*
X38266732Y15913079D01*
X38314865Y16042128D01*
X38314866Y16042133D01*
X38320999Y16099164D01*
X38321000Y16099181D01*
X38321000Y16120000D01*
X37842000Y16120000D01*
X37342000Y16120000D01*
X36863000Y16120000D01*
X35442571Y16120000D01*
X35417761Y16127285D01*
X35372006Y16180089D01*
X35360800Y16231600D01*
X35360800Y17061600D01*
X35860800Y17061600D01*
X35860800Y16607600D01*
X36339800Y16607600D01*
X36339800Y16628420D01*
X36339799Y16628437D01*
X36333666Y16685468D01*
X36333665Y16685473D01*
X36285532Y16814522D01*
X36285530Y16814525D01*
X36202988Y16924786D01*
X36202985Y16924789D01*
X36092724Y17007331D01*
X36092721Y17007333D01*
X35963672Y17055466D01*
X35963667Y17055467D01*
X35906636Y17061600D01*
X35860800Y17061600D01*
X35360800Y17061600D01*
X35314963Y17061600D01*
X35257932Y17055467D01*
X35257927Y17055466D01*
X35128879Y17007333D01*
X35072511Y16965135D01*
X35007047Y16940718D01*
X34938774Y16955570D01*
X34889368Y17004975D01*
X34874200Y17064402D01*
X34874200Y17249600D01*
X34893885Y17316639D01*
X34946689Y17362394D01*
X34998200Y17373600D01*
X36617458Y17373600D01*
X36684497Y17353915D01*
X36711172Y17330801D01*
X36716244Y17324948D01*
X36749531Y17292829D01*
X36839249Y17245897D01*
X36906288Y17226212D01*
X36906292Y17226212D01*
X36906294Y17226211D01*
X36918107Y17224513D01*
X36979400Y17215700D01*
X36999302Y17215700D01*
X37066341Y17196015D01*
X37112096Y17143211D01*
X37122040Y17074053D01*
X37093015Y17010497D01*
X37073613Y16992433D01*
X36999811Y16937185D01*
X36917269Y16826925D01*
X36917267Y16826922D01*
X36869134Y16697873D01*
X36869133Y16697868D01*
X36863000Y16640837D01*
X36863000Y16620000D01*
X38321000Y16620000D01*
X38321000Y16640820D01*
X38320999Y16640837D01*
X38314866Y16697868D01*
X38314865Y16697873D01*
X38266732Y16826922D01*
X38266730Y16826925D01*
X38184188Y16937185D01*
X38110387Y16992433D01*
X38068516Y17048367D01*
X38063532Y17118059D01*
X38097017Y17179382D01*
X38158341Y17212866D01*
X38184698Y17215700D01*
X39183808Y17215700D01*
X39189386Y17215781D01*
X39191189Y17215806D01*
X39198261Y17216008D01*
X39278043Y17230989D01*
X39335298Y17251414D01*
X39335297Y17251415D01*
X39342801Y17254092D01*
X39342802Y17254091D01*
X39343673Y17254401D01*
X39343679Y17254405D01*
X39347741Y17255850D01*
X39347831Y17255886D01*
X39361588Y17260793D01*
X39403247Y17268000D01*
X40916198Y17268000D01*
X40916197Y17268001D01*
X40912017Y17294395D01*
X40912017Y17294396D01*
X40868534Y17379736D01*
X40855638Y17448406D01*
X40875789Y17501548D01*
X40874615Y17502230D01*
X40877674Y17507493D01*
X40877677Y17507497D01*
X40906702Y17571053D01*
X40927511Y17641924D01*
X40937061Y17708357D01*
X40938627Y17717041D01*
X40944369Y17743428D01*
X40950300Y17798590D01*
X40950300Y18091612D01*
X40944368Y18146780D01*
X40938630Y18173149D01*
X40937062Y18181843D01*
X40927988Y18244956D01*
X40927988Y18280247D01*
X40934907Y18328369D01*
X40934907Y18402228D01*
X40924964Y18471385D01*
X40916430Y18507498D01*
X40914326Y18516402D01*
X40914325Y18516404D01*
X40914325Y18516405D01*
X40864222Y18604392D01*
X40864219Y18604396D01*
X40818473Y18657190D01*
X40818469Y18657193D01*
X40818467Y18657196D01*
X40762648Y18705563D01*
X40720329Y18732761D01*
X40693658Y18755871D01*
X40680778Y18770736D01*
X40680757Y18770758D01*
X40654606Y18796908D01*
X40654586Y18796926D01*
X40654585Y18796927D01*
X40627913Y18820037D01*
X40627898Y18820050D01*
X40627879Y18820066D01*
X40620814Y18825971D01*
X40531093Y18872904D01*
X40531093Y18872905D01*
X40464061Y18892587D01*
X40464049Y18892590D01*
X40390945Y18903100D01*
X40390944Y18903100D01*
X39494000Y18903100D01*
X39426961Y18922785D01*
X39381206Y18975589D01*
X39370000Y19027100D01*
X39370000Y19689000D01*
X41066000Y19689000D01*
X41066000Y19643164D01*
X41072133Y19586133D01*
X41072134Y19586128D01*
X41120267Y19457079D01*
X41120269Y19457076D01*
X41202811Y19346815D01*
X41202814Y19346812D01*
X41313075Y19264270D01*
X41313078Y19264268D01*
X41442127Y19216135D01*
X41442132Y19216134D01*
X41499163Y19210001D01*
X41499180Y19210000D01*
X41520000Y19210000D01*
X41520000Y19689000D01*
X41066000Y19689000D01*
X39370000Y19689000D01*
X39370000Y21213000D01*
X41066000Y21213000D01*
X41066000Y21167164D01*
X41072133Y21110133D01*
X41072134Y21110128D01*
X41120267Y20981079D01*
X41120269Y20981076D01*
X41202811Y20870815D01*
X41297051Y20800266D01*
X41338921Y20744332D01*
X41343905Y20674641D01*
X41310419Y20613318D01*
X41297051Y20601734D01*
X41202811Y20531186D01*
X41120269Y20420925D01*
X41120267Y20420922D01*
X41072134Y20291873D01*
X41072133Y20291868D01*
X41066000Y20234837D01*
X41066000Y20189000D01*
X41520000Y20189000D01*
X41520000Y21213000D01*
X41066000Y21213000D01*
X39370000Y21213000D01*
X39370000Y22737000D01*
X41066000Y22737000D01*
X41066000Y22685545D01*
X41072055Y22629221D01*
X41072056Y22629218D01*
X41119560Y22501856D01*
X41201028Y22393029D01*
X41294966Y22322707D01*
X41336837Y22266773D01*
X41341821Y22197081D01*
X41308336Y22135758D01*
X41294967Y22124174D01*
X41202811Y22055186D01*
X41120269Y21944925D01*
X41120267Y21944922D01*
X41072134Y21815873D01*
X41072133Y21815868D01*
X41066000Y21758837D01*
X41066000Y21713000D01*
X41520000Y21713000D01*
X41520000Y22211803D01*
X41510334Y22229504D01*
X41507500Y22255862D01*
X41507500Y22737000D01*
X41066000Y22737000D01*
X39370000Y22737000D01*
X39370000Y23495000D01*
X39240000Y23495000D01*
X39172961Y23514685D01*
X39127206Y23567489D01*
X39116000Y23619000D01*
X39116000Y24668265D01*
X39135685Y24735304D01*
X39188489Y24781059D01*
X39238117Y24792251D01*
X40792400Y24815800D01*
X40792400Y25163277D01*
X40794145Y25178247D01*
X40793531Y25178313D01*
X40794359Y25186024D01*
X40794361Y25186027D01*
X40800501Y25243136D01*
X40800501Y25784864D01*
X40794361Y25841973D01*
X40794359Y25841977D01*
X40793531Y25849685D01*
X40794144Y25849751D01*
X40793300Y25857000D01*
X41091001Y25857000D01*
X41091001Y25811164D01*
X41097134Y25754133D01*
X41097135Y25754128D01*
X41145268Y25625079D01*
X41145270Y25625076D01*
X41227812Y25514815D01*
X41322052Y25444266D01*
X41363922Y25388332D01*
X41368906Y25318641D01*
X41335420Y25257318D01*
X41322052Y25245734D01*
X41227812Y25175186D01*
X41145270Y25064925D01*
X41145268Y25064922D01*
X41097135Y24935873D01*
X41097134Y24935868D01*
X41091001Y24878837D01*
X41091001Y24833000D01*
X41545001Y24833000D01*
X41545001Y25857000D01*
X41091001Y25857000D01*
X40793300Y25857000D01*
X40792400Y25864722D01*
X40792400Y26609390D01*
X40777667Y26636371D01*
X40782651Y26706063D01*
X40782653Y26706066D01*
X40793867Y26736131D01*
X40793867Y26736133D01*
X40800000Y26793164D01*
X40800001Y26793181D01*
X40800001Y26814000D01*
X39945001Y26814000D01*
X39877962Y26833685D01*
X39832207Y26886489D01*
X39821001Y26938000D01*
X39821001Y27190000D01*
X39840686Y27257039D01*
X39893490Y27302794D01*
X39945001Y27314000D01*
X40800001Y27314000D01*
X40817439Y27331439D01*
X40819686Y27339090D01*
X40820806Y27340062D01*
X40797524Y27376290D01*
X40795913Y27384387D01*
X40795650Y27384324D01*
X40793866Y27391873D01*
X40745733Y27520922D01*
X40745731Y27520925D01*
X40663189Y27631186D01*
X40663186Y27631189D01*
X40552925Y27713731D01*
X40503621Y27732121D01*
X40447688Y27773994D01*
X40423273Y27839458D01*
X40438126Y27907731D01*
X40487532Y27957135D01*
X40506006Y27965345D01*
X40519539Y27970081D01*
X40629652Y28051347D01*
X40629653Y28051348D01*
X40710921Y28161463D01*
X40710921Y28161464D01*
X40756122Y28290636D01*
X40756124Y28290648D01*
X40759000Y28321310D01*
X40759000Y28326000D01*
X39904000Y28326000D01*
X39836961Y28345685D01*
X39791206Y28398489D01*
X39780000Y28450000D01*
X39780000Y29230000D01*
X40280000Y29230000D01*
X40280000Y28826000D01*
X40759000Y28826000D01*
X40759000Y28830691D01*
X40756124Y28861353D01*
X40756122Y28861365D01*
X40710921Y28990537D01*
X40710921Y28990538D01*
X40629653Y29100653D01*
X40629652Y29100654D01*
X40519536Y29181922D01*
X40390364Y29227123D01*
X40390352Y29227125D01*
X40359690Y29230000D01*
X40280000Y29230000D01*
X39780000Y29230000D01*
X39700310Y29230000D01*
X39669647Y29227125D01*
X39669635Y29227123D01*
X39540463Y29181922D01*
X39540462Y29181922D01*
X39430347Y29100654D01*
X39430346Y29100653D01*
X39349078Y28990538D01*
X39349078Y28990537D01*
X39303877Y28861365D01*
X39303875Y28861353D01*
X39301000Y28830691D01*
X39301000Y28685684D01*
X39281315Y28618645D01*
X39228511Y28572890D01*
X39159353Y28562946D01*
X39095797Y28591971D01*
X39065601Y28631222D01*
X39059087Y28644545D01*
X39059085Y28644548D01*
X38975547Y28728086D01*
X38869408Y28779975D01*
X38800592Y28790000D01*
X38742000Y28790000D01*
X38742000Y28264500D01*
X38722315Y28197461D01*
X38669511Y28151706D01*
X38630411Y28143200D01*
X38456805Y28143200D01*
X38398961Y28160185D01*
X38353206Y28212989D01*
X38342000Y28264500D01*
X38342000Y28790000D01*
X38283408Y28790000D01*
X38214592Y28779975D01*
X38176860Y28761528D01*
X38107987Y28749770D01*
X38043690Y28777113D01*
X38004383Y28834877D01*
X37998400Y28872929D01*
X37998400Y28995200D01*
X38018085Y29062239D01*
X38070889Y29107994D01*
X38133977Y29118658D01*
X38162311Y29116001D01*
X38167000Y29116001D01*
X38667000Y29116001D01*
X38671690Y29116001D01*
X38702352Y29118877D01*
X38702364Y29118879D01*
X38831536Y29164080D01*
X38831537Y29164080D01*
X38941652Y29245348D01*
X38941653Y29245349D01*
X39022921Y29355464D01*
X39041535Y29408656D01*
X39082257Y29465432D01*
X39147210Y29491178D01*
X39158576Y29491700D01*
X39279354Y29491700D01*
X39279354Y29491701D01*
X39397856Y29526495D01*
X39429787Y29547017D01*
X39496826Y29566700D01*
X39771873Y29566700D01*
X39774011Y29567273D01*
X39806114Y29571501D01*
X40359742Y29571501D01*
X40359748Y29571501D01*
X40390451Y29574379D01*
X40519773Y29619631D01*
X40630010Y29700990D01*
X40711369Y29811227D01*
X40711369Y29811228D01*
X40716887Y29818704D01*
X40719408Y29816843D01*
X40757029Y29855508D01*
X40817941Y29871500D01*
X40916501Y29871500D01*
X40983540Y29851815D01*
X41029295Y29799011D01*
X41040501Y29747500D01*
X41040501Y29604161D01*
X41055501Y29509448D01*
X41068188Y29484550D01*
X41113675Y29395277D01*
X41113677Y29395275D01*
X41113679Y29395272D01*
X41204272Y29304679D01*
X41204274Y29304678D01*
X41204278Y29304674D01*
X41318446Y29246502D01*
X41318447Y29246502D01*
X41318449Y29246501D01*
X41318448Y29246501D01*
X41413162Y29231500D01*
X41413167Y29231500D01*
X41776840Y29231500D01*
X41871553Y29246501D01*
X41871554Y29246502D01*
X41871556Y29246502D01*
X41985724Y29304674D01*
X41985731Y29304682D01*
X41993623Y29310413D01*
X41995087Y29308397D01*
X42043963Y29335101D01*
X42113656Y29330135D01*
X42145734Y29309526D01*
X42146676Y29310822D01*
X42154573Y29305085D01*
X42268605Y29246983D01*
X42294999Y29242803D01*
X42295000Y29242803D01*
X42295000Y31054198D01*
X42294999Y31054198D01*
X42268605Y31050018D01*
X42268604Y31050018D01*
X42154573Y30991916D01*
X42146676Y30986178D01*
X42145118Y30988323D01*
X42096693Y30961889D01*
X42027003Y30966884D01*
X41994491Y30987784D01*
X41993623Y30986587D01*
X41985727Y30992323D01*
X41985724Y30992326D01*
X41871556Y31050498D01*
X41871555Y31050499D01*
X41871552Y31050500D01*
X41871553Y31050500D01*
X41776840Y31065500D01*
X41776835Y31065500D01*
X41413167Y31065500D01*
X41413162Y31065500D01*
X41318448Y31050500D01*
X41242334Y31011717D01*
X41204278Y30992326D01*
X41204277Y30992325D01*
X41204272Y30992322D01*
X41113679Y30901729D01*
X41113676Y30901724D01*
X41113675Y30901723D01*
X41102861Y30880500D01*
X41055501Y30787553D01*
X41039738Y30688022D01*
X41038176Y30688270D01*
X41015764Y30629476D01*
X40959530Y30588009D01*
X40917035Y30580500D01*
X40817941Y30580500D01*
X40750902Y30600185D01*
X40719037Y30634883D01*
X40716887Y30633296D01*
X40630010Y30751011D01*
X40531187Y30823945D01*
X40519773Y30832369D01*
X40519771Y30832370D01*
X40390458Y30877620D01*
X40390446Y30877622D01*
X40359753Y30880500D01*
X39700257Y30880500D01*
X39684900Y30879060D01*
X39669549Y30877621D01*
X39669546Y30877621D01*
X39669544Y30877620D01*
X39540228Y30832370D01*
X39429989Y30751011D01*
X39348630Y30640772D01*
X39303380Y30511459D01*
X39303378Y30511447D01*
X39300500Y30480754D01*
X39300500Y30474700D01*
X39280815Y30407661D01*
X39228011Y30361906D01*
X39176500Y30350700D01*
X39155846Y30350700D01*
X39119998Y30340175D01*
X39050128Y30340177D01*
X38991351Y30377952D01*
X38985296Y30385519D01*
X38941651Y30444656D01*
X38831536Y30525923D01*
X38702364Y30571124D01*
X38702352Y30571126D01*
X38671690Y30574001D01*
X38667000Y30574001D01*
X38667000Y29116001D01*
X38167000Y29116001D01*
X38167000Y30574001D01*
X38162317Y30574001D01*
X38133973Y30571344D01*
X38065389Y30584686D01*
X38014906Y30632989D01*
X37998400Y30694803D01*
X37998400Y31317433D01*
X38018085Y31384472D01*
X38048764Y31417201D01*
X38065010Y31429190D01*
X38146369Y31539427D01*
X38155196Y31564654D01*
X38195917Y31621429D01*
X38260870Y31647176D01*
X38272237Y31647698D01*
X38284914Y31647698D01*
X38351953Y31628013D01*
X38397708Y31575209D01*
X38401088Y31567052D01*
X38414717Y31530511D01*
X38496270Y31421568D01*
X38605213Y31340015D01*
X38732719Y31292457D01*
X38748520Y31290759D01*
X38789061Y31286399D01*
X38789078Y31286398D01*
X39392122Y31286398D01*
X39392138Y31286399D01*
X39427412Y31290192D01*
X39448481Y31292457D01*
X39575987Y31340015D01*
X39684930Y31421568D01*
X39766483Y31530511D01*
X39814041Y31658017D01*
X39818496Y31699452D01*
X39820099Y31714360D01*
X39820100Y31714377D01*
X39820100Y31881000D01*
X41091002Y31881000D01*
X41091002Y31835164D01*
X41097135Y31778133D01*
X41097136Y31778128D01*
X41145269Y31649079D01*
X41145271Y31649076D01*
X41227813Y31538815D01*
X41227816Y31538812D01*
X41338077Y31456270D01*
X41338080Y31456268D01*
X41467129Y31408135D01*
X41467134Y31408134D01*
X41524165Y31402001D01*
X41524182Y31402000D01*
X41545002Y31402000D01*
X41545002Y31881000D01*
X41091002Y31881000D01*
X39820100Y31881000D01*
X39820100Y32242420D01*
X39820099Y32242437D01*
X39814041Y32298776D01*
X39814041Y32298779D01*
X39783374Y32381000D01*
X41091002Y32381000D01*
X41545002Y32381000D01*
X41545002Y32860000D01*
X41524165Y32860000D01*
X41467134Y32853867D01*
X41467129Y32853866D01*
X41338080Y32805733D01*
X41338077Y32805731D01*
X41227816Y32723189D01*
X41227813Y32723186D01*
X41145271Y32612925D01*
X41145269Y32612922D01*
X41097136Y32483873D01*
X41097135Y32483868D01*
X41091002Y32426837D01*
X41091002Y32381000D01*
X39783374Y32381000D01*
X39766483Y32426285D01*
X39684930Y32535228D01*
X39575987Y32616781D01*
X39575984Y32616782D01*
X39575983Y32616783D01*
X39486964Y32649986D01*
X39431031Y32691858D01*
X39406615Y32757323D01*
X39421468Y32825595D01*
X39470874Y32875000D01*
X39486966Y32882349D01*
X39575746Y32915463D01*
X39684571Y32996929D01*
X39766039Y33105756D01*
X39813543Y33233118D01*
X39813544Y33233121D01*
X39819599Y33289445D01*
X39819600Y33289446D01*
X39819600Y33303400D01*
X38964600Y33303400D01*
X38897561Y33323085D01*
X38851806Y33375889D01*
X38840600Y33427400D01*
X38840600Y33679400D01*
X38860285Y33746439D01*
X38913089Y33792194D01*
X38964600Y33803400D01*
X39819600Y33803400D01*
X39819600Y33817354D01*
X39819599Y33817356D01*
X39813544Y33873680D01*
X39813543Y33873683D01*
X39766039Y34001045D01*
X39679257Y34116971D01*
X39682260Y34119220D01*
X39657240Y34165042D01*
X39662224Y34234734D01*
X39704096Y34290667D01*
X39769560Y34315084D01*
X39778406Y34315400D01*
X39877999Y34315400D01*
X39878000Y34315400D01*
X39876752Y34604830D01*
X39896146Y34671948D01*
X39933707Y34709671D01*
X40035155Y34774867D01*
X40116034Y34868207D01*
X40167340Y34980551D01*
X40184917Y35102800D01*
X40167340Y35225049D01*
X40131405Y35303735D01*
X40116036Y35337390D01*
X40116031Y35337398D01*
X40035160Y35430728D01*
X40035157Y35430731D01*
X40035155Y35430733D01*
X40034172Y35431365D01*
X40013536Y35447994D01*
X39954055Y35507475D01*
X39954054Y35507476D01*
X39949724Y35511806D01*
X39949713Y35511816D01*
X39908607Y35552922D01*
X39875122Y35614245D01*
X39872290Y35640058D01*
X39871967Y35715050D01*
X39891362Y35782169D01*
X39943968Y35828151D01*
X40013083Y35838393D01*
X40047477Y35828374D01*
X40053345Y35825694D01*
X40171844Y35790901D01*
X40171846Y35790900D01*
X40171847Y35790900D01*
X40295354Y35790900D01*
X40295354Y35790901D01*
X40413856Y35825695D01*
X40433615Y35838393D01*
X40517750Y35892464D01*
X40517749Y35892464D01*
X40517755Y35892467D01*
X40598634Y35985807D01*
X40649940Y36098151D01*
X40667517Y36220400D01*
X40649940Y36342649D01*
X40615022Y36419109D01*
X40598636Y36454990D01*
X40598633Y36454994D01*
X40595256Y36458891D01*
X40517755Y36548333D01*
X40517752Y36548335D01*
X40456024Y36588006D01*
X40410269Y36640810D01*
X40400326Y36709969D01*
X40429352Y36773524D01*
X40488128Y36811298D01*
X40591656Y36841695D01*
X40695555Y36908467D01*
X40776434Y37001807D01*
X40827740Y37114151D01*
X40833773Y37156118D01*
X40862796Y37219672D01*
X40868816Y37226138D01*
X40883645Y37240966D01*
X40883650Y37240970D01*
X40893853Y37251174D01*
X40893855Y37251174D01*
X40955426Y37312745D01*
X40998964Y37388154D01*
X41021500Y37472262D01*
X41021500Y38477981D01*
X41041185Y38545020D01*
X41093989Y38590775D01*
X41163147Y38600719D01*
X41175555Y38597549D01*
X41175671Y38598039D01*
X41183220Y38596256D01*
X41239544Y38590201D01*
X41239546Y38590200D01*
X41253500Y38590200D01*
X41253500Y39445200D01*
X41273185Y39512239D01*
X41325989Y39557994D01*
X41377500Y39569200D01*
X41629500Y39569200D01*
X41696539Y39549515D01*
G37*
G04 #@! TD.AperFunction*
G04 #@! TA.AperFunction,Conductor*
G36*
X40457983Y18623915D02*
G01*
X40484655Y18600805D01*
X40533645Y18544267D01*
X40533647Y18544266D01*
X40622350Y18487259D01*
X40668105Y18434455D01*
X40678048Y18365298D01*
X40663283Y18262601D01*
X40680859Y18140355D01*
X40683358Y18131846D01*
X40682125Y18131485D01*
X40690800Y18091612D01*
X40690800Y17798590D01*
X40682127Y17758722D01*
X40683359Y17758360D01*
X40680859Y17749848D01*
X40670652Y17678853D01*
X40641627Y17615297D01*
X40582849Y17577523D01*
X40547914Y17572500D01*
X39466161Y17572500D01*
X39371447Y17557500D01*
X39257273Y17499324D01*
X39256660Y17498878D01*
X39255789Y17498568D01*
X39248582Y17494895D01*
X39248107Y17495827D01*
X39190852Y17475402D01*
X39183780Y17475200D01*
X36979400Y17475200D01*
X36912361Y17494885D01*
X36866606Y17547689D01*
X36855400Y17599200D01*
X36855400Y18519600D01*
X36875085Y18586639D01*
X36927889Y18632394D01*
X36979400Y18643600D01*
X40390944Y18643600D01*
X40457983Y18623915D01*
G37*
G04 #@! TD.AperFunction*
G04 #@! TA.AperFunction,Conductor*
G36*
X44164439Y32593915D02*
G01*
X44210194Y32541111D01*
X44221400Y32489600D01*
X44221400Y29970670D01*
X44201715Y29903631D01*
X44191113Y29889468D01*
X44135768Y29825597D01*
X44135763Y29825590D01*
X44084460Y29713250D01*
X44084459Y29713248D01*
X44066883Y29591000D01*
X44066883Y29588000D01*
X44066037Y29585123D01*
X44065621Y29582222D01*
X44065203Y29582282D01*
X44047198Y29520961D01*
X43994394Y29475206D01*
X43942883Y29464000D01*
X43304000Y29464000D01*
X43236961Y29483685D01*
X43191206Y29536489D01*
X43180000Y29588000D01*
X43180000Y31394400D01*
X43024600Y31394400D01*
X42957561Y31414085D01*
X42911806Y31466889D01*
X42900600Y31518400D01*
X42900600Y32489600D01*
X42920285Y32556639D01*
X42973089Y32602394D01*
X43024600Y32613600D01*
X44097400Y32613600D01*
X44164439Y32593915D01*
G37*
G04 #@! TD.AperFunction*
G04 #@! TA.AperFunction,Conductor*
G36*
X11612997Y34829115D02*
G01*
X11633639Y34812481D01*
X12637781Y33808339D01*
X12671266Y33747016D01*
X12674100Y33720658D01*
X12674100Y18797163D01*
X12654415Y18730124D01*
X12601611Y18684369D01*
X12548641Y18673172D01*
X11884295Y18680988D01*
X11817492Y18701459D01*
X11772361Y18754798D01*
X11763232Y18824069D01*
X11786488Y18879291D01*
X11838732Y18949080D01*
X11886865Y19078128D01*
X11886866Y19078133D01*
X11892999Y19135164D01*
X11893000Y19135181D01*
X11893000Y19181000D01*
X11063000Y19181000D01*
X10995961Y19200685D01*
X10950206Y19253489D01*
X10939000Y19305000D01*
X10939000Y20578000D01*
X11439000Y20578000D01*
X11439000Y19681000D01*
X11893000Y19681000D01*
X11893000Y19726820D01*
X11892999Y19726837D01*
X11886866Y19783868D01*
X11886865Y19783873D01*
X11838732Y19912922D01*
X11838730Y19912925D01*
X11756188Y20023186D01*
X11746775Y20030232D01*
X11704903Y20086164D01*
X11699917Y20155856D01*
X11733401Y20217180D01*
X11746775Y20228768D01*
X11756188Y20235815D01*
X11838730Y20346076D01*
X11838732Y20346079D01*
X11886865Y20475128D01*
X11886866Y20475133D01*
X11892999Y20532164D01*
X11893000Y20532181D01*
X11893000Y20578000D01*
X11439000Y20578000D01*
X10939000Y20578000D01*
X10939000Y21489579D01*
X10915834Y21532004D01*
X10913000Y21558362D01*
X10913000Y21848000D01*
X11413000Y21848000D01*
X11413000Y21591422D01*
X11436166Y21548996D01*
X11439000Y21522638D01*
X11439000Y21078000D01*
X11893000Y21078000D01*
X11893000Y21123820D01*
X11892999Y21123837D01*
X11886866Y21180868D01*
X11886865Y21180873D01*
X11838732Y21309922D01*
X11838730Y21309925D01*
X11756188Y21420185D01*
X11651603Y21498478D01*
X11609732Y21554412D01*
X11604748Y21624104D01*
X11634281Y21678190D01*
X11633630Y21678663D01*
X11637291Y21683704D01*
X11638233Y21685427D01*
X11638238Y21685432D01*
X11639368Y21686563D01*
X11697110Y21799886D01*
X11704731Y21848000D01*
X11413000Y21848000D01*
X10913000Y21848000D01*
X10913000Y22348000D01*
X11413000Y22348000D01*
X11704730Y22348000D01*
X11697110Y22396115D01*
X11697109Y22396117D01*
X11667606Y22454019D01*
X11654709Y22522688D01*
X11680985Y22587429D01*
X11703780Y22609582D01*
X11756187Y22648814D01*
X11756188Y22648815D01*
X11838730Y22759076D01*
X11838732Y22759079D01*
X11886865Y22888128D01*
X11886866Y22888133D01*
X11892999Y22945164D01*
X11893000Y22945181D01*
X11893000Y22991000D01*
X11439000Y22991000D01*
X11439000Y22546362D01*
X11419315Y22479323D01*
X11413000Y22471487D01*
X11413000Y22348000D01*
X10913000Y22348000D01*
X10913000Y22637638D01*
X10932685Y22704677D01*
X10939000Y22712514D01*
X10939000Y23970000D01*
X11439000Y23970000D01*
X11439000Y23491000D01*
X11893000Y23491000D01*
X11893000Y23536820D01*
X11892999Y23536837D01*
X11886866Y23593868D01*
X11886865Y23593873D01*
X11838732Y23722922D01*
X11838730Y23722925D01*
X11756188Y23833186D01*
X11756185Y23833189D01*
X11645924Y23915731D01*
X11645921Y23915733D01*
X11516872Y23963866D01*
X11516867Y23963867D01*
X11459836Y23970000D01*
X11439000Y23970000D01*
X10939000Y23970000D01*
X10918177Y23970000D01*
X10881454Y23966052D01*
X10812695Y23978459D01*
X10761558Y24026069D01*
X10744200Y24089342D01*
X10744200Y24133060D01*
X10714395Y24187643D01*
X10719379Y24257335D01*
X10761251Y24313268D01*
X10826715Y24337685D01*
X10835561Y24338001D01*
X11085299Y24338001D01*
X11085299Y24338002D01*
X11179894Y24352983D01*
X11179895Y24352983D01*
X11293926Y24411085D01*
X11293930Y24411088D01*
X11384412Y24501570D01*
X11384415Y24501574D01*
X11442517Y24615605D01*
X11442517Y24615606D01*
X11446697Y24642000D01*
X10415000Y24642000D01*
X10347961Y24661685D01*
X10302206Y24714489D01*
X10291000Y24766000D01*
X10291000Y25446000D01*
X10791000Y25446000D01*
X10791000Y25142000D01*
X11446698Y25142000D01*
X11446697Y25142001D01*
X11442517Y25168395D01*
X11442517Y25168396D01*
X11384415Y25282427D01*
X11384412Y25282431D01*
X11293930Y25372913D01*
X11293926Y25372916D01*
X11179894Y25431018D01*
X11085295Y25446000D01*
X10791000Y25446000D01*
X10291000Y25446000D01*
X9996700Y25446000D01*
X9996700Y25445999D01*
X9902105Y25431018D01*
X9902098Y25431016D01*
X9857693Y25408390D01*
X9789024Y25395494D01*
X9724284Y25421771D01*
X9684028Y25478878D01*
X9677400Y25518875D01*
X9677400Y26165126D01*
X9697085Y26232165D01*
X9749889Y26277920D01*
X9819047Y26287864D01*
X9857695Y26275611D01*
X9902105Y26252983D01*
X9996704Y26238001D01*
X10290999Y26238001D01*
X10291000Y26238002D01*
X10291000Y26542000D01*
X10791000Y26542000D01*
X10791000Y26238001D01*
X11085299Y26238001D01*
X11085299Y26238002D01*
X11179894Y26252983D01*
X11179895Y26252983D01*
X11293926Y26311085D01*
X11293930Y26311088D01*
X11384412Y26401570D01*
X11384415Y26401574D01*
X11442517Y26515605D01*
X11442517Y26515606D01*
X11446697Y26542000D01*
X10791000Y26542000D01*
X10291000Y26542000D01*
X10291000Y27346000D01*
X10791000Y27346000D01*
X10791000Y27042000D01*
X11446698Y27042000D01*
X11446697Y27042001D01*
X11442517Y27068395D01*
X11442517Y27068396D01*
X11384415Y27182427D01*
X11384412Y27182431D01*
X11293930Y27272913D01*
X11293926Y27272916D01*
X11179894Y27331018D01*
X11085295Y27346000D01*
X10791000Y27346000D01*
X10291000Y27346000D01*
X9996700Y27346000D01*
X9996700Y27345999D01*
X9902105Y27331018D01*
X9902098Y27331016D01*
X9857693Y27308390D01*
X9789024Y27295494D01*
X9724284Y27321771D01*
X9684028Y27378878D01*
X9677400Y27418875D01*
X9677400Y28189628D01*
X9697085Y28256667D01*
X9749889Y28302422D01*
X9814658Y28312917D01*
X9841784Y28310001D01*
X10640000Y28310001D01*
X10640001Y28310002D01*
X10640001Y29214000D01*
X11140001Y29214000D01*
X11140001Y28310001D01*
X11938208Y28310001D01*
X11938217Y28310002D01*
X11998236Y28316453D01*
X11998239Y28316454D01*
X12134022Y28367100D01*
X12134028Y28367104D01*
X12250048Y28453953D01*
X12336897Y28569973D01*
X12336898Y28569975D01*
X12387548Y28705769D01*
X12394000Y28765773D01*
X12394001Y28765790D01*
X12394001Y29214000D01*
X11140001Y29214000D01*
X10640001Y29214000D01*
X10640001Y30618000D01*
X11140001Y30618000D01*
X11140001Y29714000D01*
X12394000Y29714000D01*
X12394000Y30162208D01*
X12393999Y30162217D01*
X12387548Y30222236D01*
X12387547Y30222239D01*
X12336901Y30358022D01*
X12336897Y30358028D01*
X12250048Y30474048D01*
X12134028Y30560897D01*
X12134026Y30560898D01*
X11998232Y30611548D01*
X11938228Y30618000D01*
X11140001Y30618000D01*
X10640001Y30618000D01*
X9841793Y30618000D01*
X9841774Y30617998D01*
X9814648Y30615083D01*
X9745890Y30627492D01*
X9694755Y30675105D01*
X9677400Y30738373D01*
X9677400Y31092600D01*
X9697085Y31159639D01*
X9749889Y31205394D01*
X9801400Y31216600D01*
X10921999Y31216600D01*
X10922000Y31216600D01*
X10917942Y31573694D01*
X10936862Y31640949D01*
X10989143Y31687301D01*
X11058184Y31698029D01*
X11088329Y31688185D01*
X11088770Y31689367D01*
X11226127Y31638135D01*
X11226132Y31638134D01*
X11283163Y31632001D01*
X11283180Y31632000D01*
X11304000Y31632000D01*
X11304000Y32111000D01*
X11804000Y32111000D01*
X11804000Y31632000D01*
X11824820Y31632000D01*
X11824836Y31632001D01*
X11881867Y31638134D01*
X11881872Y31638135D01*
X12010921Y31686268D01*
X12010924Y31686270D01*
X12121185Y31768812D01*
X12121188Y31768815D01*
X12203730Y31879076D01*
X12203732Y31879079D01*
X12251865Y32008128D01*
X12251866Y32008133D01*
X12257999Y32065164D01*
X12258000Y32065181D01*
X12258000Y32111000D01*
X11804000Y32111000D01*
X11304000Y32111000D01*
X11304000Y33090000D01*
X11804000Y33090000D01*
X11804000Y32611000D01*
X12258000Y32611000D01*
X12258000Y32656820D01*
X12257999Y32656837D01*
X12251866Y32713868D01*
X12251865Y32713873D01*
X12203732Y32842922D01*
X12203730Y32842925D01*
X12121188Y32953186D01*
X12121185Y32953189D01*
X12010924Y33035731D01*
X12010921Y33035733D01*
X11881872Y33083866D01*
X11881867Y33083867D01*
X11824836Y33090000D01*
X11804000Y33090000D01*
X11304000Y33090000D01*
X11283163Y33090000D01*
X11226132Y33083867D01*
X11226127Y33083866D01*
X11097078Y33035733D01*
X11089291Y33031480D01*
X11088437Y33033044D01*
X11033031Y33012383D01*
X10964759Y33027241D01*
X10915358Y33076650D01*
X10900203Y33134656D01*
X10896600Y33451800D01*
X10896599Y33451800D01*
X7056125Y33451800D01*
X6998649Y33465925D01*
X6975751Y33477903D01*
X6975750Y33477904D01*
X6975747Y33477905D01*
X6908717Y33497587D01*
X6908705Y33497590D01*
X6835601Y33508100D01*
X6835600Y33508100D01*
X6248699Y33508100D01*
X6181660Y33527785D01*
X6135905Y33580589D01*
X6124719Y33634354D01*
X6126288Y33720658D01*
X6128295Y33831045D01*
X6149195Y33897714D01*
X6202822Y33942501D01*
X6272150Y33951186D01*
X6308570Y33939274D01*
X6376849Y33904484D01*
X6471448Y33889502D01*
X6765743Y33889502D01*
X6765744Y33889503D01*
X6765744Y34569501D01*
X6785429Y34636540D01*
X6838233Y34682295D01*
X6889744Y34693501D01*
X7141744Y34693501D01*
X7208783Y34673816D01*
X7254538Y34621012D01*
X7265744Y34569501D01*
X7265744Y33889502D01*
X7560043Y33889502D01*
X7560043Y33889503D01*
X7654638Y33904484D01*
X7654639Y33904484D01*
X7768670Y33962586D01*
X7768674Y33962589D01*
X7859156Y34053071D01*
X7859159Y34053075D01*
X7917260Y34167105D01*
X7919070Y34172673D01*
X7958510Y34230347D01*
X8022870Y34257543D01*
X8091715Y34245626D01*
X8143190Y34198380D01*
X8160411Y34136465D01*
X8160540Y34136472D01*
X8160644Y34136483D01*
X8160644Y34136478D01*
X8160823Y34136487D01*
X8160922Y34134630D01*
X8161000Y34134351D01*
X8161000Y34133164D01*
X8167133Y34076133D01*
X8167134Y34076128D01*
X8215267Y33947079D01*
X8215269Y33947076D01*
X8297811Y33836815D01*
X8297814Y33836812D01*
X8408075Y33754270D01*
X8408078Y33754268D01*
X8537127Y33706135D01*
X8537132Y33706134D01*
X8594163Y33700001D01*
X8594180Y33700000D01*
X8640000Y33700000D01*
X8640000Y34154000D01*
X9140000Y34154000D01*
X9140000Y33700000D01*
X9185820Y33700000D01*
X9185836Y33700001D01*
X9242867Y33706134D01*
X9242872Y33706135D01*
X9371921Y33754268D01*
X9371924Y33754270D01*
X9482185Y33836812D01*
X9482188Y33836815D01*
X9564730Y33947076D01*
X9564732Y33947079D01*
X9612865Y34076128D01*
X9612866Y34076133D01*
X9618999Y34133164D01*
X9619000Y34133181D01*
X9619000Y34154000D01*
X9140000Y34154000D01*
X8640000Y34154000D01*
X8640000Y34530000D01*
X8659685Y34597039D01*
X8712489Y34642794D01*
X8764000Y34654000D01*
X9619000Y34654000D01*
X9619000Y34674820D01*
X9618999Y34674834D01*
X9615052Y34711543D01*
X9627456Y34780303D01*
X9675066Y34831441D01*
X9738341Y34848800D01*
X11545958Y34848800D01*
X11612997Y34829115D01*
G37*
G04 #@! TD.AperFunction*
G04 #@! TA.AperFunction,Conductor*
G36*
X23991398Y45370115D02*
G01*
X24037153Y45317311D01*
X24047097Y45248153D01*
X24044125Y45234496D01*
X24026283Y45110400D01*
X24043859Y44988153D01*
X24043860Y44988151D01*
X24095163Y44875811D01*
X24095168Y44875803D01*
X24135117Y44829700D01*
X24164142Y44766145D01*
X24165389Y44750435D01*
X24178832Y43890137D01*
X24160197Y43822799D01*
X24108114Y43776224D01*
X24054847Y43764200D01*
X19275600Y43764200D01*
X19208561Y43783885D01*
X19162806Y43836689D01*
X19151600Y43888200D01*
X19151600Y45265800D01*
X19171285Y45332839D01*
X19224089Y45378594D01*
X19275600Y45389800D01*
X23924359Y45389800D01*
X23991398Y45370115D01*
G37*
G04 #@! TD.AperFunction*
G04 #@! TA.AperFunction,Conductor*
G36*
X6902639Y25151715D02*
G01*
X6948394Y25098911D01*
X6959600Y25047400D01*
X6959600Y20647200D01*
X6939915Y20580161D01*
X6887111Y20534406D01*
X6835600Y20523200D01*
X4267200Y20523200D01*
X4267200Y17623764D01*
X4247515Y17556725D01*
X4230881Y17536083D01*
X4104717Y17409919D01*
X4043394Y17376434D01*
X4017036Y17373600D01*
X1473200Y17373600D01*
X1473200Y13995400D01*
X2314400Y13995400D01*
X2381439Y13975715D01*
X2427194Y13922911D01*
X2438400Y13871400D01*
X2438400Y12671600D01*
X2418715Y12604561D01*
X2365911Y12558806D01*
X2314400Y12547600D01*
X784400Y12547600D01*
X717361Y12567285D01*
X671606Y12620089D01*
X660400Y12671600D01*
X660400Y18113200D01*
X680085Y18180239D01*
X732889Y18225994D01*
X784400Y18237200D01*
X2870200Y18237200D01*
X2870200Y18273134D01*
X2889885Y18340173D01*
X2942689Y18385928D01*
X3011847Y18395872D01*
X3041653Y18387695D01*
X3041999Y18387552D01*
X3041999Y19129012D01*
X3051939Y19111795D01*
X3107794Y19055940D01*
X3176203Y19016444D01*
X3252503Y18996000D01*
X3331495Y18996000D01*
X3407795Y19016444D01*
X3458987Y19046000D01*
X3541999Y19046000D01*
X3541999Y18387551D01*
X3625460Y18422121D01*
X3625478Y18422131D01*
X3740768Y18499165D01*
X3740776Y18499171D01*
X3838828Y18597223D01*
X3838834Y18597231D01*
X3915874Y18712529D01*
X3915876Y18712533D01*
X3968942Y18840647D01*
X3968945Y18840657D01*
X3995999Y18976660D01*
X3995999Y19046000D01*
X3541999Y19046000D01*
X3458987Y19046000D01*
X3476204Y19055940D01*
X3532059Y19111795D01*
X3571555Y19180204D01*
X3591999Y19256504D01*
X3591999Y19335496D01*
X3571555Y19411796D01*
X3532059Y19480205D01*
X3476204Y19536060D01*
X3407795Y19575556D01*
X3331495Y19596000D01*
X3252503Y19596000D01*
X3176203Y19575556D01*
X3107794Y19536060D01*
X3051939Y19480205D01*
X3041999Y19462989D01*
X3041999Y20204450D01*
X3541999Y20204450D01*
X3541999Y19546000D01*
X3995999Y19546000D01*
X3995999Y19615341D01*
X3968945Y19751344D01*
X3968942Y19751354D01*
X3915876Y19879468D01*
X3915874Y19879472D01*
X3838834Y19994770D01*
X3838828Y19994778D01*
X3740776Y20092830D01*
X3740768Y20092836D01*
X3625470Y20169876D01*
X3541999Y20204450D01*
X3041999Y20204450D01*
X3041998Y20204451D01*
X3041652Y20204307D01*
X2972183Y20196838D01*
X2909704Y20228113D01*
X2874052Y20288202D01*
X2870200Y20318868D01*
X2870200Y21262800D01*
X2889885Y21329839D01*
X2942689Y21375594D01*
X2994200Y21386800D01*
X5359400Y21386800D01*
X5359400Y25047400D01*
X5379085Y25114439D01*
X5431889Y25160194D01*
X5483400Y25171400D01*
X6835600Y25171400D01*
X6902639Y25151715D01*
G37*
G04 #@! TD.AperFunction*
M02*
