G04 #@! TF.GenerationSoftware,KiCad,Pcbnew,8.0.0*
G04 #@! TF.CreationDate,2024-03-25T13:12:05-04:00*
G04 #@! TF.ProjectId,_Sub_HW_Qcopter,5f537562-5f48-4575-9f51-636f70746572,rev?*
G04 #@! TF.SameCoordinates,PX9157080PYf23bb80*
G04 #@! TF.FileFunction,Paste,Bot*
G04 #@! TF.FilePolarity,Positive*
%FSLAX46Y46*%
G04 Gerber Fmt 4.6, Leading zero omitted, Abs format (unit mm)*
G04 Created by KiCad (PCBNEW 8.0.0) date 2024-03-25 13:12:05*
%MOMM*%
%LPD*%
G01*
G04 APERTURE LIST*
G04 Aperture macros list*
%AMRoundRect*
0 Rectangle with rounded corners*
0 $1 Rounding radius*
0 $2 $3 $4 $5 $6 $7 $8 $9 X,Y pos of 4 corners*
0 Add a 4 corners polygon primitive as box body*
4,1,4,$2,$3,$4,$5,$6,$7,$8,$9,$2,$3,0*
0 Add four circle primitives for the rounded corners*
1,1,$1+$1,$2,$3*
1,1,$1+$1,$4,$5*
1,1,$1+$1,$6,$7*
1,1,$1+$1,$8,$9*
0 Add four rect primitives between the rounded corners*
20,1,$1+$1,$2,$3,$4,$5,0*
20,1,$1+$1,$4,$5,$6,$7,0*
20,1,$1+$1,$6,$7,$8,$9,0*
20,1,$1+$1,$8,$9,$2,$3,0*%
%AMFreePoly0*
4,1,25,0.341240,0.472168,0.360544,0.456612,0.456612,0.360544,0.487927,0.303195,0.490577,0.278545,0.490577,-0.278545,0.472168,-0.341240,0.456612,-0.360544,0.360544,-0.456612,0.303195,-0.487927,0.278545,-0.490577,-0.278545,-0.490577,-0.341240,-0.472168,-0.360544,-0.456612,-0.456612,-0.360544,-0.487927,-0.303195,-0.490577,-0.278545,-0.490577,0.278545,-0.472168,0.341240,-0.456612,0.360544,
-0.360544,0.456612,-0.303195,0.487927,-0.278545,0.490577,0.278545,0.490577,0.341240,0.472168,0.341240,0.472168,$1*%
%AMFreePoly1*
4,1,14,0.363284,0.088284,0.375000,0.060000,0.375000,0.036569,0.363284,0.008285,0.266715,-0.088284,0.238431,-0.100000,-0.335000,-0.100000,-0.363284,-0.088284,-0.375000,-0.060000,-0.375000,0.060000,-0.363284,0.088284,-0.335000,0.100000,0.335000,0.100000,0.363284,0.088284,0.363284,0.088284,$1*%
%AMFreePoly2*
4,1,14,0.266715,0.088284,0.363284,-0.008285,0.375000,-0.036569,0.375000,-0.060000,0.363284,-0.088284,0.335000,-0.100000,-0.335000,-0.100000,-0.363284,-0.088284,-0.375000,-0.060000,-0.375000,0.060000,-0.363284,0.088284,-0.335000,0.100000,0.238431,0.100000,0.266715,0.088284,0.266715,0.088284,$1*%
%AMFreePoly3*
4,1,14,0.088284,0.363284,0.100000,0.335000,0.100000,-0.335000,0.088284,-0.363284,0.060000,-0.375000,0.036569,-0.375000,0.008285,-0.363284,-0.088284,-0.266715,-0.100000,-0.238431,-0.100000,0.335000,-0.088284,0.363284,-0.060000,0.375000,0.060000,0.375000,0.088284,0.363284,0.088284,0.363284,$1*%
%AMFreePoly4*
4,1,14,0.088284,0.363284,0.100000,0.335000,0.100000,-0.238431,0.088284,-0.266715,-0.008285,-0.363284,-0.036569,-0.375000,-0.060000,-0.375000,-0.088284,-0.363284,-0.100000,-0.335000,-0.100000,0.335000,-0.088284,0.363284,-0.060000,0.375000,0.060000,0.375000,0.088284,0.363284,0.088284,0.363284,$1*%
%AMFreePoly5*
4,1,14,0.363284,0.088284,0.375000,0.060000,0.375000,-0.060000,0.363284,-0.088284,0.335000,-0.100000,-0.335000,-0.100000,-0.363284,-0.088284,-0.375000,-0.060000,-0.375000,-0.036569,-0.363284,-0.008285,-0.266715,0.088284,-0.238431,0.100000,0.335000,0.100000,0.363284,0.088284,0.363284,0.088284,$1*%
%AMFreePoly6*
4,1,14,0.363284,0.088284,0.375000,0.060000,0.375000,-0.060000,0.363284,-0.088284,0.335000,-0.100000,-0.238431,-0.100000,-0.266715,-0.088284,-0.363284,0.008285,-0.375000,0.036569,-0.375000,0.060000,-0.363284,0.088284,-0.335000,0.100000,0.335000,0.100000,0.363284,0.088284,0.363284,0.088284,$1*%
%AMFreePoly7*
4,1,14,-0.008285,0.363284,0.088284,0.266715,0.100000,0.238431,0.100000,-0.335000,0.088284,-0.363284,0.060000,-0.375000,-0.060000,-0.375000,-0.088284,-0.363284,-0.100000,-0.335000,-0.100000,0.335000,-0.088284,0.363284,-0.060000,0.375000,-0.036569,0.375000,-0.008285,0.363284,-0.008285,0.363284,$1*%
%AMFreePoly8*
4,1,14,0.088284,0.363284,0.100000,0.335000,0.100000,-0.335000,0.088284,-0.363284,0.060000,-0.375000,-0.060000,-0.375000,-0.088284,-0.363284,-0.100000,-0.335000,-0.100000,0.238431,-0.088284,0.266715,0.008285,0.363284,0.036569,0.375000,0.060000,0.375000,0.088284,0.363284,0.088284,0.363284,$1*%
G04 Aperture macros list end*
%ADD10C,0.010000*%
%ADD11RoundRect,0.200000X0.275000X-0.200000X0.275000X0.200000X-0.275000X0.200000X-0.275000X-0.200000X0*%
%ADD12RoundRect,0.225000X0.250000X-0.225000X0.250000X0.225000X-0.250000X0.225000X-0.250000X-0.225000X0*%
%ADD13RoundRect,0.225000X0.225000X0.250000X-0.225000X0.250000X-0.225000X-0.250000X0.225000X-0.250000X0*%
%ADD14RoundRect,0.225000X-0.225000X-0.250000X0.225000X-0.250000X0.225000X0.250000X-0.225000X0.250000X0*%
%ADD15RoundRect,0.147500X0.147500X0.172500X-0.147500X0.172500X-0.147500X-0.172500X0.147500X-0.172500X0*%
%ADD16RoundRect,0.100000X-0.225000X-0.100000X0.225000X-0.100000X0.225000X0.100000X-0.225000X0.100000X0*%
%ADD17RoundRect,0.140000X0.170000X-0.140000X0.170000X0.140000X-0.170000X0.140000X-0.170000X-0.140000X0*%
%ADD18RoundRect,0.024800X0.130200X-0.165200X0.130200X0.165200X-0.130200X0.165200X-0.130200X-0.165200X0*%
%ADD19RoundRect,0.200000X0.200000X0.275000X-0.200000X0.275000X-0.200000X-0.275000X0.200000X-0.275000X0*%
%ADD20RoundRect,0.190000X-0.190000X-0.190000X0.190000X-0.190000X0.190000X0.190000X-0.190000X0.190000X0*%
%ADD21RoundRect,0.062500X-0.325000X-0.062500X0.325000X-0.062500X0.325000X0.062500X-0.325000X0.062500X0*%
%ADD22RoundRect,0.062500X-0.062500X-0.325000X0.062500X-0.325000X0.062500X0.325000X-0.062500X0.325000X0*%
%ADD23RoundRect,0.190000X0.190000X0.190000X-0.190000X0.190000X-0.190000X-0.190000X0.190000X-0.190000X0*%
%ADD24RoundRect,0.062500X0.325000X0.062500X-0.325000X0.062500X-0.325000X-0.062500X0.325000X-0.062500X0*%
%ADD25RoundRect,0.062500X0.062500X0.325000X-0.062500X0.325000X-0.062500X-0.325000X0.062500X-0.325000X0*%
%ADD26RoundRect,0.218750X-0.218750X-0.381250X0.218750X-0.381250X0.218750X0.381250X-0.218750X0.381250X0*%
%ADD27RoundRect,0.147500X-0.147500X-0.172500X0.147500X-0.172500X0.147500X0.172500X-0.147500X0.172500X0*%
%ADD28RoundRect,0.225000X-0.250000X0.225000X-0.250000X-0.225000X0.250000X-0.225000X0.250000X0.225000X0*%
%ADD29RoundRect,0.140000X-0.140000X-0.170000X0.140000X-0.170000X0.140000X0.170000X-0.140000X0.170000X0*%
%ADD30RoundRect,0.243750X-0.456250X0.243750X-0.456250X-0.243750X0.456250X-0.243750X0.456250X0.243750X0*%
%ADD31RoundRect,0.140000X0.140000X0.170000X-0.140000X0.170000X-0.140000X-0.170000X0.140000X-0.170000X0*%
%ADD32RoundRect,0.027000X-0.198000X0.218000X-0.198000X-0.218000X0.198000X-0.218000X0.198000X0.218000X0*%
%ADD33RoundRect,0.250000X-0.292217X-0.292217X0.292217X-0.292217X0.292217X0.292217X-0.292217X0.292217X0*%
%ADD34RoundRect,0.062500X-0.375000X-0.062500X0.375000X-0.062500X0.375000X0.062500X-0.375000X0.062500X0*%
%ADD35RoundRect,0.062500X-0.062500X-0.375000X0.062500X-0.375000X0.062500X0.375000X-0.062500X0.375000X0*%
%ADD36RoundRect,0.200000X-0.200000X-0.275000X0.200000X-0.275000X0.200000X0.275000X-0.200000X0.275000X0*%
%ADD37RoundRect,0.079500X-0.079500X-0.100500X0.079500X-0.100500X0.079500X0.100500X-0.079500X0.100500X0*%
%ADD38R,0.900000X0.800000*%
%ADD39RoundRect,0.150000X0.150000X-0.512500X0.150000X0.512500X-0.150000X0.512500X-0.150000X-0.512500X0*%
%ADD40FreePoly0,90.000000*%
%ADD41RoundRect,0.050000X0.050000X-0.337500X0.050000X0.337500X-0.050000X0.337500X-0.050000X-0.337500X0*%
%ADD42RoundRect,0.050000X0.337500X-0.050000X0.337500X0.050000X-0.337500X0.050000X-0.337500X-0.050000X0*%
%ADD43RoundRect,0.147500X0.172500X-0.147500X0.172500X0.147500X-0.172500X0.147500X-0.172500X-0.147500X0*%
%ADD44RoundRect,0.250000X-0.350000X-0.650000X0.350000X-0.650000X0.350000X0.650000X-0.350000X0.650000X0*%
%ADD45RoundRect,0.147500X-0.172500X0.147500X-0.172500X-0.147500X0.172500X-0.147500X0.172500X0.147500X0*%
%ADD46RoundRect,0.160000X-0.195000X-0.160000X0.195000X-0.160000X0.195000X0.160000X-0.195000X0.160000X0*%
%ADD47FreePoly1,0.000000*%
%ADD48RoundRect,0.050000X-0.325000X-0.050000X0.325000X-0.050000X0.325000X0.050000X-0.325000X0.050000X0*%
%ADD49FreePoly2,0.000000*%
%ADD50FreePoly3,0.000000*%
%ADD51RoundRect,0.050000X-0.050000X-0.325000X0.050000X-0.325000X0.050000X0.325000X-0.050000X0.325000X0*%
%ADD52FreePoly4,0.000000*%
%ADD53FreePoly5,0.000000*%
%ADD54FreePoly6,0.000000*%
%ADD55FreePoly7,0.000000*%
%ADD56FreePoly8,0.000000*%
%ADD57RoundRect,0.079500X0.079500X0.100500X-0.079500X0.100500X-0.079500X-0.100500X0.079500X-0.100500X0*%
%ADD58RoundRect,0.079500X0.100500X-0.079500X0.100500X0.079500X-0.100500X0.079500X-0.100500X-0.079500X0*%
%ADD59RoundRect,0.200000X-0.275000X0.200000X-0.275000X-0.200000X0.275000X-0.200000X0.275000X0.200000X0*%
%ADD60O,1.550000X0.890000*%
%ADD61O,0.950000X1.250000*%
%ADD62R,1.350000X0.400000*%
%ADD63R,1.550000X1.200000*%
%ADD64R,1.550000X1.500000*%
%ADD65RoundRect,0.079500X-0.100500X0.079500X-0.100500X-0.079500X0.100500X-0.079500X0.100500X0.079500X0*%
%ADD66RoundRect,0.135000X0.135000X0.185000X-0.135000X0.185000X-0.135000X-0.185000X0.135000X-0.185000X0*%
%ADD67RoundRect,0.024800X0.165200X0.130200X-0.165200X0.130200X-0.165200X-0.130200X0.165200X-0.130200X0*%
%ADD68R,0.863600X0.609600*%
%ADD69R,0.254000X0.254000*%
G04 APERTURE END LIST*
D10*
X12792000Y48171200D02*
X12462000Y48171200D01*
X12462000Y48501200D01*
X12792000Y48501200D01*
X12792000Y48171200D01*
G36*
X12792000Y48171200D02*
G01*
X12462000Y48171200D01*
X12462000Y48501200D01*
X12792000Y48501200D01*
X12792000Y48171200D01*
G37*
X14762000Y48171200D02*
X14432000Y48171200D01*
X14432000Y48501200D01*
X14762000Y48501200D01*
X14762000Y48171200D01*
G36*
X14762000Y48171200D02*
G01*
X14432000Y48171200D01*
X14432000Y48501200D01*
X14762000Y48501200D01*
X14762000Y48171200D01*
G37*
X14112000Y49016200D02*
X14022000Y48926200D01*
X13202000Y48926200D01*
X13112000Y49016200D01*
X13112000Y49436200D01*
X14112000Y49436200D01*
X14112000Y49016200D01*
G36*
X14112000Y49016200D02*
G01*
X14022000Y48926200D01*
X13202000Y48926200D01*
X13112000Y49016200D01*
X13112000Y49436200D01*
X14112000Y49436200D01*
X14112000Y49016200D01*
G37*
X14112000Y47656200D02*
X14112000Y47236200D01*
X13112000Y47236200D01*
X13112000Y47656200D01*
X13202000Y47746200D01*
X14022000Y47746200D01*
X14112000Y47656200D01*
G36*
X14112000Y47656200D02*
G01*
X14112000Y47236200D01*
X13112000Y47236200D01*
X13112000Y47656200D01*
X13202000Y47746200D01*
X14022000Y47746200D01*
X14112000Y47656200D01*
G37*
D11*
X14351000Y13399000D03*
X14351000Y15049000D03*
X17653000Y13399000D03*
X17653000Y15049000D03*
D12*
X30988000Y31991000D03*
X30988000Y33541000D03*
D13*
X18949000Y31242000D03*
X17399000Y31242000D03*
D14*
X47256400Y25146000D03*
X48806400Y25146000D03*
D12*
X23876000Y41135000D03*
X23876000Y42685000D03*
D15*
X31775200Y47193200D03*
X30805200Y47193200D03*
D16*
X25466000Y41260000D03*
X25466001Y41910000D03*
X25466000Y42560000D03*
X27366000Y42560000D03*
X27366000Y41260000D03*
D15*
X9733000Y10160000D03*
X8763000Y10160000D03*
X18138000Y48227468D03*
X17168000Y48227468D03*
D17*
X29893200Y48237200D03*
X29893200Y49197200D03*
D18*
X39793800Y44170599D03*
X39293800Y44170600D03*
X38793800Y44170599D03*
X38793800Y44700600D03*
X39293800Y44700599D03*
X39793800Y44700600D03*
D19*
X29146000Y21463000D03*
X27496000Y21463000D03*
D17*
X16219116Y48255468D03*
X16219116Y49215468D03*
D14*
X31864000Y26035000D03*
X33414000Y26035000D03*
D13*
X43345001Y25146000D03*
X41795001Y25146000D03*
X9461800Y11938000D03*
X7911800Y11938000D03*
D19*
X24828000Y29718000D03*
X23178000Y29718000D03*
D20*
X39946000Y11616000D03*
X39946000Y10736000D03*
X40826000Y11616000D03*
X40826000Y10736000D03*
D21*
X38923500Y10426000D03*
X38923500Y10926000D03*
X38923500Y11426000D03*
X38923500Y11926000D03*
D22*
X39636000Y12638500D03*
X40136000Y12638500D03*
X40636000Y12638500D03*
X41136000Y12638500D03*
D21*
X41848500Y11926000D03*
X41848500Y11426000D03*
X41848500Y10926000D03*
X41848500Y10426000D03*
D22*
X41136000Y9713500D03*
X40636000Y9713500D03*
X40136000Y9713500D03*
X39636000Y9713500D03*
D11*
X13462000Y1207000D03*
X13462000Y2857000D03*
D23*
X13525000Y37213500D03*
X13525000Y38093500D03*
X12645000Y37213500D03*
X12645000Y38093500D03*
D24*
X14547500Y38403500D03*
X14547500Y37903500D03*
X14547500Y37403500D03*
X14547500Y36903500D03*
D25*
X13835000Y36191000D03*
X13335000Y36191000D03*
X12835000Y36191000D03*
X12335000Y36191000D03*
D24*
X11622500Y36903500D03*
X11622500Y37403500D03*
X11622500Y37903500D03*
X11622500Y38403500D03*
D25*
X12335000Y39116000D03*
X12835000Y39116000D03*
X13335000Y39116000D03*
X13835000Y39116000D03*
D26*
X33100500Y32766000D03*
X35225500Y32766000D03*
D27*
X32591000Y45974000D03*
X33561000Y45974000D03*
D19*
X34551000Y8590000D03*
X32901000Y8590000D03*
D13*
X2934000Y30861000D03*
X1384000Y30861000D03*
D28*
X21717000Y26327400D03*
X21717000Y24777400D03*
D17*
X19100800Y48211800D03*
X19100800Y49171800D03*
D29*
X34572000Y45974000D03*
X35532000Y45974000D03*
D13*
X18949000Y29718000D03*
X17399000Y29718000D03*
D12*
X25400000Y31991000D03*
X25400000Y33541000D03*
D14*
X31851000Y22987000D03*
X33401000Y22987000D03*
D28*
X29464000Y26556000D03*
X29464000Y25006000D03*
D27*
X6731000Y20955000D03*
X7701000Y20955000D03*
D19*
X27241000Y44196000D03*
X25591000Y44196000D03*
D14*
X40246000Y8255000D03*
X41796000Y8255000D03*
D17*
X25194200Y48237200D03*
X25194200Y49197200D03*
D28*
X26416000Y19063000D03*
X26416000Y17513000D03*
D14*
X31851000Y24511000D03*
X33401000Y24511000D03*
D12*
X20888000Y32004000D03*
X20888000Y33554000D03*
D30*
X6731000Y24178501D03*
X6731000Y22303499D03*
D31*
X31770200Y48209200D03*
X30810200Y48209200D03*
X34566800Y49174400D03*
X33606800Y49174400D03*
X28976200Y48209200D03*
X28016200Y48209200D03*
D32*
X32298999Y10460000D03*
X32949000Y10460000D03*
X33599000Y10460000D03*
X34249001Y10460000D03*
X34249001Y12400000D03*
X33599000Y12400000D03*
X32949000Y12400000D03*
X32298999Y12400000D03*
D33*
X33259000Y40901500D03*
X33259000Y39626500D03*
X33259000Y38351500D03*
X33259000Y37076500D03*
X34534000Y40901500D03*
X34534000Y39626500D03*
X34534000Y38351500D03*
X34534000Y37076500D03*
X35809000Y40901500D03*
X35809000Y39626500D03*
X35809000Y38351500D03*
X35809000Y37076500D03*
X37084000Y40901500D03*
X37084000Y39626500D03*
X37084000Y38351500D03*
X37084000Y37076500D03*
D34*
X31734000Y36239000D03*
X31734000Y36739000D03*
X31734000Y37239001D03*
X31734000Y37739000D03*
X31734000Y38238999D03*
X31734000Y38739000D03*
X31734000Y39239000D03*
X31734000Y39739001D03*
X31734000Y40239000D03*
X31734000Y40738999D03*
X31734000Y41239000D03*
X31734000Y41739000D03*
D35*
X32421500Y42426500D03*
X32921500Y42426500D03*
X33421501Y42426500D03*
X33921500Y42426500D03*
X34421499Y42426500D03*
X34921500Y42426500D03*
X35421500Y42426500D03*
X35921501Y42426500D03*
X36421500Y42426500D03*
X36921499Y42426500D03*
X37421500Y42426500D03*
X37921500Y42426500D03*
D34*
X38609000Y41739000D03*
X38609000Y41239000D03*
X38609000Y40738999D03*
X38609000Y40239000D03*
X38609000Y39739001D03*
X38609000Y39239000D03*
X38609000Y38739000D03*
X38609000Y38238999D03*
X38609000Y37739000D03*
X38609000Y37239001D03*
X38609000Y36739000D03*
X38609000Y36239000D03*
D35*
X37921500Y35551500D03*
X37421500Y35551500D03*
X36921499Y35551500D03*
X36421500Y35551500D03*
X35921501Y35551500D03*
X35421500Y35551500D03*
X34921500Y35551500D03*
X34421499Y35551500D03*
X33921500Y35551500D03*
X33421501Y35551500D03*
X32921500Y35551500D03*
X32421500Y35551500D03*
D36*
X1334000Y32512000D03*
X2984000Y32512000D03*
D14*
X41516000Y38989000D03*
X43066000Y38989000D03*
D13*
X18949000Y22860000D03*
X17399000Y22860000D03*
D37*
X16419000Y889000D03*
X17109000Y889000D03*
D15*
X27076200Y48209200D03*
X26106200Y48209200D03*
D12*
X12827000Y41389000D03*
X12827000Y42939000D03*
D13*
X18949000Y21336000D03*
X17399000Y21336000D03*
D11*
X14986000Y1207000D03*
X14986000Y2857000D03*
D14*
X31851000Y21463000D03*
X33401000Y21463000D03*
D38*
X22671000Y7959000D03*
X21271000Y7959000D03*
X21271000Y9059000D03*
X22671000Y9059000D03*
D11*
X39817000Y20135500D03*
X39817000Y21785500D03*
D14*
X31864000Y29083000D03*
X33414000Y29083000D03*
D37*
X17943000Y2413000D03*
X18633000Y2413000D03*
D39*
X35747999Y2418500D03*
X34798000Y2418500D03*
X33848001Y2418500D03*
X33848001Y4693500D03*
X35747999Y4693500D03*
D40*
X14274000Y7402000D03*
X15374000Y7402000D03*
X16474000Y7402000D03*
X14274000Y8502000D03*
X15374000Y8502000D03*
X16474000Y8502000D03*
X14274000Y9602000D03*
X15374000Y9602000D03*
X16474000Y9602000D03*
D41*
X17174000Y6014500D03*
X16774000Y6014500D03*
X16374000Y6014500D03*
X15974000Y6014500D03*
X15574000Y6014500D03*
X15174000Y6014500D03*
X14774000Y6014500D03*
X14374000Y6014500D03*
X13974000Y6014500D03*
X13574000Y6014500D03*
D42*
X12886500Y6702001D03*
X12886500Y7102000D03*
X12886500Y7502000D03*
X12886500Y7902000D03*
X12886501Y8302000D03*
X12886500Y8702000D03*
X12886500Y9102000D03*
X12886500Y9502001D03*
X12886500Y9902000D03*
X12886500Y10302000D03*
D41*
X13574000Y10989500D03*
X13974000Y10989500D03*
X14373999Y10989500D03*
X14774000Y10989500D03*
X15174000Y10989500D03*
X15574000Y10989499D03*
X15974000Y10989500D03*
X16374000Y10989500D03*
X16774000Y10989500D03*
X17173999Y10989500D03*
D42*
X17861500Y10302000D03*
X17861500Y9902000D03*
X17861500Y9502000D03*
X17861500Y9102000D03*
X17861500Y8702000D03*
X17861500Y8302000D03*
X17861500Y7902000D03*
X17861500Y7502000D03*
X17861500Y7102000D03*
X17861500Y6702000D03*
D14*
X39001400Y32740600D03*
X40551400Y32740600D03*
D43*
X12954000Y13231000D03*
X12954000Y14201000D03*
D44*
X24407200Y1275077D03*
X27307200Y1275077D03*
D19*
X26098000Y21463000D03*
X24448000Y21463000D03*
D13*
X18936000Y19812000D03*
X17386000Y19812000D03*
D31*
X21000768Y48211800D03*
X20040768Y48211800D03*
D39*
X8671371Y14102500D03*
X7721372Y14102500D03*
X6771373Y14102500D03*
X6771373Y16377500D03*
X8671371Y16377500D03*
D12*
X22352000Y32004000D03*
X22352000Y33554000D03*
D13*
X3442000Y15240000D03*
X1892000Y15240000D03*
D31*
X31651000Y45974000D03*
X30691000Y45974000D03*
D14*
X21196000Y10668000D03*
X22746000Y10668000D03*
D36*
X21400000Y21463000D03*
X23050000Y21463000D03*
D14*
X31864000Y27559000D03*
X33414000Y27559000D03*
D36*
X7811000Y8509000D03*
X9461000Y8509000D03*
D28*
X29464000Y19076000D03*
X29464000Y17526000D03*
D45*
X11811000Y14201000D03*
X11811000Y13231000D03*
D46*
X24960000Y25927000D03*
X24960000Y25127000D03*
X25840000Y25927000D03*
X25840000Y25127000D03*
D47*
X23900000Y24527000D03*
D48*
X23900000Y24927000D03*
X23900000Y25327000D03*
X23900000Y25727000D03*
X23900000Y26127000D03*
D49*
X23900000Y26527000D03*
D50*
X24400000Y27027000D03*
D51*
X24800000Y27027000D03*
X25200000Y27027000D03*
X25600000Y27027000D03*
X26000000Y27027000D03*
D52*
X26400000Y27027000D03*
D53*
X26900000Y26527000D03*
D48*
X26900000Y26127000D03*
X26900000Y25727000D03*
X26900000Y25327000D03*
X26900000Y24927000D03*
D54*
X26900000Y24527000D03*
D55*
X26400000Y24027000D03*
D51*
X26000000Y24027000D03*
X25600000Y24027000D03*
X25200000Y24027000D03*
X24800000Y24027000D03*
D56*
X24400000Y24027000D03*
D57*
X18633000Y889000D03*
X17943000Y889000D03*
D19*
X27241000Y39624000D03*
X25591000Y39624000D03*
D12*
X16002000Y13449000D03*
X16002000Y14999000D03*
D19*
X43395001Y27000200D03*
X41745001Y27000200D03*
D58*
X16383000Y2449000D03*
X16383000Y3139000D03*
D28*
X30988000Y19076000D03*
X30988000Y17526000D03*
D12*
X29464000Y31991000D03*
X29464000Y33541000D03*
D28*
X30551000Y12286000D03*
X30551000Y10736000D03*
D11*
X19304000Y13399000D03*
X19304000Y15049000D03*
D59*
X32258000Y2603000D03*
X32258000Y953000D03*
D60*
X1494000Y22027000D03*
D61*
X4194000Y23027001D03*
X4194000Y28026999D03*
D60*
X1494000Y29027000D03*
D62*
X4194000Y24227000D03*
X4194000Y24877000D03*
X4193999Y25527000D03*
X4194000Y26177000D03*
X4194000Y26827000D03*
D63*
X1494000Y22627000D03*
D64*
X1494000Y24527000D03*
X1494000Y26527000D03*
D63*
X1494000Y28427000D03*
D19*
X2933200Y37719000D03*
X1283200Y37719000D03*
D11*
X11938000Y1207000D03*
X11938000Y2857000D03*
D15*
X23014800Y1270000D03*
X22044800Y1270000D03*
D12*
X23876000Y31991000D03*
X23876000Y33541000D03*
D13*
X43066000Y43129200D03*
X41516000Y43129200D03*
D37*
X17943000Y1651000D03*
X18633000Y1651000D03*
D19*
X22796000Y12192000D03*
X21146000Y12192000D03*
D65*
X17145000Y3139000D03*
X17145000Y2449000D03*
D66*
X33733200Y47193200D03*
X32713200Y47193200D03*
D15*
X34571800Y48209200D03*
X33601800Y48209200D03*
D19*
X27876000Y29718000D03*
X26226000Y29718000D03*
D67*
X37566601Y45991400D03*
X37566600Y45491400D03*
X37566601Y44991400D03*
X37036600Y44991400D03*
X37036601Y45491400D03*
X37036600Y45991400D03*
D28*
X27940000Y19063000D03*
X27940000Y17513000D03*
D37*
X19467000Y1270000D03*
X20157000Y1270000D03*
D12*
X33599000Y14165000D03*
X33599000Y15715000D03*
D68*
X43014901Y41721400D03*
X43014901Y40371400D03*
X41567099Y40371400D03*
X41567099Y41721400D03*
D12*
X21717000Y28181000D03*
X21717000Y29731000D03*
D17*
X32664200Y48237200D03*
X32664200Y49197200D03*
D69*
X23025100Y48609199D03*
X23025100Y48209200D03*
X23025100Y47809201D03*
X22631400Y47815500D03*
X22237700Y47809201D03*
X22237700Y48209200D03*
X22237700Y48609199D03*
X22631400Y48602900D03*
D43*
X21056600Y1267600D03*
X21056600Y2237600D03*
D28*
X37338000Y2527600D03*
X37338000Y977600D03*
D14*
X21196000Y6350000D03*
X22746000Y6350000D03*
D13*
X43386000Y18237200D03*
X41836000Y18237200D03*
D28*
X37338000Y5575600D03*
X37338000Y4025600D03*
D39*
X43367999Y20452500D03*
X42418000Y20452500D03*
X41468001Y20452500D03*
X41468001Y22727500D03*
X43367999Y22727500D03*
D14*
X39001400Y31216600D03*
X40551400Y31216600D03*
X6731000Y18161000D03*
X8281000Y18161000D03*
X6731000Y19685000D03*
X8281000Y19685000D03*
M02*
