G04 #@! TF.GenerationSoftware,KiCad,Pcbnew,8.0.0*
G04 #@! TF.CreationDate,2024-03-25T13:12:05-04:00*
G04 #@! TF.ProjectId,_Sub_HW_Qcopter,5f537562-5f48-4575-9f51-636f70746572,rev?*
G04 #@! TF.SameCoordinates,PX9157080PYf23bb80*
G04 #@! TF.FileFunction,Soldermask,Top*
G04 #@! TF.FilePolarity,Negative*
%FSLAX46Y46*%
G04 Gerber Fmt 4.6, Leading zero omitted, Abs format (unit mm)*
G04 Created by KiCad (PCBNEW 8.0.0) date 2024-03-25 13:12:05*
%MOMM*%
%LPD*%
G01*
G04 APERTURE LIST*
G04 Aperture macros list*
%AMRoundRect*
0 Rectangle with rounded corners*
0 $1 Rounding radius*
0 $2 $3 $4 $5 $6 $7 $8 $9 X,Y pos of 4 corners*
0 Add a 4 corners polygon primitive as box body*
4,1,4,$2,$3,$4,$5,$6,$7,$8,$9,$2,$3,0*
0 Add four circle primitives for the rounded corners*
1,1,$1+$1,$2,$3*
1,1,$1+$1,$4,$5*
1,1,$1+$1,$6,$7*
1,1,$1+$1,$8,$9*
0 Add four rect primitives between the rounded corners*
20,1,$1+$1,$2,$3,$4,$5,0*
20,1,$1+$1,$4,$5,$6,$7,0*
20,1,$1+$1,$6,$7,$8,$9,0*
20,1,$1+$1,$8,$9,$2,$3,0*%
%AMFreePoly0*
4,1,6,1.000000,0.000000,0.500000,-0.750000,-0.500000,-0.750000,-0.500000,0.750000,0.500000,0.750000,1.000000,0.000000,1.000000,0.000000,$1*%
%AMFreePoly1*
4,1,6,0.500000,-0.750000,-0.650000,-0.750000,-0.150000,0.000000,-0.650000,0.750000,0.500000,0.750000,0.500000,-0.750000,0.500000,-0.750000,$1*%
G04 Aperture macros list end*
%ADD10C,0.010000*%
%ADD11RoundRect,0.100000X-0.225000X-0.100000X0.225000X-0.100000X0.225000X0.100000X-0.225000X0.100000X0*%
%ADD12RoundRect,0.225000X-0.225000X-0.250000X0.225000X-0.250000X0.225000X0.250000X-0.225000X0.250000X0*%
%ADD13RoundRect,0.200000X-0.200000X-0.275000X0.200000X-0.275000X0.200000X0.275000X-0.200000X0.275000X0*%
%ADD14RoundRect,0.200000X-0.275000X0.200000X-0.275000X-0.200000X0.275000X-0.200000X0.275000X0.200000X0*%
%ADD15RoundRect,0.225000X0.225000X0.250000X-0.225000X0.250000X-0.225000X-0.250000X0.225000X-0.250000X0*%
%ADD16RoundRect,0.100000X0.225000X0.100000X-0.225000X0.100000X-0.225000X-0.100000X0.225000X-0.100000X0*%
%ADD17RoundRect,0.147500X0.147500X0.172500X-0.147500X0.172500X-0.147500X-0.172500X0.147500X-0.172500X0*%
%ADD18RoundRect,0.150000X-0.512500X-0.150000X0.512500X-0.150000X0.512500X0.150000X-0.512500X0.150000X0*%
%ADD19RoundRect,0.200000X0.275000X-0.200000X0.275000X0.200000X-0.275000X0.200000X-0.275000X-0.200000X0*%
%ADD20RoundRect,0.225000X0.250000X-0.225000X0.250000X0.225000X-0.250000X0.225000X-0.250000X-0.225000X0*%
%ADD21RoundRect,0.250000X1.000000X0.650000X-1.000000X0.650000X-1.000000X-0.650000X1.000000X-0.650000X0*%
%ADD22RoundRect,0.147500X0.172500X-0.147500X0.172500X0.147500X-0.172500X0.147500X-0.172500X-0.147500X0*%
%ADD23RoundRect,0.218750X-0.218750X-0.256250X0.218750X-0.256250X0.218750X0.256250X-0.218750X0.256250X0*%
%ADD24R,1.000000X1.000000*%
%ADD25O,1.000000X1.000000*%
%ADD26C,3.600000*%
%ADD27C,5.600000*%
%ADD28RoundRect,0.102000X0.400000X-0.200000X0.400000X0.200000X-0.400000X0.200000X-0.400000X-0.200000X0*%
%ADD29RoundRect,0.100000X-0.100000X0.225000X-0.100000X-0.225000X0.100000X-0.225000X0.100000X0.225000X0*%
%ADD30C,1.000000*%
%ADD31RoundRect,0.218750X-0.256250X0.218750X-0.256250X-0.218750X0.256250X-0.218750X0.256250X0.218750X0*%
%ADD32RoundRect,0.140000X0.140000X0.170000X-0.140000X0.170000X-0.140000X-0.170000X0.140000X-0.170000X0*%
%ADD33RoundRect,0.075000X0.725000X0.075000X-0.725000X0.075000X-0.725000X-0.075000X0.725000X-0.075000X0*%
%ADD34RoundRect,0.075000X0.075000X0.725000X-0.075000X0.725000X-0.075000X-0.725000X0.075000X-0.725000X0*%
%ADD35RoundRect,0.100000X0.100000X-0.225000X0.100000X0.225000X-0.100000X0.225000X-0.100000X-0.225000X0*%
%ADD36RoundRect,0.140000X-0.170000X0.140000X-0.170000X-0.140000X0.170000X-0.140000X0.170000X0.140000X0*%
%ADD37RoundRect,0.200000X0.200000X0.275000X-0.200000X0.275000X-0.200000X-0.275000X0.200000X-0.275000X0*%
%ADD38RoundRect,0.062500X-0.062500X0.187500X-0.062500X-0.187500X0.062500X-0.187500X0.062500X0.187500X0*%
%ADD39R,1.600000X0.900000*%
%ADD40RoundRect,0.225000X-0.250000X0.225000X-0.250000X-0.225000X0.250000X-0.225000X0.250000X0.225000X0*%
%ADD41R,0.800000X0.900000*%
%ADD42RoundRect,0.218750X0.256250X-0.218750X0.256250X0.218750X-0.256250X0.218750X-0.256250X-0.218750X0*%
%ADD43RoundRect,0.140000X0.170000X-0.140000X0.170000X0.140000X-0.170000X0.140000X-0.170000X-0.140000X0*%
%ADD44RoundRect,0.150000X-0.150000X0.512500X-0.150000X-0.512500X0.150000X-0.512500X0.150000X0.512500X0*%
%ADD45FreePoly0,270.000000*%
%ADD46FreePoly1,270.000000*%
%ADD47RoundRect,0.250000X0.262500X0.450000X-0.262500X0.450000X-0.262500X-0.450000X0.262500X-0.450000X0*%
%ADD48RoundRect,0.062500X0.325000X0.062500X-0.325000X0.062500X-0.325000X-0.062500X0.325000X-0.062500X0*%
%ADD49RoundRect,0.062500X0.062500X0.325000X-0.062500X0.325000X-0.062500X-0.325000X0.062500X-0.325000X0*%
%ADD50R,1.750000X1.750000*%
%ADD51RoundRect,0.150000X-0.650000X-0.150000X0.650000X-0.150000X0.650000X0.150000X-0.650000X0.150000X0*%
%ADD52RoundRect,0.062500X0.062500X-0.187500X0.062500X0.187500X-0.062500X0.187500X-0.062500X-0.187500X0*%
%ADD53RoundRect,0.218750X0.381250X-0.218750X0.381250X0.218750X-0.381250X0.218750X-0.381250X-0.218750X0*%
%ADD54RoundRect,0.147500X-0.172500X0.147500X-0.172500X-0.147500X0.172500X-0.147500X0.172500X0.147500X0*%
%ADD55RoundRect,0.218750X0.218750X0.256250X-0.218750X0.256250X-0.218750X-0.256250X0.218750X-0.256250X0*%
%ADD56RoundRect,0.150000X0.512500X0.150000X-0.512500X0.150000X-0.512500X-0.150000X0.512500X-0.150000X0*%
%ADD57FreePoly0,0.000000*%
%ADD58FreePoly1,0.000000*%
%ADD59RoundRect,0.062500X0.187500X0.062500X-0.187500X0.062500X-0.187500X-0.062500X0.187500X-0.062500X0*%
%ADD60R,0.900000X1.600000*%
%ADD61RoundRect,0.243750X-0.456250X0.243750X-0.456250X-0.243750X0.456250X-0.243750X0.456250X0.243750X0*%
%ADD62FreePoly0,90.000000*%
%ADD63FreePoly1,90.000000*%
%ADD64RoundRect,0.225000X-0.225000X-0.475000X0.225000X-0.475000X0.225000X0.475000X-0.225000X0.475000X0*%
%ADD65O,0.900000X1.400000*%
%ADD66RoundRect,0.225000X0.225000X0.475000X-0.225000X0.475000X-0.225000X-0.475000X0.225000X-0.475000X0*%
%ADD67RoundRect,0.225000X0.475000X-0.225000X0.475000X0.225000X-0.475000X0.225000X-0.475000X-0.225000X0*%
%ADD68O,1.400000X0.900000*%
%ADD69O,1.550000X0.890000*%
%ADD70O,0.950000X1.250000*%
%ADD71R,1.700000X1.700000*%
%ADD72O,1.700000X1.700000*%
G04 APERTURE END LIST*
D10*
X46337001Y27414000D02*
X45286999Y27414000D01*
X45287000Y27814000D01*
X46337000Y27814000D01*
X46337001Y27414000D01*
G36*
X46337001Y27414000D02*
G01*
X45286999Y27414000D01*
X45287000Y27814000D01*
X46337000Y27814000D01*
X46337001Y27414000D01*
G37*
X46337000Y31414001D02*
X45287000Y31414001D01*
X45287000Y31814000D01*
X46337000Y31814000D01*
X46337000Y31414001D01*
G36*
X46337000Y31414001D02*
G01*
X45287000Y31414001D01*
X45287000Y31814000D01*
X46337000Y31814000D01*
X46337000Y31414001D01*
G37*
X46337000Y30914000D02*
X45287000Y30914000D01*
X45287000Y31314000D01*
X46337000Y31314000D01*
X46337000Y30914000D01*
G36*
X46337000Y30914000D02*
G01*
X45287000Y30914000D01*
X45287000Y31314000D01*
X46337000Y31314000D01*
X46337000Y30914000D01*
G37*
X46337001Y30814000D02*
X46337000Y30414000D01*
X45287000Y30414000D01*
X45287000Y30814001D01*
X46337001Y30814000D01*
G36*
X46337001Y30814000D02*
G01*
X46337000Y30414000D01*
X45287000Y30414000D01*
X45287000Y30814001D01*
X46337001Y30814000D01*
G37*
X46337001Y29914000D02*
X45287000Y29913999D01*
X45287000Y30314000D01*
X46337000Y30314000D01*
X46337001Y29914000D01*
G36*
X46337001Y29914000D02*
G01*
X45287000Y29913999D01*
X45287000Y30314000D01*
X46337000Y30314000D01*
X46337001Y29914000D01*
G37*
X46337000Y29414000D02*
X45287000Y29414000D01*
X45287000Y29814000D01*
X46337000Y29814000D01*
X46337000Y29414000D01*
G36*
X46337000Y29414000D02*
G01*
X45287000Y29414000D01*
X45287000Y29814000D01*
X46337000Y29814000D01*
X46337000Y29414000D01*
G37*
X46337000Y28914000D02*
X45287000Y28914000D01*
X45287000Y29313999D01*
X46337000Y29313999D01*
X46337000Y28914000D01*
G36*
X46337000Y28914000D02*
G01*
X45287000Y28914000D01*
X45287000Y29313999D01*
X46337000Y29313999D01*
X46337000Y28914000D01*
G37*
X46337000Y28414000D02*
X45287000Y28414000D01*
X45287000Y28814000D01*
X46337000Y28814000D01*
X46337000Y28414000D01*
G36*
X46337000Y28414000D02*
G01*
X45287000Y28414000D01*
X45287000Y28814000D01*
X46337000Y28814000D01*
X46337000Y28414000D01*
G37*
X46337000Y27914000D02*
X45287000Y27914000D01*
X45287000Y28314001D01*
X46337000Y28314001D01*
X46337000Y27914000D01*
G36*
X46337000Y27914000D02*
G01*
X45287000Y27914000D01*
X45287000Y28314001D01*
X46337000Y28314001D01*
X46337000Y27914000D01*
G37*
X46337000Y26914000D02*
X45287000Y26914000D01*
X45287000Y27314000D01*
X46337000Y27314000D01*
X46337000Y26914000D01*
G36*
X46337000Y26914000D02*
G01*
X45287000Y26914000D01*
X45287000Y27314000D01*
X46337000Y27314000D01*
X46337000Y26914000D01*
G37*
X46337000Y26414000D02*
X45287000Y26414000D01*
X45287000Y26813999D01*
X46337001Y26814000D01*
X46337000Y26414000D01*
G36*
X46337000Y26414000D02*
G01*
X45287000Y26414000D01*
X45287000Y26813999D01*
X46337001Y26814000D01*
X46337000Y26414000D01*
G37*
X46337000Y25914000D02*
X45287000Y25914000D01*
X45287000Y26314000D01*
X46337000Y26314000D01*
X46337000Y25914000D01*
G36*
X46337000Y25914000D02*
G01*
X45287000Y25914000D01*
X45287000Y26314000D01*
X46337000Y26314000D01*
X46337000Y25914000D01*
G37*
X46337000Y25414000D02*
X45287000Y25414000D01*
X45287000Y25814000D01*
X46337000Y25814000D01*
X46337000Y25414000D01*
G36*
X46337000Y25414000D02*
G01*
X45287000Y25414000D01*
X45287000Y25814000D01*
X46337000Y25814000D01*
X46337000Y25414000D01*
G37*
X46337001Y24914000D02*
X45287000Y24914001D01*
X45287000Y25314000D01*
X46337000Y25314000D01*
X46337001Y24914000D01*
G36*
X46337001Y24914000D02*
G01*
X45287000Y24914001D01*
X45287000Y25314000D01*
X46337000Y25314000D01*
X46337001Y24914000D01*
G37*
X46337000Y24414000D02*
X45287000Y24414000D01*
X45287000Y24814000D01*
X46337000Y24814000D01*
X46337000Y24414000D01*
G36*
X46337000Y24414000D02*
G01*
X45287000Y24414000D01*
X45287000Y24814000D01*
X46337000Y24814000D01*
X46337000Y24414000D01*
G37*
X46337000Y23914000D02*
X45287000Y23914000D01*
X45286999Y24314000D01*
X46337001Y24314000D01*
X46337000Y23914000D01*
G36*
X46337000Y23914000D02*
G01*
X45287000Y23914000D01*
X45286999Y24314000D01*
X46337001Y24314000D01*
X46337000Y23914000D01*
G37*
X46337000Y23413999D02*
X45287000Y23413999D01*
X45287000Y23814000D01*
X46337000Y23814000D01*
X46337000Y23413999D01*
G36*
X46337000Y23413999D02*
G01*
X45287000Y23413999D01*
X45287000Y23814000D01*
X46337000Y23814000D01*
X46337000Y23413999D01*
G37*
X46337000Y22914000D02*
X45287000Y22914000D01*
X45287000Y23314000D01*
X46337000Y23314000D01*
X46337000Y22914000D01*
G36*
X46337000Y22914000D02*
G01*
X45287000Y22914000D01*
X45287000Y23314000D01*
X46337000Y23314000D01*
X46337000Y22914000D01*
G37*
X46337000Y22414001D02*
X45287000Y22414001D01*
X45287000Y22814000D01*
X46337000Y22814000D01*
X46337000Y22414001D01*
G36*
X46337000Y22414001D02*
G01*
X45287000Y22414001D01*
X45287000Y22814000D01*
X46337000Y22814000D01*
X46337000Y22414001D01*
G37*
X46337000Y21914000D02*
X45287000Y21914000D01*
X45287000Y22314000D01*
X46337000Y22314000D01*
X46337000Y21914000D01*
G36*
X46337000Y21914000D02*
G01*
X45287000Y21914000D01*
X45287000Y22314000D01*
X46337000Y22314000D01*
X46337000Y21914000D01*
G37*
X46337001Y21814000D02*
X46337000Y21414000D01*
X45287000Y21414000D01*
X45287000Y21814001D01*
X46337001Y21814000D01*
G36*
X46337001Y21814000D02*
G01*
X46337000Y21414000D01*
X45287000Y21414000D01*
X45287000Y21814001D01*
X46337001Y21814000D01*
G37*
X46337001Y20914000D02*
X45287000Y20913999D01*
X45287000Y21314000D01*
X46337000Y21314000D01*
X46337001Y20914000D01*
G36*
X46337001Y20914000D02*
G01*
X45287000Y20913999D01*
X45287000Y21314000D01*
X46337000Y21314000D01*
X46337001Y20914000D01*
G37*
X46337000Y20414000D02*
X45287000Y20414000D01*
X45287000Y20814000D01*
X46337000Y20814000D01*
X46337000Y20414000D01*
G36*
X46337000Y20414000D02*
G01*
X45287000Y20414000D01*
X45287000Y20814000D01*
X46337000Y20814000D01*
X46337000Y20414000D01*
G37*
X46337000Y19914000D02*
X45287000Y19914000D01*
X45287000Y20313999D01*
X46337000Y20313999D01*
X46337000Y19914000D01*
G36*
X46337000Y19914000D02*
G01*
X45287000Y19914000D01*
X45287000Y20313999D01*
X46337000Y20313999D01*
X46337000Y19914000D01*
G37*
D11*
X3149600Y38587200D03*
X3149600Y37287200D03*
X1249600Y37287200D03*
X1249600Y37937200D03*
X1249600Y38587200D03*
D12*
X31610000Y41277500D03*
X33160000Y41277500D03*
D13*
X15726000Y40808000D03*
X17376000Y40808000D03*
D14*
X37465000Y33604200D03*
X37465000Y31954200D03*
D15*
X43345001Y24583000D03*
X41795001Y24583000D03*
X11189000Y20828000D03*
X9639000Y20828000D03*
D16*
X9474534Y8875000D03*
X9474533Y9525000D03*
X9474534Y10175000D03*
X7574534Y10175000D03*
X7574535Y9525000D03*
X7574534Y8875000D03*
D17*
X27076200Y48209200D03*
X26106200Y48209200D03*
D18*
X8266000Y26792000D03*
X8266000Y25842000D03*
X8266000Y24892000D03*
X10541000Y24892000D03*
X10541000Y26792000D03*
D19*
X18819000Y47384200D03*
X18819000Y49034200D03*
D20*
X43256200Y46088000D03*
X43256200Y47638000D03*
D21*
X10890001Y29464000D03*
X6889999Y29464000D03*
D15*
X43066000Y42570400D03*
X41516000Y42570400D03*
D20*
X38989000Y977600D03*
X38989000Y2527600D03*
D13*
X5652000Y37973000D03*
X7302000Y37973000D03*
D22*
X19685000Y5380000D03*
X19685000Y6350000D03*
D20*
X1524000Y40754000D03*
X1524000Y42304000D03*
D23*
X1371500Y30861000D03*
X2946500Y30861000D03*
D24*
X48783000Y16764000D03*
D25*
X47512999Y16764000D03*
D19*
X12215000Y47384200D03*
X12215000Y49034200D03*
D12*
X40246000Y8255000D03*
X41796000Y8255000D03*
D26*
X47066200Y3048000D03*
D27*
X47066200Y3048000D03*
D14*
X40030000Y30226000D03*
X40030000Y28576000D03*
X21209000Y12255000D03*
X21209000Y10605000D03*
D15*
X18047000Y8153400D03*
X16497000Y8153400D03*
D24*
X48783000Y10033000D03*
D25*
X47512999Y10033000D03*
D17*
X11163000Y22098000D03*
X10193000Y22098000D03*
D15*
X11554000Y32361000D03*
X10004000Y32361000D03*
D28*
X48387000Y18989000D03*
X48387000Y32839000D03*
D20*
X8890000Y34404000D03*
X8890000Y35954000D03*
D29*
X35448000Y4506000D03*
X34798000Y4505999D03*
X34148000Y4506000D03*
X34148000Y2606000D03*
X34798000Y2606001D03*
X35448000Y2606000D03*
D20*
X22733000Y6350000D03*
X22733000Y7900000D03*
D15*
X43320000Y21463000D03*
X41770000Y21463000D03*
X43345001Y26107000D03*
X41795001Y26107000D03*
D30*
X10693400Y43865800D03*
D12*
X6083000Y39751000D03*
X7633000Y39751000D03*
D19*
X22758400Y10605000D03*
X22758400Y12255000D03*
D23*
X19993000Y40808000D03*
X21568000Y40808000D03*
D31*
X39090600Y33553400D03*
X39090600Y31978398D03*
D20*
X35843999Y35435500D03*
X35843999Y36985500D03*
D32*
X34566800Y49174400D03*
X33606800Y49174400D03*
D30*
X43840400Y5232400D03*
D33*
X33075000Y19527000D03*
X33075000Y20027000D03*
X33075000Y20527001D03*
X33075000Y21027000D03*
X33075000Y21526999D03*
X33075000Y22027000D03*
X33075000Y22527000D03*
X33075000Y23027001D03*
X33075000Y23527000D03*
X33075000Y24027000D03*
X33075000Y24527000D03*
X33075000Y25027000D03*
X33075001Y25527000D03*
X33075000Y26027000D03*
X33075000Y26527000D03*
X33075000Y27027000D03*
X33075000Y27527000D03*
X33075000Y28026999D03*
X33075000Y28527000D03*
X33075000Y29027000D03*
X33075000Y29527001D03*
X33075000Y30027000D03*
X33075000Y30526999D03*
X33075000Y31027000D03*
X33075000Y31527000D03*
D34*
X31400000Y33202000D03*
X30900000Y33202000D03*
X30399999Y33202000D03*
X29900000Y33202000D03*
X29400001Y33202000D03*
X28900000Y33202000D03*
X28400000Y33202000D03*
X27899999Y33202000D03*
X27400000Y33202000D03*
X26900000Y33202000D03*
X26400000Y33202000D03*
X25900000Y33202000D03*
X25400000Y33202001D03*
X24900000Y33202000D03*
X24400000Y33202000D03*
X23900000Y33202000D03*
X23400000Y33202000D03*
X22900001Y33202000D03*
X22400000Y33202000D03*
X21900000Y33202000D03*
X21399999Y33202000D03*
X20900000Y33202000D03*
X20400001Y33202000D03*
X19900000Y33202000D03*
X19400000Y33202000D03*
D33*
X17725000Y31527000D03*
X17725000Y31027000D03*
X17725000Y30526999D03*
X17725000Y30027000D03*
X17725000Y29527001D03*
X17725000Y29027000D03*
X17725000Y28527000D03*
X17725000Y28026999D03*
X17725000Y27527000D03*
X17725000Y27027000D03*
X17725000Y26527000D03*
X17725000Y26027000D03*
X17724999Y25527000D03*
X17725000Y25027000D03*
X17725000Y24527000D03*
X17725000Y24027000D03*
X17725000Y23527000D03*
X17725000Y23027001D03*
X17725000Y22527000D03*
X17725000Y22027000D03*
X17725000Y21526999D03*
X17725000Y21027000D03*
X17725000Y20527001D03*
X17725000Y20027000D03*
X17725000Y19527000D03*
D34*
X19400000Y17852000D03*
X19900000Y17852000D03*
X20400001Y17852000D03*
X20900000Y17852000D03*
X21399999Y17852000D03*
X21900000Y17852000D03*
X22400000Y17852000D03*
X22900001Y17852000D03*
X23400000Y17852000D03*
X23900000Y17852000D03*
X24400000Y17852000D03*
X24900000Y17852000D03*
X25400000Y17851999D03*
X25900000Y17852000D03*
X26400000Y17852000D03*
X26900000Y17852000D03*
X27400000Y17852000D03*
X27899999Y17852000D03*
X28400000Y17852000D03*
X28900000Y17852000D03*
X29400001Y17852000D03*
X29900000Y17852000D03*
X30399999Y17852000D03*
X30900000Y17852000D03*
X31400000Y17852000D03*
D35*
X3160000Y40579000D03*
X3810000Y40579001D03*
X4460000Y40579000D03*
X4460000Y42479000D03*
X3810000Y42478999D03*
X3160000Y42479000D03*
D36*
X36387000Y42265500D03*
X36387000Y41305500D03*
D37*
X7937000Y19430999D03*
X6287000Y19430999D03*
D14*
X21844000Y38417000D03*
X21844000Y36767000D03*
D20*
X34446999Y35435500D03*
X34446999Y36985500D03*
D38*
X41982901Y46119500D03*
X41482900Y46119500D03*
X40982900Y46119500D03*
X40482899Y46119500D03*
X40482899Y44219500D03*
X40982900Y44219500D03*
X41482900Y44219500D03*
X41982901Y44219500D03*
D39*
X41232900Y45169500D03*
D13*
X44006000Y9779000D03*
X45656000Y9779000D03*
D40*
X15341600Y44082000D03*
X15341600Y42532000D03*
X38989000Y5550200D03*
X38989000Y4000200D03*
D37*
X27241000Y39878000D03*
X25591000Y39878000D03*
D15*
X38722600Y48133000D03*
X37172600Y48133000D03*
D41*
X37169000Y22417000D03*
X37169000Y21017000D03*
X38269000Y21017000D03*
X38269000Y22417000D03*
D12*
X12636200Y7874000D03*
X14186200Y7874000D03*
X36817000Y23876000D03*
X38367000Y23876000D03*
D14*
X23444200Y44132000D03*
X23444200Y42482000D03*
D12*
X31610000Y39783499D03*
X33160000Y39783499D03*
D15*
X43320000Y19939000D03*
X41770000Y19939000D03*
D42*
X29840962Y44170499D03*
X29840962Y45745501D03*
D24*
X48773001Y35560000D03*
D25*
X47503000Y35560000D03*
X46233001Y35560000D03*
D13*
X44006000Y8255000D03*
X45656000Y8255000D03*
D26*
X47066200Y47040800D03*
D27*
X47066200Y47040800D03*
D23*
X41757500Y22987000D03*
X43332500Y22987000D03*
D24*
X48783000Y14478000D03*
D25*
X47512999Y14478000D03*
D23*
X41503500Y39319200D03*
X43078500Y39319200D03*
D22*
X12827000Y1928000D03*
X12827000Y2898000D03*
D36*
X37465000Y42265500D03*
X37465000Y41305500D03*
D43*
X29893200Y48237200D03*
X29893200Y49197200D03*
D20*
X13866000Y47434200D03*
X13866000Y48984200D03*
D18*
X17531500Y44257000D03*
X17531500Y43307000D03*
X17531500Y42357000D03*
X19806500Y42357000D03*
X19806500Y44257000D03*
D12*
X12636200Y10922000D03*
X14186200Y10922000D03*
D44*
X43494999Y30148500D03*
X42545000Y30148500D03*
X41595001Y30148500D03*
X41595001Y27873500D03*
X43494999Y27873500D03*
D13*
X1080000Y15240000D03*
X2730000Y15240000D03*
D45*
X1651000Y13043999D03*
D46*
X1651000Y11594001D03*
D19*
X34010600Y14770600D03*
X34010600Y16420600D03*
D15*
X35903200Y990600D03*
X34353200Y990600D03*
X18047000Y6604000D03*
X16497000Y6604000D03*
D32*
X31770200Y47193200D03*
X30810200Y47193200D03*
D19*
X34412961Y44133000D03*
X34412961Y45783000D03*
D20*
X37338000Y35435500D03*
X37338000Y36985500D03*
D44*
X9458999Y17520500D03*
X8509000Y17520500D03*
X7559001Y17520500D03*
X7559001Y15245500D03*
X9458999Y15245500D03*
D15*
X9284000Y13462000D03*
X7734000Y13462000D03*
D20*
X21209000Y6350000D03*
X21209000Y7900000D03*
D40*
X15621000Y2921000D03*
X15621000Y1371000D03*
D24*
X48742600Y42341800D03*
D25*
X47472599Y42341800D03*
X46202600Y42341800D03*
X44932600Y42341800D03*
D13*
X36767000Y29845001D03*
X38417000Y29845001D03*
D47*
X8249500Y32361000D03*
X6424500Y32361000D03*
D12*
X6337000Y21590000D03*
X7887000Y21590000D03*
D32*
X28976200Y48209200D03*
X28016200Y48209200D03*
D17*
X2113000Y26543000D03*
X1143000Y26543000D03*
D13*
X44006000Y12192000D03*
X45656000Y12192000D03*
D20*
X40071001Y25514000D03*
X40071001Y27064000D03*
D48*
X41860500Y10436000D03*
X41860500Y10936000D03*
X41860500Y11436000D03*
X41860500Y11936000D03*
D49*
X41148000Y12648500D03*
X40648000Y12648500D03*
X40148000Y12648500D03*
X39648000Y12648500D03*
D48*
X38935500Y11936000D03*
X38935500Y11436000D03*
X38935500Y10936000D03*
X38935500Y10436000D03*
D49*
X39648000Y9723500D03*
X40148000Y9723500D03*
X40648000Y9723500D03*
X41148000Y9723500D03*
D50*
X40398000Y11186000D03*
D51*
X29039000Y12827000D03*
X29039000Y11557000D03*
X29039000Y10287000D03*
X29039000Y9017000D03*
X36239000Y9017000D03*
X36239000Y10287000D03*
X36239000Y11557000D03*
X36239000Y12827000D03*
D17*
X33710600Y47193200D03*
X32740600Y47193200D03*
D26*
X3048000Y47040800D03*
D27*
X3048000Y47040800D03*
D15*
X38748000Y40134500D03*
X37198000Y40134500D03*
D13*
X39997000Y14429000D03*
X41647000Y14429000D03*
X41466000Y40792400D03*
X43116000Y40792400D03*
D17*
X2113000Y24511000D03*
X1143000Y24511000D03*
D52*
X7758999Y5273000D03*
X8259000Y5273000D03*
X8759000Y5273000D03*
X9259001Y5273000D03*
X9259001Y7173000D03*
X8759000Y7173000D03*
X8259000Y7173000D03*
X7758999Y7173000D03*
D39*
X8509000Y6223000D03*
D20*
X17168000Y47434200D03*
X17168000Y48984200D03*
D15*
X5474000Y7239000D03*
X3924000Y7239000D03*
D40*
X15697200Y11189000D03*
X15697200Y9639000D03*
D15*
X11189000Y19431000D03*
X9639000Y19431000D03*
D31*
X14351000Y15011501D03*
X14351000Y13436499D03*
D15*
X11189000Y23241000D03*
X9639000Y23241000D03*
D17*
X34571800Y48209200D03*
X33601800Y48209200D03*
D20*
X35610800Y14807600D03*
X35610800Y16357600D03*
D13*
X42609000Y37846000D03*
X44259000Y37846000D03*
D42*
X32258000Y990499D03*
X32258000Y2565501D03*
D19*
X25450800Y13399000D03*
X25450800Y15049000D03*
D20*
X20470000Y47434200D03*
X20470000Y48984200D03*
D12*
X12636200Y6350000D03*
X14186200Y6350000D03*
D13*
X42609000Y36449000D03*
X44259000Y36449000D03*
D53*
X6350000Y24718500D03*
X6350000Y26843500D03*
D54*
X18669000Y5334000D03*
X18669000Y4364000D03*
D11*
X37251600Y45379400D03*
X37251601Y44729400D03*
X37251600Y44079400D03*
X39151600Y44079400D03*
X39151599Y44729400D03*
X39151600Y45379400D03*
D40*
X14097000Y2921000D03*
X14097000Y1371000D03*
D13*
X36767000Y25400000D03*
X38417000Y25400000D03*
D17*
X2113000Y25527000D03*
X1143000Y25527000D03*
D19*
X31369000Y44133000D03*
X31369000Y45783000D03*
D24*
X48783000Y12192000D03*
D25*
X47512999Y12192000D03*
D13*
X42609000Y35052000D03*
X44259000Y35052000D03*
D16*
X38542000Y27036000D03*
X38541999Y27686000D03*
X38542000Y28336000D03*
X36642000Y28336000D03*
X36642000Y27036000D03*
D40*
X4572000Y32525000D03*
X4572000Y30975000D03*
D17*
X31775200Y48209200D03*
X30805200Y48209200D03*
D43*
X25194200Y48237200D03*
X25194200Y49197200D03*
D55*
X48793501Y6858000D03*
X47218499Y6858000D03*
D40*
X17145000Y2934000D03*
X17145000Y1384000D03*
D56*
X7015744Y34443501D03*
X7015744Y35393500D03*
X7015744Y36343499D03*
X4740744Y36343499D03*
X4740744Y34443501D03*
D20*
X33049999Y35435500D03*
X33049999Y36985500D03*
D40*
X21869400Y44082000D03*
X21869400Y42532000D03*
D13*
X44006000Y14478000D03*
X45656000Y14478000D03*
D40*
X37592000Y17920000D03*
X37592000Y16370000D03*
D43*
X32687200Y48237200D03*
X32687200Y49197200D03*
D12*
X12636200Y9398000D03*
X14186200Y9398000D03*
D52*
X40894000Y3683000D03*
X41394001Y3683000D03*
X41894001Y3683000D03*
X42394002Y3683000D03*
X42394002Y5583000D03*
X41894001Y5583000D03*
X41394001Y5583000D03*
X40894000Y5583000D03*
D39*
X41644001Y4633000D03*
D18*
X40010500Y17968000D03*
X40010500Y17018000D03*
X40010500Y16068000D03*
X42285500Y16068000D03*
X42285500Y17968000D03*
D24*
X48763000Y40132000D03*
D25*
X47492999Y40132000D03*
X46223000Y40132000D03*
X44953000Y40132000D03*
D12*
X36817000Y19558000D03*
X38367000Y19558000D03*
D57*
X25667501Y42037001D03*
D58*
X27117499Y42037001D03*
D15*
X43345002Y32131000D03*
X41795002Y32131000D03*
D40*
X9144000Y39764000D03*
X9144000Y38214000D03*
D12*
X6337000Y23241000D03*
X7887000Y23241000D03*
D37*
X2984000Y32512000D03*
X1334000Y32512000D03*
D13*
X44006000Y6858000D03*
X45656000Y6858000D03*
D55*
X48793501Y8259037D03*
X47218499Y8259037D03*
D59*
X7908483Y41149016D03*
X7908483Y41649017D03*
X7908483Y42149017D03*
X7908483Y42649018D03*
X6008483Y42649018D03*
X6008483Y42149017D03*
X6008483Y41649017D03*
X6008483Y41149016D03*
D60*
X6958483Y41899017D03*
D53*
X19177000Y36783500D03*
X19177000Y38908500D03*
D36*
X35306000Y42265500D03*
X35306000Y41305500D03*
D19*
X11176000Y15939000D03*
X11176000Y17589000D03*
D13*
X4128000Y15240000D03*
X5778000Y15240000D03*
D12*
X7734000Y11811000D03*
X9284000Y11811000D03*
D14*
X23368000Y38417000D03*
X23368000Y36767000D03*
D42*
X32888962Y44220249D03*
X32888962Y45795251D03*
D20*
X10033000Y1892000D03*
X10033000Y3442000D03*
D24*
X48768001Y37846000D03*
D25*
X47498000Y37846000D03*
X46228001Y37846000D03*
D40*
X18669000Y2934000D03*
X18669000Y1384000D03*
D61*
X1651000Y9827501D03*
X1651000Y7952499D03*
D19*
X15517000Y47384200D03*
X15517000Y49034200D03*
D13*
X44006000Y16764000D03*
X45656000Y16764000D03*
D26*
X3048000Y3048000D03*
D27*
X3048000Y3048000D03*
D13*
X42609000Y33655000D03*
X44259000Y33655000D03*
D14*
X32258000Y5651000D03*
X32258000Y4001000D03*
D62*
X25450800Y10324001D03*
D63*
X25450800Y11773999D03*
D14*
X16002000Y15049000D03*
X16002000Y13399000D03*
D64*
X40660001Y48133000D03*
D65*
X41910000Y48133000D03*
D66*
X41900000Y1659000D03*
D65*
X40650001Y1659000D03*
D67*
X8009000Y2042000D03*
D68*
X8009000Y3292000D03*
D67*
X8136000Y46619000D03*
D68*
X8136000Y47869000D03*
D24*
X2159000Y35829001D03*
D25*
X2159000Y34559000D03*
D64*
X2042000Y19296000D03*
D65*
X3291999Y19296000D03*
D69*
X1494000Y22027000D03*
D70*
X4194000Y23027001D03*
X4194000Y28026999D03*
D69*
X1494000Y29027000D03*
D71*
X4375000Y12197000D03*
D72*
X4375000Y9657000D03*
M02*
