<?xml version="1.0" standalone="no"?>
 <!DOCTYPE svg PUBLIC "-//W3C//DTD SVG 1.1//EN" 
 "http://www.w3.org/Graphics/SVG/1.1/DTD/svg11.dtd"> 
<svg
  xmlns:svg="http://www.w3.org/2000/svg"
  xmlns="http://www.w3.org/2000/svg"
  xmlns:xlink="http://www.w3.org/1999/xlink"
  version="1.1"
  width="326.9234mm" height="157.4800mm" viewBox="0.0000 0.0000 326.9234 157.4800">
<title>SVG Image created as _Sub_HW_Qcopter-Edge_Cuts.svg date 2024/03/27 19:59:23 </title>
  <desc>Image generated by PCBNEW </desc>
<g style="fill:#000000; fill-opacity:1.0000;stroke:#000000; stroke-opacity:1.0000;
stroke-linecap:round; stroke-linejoin:round;"
 transform="translate(0 0) scale(1 1)">
</g>
<g style="fill:none; 
stroke:#000000; stroke-width:0.0500; stroke-opacity:1; 
stroke-linecap:round; stroke-linejoin:round;">
<path d="M25.3626 9.0824 A3.0000 3.0000 0.0 0 0 22.3626 12.0824" />
<path d="M22.3626 12.0824
L22.3626 55.9824
" />
<path d="M72.2626 12.0824 A3.0000 3.0000 0.0 0 0 69.2626 9.0824" />
<path d="M25.3626 9.0824
L69.2626 9.0824
" />
<path d="M69.2626 58.9824 A3.0000 3.0000 0.0 0 0 72.2626 55.9824" />
<path d="M22.3626 55.9824 A3.0000 3.0000 0.0 0 0 25.3626 58.9824" />
<path d="M72.2626 12.0824
L72.2626 55.9824
" />
<path d="M69.2626 58.9824
L25.3626 58.9824
" />
<path d="M25.3626 9.0824 A3.0000 3.0000 0.0 0 0 22.3626 12.0824" />
<path d="M22.3626 12.0824
L22.3626 55.9824
" />
<path d="M72.2626 12.0824 A3.0000 3.0000 0.0 0 0 69.2626 9.0824" />
<path d="M25.3626 9.0824
L69.2626 9.0824
" />
<path d="M69.2626 58.9824 A3.0000 3.0000 0.0 0 0 72.2626 55.9824" />
<path d="M22.3626 55.9824 A3.0000 3.0000 0.0 0 0 25.3626 58.9824" />
<path d="M72.2626 12.0824
L72.2626 55.9824
" />
<path d="M69.2626 58.9824
L25.3626 58.9824
" />
</g> 
</svg>
