M48
; DRILL file {KiCad 8.0.0} date 2024-03-25T13:12:25-0400
; FORMAT={-:-/ absolute / metric / decimal}
; #@! TF.CreationDate,2024-03-25T13:12:25-04:00
; #@! TF.GenerationSoftware,Kicad,Pcbnew,8.0.0
; #@! TF.FileFunction,Plated,1,6,PTH
FMAT,2
METRIC
; #@! TA.AperFunction,Plated,PTH,ViaDrill
T1C0.200
; #@! TA.AperFunction,Plated,PTH,ComponentDrill
T2C0.200
; #@! TA.AperFunction,Plated,PTH,ComponentDrill
T3C0.250
; #@! TA.AperFunction,Plated,PTH,ViaDrill
T4C0.254
; #@! TA.AperFunction,Plated,PTH,ViaDrill
T5C0.300
; #@! TA.AperFunction,Plated,PTH,ComponentDrill
T6C0.500
; #@! TA.AperFunction,Plated,PTH,ComponentDrill
T7C0.550
; #@! TA.AperFunction,Plated,PTH,ComponentDrill
T8C0.600
; #@! TA.AperFunction,Plated,PTH,ComponentDrill
T9C0.650
; #@! TA.AperFunction,Plated,PTH,ComponentDrill
T10C1.000
; #@! TA.AperFunction,Plated,PTH,ComponentDrill
T11C3.200
%
G90
G05
T1
X1.499Y39.649
X1.524Y43.205
X1.778Y36.754
X2.019Y33.477
X2.235Y38.811
X2.921Y26.543
X2.921Y25.527
X2.972Y24.536
X3.15Y39.624
X3.175Y33.477
X3.607Y34.646
X3.607Y34.061
X3.835Y33.477
X4.013Y39.624
X4.089Y37.922
X4.445Y33.503
X4.724Y34.087
X4.775Y39.624
X5.105Y33.477
X5.232Y40.945
X5.385Y39.751
X5.461Y8.331
X5.537Y19.456
X5.74Y10.846
X6.121Y8.636
X7.899Y24.079
X8.179Y20.396
X8.788Y24.079
X8.788Y23.266
X8.788Y22.504
X8.788Y21.844
X8.788Y21.107
X8.788Y20.396
X8.941Y19.71
X9.347Y22.123
X9.931Y6.071
X10.109Y34.569
X10.109Y33.934
X10.211Y14.427
X10.355Y9.136
X10.566Y45.339
X10.617Y34.569
X10.617Y33.934
X10.668Y4.42
X10.719Y12.7
X10.774Y9.53
X10.82Y8.788
X10.846Y11.201
X10.922Y8.001
X10.998Y48.133
X11.125Y33.249
X11.176Y47.396
X11.179Y7.487
X11.201Y10.566
X11.252Y4.42
X11.278Y6.858
X11.328Y9.677
X11.43Y11.989
X11.659Y33.249
X11.659Y27.254
X11.659Y26.721
X11.659Y26.213
X12.167Y27.254
X12.167Y26.721
X12.167Y26.213
X12.167Y23.724
X12.167Y23.19
X12.167Y22.682
X12.167Y21.59
X12.167Y21.057
X12.167Y20.549
X12.167Y19.964
X12.167Y19.431
X12.167Y18.923
X12.598Y35.001
X12.763Y17.589
X12.954Y3.873
X13.335Y34.493
X13.411Y4.75
X13.843Y35.204
X13.97Y12.141
X14.122Y28.753
X14.249Y18.923
X14.351Y16.18
X14.402Y42.545
X14.554Y35.865
X14.605Y41.554
X14.605Y40.97
X14.605Y40.386
X14.681Y12.167
X14.732Y46.863
X14.834Y18.313
X15.104Y24.511
X15.316Y12.141
X15.342Y45.06
X15.342Y21.996
X15.392Y4.75
X15.621Y24.003
X15.748Y25.527
X15.824Y38.354
X15.85Y37.414
X15.974Y12.217
X16.104Y22.581
X16.104Y22.006
X16.129Y25.019
X16.231Y45.06
X16.37Y46.876
X16.434Y1.372
X17.018Y45.06
X17.628Y39.726
X17.805Y45.06
X17.907Y5.461
X17.907Y4.013
X17.983Y46.914
X18.313Y39.726
X18.644Y41.402
X18.644Y40.894
X18.644Y40.386
X18.819Y47.384
X18.948Y6.299
X18.999Y10.327
X19.05Y7.264
X19.101Y9.246
X19.324Y9.852
X19.507Y45.161
X19.507Y43.231
X19.812Y7.061
X20.091Y3.378
X20.091Y2.718
X20.218Y8.407
X20.269Y45.161
X20.269Y43.231
X20.396Y16.485
X20.472Y25.984
X20.549Y4.191
X20.853Y39.04
X20.98Y45.161
X20.98Y43.231
X21.057Y3.073
X21.412Y16.485
X21.438Y49.124
X21.539Y45.161
X21.742Y23.851
X21.844Y36.767
X21.895Y35.966
X21.92Y13.513
X22.123Y45.161
X22.631Y47.041
X22.758Y45.161
X22.784Y13.513
X22.835Y16.51
X22.911Y34.823
X22.962Y23.622
X23.266Y47.041
X23.393Y45.161
X23.724Y34.798
X23.749Y7.595
X23.8Y14.834
X23.887Y47.069
X24.003Y16.027
X24.282Y8.026
X24.384Y34.773
X24.435Y19.634
X24.448Y22.619
X24.46Y45.11
X24.511Y14.3
X24.638Y47.092
X24.638Y7.595
X24.79Y25.502
X24.892Y35.128
X25.171Y47.523
X25.349Y20.523
X25.4Y34.798
X25.4Y25.502
X25.4Y16.434
X25.451Y9.373
X25.603Y38.608
X26.01Y25.502
X26.111Y20.549
X26.162Y49.225
X26.645Y28.575
X26.924Y34.849
X27.534Y14.834
X27.61Y10.516
X27.661Y9.754
X27.864Y27.965
X27.889Y16.485
X27.915Y34.849
X27.917Y15.91
X28.412Y35.137
X28.473Y43.307
X28.909Y34.847
X28.981Y40.742
X29.007Y49.2
X29.007Y39.726
X29.058Y7.925
X29.159Y22.428
X29.21Y42.443
X29.312Y37.744
X29.312Y24.105
X29.515Y40.259
X29.515Y39.243
X29.667Y13.589
X29.794Y34.823
X29.845Y43.155
X29.972Y38.227
X29.972Y37.236
X29.972Y36.22
X29.997Y41.732
X30.099Y23.393
X30.404Y35.179
X30.531Y41.224
X30.556Y13.411
X30.556Y9.855
X30.582Y36.754
X31.058Y43.183
X31.572Y42.926
X31.801Y49.225
X32.258Y6.223
X33.071Y16.561
X33.325Y0.711
X33.35Y1.295
X33.604Y9.652
X33.833Y43.409
X33.884Y5.817
X34.265Y9.652
X34.421Y43.383
X34.468Y5.817
X34.544Y7.544
X34.595Y34.214
X34.62Y21.514
X34.62Y20.523
X34.62Y19.787
X34.696Y29.185
X34.696Y13.157
X34.773Y47.371
X34.798Y3.556
X35.027Y21.031
X35.128Y11.582
X35.128Y10.82
X35.204Y29.748
X35.216Y26.805
X35.255Y13.716
X35.281Y6.096
X35.382Y27.356
X35.423Y26.269
X35.433Y48.006
X35.433Y3.556
X35.535Y25.171
X35.585Y45.11
X35.712Y34.138
X35.738Y5.588
X35.839Y6.096
X35.992Y8.077
X36.043Y3.556
X36.195Y47.981
X36.265Y34.296
X36.373Y21.031
X36.398Y6.096
X36.398Y5.521
X36.424Y30.886
X36.5Y3.073
X36.5Y1.93
X36.551Y4.039
X36.805Y46.99
X36.881Y15.367
X36.881Y14.808
X36.881Y14.224
X36.921Y43.332
X37.49Y46.787
X37.922Y43.231
X37.998Y49.149
X38.125Y6.172
X38.125Y3.099
X38.151Y1.93
X38.168Y12.675
X38.176Y4.013
X38.227Y7.925
X38.379Y15.392
X38.379Y14.808
X38.379Y14.224
X38.481Y18.466
X38.481Y17.653
X38.531Y25.514
X38.583Y35.56
X38.71Y49.149
X38.743Y12.649
X38.887Y18.009
X38.935Y9.655
X38.938Y8.814
X38.956Y42.639
X39.079Y22.417
X39.116Y35.204
X39.192Y46.838
X39.218Y29.921
X39.294Y46.228
X39.345Y29.261
X39.522Y40.239
X39.573Y42.316
X39.643Y36.182
X39.7Y38.227
X39.7Y36.754
X39.751Y35.103
X39.776Y39.497
X39.903Y22.682
X39.98Y5.766
X40.107Y41.834
X40.132Y37.744
X40.132Y23.343
X40.234Y36.22
X40.411Y37.236
X40.665Y13.691
X40.716Y22.682
X40.716Y22.149
X40.716Y21.514
X40.818Y19.456
X40.818Y18.872
X40.869Y24.79
X40.894Y24.333
X41.072Y29.007
X41.097Y18.263
X41.097Y17.628
X41.123Y33.782
X41.351Y17.043
X41.351Y15.392
X41.377Y34.976
X41.504Y38.075
X41.783Y33.782
X41.783Y29.007
X41.91Y9.703
X42.164Y17.043
X42.494Y31.242
X42.494Y23.139
X42.494Y21.488
X42.494Y19.126
X42.52Y29.007
X42.799Y33.934
X42.977Y10.414
X43.078Y44.171
X43.282Y34.9
X43.409Y31.242
X44.018Y31.242
X44.094Y11.201
X44.145Y23.647
X44.196Y27.127
X44.221Y26.594
X44.374Y19.253
X44.374Y18.771
X44.374Y18.263
X44.399Y43.256
X44.501Y29.591
X44.78Y25.4
X44.806Y31.115
X44.806Y30.124
X44.825Y23.206
X44.856Y28.473
X44.856Y22.631
X44.882Y19.253
X44.882Y18.771
X44.882Y18.263
X44.907Y26.086
X46.761Y32.08
X46.838Y30.607
X46.838Y29.616
X46.838Y28.626
X46.838Y27.61
X46.888Y26.137
X46.888Y24.13
X46.914Y23.114
X46.914Y22.098
X46.939Y21.107
X46.939Y20.117
X47.256Y25.146
T2
X12.46Y38.279
X12.46Y37.029
X13.71Y38.279
X13.71Y37.029
X13.724Y10.152
X13.724Y9.052
X13.724Y7.952
X13.724Y6.852
X14.824Y10.152
X14.824Y9.052
X14.824Y7.952
X14.824Y6.852
X15.924Y9.052
X15.924Y10.152
X15.924Y7.952
X15.924Y6.852
X17.024Y10.152
X17.024Y7.952
X17.024Y9.052
X17.024Y6.852
X32.621Y41.539
X32.621Y40.264
X32.621Y38.989
X32.621Y37.714
X32.621Y36.439
X33.896Y41.539
X33.896Y40.264
X33.896Y38.989
X33.896Y37.714
X33.896Y36.439
X35.172Y41.539
X35.172Y40.264
X35.172Y38.989
X35.172Y37.714
X35.172Y36.439
X36.447Y41.539
X36.447Y40.264
X36.447Y38.989
X36.447Y37.714
X36.447Y36.439
X37.721Y41.539
X37.721Y40.264
X37.721Y38.989
X37.721Y37.714
X37.721Y36.439
X39.761Y11.801
X39.761Y10.551
X39.773Y11.811
X39.773Y10.561
X41.011Y11.801
X41.011Y10.551
X41.023Y11.811
X41.023Y10.561
T3
X6.958Y42.399
X6.958Y41.399
X8.009Y6.223
X9.009Y6.223
X40.733Y45.169
X41.144Y4.633
X41.733Y45.169
X42.144Y4.633
T4
X39.37Y8.255
T5
X1.092Y6.858
X1.956Y6.858
X2.819Y7.976
X2.819Y6.858
X10.033Y0.94
X10.109Y35.966
X10.211Y38.202
X10.287Y40.818
X10.578Y49.1
X11.252Y3.72
X11.354Y42.951
X11.354Y41.758
X15.291Y29.743
X15.367Y27.916
X15.774Y31.19
X15.95Y20.306
X17.374Y18.644
X18.44Y33.198
X19.609Y24.257
X20.041Y30.455
X20.066Y21.336
X20.091Y19.863
X20.273Y35.248
X21.359Y30.674
X24.587Y31.013
X26.289Y35.992
X27.102Y31.75
X27.965Y20.041
X30.155Y20.239
X30.785Y23.038
X30.799Y21.094
X30.81Y27.559
X30.886Y16.307
X30.912Y30.666
X30.912Y29.602
X31.064Y34.603
X33.401Y18.542
X34.594Y24.028
X34.594Y22.988
X35.281Y30.582
X38.989Y0.978
X42.609Y36.449
X42.621Y37.846
X43.028Y8.255
X43.256Y48.87
X43.256Y45.237
X44.729Y20.599
T8
X2.042Y19.296
X3.292Y19.296
X8.009Y3.292
X8.009Y2.042
X8.136Y47.869
X8.136Y46.619
X40.65Y1.659
X40.66Y48.133
X41.9Y1.659
X41.91Y48.133
T9
X2.159Y35.829
X2.159Y34.559
X44.933Y42.342
X44.953Y40.132
X46.203Y42.342
X46.223Y40.132
X46.228Y37.846
X46.233Y35.56
X47.473Y42.342
X47.493Y40.132
X47.498Y37.846
X47.503Y35.56
X47.513Y16.764
X47.513Y14.478
X47.513Y12.192
X47.513Y10.033
X48.743Y42.342
X48.763Y40.132
X48.768Y37.846
X48.773Y35.56
X48.783Y16.764
X48.783Y14.478
X48.783Y12.192
X48.783Y10.033
T10
X4.375Y12.197
X4.375Y9.657
T11
X3.048Y47.041
X3.048Y3.048
X47.066Y47.041
X47.066Y3.048
T6
X1.169Y29.027G85X1.819Y29.027
G05
X1.169Y22.027G85X1.819Y22.027
G05
T7
X4.194Y27.877G85X4.194Y28.177
G05
X4.194Y22.877G85X4.194Y23.177
G05
M30
