<svg xmlns="http://www.w3.org/2000/svg" viewBox="0 0 282 28" fill="#fff">
    <path d="M203.92 2.36l.19-.1zM52 6.66a6 6 0 0 0-1.11-.91 11.11 11.11 0 0 0-1.7-.91 12.66 12.66 0 0 0-2.16-.7 11.76 11.76 0 0 0-2.51-.27 6.17 6.17 0 0 0-3.82 1 3.36 3.36 0 0 0-1 1.25 3.29 3.29 0 0 0-.31 1.58 2.88 2.88 0 0 0 .42 1.64 3.39 3.39 0 0 0 1.25 1.1 10 10 0 0 0 2.1.85c.83.25 1.82.52 2.93.8 1.32.36 2.54.73 3.64 1.12a10.38 10.38 0 0 1 2.83 1.45 6 6 0 0 1 1.82 2.15 6.94 6.94 0 0 1 .7 3.19 7.83 7.83 0 0 1-.8 3.69 7 7 0 0 1-2.16 2.45A9.44 9.44 0 0 1 49 27.53a15.33 15.33 0 0 1-3.82.42 18.87 18.87 0 0 1-6-.95 16.66 16.66 0 0 1-5.23-2.77l2-3.71a9 9 0 0 0 1.41 1.12 12.37 12.37 0 0 0 2.16 1.14 17.76 17.76 0 0 0 2.73.89 12.46 12.46 0 0 0 3.1.37 6.78 6.78 0 0 0 3.8-.91 2.93 2.93 0 0 0 1-1.14 3 3 0 0 0 .33-1.51 2.9 2.9 0 0 0-.5-1.74 4.12 4.12 0 0 0-1.43-1.23 12.4 12.4 0 0 0-2.34-.93c-.91-.28-2-.57-3.13-.87a31 31 0 0 1-3.53-1.15A8.7 8.7 0 0 1 37 13.11a5.66 5.66 0 0 1-1.5-2 6.57 6.57 0 0 1-.5-2.76 8.29 8.29 0 0 1 .74-3.57 7.56 7.56 0 0 1 2.06-2.63A9.27 9.27 0 0 1 40.92.54 13.22 13.22 0 0 1 44.77 0a14.34 14.34 0 0 1 5.14.89A16.7 16.7 0 0 1 54 3.09zm15.78 21V.19h11.43a7.47 7.47 0 0 1 3.38.81 8.64 8.64 0 0 1 2.65 2A9.8 9.8 0 0 1 87 5.86a8.73 8.73 0 0 1 .63 3.27 9.62 9.62 0 0 1-2.23 6.22 8 8 0 0 1-2.59 2 7.2 7.2 0 0 1-3.34.76H72.1v9.57zm4.28-13.4h7.07a3.48 3.48 0 0 0 1.67-.39 3.81 3.81 0 0 0 1.28-1.08 5.26 5.26 0 0 0 .92-1.6 6.75 6.75 0 0 0 .31-2 6 6 0 0 0-.35-2.09 5 5 0 0 0-1-1.61 4.45 4.45 0 0 0-1.4-1A3.8 3.8 0 0 0 79 4h-6.9zm45.7 9.58v3.82H99.19V.19h18.26V4h-14v7.84h12.11v3.6h-12.09v8.42zM134.3 8.32v19.37H130V.19h3.35L148.88 20V.23h4.32v27.46h-3.55zm30.23 5.46a14.37 14.37 0 0 1 .88-4.94A14 14 0 0 1 168 4.43a12.71 12.71 0 0 1 4-3.16 12.07 12.07 0 0 1 5.44-1.2 11.38 11.38 0 0 1 6.25 1.67 10.54 10.54 0 0 1 3.92 4.34l-3.35 2.28a7 7 0 0 0-3.08-3.45 6.88 6.88 0 0 0-1.93-.71 9.1 9.1 0 0 0-1.92-.2 7.33 7.33 0 0 0-3.64.84 8.19 8.19 0 0 0-2.69 2.3 10.3 10.3 0 0 0-1.61 3.21 12.35 12.35 0 0 0-.53 3.57 11.45 11.45 0 0 0 .63 3.81 10.54 10.54 0 0 0 1.8 3.27 9.13 9.13 0 0 0 2.71 2.18 7.36 7.36 0 0 0 3.44.85 8.44 8.44 0 0 0 2-.26 6.89 6.89 0 0 0 2-.81 8.15 8.15 0 0 0 1.74-1.41 7.33 7.33 0 0 0 1.34-2.05l3.55 2.05a8.39 8.39 0 0 1-1.81 2.74 11.37 11.37 0 0 1-2.62 2A13.15 13.15 0 0 1 177.3 28a10.93 10.93 0 0 1-5.16-1.23 13.87 13.87 0 0 1-4-3.24 15.13 15.13 0 0 1-3.57-9.7zm67.84 13.91V.19h11.81a7.47 7.47 0 0 1 3.38.77 8.8 8.8 0 0 1 2.66 2 9.77 9.77 0 0 1 1.78 2.9 8.94 8.94 0 0 1 .64 3.27 9.32 9.32 0 0 1-1.44 5 7.5 7.5 0 0 1-1.67 1.88 7 7 0 0 1-2.18 1.18l6.43 10.46h-4.85l-6-9.57h-6.28v9.57zm4.28-13.4h7.49a3.41 3.41 0 0 0 1.68-.42 4 4 0 0 0 1.25-1.13 5.54 5.54 0 0 0 .84-1.64 6.06 6.06 0 0 0 .3-2 5.13 5.13 0 0 0-.36-2 5.67 5.67 0 0 0-.95-1.63 4.6 4.6 0 0 0-1.38-1.1A3.4 3.4 0 0 0 243.9 4h-7.25zM282 23.87v3.82h-18.61V.19h18.26V4h-14v7.84h12.11v3.6h-12.09v8.42zM14.44.2h-3.51L0 27.69h4.58l8.1-20.88 8.1 20.88h4.55zM209.61 0a13.66 13.66 0 0 0-7.67 2.36 14 14 0 0 0-5.09 6.28 14.16 14.16 0 0 0-.78 8.09 14 14 0 0 0 3.78 7.17 13.72 13.72 0 0 0 21.25-2.12 14.14 14.14 0 0 0-1.72-17.68 13.7 13.7 0 0 0-9.77-4.1zm0 24a9.82 9.82 0 0 1-5.49-1.69 9.92 9.92 0 0 1-3.64-4.5 10.11 10.11 0 0 1 2.14-10.93 9.92 9.92 0 0 1 5.07-2.74 9.79 9.79 0 0 1 5.71.57 9.89 9.89 0 0 1 4.44 3.7 10.09 10.09 0 0 1 .91 9.4 9.89 9.89 0 0 1-5.35 5.43 9.86 9.86 0 0 1-3.79.76z"></path>
</svg>