<svg xmlns="http://www.w3.org/2000/svg" viewBox="0 0 17.66 14.76">
  <defs>
    <style>
      .cls-1 {
        fill: #999;
      }
    </style>
  </defs>
  <title>Asset 1</title>
  <g id="Layer_2" data-name="Layer 2">
    <g id="Layer_2-2" data-name="Layer 2">
      <g>
        <path class="cls-1" d="M4.52,8.57a3.17,3.17,0,0,0-.7.08c-.6,0-1.38-.11-1.38-.93C2.48,6.1,4,3.29,6.69,1.39,7.27,1,7.42-.18,6.71,0S-.16,3.73,0,8.82c.11,3.27,1.65,4.75,2.74,5.4l.13.08.16.09a3.12,3.12,0,0,0,.42.19,2.9,2.9,0,0,0,.36.11h0a3.17,3.17,0,0,0,.7.08,3.1,3.1,0,1,0,0-6.19Z"/>
        <path class="cls-1" d="M14.52,8.57a3.17,3.17,0,0,0-.7.08c-.6,0-1.38-.11-1.38-.93,0-1.62,1.56-4.43,4.25-6.33.58-.41.73-1.57,0-1.36S9.84,3.73,10,8.82c.11,3.27,1.65,4.75,2.74,5.4l.13.08.16.09a3.12,3.12,0,0,0,.42.19,2.9,2.9,0,0,0,.36.11h0a3.17,3.17,0,0,0,.7.08,3.1,3.1,0,1,0,0-6.19Z"/>
      </g>
    </g>
  </g>
</svg>
