<?xml version="1.0" encoding="utf-8"?>
<svg enable-background="new 0 0 155 46" version="1.1" viewBox="0 0 155 46" xml:space="preserve" xmlns="http://www.w3.org/2000/svg" xmlns:xlink="http://www.w3.org/1999/xlink">
    <style type="text/css">
        .st0{fill:#FFFFFF;}
        .st1{fill:#99CCCC;}
    </style>

	<path class="st0" d="m65.6 17.6s1.5 1.4 3.2 1.4c0.7 0 1.4-0.3 1.4-1.1 0-1.6-6.1-1.6-6.1-5.7 0.1-2.5 2.2-4.2 4.9-4.2 2.9 0 4.4 1.5 4.4 1.5l-1.4 2.8s-1.4-1.2-3-1.2c-0.7 0-1.4 0.3-1.4 1.1 0 1.7 6.1 1.4 6.1 5.7 0 2.3-1.7 4.2-4.8 4.2-3.2 0-5-1.9-5-1.9l1.7-2.6z"/>
    <path class="st0" d="m78.3 8.3h5.6c2.6 0 4.4 1.9 4.4 4.7s-1.8 4.7-4.4 4.7h-2.3v4.2h-3.3v-13.6zm4.9 6.5c1.2 0 1.7-0.8 1.7-1.9s-0.6-1.8-1.7-1.8h-1.7v3.7h1.7z"/>
    <path class="st0" d="M92.7,8.3h8.5v2.8H96v2.5h4.1v2.8H96V19h5.5v2.8h-8.8V8.3z"/>
    <path class="st0" d="m112.4 8c3.4 0 5.1 1.9 5.1 1.9l-1.5 2.5s-1.5-1.4-3.4-1.4c-2.6 0-3.8 1.9-3.8 3.9s1.3 4.1 3.8 4.1c2.1 0 3.6-1.7 3.6-1.7l1.7 2.4s-1.9 2.3-5.5 2.3c-4.3 0-7.1-3-7.1-7 0-3.9 3.1-7 7.1-7z"/>
    <path class="st0" d="M122.3,8.3h3.3v13.6h-3.3V8.3z"/>
    <path class="st0" d="m138 19h-4.2l-0.8 2.8h-3.4l4.6-13.6h3.5l4.6 13.6h-3.4l-0.9-2.8zm-2.1-7.6s-0.3 1.5-0.6 2.3l-0.8 2.6h2.7l-0.8-2.6c-0.2-0.8-0.5-2.3-0.5-2.3z"/>
    <path class="st0" d="M146.1,8.3h3.3V19h5.5v2.8h-8.9V8.3z"/>
    <path class="st1" d="m64.5 26.8h4c2 0 3.5 1.4 3.5 3.5s-1.5 3.5-3.5 3.5h-2.5v4.1h-1.5v-11.1zm3.8 5.6c1.3 0 2.1-0.8 2.1-2.2 0-1.3-0.8-2.1-2.1-2.1h-2.3v4.3h2.3z"/>
    <path class="st1" d="m76 26.8h3.4c1.2 0 1.6 0.1 2.1 0.3 1.1 0.4 1.9 1.5 1.9 3 0 1.4-0.8 2.6-2 3 0 0 0.1 0.1 0.3 0.5l2.3 4.3h-1.8l-2.3-4.4h-2.4v4.4h-1.5v-11.1zm3.7 5.3c1.2 0 2-0.8 2-2 0-0.8-0.3-1.4-0.9-1.7-0.3-0.2-0.7-0.3-1.5-0.3h-1.8v4h2.2z"/>
    <path class="st1" d="m92.9 26.6c3.2 0 5.7 2.5 5.7 5.6 0 3.3-2.5 5.8-5.7 5.8s-5.7-2.5-5.7-5.8c0-3.1 2.5-5.6 5.7-5.6zm0 10c2.3 0 4.1-1.9 4.1-4.4 0-2.4-1.8-4.2-4.1-4.2s-4.1 1.8-4.1 4.2c0 2.5 1.8 4.4 4.1 4.4z"/>
    <path class="st1" d="m101.7 34.1h1.5v0.5c0 1.5 0.9 2 1.8 2s1.7-0.5 1.7-2v-6.5h-2.7v-1.3h4.3v7.9c0 2.4-1.7 3.4-3.3 3.4s-3.3-1-3.3-3.4v-0.6z"/>
    <path class="st1" d="m113.1 26.8h6.4v1.3h-4.9v3.5h4v1.3h-4v3.6h5.1v1.3h-6.7v-11z"/>
    <path class="st1" d="m128.8 26.6c2.7 0 4 1.5 4 1.5l-0.8 1.2s-1.3-1.2-3.2-1.2c-2.5 0-4.1 1.9-4.1 4.2 0 2.4 1.6 4.4 4.1 4.4 2.1 0 3.4-1.4 3.4-1.4l0.8 1.1s-1.5 1.8-4.3 1.8c-3.3 0-5.7-2.5-5.7-5.8 0.2-3.4 2.6-5.8 5.8-5.8z"/>
    <path class="st1" d="m139.6 28.1h-3.8v-1.3h9.1v1.3h-3.8v9.7h-1.5v-9.7z"/>
    <path class="st1" d="m148.5 35.4s1.2 1.2 2.8 1.2c1 0 1.9-0.6 1.9-1.6 0-2.4-5.4-1.9-5.4-5.3 0-1.7 1.5-3.1 3.6-3.1s3.1 1.1 3.1 1.1l-0.7 1.3s-1-1-2.4-1c-1.2 0-2 0.7-2 1.6 0 2.3 5.4 1.7 5.4 5.3 0 1.7-1.3 3.1-3.5 3.1-2.3 0-3.7-1.5-3.7-1.5l0.9-1.1z"/>
    <path class="st1" d="m55 17.7h-3.2c-0.4-1.6-1-3-1.8-4.4l2.3-2.3c0.5-0.5 0.5-1.2 0-1.7l-5.4-5.3c-0.5-0.5-1.2-0.5-1.7 0l-2.3 2.3c-1.4-0.8-2.8-1.4-4.4-1.8v-3.3c0-0.7-0.5-1.2-1.2-1.2h-7.6c-0.7 0-1.2 0.5-1.2 1.2v3.2h-0.1c-0.1 0-0.2 0-0.2 0.1-0.1 0-0.2 0-0.2 0.1-0.2 0.1-0.3 0.1-0.5 0.2h-0.1c-0.3 0.1-0.4 0.1-0.6 0.2h-0.1c-0.2 0.1-0.3 0.1-0.5 0.2-0.7 0.3-1.4 0.6-2.1 1l-2.3-2.2c-0.5-0.5-1.2-0.5-1.7 0l-5.3 5.3c-0.1 0.1-0.2 0.2-0.2 0.4h18.7 0.2c7.2 0 13 5.8 13 13s-5.8 13-13 13h-0.5-18.5c0.1 0.1 0.1 0.3 0.2 0.4l5.3 5.3c0.5 0.5 1.2 0.5 1.7 0l2.3-2.3c0.7 0.4 1.4 0.7 2.1 1 0.2 0.1 0.3 0.1 0.5 0.2h0.1c0.1 0.1 0.3 0.1 0.4 0.2h0.1c0.2 0.1 0.3 0.1 0.5 0.2 0.1 0 0.2 0 0.2 0.1 0.1 0 0.2 0 0.2 0.1h0.1v3.2c0 0.7 0.5 1.2 1.2 1.2h7.6c0.7 0 1.2-0.5 1.2-1.2v-3.1c1.6-0.4 3-1 4.4-1.8l2.3 2.3c0.5 0.5 1.2 0.5 1.7 0l5.3-5.3c0.5-0.5 0.5-1.2 0-1.7l-2.3-2.3c0.8-1.4 1.4-2.8 1.8-4.4h3.6c0.7 0 1.2-0.5 1.2-1.2v-7.6c0-0.7-0.6-1.3-1.2-1.3z"/>
    <path class="st1" d="m15.9 33.3h10c-1-0.7-1.8-1.5-2.6-2.5-1.7-2.2-2.8-5-2.8-8s1-5.8 2.8-8c0.7-0.9 1.6-1.8 2.6-2.5h-14.7c-0.4-0.6-1.1-0.9-1.8-0.9-1.2 0-2.2 1-2.2 2.2s1 2.2 2.2 2.2c0.7 0 1.4-0.4 1.8-0.9h5.2c-0.5 1-0.8 2-1.1 3h0.9c0.4-0.6 1.1-0.9 1.8-0.9 1.2 0 2.2 1 2.2 2.2s-1 2.2-2.2 2.2c-0.7 0-1.4-0.4-1.8-0.9h-12.2c-0.1-0.2-0.3-0.4-0.5-0.5-0.4-0.3-0.8-0.4-1.3-0.4-1.2 0-2.2 1-2.2 2.2s1 2.2 2.2 2.2c0.7 0 1.4-0.4 1.8-0.9h11.7c0.4-0.6 1.1-0.9 1.8-0.9h0.4c1 0.2 1.8 1.1 1.8 2.2 0 0.8-0.5 1.6-1.2 1.9-0.3 0.2-0.7 0.3-1 0.3-0.7 0-1.4-0.4-1.8-0.9h-5.5c-0.4-0.6-1.1-0.9-1.8-0.9-1.2 0-2.2 1-2.2 2.2s1 2.2 2.2 2.2c0.7 0 1.4-0.4 1.8-0.9h5c0.3 1.1 0.7 2.1 1.1 3h-1.7c-0.4-0.6-1.1-0.9-1.8-0.9-1.2 0-2.2 1-2.2 2.2 0 0.5 0.1 0.9 0.4 1.2 0.4 0.6 1.1 0.9 1.8 0.9s1.4-0.4 1.8-0.9h1.3zm-6.6-18.8c-0.6 0-1.1-0.5-1.1-1.1s0.5-1.1 1.1-1.1 1.1 0.5 1.1 1.1-0.5 1.1-1.1 1.1zm-7.1 8c-0.6 0-1.1-0.5-1.1-1.1s0.5-1.1 1.1-1.1 1.1 0.5 1.1 1.1c0 0.7-0.5 1.1-1.1 1.1zm6.3 5c-0.6 0-1.1-0.5-1.1-1.1s0.5-1.1 1.1-1.1 1.1 0.5 1.1 1.1-0.4 1.1-1.1 1.1zm4.3 5.6c-0.6 0-1.1-0.5-1.1-1.1s0.5-1.1 1.1-1.1 1.1 0.5 1.1 1.1-0.5 1.1-1.1 1.1z"/>
    <circle class="st1" cx="17.9" cy="18.9" r="1.1"/>
    <circle class="st1" cx="17.6" cy="23.9" r="1.1"/>
    <path class="st0" d="m27.5 19.8c0-0.6 0.1-1.2 0.3-1.7s0.6-1 1-1.4 0.9-0.7 1.4-1c0.5-0.2 1.1-0.3 1.7-0.3h6.8v3h-6.8c-0.2 0-0.4 0-0.6 0.1s-0.3 0.2-0.5 0.3c-0.1 0.1-0.2 0.3-0.3 0.5s-0.1 0.4-0.1 0.6 0 0.4 0.1 0.6 0.2 0.3 0.3 0.5c0.1 0.1 0.3 0.2 0.5 0.3s0.4 0.1 0.6 0.1h3c0.6 0 1.2 0.1 1.7 0.3s1 0.5 1.4 0.9 0.7 0.9 0.9 1.4 0.3 1.1 0.3 1.7-0.1 1.2-0.3 1.7-0.5 1-0.9 1.4-0.9 0.7-1.4 1c-0.5 0.2-1.1 0.3-1.7 0.3h-6.6v-3h6.6c0.2 0 0.4 0 0.6-0.1s0.3-0.2 0.5-0.3c0.1-0.1 0.2-0.3 0.3-0.5s0.1-0.4 0.1-0.6 0-0.4-0.1-0.6-0.2-0.3-0.3-0.5c-0.1-0.1-0.3-0.2-0.5-0.3s-0.4-0.1-0.6-0.1h-3c-0.6 0-1.2-0.1-1.7-0.3s-1-0.6-1.4-1-0.7-0.9-1-1.4c-0.2-0.5-0.3-1-0.3-1.6z"/>

</svg>