G04 #@! TF.GenerationSoftware,KiCad,Pcbnew,8.0.0*
G04 #@! TF.CreationDate,2024-03-25T07:30:18-04:00*
G04 #@! TF.ProjectId,_Sub_HW_Qcopter,5f537562-5f48-4575-9f51-636f70746572,rev?*
G04 #@! TF.SameCoordinates,PX9157080PYf23bb80*
G04 #@! TF.FileFunction,Legend,Top*
G04 #@! TF.FilePolarity,Positive*
%FSLAX46Y46*%
G04 Gerber Fmt 4.6, Leading zero omitted, Abs format (unit mm)*
G04 Created by KiCad (PCBNEW 8.0.0) date 2024-03-25 07:30:18*
%MOMM*%
%LPD*%
G01*
G04 APERTURE LIST*
G04 Aperture macros list*
%AMRoundRect*
0 Rectangle with rounded corners*
0 $1 Rounding radius*
0 $2 $3 $4 $5 $6 $7 $8 $9 X,Y pos of 4 corners*
0 Add a 4 corners polygon primitive as box body*
4,1,4,$2,$3,$4,$5,$6,$7,$8,$9,$2,$3,0*
0 Add four circle primitives for the rounded corners*
1,1,$1+$1,$2,$3*
1,1,$1+$1,$4,$5*
1,1,$1+$1,$6,$7*
1,1,$1+$1,$8,$9*
0 Add four rect primitives between the rounded corners*
20,1,$1+$1,$2,$3,$4,$5,0*
20,1,$1+$1,$4,$5,$6,$7,0*
20,1,$1+$1,$6,$7,$8,$9,0*
20,1,$1+$1,$8,$9,$2,$3,0*%
%AMFreePoly0*
4,1,6,1.000000,0.000000,0.500000,-0.750000,-0.500000,-0.750000,-0.500000,0.750000,0.500000,0.750000,1.000000,0.000000,1.000000,0.000000,$1*%
%AMFreePoly1*
4,1,6,0.500000,-0.750000,-0.650000,-0.750000,-0.150000,0.000000,-0.650000,0.750000,0.500000,0.750000,0.500000,-0.750000,0.500000,-0.750000,$1*%
G04 Aperture macros list end*
%ADD10C,0.095250*%
%ADD11C,0.100000*%
%ADD12C,0.127000*%
%ADD13C,0.120000*%
%ADD14C,0.200000*%
%ADD15C,0.000000*%
%ADD16C,0.010000*%
%ADD17RoundRect,0.225000X-0.225000X-0.250000X0.225000X-0.250000X0.225000X0.250000X-0.225000X0.250000X0*%
%ADD18RoundRect,0.200000X-0.200000X-0.275000X0.200000X-0.275000X0.200000X0.275000X-0.200000X0.275000X0*%
%ADD19RoundRect,0.200000X-0.275000X0.200000X-0.275000X-0.200000X0.275000X-0.200000X0.275000X0.200000X0*%
%ADD20RoundRect,0.225000X0.225000X0.250000X-0.225000X0.250000X-0.225000X-0.250000X0.225000X-0.250000X0*%
%ADD21RoundRect,0.100000X0.225000X0.100000X-0.225000X0.100000X-0.225000X-0.100000X0.225000X-0.100000X0*%
%ADD22RoundRect,0.147500X0.147500X0.172500X-0.147500X0.172500X-0.147500X-0.172500X0.147500X-0.172500X0*%
%ADD23RoundRect,0.150000X-0.512500X-0.150000X0.512500X-0.150000X0.512500X0.150000X-0.512500X0.150000X0*%
%ADD24RoundRect,0.200000X0.275000X-0.200000X0.275000X0.200000X-0.275000X0.200000X-0.275000X-0.200000X0*%
%ADD25RoundRect,0.225000X0.250000X-0.225000X0.250000X0.225000X-0.250000X0.225000X-0.250000X-0.225000X0*%
%ADD26RoundRect,0.250000X1.000000X0.650000X-1.000000X0.650000X-1.000000X-0.650000X1.000000X-0.650000X0*%
%ADD27RoundRect,0.147500X0.172500X-0.147500X0.172500X0.147500X-0.172500X0.147500X-0.172500X-0.147500X0*%
%ADD28RoundRect,0.218750X-0.218750X-0.256250X0.218750X-0.256250X0.218750X0.256250X-0.218750X0.256250X0*%
%ADD29R,1.000000X1.000000*%
%ADD30O,1.000000X1.000000*%
%ADD31C,3.600000*%
%ADD32C,5.600000*%
%ADD33RoundRect,0.102000X0.400000X-0.200000X0.400000X0.200000X-0.400000X0.200000X-0.400000X-0.200000X0*%
%ADD34RoundRect,0.100000X-0.100000X0.225000X-0.100000X-0.225000X0.100000X-0.225000X0.100000X0.225000X0*%
%ADD35C,1.000000*%
%ADD36RoundRect,0.218750X-0.256250X0.218750X-0.256250X-0.218750X0.256250X-0.218750X0.256250X0.218750X0*%
%ADD37RoundRect,0.140000X0.140000X0.170000X-0.140000X0.170000X-0.140000X-0.170000X0.140000X-0.170000X0*%
%ADD38RoundRect,0.075000X0.725000X0.075000X-0.725000X0.075000X-0.725000X-0.075000X0.725000X-0.075000X0*%
%ADD39RoundRect,0.075000X0.075000X0.725000X-0.075000X0.725000X-0.075000X-0.725000X0.075000X-0.725000X0*%
%ADD40RoundRect,0.100000X0.100000X-0.225000X0.100000X0.225000X-0.100000X0.225000X-0.100000X-0.225000X0*%
%ADD41RoundRect,0.140000X-0.170000X0.140000X-0.170000X-0.140000X0.170000X-0.140000X0.170000X0.140000X0*%
%ADD42RoundRect,0.200000X0.200000X0.275000X-0.200000X0.275000X-0.200000X-0.275000X0.200000X-0.275000X0*%
%ADD43RoundRect,0.062500X-0.062500X0.187500X-0.062500X-0.187500X0.062500X-0.187500X0.062500X0.187500X0*%
%ADD44R,1.600000X0.900000*%
%ADD45RoundRect,0.225000X-0.250000X0.225000X-0.250000X-0.225000X0.250000X-0.225000X0.250000X0.225000X0*%
%ADD46R,0.800000X0.900000*%
%ADD47RoundRect,0.218750X0.256250X-0.218750X0.256250X0.218750X-0.256250X0.218750X-0.256250X-0.218750X0*%
%ADD48RoundRect,0.140000X0.170000X-0.140000X0.170000X0.140000X-0.170000X0.140000X-0.170000X-0.140000X0*%
%ADD49RoundRect,0.150000X-0.150000X0.512500X-0.150000X-0.512500X0.150000X-0.512500X0.150000X0.512500X0*%
%ADD50FreePoly0,270.000000*%
%ADD51FreePoly1,270.000000*%
%ADD52RoundRect,0.250000X0.262500X0.450000X-0.262500X0.450000X-0.262500X-0.450000X0.262500X-0.450000X0*%
%ADD53RoundRect,0.062500X0.325000X0.062500X-0.325000X0.062500X-0.325000X-0.062500X0.325000X-0.062500X0*%
%ADD54RoundRect,0.062500X0.062500X0.325000X-0.062500X0.325000X-0.062500X-0.325000X0.062500X-0.325000X0*%
%ADD55R,1.750000X1.750000*%
%ADD56RoundRect,0.150000X-0.650000X-0.150000X0.650000X-0.150000X0.650000X0.150000X-0.650000X0.150000X0*%
%ADD57RoundRect,0.062500X0.062500X-0.187500X0.062500X0.187500X-0.062500X0.187500X-0.062500X-0.187500X0*%
%ADD58RoundRect,0.100000X-0.225000X-0.100000X0.225000X-0.100000X0.225000X0.100000X-0.225000X0.100000X0*%
%ADD59RoundRect,0.218750X0.381250X-0.218750X0.381250X0.218750X-0.381250X0.218750X-0.381250X-0.218750X0*%
%ADD60RoundRect,0.147500X-0.172500X0.147500X-0.172500X-0.147500X0.172500X-0.147500X0.172500X0.147500X0*%
%ADD61RoundRect,0.218750X0.218750X0.256250X-0.218750X0.256250X-0.218750X-0.256250X0.218750X-0.256250X0*%
%ADD62RoundRect,0.150000X0.512500X0.150000X-0.512500X0.150000X-0.512500X-0.150000X0.512500X-0.150000X0*%
%ADD63FreePoly0,0.000000*%
%ADD64FreePoly1,0.000000*%
%ADD65RoundRect,0.062500X0.187500X0.062500X-0.187500X0.062500X-0.187500X-0.062500X0.187500X-0.062500X0*%
%ADD66R,0.900000X1.600000*%
%ADD67RoundRect,0.243750X-0.456250X0.243750X-0.456250X-0.243750X0.456250X-0.243750X0.456250X0.243750X0*%
%ADD68FreePoly0,90.000000*%
%ADD69FreePoly1,90.000000*%
%ADD70RoundRect,0.225000X-0.225000X-0.475000X0.225000X-0.475000X0.225000X0.475000X-0.225000X0.475000X0*%
%ADD71O,0.900000X1.400000*%
%ADD72RoundRect,0.225000X0.225000X0.475000X-0.225000X0.475000X-0.225000X-0.475000X0.225000X-0.475000X0*%
%ADD73RoundRect,0.225000X0.475000X-0.225000X0.475000X0.225000X-0.475000X0.225000X-0.475000X-0.225000X0*%
%ADD74O,1.400000X0.900000*%
%ADD75O,1.550000X0.890000*%
%ADD76O,0.950000X1.250000*%
%ADD77R,1.700000X1.700000*%
%ADD78O,1.700000X1.700000*%
G04 APERTURE END LIST*
D10*
X45811692Y36516123D02*
X45684692Y36758028D01*
X45593978Y36516123D02*
X45593978Y37024123D01*
X45593978Y37024123D02*
X45739121Y37024123D01*
X45739121Y37024123D02*
X45775406Y36999933D01*
X45775406Y36999933D02*
X45793549Y36975742D01*
X45793549Y36975742D02*
X45811692Y36927361D01*
X45811692Y36927361D02*
X45811692Y36854790D01*
X45811692Y36854790D02*
X45793549Y36806409D01*
X45793549Y36806409D02*
X45775406Y36782218D01*
X45775406Y36782218D02*
X45739121Y36758028D01*
X45739121Y36758028D02*
X45593978Y36758028D01*
X45938692Y37024123D02*
X46192692Y36516123D01*
X46192692Y37024123D02*
X45938692Y36516123D01*
X46337835Y36516123D02*
X46337835Y37024123D01*
X46337835Y37024123D02*
X46428549Y37024123D01*
X46428549Y37024123D02*
X46482978Y36999933D01*
X46482978Y36999933D02*
X46519263Y36951552D01*
X46519263Y36951552D02*
X46537406Y36903171D01*
X46537406Y36903171D02*
X46555549Y36806409D01*
X46555549Y36806409D02*
X46555549Y36733837D01*
X46555549Y36733837D02*
X46537406Y36637075D01*
X46537406Y36637075D02*
X46519263Y36588694D01*
X46519263Y36588694D02*
X46482978Y36540313D01*
X46482978Y36540313D02*
X46428549Y36516123D01*
X46428549Y36516123D02*
X46337835Y36516123D01*
X46954692Y37024123D02*
X47172407Y37024123D01*
X47063549Y36516123D02*
X47063549Y37024123D01*
X47263121Y37024123D02*
X47517121Y36516123D01*
X47517121Y37024123D02*
X47263121Y36516123D01*
X47662264Y36516123D02*
X47662264Y37024123D01*
X47662264Y37024123D02*
X47752978Y37024123D01*
X47752978Y37024123D02*
X47807407Y36999933D01*
X47807407Y36999933D02*
X47843692Y36951552D01*
X47843692Y36951552D02*
X47861835Y36903171D01*
X47861835Y36903171D02*
X47879978Y36806409D01*
X47879978Y36806409D02*
X47879978Y36733837D01*
X47879978Y36733837D02*
X47861835Y36637075D01*
X47861835Y36637075D02*
X47843692Y36588694D01*
X47843692Y36588694D02*
X47807407Y36540313D01*
X47807407Y36540313D02*
X47752978Y36516123D01*
X47752978Y36516123D02*
X47662264Y36516123D01*
X48533121Y36999933D02*
X48496836Y37024123D01*
X48496836Y37024123D02*
X48442407Y37024123D01*
X48442407Y37024123D02*
X48387978Y36999933D01*
X48387978Y36999933D02*
X48351693Y36951552D01*
X48351693Y36951552D02*
X48333550Y36903171D01*
X48333550Y36903171D02*
X48315407Y36806409D01*
X48315407Y36806409D02*
X48315407Y36733837D01*
X48315407Y36733837D02*
X48333550Y36637075D01*
X48333550Y36637075D02*
X48351693Y36588694D01*
X48351693Y36588694D02*
X48387978Y36540313D01*
X48387978Y36540313D02*
X48442407Y36516123D01*
X48442407Y36516123D02*
X48478693Y36516123D01*
X48478693Y36516123D02*
X48533121Y36540313D01*
X48533121Y36540313D02*
X48551264Y36564504D01*
X48551264Y36564504D02*
X48551264Y36733837D01*
X48551264Y36733837D02*
X48478693Y36733837D01*
X48714550Y36516123D02*
X48714550Y37024123D01*
X48714550Y37024123D02*
X48932264Y36516123D01*
X48932264Y36516123D02*
X48932264Y37024123D01*
X49113693Y36516123D02*
X49113693Y37024123D01*
X49113693Y37024123D02*
X49204407Y37024123D01*
X49204407Y37024123D02*
X49258836Y36999933D01*
X49258836Y36999933D02*
X49295121Y36951552D01*
X49295121Y36951552D02*
X49313264Y36903171D01*
X49313264Y36903171D02*
X49331407Y36806409D01*
X49331407Y36806409D02*
X49331407Y36733837D01*
X49331407Y36733837D02*
X49313264Y36637075D01*
X49313264Y36637075D02*
X49295121Y36588694D01*
X49295121Y36588694D02*
X49258836Y36540313D01*
X49258836Y36540313D02*
X49204407Y36516123D01*
X49204407Y36516123D02*
X49113693Y36516123D01*
X44694092Y41037323D02*
X44567092Y41279228D01*
X44476378Y41037323D02*
X44476378Y41545323D01*
X44476378Y41545323D02*
X44621521Y41545323D01*
X44621521Y41545323D02*
X44657806Y41521133D01*
X44657806Y41521133D02*
X44675949Y41496942D01*
X44675949Y41496942D02*
X44694092Y41448561D01*
X44694092Y41448561D02*
X44694092Y41375990D01*
X44694092Y41375990D02*
X44675949Y41327609D01*
X44675949Y41327609D02*
X44657806Y41303418D01*
X44657806Y41303418D02*
X44621521Y41279228D01*
X44621521Y41279228D02*
X44476378Y41279228D01*
X44839235Y41061513D02*
X44893664Y41037323D01*
X44893664Y41037323D02*
X44984378Y41037323D01*
X44984378Y41037323D02*
X45020664Y41061513D01*
X45020664Y41061513D02*
X45038806Y41085704D01*
X45038806Y41085704D02*
X45056949Y41134085D01*
X45056949Y41134085D02*
X45056949Y41182466D01*
X45056949Y41182466D02*
X45038806Y41230847D01*
X45038806Y41230847D02*
X45020664Y41255037D01*
X45020664Y41255037D02*
X44984378Y41279228D01*
X44984378Y41279228D02*
X44911806Y41303418D01*
X44911806Y41303418D02*
X44875521Y41327609D01*
X44875521Y41327609D02*
X44857378Y41351799D01*
X44857378Y41351799D02*
X44839235Y41400180D01*
X44839235Y41400180D02*
X44839235Y41448561D01*
X44839235Y41448561D02*
X44857378Y41496942D01*
X44857378Y41496942D02*
X44875521Y41521133D01*
X44875521Y41521133D02*
X44911806Y41545323D01*
X44911806Y41545323D02*
X45002521Y41545323D01*
X45002521Y41545323D02*
X45056949Y41521133D01*
X45165806Y41545323D02*
X45383521Y41545323D01*
X45274663Y41037323D02*
X45274663Y41545323D01*
X45800807Y41037323D02*
X45800807Y41545323D01*
X45800807Y41545323D02*
X45891521Y41545323D01*
X45891521Y41545323D02*
X45945950Y41521133D01*
X45945950Y41521133D02*
X45982235Y41472752D01*
X45982235Y41472752D02*
X46000378Y41424371D01*
X46000378Y41424371D02*
X46018521Y41327609D01*
X46018521Y41327609D02*
X46018521Y41255037D01*
X46018521Y41255037D02*
X46000378Y41158275D01*
X46000378Y41158275D02*
X45982235Y41109894D01*
X45982235Y41109894D02*
X45945950Y41061513D01*
X45945950Y41061513D02*
X45891521Y41037323D01*
X45891521Y41037323D02*
X45800807Y41037323D01*
X46181807Y41037323D02*
X46181807Y41545323D01*
X46435807Y41545323D02*
X46508379Y41545323D01*
X46508379Y41545323D02*
X46544664Y41521133D01*
X46544664Y41521133D02*
X46580950Y41472752D01*
X46580950Y41472752D02*
X46599093Y41375990D01*
X46599093Y41375990D02*
X46599093Y41206656D01*
X46599093Y41206656D02*
X46580950Y41109894D01*
X46580950Y41109894D02*
X46544664Y41061513D01*
X46544664Y41061513D02*
X46508379Y41037323D01*
X46508379Y41037323D02*
X46435807Y41037323D01*
X46435807Y41037323D02*
X46399522Y41061513D01*
X46399522Y41061513D02*
X46363236Y41109894D01*
X46363236Y41109894D02*
X46345093Y41206656D01*
X46345093Y41206656D02*
X46345093Y41375990D01*
X46345093Y41375990D02*
X46363236Y41472752D01*
X46363236Y41472752D02*
X46399522Y41521133D01*
X46399522Y41521133D02*
X46435807Y41545323D01*
X47270379Y41085704D02*
X47252236Y41061513D01*
X47252236Y41061513D02*
X47197808Y41037323D01*
X47197808Y41037323D02*
X47161522Y41037323D01*
X47161522Y41037323D02*
X47107093Y41061513D01*
X47107093Y41061513D02*
X47070808Y41109894D01*
X47070808Y41109894D02*
X47052665Y41158275D01*
X47052665Y41158275D02*
X47034522Y41255037D01*
X47034522Y41255037D02*
X47034522Y41327609D01*
X47034522Y41327609D02*
X47052665Y41424371D01*
X47052665Y41424371D02*
X47070808Y41472752D01*
X47070808Y41472752D02*
X47107093Y41521133D01*
X47107093Y41521133D02*
X47161522Y41545323D01*
X47161522Y41545323D02*
X47197808Y41545323D01*
X47197808Y41545323D02*
X47252236Y41521133D01*
X47252236Y41521133D02*
X47270379Y41496942D01*
X47615093Y41037323D02*
X47433665Y41037323D01*
X47433665Y41037323D02*
X47433665Y41545323D01*
X47742094Y41037323D02*
X47742094Y41545323D01*
X47959808Y41037323D02*
X47796522Y41327609D01*
X47959808Y41545323D02*
X47742094Y41255037D01*
X48612951Y41521133D02*
X48576666Y41545323D01*
X48576666Y41545323D02*
X48522237Y41545323D01*
X48522237Y41545323D02*
X48467808Y41521133D01*
X48467808Y41521133D02*
X48431523Y41472752D01*
X48431523Y41472752D02*
X48413380Y41424371D01*
X48413380Y41424371D02*
X48395237Y41327609D01*
X48395237Y41327609D02*
X48395237Y41255037D01*
X48395237Y41255037D02*
X48413380Y41158275D01*
X48413380Y41158275D02*
X48431523Y41109894D01*
X48431523Y41109894D02*
X48467808Y41061513D01*
X48467808Y41061513D02*
X48522237Y41037323D01*
X48522237Y41037323D02*
X48558523Y41037323D01*
X48558523Y41037323D02*
X48612951Y41061513D01*
X48612951Y41061513D02*
X48631094Y41085704D01*
X48631094Y41085704D02*
X48631094Y41255037D01*
X48631094Y41255037D02*
X48558523Y41255037D01*
X48794380Y41037323D02*
X48794380Y41545323D01*
X48794380Y41545323D02*
X49012094Y41037323D01*
X49012094Y41037323D02*
X49012094Y41545323D01*
X49193523Y41037323D02*
X49193523Y41545323D01*
X49193523Y41545323D02*
X49284237Y41545323D01*
X49284237Y41545323D02*
X49338666Y41521133D01*
X49338666Y41521133D02*
X49374951Y41472752D01*
X49374951Y41472752D02*
X49393094Y41424371D01*
X49393094Y41424371D02*
X49411237Y41327609D01*
X49411237Y41327609D02*
X49411237Y41255037D01*
X49411237Y41255037D02*
X49393094Y41158275D01*
X49393094Y41158275D02*
X49374951Y41109894D01*
X49374951Y41109894D02*
X49338666Y41061513D01*
X49338666Y41061513D02*
X49284237Y41037323D01*
X49284237Y41037323D02*
X49193523Y41037323D01*
D11*
X6861145Y45789418D02*
X6099145Y45789418D01*
X6099145Y45789418D02*
X6643431Y46043418D01*
X6643431Y46043418D02*
X6099145Y46297418D01*
X6099145Y46297418D02*
X6861145Y46297418D01*
X6099145Y46587704D02*
X6099145Y47059418D01*
X6099145Y47059418D02*
X6389431Y46805418D01*
X6389431Y46805418D02*
X6389431Y46914275D01*
X6389431Y46914275D02*
X6425717Y46986846D01*
X6425717Y46986846D02*
X6462002Y47023132D01*
X6462002Y47023132D02*
X6534574Y47059418D01*
X6534574Y47059418D02*
X6716002Y47059418D01*
X6716002Y47059418D02*
X6788574Y47023132D01*
X6788574Y47023132D02*
X6824860Y46986846D01*
X6824860Y46986846D02*
X6861145Y46914275D01*
X6861145Y46914275D02*
X6861145Y46696561D01*
X6861145Y46696561D02*
X6824860Y46623989D01*
X6824860Y46623989D02*
X6788574Y46587704D01*
X6861145Y47313418D02*
X6353145Y47712560D01*
X6353145Y47313418D02*
X6861145Y47712560D01*
X6353145Y48329417D02*
X6861145Y48329417D01*
X6062860Y48147989D02*
X6607145Y47966560D01*
X6607145Y47966560D02*
X6607145Y48438275D01*
D12*
X46667226Y6768591D02*
X46425321Y6599257D01*
X46667226Y6478305D02*
X46159226Y6478305D01*
X46159226Y6478305D02*
X46159226Y6671829D01*
X46159226Y6671829D02*
X46183416Y6720210D01*
X46183416Y6720210D02*
X46207607Y6744400D01*
X46207607Y6744400D02*
X46255988Y6768591D01*
X46255988Y6768591D02*
X46328559Y6768591D01*
X46328559Y6768591D02*
X46376940Y6744400D01*
X46376940Y6744400D02*
X46401131Y6720210D01*
X46401131Y6720210D02*
X46425321Y6671829D01*
X46425321Y6671829D02*
X46425321Y6478305D01*
X46159226Y6937924D02*
X46667226Y7276591D01*
X46159226Y7276591D02*
X46667226Y6937924D01*
X46159226Y7878933D02*
X46159226Y8169219D01*
X46667226Y8024076D02*
X46159226Y8024076D01*
X46159226Y8290172D02*
X46667226Y8628839D01*
X46159226Y8628839D02*
X46667226Y8290172D01*
X644144Y35915506D02*
X607858Y35806648D01*
X607858Y35806648D02*
X607858Y35625220D01*
X607858Y35625220D02*
X644144Y35552648D01*
X644144Y35552648D02*
X680429Y35516363D01*
X680429Y35516363D02*
X753001Y35480077D01*
X753001Y35480077D02*
X825572Y35480077D01*
X825572Y35480077D02*
X898144Y35516363D01*
X898144Y35516363D02*
X934429Y35552648D01*
X934429Y35552648D02*
X970715Y35625220D01*
X970715Y35625220D02*
X1007001Y35770363D01*
X1007001Y35770363D02*
X1043286Y35842934D01*
X1043286Y35842934D02*
X1079572Y35879220D01*
X1079572Y35879220D02*
X1152144Y35915506D01*
X1152144Y35915506D02*
X1224715Y35915506D01*
X1224715Y35915506D02*
X1297286Y35879220D01*
X1297286Y35879220D02*
X1333572Y35842934D01*
X1333572Y35842934D02*
X1369858Y35770363D01*
X1369858Y35770363D02*
X1369858Y35588934D01*
X1369858Y35588934D02*
X1333572Y35480077D01*
X1369858Y35226077D02*
X607858Y35044649D01*
X607858Y35044649D02*
X1152144Y34899506D01*
X1152144Y34899506D02*
X607858Y34754363D01*
X607858Y34754363D02*
X1369858Y34572934D01*
X40931000Y31790010D02*
X40507667Y31536010D01*
X40931000Y31354581D02*
X40042000Y31354581D01*
X40042000Y31354581D02*
X40042000Y31644867D01*
X40042000Y31644867D02*
X40084333Y31717438D01*
X40084333Y31717438D02*
X40126667Y31753724D01*
X40126667Y31753724D02*
X40211333Y31790010D01*
X40211333Y31790010D02*
X40338333Y31790010D01*
X40338333Y31790010D02*
X40423000Y31753724D01*
X40423000Y31753724D02*
X40465333Y31717438D01*
X40465333Y31717438D02*
X40507667Y31644867D01*
X40507667Y31644867D02*
X40507667Y31354581D01*
X41015667Y31935152D02*
X41015667Y32515724D01*
X40931000Y32697152D02*
X40042000Y32697152D01*
X40931000Y33060009D02*
X40042000Y33060009D01*
X40042000Y33060009D02*
X40931000Y33495438D01*
X40931000Y33495438D02*
X40042000Y33495438D01*
X40931000Y33858295D02*
X40042000Y33858295D01*
X40042000Y33858295D02*
X40042000Y34039724D01*
X40042000Y34039724D02*
X40084333Y34148581D01*
X40084333Y34148581D02*
X40169000Y34221152D01*
X40169000Y34221152D02*
X40253667Y34257438D01*
X40253667Y34257438D02*
X40423000Y34293724D01*
X40423000Y34293724D02*
X40550000Y34293724D01*
X40550000Y34293724D02*
X40719333Y34257438D01*
X40719333Y34257438D02*
X40804000Y34221152D01*
X40804000Y34221152D02*
X40888667Y34148581D01*
X40888667Y34148581D02*
X40931000Y34039724D01*
X40931000Y34039724D02*
X40931000Y33858295D01*
X40846333Y35055724D02*
X40888667Y35019438D01*
X40888667Y35019438D02*
X40931000Y34910581D01*
X40931000Y34910581D02*
X40931000Y34838009D01*
X40931000Y34838009D02*
X40888667Y34729152D01*
X40888667Y34729152D02*
X40804000Y34656581D01*
X40804000Y34656581D02*
X40719333Y34620295D01*
X40719333Y34620295D02*
X40550000Y34584009D01*
X40550000Y34584009D02*
X40423000Y34584009D01*
X40423000Y34584009D02*
X40253667Y34620295D01*
X40253667Y34620295D02*
X40169000Y34656581D01*
X40169000Y34656581D02*
X40084333Y34729152D01*
X40084333Y34729152D02*
X40042000Y34838009D01*
X40042000Y34838009D02*
X40042000Y34910581D01*
X40042000Y34910581D02*
X40084333Y35019438D01*
X40084333Y35019438D02*
X40126667Y35055724D01*
X12855533Y12837981D02*
X12855533Y12583981D01*
X13321200Y12583981D02*
X12432200Y12583981D01*
X12432200Y12583981D02*
X12432200Y12946838D01*
X13405867Y13055695D02*
X13405867Y13636267D01*
X13321200Y13817695D02*
X12432200Y13817695D01*
X13321200Y14180552D02*
X12432200Y14180552D01*
X12432200Y14180552D02*
X13321200Y14615981D01*
X13321200Y14615981D02*
X12432200Y14615981D01*
X13321200Y14978838D02*
X12432200Y14978838D01*
X12432200Y14978838D02*
X12432200Y15160267D01*
X12432200Y15160267D02*
X12474533Y15269124D01*
X12474533Y15269124D02*
X12559200Y15341695D01*
X12559200Y15341695D02*
X12643867Y15377981D01*
X12643867Y15377981D02*
X12813200Y15414267D01*
X12813200Y15414267D02*
X12940200Y15414267D01*
X12940200Y15414267D02*
X13109533Y15377981D01*
X13109533Y15377981D02*
X13194200Y15341695D01*
X13194200Y15341695D02*
X13278867Y15269124D01*
X13278867Y15269124D02*
X13321200Y15160267D01*
X13321200Y15160267D02*
X13321200Y14978838D01*
X13236533Y16176267D02*
X13278867Y16139981D01*
X13278867Y16139981D02*
X13321200Y16031124D01*
X13321200Y16031124D02*
X13321200Y15958552D01*
X13321200Y15958552D02*
X13278867Y15849695D01*
X13278867Y15849695D02*
X13194200Y15777124D01*
X13194200Y15777124D02*
X13109533Y15740838D01*
X13109533Y15740838D02*
X12940200Y15704552D01*
X12940200Y15704552D02*
X12813200Y15704552D01*
X12813200Y15704552D02*
X12643867Y15740838D01*
X12643867Y15740838D02*
X12559200Y15777124D01*
X12559200Y15777124D02*
X12474533Y15849695D01*
X12474533Y15849695D02*
X12432200Y15958552D01*
X12432200Y15958552D02*
X12432200Y16031124D01*
X12432200Y16031124D02*
X12474533Y16139981D01*
X12474533Y16139981D02*
X12516867Y16176267D01*
X30237600Y765724D02*
X30237600Y1080200D01*
X30237600Y1080200D02*
X30576267Y910867D01*
X30576267Y910867D02*
X30576267Y983438D01*
X30576267Y983438D02*
X30618600Y1031819D01*
X30618600Y1031819D02*
X30660933Y1056010D01*
X30660933Y1056010D02*
X30745600Y1080200D01*
X30745600Y1080200D02*
X30957267Y1080200D01*
X30957267Y1080200D02*
X31041933Y1056010D01*
X31041933Y1056010D02*
X31084267Y1031819D01*
X31084267Y1031819D02*
X31126600Y983438D01*
X31126600Y983438D02*
X31126600Y838295D01*
X31126600Y838295D02*
X31084267Y789914D01*
X31084267Y789914D02*
X31041933Y765724D01*
X31041933Y1297915D02*
X31084267Y1322105D01*
X31084267Y1322105D02*
X31126600Y1297915D01*
X31126600Y1297915D02*
X31084267Y1273724D01*
X31084267Y1273724D02*
X31041933Y1297915D01*
X31041933Y1297915D02*
X31126600Y1297915D01*
X30237600Y1491439D02*
X30237600Y1805915D01*
X30237600Y1805915D02*
X30576267Y1636582D01*
X30576267Y1636582D02*
X30576267Y1709153D01*
X30576267Y1709153D02*
X30618600Y1757534D01*
X30618600Y1757534D02*
X30660933Y1781725D01*
X30660933Y1781725D02*
X30745600Y1805915D01*
X30745600Y1805915D02*
X30957267Y1805915D01*
X30957267Y1805915D02*
X31041933Y1781725D01*
X31041933Y1781725D02*
X31084267Y1757534D01*
X31084267Y1757534D02*
X31126600Y1709153D01*
X31126600Y1709153D02*
X31126600Y1564010D01*
X31126600Y1564010D02*
X31084267Y1515629D01*
X31084267Y1515629D02*
X31041933Y1491439D01*
X30237600Y1951058D02*
X31126600Y2120392D01*
X31126600Y2120392D02*
X30237600Y2289725D01*
X31211267Y2338106D02*
X31211267Y2725154D01*
X30237600Y2797726D02*
X30237600Y3112202D01*
X30237600Y3112202D02*
X30576267Y2942869D01*
X30576267Y2942869D02*
X30576267Y3015440D01*
X30576267Y3015440D02*
X30618600Y3063821D01*
X30618600Y3063821D02*
X30660933Y3088012D01*
X30660933Y3088012D02*
X30745600Y3112202D01*
X30745600Y3112202D02*
X30957267Y3112202D01*
X30957267Y3112202D02*
X31041933Y3088012D01*
X31041933Y3088012D02*
X31084267Y3063821D01*
X31084267Y3063821D02*
X31126600Y3015440D01*
X31126600Y3015440D02*
X31126600Y2870297D01*
X31126600Y2870297D02*
X31084267Y2821916D01*
X31084267Y2821916D02*
X31041933Y2797726D01*
X22330323Y41212600D02*
X22644799Y41212600D01*
X22644799Y41212600D02*
X22475466Y40873933D01*
X22475466Y40873933D02*
X22548037Y40873933D01*
X22548037Y40873933D02*
X22596418Y40831600D01*
X22596418Y40831600D02*
X22620609Y40789267D01*
X22620609Y40789267D02*
X22644799Y40704600D01*
X22644799Y40704600D02*
X22644799Y40492933D01*
X22644799Y40492933D02*
X22620609Y40408267D01*
X22620609Y40408267D02*
X22596418Y40365933D01*
X22596418Y40365933D02*
X22548037Y40323600D01*
X22548037Y40323600D02*
X22402894Y40323600D01*
X22402894Y40323600D02*
X22354513Y40365933D01*
X22354513Y40365933D02*
X22330323Y40408267D01*
X22862514Y40408267D02*
X22886704Y40365933D01*
X22886704Y40365933D02*
X22862514Y40323600D01*
X22862514Y40323600D02*
X22838323Y40365933D01*
X22838323Y40365933D02*
X22862514Y40408267D01*
X22862514Y40408267D02*
X22862514Y40323600D01*
X23056038Y41212600D02*
X23370514Y41212600D01*
X23370514Y41212600D02*
X23201181Y40873933D01*
X23201181Y40873933D02*
X23273752Y40873933D01*
X23273752Y40873933D02*
X23322133Y40831600D01*
X23322133Y40831600D02*
X23346324Y40789267D01*
X23346324Y40789267D02*
X23370514Y40704600D01*
X23370514Y40704600D02*
X23370514Y40492933D01*
X23370514Y40492933D02*
X23346324Y40408267D01*
X23346324Y40408267D02*
X23322133Y40365933D01*
X23322133Y40365933D02*
X23273752Y40323600D01*
X23273752Y40323600D02*
X23128609Y40323600D01*
X23128609Y40323600D02*
X23080228Y40365933D01*
X23080228Y40365933D02*
X23056038Y40408267D01*
X23515657Y41212600D02*
X23684991Y40323600D01*
X23684991Y40323600D02*
X23854324Y41212600D01*
X23902706Y40238933D02*
X24289753Y40238933D01*
X24386515Y41127933D02*
X24410706Y41170267D01*
X24410706Y41170267D02*
X24459087Y41212600D01*
X24459087Y41212600D02*
X24580039Y41212600D01*
X24580039Y41212600D02*
X24628420Y41170267D01*
X24628420Y41170267D02*
X24652611Y41127933D01*
X24652611Y41127933D02*
X24676801Y41043267D01*
X24676801Y41043267D02*
X24676801Y40958600D01*
X24676801Y40958600D02*
X24652611Y40831600D01*
X24652611Y40831600D02*
X24362325Y40323600D01*
X24362325Y40323600D02*
X24676801Y40323600D01*
X39648301Y21998913D02*
X39648301Y22313389D01*
X39648301Y22313389D02*
X39986968Y22144056D01*
X39986968Y22144056D02*
X39986968Y22216627D01*
X39986968Y22216627D02*
X40029301Y22265008D01*
X40029301Y22265008D02*
X40071634Y22289199D01*
X40071634Y22289199D02*
X40156301Y22313389D01*
X40156301Y22313389D02*
X40367968Y22313389D01*
X40367968Y22313389D02*
X40452634Y22289199D01*
X40452634Y22289199D02*
X40494968Y22265008D01*
X40494968Y22265008D02*
X40537301Y22216627D01*
X40537301Y22216627D02*
X40537301Y22071484D01*
X40537301Y22071484D02*
X40494968Y22023103D01*
X40494968Y22023103D02*
X40452634Y21998913D01*
X40452634Y22531104D02*
X40494968Y22555294D01*
X40494968Y22555294D02*
X40537301Y22531104D01*
X40537301Y22531104D02*
X40494968Y22506913D01*
X40494968Y22506913D02*
X40452634Y22531104D01*
X40452634Y22531104D02*
X40537301Y22531104D01*
X39648301Y22724628D02*
X39648301Y23039104D01*
X39648301Y23039104D02*
X39986968Y22869771D01*
X39986968Y22869771D02*
X39986968Y22942342D01*
X39986968Y22942342D02*
X40029301Y22990723D01*
X40029301Y22990723D02*
X40071634Y23014914D01*
X40071634Y23014914D02*
X40156301Y23039104D01*
X40156301Y23039104D02*
X40367968Y23039104D01*
X40367968Y23039104D02*
X40452634Y23014914D01*
X40452634Y23014914D02*
X40494968Y22990723D01*
X40494968Y22990723D02*
X40537301Y22942342D01*
X40537301Y22942342D02*
X40537301Y22797199D01*
X40537301Y22797199D02*
X40494968Y22748818D01*
X40494968Y22748818D02*
X40452634Y22724628D01*
X39648301Y23184247D02*
X40537301Y23353581D01*
X40537301Y23353581D02*
X39648301Y23522914D01*
X40621968Y23571295D02*
X40621968Y23958343D01*
X40537301Y24345391D02*
X40537301Y24055105D01*
X40537301Y24200248D02*
X39648301Y24200248D01*
X39648301Y24200248D02*
X39775301Y24151867D01*
X39775301Y24151867D02*
X39859968Y24103486D01*
X39859968Y24103486D02*
X39902301Y24055105D01*
X3442799Y29841277D02*
X3442799Y29526801D01*
X3442799Y29526801D02*
X3104133Y29696134D01*
X3104133Y29696134D02*
X3104133Y29623563D01*
X3104133Y29623563D02*
X3061799Y29575182D01*
X3061799Y29575182D02*
X3019466Y29550991D01*
X3019466Y29550991D02*
X2934799Y29526801D01*
X2934799Y29526801D02*
X2723133Y29526801D01*
X2723133Y29526801D02*
X2638466Y29550991D01*
X2638466Y29550991D02*
X2596133Y29575182D01*
X2596133Y29575182D02*
X2553799Y29623563D01*
X2553799Y29623563D02*
X2553799Y29768706D01*
X2553799Y29768706D02*
X2596133Y29817087D01*
X2596133Y29817087D02*
X2638466Y29841277D01*
X2638466Y29309086D02*
X2596133Y29284896D01*
X2596133Y29284896D02*
X2553799Y29309086D01*
X2553799Y29309086D02*
X2596133Y29333277D01*
X2596133Y29333277D02*
X2638466Y29309086D01*
X2638466Y29309086D02*
X2553799Y29309086D01*
X3442799Y29115562D02*
X3442799Y28801086D01*
X3442799Y28801086D02*
X3104133Y28970419D01*
X3104133Y28970419D02*
X3104133Y28897848D01*
X3104133Y28897848D02*
X3061799Y28849467D01*
X3061799Y28849467D02*
X3019466Y28825276D01*
X3019466Y28825276D02*
X2934799Y28801086D01*
X2934799Y28801086D02*
X2723133Y28801086D01*
X2723133Y28801086D02*
X2638466Y28825276D01*
X2638466Y28825276D02*
X2596133Y28849467D01*
X2596133Y28849467D02*
X2553799Y28897848D01*
X2553799Y28897848D02*
X2553799Y29042991D01*
X2553799Y29042991D02*
X2596133Y29091372D01*
X2596133Y29091372D02*
X2638466Y29115562D01*
X3442799Y28655943D02*
X2553799Y28486609D01*
X2553799Y28486609D02*
X3442799Y28317276D01*
X1056009Y17486884D02*
X2217152Y17486884D01*
X2942866Y17486884D02*
X4104009Y17486884D01*
X3523437Y16906313D02*
X3523437Y18067456D01*
X1543980Y20794995D02*
X1686837Y20747376D01*
X1686837Y20747376D02*
X1734456Y20699757D01*
X1734456Y20699757D02*
X1782075Y20604519D01*
X1782075Y20604519D02*
X1782075Y20461662D01*
X1782075Y20461662D02*
X1734456Y20366424D01*
X1734456Y20366424D02*
X1686837Y20318804D01*
X1686837Y20318804D02*
X1591599Y20271185D01*
X1591599Y20271185D02*
X1210647Y20271185D01*
X1210647Y20271185D02*
X1210647Y21271185D01*
X1210647Y21271185D02*
X1543980Y21271185D01*
X1543980Y21271185D02*
X1639218Y21223566D01*
X1639218Y21223566D02*
X1686837Y21175947D01*
X1686837Y21175947D02*
X1734456Y21080709D01*
X1734456Y21080709D02*
X1734456Y20985471D01*
X1734456Y20985471D02*
X1686837Y20890233D01*
X1686837Y20890233D02*
X1639218Y20842614D01*
X1639218Y20842614D02*
X1543980Y20794995D01*
X1543980Y20794995D02*
X1210647Y20794995D01*
X2163028Y20556900D02*
X2639218Y20556900D01*
X2067790Y20271185D02*
X2401123Y21271185D01*
X2401123Y21271185D02*
X2734456Y20271185D01*
X2924933Y21271185D02*
X3496361Y21271185D01*
X3210647Y20271185D02*
X3210647Y21271185D01*
X3686838Y21271185D02*
X4258266Y21271185D01*
X3972552Y20271185D02*
X3972552Y21271185D01*
X3533113Y14481944D02*
X3871780Y13465944D01*
X3871780Y13465944D02*
X4210447Y14481944D01*
X4549113Y13465944D02*
X4549113Y14481944D01*
X4549113Y14481944D02*
X4887780Y13756229D01*
X4887780Y13756229D02*
X5226447Y14481944D01*
X5226447Y14481944D02*
X5226447Y13465944D01*
X6158484Y12997543D02*
X6158484Y11836400D01*
X6158484Y9949543D02*
X6158484Y8788400D01*
X5577912Y9368972D02*
X6739055Y9368972D01*
D13*
X32244419Y41787500D02*
X32525581Y41787500D01*
X32244419Y40767500D02*
X32525581Y40767500D01*
X16313742Y41330500D02*
X16788258Y41330500D01*
X16313742Y40285500D02*
X16788258Y40285500D01*
X36942500Y33016458D02*
X36942500Y32541942D01*
X37987500Y33016458D02*
X37987500Y32541942D01*
X42710582Y25093000D02*
X42429420Y25093000D01*
X42710582Y24073000D02*
X42429420Y24073000D01*
X10554581Y21338000D02*
X10273419Y21338000D01*
X10554581Y20318000D02*
X10273419Y20318000D01*
X9224534Y10685000D02*
X7824534Y10685000D01*
X9234534Y8365000D02*
X7824534Y8365000D01*
X9844534Y8085000D02*
X9364534Y8085000D01*
X9604534Y8415000D01*
X9844534Y8085000D01*
G36*
X9844534Y8085000D02*
G01*
X9364534Y8085000D01*
X9604534Y8415000D01*
X9844534Y8085000D01*
G37*
X9403500Y27402000D02*
X8603500Y27402000D01*
X9403500Y27402000D02*
X10203500Y27402000D01*
X9403500Y24282000D02*
X8603500Y24282000D01*
X9403500Y24282000D02*
X10203500Y24282000D01*
X8103500Y27352000D02*
X7863500Y27682000D01*
X8343500Y27682000D01*
X8103500Y27352000D01*
G36*
X8103500Y27352000D02*
G01*
X7863500Y27682000D01*
X8343500Y27682000D01*
X8103500Y27352000D01*
G37*
X18296500Y47971942D02*
X18296500Y48446458D01*
X19341500Y47971942D02*
X19341500Y48446458D01*
X42746200Y46722419D02*
X42746200Y47003581D01*
X43766200Y46722419D02*
X43766200Y47003581D01*
X12400000Y31114000D02*
X6890000Y31114000D01*
X12400000Y27814000D02*
X6890000Y27814000D01*
X12400000Y27814000D02*
X12400000Y31114000D01*
X42431581Y43080400D02*
X42150419Y43080400D01*
X42431581Y42060400D02*
X42150419Y42060400D01*
X38479000Y1612019D02*
X38479000Y1893181D01*
X39499000Y1612019D02*
X39499000Y1893181D01*
X6239742Y38495500D02*
X6714258Y38495500D01*
X6239742Y37450500D02*
X6714258Y37450500D01*
X1014000Y41388419D02*
X1014000Y41669581D01*
X2034000Y41388419D02*
X2034000Y41669581D01*
X674000Y31596000D02*
X674000Y30126000D01*
X674000Y30126000D02*
X2959000Y30126000D01*
X2959000Y31596000D02*
X674000Y31596000D01*
X46818000Y17874000D02*
X46818000Y17071530D01*
X46818000Y16456470D02*
X46818000Y15654000D01*
X48023000Y17874000D02*
X46818000Y17874000D01*
X48023000Y17874000D02*
X48023000Y17327471D01*
X48023000Y16200529D02*
X48023000Y15654000D01*
X48023000Y15654000D02*
X46818000Y15654000D01*
X48783000Y17874001D02*
X49543000Y17874000D01*
X49543000Y17874000D02*
X49543000Y16764000D01*
X11692500Y47971942D02*
X11692500Y48446458D01*
X12737500Y47971942D02*
X12737500Y48446458D01*
X40880419Y8765000D02*
X41161581Y8765000D01*
X40880419Y7745000D02*
X41161581Y7745000D01*
X39507500Y29638258D02*
X39507500Y29163742D01*
X40552500Y29638258D02*
X40552500Y29163742D01*
X20686500Y11667258D02*
X20686500Y11192742D01*
X21731500Y11667258D02*
X21731500Y11192742D01*
X17412581Y8663400D02*
X17131419Y8663400D01*
X17412581Y7643400D02*
X17131419Y7643400D01*
X46818000Y11143000D02*
X46818000Y10340530D01*
X46818000Y9725470D02*
X46818000Y8923000D01*
X48023000Y11143000D02*
X46818000Y11143000D01*
X48023000Y11143000D02*
X48023000Y10596471D01*
X48023000Y9469529D02*
X48023000Y8923000D01*
X48023000Y8923000D02*
X46818000Y8923000D01*
X48783000Y11143001D02*
X49543000Y11143000D01*
X49543000Y11143000D02*
X49543000Y10033000D01*
D11*
X11817998Y22098000D02*
G75*
G02*
X11718000Y22098000I-49999J0D01*
G01*
X11718000Y22098000D02*
G75*
G02*
X11817998Y22098000I49999J0D01*
G01*
D13*
X10919581Y32871000D02*
X10638419Y32871000D01*
X10919581Y31851000D02*
X10638419Y31851000D01*
D12*
X45987000Y33164000D02*
X45987000Y32084000D01*
X45987000Y19644000D02*
X45987000Y18564000D01*
X45987000Y18564000D02*
X47667001Y18564000D01*
X47667001Y33164000D02*
X45987000Y33164000D01*
X49627000Y33164000D02*
X49106999Y33164000D01*
X49627000Y18564000D02*
X49106999Y18564000D01*
X49627000Y18564000D02*
X49627000Y33164000D01*
D14*
X44437001Y20114000D02*
G75*
G02*
X44237001Y20114000I-100000J0D01*
G01*
X44237001Y20114000D02*
G75*
G02*
X44437001Y20114000I100000J0D01*
G01*
D13*
X8380000Y35038419D02*
X8380000Y35319581D01*
X9400000Y35038419D02*
X9400000Y35319581D01*
X33638000Y4256000D02*
X33638000Y2856000D01*
X35958000Y4266000D02*
X35958000Y2856000D01*
X36238000Y4396000D02*
X35908000Y4636000D01*
X36238000Y4876000D01*
X36238000Y4396000D01*
G36*
X36238000Y4396000D02*
G01*
X35908000Y4636000D01*
X36238000Y4876000D01*
X36238000Y4396000D01*
G37*
X22223000Y6984419D02*
X22223000Y7265581D01*
X23243000Y6984419D02*
X23243000Y7265581D01*
X42685581Y21973000D02*
X42404419Y21973000D01*
X42685581Y20953000D02*
X42404419Y20953000D01*
X42710582Y26617000D02*
X42429420Y26617000D01*
X42710582Y25597000D02*
X42429420Y25597000D01*
X6717420Y40261000D02*
X6998580Y40261000D01*
X6717420Y39241000D02*
X6998580Y39241000D01*
X22235900Y11192742D02*
X22235900Y11667258D01*
X23280900Y11192742D02*
X23280900Y11667258D01*
X19295500Y41543000D02*
X19295500Y40073000D01*
X19295500Y40073000D02*
X21580500Y40073000D01*
X21580500Y41543000D02*
X19295500Y41543000D01*
X38355600Y34250899D02*
X38355600Y31965899D01*
X39825600Y34250899D02*
X38355600Y34250899D01*
X39825600Y31965899D02*
X39825600Y34250899D01*
X35333999Y36069919D02*
X35333999Y36351081D01*
X36353999Y36069919D02*
X36353999Y36351081D01*
X34194636Y49534400D02*
X33978964Y49534400D01*
X34194636Y48814400D02*
X33978964Y48814400D01*
X18290000Y32637000D02*
X18290000Y31937000D01*
X18290000Y18417000D02*
X18290000Y19117000D01*
X18990000Y32637000D02*
X18290000Y32637000D01*
X18990000Y18417000D02*
X18290000Y18417000D01*
X31810000Y32637000D02*
X32510000Y32637000D01*
X31810000Y18417000D02*
X32510000Y18417000D01*
X32510000Y32637000D02*
X32510000Y31937000D01*
X32510000Y18417000D02*
X32510000Y19117000D01*
X33477500Y18647000D02*
X32797500Y18647000D01*
X33137500Y19117000D01*
X33477500Y18647000D01*
G36*
X33477500Y18647000D02*
G01*
X32797500Y18647000D01*
X33137500Y19117000D01*
X33477500Y18647000D01*
G37*
X2650000Y40819000D02*
X2650000Y42229000D01*
X4970000Y40829000D02*
X4970000Y42229000D01*
X2700000Y40449000D02*
X2370000Y40209000D01*
X2370000Y40689000D01*
X2700000Y40449000D01*
G36*
X2700000Y40449000D02*
G01*
X2370000Y40209000D01*
X2370000Y40689000D01*
X2700000Y40449000D01*
G37*
X36027000Y41893336D02*
X36027000Y41677664D01*
X36747000Y41893336D02*
X36747000Y41677664D01*
X7349258Y19953499D02*
X6874742Y19953499D01*
X7349258Y18908499D02*
X6874742Y18908499D01*
X21321500Y37829258D02*
X21321500Y37354742D01*
X22366500Y37829258D02*
X22366500Y37354742D01*
X33936999Y36069919D02*
X33936999Y36351081D01*
X34956999Y36069919D02*
X34956999Y36351081D01*
X40092900Y46169500D02*
X40092900Y44169500D01*
X42372900Y46179500D02*
X42372900Y44179500D01*
X42582900Y46539500D02*
X42302900Y46539500D01*
X42302900Y46819500D01*
X42582900Y46539500D01*
G36*
X42582900Y46539500D02*
G01*
X42302900Y46539500D01*
X42302900Y46819500D01*
X42582900Y46539500D01*
G37*
X44593742Y10301500D02*
X45068258Y10301500D01*
X44593742Y9256500D02*
X45068258Y9256500D01*
X14831600Y43447581D02*
X14831600Y43166419D01*
X15851600Y43447581D02*
X15851600Y43166419D01*
X38479000Y4915781D02*
X38479000Y4634619D01*
X39499000Y4915781D02*
X39499000Y4634619D01*
X26653258Y40400500D02*
X26178742Y40400500D01*
X26653258Y39355500D02*
X26178742Y39355500D01*
X38088181Y48643000D02*
X37807019Y48643000D01*
X38088181Y47623000D02*
X37807019Y47623000D01*
X36569000Y23067000D02*
X36569000Y20367000D01*
X38869000Y23067000D02*
X36569000Y23067000D01*
X13270620Y8384000D02*
X13551780Y8384000D01*
X13270620Y7364000D02*
X13551780Y7364000D01*
X37451419Y24386000D02*
X37732581Y24386000D01*
X37451419Y23366000D02*
X37732581Y23366000D01*
X22921700Y43544258D02*
X22921700Y43069742D01*
X23966700Y43544258D02*
X23966700Y43069742D01*
X32244419Y40293499D02*
X32525581Y40293499D01*
X32244419Y39273499D02*
X32525581Y39273499D01*
X42685581Y20449000D02*
X42404419Y20449000D01*
X42685581Y19429000D02*
X42404419Y19429000D01*
X29105962Y45758000D02*
X29105962Y43473000D01*
X29105962Y43473000D02*
X30575962Y43473000D01*
X30575962Y43473000D02*
X30575962Y45758000D01*
X45538001Y36670000D02*
X45538001Y35867530D01*
X45538001Y35252470D02*
X45538001Y34450000D01*
X48013001Y36670000D02*
X45538001Y36670000D01*
X48013001Y36670000D02*
X48013001Y36123471D01*
X48013001Y34996529D02*
X48013001Y34450000D01*
X48013001Y34450000D02*
X45538001Y34450000D01*
X48773001Y36670001D02*
X49533001Y36670000D01*
X49533001Y36670000D02*
X49533001Y35560000D01*
X44593742Y8777500D02*
X45068258Y8777500D01*
X44593742Y7732500D02*
X45068258Y7732500D01*
X41060000Y23722000D02*
X41060000Y22252000D01*
X41060000Y22252000D02*
X43345000Y22252000D01*
X43345000Y23722000D02*
X41060000Y23722000D01*
X46818000Y15588000D02*
X46818000Y14785530D01*
X46818000Y14170470D02*
X46818000Y13368000D01*
X48023000Y15588000D02*
X46818000Y15588000D01*
X48023000Y15588000D02*
X48023000Y15041471D01*
X48023000Y13914529D02*
X48023000Y13368000D01*
X48023000Y13368000D02*
X46818000Y13368000D01*
X48783000Y15588001D02*
X49543000Y15588000D01*
X49543000Y15588000D02*
X49543000Y14478000D01*
X40806000Y40054200D02*
X40806000Y38584200D01*
X40806000Y38584200D02*
X43091000Y38584200D01*
X43091000Y40054200D02*
X40806000Y40054200D01*
X37105000Y41893336D02*
X37105000Y41677664D01*
X37825000Y41893336D02*
X37825000Y41677664D01*
X29533200Y48609364D02*
X29533200Y48825036D01*
X30253200Y48609364D02*
X30253200Y48825036D01*
X13356000Y48068619D02*
X13356000Y48349781D01*
X14376000Y48068619D02*
X14376000Y48349781D01*
X18669000Y44867000D02*
X17869000Y44867000D01*
X18669000Y44867000D02*
X19469000Y44867000D01*
X18669000Y41747000D02*
X17869000Y41747000D01*
X18669000Y41747000D02*
X19469000Y41747000D01*
X17369000Y44817000D02*
X17129000Y45147000D01*
X17609000Y45147000D01*
X17369000Y44817000D01*
G36*
X17369000Y44817000D02*
G01*
X17129000Y45147000D01*
X17609000Y45147000D01*
X17369000Y44817000D01*
G37*
X13270620Y11432000D02*
X13551780Y11432000D01*
X13270620Y10412000D02*
X13551780Y10412000D01*
X40984999Y29011000D02*
X40985000Y29811000D01*
X40984999Y29011000D02*
X40985000Y28211000D01*
X44105001Y29011000D02*
X44105000Y29811000D01*
X44105001Y29011000D02*
X44105000Y28211000D01*
X44385000Y30071000D02*
X44055000Y30311000D01*
X44385000Y30551000D01*
X44385000Y30071000D01*
G36*
X44385000Y30071000D02*
G01*
X44055000Y30311000D01*
X44385000Y30551000D01*
X44385000Y30071000D01*
G37*
X1667742Y15762500D02*
X2142258Y15762500D01*
X1667742Y14717500D02*
X2142258Y14717500D01*
X651000Y13719000D02*
X2651000Y13719000D01*
X651000Y10919000D02*
X651000Y13719000D01*
X2651000Y13719000D02*
X2651000Y10919000D01*
X2651000Y10919000D02*
X651000Y10919000D01*
X33488100Y15358342D02*
X33488100Y15832858D01*
X34533100Y15358342D02*
X34533100Y15832858D01*
X35268781Y1500600D02*
X34987619Y1500600D01*
X35268781Y480600D02*
X34987619Y480600D01*
X17412581Y7114000D02*
X17131419Y7114000D01*
X17412581Y6094000D02*
X17131419Y6094000D01*
X31398036Y47553200D02*
X31182364Y47553200D01*
X31398036Y46833200D02*
X31182364Y46833200D01*
X33890461Y44720742D02*
X33890461Y45195258D01*
X34935461Y44720742D02*
X34935461Y45195258D01*
X36828000Y36069919D02*
X36828000Y36351081D01*
X37848000Y36069919D02*
X37848000Y36351081D01*
X6948999Y16383000D02*
X6949000Y17183000D01*
X6948999Y16383000D02*
X6949000Y15583000D01*
X10069001Y16383000D02*
X10069000Y17183000D01*
X10069001Y16383000D02*
X10069000Y15583000D01*
X10349000Y17443000D02*
X10019000Y17683000D01*
X10349000Y17923000D01*
X10349000Y17443000D01*
G36*
X10349000Y17443000D02*
G01*
X10019000Y17683000D01*
X10349000Y17923000D01*
X10349000Y17443000D01*
G37*
X8649581Y13972000D02*
X8368419Y13972000D01*
X8649581Y12952000D02*
X8368419Y12952000D01*
X20699000Y6984419D02*
X20699000Y7265581D01*
X21719000Y6984419D02*
X21719000Y7265581D01*
X15111000Y2286581D02*
X15111000Y2005419D01*
X16131000Y2286581D02*
X16131000Y2005419D01*
X44237599Y43451800D02*
X44237599Y42649330D01*
X44237599Y42034270D02*
X44237599Y41231800D01*
X47982600Y43451800D02*
X44237599Y43451800D01*
X47982600Y43451800D02*
X47982600Y42905271D01*
X47982600Y41778329D02*
X47982600Y41231800D01*
X47982600Y41231800D02*
X44237599Y41231800D01*
X48742600Y43451801D02*
X49502600Y43451800D01*
X49502600Y43451800D02*
X49502600Y42341800D01*
X37354742Y30367501D02*
X37829258Y30367501D01*
X37354742Y29322501D02*
X37829258Y29322501D01*
X7564064Y33096000D02*
X7109936Y33096000D01*
X7564064Y31626000D02*
X7109936Y31626000D01*
X6971420Y22100000D02*
X7252580Y22100000D01*
X6971420Y21080000D02*
X7252580Y21080000D01*
X28604036Y48569200D02*
X28388364Y48569200D01*
X28604036Y47849200D02*
X28388364Y47849200D01*
D11*
X2767998Y26543000D02*
G75*
G02*
X2668000Y26543000I-49999J0D01*
G01*
X2668000Y26543000D02*
G75*
G02*
X2767998Y26543000I49999J0D01*
G01*
D13*
X44593742Y12714500D02*
X45068258Y12714500D01*
X44593742Y11669500D02*
X45068258Y11669500D01*
X39561001Y26148419D02*
X39561001Y26429581D01*
X40581001Y26148419D02*
X40581001Y26429581D01*
X38788000Y12796000D02*
X38788000Y12321000D01*
X38788000Y9576000D02*
X38788000Y10051000D01*
X39263000Y12796000D02*
X38788000Y12796000D01*
X39263000Y9576000D02*
X38788000Y9576000D01*
X41533000Y12796000D02*
X42008000Y12796000D01*
X41533000Y9576000D02*
X41708000Y9576000D01*
X42008000Y12796000D02*
X42008000Y12321000D01*
X42008000Y10051000D02*
X42008000Y9816000D01*
X42248000Y9246000D02*
X41768000Y9246000D01*
X42008000Y9576000D01*
X42248000Y9246000D01*
G36*
X42248000Y9246000D02*
G01*
X41768000Y9246000D01*
X42008000Y9576000D01*
X42248000Y9246000D01*
G37*
X29914000Y13647000D02*
X29914000Y13387000D01*
X29914000Y8197000D02*
X29914000Y8457000D01*
X32639000Y13647000D02*
X29914000Y13647000D01*
X32639000Y13647000D02*
X35364000Y13647000D01*
X32639000Y8197000D02*
X29914000Y8197000D01*
X32639000Y8197000D02*
X35364000Y8197000D01*
X35364000Y13647000D02*
X35364000Y13387000D01*
X35364000Y8197000D02*
X35364000Y8457000D01*
X29131500Y13387000D02*
X28891500Y13717000D01*
X29371500Y13717000D01*
X29131500Y13387000D01*
G36*
X29131500Y13387000D02*
G01*
X28891500Y13717000D01*
X29371500Y13717000D01*
X29131500Y13387000D01*
G37*
X38113581Y40644500D02*
X37832419Y40644500D01*
X38113581Y39624500D02*
X37832419Y39624500D01*
X40584742Y14951500D02*
X41059258Y14951500D01*
X40584742Y13906500D02*
X41059258Y13906500D01*
D15*
G36*
X25279278Y2793414D02*
G01*
X25336281Y2773980D01*
X25414794Y2744198D01*
X25483232Y2716948D01*
X25566234Y2683648D01*
X25628496Y2658058D01*
X25672279Y2637595D01*
X25699841Y2619675D01*
X25713444Y2601716D01*
X25715347Y2581133D01*
X25707812Y2555345D01*
X25693097Y2521767D01*
X25679769Y2492321D01*
X25657155Y2448579D01*
X25637467Y2427381D01*
X25626569Y2424548D01*
X25608003Y2429500D01*
X25570343Y2442581D01*
X25517760Y2462236D01*
X25454421Y2486910D01*
X25390356Y2512657D01*
X25321584Y2541058D01*
X25260703Y2566897D01*
X25211655Y2588447D01*
X25178383Y2603977D01*
X25165041Y2611512D01*
X25163245Y2628332D01*
X25169352Y2660823D01*
X25180986Y2701651D01*
X25195769Y2743482D01*
X25211327Y2778979D01*
X25225282Y2800808D01*
X25226819Y2802229D01*
X25243039Y2802747D01*
X25279278Y2793414D01*
G37*
G36*
X25141657Y4419657D02*
G01*
X25176350Y4408618D01*
X25225261Y4390998D01*
X25284048Y4368565D01*
X25348365Y4343085D01*
X25413868Y4316326D01*
X25476211Y4290054D01*
X25531052Y4266038D01*
X25574045Y4246044D01*
X25600844Y4231839D01*
X25607656Y4226250D01*
X25605558Y4208487D01*
X25595755Y4174382D01*
X25580271Y4130835D01*
X25577717Y4124255D01*
X25554402Y4071633D01*
X25535127Y4043172D01*
X25523092Y4037296D01*
X25505539Y4042233D01*
X25468700Y4055282D01*
X25416579Y4074934D01*
X25353178Y4099679D01*
X25282502Y4128005D01*
X25280114Y4128975D01*
X25210107Y4157656D01*
X25148220Y4183486D01*
X25098221Y4204854D01*
X25063879Y4220148D01*
X25048960Y4227757D01*
X25048787Y4227912D01*
X25048803Y4243138D01*
X25057153Y4274071D01*
X25071103Y4313781D01*
X25087916Y4355338D01*
X25104859Y4391812D01*
X25119195Y4416273D01*
X25125530Y4422349D01*
X25141657Y4419657D01*
G37*
G36*
X26223729Y3755811D02*
G01*
X26263551Y3741602D01*
X26304904Y3724017D01*
X26340977Y3705899D01*
X26364961Y3690092D01*
X26370909Y3681330D01*
X26365524Y3660223D01*
X26352443Y3621878D01*
X26333381Y3570495D01*
X26310051Y3510275D01*
X26284165Y3445417D01*
X26257437Y3380123D01*
X26231580Y3318592D01*
X26208307Y3265024D01*
X26189332Y3223619D01*
X26176367Y3198579D01*
X26171741Y3193038D01*
X26153986Y3198182D01*
X26120340Y3210691D01*
X26078018Y3227880D01*
X26077163Y3228240D01*
X26036097Y3247184D01*
X26005398Y3264402D01*
X25991526Y3276260D01*
X25991432Y3276509D01*
X25994472Y3291654D01*
X26005275Y3325778D01*
X26022179Y3374493D01*
X26043516Y3433410D01*
X26067621Y3498141D01*
X26092831Y3564298D01*
X26117479Y3627492D01*
X26139900Y3683335D01*
X26158430Y3727438D01*
X26171403Y3755412D01*
X26175922Y3762729D01*
X26192250Y3763801D01*
X26223729Y3755811D01*
G37*
G36*
X24597090Y3633927D02*
G01*
X24630359Y3624906D01*
X24673877Y3609409D01*
X24685904Y3604617D01*
X24732461Y3584846D01*
X24759533Y3570397D01*
X24771340Y3558055D01*
X24772107Y3544605D01*
X24770838Y3539948D01*
X24763724Y3520139D01*
X24748972Y3481074D01*
X24728188Y3426941D01*
X24702979Y3361924D01*
X24674954Y3290210D01*
X24674732Y3289646D01*
X24641453Y3206367D01*
X24615304Y3144719D01*
X24595214Y3102507D01*
X24580111Y3077535D01*
X24568926Y3067606D01*
X24566246Y3067228D01*
X24544406Y3072444D01*
X24507640Y3084881D01*
X24466749Y3100713D01*
X24427073Y3118853D01*
X24398761Y3135391D01*
X24387945Y3146741D01*
X24392378Y3164078D01*
X24404589Y3199862D01*
X24422862Y3249742D01*
X24445478Y3309367D01*
X24470721Y3374386D01*
X24496874Y3440447D01*
X24522219Y3503198D01*
X24545040Y3558289D01*
X24563618Y3601367D01*
X24576238Y3628082D01*
X24580483Y3634647D01*
X24597090Y3633927D01*
G37*
G36*
X26305697Y1866464D02*
G01*
X26374633Y1838816D01*
X26432054Y1794533D01*
X26446997Y1776992D01*
X26488149Y1704438D01*
X26514889Y1616749D01*
X26526025Y1520240D01*
X26520367Y1421227D01*
X26517440Y1403450D01*
X26491564Y1308561D01*
X26452080Y1234538D01*
X26398505Y1180738D01*
X26330357Y1146517D01*
X26323189Y1144285D01*
X26254903Y1129320D01*
X26193384Y1129664D01*
X26125971Y1145182D01*
X26056121Y1178174D01*
X26002057Y1229529D01*
X25963498Y1299769D01*
X25940166Y1389420D01*
X25931782Y1499006D01*
X25931751Y1510008D01*
X25931808Y1511062D01*
X26115322Y1511062D01*
X26116659Y1449289D01*
X26119774Y1421558D01*
X26136198Y1368429D01*
X26164783Y1328997D01*
X26201117Y1305725D01*
X26240787Y1301076D01*
X26279379Y1317512D01*
X26289819Y1326655D01*
X26314557Y1366174D01*
X26330888Y1422278D01*
X26338338Y1487634D01*
X26336437Y1554908D01*
X26324709Y1616770D01*
X26310812Y1652135D01*
X26280628Y1686997D01*
X26240430Y1703362D01*
X26197526Y1700819D01*
X26159226Y1678960D01*
X26144599Y1661448D01*
X26130140Y1625337D01*
X26120099Y1572476D01*
X26115322Y1511062D01*
X25931808Y1511062D01*
X25936770Y1603237D01*
X25952496Y1678448D01*
X25980785Y1741214D01*
X26023495Y1797110D01*
X26029512Y1803449D01*
X26087154Y1845972D01*
X26156223Y1870406D01*
X26230982Y1877116D01*
X26305697Y1866464D01*
G37*
G36*
X27660136Y1872842D02*
G01*
X27735488Y1845824D01*
X27804899Y1796592D01*
X27805502Y1796029D01*
X27842591Y1746754D01*
X27871363Y1679327D01*
X27890505Y1599799D01*
X27898702Y1514224D01*
X27894640Y1428654D01*
X27890754Y1403450D01*
X27864878Y1308561D01*
X27825393Y1234538D01*
X27771818Y1180738D01*
X27703670Y1146517D01*
X27696502Y1144285D01*
X27628057Y1129303D01*
X27566521Y1129690D01*
X27500008Y1145125D01*
X27436959Y1174539D01*
X27386117Y1221316D01*
X27343888Y1288914D01*
X27338114Y1300980D01*
X27322842Y1337037D01*
X27313161Y1370602D01*
X27307841Y1409275D01*
X27305652Y1460657D01*
X27305328Y1503708D01*
X27305660Y1529722D01*
X27489235Y1529722D01*
X27489317Y1467616D01*
X27497973Y1408603D01*
X27515511Y1358142D01*
X27542239Y1321689D01*
X27546924Y1317870D01*
X27584450Y1303581D01*
X27627108Y1306677D01*
X27662710Y1326235D01*
X27663133Y1326655D01*
X27688906Y1367338D01*
X27705799Y1425629D01*
X27712331Y1495049D01*
X27710958Y1535775D01*
X27698519Y1611815D01*
X27675060Y1665210D01*
X27640557Y1695987D01*
X27594986Y1704174D01*
X27568488Y1699917D01*
X27537354Y1680018D01*
X27513562Y1641381D01*
X27497420Y1589463D01*
X27489235Y1529722D01*
X27305660Y1529722D01*
X27306155Y1568491D01*
X27309522Y1615633D01*
X27316552Y1652651D01*
X27328372Y1687062D01*
X27335101Y1702694D01*
X27379795Y1774760D01*
X27438670Y1828607D01*
X27507702Y1863435D01*
X27582865Y1878447D01*
X27660136Y1872842D01*
G37*
G36*
X24688588Y1657595D02*
G01*
X24714959Y1646325D01*
X24726895Y1634411D01*
X24748593Y1607623D01*
X24784308Y1633639D01*
X24830178Y1653347D01*
X24887808Y1658486D01*
X24948410Y1649079D01*
X24989178Y1633190D01*
X25025672Y1607413D01*
X25062099Y1571128D01*
X25074661Y1555094D01*
X25089793Y1532936D01*
X25100228Y1513281D01*
X25106838Y1490933D01*
X25110497Y1460701D01*
X25112076Y1417391D01*
X25112451Y1355810D01*
X25112458Y1330271D01*
X25112458Y1158911D01*
X25071511Y1148261D01*
X25028704Y1143849D01*
X24989616Y1148176D01*
X24948669Y1158742D01*
X24942369Y1300854D01*
X24939193Y1363330D01*
X24935505Y1405736D01*
X24930194Y1433195D01*
X24922149Y1450826D01*
X24910259Y1463753D01*
X24906325Y1467037D01*
X24863566Y1488275D01*
X24818508Y1489228D01*
X24779018Y1470411D01*
X24766894Y1457912D01*
X24754448Y1438604D01*
X24746646Y1415044D01*
X24742472Y1381148D01*
X24740906Y1330836D01*
X24740782Y1301964D01*
X24739453Y1236712D01*
X24735230Y1193640D01*
X24727753Y1169857D01*
X24723832Y1165147D01*
X24693193Y1151175D01*
X24650172Y1144303D01*
X24607039Y1146414D01*
X24604661Y1146878D01*
X24577793Y1163192D01*
X24562904Y1186343D01*
X24558025Y1212314D01*
X24554857Y1256410D01*
X24553286Y1313473D01*
X24553193Y1378343D01*
X24554463Y1445861D01*
X24556979Y1510869D01*
X24560623Y1568207D01*
X24565279Y1612717D01*
X24570831Y1639240D01*
X24573250Y1643631D01*
X24594339Y1653015D01*
X24629831Y1659026D01*
X24646802Y1659976D01*
X24688588Y1657595D01*
G37*
G36*
X26988516Y1660976D02*
G01*
X27048566Y1660065D01*
X27091132Y1658096D01*
X27120068Y1654702D01*
X27139230Y1649514D01*
X27152474Y1642164D01*
X27158489Y1637197D01*
X27179369Y1605131D01*
X27185028Y1577616D01*
X27181921Y1559992D01*
X27170678Y1540015D01*
X27148418Y1514378D01*
X27112259Y1479773D01*
X27059318Y1432893D01*
X27057747Y1431528D01*
X26930466Y1321020D01*
X27048298Y1314720D01*
X27101589Y1310917D01*
X27146046Y1305985D01*
X27175133Y1300729D01*
X27181878Y1298227D01*
X27191571Y1279747D01*
X27197019Y1244177D01*
X27197627Y1225470D01*
X27196097Y1187063D01*
X27189237Y1165893D01*
X27173642Y1154074D01*
X27165309Y1150618D01*
X27139791Y1145914D01*
X27094902Y1142484D01*
X27035897Y1140294D01*
X26968029Y1139311D01*
X26896551Y1139501D01*
X26826718Y1140828D01*
X26763783Y1143260D01*
X26713001Y1146761D01*
X26679625Y1151298D01*
X26671336Y1153830D01*
X26643669Y1179989D01*
X26631992Y1219740D01*
X26635698Y1254874D01*
X26648731Y1274272D01*
X26678871Y1305674D01*
X26722900Y1346190D01*
X26777600Y1392929D01*
X26839752Y1443001D01*
X26878130Y1472571D01*
X26887094Y1481320D01*
X26883230Y1486672D01*
X26862896Y1489471D01*
X26822454Y1490561D01*
X26800010Y1490708D01*
X26735346Y1493074D01*
X26691901Y1501052D01*
X26665922Y1516874D01*
X26653659Y1542768D01*
X26651304Y1579083D01*
X26655537Y1615650D01*
X26664389Y1642165D01*
X26667489Y1646378D01*
X26684453Y1652484D01*
X26722261Y1656917D01*
X26782178Y1659755D01*
X26865467Y1661076D01*
X26907125Y1661198D01*
X26988516Y1660976D01*
G37*
G36*
X24269442Y1659855D02*
G01*
X24334877Y1637236D01*
X24386117Y1597649D01*
X24409680Y1567799D01*
X24432223Y1518410D01*
X24439531Y1465148D01*
X24431622Y1416072D01*
X24409240Y1379912D01*
X24394480Y1368069D01*
X24376775Y1360216D01*
X24350946Y1355546D01*
X24311815Y1353257D01*
X24254202Y1352544D01*
X24232852Y1352518D01*
X24168466Y1352005D01*
X24125417Y1350146D01*
X24099854Y1346453D01*
X24087931Y1340441D01*
X24085623Y1333942D01*
X24096779Y1314436D01*
X24124907Y1295713D01*
X24162000Y1281859D01*
X24197429Y1276922D01*
X24231893Y1279811D01*
X24277180Y1287153D01*
X24300459Y1292057D01*
X24339201Y1300098D01*
X24362023Y1300469D01*
X24377392Y1291843D01*
X24389614Y1278062D01*
X24412019Y1237184D01*
X24410365Y1201167D01*
X24385533Y1171279D01*
X24338403Y1148783D01*
X24292101Y1138027D01*
X24224619Y1129067D01*
X24170659Y1127830D01*
X24119677Y1134579D01*
X24083716Y1143218D01*
X24005359Y1175077D01*
X23946307Y1223021D01*
X23906922Y1286618D01*
X23887569Y1365435D01*
X23886489Y1377520D01*
X23887744Y1443298D01*
X24078541Y1443298D01*
X24079358Y1440656D01*
X24097069Y1432120D01*
X24130692Y1428442D01*
X24171472Y1429321D01*
X24210654Y1434461D01*
X24239485Y1443561D01*
X24243855Y1446274D01*
X24260132Y1468125D01*
X24254301Y1489165D01*
X24229284Y1505678D01*
X24190773Y1513760D01*
X24149681Y1511769D01*
X24117487Y1495018D01*
X24106303Y1485356D01*
X24085737Y1461599D01*
X24078541Y1443298D01*
X23887744Y1443298D01*
X23887957Y1454484D01*
X23906079Y1516957D01*
X23942736Y1570861D01*
X23950465Y1579104D01*
X24005438Y1624564D01*
X24067563Y1652617D01*
X24142918Y1665529D01*
X24186417Y1667014D01*
X24269442Y1659855D01*
G37*
G36*
X25743756Y1906642D02*
G01*
X25764909Y1904165D01*
X25781144Y1896815D01*
X25793112Y1881957D01*
X25801462Y1856955D01*
X25806845Y1819174D01*
X25809913Y1765978D01*
X25811314Y1694733D01*
X25811700Y1602801D01*
X25811714Y1523250D01*
X25811698Y1416053D01*
X25811194Y1331397D01*
X25809518Y1266624D01*
X25805985Y1219076D01*
X25799911Y1186096D01*
X25790612Y1165027D01*
X25777404Y1153210D01*
X25759602Y1147989D01*
X25736523Y1146707D01*
X25714765Y1146730D01*
X25670461Y1150928D01*
X25644401Y1164690D01*
X25640235Y1169599D01*
X25623933Y1184785D01*
X25606996Y1178697D01*
X25604578Y1176752D01*
X25567267Y1158350D01*
X25516081Y1149056D01*
X25461238Y1150591D01*
X25455039Y1151560D01*
X25394667Y1172852D01*
X25336646Y1212343D01*
X25289292Y1263747D01*
X25274065Y1288353D01*
X25248716Y1361158D01*
X25247772Y1402914D01*
X25433738Y1402914D01*
X25444369Y1361818D01*
X25471914Y1332463D01*
X25509856Y1317332D01*
X25551675Y1318902D01*
X25590852Y1339655D01*
X25593566Y1342115D01*
X25618258Y1379094D01*
X25618377Y1418652D01*
X25593966Y1457971D01*
X25591801Y1460183D01*
X25553449Y1484308D01*
X25512113Y1488739D01*
X25474155Y1475782D01*
X25445937Y1447742D01*
X25433821Y1406923D01*
X25433738Y1402914D01*
X25247772Y1402914D01*
X25247053Y1434693D01*
X25267999Y1505033D01*
X25310477Y1568253D01*
X25363435Y1613951D01*
X25405770Y1639263D01*
X25443501Y1651490D01*
X25490316Y1654882D01*
X25495354Y1654898D01*
X25549557Y1650670D01*
X25588548Y1638981D01*
X25594724Y1635285D01*
X25622726Y1615672D01*
X25622726Y1733275D01*
X25624530Y1803410D01*
X25631257Y1852156D01*
X25644885Y1883151D01*
X25667388Y1900033D01*
X25700743Y1906438D01*
X25717035Y1906883D01*
X25743756Y1906642D01*
G37*
G36*
X26265311Y4446948D02*
G01*
X26286824Y4437340D01*
X26342968Y4398236D01*
X26376600Y4348128D01*
X26388492Y4285647D01*
X26387513Y4258846D01*
X26372315Y4193534D01*
X26338114Y4143582D01*
X26282546Y4105542D01*
X26282348Y4105444D01*
X26231425Y4080246D01*
X26068817Y3666295D01*
X26030987Y3569977D01*
X25996109Y3481143D01*
X25965247Y3402504D01*
X25939464Y3336774D01*
X25919825Y3286664D01*
X25907392Y3254886D01*
X25903251Y3244222D01*
X25912926Y3236509D01*
X25941397Y3222005D01*
X25983947Y3202971D01*
X26022944Y3186810D01*
X26075514Y3165156D01*
X26120092Y3145815D01*
X26150952Y3131328D01*
X26161342Y3125421D01*
X26175425Y3098978D01*
X26172071Y3055343D01*
X26152340Y2997759D01*
X26134098Y2961532D01*
X26116857Y2944547D01*
X26098794Y2941348D01*
X26077966Y2946531D01*
X26038488Y2960039D01*
X25984841Y2980204D01*
X25921506Y3005355D01*
X25870565Y3026393D01*
X25804327Y3055019D01*
X25746194Y3081699D01*
X25700210Y3104450D01*
X25670423Y3121292D01*
X25661059Y3129006D01*
X25658314Y3135821D01*
X25657359Y3144879D01*
X25658920Y3158222D01*
X25663720Y3177895D01*
X25672483Y3205941D01*
X25685934Y3244404D01*
X25704798Y3295327D01*
X25729798Y3360754D01*
X25761659Y3442728D01*
X25801106Y3543295D01*
X25848862Y3664496D01*
X25868395Y3713999D01*
X26042095Y4154101D01*
X26026865Y4213526D01*
X26023070Y4249035D01*
X26105920Y4249035D01*
X26130921Y4206921D01*
X26139611Y4197683D01*
X26179215Y4170491D01*
X26218819Y4168411D01*
X26258822Y4191471D01*
X26274735Y4207415D01*
X26299012Y4249197D01*
X26298116Y4291913D01*
X26273579Y4333627D01*
X26234749Y4362418D01*
X26191487Y4368221D01*
X26149684Y4351036D01*
X26131000Y4333627D01*
X26105971Y4290880D01*
X26105920Y4249035D01*
X26023070Y4249035D01*
X26019133Y4285864D01*
X26034743Y4349739D01*
X26073352Y4403911D01*
X26081754Y4411694D01*
X26139550Y4448412D01*
X26200786Y4460169D01*
X26265311Y4446948D01*
G37*
G36*
X25100593Y3143110D02*
G01*
X25126859Y3137472D01*
X25164800Y3126182D01*
X25216304Y3108591D01*
X25283260Y3084048D01*
X25367558Y3051906D01*
X25471086Y3011514D01*
X25595734Y2962222D01*
X25615532Y2954354D01*
X26093407Y2764331D01*
X26182496Y2771569D01*
X26231667Y2774526D01*
X26264589Y2772625D01*
X26289981Y2764384D01*
X26315682Y2748918D01*
X26365675Y2701835D01*
X26394366Y2645771D01*
X26401770Y2585182D01*
X26387903Y2524522D01*
X26352779Y2468248D01*
X26314592Y2433135D01*
X26270340Y2412280D01*
X26216556Y2403067D01*
X26165847Y2407157D01*
X26151893Y2411727D01*
X26103921Y2442049D01*
X26062636Y2486187D01*
X26038007Y2532038D01*
X26030896Y2549371D01*
X26019837Y2563715D01*
X26000804Y2577483D01*
X25978513Y2588690D01*
X26114496Y2588690D01*
X26126474Y2543151D01*
X26161468Y2507421D01*
X26170792Y2501664D01*
X26207092Y2487980D01*
X26242038Y2494094D01*
X26256664Y2501103D01*
X26296671Y2534033D01*
X26314361Y2575663D01*
X26308769Y2621491D01*
X26289570Y2654836D01*
X26254872Y2681850D01*
X26214134Y2689255D01*
X26173632Y2679423D01*
X26139645Y2654726D01*
X26118452Y2617536D01*
X26114496Y2588690D01*
X25978513Y2588690D01*
X25969771Y2593085D01*
X25922711Y2612933D01*
X25864476Y2635969D01*
X25801358Y2660689D01*
X25721677Y2691960D01*
X25632310Y2727081D01*
X25540131Y2763350D01*
X25452017Y2798064D01*
X25450371Y2798713D01*
X25196121Y2898961D01*
X25143641Y2771449D01*
X25116245Y2705689D01*
X25095179Y2660314D01*
X25077152Y2632421D01*
X25058874Y2619106D01*
X25037054Y2617463D01*
X25008403Y2624590D01*
X24985789Y2632130D01*
X24945576Y2648540D01*
X24915175Y2665961D01*
X24903660Y2677137D01*
X24902711Y2693702D01*
X24910234Y2726005D01*
X24926833Y2775895D01*
X24953110Y2845222D01*
X24981811Y2916667D01*
X25010105Y2985610D01*
X25035180Y3046132D01*
X25055478Y3094514D01*
X25069438Y3127043D01*
X25075502Y3140001D01*
X25075527Y3140030D01*
X25084112Y3143746D01*
X25100593Y3143110D01*
G37*
G36*
X23697057Y1863294D02*
G01*
X23730042Y1849472D01*
X23738667Y1842791D01*
X23745310Y1834277D01*
X23750230Y1820838D01*
X23753685Y1799381D01*
X23755934Y1766812D01*
X23757235Y1720039D01*
X23757848Y1655968D01*
X23758032Y1571507D01*
X23758044Y1514764D01*
X23757531Y1415676D01*
X23756060Y1330066D01*
X23753731Y1260605D01*
X23750645Y1209960D01*
X23746902Y1180803D01*
X23745291Y1175843D01*
X23721150Y1154489D01*
X23682813Y1143395D01*
X23639754Y1144173D01*
X23611075Y1153022D01*
X23575355Y1170114D01*
X23569055Y1365259D01*
X23562756Y1560404D01*
X23480861Y1457392D01*
X23442999Y1412454D01*
X23406839Y1374209D01*
X23377420Y1347760D01*
X23364318Y1339321D01*
X23333201Y1331497D01*
X23302216Y1337405D01*
X23268175Y1359071D01*
X23227891Y1398519D01*
X23178480Y1457392D01*
X23096585Y1560404D01*
X23090286Y1365461D01*
X23087772Y1291516D01*
X23085305Y1238756D01*
X23082164Y1203176D01*
X23077634Y1180774D01*
X23070996Y1167548D01*
X23061534Y1159494D01*
X23052488Y1154610D01*
X23019156Y1142199D01*
X22984707Y1141953D01*
X22957994Y1147155D01*
X22941314Y1152226D01*
X22928266Y1160612D01*
X22918405Y1175168D01*
X22911287Y1198748D01*
X22906469Y1234209D01*
X22903506Y1284406D01*
X22901954Y1352194D01*
X22901369Y1440428D01*
X22901298Y1511701D01*
X22901353Y1609323D01*
X22901690Y1684823D01*
X22902563Y1741277D01*
X22904227Y1781762D01*
X22906938Y1809353D01*
X22910950Y1827128D01*
X22916518Y1838161D01*
X22923898Y1845530D01*
X22929299Y1849472D01*
X22974080Y1866764D01*
X23025660Y1865250D01*
X23055045Y1855329D01*
X23073159Y1840949D01*
X23103299Y1810760D01*
X23141808Y1768676D01*
X23185025Y1718608D01*
X23202304Y1697839D01*
X23244480Y1647305D01*
X23281266Y1604546D01*
X23309632Y1572985D01*
X23326545Y1556046D01*
X23329616Y1554105D01*
X23340365Y1563305D01*
X23364062Y1588671D01*
X23397718Y1626846D01*
X23438346Y1674475D01*
X23461468Y1702146D01*
X23505638Y1754334D01*
X23545590Y1799622D01*
X23577989Y1834374D01*
X23599499Y1854950D01*
X23605039Y1858750D01*
X23649594Y1867692D01*
X23697057Y1863294D01*
G37*
G36*
X24613639Y4439633D02*
G01*
X24652388Y4421799D01*
X24690632Y4392455D01*
X24721757Y4358114D01*
X24739149Y4325287D01*
X24740782Y4314435D01*
X24748721Y4287758D01*
X24756531Y4278253D01*
X24774090Y4268615D01*
X24810981Y4251763D01*
X24863936Y4228988D01*
X24929687Y4201578D01*
X25004965Y4170824D01*
X25086503Y4138015D01*
X25171033Y4104441D01*
X25255286Y4071391D01*
X25335995Y4040155D01*
X25409892Y4012023D01*
X25473708Y3988284D01*
X25524176Y3970228D01*
X25558027Y3959145D01*
X25571994Y3956324D01*
X25572099Y3956409D01*
X25580589Y3971930D01*
X25595914Y4005278D01*
X25615574Y4050876D01*
X25629031Y4083314D01*
X25651083Y4134480D01*
X25671704Y4177458D01*
X25687961Y4206367D01*
X25694444Y4214548D01*
X25716449Y4219382D01*
X25752428Y4215234D01*
X25793836Y4204425D01*
X25832128Y4189279D01*
X25858756Y4172117D01*
X25861525Y4169147D01*
X25864926Y4158016D01*
X25862360Y4137384D01*
X25852920Y4104407D01*
X25835696Y4056243D01*
X25809781Y3990050D01*
X25784078Y3926825D01*
X25751697Y3848590D01*
X25726885Y3790731D01*
X25707969Y3750179D01*
X25693280Y3723867D01*
X25681147Y3708727D01*
X25669898Y3701692D01*
X25660456Y3699840D01*
X25628289Y3700833D01*
X25610127Y3704905D01*
X25594557Y3711224D01*
X25558332Y3726000D01*
X25504116Y3748146D01*
X25434573Y3776571D01*
X25352368Y3810186D01*
X25260165Y3847903D01*
X25160628Y3888633D01*
X25143956Y3895456D01*
X24696684Y4078511D01*
X24587483Y4079379D01*
X24533082Y4080514D01*
X24497161Y4083885D01*
X24473016Y4091010D01*
X24453940Y4103409D01*
X24444545Y4111744D01*
X24399089Y4167873D01*
X24377580Y4229802D01*
X24375635Y4256635D01*
X24463599Y4256635D01*
X24473726Y4208056D01*
X24500400Y4173827D01*
X24538061Y4156203D01*
X24581148Y4157442D01*
X24624101Y4179800D01*
X24633058Y4187853D01*
X24651793Y4221416D01*
X24657230Y4264568D01*
X24648744Y4305160D01*
X24639876Y4319766D01*
X24600841Y4348786D01*
X24553286Y4355303D01*
X24526801Y4349312D01*
X24486668Y4325100D01*
X24466604Y4286373D01*
X24463599Y4256635D01*
X24375635Y4256635D01*
X24375452Y4259159D01*
X24384664Y4308770D01*
X24408264Y4360638D01*
X24440328Y4402641D01*
X24449445Y4410548D01*
X24498068Y4434757D01*
X24556988Y4445111D01*
X24613639Y4439633D01*
G37*
G36*
X24683737Y3892703D02*
G01*
X24722598Y3879469D01*
X24774421Y3859847D01*
X24834475Y3835829D01*
X24898027Y3809408D01*
X24960343Y3782577D01*
X25016691Y3757327D01*
X25062338Y3735651D01*
X25092552Y3719541D01*
X25102059Y3712550D01*
X25106229Y3707566D01*
X25109349Y3702558D01*
X25110696Y3695465D01*
X25109547Y3684226D01*
X25105179Y3666783D01*
X25096871Y3641074D01*
X25083898Y3605040D01*
X25065540Y3556620D01*
X25041071Y3493754D01*
X25009771Y3414383D01*
X24970917Y3316445D01*
X24923784Y3197880D01*
X24904488Y3149340D01*
X24858911Y3034569D01*
X24821898Y2940859D01*
X24792684Y2865865D01*
X24770502Y2807243D01*
X24754587Y2762646D01*
X24744172Y2729730D01*
X24738491Y2706148D01*
X24736778Y2689557D01*
X24738266Y2677610D01*
X24742189Y2667962D01*
X24745377Y2662327D01*
X24764182Y2608086D01*
X24764926Y2546817D01*
X24749371Y2486364D01*
X24719274Y2434569D01*
X24687836Y2405873D01*
X24649885Y2390050D01*
X24600410Y2380275D01*
X24552775Y2378628D01*
X24532895Y2381748D01*
X24474228Y2409568D01*
X24431873Y2455053D01*
X24407738Y2515190D01*
X24405966Y2545594D01*
X24488499Y2545594D01*
X24503863Y2506403D01*
X24521995Y2487361D01*
X24566176Y2464469D01*
X24609545Y2466611D01*
X24637980Y2481418D01*
X24670274Y2516491D01*
X24682609Y2557617D01*
X24676786Y2598742D01*
X24654605Y2633817D01*
X24617867Y2656790D01*
X24584104Y2662434D01*
X24541272Y2652257D01*
X24509518Y2625043D01*
X24491156Y2587315D01*
X24488499Y2545594D01*
X24405966Y2545594D01*
X24403627Y2585735D01*
X24408307Y2625007D01*
X24417615Y2652875D01*
X24436384Y2678264D01*
X24469448Y2710099D01*
X24472441Y2712816D01*
X24489579Y2728751D01*
X24504504Y2744473D01*
X24518500Y2762632D01*
X24532853Y2785879D01*
X24548846Y2816864D01*
X24567763Y2858236D01*
X24590889Y2912645D01*
X24619508Y2982741D01*
X24654904Y3071174D01*
X24694813Y3171650D01*
X24732379Y3266784D01*
X24766790Y3354774D01*
X24796973Y3432809D01*
X24821854Y3498076D01*
X24840359Y3547763D01*
X24851414Y3579060D01*
X24854174Y3588894D01*
X24843268Y3599793D01*
X24813690Y3617501D01*
X24770147Y3639435D01*
X24725033Y3659748D01*
X24667564Y3685050D01*
X24629570Y3703988D01*
X24607000Y3719227D01*
X24595802Y3733432D01*
X24592140Y3747175D01*
X24594612Y3781671D01*
X24606500Y3821549D01*
X24624247Y3859215D01*
X24644298Y3887079D01*
X24662573Y3897557D01*
X24683737Y3892703D01*
G37*
D13*
X42053742Y41314900D02*
X42528258Y41314900D01*
X42053742Y40269900D02*
X42528258Y40269900D01*
D11*
X2767998Y24511000D02*
G75*
G02*
X2668000Y24511000I-49999J0D01*
G01*
X2668000Y24511000D02*
G75*
G02*
X2767998Y24511000I49999J0D01*
G01*
D13*
X7369000Y5213000D02*
X7369000Y7213000D01*
X9649000Y5223000D02*
X9649000Y7223000D01*
X7439000Y4573000D02*
X7159000Y4853000D01*
X7439000Y4853000D01*
X7439000Y4573000D01*
G36*
X7439000Y4573000D02*
G01*
X7159000Y4853000D01*
X7439000Y4853000D01*
X7439000Y4573000D01*
G37*
X16658000Y48068619D02*
X16658000Y48349781D01*
X17678000Y48068619D02*
X17678000Y48349781D01*
X4839581Y7749000D02*
X4558419Y7749000D01*
X4839581Y6729000D02*
X4558419Y6729000D01*
X15187200Y10554581D02*
X15187200Y10273419D01*
X16207200Y10554581D02*
X16207200Y10273419D01*
X10554581Y19941000D02*
X10273419Y19941000D01*
X10554581Y18921000D02*
X10273419Y18921000D01*
X13616000Y15709000D02*
X13616000Y13424000D01*
X15086000Y15709000D02*
X13616000Y15709000D01*
X15086000Y13424000D02*
X15086000Y15709000D01*
X10554581Y23751000D02*
X10273419Y23751000D01*
X10554581Y22731000D02*
X10273419Y22731000D01*
X1484266Y39082200D02*
X2894266Y39082200D01*
X1494266Y36762200D02*
X2894266Y36762200D01*
X1114266Y39032200D02*
X874266Y39362200D01*
X1354266Y39362200D01*
X1114266Y39032200D01*
G36*
X1114266Y39032200D02*
G01*
X874266Y39362200D01*
X1354266Y39362200D01*
X1114266Y39032200D01*
G37*
X35100800Y15442019D02*
X35100800Y15723181D01*
X36120800Y15442019D02*
X36120800Y15723181D01*
X43196742Y38368500D02*
X43671258Y38368500D01*
X43196742Y37323500D02*
X43671258Y37323500D01*
X31523000Y2578000D02*
X31523000Y293000D01*
X31523000Y293000D02*
X32993000Y293000D01*
X32993000Y293000D02*
X32993000Y2578000D01*
X24928300Y13986742D02*
X24928300Y14461258D01*
X25973300Y13986742D02*
X25973300Y14461258D01*
X19960000Y48068619D02*
X19960000Y48349781D01*
X20980000Y48068619D02*
X20980000Y48349781D01*
X13270620Y6860000D02*
X13551780Y6860000D01*
X13270620Y5840000D02*
X13551780Y5840000D01*
X43196742Y36971500D02*
X43671258Y36971500D01*
X43196742Y35926500D02*
X43671258Y35926500D01*
X5790000Y25381378D02*
X5790000Y26180622D01*
X6910000Y25381378D02*
X6910000Y26180622D01*
X37491600Y45889400D02*
X38901600Y45889400D01*
X37501600Y43569400D02*
X38901600Y43569400D01*
X37121600Y45839400D02*
X36881600Y46169400D01*
X37361600Y46169400D01*
X37121600Y45839400D01*
G36*
X37121600Y45839400D02*
G01*
X36881600Y46169400D01*
X37361600Y46169400D01*
X37121600Y45839400D01*
G37*
X13587000Y2286581D02*
X13587000Y2005419D01*
X14607000Y2286581D02*
X14607000Y2005419D01*
X37354742Y25922500D02*
X37829258Y25922500D01*
X37354742Y24877500D02*
X37829258Y24877500D01*
D11*
X2767998Y25527000D02*
G75*
G02*
X2668000Y25527000I-49999J0D01*
G01*
X2668000Y25527000D02*
G75*
G02*
X2767998Y25527000I49999J0D01*
G01*
D13*
X30846500Y44720742D02*
X30846500Y45195258D01*
X31891500Y44720742D02*
X31891500Y45195258D01*
X46818000Y13302000D02*
X46818000Y12499530D01*
X46818000Y11884470D02*
X46818000Y11082000D01*
X48023000Y13302000D02*
X46818000Y13302000D01*
X48023000Y13302000D02*
X48023000Y12755471D01*
X48023000Y11628529D02*
X48023000Y11082000D01*
X48023000Y11082000D02*
X46818000Y11082000D01*
X48783000Y13302001D02*
X49543000Y13302000D01*
X49543000Y13302000D02*
X49543000Y12192000D01*
X43196742Y35574500D02*
X43671258Y35574500D01*
X43196742Y34529500D02*
X43671258Y34529500D01*
X38292000Y28846000D02*
X36892000Y28846000D01*
X38302000Y26526000D02*
X36892000Y26526000D01*
X38912000Y26246000D02*
X38432000Y26246000D01*
X38672000Y26576000D01*
X38912000Y26246000D01*
G36*
X38912000Y26246000D02*
G01*
X38432000Y26246000D01*
X38672000Y26576000D01*
X38912000Y26246000D01*
G37*
X4062000Y31890581D02*
X4062000Y31609419D01*
X5082000Y31890581D02*
X5082000Y31609419D01*
X24834200Y48609364D02*
X24834200Y48825036D01*
X25554200Y48609364D02*
X25554200Y48825036D01*
X47206000Y6123000D02*
X49491000Y6123000D01*
X49491000Y7593000D02*
X47206000Y7593000D01*
X49491000Y6123000D02*
X49491000Y7593000D01*
X16635000Y2299581D02*
X16635000Y2018419D01*
X17655000Y2299581D02*
X17655000Y2018419D01*
X5878244Y36953501D02*
X5078244Y36953500D01*
X5878244Y36953501D02*
X6678244Y36953500D01*
X5878244Y33833499D02*
X5078244Y33833500D01*
X5878244Y33833499D02*
X6678244Y33833500D01*
X7418244Y33553500D02*
X6938244Y33553500D01*
X7178244Y33883500D01*
X7418244Y33553500D01*
G36*
X7418244Y33553500D02*
G01*
X6938244Y33553500D01*
X7178244Y33883500D01*
X7418244Y33553500D01*
G37*
X32539999Y36069919D02*
X32539999Y36351081D01*
X33559999Y36069919D02*
X33559999Y36351081D01*
X21359400Y43447581D02*
X21359400Y43166419D01*
X22379400Y43447581D02*
X22379400Y43166419D01*
X44593742Y15000500D02*
X45068258Y15000500D01*
X44593742Y13955500D02*
X45068258Y13955500D01*
X37082000Y17285581D02*
X37082000Y17004419D01*
X38102000Y17285581D02*
X38102000Y17004419D01*
X32327200Y48609364D02*
X32327200Y48825036D01*
X33047200Y48609364D02*
X33047200Y48825036D01*
X13270620Y9908000D02*
X13551780Y9908000D01*
X13270620Y8888000D02*
X13551780Y8888000D01*
X40504001Y3623000D02*
X40504001Y5623000D01*
X42784001Y3633000D02*
X42784001Y5633000D01*
X40574001Y2983000D02*
X40294001Y3263000D01*
X40574001Y3263000D01*
X40574001Y2983000D01*
G36*
X40574001Y2983000D02*
G01*
X40294001Y3263000D01*
X40574001Y3263000D01*
X40574001Y2983000D01*
G37*
X41148000Y18578000D02*
X40348000Y18578000D01*
X41148000Y18578000D02*
X41948000Y18578000D01*
X41148000Y15458000D02*
X40348000Y15458000D01*
X41148000Y15458000D02*
X41948000Y15458000D01*
X39848000Y18528000D02*
X39608000Y18858000D01*
X40088000Y18858000D01*
X39848000Y18528000D01*
G36*
X39848000Y18528000D02*
G01*
X39608000Y18858000D01*
X40088000Y18858000D01*
X39848000Y18528000D01*
G37*
X44257999Y41242000D02*
X44257999Y40439530D01*
X44257999Y39824470D02*
X44257999Y39022000D01*
X48003000Y41242000D02*
X44257999Y41242000D01*
X48003000Y41242000D02*
X48003000Y40695471D01*
X48003000Y39568529D02*
X48003000Y39022000D01*
X48003000Y39022000D02*
X44257999Y39022000D01*
X48763000Y41242001D02*
X49523000Y41242000D01*
X49523000Y41242000D02*
X49523000Y40132000D01*
X37451419Y20068000D02*
X37732581Y20068000D01*
X37451419Y19048000D02*
X37732581Y19048000D01*
X24992500Y43037001D02*
X27792500Y43037001D01*
X24992500Y41037001D02*
X24992500Y43037001D01*
X27792500Y43037001D02*
X27792500Y41037001D01*
X27792500Y41037001D02*
X24992500Y41037001D01*
X42710583Y32641000D02*
X42429421Y32641000D01*
X42710583Y31621000D02*
X42429421Y31621000D01*
X8634000Y39129581D02*
X8634000Y38848419D01*
X9654000Y39129581D02*
X9654000Y38848419D01*
X6971420Y23751000D02*
X7252580Y23751000D01*
X6971420Y22731000D02*
X7252580Y22731000D01*
X2396258Y33034500D02*
X1921742Y33034500D01*
X2396258Y31989500D02*
X1921742Y31989500D01*
X44593742Y7380500D02*
X45068258Y7380500D01*
X44593742Y6335500D02*
X45068258Y6335500D01*
X47206000Y7524037D02*
X49491000Y7524037D01*
X49491000Y8994037D02*
X47206000Y8994037D01*
X49491000Y7524037D02*
X49491000Y8994037D01*
X7958483Y43039017D02*
X5958483Y43039017D01*
X7968483Y40759017D02*
X5968483Y40759017D01*
X8328483Y40549017D02*
X8328483Y40829017D01*
X8608483Y40829017D01*
X8328483Y40549017D01*
G36*
X8328483Y40549017D02*
G01*
X8328483Y40829017D01*
X8608483Y40829017D01*
X8328483Y40549017D01*
G37*
X18617000Y37446378D02*
X18617000Y38245622D01*
X19737000Y37446378D02*
X19737000Y38245622D01*
X34946000Y41893336D02*
X34946000Y41677664D01*
X35666000Y41893336D02*
X35666000Y41677664D01*
X10653500Y16526742D02*
X10653500Y17001258D01*
X11698500Y16526742D02*
X11698500Y17001258D01*
X4715742Y15762500D02*
X5190258Y15762500D01*
X4715742Y14717500D02*
X5190258Y14717500D01*
X8368420Y12321000D02*
X8649580Y12321000D01*
X8368420Y11301000D02*
X8649580Y11301000D01*
X22845500Y37829258D02*
X22845500Y37354742D01*
X23890500Y37829258D02*
X23890500Y37354742D01*
X32153962Y45807750D02*
X32153962Y43522750D01*
X32153962Y43522750D02*
X33623962Y43522750D01*
X33623962Y43522750D02*
X33623962Y45807750D01*
X9523000Y2526419D02*
X9523000Y2807581D01*
X10543000Y2526419D02*
X10543000Y2807581D01*
X45533001Y38956000D02*
X45533001Y38153530D01*
X45533001Y37538470D02*
X45533001Y36736000D01*
X48008001Y38956000D02*
X45533001Y38956000D01*
X48008001Y38956000D02*
X48008001Y38409471D01*
X48008001Y37282529D02*
X48008001Y36736000D01*
X48008001Y36736000D02*
X45533001Y36736000D01*
X48768001Y38956001D02*
X49528001Y38956000D01*
X49528001Y38956000D02*
X49528001Y37846000D01*
X18159000Y2299581D02*
X18159000Y2018419D01*
X19179000Y2299581D02*
X19179000Y2018419D01*
X941000Y9148578D02*
X941000Y8631422D01*
X2361000Y9148578D02*
X2361000Y8631422D01*
X14994500Y47971942D02*
X14994500Y48446458D01*
X16039500Y47971942D02*
X16039500Y48446458D01*
X44593742Y17286500D02*
X45068258Y17286500D01*
X44593742Y16241500D02*
X45068258Y16241500D01*
X43196742Y34177500D02*
X43671258Y34177500D01*
X43196742Y33132500D02*
X43671258Y33132500D01*
X31735500Y5063258D02*
X31735500Y4588742D01*
X32780500Y5063258D02*
X32780500Y4588742D01*
X24450800Y12449000D02*
X26450800Y12449000D01*
X24450800Y9649000D02*
X24450800Y12449000D01*
X26450800Y12449000D02*
X26450800Y9649000D01*
X26450800Y9649000D02*
X24450800Y9649000D01*
X15479500Y14461258D02*
X15479500Y13986742D01*
X16524500Y14461258D02*
X16524500Y13986742D01*
%LPC*%
D16*
X46337001Y27414000D02*
X45286999Y27414000D01*
X45287000Y27814000D01*
X46337000Y27814000D01*
X46337001Y27414000D01*
G36*
X46337001Y27414000D02*
G01*
X45286999Y27414000D01*
X45287000Y27814000D01*
X46337000Y27814000D01*
X46337001Y27414000D01*
G37*
X46337000Y31414001D02*
X45287000Y31414001D01*
X45287000Y31814000D01*
X46337000Y31814000D01*
X46337000Y31414001D01*
G36*
X46337000Y31414001D02*
G01*
X45287000Y31414001D01*
X45287000Y31814000D01*
X46337000Y31814000D01*
X46337000Y31414001D01*
G37*
X46337000Y30914000D02*
X45287000Y30914000D01*
X45287000Y31314000D01*
X46337000Y31314000D01*
X46337000Y30914000D01*
G36*
X46337000Y30914000D02*
G01*
X45287000Y30914000D01*
X45287000Y31314000D01*
X46337000Y31314000D01*
X46337000Y30914000D01*
G37*
X46337001Y30814000D02*
X46337000Y30414000D01*
X45287000Y30414000D01*
X45287000Y30814001D01*
X46337001Y30814000D01*
G36*
X46337001Y30814000D02*
G01*
X46337000Y30414000D01*
X45287000Y30414000D01*
X45287000Y30814001D01*
X46337001Y30814000D01*
G37*
X46337001Y29914000D02*
X45287000Y29913999D01*
X45287000Y30314000D01*
X46337000Y30314000D01*
X46337001Y29914000D01*
G36*
X46337001Y29914000D02*
G01*
X45287000Y29913999D01*
X45287000Y30314000D01*
X46337000Y30314000D01*
X46337001Y29914000D01*
G37*
X46337000Y29414000D02*
X45287000Y29414000D01*
X45287000Y29814000D01*
X46337000Y29814000D01*
X46337000Y29414000D01*
G36*
X46337000Y29414000D02*
G01*
X45287000Y29414000D01*
X45287000Y29814000D01*
X46337000Y29814000D01*
X46337000Y29414000D01*
G37*
X46337000Y28914000D02*
X45287000Y28914000D01*
X45287000Y29313999D01*
X46337000Y29313999D01*
X46337000Y28914000D01*
G36*
X46337000Y28914000D02*
G01*
X45287000Y28914000D01*
X45287000Y29313999D01*
X46337000Y29313999D01*
X46337000Y28914000D01*
G37*
X46337000Y28414000D02*
X45287000Y28414000D01*
X45287000Y28814000D01*
X46337000Y28814000D01*
X46337000Y28414000D01*
G36*
X46337000Y28414000D02*
G01*
X45287000Y28414000D01*
X45287000Y28814000D01*
X46337000Y28814000D01*
X46337000Y28414000D01*
G37*
X46337000Y27914000D02*
X45287000Y27914000D01*
X45287000Y28314001D01*
X46337000Y28314001D01*
X46337000Y27914000D01*
G36*
X46337000Y27914000D02*
G01*
X45287000Y27914000D01*
X45287000Y28314001D01*
X46337000Y28314001D01*
X46337000Y27914000D01*
G37*
X46337000Y26914000D02*
X45287000Y26914000D01*
X45287000Y27314000D01*
X46337000Y27314000D01*
X46337000Y26914000D01*
G36*
X46337000Y26914000D02*
G01*
X45287000Y26914000D01*
X45287000Y27314000D01*
X46337000Y27314000D01*
X46337000Y26914000D01*
G37*
X46337000Y26414000D02*
X45287000Y26414000D01*
X45287000Y26813999D01*
X46337001Y26814000D01*
X46337000Y26414000D01*
G36*
X46337000Y26414000D02*
G01*
X45287000Y26414000D01*
X45287000Y26813999D01*
X46337001Y26814000D01*
X46337000Y26414000D01*
G37*
X46337000Y25914000D02*
X45287000Y25914000D01*
X45287000Y26314000D01*
X46337000Y26314000D01*
X46337000Y25914000D01*
G36*
X46337000Y25914000D02*
G01*
X45287000Y25914000D01*
X45287000Y26314000D01*
X46337000Y26314000D01*
X46337000Y25914000D01*
G37*
X46337000Y25414000D02*
X45287000Y25414000D01*
X45287000Y25814000D01*
X46337000Y25814000D01*
X46337000Y25414000D01*
G36*
X46337000Y25414000D02*
G01*
X45287000Y25414000D01*
X45287000Y25814000D01*
X46337000Y25814000D01*
X46337000Y25414000D01*
G37*
X46337001Y24914000D02*
X45287000Y24914001D01*
X45287000Y25314000D01*
X46337000Y25314000D01*
X46337001Y24914000D01*
G36*
X46337001Y24914000D02*
G01*
X45287000Y24914001D01*
X45287000Y25314000D01*
X46337000Y25314000D01*
X46337001Y24914000D01*
G37*
X46337000Y24414000D02*
X45287000Y24414000D01*
X45287000Y24814000D01*
X46337000Y24814000D01*
X46337000Y24414000D01*
G36*
X46337000Y24414000D02*
G01*
X45287000Y24414000D01*
X45287000Y24814000D01*
X46337000Y24814000D01*
X46337000Y24414000D01*
G37*
X46337000Y23914000D02*
X45287000Y23914000D01*
X45286999Y24314000D01*
X46337001Y24314000D01*
X46337000Y23914000D01*
G36*
X46337000Y23914000D02*
G01*
X45287000Y23914000D01*
X45286999Y24314000D01*
X46337001Y24314000D01*
X46337000Y23914000D01*
G37*
X46337000Y23413999D02*
X45287000Y23413999D01*
X45287000Y23814000D01*
X46337000Y23814000D01*
X46337000Y23413999D01*
G36*
X46337000Y23413999D02*
G01*
X45287000Y23413999D01*
X45287000Y23814000D01*
X46337000Y23814000D01*
X46337000Y23413999D01*
G37*
X46337000Y22914000D02*
X45287000Y22914000D01*
X45287000Y23314000D01*
X46337000Y23314000D01*
X46337000Y22914000D01*
G36*
X46337000Y22914000D02*
G01*
X45287000Y22914000D01*
X45287000Y23314000D01*
X46337000Y23314000D01*
X46337000Y22914000D01*
G37*
X46337000Y22414001D02*
X45287000Y22414001D01*
X45287000Y22814000D01*
X46337000Y22814000D01*
X46337000Y22414001D01*
G36*
X46337000Y22414001D02*
G01*
X45287000Y22414001D01*
X45287000Y22814000D01*
X46337000Y22814000D01*
X46337000Y22414001D01*
G37*
X46337000Y21914000D02*
X45287000Y21914000D01*
X45287000Y22314000D01*
X46337000Y22314000D01*
X46337000Y21914000D01*
G36*
X46337000Y21914000D02*
G01*
X45287000Y21914000D01*
X45287000Y22314000D01*
X46337000Y22314000D01*
X46337000Y21914000D01*
G37*
X46337001Y21814000D02*
X46337000Y21414000D01*
X45287000Y21414000D01*
X45287000Y21814001D01*
X46337001Y21814000D01*
G36*
X46337001Y21814000D02*
G01*
X46337000Y21414000D01*
X45287000Y21414000D01*
X45287000Y21814001D01*
X46337001Y21814000D01*
G37*
X46337001Y20914000D02*
X45287000Y20913999D01*
X45287000Y21314000D01*
X46337000Y21314000D01*
X46337001Y20914000D01*
G36*
X46337001Y20914000D02*
G01*
X45287000Y20913999D01*
X45287000Y21314000D01*
X46337000Y21314000D01*
X46337001Y20914000D01*
G37*
X46337000Y20414000D02*
X45287000Y20414000D01*
X45287000Y20814000D01*
X46337000Y20814000D01*
X46337000Y20414000D01*
G36*
X46337000Y20414000D02*
G01*
X45287000Y20414000D01*
X45287000Y20814000D01*
X46337000Y20814000D01*
X46337000Y20414000D01*
G37*
X46337000Y19914000D02*
X45287000Y19914000D01*
X45287000Y20313999D01*
X46337000Y20313999D01*
X46337000Y19914000D01*
G36*
X46337000Y19914000D02*
G01*
X45287000Y19914000D01*
X45287000Y20313999D01*
X46337000Y20313999D01*
X46337000Y19914000D01*
G37*
D17*
X31610000Y41277500D03*
X33160000Y41277500D03*
D18*
X15726000Y40808000D03*
X17376000Y40808000D03*
D19*
X37465000Y33604200D03*
X37465000Y31954200D03*
D20*
X43345001Y24583000D03*
X41795001Y24583000D03*
X11189000Y20828000D03*
X9639000Y20828000D03*
D21*
X9474534Y8875000D03*
X9474533Y9525000D03*
X9474534Y10175000D03*
X7574534Y10175000D03*
X7574535Y9525000D03*
X7574534Y8875000D03*
D22*
X27076200Y48209200D03*
X26106200Y48209200D03*
D23*
X8266000Y26792000D03*
X8266000Y25842000D03*
X8266000Y24892000D03*
X10541000Y24892000D03*
X10541000Y26792000D03*
D24*
X18819000Y47384200D03*
X18819000Y49034200D03*
D25*
X43256200Y46088000D03*
X43256200Y47638000D03*
D26*
X10890001Y29464000D03*
X6889999Y29464000D03*
D20*
X43066000Y42570400D03*
X41516000Y42570400D03*
D25*
X38989000Y977600D03*
X38989000Y2527600D03*
D18*
X5652000Y37973000D03*
X7302000Y37973000D03*
D27*
X19685000Y5380000D03*
X19685000Y6350000D03*
D25*
X1524000Y40754000D03*
X1524000Y42304000D03*
D28*
X1371500Y30861000D03*
X2946500Y30861000D03*
D29*
X48783000Y16764000D03*
D30*
X47512999Y16764000D03*
D24*
X12215000Y47384200D03*
X12215000Y49034200D03*
D17*
X40246000Y8255000D03*
X41796000Y8255000D03*
D31*
X47066200Y3048000D03*
D32*
X47066200Y3048000D03*
D19*
X40030000Y30226000D03*
X40030000Y28576000D03*
X21209000Y12255000D03*
X21209000Y10605000D03*
D20*
X18047000Y8153400D03*
X16497000Y8153400D03*
D29*
X48783000Y10033000D03*
D30*
X47512999Y10033000D03*
D22*
X11163000Y22098000D03*
X10193000Y22098000D03*
D20*
X11554000Y32361000D03*
X10004000Y32361000D03*
D33*
X48387000Y18989000D03*
X48387000Y32839000D03*
D25*
X8890000Y34404000D03*
X8890000Y35954000D03*
D34*
X35448000Y4506000D03*
X34798000Y4505999D03*
X34148000Y4506000D03*
X34148000Y2606000D03*
X34798000Y2606001D03*
X35448000Y2606000D03*
D25*
X22733000Y6350000D03*
X22733000Y7900000D03*
D20*
X43320000Y21463000D03*
X41770000Y21463000D03*
X43345001Y26107000D03*
X41795001Y26107000D03*
D35*
X10693400Y43865800D03*
D17*
X6083000Y39751000D03*
X7633000Y39751000D03*
D24*
X22758400Y10605000D03*
X22758400Y12255000D03*
D28*
X19993000Y40808000D03*
X21568000Y40808000D03*
D36*
X39090600Y33553400D03*
X39090600Y31978398D03*
D25*
X35843999Y35435500D03*
X35843999Y36985500D03*
D37*
X34566800Y49174400D03*
X33606800Y49174400D03*
D35*
X43840400Y5232400D03*
D38*
X33075000Y19527000D03*
X33075000Y20027000D03*
X33075000Y20527001D03*
X33075000Y21027000D03*
X33075000Y21526999D03*
X33075000Y22027000D03*
X33075000Y22527000D03*
X33075000Y23027001D03*
X33075000Y23527000D03*
X33075000Y24027000D03*
X33075000Y24527000D03*
X33075000Y25027000D03*
X33075001Y25527000D03*
X33075000Y26027000D03*
X33075000Y26527000D03*
X33075000Y27027000D03*
X33075000Y27527000D03*
X33075000Y28026999D03*
X33075000Y28527000D03*
X33075000Y29027000D03*
X33075000Y29527001D03*
X33075000Y30027000D03*
X33075000Y30526999D03*
X33075000Y31027000D03*
X33075000Y31527000D03*
D39*
X31400000Y33202000D03*
X30900000Y33202000D03*
X30399999Y33202000D03*
X29900000Y33202000D03*
X29400001Y33202000D03*
X28900000Y33202000D03*
X28400000Y33202000D03*
X27899999Y33202000D03*
X27400000Y33202000D03*
X26900000Y33202000D03*
X26400000Y33202000D03*
X25900000Y33202000D03*
X25400000Y33202001D03*
X24900000Y33202000D03*
X24400000Y33202000D03*
X23900000Y33202000D03*
X23400000Y33202000D03*
X22900001Y33202000D03*
X22400000Y33202000D03*
X21900000Y33202000D03*
X21399999Y33202000D03*
X20900000Y33202000D03*
X20400001Y33202000D03*
X19900000Y33202000D03*
X19400000Y33202000D03*
D38*
X17725000Y31527000D03*
X17725000Y31027000D03*
X17725000Y30526999D03*
X17725000Y30027000D03*
X17725000Y29527001D03*
X17725000Y29027000D03*
X17725000Y28527000D03*
X17725000Y28026999D03*
X17725000Y27527000D03*
X17725000Y27027000D03*
X17725000Y26527000D03*
X17725000Y26027000D03*
X17724999Y25527000D03*
X17725000Y25027000D03*
X17725000Y24527000D03*
X17725000Y24027000D03*
X17725000Y23527000D03*
X17725000Y23027001D03*
X17725000Y22527000D03*
X17725000Y22027000D03*
X17725000Y21526999D03*
X17725000Y21027000D03*
X17725000Y20527001D03*
X17725000Y20027000D03*
X17725000Y19527000D03*
D39*
X19400000Y17852000D03*
X19900000Y17852000D03*
X20400001Y17852000D03*
X20900000Y17852000D03*
X21399999Y17852000D03*
X21900000Y17852000D03*
X22400000Y17852000D03*
X22900001Y17852000D03*
X23400000Y17852000D03*
X23900000Y17852000D03*
X24400000Y17852000D03*
X24900000Y17852000D03*
X25400000Y17851999D03*
X25900000Y17852000D03*
X26400000Y17852000D03*
X26900000Y17852000D03*
X27400000Y17852000D03*
X27899999Y17852000D03*
X28400000Y17852000D03*
X28900000Y17852000D03*
X29400001Y17852000D03*
X29900000Y17852000D03*
X30399999Y17852000D03*
X30900000Y17852000D03*
X31400000Y17852000D03*
D40*
X3160000Y40579000D03*
X3810000Y40579001D03*
X4460000Y40579000D03*
X4460000Y42479000D03*
X3810000Y42478999D03*
X3160000Y42479000D03*
D41*
X36387000Y42265500D03*
X36387000Y41305500D03*
D42*
X7937000Y19430999D03*
X6287000Y19430999D03*
D19*
X21844000Y38417000D03*
X21844000Y36767000D03*
D25*
X34446999Y35435500D03*
X34446999Y36985500D03*
D43*
X41982901Y46119500D03*
X41482900Y46119500D03*
X40982900Y46119500D03*
X40482899Y46119500D03*
X40482899Y44219500D03*
X40982900Y44219500D03*
X41482900Y44219500D03*
X41982901Y44219500D03*
D44*
X41232900Y45169500D03*
D18*
X44006000Y9779000D03*
X45656000Y9779000D03*
D45*
X15341600Y44082000D03*
X15341600Y42532000D03*
X38989000Y5550200D03*
X38989000Y4000200D03*
D42*
X27241000Y39878000D03*
X25591000Y39878000D03*
D20*
X38722600Y48133000D03*
X37172600Y48133000D03*
D46*
X37169000Y22417000D03*
X37169000Y21017000D03*
X38269000Y21017000D03*
X38269000Y22417000D03*
D17*
X12636200Y7874000D03*
X14186200Y7874000D03*
X36817000Y23876000D03*
X38367000Y23876000D03*
D19*
X23444200Y44132000D03*
X23444200Y42482000D03*
D17*
X31610000Y39783499D03*
X33160000Y39783499D03*
D20*
X43320000Y19939000D03*
X41770000Y19939000D03*
D47*
X29840962Y44170499D03*
X29840962Y45745501D03*
D29*
X48773001Y35560000D03*
D30*
X47503000Y35560000D03*
X46233001Y35560000D03*
D18*
X44006000Y8255000D03*
X45656000Y8255000D03*
D31*
X47066200Y47040800D03*
D32*
X47066200Y47040800D03*
D28*
X41757500Y22987000D03*
X43332500Y22987000D03*
D29*
X48783000Y14478000D03*
D30*
X47512999Y14478000D03*
D28*
X41503500Y39319200D03*
X43078500Y39319200D03*
D27*
X12827000Y1928000D03*
X12827000Y2898000D03*
D41*
X37465000Y42265500D03*
X37465000Y41305500D03*
D48*
X29893200Y48237200D03*
X29893200Y49197200D03*
D25*
X13866000Y47434200D03*
X13866000Y48984200D03*
D23*
X17531500Y44257000D03*
X17531500Y43307000D03*
X17531500Y42357000D03*
X19806500Y42357000D03*
X19806500Y44257000D03*
D17*
X12636200Y10922000D03*
X14186200Y10922000D03*
D49*
X43494999Y30148500D03*
X42545000Y30148500D03*
X41595001Y30148500D03*
X41595001Y27873500D03*
X43494999Y27873500D03*
D18*
X1080000Y15240000D03*
X2730000Y15240000D03*
D50*
X1651000Y13043999D03*
D51*
X1651000Y11594001D03*
D24*
X34010600Y14770600D03*
X34010600Y16420600D03*
D20*
X35903200Y990600D03*
X34353200Y990600D03*
X18047000Y6604000D03*
X16497000Y6604000D03*
D37*
X31770200Y47193200D03*
X30810200Y47193200D03*
D24*
X34412961Y44133000D03*
X34412961Y45783000D03*
D25*
X37338000Y35435500D03*
X37338000Y36985500D03*
D49*
X9458999Y17520500D03*
X8509000Y17520500D03*
X7559001Y17520500D03*
X7559001Y15245500D03*
X9458999Y15245500D03*
D20*
X9284000Y13462000D03*
X7734000Y13462000D03*
D25*
X21209000Y6350000D03*
X21209000Y7900000D03*
D45*
X15621000Y2921000D03*
X15621000Y1371000D03*
D29*
X48742600Y42341800D03*
D30*
X47472599Y42341800D03*
X46202600Y42341800D03*
X44932600Y42341800D03*
D18*
X36767000Y29845001D03*
X38417000Y29845001D03*
D52*
X8249500Y32361000D03*
X6424500Y32361000D03*
D17*
X6337000Y21590000D03*
X7887000Y21590000D03*
D37*
X28976200Y48209200D03*
X28016200Y48209200D03*
D22*
X2113000Y26543000D03*
X1143000Y26543000D03*
D18*
X44006000Y12192000D03*
X45656000Y12192000D03*
D25*
X40071001Y25514000D03*
X40071001Y27064000D03*
D53*
X41860500Y10436000D03*
X41860500Y10936000D03*
X41860500Y11436000D03*
X41860500Y11936000D03*
D54*
X41148000Y12648500D03*
X40648000Y12648500D03*
X40148000Y12648500D03*
X39648000Y12648500D03*
D53*
X38935500Y11936000D03*
X38935500Y11436000D03*
X38935500Y10936000D03*
X38935500Y10436000D03*
D54*
X39648000Y9723500D03*
X40148000Y9723500D03*
X40648000Y9723500D03*
X41148000Y9723500D03*
D55*
X40398000Y11186000D03*
D56*
X29039000Y12827000D03*
X29039000Y11557000D03*
X29039000Y10287000D03*
X29039000Y9017000D03*
X36239000Y9017000D03*
X36239000Y10287000D03*
X36239000Y11557000D03*
X36239000Y12827000D03*
D22*
X33710600Y47193200D03*
X32740600Y47193200D03*
D31*
X3048000Y47040800D03*
D32*
X3048000Y47040800D03*
D20*
X38748000Y40134500D03*
X37198000Y40134500D03*
D18*
X39997000Y14429000D03*
X41647000Y14429000D03*
X41466000Y40792400D03*
X43116000Y40792400D03*
D22*
X2113000Y24511000D03*
X1143000Y24511000D03*
D57*
X7758999Y5273000D03*
X8259000Y5273000D03*
X8759000Y5273000D03*
X9259001Y5273000D03*
X9259001Y7173000D03*
X8759000Y7173000D03*
X8259000Y7173000D03*
X7758999Y7173000D03*
D44*
X8509000Y6223000D03*
D25*
X17168000Y47434200D03*
X17168000Y48984200D03*
D20*
X5474000Y7239000D03*
X3924000Y7239000D03*
D45*
X15697200Y11189000D03*
X15697200Y9639000D03*
D20*
X11189000Y19431000D03*
X9639000Y19431000D03*
D36*
X14351000Y15011501D03*
X14351000Y13436499D03*
D20*
X11189000Y23241000D03*
X9639000Y23241000D03*
D58*
X1244266Y38572200D03*
X1244267Y37922200D03*
X1244266Y37272200D03*
X3144266Y37272200D03*
X3144266Y38572200D03*
D22*
X34571800Y48209200D03*
X33601800Y48209200D03*
D25*
X35610800Y14807600D03*
X35610800Y16357600D03*
D18*
X42609000Y37846000D03*
X44259000Y37846000D03*
D47*
X32258000Y990499D03*
X32258000Y2565501D03*
D24*
X25450800Y13399000D03*
X25450800Y15049000D03*
D25*
X20470000Y47434200D03*
X20470000Y48984200D03*
D17*
X12636200Y6350000D03*
X14186200Y6350000D03*
D18*
X42609000Y36449000D03*
X44259000Y36449000D03*
D59*
X6350000Y24718500D03*
X6350000Y26843500D03*
D60*
X18669000Y5334000D03*
X18669000Y4364000D03*
D58*
X37251600Y45379400D03*
X37251601Y44729400D03*
X37251600Y44079400D03*
X39151600Y44079400D03*
X39151599Y44729400D03*
X39151600Y45379400D03*
D45*
X14097000Y2921000D03*
X14097000Y1371000D03*
D18*
X36767000Y25400000D03*
X38417000Y25400000D03*
D22*
X2113000Y25527000D03*
X1143000Y25527000D03*
D24*
X31369000Y44133000D03*
X31369000Y45783000D03*
D29*
X48783000Y12192000D03*
D30*
X47512999Y12192000D03*
D18*
X42609000Y35052000D03*
X44259000Y35052000D03*
D21*
X38542000Y27036000D03*
X38541999Y27686000D03*
X38542000Y28336000D03*
X36642000Y28336000D03*
X36642000Y27036000D03*
D45*
X4572000Y32525000D03*
X4572000Y30975000D03*
D22*
X31775200Y48209200D03*
X30805200Y48209200D03*
D48*
X25194200Y48237200D03*
X25194200Y49197200D03*
D61*
X48793501Y6858000D03*
X47218499Y6858000D03*
D45*
X17145000Y2934000D03*
X17145000Y1384000D03*
D62*
X7015744Y34443501D03*
X7015744Y35393500D03*
X7015744Y36343499D03*
X4740744Y36343499D03*
X4740744Y34443501D03*
D25*
X33049999Y35435500D03*
X33049999Y36985500D03*
D45*
X21869400Y44082000D03*
X21869400Y42532000D03*
D18*
X44006000Y14478000D03*
X45656000Y14478000D03*
D45*
X37592000Y17920000D03*
X37592000Y16370000D03*
D48*
X32687200Y48237200D03*
X32687200Y49197200D03*
D17*
X12636200Y9398000D03*
X14186200Y9398000D03*
D57*
X40894000Y3683000D03*
X41394001Y3683000D03*
X41894001Y3683000D03*
X42394002Y3683000D03*
X42394002Y5583000D03*
X41894001Y5583000D03*
X41394001Y5583000D03*
X40894000Y5583000D03*
D44*
X41644001Y4633000D03*
D23*
X40010500Y17968000D03*
X40010500Y17018000D03*
X40010500Y16068000D03*
X42285500Y16068000D03*
X42285500Y17968000D03*
D29*
X48763000Y40132000D03*
D30*
X47492999Y40132000D03*
X46223000Y40132000D03*
X44953000Y40132000D03*
D17*
X36817000Y19558000D03*
X38367000Y19558000D03*
D63*
X25667501Y42037001D03*
D64*
X27117499Y42037001D03*
D20*
X43345002Y32131000D03*
X41795002Y32131000D03*
D45*
X9144000Y39764000D03*
X9144000Y38214000D03*
D17*
X6337000Y23241000D03*
X7887000Y23241000D03*
D42*
X2984000Y32512000D03*
X1334000Y32512000D03*
D18*
X44006000Y6858000D03*
X45656000Y6858000D03*
D61*
X48793501Y8259037D03*
X47218499Y8259037D03*
D65*
X7908483Y41149016D03*
X7908483Y41649017D03*
X7908483Y42149017D03*
X7908483Y42649018D03*
X6008483Y42649018D03*
X6008483Y42149017D03*
X6008483Y41649017D03*
X6008483Y41149016D03*
D66*
X6958483Y41899017D03*
D59*
X19177000Y36783500D03*
X19177000Y38908500D03*
D41*
X35306000Y42265500D03*
X35306000Y41305500D03*
D24*
X11176000Y15939000D03*
X11176000Y17589000D03*
D18*
X4128000Y15240000D03*
X5778000Y15240000D03*
D17*
X7734000Y11811000D03*
X9284000Y11811000D03*
D19*
X23368000Y38417000D03*
X23368000Y36767000D03*
D47*
X32888962Y44220249D03*
X32888962Y45795251D03*
D25*
X10033000Y1892000D03*
X10033000Y3442000D03*
D29*
X48768001Y37846000D03*
D30*
X47498000Y37846000D03*
X46228001Y37846000D03*
D45*
X18669000Y2934000D03*
X18669000Y1384000D03*
D67*
X1651000Y9827501D03*
X1651000Y7952499D03*
D24*
X15517000Y47384200D03*
X15517000Y49034200D03*
D18*
X44006000Y16764000D03*
X45656000Y16764000D03*
D31*
X3048000Y3048000D03*
D32*
X3048000Y3048000D03*
D18*
X42609000Y33655000D03*
X44259000Y33655000D03*
D19*
X32258000Y5651000D03*
X32258000Y4001000D03*
D68*
X25450800Y10324001D03*
D69*
X25450800Y11773999D03*
D19*
X16002000Y15049000D03*
X16002000Y13399000D03*
D70*
X40660001Y48133000D03*
D71*
X41910000Y48133000D03*
D72*
X41900000Y1659000D03*
D71*
X40650001Y1659000D03*
D73*
X8009000Y2042000D03*
D74*
X8009000Y3292000D03*
D73*
X8136000Y46619000D03*
D74*
X8136000Y47869000D03*
D29*
X2159000Y35829001D03*
D30*
X2159000Y34559000D03*
D70*
X2042000Y19296000D03*
D71*
X3291999Y19296000D03*
D75*
X1494000Y22027000D03*
D76*
X4194000Y23027001D03*
X4194000Y28026999D03*
D75*
X1494000Y29027000D03*
D77*
X4375000Y12197000D03*
D78*
X4375000Y9657000D03*
%LPD*%
M02*
