G04 #@! TF.GenerationSoftware,KiCad,Pcbnew,8.0.0*
G04 #@! TF.CreationDate,2024-03-25T07:30:18-04:00*
G04 #@! TF.ProjectId,_Sub_HW_Qcopter,5f537562-5f48-4575-9f51-636f70746572,rev?*
G04 #@! TF.SameCoordinates,PX9157080PYf23bb80*
G04 #@! TF.FileFunction,Legend,Bot*
G04 #@! TF.FilePolarity,Positive*
%FSLAX46Y46*%
G04 Gerber Fmt 4.6, Leading zero omitted, Abs format (unit mm)*
G04 Created by KiCad (PCBNEW 8.0.0) date 2024-03-25 07:30:18*
%MOMM*%
%LPD*%
G01*
G04 APERTURE LIST*
G04 Aperture macros list*
%AMRoundRect*
0 Rectangle with rounded corners*
0 $1 Rounding radius*
0 $2 $3 $4 $5 $6 $7 $8 $9 X,Y pos of 4 corners*
0 Add a 4 corners polygon primitive as box body*
4,1,4,$2,$3,$4,$5,$6,$7,$8,$9,$2,$3,0*
0 Add four circle primitives for the rounded corners*
1,1,$1+$1,$2,$3*
1,1,$1+$1,$4,$5*
1,1,$1+$1,$6,$7*
1,1,$1+$1,$8,$9*
0 Add four rect primitives between the rounded corners*
20,1,$1+$1,$2,$3,$4,$5,0*
20,1,$1+$1,$4,$5,$6,$7,0*
20,1,$1+$1,$6,$7,$8,$9,0*
20,1,$1+$1,$8,$9,$2,$3,0*%
%AMFreePoly0*
4,1,14,0.363284,0.088284,0.375000,0.060000,0.375000,0.036569,0.363284,0.008285,0.266715,-0.088284,0.238431,-0.100000,-0.335000,-0.100000,-0.363284,-0.088284,-0.375000,-0.060000,-0.375000,0.060000,-0.363284,0.088284,-0.335000,0.100000,0.335000,0.100000,0.363284,0.088284,0.363284,0.088284,$1*%
%AMFreePoly1*
4,1,14,0.266715,0.088284,0.363284,-0.008285,0.375000,-0.036569,0.375000,-0.060000,0.363284,-0.088284,0.335000,-0.100000,-0.335000,-0.100000,-0.363284,-0.088284,-0.375000,-0.060000,-0.375000,0.060000,-0.363284,0.088284,-0.335000,0.100000,0.238431,0.100000,0.266715,0.088284,0.266715,0.088284,$1*%
%AMFreePoly2*
4,1,14,0.088284,0.363284,0.100000,0.335000,0.100000,-0.335000,0.088284,-0.363284,0.060000,-0.375000,0.036569,-0.375000,0.008285,-0.363284,-0.088284,-0.266715,-0.100000,-0.238431,-0.100000,0.335000,-0.088284,0.363284,-0.060000,0.375000,0.060000,0.375000,0.088284,0.363284,0.088284,0.363284,$1*%
%AMFreePoly3*
4,1,14,0.088284,0.363284,0.100000,0.335000,0.100000,-0.238431,0.088284,-0.266715,-0.008285,-0.363284,-0.036569,-0.375000,-0.060000,-0.375000,-0.088284,-0.363284,-0.100000,-0.335000,-0.100000,0.335000,-0.088284,0.363284,-0.060000,0.375000,0.060000,0.375000,0.088284,0.363284,0.088284,0.363284,$1*%
%AMFreePoly4*
4,1,14,0.363284,0.088284,0.375000,0.060000,0.375000,-0.060000,0.363284,-0.088284,0.335000,-0.100000,-0.335000,-0.100000,-0.363284,-0.088284,-0.375000,-0.060000,-0.375000,-0.036569,-0.363284,-0.008285,-0.266715,0.088284,-0.238431,0.100000,0.335000,0.100000,0.363284,0.088284,0.363284,0.088284,$1*%
%AMFreePoly5*
4,1,14,0.363284,0.088284,0.375000,0.060000,0.375000,-0.060000,0.363284,-0.088284,0.335000,-0.100000,-0.238431,-0.100000,-0.266715,-0.088284,-0.363284,0.008285,-0.375000,0.036569,-0.375000,0.060000,-0.363284,0.088284,-0.335000,0.100000,0.335000,0.100000,0.363284,0.088284,0.363284,0.088284,$1*%
%AMFreePoly6*
4,1,14,-0.008285,0.363284,0.088284,0.266715,0.100000,0.238431,0.100000,-0.335000,0.088284,-0.363284,0.060000,-0.375000,-0.060000,-0.375000,-0.088284,-0.363284,-0.100000,-0.335000,-0.100000,0.335000,-0.088284,0.363284,-0.060000,0.375000,-0.036569,0.375000,-0.008285,0.363284,-0.008285,0.363284,$1*%
%AMFreePoly7*
4,1,14,0.088284,0.363284,0.100000,0.335000,0.100000,-0.335000,0.088284,-0.363284,0.060000,-0.375000,-0.060000,-0.375000,-0.088284,-0.363284,-0.100000,-0.335000,-0.100000,0.238431,-0.088284,0.266715,0.008285,0.363284,0.036569,0.375000,0.060000,0.375000,0.088284,0.363284,0.088284,0.363284,$1*%
G04 Aperture macros list end*
%ADD10C,0.095250*%
%ADD11C,0.100000*%
%ADD12C,0.127000*%
%ADD13C,0.150000*%
%ADD14C,0.120000*%
%ADD15C,0.200000*%
%ADD16C,0.152400*%
%ADD17C,0.010000*%
%ADD18R,1.000000X1.000000*%
%ADD19O,1.000000X1.000000*%
%ADD20C,3.600000*%
%ADD21C,5.600000*%
%ADD22RoundRect,0.200000X0.275000X-0.200000X0.275000X0.200000X-0.275000X0.200000X-0.275000X-0.200000X0*%
%ADD23RoundRect,0.225000X0.250000X-0.225000X0.250000X0.225000X-0.250000X0.225000X-0.250000X-0.225000X0*%
%ADD24RoundRect,0.225000X0.225000X0.250000X-0.225000X0.250000X-0.225000X-0.250000X0.225000X-0.250000X0*%
%ADD25RoundRect,0.225000X-0.225000X-0.250000X0.225000X-0.250000X0.225000X0.250000X-0.225000X0.250000X0*%
%ADD26RoundRect,0.225000X-0.225000X-0.475000X0.225000X-0.475000X0.225000X0.475000X-0.225000X0.475000X0*%
%ADD27O,0.900000X1.400000*%
%ADD28RoundRect,0.147500X0.147500X0.172500X-0.147500X0.172500X-0.147500X-0.172500X0.147500X-0.172500X0*%
%ADD29RoundRect,0.225000X0.225000X0.475000X-0.225000X0.475000X-0.225000X-0.475000X0.225000X-0.475000X0*%
%ADD30RoundRect,0.225000X0.475000X-0.225000X0.475000X0.225000X-0.475000X0.225000X-0.475000X-0.225000X0*%
%ADD31O,1.400000X0.900000*%
%ADD32RoundRect,0.100000X-0.225000X-0.100000X0.225000X-0.100000X0.225000X0.100000X-0.225000X0.100000X0*%
%ADD33RoundRect,0.140000X0.170000X-0.140000X0.170000X0.140000X-0.170000X0.140000X-0.170000X-0.140000X0*%
%ADD34RoundRect,0.024800X0.130200X-0.165200X0.130200X0.165200X-0.130200X0.165200X-0.130200X-0.165200X0*%
%ADD35C,1.000000*%
%ADD36RoundRect,0.200000X0.200000X0.275000X-0.200000X0.275000X-0.200000X-0.275000X0.200000X-0.275000X0*%
%ADD37RoundRect,0.062500X-0.325000X-0.062500X0.325000X-0.062500X0.325000X0.062500X-0.325000X0.062500X0*%
%ADD38RoundRect,0.062500X-0.062500X-0.325000X0.062500X-0.325000X0.062500X0.325000X-0.062500X0.325000X0*%
%ADD39R,1.750000X1.750000*%
%ADD40RoundRect,0.062500X0.325000X0.062500X-0.325000X0.062500X-0.325000X-0.062500X0.325000X-0.062500X0*%
%ADD41RoundRect,0.062500X0.062500X0.325000X-0.062500X0.325000X-0.062500X-0.325000X0.062500X-0.325000X0*%
%ADD42RoundRect,0.218750X-0.218750X-0.381250X0.218750X-0.381250X0.218750X0.381250X-0.218750X0.381250X0*%
%ADD43RoundRect,0.147500X-0.147500X-0.172500X0.147500X-0.172500X0.147500X0.172500X-0.147500X0.172500X0*%
%ADD44RoundRect,0.225000X-0.250000X0.225000X-0.250000X-0.225000X0.250000X-0.225000X0.250000X0.225000X0*%
%ADD45RoundRect,0.140000X-0.140000X-0.170000X0.140000X-0.170000X0.140000X0.170000X-0.140000X0.170000X0*%
%ADD46RoundRect,0.243750X-0.456250X0.243750X-0.456250X-0.243750X0.456250X-0.243750X0.456250X0.243750X0*%
%ADD47RoundRect,0.140000X0.140000X0.170000X-0.140000X0.170000X-0.140000X-0.170000X0.140000X-0.170000X0*%
%ADD48RoundRect,0.039240X-0.287760X0.307760X-0.287760X-0.307760X0.287760X-0.307760X0.287760X0.307760X0*%
%ADD49RoundRect,0.062500X-0.375000X-0.062500X0.375000X-0.062500X0.375000X0.062500X-0.375000X0.062500X0*%
%ADD50RoundRect,0.062500X-0.062500X-0.375000X0.062500X-0.375000X0.062500X0.375000X-0.062500X0.375000X0*%
%ADD51R,5.600000X5.600000*%
%ADD52RoundRect,0.200000X-0.200000X-0.275000X0.200000X-0.275000X0.200000X0.275000X-0.200000X0.275000X0*%
%ADD53RoundRect,0.100000X-0.130000X-0.100000X0.130000X-0.100000X0.130000X0.100000X-0.130000X0.100000X0*%
%ADD54R,0.900000X0.800000*%
%ADD55RoundRect,0.150000X0.150000X-0.512500X0.150000X0.512500X-0.150000X0.512500X-0.150000X-0.512500X0*%
%ADD56RoundRect,0.050000X0.050000X-0.337500X0.050000X0.337500X-0.050000X0.337500X-0.050000X-0.337500X0*%
%ADD57RoundRect,0.050000X0.337500X-0.050000X0.337500X0.050000X-0.337500X0.050000X-0.337500X-0.050000X0*%
%ADD58R,3.800000X3.800000*%
%ADD59RoundRect,0.147500X0.172500X-0.147500X0.172500X0.147500X-0.172500X0.147500X-0.172500X-0.147500X0*%
%ADD60RoundRect,0.250000X-0.350000X-0.650000X0.350000X-0.650000X0.350000X0.650000X-0.350000X0.650000X0*%
%ADD61RoundRect,0.200000X-0.275000X0.200000X-0.275000X-0.200000X0.275000X-0.200000X0.275000X0.200000X0*%
%ADD62RoundRect,0.147500X-0.172500X0.147500X-0.172500X-0.147500X0.172500X-0.147500X0.172500X0.147500X0*%
%ADD63FreePoly0,0.000000*%
%ADD64RoundRect,0.050000X-0.325000X-0.050000X0.325000X-0.050000X0.325000X0.050000X-0.325000X0.050000X0*%
%ADD65FreePoly1,0.000000*%
%ADD66FreePoly2,0.000000*%
%ADD67RoundRect,0.050000X-0.050000X-0.325000X0.050000X-0.325000X0.050000X0.325000X-0.050000X0.325000X0*%
%ADD68FreePoly3,0.000000*%
%ADD69FreePoly4,0.000000*%
%ADD70FreePoly5,0.000000*%
%ADD71FreePoly6,0.000000*%
%ADD72FreePoly7,0.000000*%
%ADD73R,1.750000X1.600000*%
%ADD74RoundRect,0.100000X0.130000X0.100000X-0.130000X0.100000X-0.130000X-0.100000X0.130000X-0.100000X0*%
%ADD75RoundRect,0.100000X0.100000X-0.130000X0.100000X0.130000X-0.100000X0.130000X-0.100000X-0.130000X0*%
%ADD76R,1.350000X0.400000*%
%ADD77O,1.550000X0.890000*%
%ADD78R,1.550000X1.200000*%
%ADD79O,0.950000X1.250000*%
%ADD80R,1.550000X1.500000*%
%ADD81RoundRect,0.100000X-0.100000X0.130000X-0.100000X-0.130000X0.100000X-0.130000X0.100000X0.130000X0*%
%ADD82R,1.700000X1.700000*%
%ADD83O,1.700000X1.700000*%
%ADD84RoundRect,0.135000X0.135000X0.185000X-0.135000X0.185000X-0.135000X-0.185000X0.135000X-0.185000X0*%
%ADD85RoundRect,0.024800X0.165200X0.130200X-0.165200X0.130200X-0.165200X-0.130200X0.165200X-0.130200X0*%
%ADD86R,0.863600X0.609600*%
%ADD87R,0.254000X0.254000*%
G04 APERTURE END LIST*
D10*
X49075450Y36974533D02*
X49111736Y36998723D01*
X49111736Y36998723D02*
X49166164Y36998723D01*
X49166164Y36998723D02*
X49220593Y36974533D01*
X49220593Y36974533D02*
X49256878Y36926152D01*
X49256878Y36926152D02*
X49275021Y36877771D01*
X49275021Y36877771D02*
X49293164Y36781009D01*
X49293164Y36781009D02*
X49293164Y36708437D01*
X49293164Y36708437D02*
X49275021Y36611675D01*
X49275021Y36611675D02*
X49256878Y36563294D01*
X49256878Y36563294D02*
X49220593Y36514913D01*
X49220593Y36514913D02*
X49166164Y36490723D01*
X49166164Y36490723D02*
X49129878Y36490723D01*
X49129878Y36490723D02*
X49075450Y36514913D01*
X49075450Y36514913D02*
X49057307Y36539104D01*
X49057307Y36539104D02*
X49057307Y36708437D01*
X49057307Y36708437D02*
X49129878Y36708437D01*
X48894021Y36490723D02*
X48894021Y36998723D01*
X48894021Y36998723D02*
X48676307Y36490723D01*
X48676307Y36490723D02*
X48676307Y36998723D01*
X48494878Y36490723D02*
X48494878Y36998723D01*
X48494878Y36998723D02*
X48404164Y36998723D01*
X48404164Y36998723D02*
X48349735Y36974533D01*
X48349735Y36974533D02*
X48313450Y36926152D01*
X48313450Y36926152D02*
X48295307Y36877771D01*
X48295307Y36877771D02*
X48277164Y36781009D01*
X48277164Y36781009D02*
X48277164Y36708437D01*
X48277164Y36708437D02*
X48295307Y36611675D01*
X48295307Y36611675D02*
X48313450Y36563294D01*
X48313450Y36563294D02*
X48349735Y36514913D01*
X48349735Y36514913D02*
X48404164Y36490723D01*
X48404164Y36490723D02*
X48494878Y36490723D01*
X47878021Y36998723D02*
X47660307Y36998723D01*
X47769164Y36490723D02*
X47769164Y36998723D01*
X47569592Y36998723D02*
X47315592Y36490723D01*
X47315592Y36998723D02*
X47569592Y36490723D01*
X47170449Y36490723D02*
X47170449Y36998723D01*
X47170449Y36998723D02*
X47079735Y36998723D01*
X47079735Y36998723D02*
X47025306Y36974533D01*
X47025306Y36974533D02*
X46989021Y36926152D01*
X46989021Y36926152D02*
X46970878Y36877771D01*
X46970878Y36877771D02*
X46952735Y36781009D01*
X46952735Y36781009D02*
X46952735Y36708437D01*
X46952735Y36708437D02*
X46970878Y36611675D01*
X46970878Y36611675D02*
X46989021Y36563294D01*
X46989021Y36563294D02*
X47025306Y36514913D01*
X47025306Y36514913D02*
X47079735Y36490723D01*
X47079735Y36490723D02*
X47170449Y36490723D01*
X46281449Y36490723D02*
X46408449Y36732628D01*
X46499163Y36490723D02*
X46499163Y36998723D01*
X46499163Y36998723D02*
X46354020Y36998723D01*
X46354020Y36998723D02*
X46317735Y36974533D01*
X46317735Y36974533D02*
X46299592Y36950342D01*
X46299592Y36950342D02*
X46281449Y36901961D01*
X46281449Y36901961D02*
X46281449Y36829390D01*
X46281449Y36829390D02*
X46299592Y36781009D01*
X46299592Y36781009D02*
X46317735Y36756818D01*
X46317735Y36756818D02*
X46354020Y36732628D01*
X46354020Y36732628D02*
X46499163Y36732628D01*
X46154449Y36998723D02*
X45900449Y36490723D01*
X45900449Y36998723D02*
X46154449Y36490723D01*
X45755306Y36490723D02*
X45755306Y36998723D01*
X45755306Y36998723D02*
X45664592Y36998723D01*
X45664592Y36998723D02*
X45610163Y36974533D01*
X45610163Y36974533D02*
X45573878Y36926152D01*
X45573878Y36926152D02*
X45555735Y36877771D01*
X45555735Y36877771D02*
X45537592Y36781009D01*
X45537592Y36781009D02*
X45537592Y36708437D01*
X45537592Y36708437D02*
X45555735Y36611675D01*
X45555735Y36611675D02*
X45573878Y36563294D01*
X45573878Y36563294D02*
X45610163Y36514913D01*
X45610163Y36514913D02*
X45664592Y36490723D01*
X45664592Y36490723D02*
X45755306Y36490723D01*
X49177050Y41495733D02*
X49213336Y41519923D01*
X49213336Y41519923D02*
X49267764Y41519923D01*
X49267764Y41519923D02*
X49322193Y41495733D01*
X49322193Y41495733D02*
X49358478Y41447352D01*
X49358478Y41447352D02*
X49376621Y41398971D01*
X49376621Y41398971D02*
X49394764Y41302209D01*
X49394764Y41302209D02*
X49394764Y41229637D01*
X49394764Y41229637D02*
X49376621Y41132875D01*
X49376621Y41132875D02*
X49358478Y41084494D01*
X49358478Y41084494D02*
X49322193Y41036113D01*
X49322193Y41036113D02*
X49267764Y41011923D01*
X49267764Y41011923D02*
X49231478Y41011923D01*
X49231478Y41011923D02*
X49177050Y41036113D01*
X49177050Y41036113D02*
X49158907Y41060304D01*
X49158907Y41060304D02*
X49158907Y41229637D01*
X49158907Y41229637D02*
X49231478Y41229637D01*
X48995621Y41011923D02*
X48995621Y41519923D01*
X48995621Y41519923D02*
X48777907Y41011923D01*
X48777907Y41011923D02*
X48777907Y41519923D01*
X48596478Y41011923D02*
X48596478Y41519923D01*
X48596478Y41519923D02*
X48505764Y41519923D01*
X48505764Y41519923D02*
X48451335Y41495733D01*
X48451335Y41495733D02*
X48415050Y41447352D01*
X48415050Y41447352D02*
X48396907Y41398971D01*
X48396907Y41398971D02*
X48378764Y41302209D01*
X48378764Y41302209D02*
X48378764Y41229637D01*
X48378764Y41229637D02*
X48396907Y41132875D01*
X48396907Y41132875D02*
X48415050Y41084494D01*
X48415050Y41084494D02*
X48451335Y41036113D01*
X48451335Y41036113D02*
X48505764Y41011923D01*
X48505764Y41011923D02*
X48596478Y41011923D01*
X47707478Y41060304D02*
X47725621Y41036113D01*
X47725621Y41036113D02*
X47780049Y41011923D01*
X47780049Y41011923D02*
X47816335Y41011923D01*
X47816335Y41011923D02*
X47870764Y41036113D01*
X47870764Y41036113D02*
X47907049Y41084494D01*
X47907049Y41084494D02*
X47925192Y41132875D01*
X47925192Y41132875D02*
X47943335Y41229637D01*
X47943335Y41229637D02*
X47943335Y41302209D01*
X47943335Y41302209D02*
X47925192Y41398971D01*
X47925192Y41398971D02*
X47907049Y41447352D01*
X47907049Y41447352D02*
X47870764Y41495733D01*
X47870764Y41495733D02*
X47816335Y41519923D01*
X47816335Y41519923D02*
X47780049Y41519923D01*
X47780049Y41519923D02*
X47725621Y41495733D01*
X47725621Y41495733D02*
X47707478Y41471542D01*
X47362764Y41011923D02*
X47544192Y41011923D01*
X47544192Y41011923D02*
X47544192Y41519923D01*
X47235763Y41011923D02*
X47235763Y41519923D01*
X47018049Y41011923D02*
X47181335Y41302209D01*
X47018049Y41519923D02*
X47235763Y41229637D01*
X46564477Y41011923D02*
X46564477Y41519923D01*
X46564477Y41519923D02*
X46473763Y41519923D01*
X46473763Y41519923D02*
X46419334Y41495733D01*
X46419334Y41495733D02*
X46383049Y41447352D01*
X46383049Y41447352D02*
X46364906Y41398971D01*
X46364906Y41398971D02*
X46346763Y41302209D01*
X46346763Y41302209D02*
X46346763Y41229637D01*
X46346763Y41229637D02*
X46364906Y41132875D01*
X46364906Y41132875D02*
X46383049Y41084494D01*
X46383049Y41084494D02*
X46419334Y41036113D01*
X46419334Y41036113D02*
X46473763Y41011923D01*
X46473763Y41011923D02*
X46564477Y41011923D01*
X46183477Y41011923D02*
X46183477Y41519923D01*
X45929477Y41519923D02*
X45856905Y41519923D01*
X45856905Y41519923D02*
X45820620Y41495733D01*
X45820620Y41495733D02*
X45784334Y41447352D01*
X45784334Y41447352D02*
X45766191Y41350590D01*
X45766191Y41350590D02*
X45766191Y41181256D01*
X45766191Y41181256D02*
X45784334Y41084494D01*
X45784334Y41084494D02*
X45820620Y41036113D01*
X45820620Y41036113D02*
X45856905Y41011923D01*
X45856905Y41011923D02*
X45929477Y41011923D01*
X45929477Y41011923D02*
X45965763Y41036113D01*
X45965763Y41036113D02*
X46002048Y41084494D01*
X46002048Y41084494D02*
X46020191Y41181256D01*
X46020191Y41181256D02*
X46020191Y41350590D01*
X46020191Y41350590D02*
X46002048Y41447352D01*
X46002048Y41447352D02*
X45965763Y41495733D01*
X45965763Y41495733D02*
X45929477Y41519923D01*
X45094905Y41011923D02*
X45221905Y41253828D01*
X45312619Y41011923D02*
X45312619Y41519923D01*
X45312619Y41519923D02*
X45167476Y41519923D01*
X45167476Y41519923D02*
X45131191Y41495733D01*
X45131191Y41495733D02*
X45113048Y41471542D01*
X45113048Y41471542D02*
X45094905Y41423161D01*
X45094905Y41423161D02*
X45094905Y41350590D01*
X45094905Y41350590D02*
X45113048Y41302209D01*
X45113048Y41302209D02*
X45131191Y41278018D01*
X45131191Y41278018D02*
X45167476Y41253828D01*
X45167476Y41253828D02*
X45312619Y41253828D01*
X44949762Y41036113D02*
X44895334Y41011923D01*
X44895334Y41011923D02*
X44804619Y41011923D01*
X44804619Y41011923D02*
X44768334Y41036113D01*
X44768334Y41036113D02*
X44750191Y41060304D01*
X44750191Y41060304D02*
X44732048Y41108685D01*
X44732048Y41108685D02*
X44732048Y41157066D01*
X44732048Y41157066D02*
X44750191Y41205447D01*
X44750191Y41205447D02*
X44768334Y41229637D01*
X44768334Y41229637D02*
X44804619Y41253828D01*
X44804619Y41253828D02*
X44877191Y41278018D01*
X44877191Y41278018D02*
X44913476Y41302209D01*
X44913476Y41302209D02*
X44931619Y41326399D01*
X44931619Y41326399D02*
X44949762Y41374780D01*
X44949762Y41374780D02*
X44949762Y41423161D01*
X44949762Y41423161D02*
X44931619Y41471542D01*
X44931619Y41471542D02*
X44913476Y41495733D01*
X44913476Y41495733D02*
X44877191Y41519923D01*
X44877191Y41519923D02*
X44786476Y41519923D01*
X44786476Y41519923D02*
X44732048Y41495733D01*
X44623191Y41519923D02*
X44405477Y41519923D01*
X44514334Y41011923D02*
X44514334Y41519923D01*
D11*
X7772400Y22860000D02*
X7772400Y34417000D01*
X8407400Y35052000D02*
X11303000Y35052000D01*
X11938000Y34417000D02*
X11938000Y22860000D01*
X11303000Y22225000D02*
X8407400Y22225000D01*
X7772400Y34417000D02*
G75*
G02*
X8407400Y35052000I635000J0D01*
G01*
X11303000Y35052000D02*
G75*
G02*
X11938000Y34417000I0J-635000D01*
G01*
X8407400Y22225000D02*
G75*
G02*
X7772400Y22860000I0J635000D01*
G01*
X11938000Y22860000D02*
G75*
G02*
X11303000Y22225000I-635000J0D01*
G01*
D12*
X10591146Y22943552D02*
X10591146Y23524124D01*
X10663718Y23705552D02*
X11425718Y23705552D01*
X11062861Y23705552D02*
X11062861Y24140981D01*
X10663718Y24140981D02*
X11425718Y24140981D01*
X11425718Y24431267D02*
X10663718Y24612695D01*
X10663718Y24612695D02*
X11208004Y24757838D01*
X11208004Y24757838D02*
X10663718Y24902981D01*
X10663718Y24902981D02*
X11425718Y25084409D01*
X10591146Y25193266D02*
X10591146Y25773838D01*
X10591146Y26463266D02*
X10627432Y26390695D01*
X10627432Y26390695D02*
X10700004Y26318123D01*
X10700004Y26318123D02*
X10808861Y26209266D01*
X10808861Y26209266D02*
X10845146Y26136695D01*
X10845146Y26136695D02*
X10845146Y26064123D01*
X10663718Y26100409D02*
X10700004Y26027837D01*
X10700004Y26027837D02*
X10772575Y25955266D01*
X10772575Y25955266D02*
X10917718Y25918980D01*
X10917718Y25918980D02*
X11171718Y25918980D01*
X11171718Y25918980D02*
X11316861Y25955266D01*
X11316861Y25955266D02*
X11389432Y26027837D01*
X11389432Y26027837D02*
X11425718Y26100409D01*
X11425718Y26100409D02*
X11425718Y26245552D01*
X11425718Y26245552D02*
X11389432Y26318123D01*
X11389432Y26318123D02*
X11316861Y26390695D01*
X11316861Y26390695D02*
X11171718Y26426980D01*
X11171718Y26426980D02*
X10917718Y26426980D01*
X10917718Y26426980D02*
X10772575Y26390695D01*
X10772575Y26390695D02*
X10700004Y26318123D01*
X10700004Y26318123D02*
X10663718Y26245552D01*
X10663718Y26245552D02*
X10663718Y26100409D01*
X10736289Y27188981D02*
X10700004Y27152695D01*
X10700004Y27152695D02*
X10663718Y27043838D01*
X10663718Y27043838D02*
X10663718Y26971266D01*
X10663718Y26971266D02*
X10700004Y26862409D01*
X10700004Y26862409D02*
X10772575Y26789838D01*
X10772575Y26789838D02*
X10845146Y26753552D01*
X10845146Y26753552D02*
X10990289Y26717266D01*
X10990289Y26717266D02*
X11099146Y26717266D01*
X11099146Y26717266D02*
X11244289Y26753552D01*
X11244289Y26753552D02*
X11316861Y26789838D01*
X11316861Y26789838D02*
X11389432Y26862409D01*
X11389432Y26862409D02*
X11425718Y26971266D01*
X11425718Y26971266D02*
X11425718Y27043838D01*
X11425718Y27043838D02*
X11389432Y27152695D01*
X11389432Y27152695D02*
X11353146Y27188981D01*
X10663718Y27624409D02*
X10700004Y27551838D01*
X10700004Y27551838D02*
X10736289Y27515552D01*
X10736289Y27515552D02*
X10808861Y27479266D01*
X10808861Y27479266D02*
X11026575Y27479266D01*
X11026575Y27479266D02*
X11099146Y27515552D01*
X11099146Y27515552D02*
X11135432Y27551838D01*
X11135432Y27551838D02*
X11171718Y27624409D01*
X11171718Y27624409D02*
X11171718Y27733266D01*
X11171718Y27733266D02*
X11135432Y27805838D01*
X11135432Y27805838D02*
X11099146Y27842123D01*
X11099146Y27842123D02*
X11026575Y27878409D01*
X11026575Y27878409D02*
X10808861Y27878409D01*
X10808861Y27878409D02*
X10736289Y27842123D01*
X10736289Y27842123D02*
X10700004Y27805838D01*
X10700004Y27805838D02*
X10663718Y27733266D01*
X10663718Y27733266D02*
X10663718Y27624409D01*
X11171718Y28204981D02*
X10409718Y28204981D01*
X11135432Y28204981D02*
X11171718Y28277552D01*
X11171718Y28277552D02*
X11171718Y28422695D01*
X11171718Y28422695D02*
X11135432Y28495267D01*
X11135432Y28495267D02*
X11099146Y28531552D01*
X11099146Y28531552D02*
X11026575Y28567838D01*
X11026575Y28567838D02*
X10808861Y28567838D01*
X10808861Y28567838D02*
X10736289Y28531552D01*
X10736289Y28531552D02*
X10700004Y28495267D01*
X10700004Y28495267D02*
X10663718Y28422695D01*
X10663718Y28422695D02*
X10663718Y28277552D01*
X10663718Y28277552D02*
X10700004Y28204981D01*
X11171718Y28785553D02*
X11171718Y29075839D01*
X11425718Y28894410D02*
X10772575Y28894410D01*
X10772575Y28894410D02*
X10700004Y28930696D01*
X10700004Y28930696D02*
X10663718Y29003267D01*
X10663718Y29003267D02*
X10663718Y29075839D01*
X10700004Y29620125D02*
X10663718Y29547553D01*
X10663718Y29547553D02*
X10663718Y29402410D01*
X10663718Y29402410D02*
X10700004Y29329839D01*
X10700004Y29329839D02*
X10772575Y29293553D01*
X10772575Y29293553D02*
X11062861Y29293553D01*
X11062861Y29293553D02*
X11135432Y29329839D01*
X11135432Y29329839D02*
X11171718Y29402410D01*
X11171718Y29402410D02*
X11171718Y29547553D01*
X11171718Y29547553D02*
X11135432Y29620125D01*
X11135432Y29620125D02*
X11062861Y29656410D01*
X11062861Y29656410D02*
X10990289Y29656410D01*
X10990289Y29656410D02*
X10917718Y29293553D01*
X10663718Y29982982D02*
X11171718Y29982982D01*
X11026575Y29982982D02*
X11099146Y30019268D01*
X11099146Y30019268D02*
X11135432Y30055553D01*
X11135432Y30055553D02*
X11171718Y30128125D01*
X11171718Y30128125D02*
X11171718Y30200696D01*
X9944941Y23052410D02*
X9436941Y23233838D01*
X9436941Y23233838D02*
X9944941Y23415267D01*
X9436941Y24104695D02*
X9436941Y23669266D01*
X9436941Y23886981D02*
X10198941Y23886981D01*
X10198941Y23886981D02*
X10090084Y23814409D01*
X10090084Y23814409D02*
X10017512Y23741838D01*
X10017512Y23741838D02*
X9981227Y23669266D01*
X9509512Y24431266D02*
X9473227Y24467552D01*
X9473227Y24467552D02*
X9436941Y24431266D01*
X9436941Y24431266D02*
X9473227Y24394980D01*
X9473227Y24394980D02*
X9509512Y24431266D01*
X9509512Y24431266D02*
X9436941Y24431266D01*
X10198941Y24939266D02*
X10198941Y25011837D01*
X10198941Y25011837D02*
X10162655Y25084409D01*
X10162655Y25084409D02*
X10126369Y25120694D01*
X10126369Y25120694D02*
X10053798Y25156980D01*
X10053798Y25156980D02*
X9908655Y25193266D01*
X9908655Y25193266D02*
X9727227Y25193266D01*
X9727227Y25193266D02*
X9582084Y25156980D01*
X9582084Y25156980D02*
X9509512Y25120694D01*
X9509512Y25120694D02*
X9473227Y25084409D01*
X9473227Y25084409D02*
X9436941Y25011837D01*
X9436941Y25011837D02*
X9436941Y24939266D01*
X9436941Y24939266D02*
X9473227Y24866694D01*
X9473227Y24866694D02*
X9509512Y24830409D01*
X9509512Y24830409D02*
X9582084Y24794123D01*
X9582084Y24794123D02*
X9727227Y24757837D01*
X9727227Y24757837D02*
X9908655Y24757837D01*
X9908655Y24757837D02*
X10053798Y24794123D01*
X10053798Y24794123D02*
X10126369Y24830409D01*
X10126369Y24830409D02*
X10162655Y24866694D01*
X10162655Y24866694D02*
X10198941Y24939266D01*
X9727227Y26100408D02*
X9727227Y26680979D01*
X10198941Y27769551D02*
X10198941Y27842122D01*
X10198941Y27842122D02*
X10162655Y27914694D01*
X10162655Y27914694D02*
X10126369Y27950979D01*
X10126369Y27950979D02*
X10053798Y27987265D01*
X10053798Y27987265D02*
X9908655Y28023551D01*
X9908655Y28023551D02*
X9727227Y28023551D01*
X9727227Y28023551D02*
X9582084Y27987265D01*
X9582084Y27987265D02*
X9509512Y27950979D01*
X9509512Y27950979D02*
X9473227Y27914694D01*
X9473227Y27914694D02*
X9436941Y27842122D01*
X9436941Y27842122D02*
X9436941Y27769551D01*
X9436941Y27769551D02*
X9473227Y27696979D01*
X9473227Y27696979D02*
X9509512Y27660694D01*
X9509512Y27660694D02*
X9582084Y27624408D01*
X9582084Y27624408D02*
X9727227Y27588122D01*
X9727227Y27588122D02*
X9908655Y27588122D01*
X9908655Y27588122D02*
X10053798Y27624408D01*
X10053798Y27624408D02*
X10126369Y27660694D01*
X10126369Y27660694D02*
X10162655Y27696979D01*
X10162655Y27696979D02*
X10198941Y27769551D01*
X10198941Y28277551D02*
X10198941Y28749265D01*
X10198941Y28749265D02*
X9908655Y28495265D01*
X9908655Y28495265D02*
X9908655Y28604122D01*
X9908655Y28604122D02*
X9872369Y28676693D01*
X9872369Y28676693D02*
X9836084Y28712979D01*
X9836084Y28712979D02*
X9763512Y28749265D01*
X9763512Y28749265D02*
X9582084Y28749265D01*
X9582084Y28749265D02*
X9509512Y28712979D01*
X9509512Y28712979D02*
X9473227Y28676693D01*
X9473227Y28676693D02*
X9436941Y28604122D01*
X9436941Y28604122D02*
X9436941Y28386408D01*
X9436941Y28386408D02*
X9473227Y28313836D01*
X9473227Y28313836D02*
X9509512Y28277551D01*
X10235227Y29620122D02*
X9255512Y28966979D01*
X10126369Y29837836D02*
X10162655Y29874122D01*
X10162655Y29874122D02*
X10198941Y29946693D01*
X10198941Y29946693D02*
X10198941Y30128122D01*
X10198941Y30128122D02*
X10162655Y30200693D01*
X10162655Y30200693D02*
X10126369Y30236979D01*
X10126369Y30236979D02*
X10053798Y30273265D01*
X10053798Y30273265D02*
X9981227Y30273265D01*
X9981227Y30273265D02*
X9872369Y30236979D01*
X9872369Y30236979D02*
X9436941Y29801551D01*
X9436941Y29801551D02*
X9436941Y30273265D01*
X10198941Y30962693D02*
X10198941Y30599836D01*
X10198941Y30599836D02*
X9836084Y30563550D01*
X9836084Y30563550D02*
X9872369Y30599836D01*
X9872369Y30599836D02*
X9908655Y30672407D01*
X9908655Y30672407D02*
X9908655Y30853836D01*
X9908655Y30853836D02*
X9872369Y30926407D01*
X9872369Y30926407D02*
X9836084Y30962693D01*
X9836084Y30962693D02*
X9763512Y30998979D01*
X9763512Y30998979D02*
X9582084Y30998979D01*
X9582084Y30998979D02*
X9509512Y30962693D01*
X9509512Y30962693D02*
X9473227Y30926407D01*
X9473227Y30926407D02*
X9436941Y30853836D01*
X9436941Y30853836D02*
X9436941Y30672407D01*
X9436941Y30672407D02*
X9473227Y30599836D01*
X9473227Y30599836D02*
X9509512Y30563550D01*
X10235227Y31869836D02*
X9255512Y31216693D01*
X10126369Y32087550D02*
X10162655Y32123836D01*
X10162655Y32123836D02*
X10198941Y32196407D01*
X10198941Y32196407D02*
X10198941Y32377836D01*
X10198941Y32377836D02*
X10162655Y32450407D01*
X10162655Y32450407D02*
X10126369Y32486693D01*
X10126369Y32486693D02*
X10053798Y32522979D01*
X10053798Y32522979D02*
X9981227Y32522979D01*
X9981227Y32522979D02*
X9872369Y32486693D01*
X9872369Y32486693D02*
X9436941Y32051265D01*
X9436941Y32051265D02*
X9436941Y32522979D01*
X10198941Y32994693D02*
X10198941Y33067264D01*
X10198941Y33067264D02*
X10162655Y33139836D01*
X10162655Y33139836D02*
X10126369Y33176121D01*
X10126369Y33176121D02*
X10053798Y33212407D01*
X10053798Y33212407D02*
X9908655Y33248693D01*
X9908655Y33248693D02*
X9727227Y33248693D01*
X9727227Y33248693D02*
X9582084Y33212407D01*
X9582084Y33212407D02*
X9509512Y33176121D01*
X9509512Y33176121D02*
X9473227Y33139836D01*
X9473227Y33139836D02*
X9436941Y33067264D01*
X9436941Y33067264D02*
X9436941Y32994693D01*
X9436941Y32994693D02*
X9473227Y32922121D01*
X9473227Y32922121D02*
X9509512Y32885836D01*
X9509512Y32885836D02*
X9582084Y32849550D01*
X9582084Y32849550D02*
X9727227Y32813264D01*
X9727227Y32813264D02*
X9908655Y32813264D01*
X9908655Y32813264D02*
X10053798Y32849550D01*
X10053798Y32849550D02*
X10126369Y32885836D01*
X10126369Y32885836D02*
X10162655Y32922121D01*
X10162655Y32922121D02*
X10198941Y32994693D01*
X10126369Y33538978D02*
X10162655Y33575264D01*
X10162655Y33575264D02*
X10198941Y33647835D01*
X10198941Y33647835D02*
X10198941Y33829264D01*
X10198941Y33829264D02*
X10162655Y33901835D01*
X10162655Y33901835D02*
X10126369Y33938121D01*
X10126369Y33938121D02*
X10053798Y33974407D01*
X10053798Y33974407D02*
X9981227Y33974407D01*
X9981227Y33974407D02*
X9872369Y33938121D01*
X9872369Y33938121D02*
X9436941Y33502693D01*
X9436941Y33502693D02*
X9436941Y33974407D01*
X9944941Y34627549D02*
X9436941Y34627549D01*
X10235227Y34446121D02*
X9690941Y34264692D01*
X9690941Y34264692D02*
X9690941Y34736407D01*
X8210164Y23124981D02*
X8972164Y23124981D01*
X8972164Y23124981D02*
X8972164Y23306410D01*
X8972164Y23306410D02*
X8935878Y23415267D01*
X8935878Y23415267D02*
X8863307Y23487838D01*
X8863307Y23487838D02*
X8790735Y23524124D01*
X8790735Y23524124D02*
X8645592Y23560410D01*
X8645592Y23560410D02*
X8536735Y23560410D01*
X8536735Y23560410D02*
X8391592Y23524124D01*
X8391592Y23524124D02*
X8319021Y23487838D01*
X8319021Y23487838D02*
X8246450Y23415267D01*
X8246450Y23415267D02*
X8210164Y23306410D01*
X8210164Y23306410D02*
X8210164Y23124981D01*
X8246450Y23850695D02*
X8210164Y23959552D01*
X8210164Y23959552D02*
X8210164Y24140981D01*
X8210164Y24140981D02*
X8246450Y24213552D01*
X8246450Y24213552D02*
X8282735Y24249838D01*
X8282735Y24249838D02*
X8355307Y24286124D01*
X8355307Y24286124D02*
X8427878Y24286124D01*
X8427878Y24286124D02*
X8500450Y24249838D01*
X8500450Y24249838D02*
X8536735Y24213552D01*
X8536735Y24213552D02*
X8573021Y24140981D01*
X8573021Y24140981D02*
X8609307Y23995838D01*
X8609307Y23995838D02*
X8645592Y23923267D01*
X8645592Y23923267D02*
X8681878Y23886981D01*
X8681878Y23886981D02*
X8754450Y23850695D01*
X8754450Y23850695D02*
X8827021Y23850695D01*
X8827021Y23850695D02*
X8899592Y23886981D01*
X8899592Y23886981D02*
X8935878Y23923267D01*
X8935878Y23923267D02*
X8972164Y23995838D01*
X8972164Y23995838D02*
X8972164Y24177267D01*
X8972164Y24177267D02*
X8935878Y24286124D01*
X8210164Y24612695D02*
X8972164Y24612695D01*
X8972164Y24612695D02*
X8210164Y25048124D01*
X8210164Y25048124D02*
X8972164Y25048124D01*
X8282735Y25410981D02*
X8246450Y25447267D01*
X8246450Y25447267D02*
X8210164Y25410981D01*
X8210164Y25410981D02*
X8246450Y25374695D01*
X8246450Y25374695D02*
X8282735Y25410981D01*
X8282735Y25410981D02*
X8210164Y25410981D01*
X8681878Y25410981D02*
X8645592Y25447267D01*
X8645592Y25447267D02*
X8609307Y25410981D01*
X8609307Y25410981D02*
X8645592Y25374695D01*
X8645592Y25374695D02*
X8681878Y25410981D01*
X8681878Y25410981D02*
X8609307Y25410981D01*
X8246450Y26318123D02*
X8210164Y26426980D01*
X8210164Y26426980D02*
X8210164Y26608409D01*
X8210164Y26608409D02*
X8246450Y26680980D01*
X8246450Y26680980D02*
X8282735Y26717266D01*
X8282735Y26717266D02*
X8355307Y26753552D01*
X8355307Y26753552D02*
X8427878Y26753552D01*
X8427878Y26753552D02*
X8500450Y26717266D01*
X8500450Y26717266D02*
X8536735Y26680980D01*
X8536735Y26680980D02*
X8573021Y26608409D01*
X8573021Y26608409D02*
X8609307Y26463266D01*
X8609307Y26463266D02*
X8645592Y26390695D01*
X8645592Y26390695D02*
X8681878Y26354409D01*
X8681878Y26354409D02*
X8754450Y26318123D01*
X8754450Y26318123D02*
X8827021Y26318123D01*
X8827021Y26318123D02*
X8899592Y26354409D01*
X8899592Y26354409D02*
X8935878Y26390695D01*
X8935878Y26390695D02*
X8972164Y26463266D01*
X8972164Y26463266D02*
X8972164Y26644695D01*
X8972164Y26644695D02*
X8935878Y26753552D01*
X8210164Y27080123D02*
X8718164Y27080123D01*
X8972164Y27080123D02*
X8935878Y27043837D01*
X8935878Y27043837D02*
X8899592Y27080123D01*
X8899592Y27080123D02*
X8935878Y27116409D01*
X8935878Y27116409D02*
X8972164Y27080123D01*
X8972164Y27080123D02*
X8899592Y27080123D01*
X8210164Y27769551D02*
X8609307Y27769551D01*
X8609307Y27769551D02*
X8681878Y27733266D01*
X8681878Y27733266D02*
X8718164Y27660694D01*
X8718164Y27660694D02*
X8718164Y27515551D01*
X8718164Y27515551D02*
X8681878Y27442980D01*
X8246450Y27769551D02*
X8210164Y27696980D01*
X8210164Y27696980D02*
X8210164Y27515551D01*
X8210164Y27515551D02*
X8246450Y27442980D01*
X8246450Y27442980D02*
X8319021Y27406694D01*
X8319021Y27406694D02*
X8391592Y27406694D01*
X8391592Y27406694D02*
X8464164Y27442980D01*
X8464164Y27442980D02*
X8500450Y27515551D01*
X8500450Y27515551D02*
X8500450Y27696980D01*
X8500450Y27696980D02*
X8536735Y27769551D01*
X8718164Y28059838D02*
X8210164Y28241266D01*
X8210164Y28241266D02*
X8718164Y28422695D01*
X8210164Y29039551D02*
X8609307Y29039551D01*
X8609307Y29039551D02*
X8681878Y29003266D01*
X8681878Y29003266D02*
X8718164Y28930694D01*
X8718164Y28930694D02*
X8718164Y28785551D01*
X8718164Y28785551D02*
X8681878Y28712980D01*
X8246450Y29039551D02*
X8210164Y28966980D01*
X8210164Y28966980D02*
X8210164Y28785551D01*
X8210164Y28785551D02*
X8246450Y28712980D01*
X8246450Y28712980D02*
X8319021Y28676694D01*
X8319021Y28676694D02*
X8391592Y28676694D01*
X8391592Y28676694D02*
X8464164Y28712980D01*
X8464164Y28712980D02*
X8500450Y28785551D01*
X8500450Y28785551D02*
X8500450Y28966980D01*
X8500450Y28966980D02*
X8536735Y29039551D01*
X8246450Y29366123D02*
X8210164Y29438695D01*
X8210164Y29438695D02*
X8210164Y29583838D01*
X8210164Y29583838D02*
X8246450Y29656409D01*
X8246450Y29656409D02*
X8319021Y29692695D01*
X8319021Y29692695D02*
X8355307Y29692695D01*
X8355307Y29692695D02*
X8427878Y29656409D01*
X8427878Y29656409D02*
X8464164Y29583838D01*
X8464164Y29583838D02*
X8464164Y29474980D01*
X8464164Y29474980D02*
X8500450Y29402409D01*
X8500450Y29402409D02*
X8573021Y29366123D01*
X8573021Y29366123D02*
X8609307Y29366123D01*
X8609307Y29366123D02*
X8681878Y29402409D01*
X8681878Y29402409D02*
X8718164Y29474980D01*
X8718164Y29474980D02*
X8718164Y29583838D01*
X8718164Y29583838D02*
X8681878Y29656409D01*
X8210164Y30019266D02*
X8972164Y30019266D01*
X8210164Y30345837D02*
X8609307Y30345837D01*
X8609307Y30345837D02*
X8681878Y30309552D01*
X8681878Y30309552D02*
X8718164Y30236980D01*
X8718164Y30236980D02*
X8718164Y30128123D01*
X8718164Y30128123D02*
X8681878Y30055552D01*
X8681878Y30055552D02*
X8645592Y30019266D01*
X8972164Y30599838D02*
X8972164Y31035266D01*
X8210164Y30817552D02*
X8972164Y30817552D01*
X8210164Y31289266D02*
X8972164Y31289266D01*
X8972164Y31289266D02*
X8972164Y31579552D01*
X8972164Y31579552D02*
X8935878Y31652123D01*
X8935878Y31652123D02*
X8899592Y31688409D01*
X8899592Y31688409D02*
X8827021Y31724695D01*
X8827021Y31724695D02*
X8718164Y31724695D01*
X8718164Y31724695D02*
X8645592Y31688409D01*
X8645592Y31688409D02*
X8609307Y31652123D01*
X8609307Y31652123D02*
X8573021Y31579552D01*
X8573021Y31579552D02*
X8573021Y31289266D01*
D13*
X23787099Y49354381D02*
X23787099Y49116286D01*
X24025194Y49211524D02*
X23787099Y49116286D01*
X23787099Y49116286D02*
X23549004Y49211524D01*
X23929956Y48925810D02*
X23787099Y49116286D01*
X23787099Y49116286D02*
X23644242Y48925810D01*
X23787099Y49354381D02*
X23787099Y49116286D01*
X24025194Y49211524D02*
X23787099Y49116286D01*
X23787099Y49116286D02*
X23549004Y49211524D01*
X23929956Y48925810D02*
X23787099Y49116286D01*
X23787099Y49116286D02*
X23644242Y48925810D01*
D14*
X13828500Y14461258D02*
X13828500Y13986742D01*
X14873500Y14461258D02*
X14873500Y13986742D01*
X17130500Y14461258D02*
X17130500Y13986742D01*
X18175500Y14461258D02*
X18175500Y13986742D01*
X30478000Y32906581D02*
X30478000Y32625419D01*
X31498000Y32906581D02*
X31498000Y32625419D01*
X18033419Y31752000D02*
X18314581Y31752000D01*
X18033419Y30732000D02*
X18314581Y30732000D01*
X48171981Y25656000D02*
X47890819Y25656000D01*
X48171981Y24636000D02*
X47890819Y24636000D01*
X23366000Y42050581D02*
X23366000Y41769419D01*
X24386000Y42050581D02*
X24386000Y41769419D01*
X38800000Y49743000D02*
X38800000Y47833000D01*
X39110001Y49433000D02*
X39110001Y45833000D01*
X39110001Y45833000D02*
X43460001Y45832999D01*
X39410001Y49133000D02*
X39410002Y48133000D01*
X39410001Y47382999D02*
X39110001Y47382999D01*
X39410001Y46283000D02*
X39410001Y47382999D01*
X39410002Y48133000D02*
X39110000Y48133000D01*
X39710001Y46283000D02*
X39410001Y46283000D01*
X39710001Y45833000D02*
X39710001Y46283000D01*
X40710001Y49743000D02*
X38800000Y49743000D01*
X40910001Y46283000D02*
X39710001Y46283000D01*
X40910001Y45983000D02*
X40910001Y46283000D01*
X41660001Y46283000D02*
X41660001Y45983000D01*
X41660001Y45983000D02*
X40910001Y45983000D01*
X42860000Y46283000D02*
X41660001Y46283000D01*
X42860000Y46283000D02*
X43160000Y46283000D01*
X42860001Y45832999D02*
X42860000Y46283000D01*
X43160000Y46283000D02*
X43160001Y47383000D01*
X43160001Y49133000D02*
X39410001Y49133000D01*
X43160001Y48133000D02*
X43160001Y49133000D01*
X43160001Y47383000D02*
X43460001Y47383000D01*
X43460001Y49433000D02*
X39110001Y49433000D01*
X43460001Y48133000D02*
X43160001Y48133000D01*
X43460001Y45832999D02*
X43460001Y49433000D01*
X39100000Y3959001D02*
X39100000Y359000D01*
X39100000Y1659000D02*
X39400000Y1659000D01*
X39100000Y359000D02*
X43450000Y359000D01*
X39400000Y2409000D02*
X39100000Y2409000D01*
X39400000Y1659000D02*
X39400000Y659000D01*
X39400000Y659000D02*
X43150000Y659000D01*
X39400001Y3509000D02*
X39400000Y2409000D01*
X39700000Y3959001D02*
X39700001Y3509000D01*
X39700001Y3509000D02*
X39400001Y3509000D01*
X39700001Y3509000D02*
X40900000Y3509000D01*
X40900000Y3809000D02*
X41650000Y3809000D01*
X40900000Y3509000D02*
X40900000Y3809000D01*
X41650000Y3809000D02*
X41650000Y3509000D01*
X41650000Y3509000D02*
X42850000Y3509000D01*
X41850000Y49000D02*
X43760001Y49000D01*
X42850000Y3959000D02*
X42850000Y3509000D01*
X42850000Y3509000D02*
X43150000Y3509000D01*
X43149999Y1659000D02*
X43450001Y1659000D01*
X43150000Y3509000D02*
X43150000Y2409001D01*
X43150000Y2409001D02*
X43450000Y2409001D01*
X43150000Y659000D02*
X43149999Y1659000D01*
X43450000Y3959000D02*
X39100000Y3959001D01*
X43450000Y359000D02*
X43450000Y3959000D01*
X43760001Y49000D02*
X43760001Y1959000D01*
X6399000Y2092000D02*
X6399000Y182000D01*
X6399000Y182000D02*
X8309000Y182000D01*
X6709000Y4842000D02*
X6709000Y492000D01*
X6709000Y492000D02*
X10309000Y492000D01*
X7009000Y4542000D02*
X7009000Y792000D01*
X7009000Y792000D02*
X8009000Y792000D01*
X8009000Y4842000D02*
X8009000Y4542000D01*
X8009000Y4542000D02*
X7009000Y4542000D01*
X8009000Y792000D02*
X8009000Y492000D01*
X8759000Y4542000D02*
X8759000Y4842000D01*
X8759000Y792000D02*
X8759000Y492000D01*
X9859000Y4542000D02*
X8759000Y4542000D01*
X9859000Y4242000D02*
X9859000Y4542000D01*
X9859000Y4242000D02*
X9859000Y3042000D01*
X9859000Y3042000D02*
X10159000Y3042000D01*
X9859000Y2292000D02*
X9859000Y1092000D01*
X9859000Y1092000D02*
X9859000Y792000D01*
X9859000Y792000D02*
X8759000Y792000D01*
X10159000Y3042000D02*
X10159000Y2292000D01*
X10159000Y2292000D02*
X9859000Y2292000D01*
X10309000Y4842000D02*
X6709000Y4842000D01*
X10309000Y4242000D02*
X9859000Y4242000D01*
X10309000Y1092000D02*
X9859000Y1092000D01*
X10309000Y492000D02*
X10309000Y4842000D01*
X27116000Y43070000D02*
X25716000Y43070000D01*
X27116000Y40750000D02*
X25706000Y40750000D01*
X25576000Y40470000D02*
X25096000Y40470000D01*
X25336000Y40800000D01*
X25576000Y40470000D01*
G36*
X25576000Y40470000D02*
G01*
X25096000Y40470000D01*
X25336000Y40800000D01*
X25576000Y40470000D01*
G37*
X29533200Y48825036D02*
X29533200Y48609364D01*
X30253200Y48825036D02*
X30253200Y48609364D01*
D15*
X40018800Y43325600D02*
G75*
G02*
X39818800Y43325600I-100000J0D01*
G01*
X39818800Y43325600D02*
G75*
G02*
X40018800Y43325600I100000J0D01*
G01*
D14*
X28083742Y21985500D02*
X28558258Y21985500D01*
X28083742Y20940500D02*
X28558258Y20940500D01*
X15859116Y48843304D02*
X15859116Y48627632D01*
X16579116Y48843304D02*
X16579116Y48627632D01*
X32779581Y26545000D02*
X32498419Y26545000D01*
X32779581Y25525000D02*
X32498419Y25525000D01*
X42429420Y25656000D02*
X42710582Y25656000D01*
X42429420Y24636000D02*
X42710582Y24636000D01*
X8546219Y12448000D02*
X8827381Y12448000D01*
X8546219Y11428000D02*
X8827381Y11428000D01*
X23765742Y30240500D02*
X24240258Y30240500D01*
X23765742Y29195500D02*
X24240258Y29195500D01*
X38776000Y12786000D02*
X39251000Y12786000D01*
X38776000Y12311000D02*
X38776000Y12786000D01*
X38776000Y9806000D02*
X38776000Y10041000D01*
X39076000Y9566000D02*
X39251000Y9566000D01*
X41996000Y12786000D02*
X41521000Y12786000D01*
X41996000Y12311000D02*
X41996000Y12786000D01*
X41996000Y10041000D02*
X41996000Y9566000D01*
X41996000Y9566000D02*
X41521000Y9566000D01*
X39016000Y9236000D02*
X38536000Y9236000D01*
X38776000Y9566000D01*
X39016000Y9236000D01*
G36*
X39016000Y9236000D02*
G01*
X38536000Y9236000D01*
X38776000Y9566000D01*
X39016000Y9236000D01*
G37*
X12939500Y2269258D02*
X12939500Y1794742D01*
X13984500Y2269258D02*
X13984500Y1794742D01*
X11475000Y39263500D02*
X11950000Y39263500D01*
X11475000Y38788500D02*
X11475000Y39263500D01*
X11475000Y36518500D02*
X11475000Y36043500D01*
X11475000Y36043500D02*
X11950000Y36043500D01*
X14395000Y39263500D02*
X14220000Y39263500D01*
X14695000Y39023500D02*
X14695000Y38788500D01*
X14695000Y36518500D02*
X14695000Y36043500D01*
X14695000Y36043500D02*
X14220000Y36043500D01*
X14695000Y39263500D02*
X14455000Y39593500D01*
X14935000Y39593500D01*
X14695000Y39263500D01*
G36*
X14695000Y39263500D02*
G01*
X14455000Y39593500D01*
X14935000Y39593500D01*
X14695000Y39263500D01*
G37*
X34562622Y33326000D02*
X33763378Y33326000D01*
X34562622Y32206000D02*
X33763378Y32206000D01*
X33488742Y9112500D02*
X33963258Y9112500D01*
X33488742Y8067500D02*
X33963258Y8067500D01*
X2018419Y31371000D02*
X2299581Y31371000D01*
X2018419Y30351000D02*
X2299581Y30351000D01*
X21207000Y25411819D02*
X21207000Y25692981D01*
X22227000Y25411819D02*
X22227000Y25692981D01*
X18740800Y48799636D02*
X18740800Y48583964D01*
X19460800Y48799636D02*
X19460800Y48583964D01*
X35159836Y46334000D02*
X34944164Y46334000D01*
X35159836Y45614000D02*
X34944164Y45614000D01*
D12*
X12612000Y48900200D02*
X12612000Y49336200D01*
X12612000Y47772200D02*
X12612000Y47336200D01*
X12612000Y47336200D02*
X12743000Y47336200D01*
X12743000Y49336200D02*
X12612000Y49336200D01*
X14481000Y47336200D02*
X14612000Y47336200D01*
X14612000Y49336200D02*
X14481000Y49336200D01*
X14612000Y48900200D02*
X14612000Y49336200D01*
X14612000Y47772200D02*
X14612000Y47336200D01*
D15*
X15462000Y48336200D02*
G75*
G02*
X15262000Y48336200I-100000J0D01*
G01*
X15262000Y48336200D02*
G75*
G02*
X15462000Y48336200I100000J0D01*
G01*
D14*
X18033419Y30228000D02*
X18314581Y30228000D01*
X18033419Y29208000D02*
X18314581Y29208000D01*
X24890000Y32906581D02*
X24890000Y32625419D01*
X25910000Y32906581D02*
X25910000Y32625419D01*
X32766581Y23497000D02*
X32485419Y23497000D01*
X32766581Y22477000D02*
X32485419Y22477000D01*
X28954000Y25640419D02*
X28954000Y25921581D01*
X29974000Y25640419D02*
X29974000Y25921581D01*
D11*
X6176000Y20955000D02*
G75*
G02*
X6076002Y20955000I-49999J0D01*
G01*
X6076002Y20955000D02*
G75*
G02*
X6176000Y20955000I49999J0D01*
G01*
D14*
X26178742Y44718500D02*
X26653258Y44718500D01*
X26178742Y43673500D02*
X26653258Y43673500D01*
X41161581Y8765000D02*
X40880419Y8765000D01*
X41161581Y7745000D02*
X40880419Y7745000D01*
X24834200Y48825036D02*
X24834200Y48609364D01*
X25554200Y48825036D02*
X25554200Y48609364D01*
X6526000Y46669000D02*
X6526000Y44759000D01*
X6526000Y44759000D02*
X8436000Y44759000D01*
X6836000Y49419000D02*
X6836000Y45069000D01*
X6836000Y45069000D02*
X10436000Y45069000D01*
X7136000Y49119000D02*
X7136000Y45369000D01*
X7136000Y45369000D02*
X8136000Y45369000D01*
X8136000Y49419000D02*
X8136000Y49119000D01*
X8136000Y49119000D02*
X7136000Y49119000D01*
X8136000Y45369000D02*
X8136000Y45069000D01*
X8886000Y49119000D02*
X8886000Y49419000D01*
X8886000Y45369000D02*
X8886000Y45069000D01*
X9986000Y49119000D02*
X8886000Y49119000D01*
X9986000Y48819000D02*
X9986000Y49119000D01*
X9986000Y48819000D02*
X9986000Y47619000D01*
X9986000Y47619000D02*
X10286000Y47619000D01*
X9986000Y46869000D02*
X9986000Y45669000D01*
X9986000Y45669000D02*
X9986000Y45369000D01*
X9986000Y45369000D02*
X8886000Y45369000D01*
X10286000Y47619000D02*
X10286000Y46869000D01*
X10286000Y46869000D02*
X9986000Y46869000D01*
X10436000Y49419000D02*
X6836000Y49419000D01*
X10436000Y48819000D02*
X9986000Y48819000D01*
X10436000Y45669000D02*
X9986000Y45669000D01*
X10436000Y45069000D02*
X10436000Y49419000D01*
X25906000Y18147419D02*
X25906000Y18428581D01*
X26926000Y18147419D02*
X26926000Y18428581D01*
X32766581Y25021000D02*
X32485419Y25021000D01*
X32766581Y24001000D02*
X32485419Y24001000D01*
X20378000Y32919581D02*
X20378000Y32638419D01*
X21398000Y32919581D02*
X21398000Y32638419D01*
X6021000Y22982422D02*
X6021000Y23499578D01*
X7441000Y22982422D02*
X7441000Y23499578D01*
X31182364Y48569200D02*
X31398036Y48569200D01*
X31182364Y47849200D02*
X31398036Y47849200D01*
X33978964Y49534400D02*
X34194636Y49534400D01*
X33978964Y48814400D02*
X34194636Y48814400D01*
X28388364Y48569200D02*
X28604036Y48569200D01*
X28388364Y47849200D02*
X28604036Y47849200D01*
D12*
X31889000Y10130000D02*
X31889000Y12730000D01*
X34659000Y10130000D02*
X34659000Y12730000D01*
D15*
X32324000Y9830000D02*
G75*
G02*
X32224000Y9830000I-50000J0D01*
G01*
X32224000Y9830000D02*
G75*
G02*
X32324000Y9830000I50000J0D01*
G01*
D14*
X31561500Y42599000D02*
X32036500Y42599000D01*
X31561500Y42124000D02*
X31561500Y42599000D01*
X31561500Y35619000D02*
X31561500Y35854000D01*
X31861500Y35379000D02*
X32036500Y35379000D01*
X38781500Y42599000D02*
X38306500Y42599000D01*
X38781500Y42124000D02*
X38781500Y42599000D01*
X38781500Y35854000D02*
X38781500Y35379000D01*
X38781500Y35379000D02*
X38306500Y35379000D01*
X31801500Y35049000D02*
X31321500Y35049000D01*
X31561500Y35379000D01*
X31801500Y35049000D01*
G36*
X31801500Y35049000D02*
G01*
X31321500Y35049000D01*
X31561500Y35379000D01*
X31801500Y35049000D01*
G37*
X2396258Y33034500D02*
X1921742Y33034500D01*
X2396258Y31989500D02*
X1921742Y31989500D01*
X42431581Y39499000D02*
X42150419Y39499000D01*
X42431581Y38479000D02*
X42150419Y38479000D01*
X18033420Y23370000D02*
X18314580Y23370000D01*
X18033420Y22350000D02*
X18314580Y22350000D01*
X12317000Y42304581D02*
X12317000Y42023419D01*
X13337000Y42304581D02*
X13337000Y42023419D01*
X18033420Y21846000D02*
X18314580Y21846000D01*
X18033420Y20826000D02*
X18314580Y20826000D01*
X14463500Y2269258D02*
X14463500Y1794742D01*
X15508500Y2269258D02*
X15508500Y1794742D01*
X32766581Y21973000D02*
X32485419Y21973000D01*
X32766581Y20953000D02*
X32485419Y20953000D01*
X20621000Y7359000D02*
X23321000Y7359000D01*
X23321000Y7359000D02*
X23321000Y9659000D01*
X39294500Y21197758D02*
X39294500Y20723242D01*
X40339500Y21197758D02*
X40339500Y20723242D01*
X32779581Y29593000D02*
X32498419Y29593000D01*
X32779581Y28573000D02*
X32498419Y28573000D01*
X33238000Y4356000D02*
X33237999Y3556000D01*
X33238000Y2756000D02*
X33237999Y3556000D01*
X36358000Y4356000D02*
X36358001Y3556000D01*
X36358000Y2756000D02*
X36358001Y3556000D01*
X36638000Y2016000D02*
X36308000Y2256000D01*
X36638000Y2496000D01*
X36638000Y2016000D01*
G36*
X36638000Y2016000D02*
G01*
X36308000Y2256000D01*
X36638000Y2496000D01*
X36638000Y2016000D01*
G37*
X12764000Y11112000D02*
X12764000Y10662000D01*
X12764000Y5892001D02*
X12764000Y6342000D01*
X13214000Y11112000D02*
X12764000Y11112000D01*
X13214000Y5892001D02*
X12764000Y5892001D01*
X17534000Y11112000D02*
X17983999Y11112000D01*
X17983999Y11112000D02*
X17983999Y10662000D01*
X17984000Y5892000D02*
X17984000Y6342000D01*
X39916981Y33250600D02*
X39635819Y33250600D01*
X39916981Y32230600D02*
X39635819Y32230600D01*
X23547200Y2435077D02*
X23547200Y115077D01*
X23547200Y115077D02*
X27457200Y115077D01*
X27457200Y2435077D02*
X23547200Y2435077D01*
X25035742Y21985500D02*
X25510258Y21985500D01*
X25035742Y20940500D02*
X25510258Y20940500D01*
X4049500Y31512742D02*
X4049500Y31987258D01*
X5094500Y31512742D02*
X5094500Y31987258D01*
X18020419Y20322000D02*
X18301581Y20322000D01*
X18020419Y19302000D02*
X18301581Y19302000D01*
X20412932Y48571800D02*
X20628604Y48571800D01*
X20412932Y47851800D02*
X20628604Y47851800D01*
X6161372Y16040000D02*
X6161371Y15240000D01*
X6161372Y14440000D02*
X6161371Y15240000D01*
X9281372Y16040000D02*
X9281373Y15240000D01*
X9281372Y14440000D02*
X9281373Y15240000D01*
X9561372Y13700000D02*
X9231372Y13940000D01*
X9561372Y14180000D01*
X9561372Y13700000D01*
G36*
X9561372Y13700000D02*
G01*
X9231372Y13940000D01*
X9561372Y14180000D01*
X9561372Y13700000D01*
G37*
X21842000Y32919581D02*
X21842000Y32638419D01*
X22862000Y32919581D02*
X22862000Y32638419D01*
X2526420Y15750000D02*
X2807580Y15750000D01*
X2526420Y14730000D02*
X2807580Y14730000D01*
X31063164Y46334000D02*
X31278836Y46334000D01*
X31063164Y45614000D02*
X31278836Y45614000D01*
X22111581Y11178000D02*
X21830419Y11178000D01*
X22111581Y10158000D02*
X21830419Y10158000D01*
X22462258Y21985500D02*
X21987742Y21985500D01*
X22462258Y20940500D02*
X21987742Y20940500D01*
X32779581Y28069000D02*
X32498419Y28069000D01*
X32779581Y27049000D02*
X32498419Y27049000D01*
X8873258Y9031500D02*
X8398742Y9031500D01*
X8873258Y7986500D02*
X8398742Y7986500D01*
X28954000Y18160419D02*
X28954000Y18441581D01*
X29974000Y18160419D02*
X29974000Y18441581D01*
X1049000Y35069001D02*
X1595529Y35069001D01*
X1049000Y33864001D02*
X1049000Y35069001D01*
X1049000Y33864001D02*
X1851470Y33864001D01*
X2159000Y36589001D02*
X3269000Y36589001D01*
X2466530Y33864001D02*
X3269000Y33864001D01*
X2722471Y35069001D02*
X3269000Y35069001D01*
X3269000Y36589001D02*
X3269001Y35829001D01*
X3269000Y33864001D02*
X3269000Y35069001D01*
X23790000Y27137000D02*
X24040000Y27137000D01*
X23790000Y26887000D02*
X23790000Y27137000D01*
X27010000Y27137000D02*
X26760000Y27137000D01*
X27010000Y26887000D02*
X27010000Y27137000D01*
X27010000Y24167000D02*
X27010000Y23917000D01*
X27010000Y23917000D02*
X26760000Y23917000D01*
X24030000Y23587000D02*
X23550000Y23587000D01*
X23790000Y23917000D01*
X24030000Y23587000D01*
G36*
X24030000Y23587000D02*
G01*
X23550000Y23587000D01*
X23790000Y23917000D01*
X24030000Y23587000D01*
G37*
X26178742Y40146500D02*
X26653258Y40146500D01*
X26178742Y39101500D02*
X26653258Y39101500D01*
X15492000Y14364581D02*
X15492000Y14083419D01*
X16512000Y14364581D02*
X16512000Y14083419D01*
X42332743Y27522700D02*
X42807259Y27522700D01*
X42332743Y26477700D02*
X42807259Y26477700D01*
X30478000Y18160419D02*
X30478000Y18441581D01*
X31498000Y18160419D02*
X31498000Y18441581D01*
X28954000Y32906581D02*
X28954000Y32625419D01*
X29974000Y32906581D02*
X29974000Y32625419D01*
X181999Y20906000D02*
X181999Y18996000D01*
X492000Y20596000D02*
X492000Y16996000D01*
X492000Y16996000D02*
X4842000Y16995999D01*
X792000Y20296000D02*
X792001Y19296000D01*
X792000Y18545999D02*
X492000Y18545999D01*
X792000Y17446000D02*
X792000Y18545999D01*
X792001Y19296000D02*
X491999Y19296000D01*
X1092000Y17446000D02*
X792000Y17446000D01*
X1092000Y16996000D02*
X1092000Y17446000D01*
X2092000Y20906000D02*
X181999Y20906000D01*
X2292000Y17446000D02*
X1092000Y17446000D01*
X2292000Y17146000D02*
X2292000Y17446000D01*
X3042000Y17446000D02*
X3042000Y17146000D01*
X3042000Y17146000D02*
X2292000Y17146000D01*
X4241999Y17446000D02*
X3042000Y17446000D01*
X4241999Y17446000D02*
X4541999Y17446000D01*
X4242000Y16995999D02*
X4241999Y17446000D01*
X4541999Y17446000D02*
X4542000Y18546000D01*
X4542000Y20296000D02*
X792000Y20296000D01*
X4542000Y19296000D02*
X4542000Y20296000D01*
X4542000Y18546000D02*
X4842000Y18546000D01*
X4842000Y20596000D02*
X492000Y20596000D01*
X4842000Y19296000D02*
X4542000Y19296000D01*
X4842000Y16995999D02*
X4842000Y20596000D01*
X30041000Y11370419D02*
X30041000Y11651581D01*
X31061000Y11370419D02*
X31061000Y11651581D01*
X18781500Y14461258D02*
X18781500Y13986742D01*
X19826500Y14461258D02*
X19826500Y13986742D01*
X31735500Y1540742D02*
X31735500Y2015258D01*
X32780500Y1540742D02*
X32780500Y2015258D01*
X104000Y29287000D02*
X504000Y29287000D01*
X504000Y21767000D02*
X104000Y21767000D01*
X4454000Y29287000D02*
X2474000Y29287000D01*
X4454000Y28867000D02*
X4454000Y29287000D01*
X4454000Y22187000D02*
X4454000Y21767000D01*
X4454000Y21767000D02*
X2474000Y21767000D01*
X5134000Y23767000D02*
X4684000Y23767000D01*
X5134000Y23767000D02*
X5134000Y24217000D01*
X1870942Y38241500D02*
X2345458Y38241500D01*
X1870942Y37196500D02*
X2345458Y37196500D01*
X11415500Y2269258D02*
X11415500Y1794742D01*
X12460500Y2269258D02*
X12460500Y1794742D01*
X23366000Y32906581D02*
X23366000Y32625419D01*
X24386000Y32906581D02*
X24386000Y32625419D01*
X42150419Y43639200D02*
X42431581Y43639200D01*
X42150419Y42619200D02*
X42431581Y42619200D01*
X21733742Y12714500D02*
X22208258Y12714500D01*
X21733742Y11669500D02*
X22208258Y11669500D01*
X-5725000Y12577000D02*
X275000Y12577000D01*
X-5725000Y12517000D02*
X275000Y12517000D01*
X-5725000Y12397000D02*
X275000Y12397000D01*
X-5725000Y12277000D02*
X275000Y12277000D01*
X-5725000Y12157000D02*
X275000Y12157000D01*
X-5725000Y12036999D02*
X275000Y12037000D01*
X-5725000Y11917001D02*
X275000Y11917000D01*
X-5725000Y11817000D02*
X-5725000Y12577000D01*
X-5725000Y10037000D02*
X275000Y10037000D01*
X-5725000Y9277000D02*
X-5725000Y10037000D01*
X275000Y13527000D02*
X275000Y8327000D01*
X275000Y11817000D02*
X-5725000Y11817000D01*
X275000Y10927000D02*
X2935000Y10927000D01*
X275000Y9277000D02*
X-5725000Y9277000D01*
X275000Y8327000D02*
X2935000Y8327000D01*
X2935000Y13527000D02*
X275000Y13527000D01*
X2935000Y12577000D02*
X3265000Y12577000D01*
X2935000Y11817000D02*
X3265000Y11817000D01*
X2935000Y10037000D02*
X3332071Y10037000D01*
X2935000Y9277000D02*
X3332071Y9277000D01*
X2935000Y8327000D02*
X2935000Y13527000D01*
X4375000Y13467001D02*
X5645000Y13467000D01*
X5645000Y13467000D02*
X5645001Y12197000D01*
X33069559Y47573200D02*
X33376841Y47573200D01*
X33069559Y46813200D02*
X33376841Y46813200D01*
X26813742Y30240500D02*
X27288258Y30240500D01*
X26813742Y29195500D02*
X27288258Y29195500D01*
D15*
X38511600Y46116400D02*
G75*
G02*
X38311600Y46116400I-100000J0D01*
G01*
X38311600Y46116400D02*
G75*
G02*
X38511600Y46116400I100000J0D01*
G01*
D14*
X27430000Y18147419D02*
X27430000Y18428581D01*
X28450000Y18147419D02*
X28450000Y18428581D01*
X33089000Y15080581D02*
X33089000Y14799419D01*
X34109000Y15080581D02*
X34109000Y14799419D01*
D16*
X44949100Y41721401D02*
G75*
G02*
X44745900Y41721401I-101600J0D01*
G01*
X44745900Y41721401D02*
G75*
G02*
X44949100Y41721401I101600J0D01*
G01*
D14*
X21207000Y29096581D02*
X21207000Y28815419D01*
X22227000Y29096581D02*
X22227000Y28815419D01*
X32304200Y48825036D02*
X32304200Y48609364D01*
X33024200Y48825036D02*
X33024200Y48609364D01*
X36828000Y1612019D02*
X36828000Y1893181D01*
X37848000Y1612019D02*
X37848000Y1893181D01*
X22111581Y6860000D02*
X21830419Y6860000D01*
X22111581Y5840000D02*
X21830419Y5840000D01*
X42470419Y18747200D02*
X42751581Y18747200D01*
X42470419Y17727200D02*
X42751581Y17727200D01*
X36828000Y4660019D02*
X36828000Y4941181D01*
X37848000Y4660019D02*
X37848000Y4941181D01*
X40858000Y22390000D02*
X40857999Y21590000D01*
X40858000Y20790000D02*
X40857999Y21590000D01*
X43978000Y22390000D02*
X43978001Y21590000D01*
X43978000Y20790000D02*
X43978001Y21590000D01*
X44258000Y20050000D02*
X43928000Y20290000D01*
X44258000Y20530000D01*
X44258000Y20050000D01*
G36*
X44258000Y20050000D02*
G01*
X43928000Y20290000D01*
X44258000Y20530000D01*
X44258000Y20050000D01*
G37*
X39916981Y31726600D02*
X39635819Y31726600D01*
X39916981Y30706600D02*
X39635819Y30706600D01*
X7646581Y18671000D02*
X7365419Y18671000D01*
X7646581Y17651000D02*
X7365419Y17651000D01*
X7646581Y20195000D02*
X7365419Y20195000D01*
X7646581Y19175000D02*
X7365419Y19175000D01*
%LPC*%
D17*
X12862000Y48086200D02*
X12462000Y48086200D01*
X12462000Y48586200D01*
X12862000Y48586200D01*
X12862000Y48086200D01*
G36*
X12862000Y48086200D02*
G01*
X12462000Y48086200D01*
X12462000Y48586200D01*
X12862000Y48586200D01*
X12862000Y48086200D01*
G37*
X14762000Y48086200D02*
X14362000Y48086200D01*
X14362000Y48586200D01*
X14762000Y48586200D01*
X14762000Y48086200D01*
G36*
X14762000Y48086200D02*
G01*
X14362000Y48086200D01*
X14362000Y48586200D01*
X14762000Y48586200D01*
X14762000Y48086200D01*
G37*
X14162000Y49016200D02*
X13932000Y48786200D01*
X13292000Y48786200D01*
X13062000Y49016200D01*
X13062000Y49486200D01*
X14162000Y49486200D01*
X14162000Y49016200D01*
G36*
X14162000Y49016200D02*
G01*
X13932000Y48786200D01*
X13292000Y48786200D01*
X13062000Y49016200D01*
X13062000Y49486200D01*
X14162000Y49486200D01*
X14162000Y49016200D01*
G37*
X14162000Y47656200D02*
X14162000Y47186200D01*
X13062000Y47186200D01*
X13062000Y47656200D01*
X13292000Y47886200D01*
X13932000Y47886200D01*
X14162000Y47656200D01*
G36*
X14162000Y47656200D02*
G01*
X14162000Y47186200D01*
X13062000Y47186200D01*
X13062000Y47656200D01*
X13292000Y47886200D01*
X13932000Y47886200D01*
X14162000Y47656200D01*
G37*
D18*
X48783000Y16764000D03*
D19*
X47512999Y16764000D03*
D20*
X47066200Y3048000D03*
D21*
X47066200Y3048000D03*
D18*
X48783000Y10033000D03*
D19*
X47512999Y10033000D03*
D18*
X48773001Y35560000D03*
D19*
X47503000Y35560000D03*
X46233001Y35560000D03*
D20*
X47066200Y47040800D03*
D21*
X47066200Y47040800D03*
D18*
X48783000Y14478000D03*
D19*
X47512999Y14478000D03*
D18*
X48742600Y42341800D03*
D19*
X47472599Y42341800D03*
X46202600Y42341800D03*
X44932600Y42341800D03*
D20*
X3048000Y47040800D03*
D21*
X3048000Y47040800D03*
D18*
X48783000Y12192000D03*
D19*
X47512999Y12192000D03*
D18*
X48763000Y40132000D03*
D19*
X47492999Y40132000D03*
X46223000Y40132000D03*
X44953000Y40132000D03*
D18*
X48768001Y37846000D03*
D19*
X47498000Y37846000D03*
X46228001Y37846000D03*
D20*
X3048000Y3048000D03*
D21*
X3048000Y3048000D03*
D22*
X14351000Y13399000D03*
X14351000Y15049000D03*
X17653000Y13399000D03*
X17653000Y15049000D03*
D23*
X30988000Y31991000D03*
X30988000Y33541000D03*
D24*
X18949000Y31242000D03*
X17399000Y31242000D03*
D25*
X47256400Y25146000D03*
X48806400Y25146000D03*
D23*
X23876000Y41135000D03*
X23876000Y42685000D03*
D26*
X40660001Y48133000D03*
D27*
X41910000Y48133000D03*
D28*
X31775200Y47193200D03*
X30805200Y47193200D03*
D29*
X41900000Y1659000D03*
D27*
X40650001Y1659000D03*
D30*
X8009000Y2042000D03*
D31*
X8009000Y3292000D03*
D32*
X25466000Y41260000D03*
X25466001Y41910000D03*
X25466000Y42560000D03*
X27366000Y42560000D03*
X27366000Y41260000D03*
D28*
X9733000Y10160000D03*
X8763000Y10160000D03*
X18138000Y48227468D03*
X17168000Y48227468D03*
D33*
X29893200Y48237200D03*
X29893200Y49197200D03*
D34*
X39793800Y44170599D03*
X39293800Y44170600D03*
X38793800Y44170599D03*
X38793800Y44700600D03*
X39293800Y44700599D03*
X39793800Y44700600D03*
D35*
X45948600Y7696200D03*
D36*
X29146000Y21463000D03*
X27496000Y21463000D03*
D33*
X16219116Y48255468D03*
X16219116Y49215468D03*
D25*
X31864000Y26035000D03*
X33414000Y26035000D03*
D24*
X43345001Y25146000D03*
X41795001Y25146000D03*
X9461800Y11938000D03*
X7911800Y11938000D03*
D36*
X24828000Y29718000D03*
X23178000Y29718000D03*
D37*
X38923500Y10426000D03*
X38923500Y10926000D03*
X38923500Y11426000D03*
X38923500Y11926000D03*
D38*
X39636000Y12638500D03*
X40136000Y12638500D03*
X40636000Y12638500D03*
X41136000Y12638500D03*
D37*
X41848500Y11926000D03*
X41848500Y11426000D03*
X41848500Y10926000D03*
X41848500Y10426000D03*
D38*
X41136000Y9713500D03*
X40636000Y9713500D03*
X40136000Y9713500D03*
X39636000Y9713500D03*
D39*
X40386000Y11176000D03*
D22*
X13462000Y1207000D03*
X13462000Y2857000D03*
D40*
X14547500Y38403500D03*
X14547500Y37903500D03*
X14547500Y37403500D03*
X14547500Y36903500D03*
D41*
X13835000Y36191000D03*
X13335000Y36191000D03*
X12835000Y36191000D03*
X12335000Y36191000D03*
D40*
X11622500Y36903500D03*
X11622500Y37403500D03*
X11622500Y37903500D03*
X11622500Y38403500D03*
D41*
X12335000Y39116000D03*
X12835000Y39116000D03*
X13335000Y39116000D03*
X13835000Y39116000D03*
D39*
X13085000Y37653500D03*
D42*
X33100500Y32766000D03*
X35225500Y32766000D03*
D43*
X32591000Y45974000D03*
X33561000Y45974000D03*
D36*
X34551000Y8590000D03*
X32901000Y8590000D03*
D24*
X2934000Y30861000D03*
X1384000Y30861000D03*
D44*
X21717000Y26327400D03*
X21717000Y24777400D03*
D33*
X19100800Y48211800D03*
X19100800Y49171800D03*
D45*
X34572000Y45974000D03*
X35532000Y45974000D03*
D24*
X18949000Y29718000D03*
X17399000Y29718000D03*
D23*
X25400000Y31991000D03*
X25400000Y33541000D03*
D25*
X31851000Y22987000D03*
X33401000Y22987000D03*
D44*
X29464000Y26556000D03*
X29464000Y25006000D03*
D43*
X6731000Y20955000D03*
X7701000Y20955000D03*
D36*
X27241000Y44196000D03*
X25591000Y44196000D03*
D25*
X40246000Y8255000D03*
X41796000Y8255000D03*
D33*
X25194200Y48237200D03*
X25194200Y49197200D03*
D30*
X8136000Y46619000D03*
D31*
X8136000Y47869000D03*
D44*
X26416000Y19063000D03*
X26416000Y17513000D03*
D25*
X31851000Y24511000D03*
X33401000Y24511000D03*
D23*
X20888000Y32004000D03*
X20888000Y33554000D03*
D46*
X6731000Y24178501D03*
X6731000Y22303499D03*
D47*
X31770200Y48209200D03*
X30810200Y48209200D03*
X34566800Y49174400D03*
X33606800Y49174400D03*
X28976200Y48209200D03*
X28016200Y48209200D03*
D48*
X32298999Y10460000D03*
X32949000Y10460000D03*
X33599000Y10460000D03*
X34249001Y10460000D03*
X34249001Y12400000D03*
X33599000Y12400000D03*
X32949000Y12400000D03*
X32298999Y12400000D03*
D49*
X31734000Y36239000D03*
X31734000Y36739000D03*
X31734000Y37239001D03*
X31734000Y37739000D03*
X31734000Y38238999D03*
X31734000Y38739000D03*
X31734000Y39239000D03*
X31734000Y39739001D03*
X31734000Y40239000D03*
X31734000Y40738999D03*
X31734000Y41239000D03*
X31734000Y41739000D03*
D50*
X32421500Y42426500D03*
X32921500Y42426500D03*
X33421501Y42426500D03*
X33921500Y42426500D03*
X34421499Y42426500D03*
X34921500Y42426500D03*
X35421500Y42426500D03*
X35921501Y42426500D03*
X36421500Y42426500D03*
X36921499Y42426500D03*
X37421500Y42426500D03*
X37921500Y42426500D03*
D49*
X38609000Y41739000D03*
X38609000Y41239000D03*
X38609000Y40738999D03*
X38609000Y40239000D03*
X38609000Y39739001D03*
X38609000Y39239000D03*
X38609000Y38739000D03*
X38609000Y38238999D03*
X38609000Y37739000D03*
X38609000Y37239001D03*
X38609000Y36739000D03*
X38609000Y36239000D03*
D50*
X37921500Y35551500D03*
X37421500Y35551500D03*
X36921499Y35551500D03*
X36421500Y35551500D03*
X35921501Y35551500D03*
X35421500Y35551500D03*
X34921500Y35551500D03*
X34421499Y35551500D03*
X33921500Y35551500D03*
X33421501Y35551500D03*
X32921500Y35551500D03*
X32421500Y35551500D03*
D51*
X35171500Y38989000D03*
D52*
X1334000Y32512000D03*
X2984000Y32512000D03*
D25*
X41516000Y38989000D03*
X43066000Y38989000D03*
D24*
X18949000Y22860000D03*
X17399000Y22860000D03*
D53*
X16444000Y889000D03*
X17084000Y889000D03*
D28*
X27076200Y48209200D03*
X26106200Y48209200D03*
D23*
X12827000Y41389000D03*
X12827000Y42939000D03*
D24*
X18949000Y21336000D03*
X17399000Y21336000D03*
D22*
X14986000Y1207000D03*
X14986000Y2857000D03*
D25*
X31851000Y21463000D03*
X33401000Y21463000D03*
D54*
X22671000Y7959000D03*
X21271000Y7959000D03*
X21271000Y9059000D03*
X22671000Y9059000D03*
D22*
X39817000Y20135500D03*
X39817000Y21785500D03*
D25*
X31864000Y29083000D03*
X33414000Y29083000D03*
D53*
X17968000Y2413000D03*
X18608000Y2413000D03*
D55*
X35747999Y2418500D03*
X34798000Y2418500D03*
X33848001Y2418500D03*
X33848001Y4693500D03*
X35747999Y4693500D03*
D56*
X17174000Y6014500D03*
X16774000Y6014500D03*
X16374000Y6014500D03*
X15974000Y6014500D03*
X15574000Y6014500D03*
X15174000Y6014500D03*
X14774000Y6014500D03*
X14374000Y6014500D03*
X13974000Y6014500D03*
X13574000Y6014500D03*
D57*
X12886500Y6702001D03*
X12886500Y7102000D03*
X12886500Y7502000D03*
X12886500Y7902000D03*
X12886501Y8302000D03*
X12886500Y8702000D03*
X12886500Y9102000D03*
X12886500Y9502001D03*
X12886500Y9902000D03*
X12886500Y10302000D03*
D56*
X13574000Y10989500D03*
X13974000Y10989500D03*
X14373999Y10989500D03*
X14774000Y10989500D03*
X15174000Y10989500D03*
X15574000Y10989499D03*
X15974000Y10989500D03*
X16374000Y10989500D03*
X16774000Y10989500D03*
X17173999Y10989500D03*
D57*
X17861500Y10302000D03*
X17861500Y9902000D03*
X17861500Y9502000D03*
X17861500Y9102000D03*
X17861500Y8702000D03*
X17861500Y8302000D03*
X17861500Y7902000D03*
X17861500Y7502000D03*
X17861500Y7102000D03*
X17861500Y6702000D03*
D58*
X15374000Y8502000D03*
D25*
X39001400Y32740600D03*
X40551400Y32740600D03*
D59*
X12954000Y13231000D03*
X12954000Y14201000D03*
D60*
X24407200Y1275077D03*
X27307200Y1275077D03*
D36*
X26098000Y21463000D03*
X24448000Y21463000D03*
D61*
X4572000Y32575000D03*
X4572000Y30925000D03*
D24*
X18936000Y19812000D03*
X17386000Y19812000D03*
D47*
X21000768Y48211800D03*
X20040768Y48211800D03*
D55*
X8671371Y14102500D03*
X7721372Y14102500D03*
X6771373Y14102500D03*
X6771373Y16377500D03*
X8671371Y16377500D03*
D23*
X22352000Y32004000D03*
X22352000Y33554000D03*
D24*
X3442000Y15240000D03*
X1892000Y15240000D03*
D35*
X4089400Y42519600D03*
D47*
X31651000Y45974000D03*
X30691000Y45974000D03*
D25*
X21196000Y10668000D03*
X22746000Y10668000D03*
D52*
X21400000Y21463000D03*
X23050000Y21463000D03*
D25*
X31864000Y27559000D03*
X33414000Y27559000D03*
D52*
X7811000Y8509000D03*
X9461000Y8509000D03*
D44*
X29464000Y19076000D03*
X29464000Y17526000D03*
D18*
X2159000Y35829001D03*
D19*
X2159000Y34559000D03*
D62*
X11811000Y14201000D03*
X11811000Y13231000D03*
D63*
X23900000Y24527000D03*
D64*
X23900000Y24927000D03*
X23900000Y25327000D03*
X23900000Y25727000D03*
X23900000Y26127000D03*
D65*
X23900000Y26527000D03*
D66*
X24400000Y27027000D03*
D67*
X24800000Y27027000D03*
X25200000Y27027000D03*
X25600000Y27027000D03*
X26000000Y27027000D03*
D68*
X26400000Y27027000D03*
D69*
X26900000Y26527000D03*
D64*
X26900000Y26127000D03*
X26900000Y25727000D03*
X26900000Y25327000D03*
X26900000Y24927000D03*
D70*
X26900000Y24527000D03*
D71*
X26400000Y24027000D03*
D67*
X26000000Y24027000D03*
X25600000Y24027000D03*
X25200000Y24027000D03*
X24800000Y24027000D03*
D72*
X24400000Y24027000D03*
D73*
X25400000Y25527000D03*
D74*
X18608000Y889000D03*
X17968000Y889000D03*
D36*
X27241000Y39624000D03*
X25591000Y39624000D03*
D23*
X16002000Y13449000D03*
X16002000Y14999000D03*
D36*
X43395001Y27000200D03*
X41745001Y27000200D03*
D75*
X16383000Y2474000D03*
X16383000Y3114000D03*
D44*
X30988000Y19076000D03*
X30988000Y17526000D03*
D23*
X29464000Y31991000D03*
X29464000Y33541000D03*
D26*
X2042000Y19296000D03*
D27*
X3291999Y19296000D03*
D44*
X30551000Y12286000D03*
X30551000Y10736000D03*
D22*
X19304000Y13399000D03*
X19304000Y15049000D03*
D61*
X32258000Y2603000D03*
X32258000Y953000D03*
D76*
X4194000Y24227000D03*
X4194000Y24877000D03*
X4193999Y25527000D03*
X4194000Y26177000D03*
X4194000Y26827000D03*
D77*
X1494000Y22027000D03*
D78*
X1494000Y22627000D03*
D79*
X4194000Y23027001D03*
D80*
X1494000Y24527000D03*
X1494000Y26527000D03*
D79*
X4194000Y28026999D03*
D78*
X1494000Y28427000D03*
D77*
X1494000Y29027000D03*
D36*
X2933200Y37719000D03*
X1283200Y37719000D03*
D22*
X11938000Y1207000D03*
X11938000Y2857000D03*
D28*
X23014800Y1270000D03*
X22044800Y1270000D03*
D23*
X23876000Y31991000D03*
X23876000Y33541000D03*
D24*
X43066000Y43129200D03*
X41516000Y43129200D03*
D53*
X17968000Y1651000D03*
X18608000Y1651000D03*
D36*
X22796000Y12192000D03*
X21146000Y12192000D03*
D81*
X17145000Y3114000D03*
X17145000Y2474000D03*
D82*
X4375000Y12197000D03*
D83*
X4375000Y9657000D03*
D84*
X33733200Y47193200D03*
X32713200Y47193200D03*
D28*
X34571800Y48209200D03*
X33601800Y48209200D03*
D36*
X27876000Y29718000D03*
X26226000Y29718000D03*
D85*
X37566601Y45991400D03*
X37566600Y45491400D03*
X37566601Y44991400D03*
X37036600Y44991400D03*
X37036601Y45491400D03*
X37036600Y45991400D03*
D44*
X27940000Y19063000D03*
X27940000Y17513000D03*
D53*
X19492000Y1270000D03*
X20132000Y1270000D03*
D23*
X33599000Y14165000D03*
X33599000Y15715000D03*
D86*
X43014901Y41721400D03*
X43014901Y40371400D03*
X41567099Y40371400D03*
X41567099Y41721400D03*
D23*
X21717000Y28181000D03*
X21717000Y29731000D03*
D33*
X32664200Y48237200D03*
X32664200Y49197200D03*
D87*
X23025100Y48609199D03*
X23025100Y48209200D03*
X23025100Y47809201D03*
X22631400Y47815500D03*
X22237700Y47809201D03*
X22237700Y48209200D03*
X22237700Y48609199D03*
X22631400Y48602900D03*
D59*
X21056600Y1267600D03*
X21056600Y2237600D03*
D44*
X37338000Y2527600D03*
X37338000Y977600D03*
D25*
X21196000Y6350000D03*
X22746000Y6350000D03*
D24*
X43386000Y18237200D03*
X41836000Y18237200D03*
D44*
X37338000Y5575600D03*
X37338000Y4025600D03*
D55*
X43367999Y20452500D03*
X42418000Y20452500D03*
X41468001Y20452500D03*
X41468001Y22727500D03*
X43367999Y22727500D03*
D25*
X39001400Y31216600D03*
X40551400Y31216600D03*
X6731000Y18161000D03*
X8281000Y18161000D03*
X6731000Y19685000D03*
X8281000Y19685000D03*
%LPD*%
M02*
