%TF.GenerationSoftware,KiCad,Pcbnew,8.0.0*%
%TF.CreationDate,2024-03-25T07:30:23-04:00*%
%TF.ProjectId,_Sub_HW_Qcopter,5f537562-5f48-4575-9f51-636f70746572,rev?*%
%TF.SameCoordinates,PX9157080PYf23bb80*%
%TF.FileFunction,Drillmap*%
%TF.FilePolarity,Positive*%
%FSLAX45Y45*%
G04 Gerber Fmt 4.5, Leading zero omitted, Abs format (unit mm)*
G04 Created by KiCad (PCBNEW 8.0.0) date 2024-03-25 07:30:23*
%MOMM*%
%LPD*%
G01*
G04 APERTURE LIST*
%ADD10C,0.050000*%
%ADD11C,0.200000*%
%ADD12C,0.100000*%
%ADD13C,0.320000*%
G04 APERTURE END LIST*
D10*
X0Y4690000D02*
G75*
G02*
X300000Y4990000I300000J0D01*
G01*
X0Y4690000D02*
X0Y300000D01*
X4690000Y4990000D02*
G75*
G02*
X4990000Y4690000I0J-300000D01*
G01*
X300000Y4990000D02*
X4690000Y4990000D01*
X4990000Y300000D02*
G75*
G02*
X4690000Y0I-300000J0D01*
G01*
X300000Y0D02*
G75*
G02*
X0Y300000I0J300000D01*
G01*
X4990000Y4690000D02*
X4990000Y300000D01*
X4690000Y0D02*
X300000Y0D01*
D11*
D12*
X114145Y3923510D02*
X134145Y3903510D01*
X134145Y3923510D02*
X114145Y3903510D01*
X114460Y3682840D02*
X134460Y3662840D01*
X134460Y3682840D02*
X114460Y3662840D01*
X139860Y3974940D02*
X159860Y3954940D01*
X159860Y3974940D02*
X139860Y3954940D01*
X142400Y4330540D02*
X162400Y4310540D01*
X162400Y4330540D02*
X142400Y4310540D01*
X191880Y3357720D02*
X211880Y3337720D01*
X211880Y3357720D02*
X191880Y3337720D01*
X213520Y3891120D02*
X233520Y3871120D01*
X233520Y3891120D02*
X213520Y3871120D01*
X282100Y2664300D02*
X302100Y2644300D01*
X302100Y2664300D02*
X282100Y2644300D01*
X282100Y2562700D02*
X302100Y2542700D01*
X302100Y2562700D02*
X282100Y2542700D01*
X287180Y2463640D02*
X307180Y2443640D01*
X307180Y2463640D02*
X287180Y2443640D01*
X304960Y3972400D02*
X324960Y3952400D01*
X324960Y3972400D02*
X304960Y3952400D01*
X307500Y3357720D02*
X327500Y3337720D01*
X327500Y3357720D02*
X307500Y3337720D01*
X350680Y3474560D02*
X370680Y3454560D01*
X370680Y3474560D02*
X350680Y3454560D01*
X350680Y3416140D02*
X370680Y3396140D01*
X370680Y3416140D02*
X350680Y3396140D01*
X373540Y3357720D02*
X393540Y3337720D01*
X393540Y3357720D02*
X373540Y3337720D01*
X391320Y3972400D02*
X411320Y3952400D01*
X411320Y3972400D02*
X391320Y3952400D01*
X398940Y3802220D02*
X418940Y3782220D01*
X418940Y3802220D02*
X398940Y3782220D01*
X434500Y3360260D02*
X454500Y3340260D01*
X454500Y3360260D02*
X434500Y3340260D01*
X462440Y3418680D02*
X482440Y3398680D01*
X482440Y3418680D02*
X462440Y3398680D01*
X467520Y3972400D02*
X487520Y3952400D01*
X487520Y3972400D02*
X467520Y3952400D01*
X500540Y3357720D02*
X520540Y3337720D01*
X520540Y3357720D02*
X500540Y3337720D01*
X513240Y4104480D02*
X533240Y4084480D01*
X533240Y4104480D02*
X513240Y4084480D01*
X528480Y3985100D02*
X548480Y3965100D01*
X548480Y3985100D02*
X528480Y3965100D01*
X536100Y843120D02*
X556100Y823120D01*
X556100Y843120D02*
X536100Y823120D01*
X543720Y1955640D02*
X563720Y1935640D01*
X563720Y1955640D02*
X543720Y1935640D01*
X564040Y1094580D02*
X584040Y1074580D01*
X584040Y1094580D02*
X564040Y1074580D01*
X602140Y873600D02*
X622140Y853600D01*
X622140Y873600D02*
X602140Y853600D01*
X779940Y2417920D02*
X799940Y2397920D01*
X799940Y2417920D02*
X779940Y2397920D01*
X807880Y2049620D02*
X827880Y2029620D01*
X827880Y2049620D02*
X807880Y2029620D01*
X868840Y2417920D02*
X888840Y2397920D01*
X888840Y2417920D02*
X868840Y2397920D01*
X868840Y2336640D02*
X888840Y2316640D01*
X888840Y2336640D02*
X868840Y2316640D01*
X868840Y2260440D02*
X888840Y2240440D01*
X888840Y2260440D02*
X868840Y2240440D01*
X868840Y2194400D02*
X888840Y2174400D01*
X888840Y2194400D02*
X868840Y2174400D01*
X868840Y2120740D02*
X888840Y2100740D01*
X888840Y2120740D02*
X868840Y2100740D01*
X868840Y2049620D02*
X888840Y2029620D01*
X888840Y2049620D02*
X868840Y2029620D01*
X884080Y1981040D02*
X904080Y1961040D01*
X904080Y1981040D02*
X884080Y1961040D01*
X924720Y2222340D02*
X944720Y2202340D01*
X944720Y2222340D02*
X924720Y2202340D01*
X983140Y617060D02*
X1003140Y597060D01*
X1003140Y617060D02*
X983140Y597060D01*
X1000920Y3466940D02*
X1020920Y3446940D01*
X1020920Y3466940D02*
X1000920Y3446940D01*
X1000920Y3403440D02*
X1020920Y3383440D01*
X1020920Y3403440D02*
X1000920Y3383440D01*
X1011080Y1452720D02*
X1031080Y1432720D01*
X1031080Y1452720D02*
X1011080Y1432720D01*
X1025450Y923645D02*
X1045450Y903645D01*
X1045450Y923645D02*
X1025450Y903645D01*
X1046640Y4543900D02*
X1066640Y4523900D01*
X1066640Y4543900D02*
X1046640Y4523900D01*
X1051720Y3466940D02*
X1071720Y3446940D01*
X1071720Y3466940D02*
X1051720Y3446940D01*
X1051720Y3403440D02*
X1071720Y3383440D01*
X1071720Y3403440D02*
X1051720Y3383440D01*
X1056800Y451960D02*
X1076800Y431960D01*
X1076800Y451960D02*
X1056800Y431960D01*
X1061880Y1280000D02*
X1081880Y1260000D01*
X1081880Y1280000D02*
X1061880Y1260000D01*
X1067361Y963013D02*
X1087361Y943013D01*
X1087361Y963013D02*
X1067361Y943013D01*
X1072040Y888840D02*
X1092040Y868840D01*
X1092040Y888840D02*
X1072040Y868840D01*
X1074580Y1130140D02*
X1094580Y1110140D01*
X1094580Y1130140D02*
X1074580Y1110140D01*
X1082200Y810100D02*
X1102200Y790100D01*
X1102200Y810100D02*
X1082200Y790100D01*
X1089820Y4823300D02*
X1109820Y4803300D01*
X1109820Y4823300D02*
X1089820Y4803300D01*
X1102520Y3334860D02*
X1122520Y3314860D01*
X1122520Y3334860D02*
X1102520Y3314860D01*
X1107600Y4749640D02*
X1127600Y4729640D01*
X1127600Y4749640D02*
X1107600Y4729640D01*
X1107915Y758670D02*
X1127915Y738670D01*
X1127915Y758670D02*
X1107915Y738670D01*
X1110140Y1066640D02*
X1130140Y1046640D01*
X1130140Y1066640D02*
X1110140Y1046640D01*
X1115220Y451960D02*
X1135220Y431960D01*
X1135220Y451960D02*
X1115220Y431960D01*
X1117760Y695800D02*
X1137760Y675800D01*
X1137760Y695800D02*
X1117760Y675800D01*
X1122840Y977740D02*
X1142840Y957740D01*
X1142840Y977740D02*
X1122840Y957740D01*
X1133000Y1208880D02*
X1153000Y1188880D01*
X1153000Y1208880D02*
X1133000Y1188880D01*
X1155860Y3334860D02*
X1175860Y3314860D01*
X1175860Y3334860D02*
X1155860Y3314860D01*
X1155860Y2735420D02*
X1175860Y2715420D01*
X1175860Y2735420D02*
X1155860Y2715420D01*
X1155860Y2682080D02*
X1175860Y2662080D01*
X1175860Y2682080D02*
X1155860Y2662080D01*
X1155860Y2631280D02*
X1175860Y2611280D01*
X1175860Y2631280D02*
X1155860Y2611280D01*
X1206660Y2735420D02*
X1226660Y2715420D01*
X1226660Y2735420D02*
X1206660Y2715420D01*
X1206660Y2682080D02*
X1226660Y2662080D01*
X1226660Y2682080D02*
X1206660Y2662080D01*
X1206660Y2631280D02*
X1226660Y2611280D01*
X1226660Y2631280D02*
X1206660Y2611280D01*
X1206660Y2382360D02*
X1226660Y2362360D01*
X1226660Y2382360D02*
X1206660Y2362360D01*
X1206660Y2329020D02*
X1226660Y2309020D01*
X1226660Y2329020D02*
X1206660Y2309020D01*
X1206660Y2278220D02*
X1226660Y2258220D01*
X1226660Y2278220D02*
X1206660Y2258220D01*
X1206660Y2169000D02*
X1226660Y2149000D01*
X1226660Y2169000D02*
X1206660Y2149000D01*
X1206660Y2115660D02*
X1226660Y2095660D01*
X1226660Y2115660D02*
X1206660Y2095660D01*
X1206660Y2064860D02*
X1226660Y2044860D01*
X1226660Y2064860D02*
X1206660Y2044860D01*
X1206660Y2006440D02*
X1226660Y1986440D01*
X1226660Y2006440D02*
X1206660Y1986440D01*
X1206660Y1953100D02*
X1226660Y1933100D01*
X1226660Y1953100D02*
X1206660Y1933100D01*
X1206660Y1902300D02*
X1226660Y1882300D01*
X1226660Y1902300D02*
X1206660Y1882300D01*
X1249840Y3510120D02*
X1269840Y3490120D01*
X1269840Y3510120D02*
X1249840Y3490120D01*
X1266300Y1768900D02*
X1286300Y1748900D01*
X1286300Y1768900D02*
X1266300Y1748900D01*
X1285400Y397300D02*
X1305400Y377300D01*
X1305400Y397300D02*
X1285400Y377300D01*
X1323500Y3459320D02*
X1343500Y3439320D01*
X1343500Y3459320D02*
X1323500Y3439320D01*
X1331120Y484980D02*
X1351120Y464980D01*
X1351120Y484980D02*
X1331120Y464980D01*
X1374300Y3530440D02*
X1394300Y3510440D01*
X1394300Y3530440D02*
X1374300Y3510440D01*
X1387000Y1224120D02*
X1407000Y1204120D01*
X1407000Y1224120D02*
X1387000Y1204120D01*
X1402240Y2885280D02*
X1422240Y2865280D01*
X1422240Y2885280D02*
X1402240Y2865280D01*
X1414940Y1902300D02*
X1434940Y1882300D01*
X1434940Y1902300D02*
X1414940Y1882300D01*
X1425100Y1627980D02*
X1445100Y1607980D01*
X1445100Y1627980D02*
X1425100Y1607980D01*
X1430180Y4264500D02*
X1450180Y4244500D01*
X1450180Y4264500D02*
X1430180Y4244500D01*
X1445420Y3596480D02*
X1465420Y3576480D01*
X1465420Y3596480D02*
X1445420Y3576480D01*
X1450500Y4165440D02*
X1470500Y4145440D01*
X1470500Y4165440D02*
X1450500Y4145440D01*
X1450500Y4107020D02*
X1470500Y4087020D01*
X1470500Y4107020D02*
X1450500Y4087020D01*
X1450500Y4048600D02*
X1470500Y4028600D01*
X1470500Y4048600D02*
X1450500Y4028600D01*
X1458120Y1226660D02*
X1478120Y1206660D01*
X1478120Y1226660D02*
X1458120Y1206660D01*
X1463200Y4696300D02*
X1483200Y4676300D01*
X1483200Y4696300D02*
X1463200Y4676300D01*
X1473360Y1841340D02*
X1493360Y1821340D01*
X1493360Y1841340D02*
X1473360Y1821340D01*
X1500355Y2461100D02*
X1520355Y2441100D01*
X1520355Y2461100D02*
X1500355Y2441100D01*
X1521620Y1224120D02*
X1541620Y1204120D01*
X1541620Y1224120D02*
X1521620Y1204120D01*
X1524160Y4515960D02*
X1544160Y4495960D01*
X1544160Y4515960D02*
X1524160Y4495960D01*
X1524160Y2209640D02*
X1544160Y2189640D01*
X1544160Y2209640D02*
X1524160Y2189640D01*
X1529240Y484980D02*
X1549240Y464980D01*
X1549240Y484980D02*
X1529240Y464980D01*
X1552100Y2410300D02*
X1572100Y2390300D01*
X1572100Y2410300D02*
X1552100Y2390300D01*
X1564800Y2562700D02*
X1584800Y2542700D01*
X1584800Y2562700D02*
X1564800Y2542700D01*
X1572420Y3845400D02*
X1592420Y3825400D01*
X1592420Y3845400D02*
X1572420Y3825400D01*
X1574960Y3751420D02*
X1594960Y3731420D01*
X1594960Y3751420D02*
X1574960Y3731420D01*
X1587400Y1231740D02*
X1607400Y1211740D01*
X1607400Y1231740D02*
X1587400Y1211740D01*
X1600360Y2268060D02*
X1620360Y2248060D01*
X1620360Y2268060D02*
X1600360Y2248060D01*
X1600360Y2210560D02*
X1620360Y2190560D01*
X1620360Y2210560D02*
X1600360Y2190560D01*
X1602900Y2511900D02*
X1622900Y2491900D01*
X1622900Y2511900D02*
X1602900Y2491900D01*
X1613060Y4515960D02*
X1633060Y4495960D01*
X1633060Y4515960D02*
X1613060Y4495960D01*
X1627030Y4697570D02*
X1647030Y4677570D01*
X1647030Y4697570D02*
X1627030Y4677570D01*
X1633380Y147160D02*
X1653380Y127160D01*
X1653380Y147160D02*
X1633380Y127160D01*
X1691800Y4515960D02*
X1711800Y4495960D01*
X1711800Y4515960D02*
X1691800Y4495960D01*
X1752760Y3982560D02*
X1772760Y3962560D01*
X1772760Y3982560D02*
X1752760Y3962560D01*
X1770540Y4515960D02*
X1790540Y4495960D01*
X1790540Y4515960D02*
X1770540Y4495960D01*
X1780700Y556100D02*
X1800700Y536100D01*
X1800700Y556100D02*
X1780700Y536100D01*
X1780700Y411320D02*
X1800700Y391320D01*
X1800700Y411320D02*
X1780700Y391320D01*
X1788320Y4701380D02*
X1808320Y4681380D01*
X1808320Y4701380D02*
X1788320Y4681380D01*
X1821340Y3982560D02*
X1841340Y3962560D01*
X1841340Y3982560D02*
X1821340Y3962560D01*
X1854360Y4150200D02*
X1874360Y4130200D01*
X1874360Y4150200D02*
X1854360Y4130200D01*
X1854360Y4099400D02*
X1874360Y4079400D01*
X1874360Y4099400D02*
X1854360Y4079400D01*
X1854360Y4048600D02*
X1874360Y4028600D01*
X1874360Y4048600D02*
X1854360Y4028600D01*
X1871900Y4748420D02*
X1891900Y4728420D01*
X1891900Y4748420D02*
X1871900Y4728420D01*
X1884840Y639920D02*
X1904840Y619920D01*
X1904840Y639920D02*
X1884840Y619920D01*
X1889917Y1042670D02*
X1909917Y1022670D01*
X1909917Y1042670D02*
X1889917Y1022670D01*
X1895000Y736440D02*
X1915000Y716440D01*
X1915000Y736440D02*
X1895000Y716440D01*
X1900080Y934560D02*
X1920080Y914560D01*
X1920080Y934560D02*
X1900080Y914560D01*
X1922358Y995195D02*
X1942358Y975195D01*
X1942358Y995195D02*
X1922358Y975195D01*
X1940720Y4526120D02*
X1960720Y4506120D01*
X1960720Y4526120D02*
X1940720Y4506120D01*
X1940720Y4333080D02*
X1960720Y4313080D01*
X1960720Y4333080D02*
X1940720Y4313080D01*
X1971200Y716120D02*
X1991200Y696120D01*
X1991200Y716120D02*
X1971200Y696120D01*
X1999140Y347820D02*
X2019140Y327820D01*
X2019140Y347820D02*
X1999140Y327820D01*
X1999140Y281780D02*
X2019140Y261780D01*
X2019140Y281780D02*
X1999140Y261780D01*
X2011840Y850740D02*
X2031840Y830740D01*
X2031840Y850740D02*
X2011840Y830740D01*
X2016920Y4526120D02*
X2036920Y4506120D01*
X2036920Y4526120D02*
X2016920Y4506120D01*
X2016920Y4333080D02*
X2036920Y4313080D01*
X2036920Y4333080D02*
X2016920Y4313080D01*
X2029620Y1658460D02*
X2049620Y1638460D01*
X2049620Y1658460D02*
X2029620Y1638460D01*
X2037240Y2608420D02*
X2057240Y2588420D01*
X2057240Y2608420D02*
X2037240Y2588420D01*
X2044860Y429100D02*
X2064860Y409100D01*
X2064860Y429100D02*
X2044860Y409100D01*
X2075340Y3913980D02*
X2095340Y3893980D01*
X2095340Y3913980D02*
X2075340Y3893980D01*
X2088040Y4526120D02*
X2108040Y4506120D01*
X2108040Y4526120D02*
X2088040Y4506120D01*
X2088040Y4333080D02*
X2108040Y4313080D01*
X2108040Y4333080D02*
X2088040Y4313080D01*
X2095660Y317340D02*
X2115660Y297340D01*
X2115660Y317340D02*
X2095660Y297340D01*
X2131220Y1658460D02*
X2151220Y1638460D01*
X2151220Y1658460D02*
X2131220Y1638460D01*
X2133760Y4922360D02*
X2153760Y4902360D01*
X2153760Y4922360D02*
X2133760Y4902360D01*
X2143920Y4526120D02*
X2163920Y4506120D01*
X2163920Y4526120D02*
X2143920Y4506120D01*
X2164240Y2395060D02*
X2184240Y2375060D01*
X2184240Y2395060D02*
X2164240Y2375060D01*
X2174400Y3686700D02*
X2194400Y3666700D01*
X2194400Y3686700D02*
X2174400Y3666700D01*
X2179480Y3606640D02*
X2199480Y3586640D01*
X2199480Y3606640D02*
X2179480Y3586640D01*
X2182020Y1361280D02*
X2202020Y1341280D01*
X2202020Y1361280D02*
X2182020Y1341280D01*
X2202340Y4526120D02*
X2222340Y4506120D01*
X2222340Y4526120D02*
X2202340Y4506120D01*
X2253140Y4714080D02*
X2273140Y4694080D01*
X2273140Y4714080D02*
X2253140Y4694080D01*
X2265840Y4526120D02*
X2285840Y4506120D01*
X2285840Y4526120D02*
X2265840Y4506120D01*
X2268380Y1361280D02*
X2288380Y1341280D01*
X2288380Y1361280D02*
X2268380Y1341280D01*
X2273460Y1661000D02*
X2293460Y1641000D01*
X2293460Y1661000D02*
X2273460Y1641000D01*
X2281080Y3492340D02*
X2301080Y3472340D01*
X2301080Y3492340D02*
X2281080Y3472340D01*
X2286160Y2372200D02*
X2306160Y2352200D01*
X2306160Y2372200D02*
X2286160Y2352200D01*
X2316640Y4714080D02*
X2336640Y4694080D01*
X2336640Y4714080D02*
X2316640Y4694080D01*
X2329340Y4526120D02*
X2349340Y4506120D01*
X2349340Y4526120D02*
X2329340Y4506120D01*
X2362360Y3489800D02*
X2382360Y3469800D01*
X2382360Y3489800D02*
X2362360Y3469800D01*
X2364900Y769460D02*
X2384900Y749460D01*
X2384900Y769460D02*
X2364900Y749460D01*
X2369980Y1493360D02*
X2389980Y1473360D01*
X2389980Y1493360D02*
X2369980Y1473360D01*
X2378675Y4716899D02*
X2398675Y4696899D01*
X2398675Y4716899D02*
X2378675Y4696899D01*
X2390300Y1612740D02*
X2410300Y1592740D01*
X2410300Y1612740D02*
X2390300Y1592740D01*
X2418240Y812640D02*
X2438240Y792640D01*
X2438240Y812640D02*
X2418240Y792640D01*
X2428400Y3487260D02*
X2448400Y3467260D01*
X2448400Y3487260D02*
X2428400Y3467260D01*
X2433480Y1973420D02*
X2453480Y1953420D01*
X2453480Y1973420D02*
X2433480Y1953420D01*
X2434800Y2271920D02*
X2454800Y2251920D01*
X2454800Y2271920D02*
X2434800Y2251920D01*
X2436020Y4521040D02*
X2456020Y4501040D01*
X2456020Y4521040D02*
X2436020Y4501040D01*
X2441100Y1440020D02*
X2461100Y1420020D01*
X2461100Y1440020D02*
X2441100Y1420020D01*
X2453800Y4719160D02*
X2473800Y4699160D01*
X2473800Y4719160D02*
X2453800Y4699160D01*
X2453800Y769460D02*
X2473800Y749460D01*
X2473800Y769460D02*
X2453800Y749460D01*
X2469040Y2560160D02*
X2489040Y2540160D01*
X2489040Y2560160D02*
X2469040Y2540160D01*
X2479200Y3522820D02*
X2499200Y3502820D01*
X2499200Y3522820D02*
X2479200Y3502820D01*
X2507140Y4762340D02*
X2527140Y4742340D01*
X2527140Y4762340D02*
X2507140Y4742340D01*
X2524920Y2062320D02*
X2544920Y2042320D01*
X2544920Y2062320D02*
X2524920Y2042320D01*
X2530000Y3489800D02*
X2550000Y3469800D01*
X2550000Y3489800D02*
X2530000Y3469800D01*
X2530000Y2560160D02*
X2550000Y2540160D01*
X2550000Y2560160D02*
X2530000Y2540160D01*
X2530000Y1653380D02*
X2550000Y1633380D01*
X2550000Y1653380D02*
X2530000Y1633380D01*
X2535080Y947260D02*
X2555080Y927260D01*
X2555080Y947260D02*
X2535080Y927260D01*
X2550320Y3870800D02*
X2570320Y3850800D01*
X2570320Y3870800D02*
X2550320Y3850800D01*
X2590960Y2560160D02*
X2610960Y2540160D01*
X2610960Y2560160D02*
X2590960Y2540160D01*
X2601120Y2064860D02*
X2621120Y2044860D01*
X2621120Y2064860D02*
X2601120Y2044860D01*
X2606200Y4932500D02*
X2626200Y4912500D01*
X2626200Y4932500D02*
X2606200Y4912500D01*
X2654460Y2867500D02*
X2674460Y2847500D01*
X2674460Y2867500D02*
X2654460Y2847500D01*
X2682400Y3494880D02*
X2702400Y3474880D01*
X2702400Y3494880D02*
X2682400Y3474880D01*
X2743360Y1493360D02*
X2763360Y1473360D01*
X2763360Y1493360D02*
X2743360Y1473360D01*
X2750980Y1061560D02*
X2770980Y1041560D01*
X2770980Y1061560D02*
X2750980Y1041560D01*
X2756060Y985360D02*
X2776060Y965360D01*
X2776060Y985360D02*
X2756060Y965360D01*
X2776380Y2806540D02*
X2796380Y2786540D01*
X2796380Y2806540D02*
X2776380Y2786540D01*
X2778920Y1658460D02*
X2798920Y1638460D01*
X2798920Y1658460D02*
X2778920Y1638460D01*
X2781460Y3494880D02*
X2801460Y3474880D01*
X2801460Y3494880D02*
X2781460Y3474880D01*
X2781655Y1601025D02*
X2801655Y1581025D01*
X2801655Y1601025D02*
X2781655Y1581025D01*
X2831222Y3523690D02*
X2851222Y3503690D01*
X2851222Y3523690D02*
X2831222Y3503690D01*
X2837340Y4340700D02*
X2857340Y4320700D01*
X2857340Y4340700D02*
X2837340Y4320700D01*
X2880867Y3494677D02*
X2900867Y3474677D01*
X2900867Y3494677D02*
X2880867Y3474677D01*
X2888140Y4084160D02*
X2908140Y4064160D01*
X2908140Y4084160D02*
X2888140Y4064160D01*
X2890680Y4929980D02*
X2910680Y4909980D01*
X2910680Y4929980D02*
X2890680Y4909980D01*
X2890680Y3982560D02*
X2910680Y3962560D01*
X2910680Y3982560D02*
X2890680Y3962560D01*
X2895760Y802480D02*
X2915760Y782480D01*
X2915760Y802480D02*
X2895760Y782480D01*
X2905920Y2252820D02*
X2925920Y2232820D01*
X2925920Y2252820D02*
X2905920Y2232820D01*
X2911000Y4254340D02*
X2931000Y4234340D01*
X2931000Y4254340D02*
X2911000Y4234340D01*
X2921160Y3784440D02*
X2941160Y3764440D01*
X2941160Y3784440D02*
X2921160Y3764440D01*
X2921160Y2420460D02*
X2941160Y2400460D01*
X2941160Y2420460D02*
X2921160Y2400460D01*
X2941480Y4035900D02*
X2961480Y4015900D01*
X2961480Y4035900D02*
X2941480Y4015900D01*
X2941480Y3934300D02*
X2961480Y3914300D01*
X2961480Y3934300D02*
X2941480Y3914300D01*
X2956720Y1368900D02*
X2976720Y1348900D01*
X2976720Y1368900D02*
X2956720Y1348900D01*
X2969420Y3492340D02*
X2989420Y3472340D01*
X2989420Y3492340D02*
X2969420Y3472340D01*
X2974500Y4325460D02*
X2994500Y4305460D01*
X2994500Y4325460D02*
X2974500Y4305460D01*
X2987200Y3832700D02*
X3007200Y3812700D01*
X3007200Y3832700D02*
X2987200Y3812700D01*
X2987200Y3733640D02*
X3007200Y3713640D01*
X3007200Y3733640D02*
X2987200Y3713640D01*
X2987200Y3632040D02*
X3007200Y3612040D01*
X3007200Y3632040D02*
X2987200Y3612040D01*
X2989740Y4183220D02*
X3009740Y4163220D01*
X3009740Y4183220D02*
X2989740Y4163220D01*
X2999900Y2349340D02*
X3019900Y2329340D01*
X3019900Y2349340D02*
X2999900Y2329340D01*
X3030380Y3527900D02*
X3050380Y3507900D01*
X3050380Y3527900D02*
X3030380Y3507900D01*
X3043080Y4132420D02*
X3063080Y4112420D01*
X3063080Y4132420D02*
X3043080Y4112420D01*
X3045620Y1351120D02*
X3065620Y1331120D01*
X3065620Y1351120D02*
X3045620Y1331120D01*
X3045620Y995520D02*
X3065620Y975520D01*
X3065620Y995520D02*
X3045620Y975520D01*
X3048160Y3685380D02*
X3068160Y3665380D01*
X3068160Y3685380D02*
X3048160Y3665380D01*
X3095790Y4328315D02*
X3115790Y4308315D01*
X3115790Y4328315D02*
X3095790Y4308315D01*
X3147220Y4302600D02*
X3167220Y4282600D01*
X3167220Y4302600D02*
X3147220Y4282600D01*
X3170080Y4932520D02*
X3190080Y4912520D01*
X3190080Y4932520D02*
X3170080Y4912520D01*
X3215800Y632300D02*
X3235800Y612300D01*
X3235800Y632300D02*
X3215800Y612300D01*
X3297080Y1666080D02*
X3317080Y1646080D01*
X3317080Y1666080D02*
X3297080Y1646080D01*
X3322480Y81120D02*
X3342480Y61120D01*
X3342480Y81120D02*
X3322480Y61120D01*
X3325020Y139540D02*
X3345020Y119540D01*
X3345020Y139540D02*
X3325020Y119540D01*
X3350420Y975200D02*
X3370420Y955200D01*
X3370420Y975200D02*
X3350420Y955200D01*
X3373280Y4350860D02*
X3393280Y4330860D01*
X3393280Y4350860D02*
X3373280Y4330860D01*
X3378360Y591660D02*
X3398360Y571660D01*
X3398360Y591660D02*
X3378360Y571660D01*
X3416460Y975200D02*
X3436460Y955200D01*
X3436460Y975200D02*
X3416460Y955200D01*
X3432150Y4348320D02*
X3452150Y4328320D01*
X3452150Y4348320D02*
X3432150Y4328320D01*
X3436780Y591660D02*
X3456780Y571660D01*
X3456780Y591660D02*
X3436780Y571660D01*
X3444400Y764380D02*
X3464400Y744380D01*
X3464400Y764380D02*
X3444400Y744380D01*
X3449480Y3431380D02*
X3469480Y3411380D01*
X3469480Y3431380D02*
X3449480Y3411380D01*
X3452020Y2161380D02*
X3472020Y2141380D01*
X3472020Y2161380D02*
X3452020Y2141380D01*
X3452020Y2062320D02*
X3472020Y2042320D01*
X3472020Y2062320D02*
X3452020Y2042320D01*
X3452020Y1988660D02*
X3472020Y1968660D01*
X3472020Y1988660D02*
X3452020Y1968660D01*
X3459640Y2928460D02*
X3479640Y2908460D01*
X3479640Y2928460D02*
X3459640Y2908460D01*
X3459640Y1325720D02*
X3479640Y1305720D01*
X3479640Y1325720D02*
X3459640Y1305720D01*
X3467260Y4747100D02*
X3487260Y4727100D01*
X3487260Y4747100D02*
X3467260Y4727100D01*
X3469800Y365600D02*
X3489800Y345600D01*
X3489800Y365600D02*
X3469800Y345600D01*
X3492660Y2113120D02*
X3512660Y2093120D01*
X3512660Y2113120D02*
X3492660Y2093120D01*
X3502820Y1168240D02*
X3522820Y1148240D01*
X3522820Y1168240D02*
X3502820Y1148240D01*
X3502820Y1092040D02*
X3522820Y1072040D01*
X3522820Y1092040D02*
X3502820Y1072040D01*
X3510440Y2984839D02*
X3530440Y2964839D01*
X3530440Y2984839D02*
X3510440Y2964839D01*
X3511580Y2690540D02*
X3531580Y2670540D01*
X3531580Y2690540D02*
X3511580Y2670540D01*
X3515520Y1381600D02*
X3535520Y1361600D01*
X3535520Y1381600D02*
X3515520Y1361600D01*
X3518060Y619600D02*
X3538060Y599600D01*
X3538060Y619600D02*
X3518060Y599600D01*
X3528220Y2745580D02*
X3548220Y2725580D01*
X3548220Y2745580D02*
X3528220Y2725580D01*
X3532350Y2636922D02*
X3552350Y2616922D01*
X3552350Y2636922D02*
X3532350Y2616922D01*
X3533300Y4810600D02*
X3553300Y4790600D01*
X3553300Y4810600D02*
X3533300Y4790600D01*
X3533300Y365600D02*
X3553300Y345600D01*
X3553300Y365600D02*
X3533300Y345600D01*
X3543460Y2527140D02*
X3563460Y2507140D01*
X3563460Y2527140D02*
X3543460Y2507140D01*
X3548540Y4521040D02*
X3568540Y4501040D01*
X3568540Y4521040D02*
X3548540Y4501040D01*
X3561240Y3423760D02*
X3581240Y3403760D01*
X3581240Y3423760D02*
X3561240Y3403760D01*
X3563780Y568800D02*
X3583780Y548800D01*
X3583780Y568800D02*
X3563780Y548800D01*
X3573940Y619600D02*
X3593940Y599600D01*
X3593940Y619600D02*
X3573940Y599600D01*
X3589180Y817720D02*
X3609180Y797720D01*
X3609180Y817720D02*
X3589180Y797720D01*
X3594260Y365600D02*
X3614260Y345600D01*
X3614260Y365600D02*
X3594260Y345600D01*
X3609500Y4808060D02*
X3629500Y4788060D01*
X3629500Y4808060D02*
X3609500Y4788060D01*
X3616528Y3439556D02*
X3636528Y3419556D01*
X3636528Y3439556D02*
X3616528Y3419556D01*
X3627280Y2113120D02*
X3647280Y2093120D01*
X3647280Y2113120D02*
X3627280Y2093120D01*
X3629820Y619600D02*
X3649820Y599600D01*
X3649820Y619600D02*
X3629820Y599600D01*
X3629820Y562100D02*
X3649820Y542100D01*
X3649820Y562100D02*
X3629820Y542100D01*
X3632360Y3098640D02*
X3652360Y3078640D01*
X3652360Y3098640D02*
X3632360Y3078640D01*
X3639980Y317340D02*
X3659980Y297340D01*
X3659980Y317340D02*
X3639980Y297340D01*
X3639980Y203040D02*
X3659980Y183040D01*
X3659980Y203040D02*
X3639980Y183040D01*
X3645060Y413860D02*
X3665060Y393860D01*
X3665060Y413860D02*
X3645060Y393860D01*
X3670460Y4709000D02*
X3690460Y4689000D01*
X3690460Y4709000D02*
X3670460Y4689000D01*
X3678080Y1546700D02*
X3698080Y1526700D01*
X3698080Y1546700D02*
X3678080Y1526700D01*
X3678080Y1490820D02*
X3698080Y1470820D01*
X3698080Y1490820D02*
X3678080Y1470820D01*
X3678080Y1432400D02*
X3698080Y1412400D01*
X3698080Y1432400D02*
X3678080Y1412400D01*
X3682150Y4343240D02*
X3702150Y4323240D01*
X3702150Y4343240D02*
X3682150Y4323240D01*
X3739040Y4688680D02*
X3759040Y4668680D01*
X3759040Y4688680D02*
X3739040Y4668680D01*
X3782150Y4333080D02*
X3802150Y4313080D01*
X3802150Y4333080D02*
X3782150Y4313080D01*
X3789840Y4924900D02*
X3809840Y4904900D01*
X3809840Y4924900D02*
X3789840Y4904900D01*
X3802540Y627220D02*
X3822540Y607220D01*
X3822540Y627220D02*
X3802540Y607220D01*
X3802540Y319880D02*
X3822540Y299880D01*
X3822540Y319880D02*
X3802540Y299880D01*
X3805080Y203040D02*
X3825080Y183040D01*
X3825080Y203040D02*
X3805080Y183040D01*
X3806820Y1277460D02*
X3826820Y1257460D01*
X3826820Y1277460D02*
X3806820Y1257460D01*
X3807620Y411320D02*
X3827620Y391320D01*
X3827620Y411320D02*
X3807620Y391320D01*
X3812700Y802480D02*
X3832700Y782480D01*
X3832700Y802480D02*
X3812700Y782480D01*
X3827940Y1549240D02*
X3847940Y1529240D01*
X3847940Y1549240D02*
X3827940Y1529240D01*
X3827940Y1490820D02*
X3847940Y1470820D01*
X3847940Y1490820D02*
X3827940Y1470820D01*
X3827940Y1432400D02*
X3847940Y1412400D01*
X3847940Y1432400D02*
X3827940Y1412400D01*
X3838100Y1856580D02*
X3858100Y1836580D01*
X3858100Y1856580D02*
X3838100Y1836580D01*
X3838100Y1775300D02*
X3858100Y1755300D01*
X3858100Y1775300D02*
X3838100Y1755300D01*
X3843100Y2561400D02*
X3863100Y2541400D01*
X3863100Y2561400D02*
X3843100Y2541400D01*
X3848260Y3566000D02*
X3868260Y3546000D01*
X3868260Y3566000D02*
X3848260Y3546000D01*
X3860960Y4924900D02*
X3880960Y4904900D01*
X3880960Y4924900D02*
X3860960Y4904900D01*
X3864263Y1274886D02*
X3884263Y1254886D01*
X3884263Y1274886D02*
X3864263Y1254886D01*
X3878740Y1810860D02*
X3898740Y1790860D01*
X3898740Y1810860D02*
X3878740Y1790860D01*
X3883550Y975470D02*
X3903550Y955470D01*
X3903550Y975470D02*
X3883550Y955470D01*
X3883820Y891380D02*
X3903820Y871380D01*
X3903820Y891380D02*
X3883820Y871380D01*
X3885590Y4273890D02*
X3905590Y4253890D01*
X3905590Y4273890D02*
X3885590Y4253890D01*
X3897940Y2251700D02*
X3917940Y2231700D01*
X3917940Y2251700D02*
X3897940Y2231700D01*
X3901600Y3530440D02*
X3921600Y3510440D01*
X3921600Y3530440D02*
X3901600Y3510440D01*
X3909220Y4693760D02*
X3929220Y4673760D01*
X3929220Y4693760D02*
X3909220Y4673760D01*
X3911760Y3002120D02*
X3931760Y2982120D01*
X3931760Y3002120D02*
X3911760Y2982120D01*
X3919380Y4632800D02*
X3939380Y4612800D01*
X3939380Y4632800D02*
X3919380Y4612800D01*
X3924460Y2936080D02*
X3944460Y2916080D01*
X3944460Y2936080D02*
X3924460Y2916080D01*
X3942240Y4033900D02*
X3962240Y4013900D01*
X3962240Y4033900D02*
X3942240Y4013900D01*
X3947320Y4241640D02*
X3967320Y4221640D01*
X3967320Y4241640D02*
X3947320Y4221640D01*
X3954298Y3628165D02*
X3974298Y3608165D01*
X3974298Y3628165D02*
X3954298Y3608165D01*
X3960020Y3832700D02*
X3980020Y3812700D01*
X3980020Y3832700D02*
X3960020Y3812700D01*
X3960020Y3685380D02*
X3980020Y3665380D01*
X3980020Y3685380D02*
X3960020Y3665380D01*
X3965100Y3520280D02*
X3985100Y3500280D01*
X3985100Y3520280D02*
X3965100Y3500280D01*
X3967640Y3959700D02*
X3987640Y3939700D01*
X3987640Y3959700D02*
X3967640Y3939700D01*
X3980340Y2278220D02*
X4000340Y2258220D01*
X4000340Y2278220D02*
X3980340Y2258220D01*
X3987960Y586580D02*
X4007960Y566580D01*
X4007960Y586580D02*
X3987960Y566580D01*
X4000660Y4193380D02*
X4020660Y4173380D01*
X4020660Y4193380D02*
X4000660Y4173380D01*
X4003200Y3784440D02*
X4023200Y3764440D01*
X4023200Y3784440D02*
X4003200Y3764440D01*
X4003200Y2344260D02*
X4023200Y2324260D01*
X4023200Y2344260D02*
X4003200Y2324260D01*
X4013360Y3632040D02*
X4033360Y3612040D01*
X4033360Y3632040D02*
X4013360Y3612040D01*
X4031140Y3733640D02*
X4051140Y3713640D01*
X4051140Y3733640D02*
X4031140Y3713640D01*
X4056540Y1379060D02*
X4076540Y1359060D01*
X4076540Y1379060D02*
X4056540Y1359060D01*
X4061620Y2278220D02*
X4081620Y2258220D01*
X4081620Y2278220D02*
X4061620Y2258220D01*
X4061620Y2224880D02*
X4081620Y2204880D01*
X4081620Y2224880D02*
X4061620Y2204880D01*
X4061620Y2161380D02*
X4081620Y2141380D01*
X4081620Y2161380D02*
X4061620Y2141380D01*
X4071780Y1955640D02*
X4091780Y1935640D01*
X4091780Y1955640D02*
X4071780Y1935640D01*
X4071780Y1897220D02*
X4091780Y1877220D01*
X4091780Y1897220D02*
X4071780Y1877220D01*
X4076860Y2489040D02*
X4096860Y2469040D01*
X4096860Y2489040D02*
X4076860Y2469040D01*
X4079400Y2443320D02*
X4099400Y2423320D01*
X4099400Y2443320D02*
X4079400Y2423320D01*
X4097180Y2910680D02*
X4117180Y2890680D01*
X4117180Y2910680D02*
X4097180Y2890680D01*
X4099720Y1836260D02*
X4119720Y1816260D01*
X4119720Y1836260D02*
X4099720Y1816260D01*
X4099720Y1772760D02*
X4119720Y1752760D01*
X4119720Y1772760D02*
X4099720Y1752760D01*
X4102260Y3388200D02*
X4122260Y3368200D01*
X4122260Y3388200D02*
X4102260Y3368200D01*
X4125120Y1714340D02*
X4145120Y1694340D01*
X4145120Y1714340D02*
X4125120Y1694340D01*
X4125120Y1549240D02*
X4145120Y1529240D01*
X4145120Y1549240D02*
X4125120Y1529240D01*
X4127660Y3507580D02*
X4147660Y3487580D01*
X4147660Y3507580D02*
X4127660Y3487580D01*
X4140360Y3817460D02*
X4160360Y3797460D01*
X4160360Y3817460D02*
X4140360Y3797460D01*
X4168300Y3388200D02*
X4188300Y3368200D01*
X4188300Y3388200D02*
X4168300Y3368200D01*
X4168300Y2910680D02*
X4188300Y2890680D01*
X4188300Y2910680D02*
X4168300Y2890680D01*
X4181000Y980280D02*
X4201000Y960280D01*
X4201000Y980280D02*
X4181000Y960280D01*
X4206400Y1714340D02*
X4226400Y1694340D01*
X4226400Y1714340D02*
X4206400Y1694340D01*
X4239420Y3134200D02*
X4259420Y3114200D01*
X4259420Y3134200D02*
X4239420Y3114200D01*
X4239420Y2323940D02*
X4259420Y2303940D01*
X4259420Y2323940D02*
X4239420Y2303940D01*
X4239420Y2158840D02*
X4259420Y2138840D01*
X4259420Y2158840D02*
X4239420Y2138840D01*
X4239420Y1922620D02*
X4259420Y1902620D01*
X4259420Y1922620D02*
X4239420Y1902620D01*
X4241960Y2910680D02*
X4261960Y2890680D01*
X4261960Y2910680D02*
X4241960Y2890680D01*
X4269900Y3403440D02*
X4289900Y3383440D01*
X4289900Y3403440D02*
X4269900Y3383440D01*
X4287680Y1051400D02*
X4307680Y1031400D01*
X4307680Y1051400D02*
X4287680Y1031400D01*
X4297840Y4427060D02*
X4317840Y4407060D01*
X4317840Y4427060D02*
X4297840Y4407060D01*
X4318160Y3499960D02*
X4338160Y3479960D01*
X4338160Y3499960D02*
X4318160Y3479960D01*
X4330860Y3134200D02*
X4350860Y3114200D01*
X4350860Y3134200D02*
X4330860Y3114200D01*
X4391820Y3134200D02*
X4411820Y3114200D01*
X4411820Y3134200D02*
X4391820Y3114200D01*
X4399440Y1130140D02*
X4419440Y1110140D01*
X4419440Y1130140D02*
X4399440Y1110140D01*
X4404520Y2374740D02*
X4424520Y2354740D01*
X4424520Y2374740D02*
X4404520Y2354740D01*
X4409600Y2722720D02*
X4429600Y2702720D01*
X4429600Y2722720D02*
X4409600Y2702720D01*
X4412140Y2669380D02*
X4432140Y2649380D01*
X4432140Y2669380D02*
X4412140Y2649380D01*
X4427380Y1935320D02*
X4447380Y1915320D01*
X4447380Y1935320D02*
X4427380Y1915320D01*
X4427380Y1887060D02*
X4447380Y1867060D01*
X4447380Y1887060D02*
X4427380Y1867060D01*
X4427380Y1836260D02*
X4447380Y1816260D01*
X4447380Y1836260D02*
X4427380Y1816260D01*
X4429920Y4335620D02*
X4449920Y4315620D01*
X4449920Y4335620D02*
X4429920Y4315620D01*
X4440080Y2969100D02*
X4460080Y2949100D01*
X4460080Y2969100D02*
X4440080Y2949100D01*
X4468020Y2550000D02*
X4488020Y2530000D01*
X4488020Y2550000D02*
X4468020Y2530000D01*
X4470560Y3121500D02*
X4490560Y3101500D01*
X4490560Y3121500D02*
X4470560Y3101500D01*
X4470560Y3022440D02*
X4490560Y3002440D01*
X4490560Y3022440D02*
X4470560Y3002440D01*
X4472451Y2330552D02*
X4492451Y2310552D01*
X4492451Y2330552D02*
X4472451Y2310552D01*
X4475640Y2857340D02*
X4495640Y2837340D01*
X4495640Y2857340D02*
X4475640Y2837340D01*
X4475640Y2273140D02*
X4495640Y2253140D01*
X4495640Y2273140D02*
X4475640Y2253140D01*
X4478180Y1935320D02*
X4498180Y1915320D01*
X4498180Y1935320D02*
X4478180Y1915320D01*
X4478180Y1887060D02*
X4498180Y1867060D01*
X4498180Y1887060D02*
X4478180Y1867060D01*
X4478180Y1836260D02*
X4498180Y1816260D01*
X4498180Y1836260D02*
X4478180Y1816260D01*
X4480720Y2618580D02*
X4500720Y2598580D01*
X4500720Y2618580D02*
X4480720Y2598580D01*
X4666140Y3218020D02*
X4686140Y3198020D01*
X4686140Y3218020D02*
X4666140Y3198020D01*
X4673760Y3070700D02*
X4693760Y3050700D01*
X4693760Y3070700D02*
X4673760Y3050700D01*
X4673760Y2971640D02*
X4693760Y2951640D01*
X4693760Y2971640D02*
X4673760Y2951640D01*
X4673760Y2872580D02*
X4693760Y2852580D01*
X4693760Y2872580D02*
X4673760Y2852580D01*
X4673760Y2770980D02*
X4693760Y2750980D01*
X4693760Y2770980D02*
X4673760Y2750980D01*
X4678840Y2623660D02*
X4698840Y2603660D01*
X4698840Y2623660D02*
X4678840Y2603660D01*
X4678840Y2423000D02*
X4698840Y2403000D01*
X4698840Y2423000D02*
X4678840Y2403000D01*
X4681380Y2321400D02*
X4701380Y2301400D01*
X4701380Y2321400D02*
X4681380Y2301400D01*
X4681380Y2219800D02*
X4701380Y2199800D01*
X4701380Y2219800D02*
X4681380Y2199800D01*
X4683920Y2120740D02*
X4703920Y2100740D01*
X4703920Y2120740D02*
X4683920Y2100740D01*
X4683920Y2021680D02*
X4703920Y2001680D01*
X4703920Y2021680D02*
X4683920Y2001680D01*
X4715640Y2524600D02*
X4735640Y2504600D01*
X4735640Y2524600D02*
X4715640Y2504600D01*
X1256000Y3827850D02*
G75*
G02*
X1236000Y3827850I-10000J0D01*
G01*
X1236000Y3827850D02*
G75*
G02*
X1256000Y3827850I10000J0D01*
G01*
X1256000Y3702850D02*
G75*
G02*
X1236000Y3702850I-10000J0D01*
G01*
X1236000Y3702850D02*
G75*
G02*
X1256000Y3702850I10000J0D01*
G01*
X1381000Y3827850D02*
G75*
G02*
X1361000Y3827850I-10000J0D01*
G01*
X1361000Y3827850D02*
G75*
G02*
X1381000Y3827850I10000J0D01*
G01*
X1381000Y3702850D02*
G75*
G02*
X1361000Y3702850I-10000J0D01*
G01*
X1361000Y3702850D02*
G75*
G02*
X1381000Y3702850I10000J0D01*
G01*
X1382400Y1015200D02*
G75*
G02*
X1362400Y1015200I-10000J0D01*
G01*
X1362400Y1015200D02*
G75*
G02*
X1382400Y1015200I10000J0D01*
G01*
X1382400Y905200D02*
G75*
G02*
X1362400Y905200I-10000J0D01*
G01*
X1362400Y905200D02*
G75*
G02*
X1382400Y905200I10000J0D01*
G01*
X1382400Y795200D02*
G75*
G02*
X1362400Y795200I-10000J0D01*
G01*
X1362400Y795200D02*
G75*
G02*
X1382400Y795200I10000J0D01*
G01*
X1382400Y685200D02*
G75*
G02*
X1362400Y685200I-10000J0D01*
G01*
X1362400Y685200D02*
G75*
G02*
X1382400Y685200I10000J0D01*
G01*
X1492400Y1015200D02*
G75*
G02*
X1472400Y1015200I-10000J0D01*
G01*
X1472400Y1015200D02*
G75*
G02*
X1492400Y1015200I10000J0D01*
G01*
X1492400Y905200D02*
G75*
G02*
X1472400Y905200I-10000J0D01*
G01*
X1472400Y905200D02*
G75*
G02*
X1492400Y905200I10000J0D01*
G01*
X1492400Y795200D02*
G75*
G02*
X1472400Y795200I-10000J0D01*
G01*
X1472400Y795200D02*
G75*
G02*
X1492400Y795200I10000J0D01*
G01*
X1492400Y685200D02*
G75*
G02*
X1472400Y685200I-10000J0D01*
G01*
X1472400Y685200D02*
G75*
G02*
X1492400Y685200I10000J0D01*
G01*
X1602400Y905200D02*
G75*
G02*
X1582400Y905200I-10000J0D01*
G01*
X1582400Y905200D02*
G75*
G02*
X1602400Y905200I10000J0D01*
G01*
X1602400Y1015200D02*
G75*
G02*
X1582400Y1015200I-10000J0D01*
G01*
X1582400Y1015200D02*
G75*
G02*
X1602400Y1015200I10000J0D01*
G01*
X1602400Y795200D02*
G75*
G02*
X1582400Y795200I-10000J0D01*
G01*
X1582400Y795200D02*
G75*
G02*
X1602400Y795200I10000J0D01*
G01*
X1602400Y685200D02*
G75*
G02*
X1582400Y685200I-10000J0D01*
G01*
X1582400Y685200D02*
G75*
G02*
X1602400Y685200I10000J0D01*
G01*
X1712400Y1015200D02*
G75*
G02*
X1692400Y1015200I-10000J0D01*
G01*
X1692400Y1015200D02*
G75*
G02*
X1712400Y1015200I10000J0D01*
G01*
X1712400Y795200D02*
G75*
G02*
X1692400Y795200I-10000J0D01*
G01*
X1692400Y795200D02*
G75*
G02*
X1712400Y795200I10000J0D01*
G01*
X1712400Y905200D02*
G75*
G02*
X1692400Y905200I-10000J0D01*
G01*
X1692400Y905200D02*
G75*
G02*
X1712400Y905200I10000J0D01*
G01*
X1712400Y685200D02*
G75*
G02*
X1692400Y685200I-10000J0D01*
G01*
X1692400Y685200D02*
G75*
G02*
X1712400Y685200I10000J0D01*
G01*
X3272150Y4153900D02*
G75*
G02*
X3252150Y4153900I-10000J0D01*
G01*
X3252150Y4153900D02*
G75*
G02*
X3272150Y4153900I10000J0D01*
G01*
X3272150Y4026400D02*
G75*
G02*
X3252150Y4026400I-10000J0D01*
G01*
X3252150Y4026400D02*
G75*
G02*
X3272150Y4026400I10000J0D01*
G01*
X3272150Y3898900D02*
G75*
G02*
X3252150Y3898900I-10000J0D01*
G01*
X3252150Y3898900D02*
G75*
G02*
X3272150Y3898900I10000J0D01*
G01*
X3272150Y3771400D02*
G75*
G02*
X3252150Y3771400I-10000J0D01*
G01*
X3252150Y3771400D02*
G75*
G02*
X3272150Y3771400I10000J0D01*
G01*
X3272150Y3643900D02*
G75*
G02*
X3252150Y3643900I-10000J0D01*
G01*
X3252150Y3643900D02*
G75*
G02*
X3272150Y3643900I10000J0D01*
G01*
X3399650Y4153900D02*
G75*
G02*
X3379650Y4153900I-10000J0D01*
G01*
X3379650Y4153900D02*
G75*
G02*
X3399650Y4153900I10000J0D01*
G01*
X3399650Y4026400D02*
G75*
G02*
X3379650Y4026400I-10000J0D01*
G01*
X3379650Y4026400D02*
G75*
G02*
X3399650Y4026400I10000J0D01*
G01*
X3399650Y3898900D02*
G75*
G02*
X3379650Y3898900I-10000J0D01*
G01*
X3379650Y3898900D02*
G75*
G02*
X3399650Y3898900I10000J0D01*
G01*
X3399650Y3771400D02*
G75*
G02*
X3379650Y3771400I-10000J0D01*
G01*
X3379650Y3771400D02*
G75*
G02*
X3399650Y3771400I10000J0D01*
G01*
X3399650Y3643900D02*
G75*
G02*
X3379650Y3643900I-10000J0D01*
G01*
X3379650Y3643900D02*
G75*
G02*
X3399650Y3643900I10000J0D01*
G01*
X3527150Y4153900D02*
G75*
G02*
X3507150Y4153900I-10000J0D01*
G01*
X3507150Y4153900D02*
G75*
G02*
X3527150Y4153900I10000J0D01*
G01*
X3527150Y4026400D02*
G75*
G02*
X3507150Y4026400I-10000J0D01*
G01*
X3507150Y4026400D02*
G75*
G02*
X3527150Y4026400I10000J0D01*
G01*
X3527150Y3898900D02*
G75*
G02*
X3507150Y3898900I-10000J0D01*
G01*
X3507150Y3898900D02*
G75*
G02*
X3527150Y3898900I10000J0D01*
G01*
X3527150Y3771400D02*
G75*
G02*
X3507150Y3771400I-10000J0D01*
G01*
X3507150Y3771400D02*
G75*
G02*
X3527150Y3771400I10000J0D01*
G01*
X3527150Y3643900D02*
G75*
G02*
X3507150Y3643900I-10000J0D01*
G01*
X3507150Y3643900D02*
G75*
G02*
X3527150Y3643900I10000J0D01*
G01*
X3654650Y4153900D02*
G75*
G02*
X3634650Y4153900I-10000J0D01*
G01*
X3634650Y4153900D02*
G75*
G02*
X3654650Y4153900I10000J0D01*
G01*
X3654650Y4026400D02*
G75*
G02*
X3634650Y4026400I-10000J0D01*
G01*
X3634650Y4026400D02*
G75*
G02*
X3654650Y4026400I10000J0D01*
G01*
X3654650Y3898900D02*
G75*
G02*
X3634650Y3898900I-10000J0D01*
G01*
X3634650Y3898900D02*
G75*
G02*
X3654650Y3898900I10000J0D01*
G01*
X3654650Y3771400D02*
G75*
G02*
X3634650Y3771400I-10000J0D01*
G01*
X3634650Y3771400D02*
G75*
G02*
X3654650Y3771400I10000J0D01*
G01*
X3654650Y3643900D02*
G75*
G02*
X3634650Y3643900I-10000J0D01*
G01*
X3634650Y3643900D02*
G75*
G02*
X3654650Y3643900I10000J0D01*
G01*
X3782150Y4153900D02*
G75*
G02*
X3762150Y4153900I-10000J0D01*
G01*
X3762150Y4153900D02*
G75*
G02*
X3782150Y4153900I10000J0D01*
G01*
X3782150Y4026400D02*
G75*
G02*
X3762150Y4026400I-10000J0D01*
G01*
X3762150Y4026400D02*
G75*
G02*
X3782150Y4026400I10000J0D01*
G01*
X3782150Y3898900D02*
G75*
G02*
X3762150Y3898900I-10000J0D01*
G01*
X3762150Y3898900D02*
G75*
G02*
X3782150Y3898900I10000J0D01*
G01*
X3782150Y3771400D02*
G75*
G02*
X3762150Y3771400I-10000J0D01*
G01*
X3762150Y3771400D02*
G75*
G02*
X3782150Y3771400I10000J0D01*
G01*
X3782150Y3643900D02*
G75*
G02*
X3762150Y3643900I-10000J0D01*
G01*
X3762150Y3643900D02*
G75*
G02*
X3782150Y3643900I10000J0D01*
G01*
X3986100Y1180100D02*
G75*
G02*
X3966100Y1180100I-10000J0D01*
G01*
X3966100Y1180100D02*
G75*
G02*
X3986100Y1180100I10000J0D01*
G01*
X3986100Y1055100D02*
G75*
G02*
X3966100Y1055100I-10000J0D01*
G01*
X3966100Y1055100D02*
G75*
G02*
X3986100Y1055100I10000J0D01*
G01*
X3987300Y1181100D02*
G75*
G02*
X3967300Y1181100I-10000J0D01*
G01*
X3967300Y1181100D02*
G75*
G02*
X3987300Y1181100I10000J0D01*
G01*
X3987300Y1056100D02*
G75*
G02*
X3967300Y1056100I-10000J0D01*
G01*
X3967300Y1056100D02*
G75*
G02*
X3987300Y1056100I10000J0D01*
G01*
X4111100Y1180100D02*
G75*
G02*
X4091100Y1180100I-10000J0D01*
G01*
X4091100Y1180100D02*
G75*
G02*
X4111100Y1180100I10000J0D01*
G01*
X4111100Y1055100D02*
G75*
G02*
X4091100Y1055100I-10000J0D01*
G01*
X4091100Y1055100D02*
G75*
G02*
X4111100Y1055100I10000J0D01*
G01*
X4112300Y1181100D02*
G75*
G02*
X4092300Y1181100I-10000J0D01*
G01*
X4092300Y1181100D02*
G75*
G02*
X4112300Y1181100I10000J0D01*
G01*
X4112300Y1056100D02*
G75*
G02*
X4092300Y1056100I-10000J0D01*
G01*
X4092300Y1056100D02*
G75*
G02*
X4112300Y1056100I10000J0D01*
G01*
X695848Y4252402D02*
X695848Y4227402D01*
X683348Y4239902D02*
X708348Y4239902D01*
X695848Y4152402D02*
X695848Y4127402D01*
X683348Y4139902D02*
X708348Y4139902D01*
X800900Y634800D02*
X800900Y609800D01*
X788400Y622300D02*
X813400Y622300D01*
X900900Y634800D02*
X900900Y609800D01*
X888400Y622300D02*
X913400Y622300D01*
X4073290Y4529450D02*
X4073290Y4504450D01*
X4060790Y4516950D02*
X4085790Y4516950D01*
X4114400Y475800D02*
X4114400Y450800D01*
X4101900Y463300D02*
X4126900Y463300D01*
X4173290Y4529450D02*
X4173290Y4504450D01*
X4160790Y4516950D02*
X4185790Y4516950D01*
X4214400Y475800D02*
X4214400Y450800D01*
X4201900Y463300D02*
X4226900Y463300D01*
X3945980Y816520D02*
X3945980Y834480D01*
X3928020Y834480D01*
X3928020Y816520D01*
X3945980Y816520D01*
X109220Y670800D02*
X124220Y685800D01*
X109220Y700800D01*
X94220Y685800D01*
X109220Y670800D01*
X195580Y670800D02*
X210580Y685800D01*
X195580Y700800D01*
X180580Y685800D01*
X195580Y670800D01*
X281940Y782560D02*
X296940Y797560D01*
X281940Y812560D01*
X266940Y797560D01*
X281940Y782560D01*
X281940Y670800D02*
X296940Y685800D01*
X281940Y700800D01*
X266940Y685800D01*
X281940Y670800D01*
X1003300Y78980D02*
X1018300Y93980D01*
X1003300Y108980D01*
X988300Y93980D01*
X1003300Y78980D01*
X1010920Y3581640D02*
X1025920Y3596640D01*
X1010920Y3611640D01*
X995920Y3596640D01*
X1010920Y3581640D01*
X1021080Y3805160D02*
X1036080Y3820160D01*
X1021080Y3835160D01*
X1006080Y3820160D01*
X1021080Y3805160D01*
X1028700Y4066780D02*
X1043700Y4081780D01*
X1028700Y4096780D01*
X1013700Y4081780D01*
X1028700Y4066780D01*
X1057820Y4895000D02*
X1072820Y4910000D01*
X1057820Y4925000D01*
X1042820Y4910000D01*
X1057820Y4895000D01*
X1125220Y356960D02*
X1140220Y371960D01*
X1125220Y386960D01*
X1110220Y371960D01*
X1125220Y356960D01*
X1135380Y4280140D02*
X1150380Y4295140D01*
X1135380Y4310140D01*
X1120380Y4295140D01*
X1135380Y4280140D01*
X1135380Y4160760D02*
X1150380Y4175760D01*
X1135380Y4190760D01*
X1120380Y4175760D01*
X1135380Y4160760D01*
X1529080Y2959340D02*
X1544080Y2974340D01*
X1529080Y2989340D01*
X1514080Y2974340D01*
X1529080Y2959340D01*
X1536745Y2776622D02*
X1551745Y2791622D01*
X1536745Y2806622D01*
X1521745Y2791622D01*
X1536745Y2776622D01*
X1577443Y3104016D02*
X1592443Y3119016D01*
X1577443Y3134016D01*
X1562443Y3119016D01*
X1577443Y3104016D01*
X1594970Y2015631D02*
X1609970Y2030631D01*
X1594970Y2045631D01*
X1579970Y2030631D01*
X1594970Y2015631D01*
X1737360Y1849360D02*
X1752360Y1864360D01*
X1737360Y1879360D01*
X1722360Y1864360D01*
X1737360Y1849360D01*
X1844040Y3304780D02*
X1859040Y3319780D01*
X1844040Y3334780D01*
X1829040Y3319780D01*
X1844040Y3304780D01*
X1960880Y2410700D02*
X1975880Y2425700D01*
X1960880Y2440700D01*
X1945880Y2425700D01*
X1960880Y2410700D01*
X2004060Y3030460D02*
X2019060Y3045460D01*
X2004060Y3060460D01*
X1989060Y3045460D01*
X2004060Y3030460D01*
X2006600Y2118600D02*
X2021600Y2133600D01*
X2006600Y2148600D01*
X1991600Y2133600D01*
X2006600Y2118600D01*
X2009140Y1971280D02*
X2024140Y1986280D01*
X2009140Y2001280D01*
X1994140Y1986280D01*
X2009140Y1971280D01*
X2027300Y3509779D02*
X2042300Y3524779D01*
X2027300Y3539779D01*
X2012300Y3524779D01*
X2027300Y3509779D01*
X2135928Y3052362D02*
X2150928Y3067362D01*
X2135928Y3082362D01*
X2120928Y3067362D01*
X2135928Y3052362D01*
X2458720Y3086340D02*
X2473720Y3101340D01*
X2458720Y3116340D01*
X2443720Y3101340D01*
X2458720Y3086340D01*
X2628900Y3584180D02*
X2643900Y3599180D01*
X2628900Y3614180D01*
X2613900Y3599180D01*
X2628900Y3584180D01*
X2710180Y3160000D02*
X2725180Y3175000D01*
X2710180Y3190000D01*
X2695180Y3175000D01*
X2710180Y3160000D01*
X2796540Y1989060D02*
X2811540Y2004060D01*
X2796540Y2019060D01*
X2781540Y2004060D01*
X2796540Y1989060D01*
X3015494Y2008866D02*
X3030494Y2023866D01*
X3015494Y2038866D01*
X3000494Y2023866D01*
X3015494Y2008866D01*
X3078480Y2288780D02*
X3093480Y2303780D01*
X3078480Y2318780D01*
X3063480Y2303780D01*
X3078480Y2288780D01*
X3079854Y2094366D02*
X3094854Y2109366D01*
X3079854Y2124366D01*
X3064854Y2109366D01*
X3079854Y2094366D01*
X3081020Y2740900D02*
X3096020Y2755900D01*
X3081020Y2770900D01*
X3066020Y2755900D01*
X3081020Y2740900D01*
X3088640Y1615680D02*
X3103640Y1630680D01*
X3088640Y1645680D01*
X3073640Y1630680D01*
X3088640Y1615680D01*
X3091180Y3051580D02*
X3106180Y3066580D01*
X3091180Y3081580D01*
X3076180Y3066580D01*
X3091180Y3051580D01*
X3091180Y2945200D02*
X3106180Y2960200D01*
X3091180Y2975200D01*
X3076180Y2960200D01*
X3091180Y2945200D01*
X3106420Y3445280D02*
X3121420Y3460280D01*
X3106420Y3475280D01*
X3091420Y3460280D01*
X3106420Y3445280D01*
X3340100Y1839200D02*
X3355100Y1854200D01*
X3340100Y1869200D01*
X3325100Y1854200D01*
X3340100Y1839200D01*
X3459376Y2387840D02*
X3474376Y2402840D01*
X3459376Y2417840D01*
X3444376Y2402840D01*
X3459376Y2387840D01*
X3459376Y2283804D02*
X3474376Y2298804D01*
X3459376Y2313804D01*
X3444376Y2298804D01*
X3459376Y2283804D01*
X3528060Y3043160D02*
X3543060Y3058160D01*
X3528060Y3073160D01*
X3513060Y3058160D01*
X3528060Y3043160D01*
X3898900Y82760D02*
X3913900Y97760D01*
X3898900Y112760D01*
X3883900Y97760D01*
X3898900Y82760D01*
X4260900Y3629900D02*
X4275900Y3644900D01*
X4260900Y3659900D01*
X4245900Y3644900D01*
X4260900Y3629900D01*
X4262120Y3769600D02*
X4277120Y3784600D01*
X4262120Y3799600D01*
X4247120Y3784600D01*
X4262120Y3769600D01*
X4302760Y810500D02*
X4317760Y825500D01*
X4302760Y840500D01*
X4287760Y825500D01*
X4302760Y810500D01*
X4325620Y4871960D02*
X4340620Y4886960D01*
X4325620Y4901960D01*
X4310620Y4886960D01*
X4325620Y4871960D01*
X4325620Y4508740D02*
X4340620Y4523740D01*
X4325620Y4538740D01*
X4310620Y4523740D01*
X4325620Y4508740D01*
X4472940Y2044940D02*
X4487940Y2059940D01*
X4472940Y2074940D01*
X4457940Y2059940D01*
X4472940Y2044940D01*
X124400Y2927700D02*
X174400Y2877700D01*
X174400Y2927700D02*
X124400Y2877700D01*
X174400Y2902700D02*
G75*
G02*
X124400Y2902700I-25000J0D01*
G01*
X124400Y2902700D02*
G75*
G02*
X174400Y2902700I25000J0D01*
G01*
X116900Y2877700D02*
X181900Y2877700D01*
X181900Y2927700D02*
G75*
G02*
X181900Y2877700I0J-25000D01*
G01*
X181900Y2927700D02*
X116900Y2927700D01*
X116900Y2927700D02*
G75*
G03*
X116900Y2877700I0J-25000D01*
G01*
X124400Y2227700D02*
X174400Y2177700D01*
X174400Y2227700D02*
X124400Y2177700D01*
X174400Y2202700D02*
G75*
G02*
X124400Y2202700I-25000J0D01*
G01*
X124400Y2202700D02*
G75*
G02*
X174400Y2202700I25000J0D01*
G01*
X116900Y2177700D02*
X181900Y2177700D01*
X181900Y2227700D02*
G75*
G02*
X181900Y2177700I0J-25000D01*
G01*
X181900Y2227700D02*
X116900Y2227700D01*
X116900Y2227700D02*
G75*
G03*
X116900Y2177700I0J-25000D01*
G01*
X391900Y2830200D02*
X446900Y2775200D01*
X446900Y2830200D02*
X391900Y2775200D01*
X419400Y2830200D02*
X419400Y2775200D01*
X391900Y2802700D02*
X446900Y2802700D01*
X446900Y2787700D02*
X446900Y2817700D01*
X391900Y2817700D02*
G75*
G02*
X446900Y2817700I27500J0D01*
G01*
X391900Y2817700D02*
X391900Y2787700D01*
X391900Y2787700D02*
G75*
G03*
X446900Y2787700I27500J0D01*
G01*
X391900Y2330200D02*
X446900Y2275200D01*
X446900Y2330200D02*
X391900Y2275200D01*
X419400Y2330200D02*
X419400Y2275200D01*
X391900Y2302700D02*
X446900Y2302700D01*
X446900Y2287700D02*
X446900Y2317700D01*
X391900Y2317700D02*
G75*
G02*
X446900Y2317700I27500J0D01*
G01*
X391900Y2317700D02*
X391900Y2287700D01*
X391900Y2287700D02*
G75*
G03*
X446900Y2287700I27500J0D01*
G01*
X174200Y1959600D02*
X234200Y1899600D01*
X234200Y1959600D02*
X174200Y1899600D01*
X225413Y1908387D02*
X225413Y1950813D01*
X182987Y1950813D01*
X182987Y1908387D01*
X225413Y1908387D01*
X299200Y1959600D02*
X359200Y1899600D01*
X359200Y1959600D02*
X299200Y1899600D01*
X350413Y1908387D02*
X350413Y1950813D01*
X307987Y1950813D01*
X307987Y1908387D01*
X350413Y1908387D01*
X770900Y359200D02*
X830900Y299200D01*
X830900Y359200D02*
X770900Y299200D01*
X822113Y307987D02*
X822113Y350413D01*
X779687Y350413D01*
X779687Y307987D01*
X822113Y307987D01*
X770900Y234200D02*
X830900Y174200D01*
X830900Y234200D02*
X770900Y174200D01*
X822113Y182987D02*
X822113Y225413D01*
X779687Y225413D01*
X779687Y182987D01*
X822113Y182987D01*
X783600Y4816900D02*
X843600Y4756900D01*
X843600Y4816900D02*
X783600Y4756900D01*
X834813Y4765687D02*
X834813Y4808113D01*
X792387Y4808113D01*
X792387Y4765687D01*
X834813Y4765687D01*
X783600Y4691900D02*
X843600Y4631900D01*
X843600Y4691900D02*
X783600Y4631900D01*
X834813Y4640687D02*
X834813Y4683113D01*
X792387Y4683113D01*
X792387Y4640687D01*
X834813Y4640687D01*
X4035000Y195900D02*
X4095000Y135900D01*
X4095000Y195900D02*
X4035000Y135900D01*
X4086213Y144687D02*
X4086213Y187113D01*
X4043787Y187113D01*
X4043787Y144687D01*
X4086213Y144687D01*
X4036000Y4843300D02*
X4096000Y4783300D01*
X4096000Y4843300D02*
X4036000Y4783300D01*
X4087213Y4792087D02*
X4087213Y4834513D01*
X4044787Y4834513D01*
X4044787Y4792087D01*
X4087213Y4792087D01*
X4160000Y195900D02*
X4220000Y135900D01*
X4220000Y195900D02*
X4160000Y135900D01*
X4211213Y144687D02*
X4211213Y187113D01*
X4168787Y187113D01*
X4168787Y144687D01*
X4211213Y144687D01*
X4161000Y4843300D02*
X4221000Y4783300D01*
X4221000Y4843300D02*
X4161000Y4783300D01*
X4212213Y4792087D02*
X4212213Y4834513D01*
X4169787Y4834513D01*
X4169787Y4792087D01*
X4212213Y4792087D01*
X183400Y3615400D02*
X248400Y3550400D01*
X248400Y3615400D02*
X183400Y3550400D01*
X215900Y3550400D02*
X248400Y3582900D01*
X215900Y3615400D01*
X183400Y3582900D01*
X215900Y3550400D01*
X183400Y3488400D02*
X248400Y3423400D01*
X248400Y3488400D02*
X183400Y3423400D01*
X215900Y3423400D02*
X248400Y3455900D01*
X215900Y3488400D01*
X183400Y3455900D01*
X215900Y3423400D01*
X4460760Y4266680D02*
X4525760Y4201680D01*
X4525760Y4266680D02*
X4460760Y4201680D01*
X4493260Y4201680D02*
X4525760Y4234180D01*
X4493260Y4266680D01*
X4460760Y4234180D01*
X4493260Y4201680D01*
X4462800Y4045700D02*
X4527800Y3980700D01*
X4527800Y4045700D02*
X4462800Y3980700D01*
X4495300Y3980700D02*
X4527800Y4013200D01*
X4495300Y4045700D01*
X4462800Y4013200D01*
X4495300Y3980700D01*
X4587760Y4266680D02*
X4652760Y4201680D01*
X4652760Y4266680D02*
X4587760Y4201680D01*
X4620260Y4201680D02*
X4652760Y4234180D01*
X4620260Y4266680D01*
X4587760Y4234180D01*
X4620260Y4201680D01*
X4589800Y4045700D02*
X4654800Y3980700D01*
X4654800Y4045700D02*
X4589800Y3980700D01*
X4622300Y3980700D02*
X4654800Y4013200D01*
X4622300Y4045700D01*
X4589800Y4013200D01*
X4622300Y3980700D01*
X4590300Y3817100D02*
X4655300Y3752100D01*
X4655300Y3817100D02*
X4590300Y3752100D01*
X4622800Y3752100D02*
X4655300Y3784600D01*
X4622800Y3817100D01*
X4590300Y3784600D01*
X4622800Y3752100D01*
X4590800Y3588500D02*
X4655800Y3523500D01*
X4655800Y3588500D02*
X4590800Y3523500D01*
X4623300Y3523500D02*
X4655800Y3556000D01*
X4623300Y3588500D01*
X4590800Y3556000D01*
X4623300Y3523500D01*
X4714760Y4266680D02*
X4779760Y4201680D01*
X4779760Y4266680D02*
X4714760Y4201680D01*
X4747260Y4201680D02*
X4779760Y4234180D01*
X4747260Y4266680D01*
X4714760Y4234180D01*
X4747260Y4201680D01*
X4716800Y4045700D02*
X4781800Y3980700D01*
X4781800Y4045700D02*
X4716800Y3980700D01*
X4749300Y3980700D02*
X4781800Y4013200D01*
X4749300Y4045700D01*
X4716800Y4013200D01*
X4749300Y3980700D01*
X4717300Y3817100D02*
X4782300Y3752100D01*
X4782300Y3817100D02*
X4717300Y3752100D01*
X4749800Y3752100D02*
X4782300Y3784600D01*
X4749800Y3817100D01*
X4717300Y3784600D01*
X4749800Y3752100D01*
X4717800Y3588500D02*
X4782800Y3523500D01*
X4782800Y3588500D02*
X4717800Y3523500D01*
X4750300Y3523500D02*
X4782800Y3556000D01*
X4750300Y3588500D01*
X4717800Y3556000D01*
X4750300Y3523500D01*
X4718800Y1708900D02*
X4783800Y1643900D01*
X4783800Y1708900D02*
X4718800Y1643900D01*
X4751300Y1643900D02*
X4783800Y1676400D01*
X4751300Y1708900D01*
X4718800Y1676400D01*
X4751300Y1643900D01*
X4718800Y1480300D02*
X4783800Y1415300D01*
X4783800Y1480300D02*
X4718800Y1415300D01*
X4751300Y1415300D02*
X4783800Y1447800D01*
X4751300Y1480300D01*
X4718800Y1447800D01*
X4751300Y1415300D01*
X4718800Y1251700D02*
X4783800Y1186700D01*
X4783800Y1251700D02*
X4718800Y1186700D01*
X4751300Y1186700D02*
X4783800Y1219200D01*
X4751300Y1251700D01*
X4718800Y1219200D01*
X4751300Y1186700D01*
X4718800Y1035800D02*
X4783800Y970800D01*
X4783800Y1035800D02*
X4718800Y970800D01*
X4751300Y970800D02*
X4783800Y1003300D01*
X4751300Y1035800D01*
X4718800Y1003300D01*
X4751300Y970800D01*
X4841760Y4266680D02*
X4906760Y4201680D01*
X4906760Y4266680D02*
X4841760Y4201680D01*
X4874260Y4201680D02*
X4906760Y4234180D01*
X4874260Y4266680D01*
X4841760Y4234180D01*
X4874260Y4201680D01*
X4843800Y4045700D02*
X4908800Y3980700D01*
X4908800Y4045700D02*
X4843800Y3980700D01*
X4876300Y3980700D02*
X4908800Y4013200D01*
X4876300Y4045700D01*
X4843800Y4013200D01*
X4876300Y3980700D01*
X4844300Y3817100D02*
X4909300Y3752100D01*
X4909300Y3817100D02*
X4844300Y3752100D01*
X4876800Y3752100D02*
X4909300Y3784600D01*
X4876800Y3817100D01*
X4844300Y3784600D01*
X4876800Y3752100D01*
X4844800Y3588500D02*
X4909800Y3523500D01*
X4909800Y3588500D02*
X4844800Y3523500D01*
X4877300Y3523500D02*
X4909800Y3556000D01*
X4877300Y3588500D01*
X4844800Y3556000D01*
X4877300Y3523500D01*
X4845800Y1708900D02*
X4910800Y1643900D01*
X4910800Y1708900D02*
X4845800Y1643900D01*
X4878300Y1643900D02*
X4910800Y1676400D01*
X4878300Y1708900D01*
X4845800Y1676400D01*
X4878300Y1643900D01*
X4845800Y1480300D02*
X4910800Y1415300D01*
X4910800Y1480300D02*
X4845800Y1415300D01*
X4878300Y1415300D02*
X4910800Y1447800D01*
X4878300Y1480300D01*
X4845800Y1447800D01*
X4878300Y1415300D01*
X4845800Y1251700D02*
X4910800Y1186700D01*
X4910800Y1251700D02*
X4845800Y1186700D01*
X4878300Y1186700D02*
X4910800Y1219200D01*
X4878300Y1251700D01*
X4845800Y1219200D01*
X4878300Y1186700D01*
X4845800Y1035800D02*
X4910800Y970800D01*
X4910800Y1035800D02*
X4845800Y970800D01*
X4878300Y970800D02*
X4910800Y1003300D01*
X4878300Y1035800D01*
X4845800Y1003300D01*
X4878300Y970800D01*
X437500Y1269700D02*
X437500Y1169700D01*
X387500Y1219700D02*
X487500Y1219700D01*
X487500Y1219700D02*
G75*
G02*
X387500Y1219700I-50000J0D01*
G01*
X387500Y1219700D02*
G75*
G02*
X487500Y1219700I50000J0D01*
G01*
X437500Y1015700D02*
X437500Y915700D01*
X387500Y965700D02*
X487500Y965700D01*
X487500Y965700D02*
G75*
G02*
X387500Y965700I-50000J0D01*
G01*
X387500Y965700D02*
G75*
G02*
X487500Y965700I50000J0D01*
G01*
D13*
X417938Y4590942D02*
X417938Y4817218D01*
X191662Y4817218D01*
X191662Y4590942D01*
X417938Y4590942D01*
X464800Y4704080D02*
G75*
G02*
X144800Y4704080I-160000J0D01*
G01*
X144800Y4704080D02*
G75*
G02*
X464800Y4704080I160000J0D01*
G01*
X417938Y191662D02*
X417938Y417938D01*
X191662Y417938D01*
X191662Y191662D01*
X417938Y191662D01*
X464800Y304800D02*
G75*
G02*
X144800Y304800I-160000J0D01*
G01*
X144800Y304800D02*
G75*
G02*
X464800Y304800I160000J0D01*
G01*
X4819758Y4590942D02*
X4819758Y4817218D01*
X4593482Y4817218D01*
X4593482Y4590942D01*
X4819758Y4590942D01*
X4866620Y4704080D02*
G75*
G02*
X4546620Y4704080I-160000J0D01*
G01*
X4546620Y4704080D02*
G75*
G02*
X4866620Y4704080I160000J0D01*
G01*
X4819758Y191662D02*
X4819758Y417938D01*
X4593482Y417938D01*
X4593482Y191662D01*
X4819758Y191662D01*
X4866620Y304800D02*
G75*
G02*
X4546620Y304800I-160000J0D01*
G01*
X4546620Y304800D02*
G75*
G02*
X4866620Y304800I160000J0D01*
G01*
D11*
X258277Y-313984D02*
X258277Y-113984D01*
X258277Y-113984D02*
X305896Y-113984D01*
X305896Y-113984D02*
X334467Y-123508D01*
X334467Y-123508D02*
X353515Y-142555D01*
X353515Y-142555D02*
X363039Y-161603D01*
X363039Y-161603D02*
X372562Y-199698D01*
X372562Y-199698D02*
X372562Y-228269D01*
X372562Y-228269D02*
X363039Y-266365D01*
X363039Y-266365D02*
X353515Y-285412D01*
X353515Y-285412D02*
X334467Y-304460D01*
X334467Y-304460D02*
X305896Y-313984D01*
X305896Y-313984D02*
X258277Y-313984D01*
X458277Y-313984D02*
X458277Y-180650D01*
X458277Y-218746D02*
X467801Y-199698D01*
X467801Y-199698D02*
X477324Y-190174D01*
X477324Y-190174D02*
X496372Y-180650D01*
X496372Y-180650D02*
X515420Y-180650D01*
X582086Y-313984D02*
X582086Y-180650D01*
X582086Y-113984D02*
X572563Y-123508D01*
X572563Y-123508D02*
X582086Y-133031D01*
X582086Y-133031D02*
X591610Y-123508D01*
X591610Y-123508D02*
X582086Y-113984D01*
X582086Y-113984D02*
X582086Y-133031D01*
X705896Y-313984D02*
X686848Y-304460D01*
X686848Y-304460D02*
X677324Y-285412D01*
X677324Y-285412D02*
X677324Y-113984D01*
X810658Y-313984D02*
X791610Y-304460D01*
X791610Y-304460D02*
X782086Y-285412D01*
X782086Y-285412D02*
X782086Y-113984D01*
X1039229Y-313984D02*
X1039229Y-113984D01*
X1039229Y-113984D02*
X1105896Y-256841D01*
X1105896Y-256841D02*
X1172563Y-113984D01*
X1172563Y-113984D02*
X1172563Y-313984D01*
X1353515Y-313984D02*
X1353515Y-209222D01*
X1353515Y-209222D02*
X1343991Y-190174D01*
X1343991Y-190174D02*
X1324944Y-180650D01*
X1324944Y-180650D02*
X1286848Y-180650D01*
X1286848Y-180650D02*
X1267801Y-190174D01*
X1353515Y-304460D02*
X1334467Y-313984D01*
X1334467Y-313984D02*
X1286848Y-313984D01*
X1286848Y-313984D02*
X1267801Y-304460D01*
X1267801Y-304460D02*
X1258277Y-285412D01*
X1258277Y-285412D02*
X1258277Y-266365D01*
X1258277Y-266365D02*
X1267801Y-247317D01*
X1267801Y-247317D02*
X1286848Y-237793D01*
X1286848Y-237793D02*
X1334467Y-237793D01*
X1334467Y-237793D02*
X1353515Y-228269D01*
X1448753Y-180650D02*
X1448753Y-380650D01*
X1448753Y-190174D02*
X1467801Y-180650D01*
X1467801Y-180650D02*
X1505896Y-180650D01*
X1505896Y-180650D02*
X1524943Y-190174D01*
X1524943Y-190174D02*
X1534467Y-199698D01*
X1534467Y-199698D02*
X1543991Y-218746D01*
X1543991Y-218746D02*
X1543991Y-275889D01*
X1543991Y-275889D02*
X1534467Y-294936D01*
X1534467Y-294936D02*
X1524943Y-304460D01*
X1524943Y-304460D02*
X1505896Y-313984D01*
X1505896Y-313984D02*
X1467801Y-313984D01*
X1467801Y-313984D02*
X1448753Y-304460D01*
X1629705Y-294936D02*
X1639229Y-304460D01*
X1639229Y-304460D02*
X1629705Y-313984D01*
X1629705Y-313984D02*
X1620182Y-304460D01*
X1620182Y-304460D02*
X1629705Y-294936D01*
X1629705Y-294936D02*
X1629705Y-313984D01*
X1629705Y-190174D02*
X1639229Y-199698D01*
X1639229Y-199698D02*
X1629705Y-209222D01*
X1629705Y-209222D02*
X1620182Y-199698D01*
X1620182Y-199698D02*
X1629705Y-190174D01*
X1629705Y-190174D02*
X1629705Y-209222D01*
D12*
X-22500Y-632500D02*
X-2500Y-652500D01*
X-2500Y-632500D02*
X-22500Y-652500D01*
D11*
X296372Y-533984D02*
X315420Y-533984D01*
X315420Y-533984D02*
X334467Y-543508D01*
X334467Y-543508D02*
X343991Y-553031D01*
X343991Y-553031D02*
X353515Y-572079D01*
X353515Y-572079D02*
X363039Y-610174D01*
X363039Y-610174D02*
X363039Y-657793D01*
X363039Y-657793D02*
X353515Y-695889D01*
X353515Y-695889D02*
X343991Y-714936D01*
X343991Y-714936D02*
X334467Y-724460D01*
X334467Y-724460D02*
X315420Y-733984D01*
X315420Y-733984D02*
X296372Y-733984D01*
X296372Y-733984D02*
X277324Y-724460D01*
X277324Y-724460D02*
X267801Y-714936D01*
X267801Y-714936D02*
X258277Y-695889D01*
X258277Y-695889D02*
X248753Y-657793D01*
X248753Y-657793D02*
X248753Y-610174D01*
X248753Y-610174D02*
X258277Y-572079D01*
X258277Y-572079D02*
X267801Y-553031D01*
X267801Y-553031D02*
X277324Y-543508D01*
X277324Y-543508D02*
X296372Y-533984D01*
X448753Y-714936D02*
X458277Y-724460D01*
X458277Y-724460D02*
X448753Y-733984D01*
X448753Y-733984D02*
X439229Y-724460D01*
X439229Y-724460D02*
X448753Y-714936D01*
X448753Y-714936D02*
X448753Y-733984D01*
X534467Y-553031D02*
X543991Y-543508D01*
X543991Y-543508D02*
X563039Y-533984D01*
X563039Y-533984D02*
X610658Y-533984D01*
X610658Y-533984D02*
X629705Y-543508D01*
X629705Y-543508D02*
X639229Y-553031D01*
X639229Y-553031D02*
X648753Y-572079D01*
X648753Y-572079D02*
X648753Y-591127D01*
X648753Y-591127D02*
X639229Y-619698D01*
X639229Y-619698D02*
X524944Y-733984D01*
X524944Y-733984D02*
X648753Y-733984D01*
X772562Y-533984D02*
X791610Y-533984D01*
X791610Y-533984D02*
X810658Y-543508D01*
X810658Y-543508D02*
X820182Y-553031D01*
X820182Y-553031D02*
X829705Y-572079D01*
X829705Y-572079D02*
X839229Y-610174D01*
X839229Y-610174D02*
X839229Y-657793D01*
X839229Y-657793D02*
X829705Y-695889D01*
X829705Y-695889D02*
X820182Y-714936D01*
X820182Y-714936D02*
X810658Y-724460D01*
X810658Y-724460D02*
X791610Y-733984D01*
X791610Y-733984D02*
X772562Y-733984D01*
X772562Y-733984D02*
X753515Y-724460D01*
X753515Y-724460D02*
X743991Y-714936D01*
X743991Y-714936D02*
X734467Y-695889D01*
X734467Y-695889D02*
X724943Y-657793D01*
X724943Y-657793D02*
X724943Y-610174D01*
X724943Y-610174D02*
X734467Y-572079D01*
X734467Y-572079D02*
X743991Y-553031D01*
X743991Y-553031D02*
X753515Y-543508D01*
X753515Y-543508D02*
X772562Y-533984D01*
X963039Y-533984D02*
X982086Y-533984D01*
X982086Y-533984D02*
X1001134Y-543508D01*
X1001134Y-543508D02*
X1010658Y-553031D01*
X1010658Y-553031D02*
X1020182Y-572079D01*
X1020182Y-572079D02*
X1029705Y-610174D01*
X1029705Y-610174D02*
X1029705Y-657793D01*
X1029705Y-657793D02*
X1020182Y-695889D01*
X1020182Y-695889D02*
X1010658Y-714936D01*
X1010658Y-714936D02*
X1001134Y-724460D01*
X1001134Y-724460D02*
X982086Y-733984D01*
X982086Y-733984D02*
X963039Y-733984D01*
X963039Y-733984D02*
X943991Y-724460D01*
X943991Y-724460D02*
X934467Y-714936D01*
X934467Y-714936D02*
X924943Y-695889D01*
X924943Y-695889D02*
X915420Y-657793D01*
X915420Y-657793D02*
X915420Y-610174D01*
X915420Y-610174D02*
X924943Y-572079D01*
X924943Y-572079D02*
X934467Y-553031D01*
X934467Y-553031D02*
X943991Y-543508D01*
X943991Y-543508D02*
X963039Y-533984D01*
X1115420Y-733984D02*
X1115420Y-600650D01*
X1115420Y-619698D02*
X1124944Y-610174D01*
X1124944Y-610174D02*
X1143991Y-600650D01*
X1143991Y-600650D02*
X1172563Y-600650D01*
X1172563Y-600650D02*
X1191610Y-610174D01*
X1191610Y-610174D02*
X1201134Y-629222D01*
X1201134Y-629222D02*
X1201134Y-733984D01*
X1201134Y-629222D02*
X1210658Y-610174D01*
X1210658Y-610174D02*
X1229705Y-600650D01*
X1229705Y-600650D02*
X1258277Y-600650D01*
X1258277Y-600650D02*
X1277325Y-610174D01*
X1277325Y-610174D02*
X1286848Y-629222D01*
X1286848Y-629222D02*
X1286848Y-733984D01*
X1382086Y-733984D02*
X1382086Y-600650D01*
X1382086Y-619698D02*
X1391610Y-610174D01*
X1391610Y-610174D02*
X1410658Y-600650D01*
X1410658Y-600650D02*
X1439229Y-600650D01*
X1439229Y-600650D02*
X1458277Y-610174D01*
X1458277Y-610174D02*
X1467801Y-629222D01*
X1467801Y-629222D02*
X1467801Y-733984D01*
X1467801Y-629222D02*
X1477324Y-610174D01*
X1477324Y-610174D02*
X1496372Y-600650D01*
X1496372Y-600650D02*
X1524943Y-600650D01*
X1524943Y-600650D02*
X1543991Y-610174D01*
X1543991Y-610174D02*
X1553515Y-629222D01*
X1553515Y-629222D02*
X1553515Y-733984D01*
X1943991Y-524460D02*
X1772563Y-781603D01*
X2201134Y-533984D02*
X2220182Y-533984D01*
X2220182Y-533984D02*
X2239229Y-543508D01*
X2239229Y-543508D02*
X2248753Y-553031D01*
X2248753Y-553031D02*
X2258277Y-572079D01*
X2258277Y-572079D02*
X2267801Y-610174D01*
X2267801Y-610174D02*
X2267801Y-657793D01*
X2267801Y-657793D02*
X2258277Y-695889D01*
X2258277Y-695889D02*
X2248753Y-714936D01*
X2248753Y-714936D02*
X2239229Y-724460D01*
X2239229Y-724460D02*
X2220182Y-733984D01*
X2220182Y-733984D02*
X2201134Y-733984D01*
X2201134Y-733984D02*
X2182087Y-724460D01*
X2182087Y-724460D02*
X2172563Y-714936D01*
X2172563Y-714936D02*
X2163039Y-695889D01*
X2163039Y-695889D02*
X2153515Y-657793D01*
X2153515Y-657793D02*
X2153515Y-610174D01*
X2153515Y-610174D02*
X2163039Y-572079D01*
X2163039Y-572079D02*
X2172563Y-553031D01*
X2172563Y-553031D02*
X2182087Y-543508D01*
X2182087Y-543508D02*
X2201134Y-533984D01*
X2353515Y-714936D02*
X2363039Y-724460D01*
X2363039Y-724460D02*
X2353515Y-733984D01*
X2353515Y-733984D02*
X2343991Y-724460D01*
X2343991Y-724460D02*
X2353515Y-714936D01*
X2353515Y-714936D02*
X2353515Y-733984D01*
X2486848Y-533984D02*
X2505896Y-533984D01*
X2505896Y-533984D02*
X2524944Y-543508D01*
X2524944Y-543508D02*
X2534468Y-553031D01*
X2534468Y-553031D02*
X2543991Y-572079D01*
X2543991Y-572079D02*
X2553515Y-610174D01*
X2553515Y-610174D02*
X2553515Y-657793D01*
X2553515Y-657793D02*
X2543991Y-695889D01*
X2543991Y-695889D02*
X2534468Y-714936D01*
X2534468Y-714936D02*
X2524944Y-724460D01*
X2524944Y-724460D02*
X2505896Y-733984D01*
X2505896Y-733984D02*
X2486848Y-733984D01*
X2486848Y-733984D02*
X2467801Y-724460D01*
X2467801Y-724460D02*
X2458277Y-714936D01*
X2458277Y-714936D02*
X2448753Y-695889D01*
X2448753Y-695889D02*
X2439229Y-657793D01*
X2439229Y-657793D02*
X2439229Y-610174D01*
X2439229Y-610174D02*
X2448753Y-572079D01*
X2448753Y-572079D02*
X2458277Y-553031D01*
X2458277Y-553031D02*
X2467801Y-543508D01*
X2467801Y-543508D02*
X2486848Y-533984D01*
X2677325Y-533984D02*
X2696372Y-533984D01*
X2696372Y-533984D02*
X2715420Y-543508D01*
X2715420Y-543508D02*
X2724944Y-553031D01*
X2724944Y-553031D02*
X2734468Y-572079D01*
X2734468Y-572079D02*
X2743991Y-610174D01*
X2743991Y-610174D02*
X2743991Y-657793D01*
X2743991Y-657793D02*
X2734468Y-695889D01*
X2734468Y-695889D02*
X2724944Y-714936D01*
X2724944Y-714936D02*
X2715420Y-724460D01*
X2715420Y-724460D02*
X2696372Y-733984D01*
X2696372Y-733984D02*
X2677325Y-733984D01*
X2677325Y-733984D02*
X2658277Y-724460D01*
X2658277Y-724460D02*
X2648753Y-714936D01*
X2648753Y-714936D02*
X2639229Y-695889D01*
X2639229Y-695889D02*
X2629706Y-657793D01*
X2629706Y-657793D02*
X2629706Y-610174D01*
X2629706Y-610174D02*
X2639229Y-572079D01*
X2639229Y-572079D02*
X2648753Y-553031D01*
X2648753Y-553031D02*
X2658277Y-543508D01*
X2658277Y-543508D02*
X2677325Y-533984D01*
X2810658Y-533984D02*
X2943991Y-533984D01*
X2943991Y-533984D02*
X2858277Y-733984D01*
X3029706Y-733984D02*
X3067801Y-733984D01*
X3067801Y-733984D02*
X3086848Y-724460D01*
X3086848Y-724460D02*
X3096372Y-714936D01*
X3096372Y-714936D02*
X3115420Y-686365D01*
X3115420Y-686365D02*
X3124944Y-648270D01*
X3124944Y-648270D02*
X3124944Y-572079D01*
X3124944Y-572079D02*
X3115420Y-553031D01*
X3115420Y-553031D02*
X3105896Y-543508D01*
X3105896Y-543508D02*
X3086848Y-533984D01*
X3086848Y-533984D02*
X3048753Y-533984D01*
X3048753Y-533984D02*
X3029706Y-543508D01*
X3029706Y-543508D02*
X3020182Y-553031D01*
X3020182Y-553031D02*
X3010658Y-572079D01*
X3010658Y-572079D02*
X3010658Y-619698D01*
X3010658Y-619698D02*
X3020182Y-638746D01*
X3020182Y-638746D02*
X3029706Y-648270D01*
X3029706Y-648270D02*
X3048753Y-657793D01*
X3048753Y-657793D02*
X3086848Y-657793D01*
X3086848Y-657793D02*
X3105896Y-648270D01*
X3105896Y-648270D02*
X3115420Y-638746D01*
X3115420Y-638746D02*
X3124944Y-619698D01*
X3201134Y-533984D02*
X3201134Y-572079D01*
X3277325Y-533984D02*
X3277325Y-572079D01*
X3572563Y-810174D02*
X3563039Y-800650D01*
X3563039Y-800650D02*
X3543991Y-772079D01*
X3543991Y-772079D02*
X3534468Y-753031D01*
X3534468Y-753031D02*
X3524944Y-724460D01*
X3524944Y-724460D02*
X3515420Y-676841D01*
X3515420Y-676841D02*
X3515420Y-638746D01*
X3515420Y-638746D02*
X3524944Y-591127D01*
X3524944Y-591127D02*
X3534468Y-562555D01*
X3534468Y-562555D02*
X3543991Y-543508D01*
X3543991Y-543508D02*
X3563039Y-514936D01*
X3563039Y-514936D02*
X3572563Y-505412D01*
X3629706Y-533984D02*
X3753515Y-533984D01*
X3753515Y-533984D02*
X3686848Y-610174D01*
X3686848Y-610174D02*
X3715420Y-610174D01*
X3715420Y-610174D02*
X3734468Y-619698D01*
X3734468Y-619698D02*
X3743991Y-629222D01*
X3743991Y-629222D02*
X3753515Y-648270D01*
X3753515Y-648270D02*
X3753515Y-695889D01*
X3753515Y-695889D02*
X3743991Y-714936D01*
X3743991Y-714936D02*
X3734468Y-724460D01*
X3734468Y-724460D02*
X3715420Y-733984D01*
X3715420Y-733984D02*
X3658277Y-733984D01*
X3658277Y-733984D02*
X3639229Y-724460D01*
X3639229Y-724460D02*
X3629706Y-714936D01*
X3820182Y-533984D02*
X3953515Y-533984D01*
X3953515Y-533984D02*
X3867801Y-733984D01*
X4115420Y-600650D02*
X4115420Y-733984D01*
X4067801Y-524460D02*
X4020182Y-667317D01*
X4020182Y-667317D02*
X4143991Y-667317D01*
X4372563Y-733984D02*
X4372563Y-533984D01*
X4458277Y-733984D02*
X4458277Y-629222D01*
X4458277Y-629222D02*
X4448753Y-610174D01*
X4448753Y-610174D02*
X4429706Y-600650D01*
X4429706Y-600650D02*
X4401134Y-600650D01*
X4401134Y-600650D02*
X4382087Y-610174D01*
X4382087Y-610174D02*
X4372563Y-619698D01*
X4582087Y-733984D02*
X4563039Y-724460D01*
X4563039Y-724460D02*
X4553515Y-714936D01*
X4553515Y-714936D02*
X4543992Y-695889D01*
X4543992Y-695889D02*
X4543992Y-638746D01*
X4543992Y-638746D02*
X4553515Y-619698D01*
X4553515Y-619698D02*
X4563039Y-610174D01*
X4563039Y-610174D02*
X4582087Y-600650D01*
X4582087Y-600650D02*
X4610658Y-600650D01*
X4610658Y-600650D02*
X4629706Y-610174D01*
X4629706Y-610174D02*
X4639230Y-619698D01*
X4639230Y-619698D02*
X4648753Y-638746D01*
X4648753Y-638746D02*
X4648753Y-695889D01*
X4648753Y-695889D02*
X4639230Y-714936D01*
X4639230Y-714936D02*
X4629706Y-724460D01*
X4629706Y-724460D02*
X4610658Y-733984D01*
X4610658Y-733984D02*
X4582087Y-733984D01*
X4763039Y-733984D02*
X4743992Y-724460D01*
X4743992Y-724460D02*
X4734468Y-705412D01*
X4734468Y-705412D02*
X4734468Y-533984D01*
X4915420Y-724460D02*
X4896373Y-733984D01*
X4896373Y-733984D02*
X4858277Y-733984D01*
X4858277Y-733984D02*
X4839230Y-724460D01*
X4839230Y-724460D02*
X4829706Y-705412D01*
X4829706Y-705412D02*
X4829706Y-629222D01*
X4829706Y-629222D02*
X4839230Y-610174D01*
X4839230Y-610174D02*
X4858277Y-600650D01*
X4858277Y-600650D02*
X4896373Y-600650D01*
X4896373Y-600650D02*
X4915420Y-610174D01*
X4915420Y-610174D02*
X4924944Y-629222D01*
X4924944Y-629222D02*
X4924944Y-648270D01*
X4924944Y-648270D02*
X4829706Y-667317D01*
X5001134Y-724460D02*
X5020182Y-733984D01*
X5020182Y-733984D02*
X5058277Y-733984D01*
X5058277Y-733984D02*
X5077325Y-724460D01*
X5077325Y-724460D02*
X5086849Y-705412D01*
X5086849Y-705412D02*
X5086849Y-695889D01*
X5086849Y-695889D02*
X5077325Y-676841D01*
X5077325Y-676841D02*
X5058277Y-667317D01*
X5058277Y-667317D02*
X5029706Y-667317D01*
X5029706Y-667317D02*
X5010658Y-657793D01*
X5010658Y-657793D02*
X5001134Y-638746D01*
X5001134Y-638746D02*
X5001134Y-629222D01*
X5001134Y-629222D02*
X5010658Y-610174D01*
X5010658Y-610174D02*
X5029706Y-600650D01*
X5029706Y-600650D02*
X5058277Y-600650D01*
X5058277Y-600650D02*
X5077325Y-610174D01*
X5153515Y-810174D02*
X5163039Y-800650D01*
X5163039Y-800650D02*
X5182087Y-772079D01*
X5182087Y-772079D02*
X5191611Y-753031D01*
X5191611Y-753031D02*
X5201134Y-724460D01*
X5201134Y-724460D02*
X5210658Y-676841D01*
X5210658Y-676841D02*
X5210658Y-638746D01*
X5210658Y-638746D02*
X5201134Y-591127D01*
X5201134Y-591127D02*
X5191611Y-562555D01*
X5191611Y-562555D02*
X5182087Y-543508D01*
X5182087Y-543508D02*
X5163039Y-514936D01*
X5163039Y-514936D02*
X5153515Y-505412D01*
D12*
X-2500Y-906500D02*
G75*
G02*
X-22500Y-906500I-10000J0D01*
G01*
X-22500Y-906500D02*
G75*
G02*
X-2500Y-906500I10000J0D01*
G01*
D11*
X296372Y-797984D02*
X315420Y-797984D01*
X315420Y-797984D02*
X334467Y-807508D01*
X334467Y-807508D02*
X343991Y-817031D01*
X343991Y-817031D02*
X353515Y-836079D01*
X353515Y-836079D02*
X363039Y-874174D01*
X363039Y-874174D02*
X363039Y-921793D01*
X363039Y-921793D02*
X353515Y-959888D01*
X353515Y-959888D02*
X343991Y-978936D01*
X343991Y-978936D02*
X334467Y-988460D01*
X334467Y-988460D02*
X315420Y-997984D01*
X315420Y-997984D02*
X296372Y-997984D01*
X296372Y-997984D02*
X277324Y-988460D01*
X277324Y-988460D02*
X267801Y-978936D01*
X267801Y-978936D02*
X258277Y-959888D01*
X258277Y-959888D02*
X248753Y-921793D01*
X248753Y-921793D02*
X248753Y-874174D01*
X248753Y-874174D02*
X258277Y-836079D01*
X258277Y-836079D02*
X267801Y-817031D01*
X267801Y-817031D02*
X277324Y-807508D01*
X277324Y-807508D02*
X296372Y-797984D01*
X448753Y-978936D02*
X458277Y-988460D01*
X458277Y-988460D02*
X448753Y-997984D01*
X448753Y-997984D02*
X439229Y-988460D01*
X439229Y-988460D02*
X448753Y-978936D01*
X448753Y-978936D02*
X448753Y-997984D01*
X534467Y-817031D02*
X543991Y-807508D01*
X543991Y-807508D02*
X563039Y-797984D01*
X563039Y-797984D02*
X610658Y-797984D01*
X610658Y-797984D02*
X629705Y-807508D01*
X629705Y-807508D02*
X639229Y-817031D01*
X639229Y-817031D02*
X648753Y-836079D01*
X648753Y-836079D02*
X648753Y-855127D01*
X648753Y-855127D02*
X639229Y-883698D01*
X639229Y-883698D02*
X524944Y-997984D01*
X524944Y-997984D02*
X648753Y-997984D01*
X772562Y-797984D02*
X791610Y-797984D01*
X791610Y-797984D02*
X810658Y-807508D01*
X810658Y-807508D02*
X820182Y-817031D01*
X820182Y-817031D02*
X829705Y-836079D01*
X829705Y-836079D02*
X839229Y-874174D01*
X839229Y-874174D02*
X839229Y-921793D01*
X839229Y-921793D02*
X829705Y-959888D01*
X829705Y-959888D02*
X820182Y-978936D01*
X820182Y-978936D02*
X810658Y-988460D01*
X810658Y-988460D02*
X791610Y-997984D01*
X791610Y-997984D02*
X772562Y-997984D01*
X772562Y-997984D02*
X753515Y-988460D01*
X753515Y-988460D02*
X743991Y-978936D01*
X743991Y-978936D02*
X734467Y-959888D01*
X734467Y-959888D02*
X724943Y-921793D01*
X724943Y-921793D02*
X724943Y-874174D01*
X724943Y-874174D02*
X734467Y-836079D01*
X734467Y-836079D02*
X743991Y-817031D01*
X743991Y-817031D02*
X753515Y-807508D01*
X753515Y-807508D02*
X772562Y-797984D01*
X963039Y-797984D02*
X982086Y-797984D01*
X982086Y-797984D02*
X1001134Y-807508D01*
X1001134Y-807508D02*
X1010658Y-817031D01*
X1010658Y-817031D02*
X1020182Y-836079D01*
X1020182Y-836079D02*
X1029705Y-874174D01*
X1029705Y-874174D02*
X1029705Y-921793D01*
X1029705Y-921793D02*
X1020182Y-959888D01*
X1020182Y-959888D02*
X1010658Y-978936D01*
X1010658Y-978936D02*
X1001134Y-988460D01*
X1001134Y-988460D02*
X982086Y-997984D01*
X982086Y-997984D02*
X963039Y-997984D01*
X963039Y-997984D02*
X943991Y-988460D01*
X943991Y-988460D02*
X934467Y-978936D01*
X934467Y-978936D02*
X924943Y-959888D01*
X924943Y-959888D02*
X915420Y-921793D01*
X915420Y-921793D02*
X915420Y-874174D01*
X915420Y-874174D02*
X924943Y-836079D01*
X924943Y-836079D02*
X934467Y-817031D01*
X934467Y-817031D02*
X943991Y-807508D01*
X943991Y-807508D02*
X963039Y-797984D01*
X1115420Y-997984D02*
X1115420Y-864650D01*
X1115420Y-883698D02*
X1124944Y-874174D01*
X1124944Y-874174D02*
X1143991Y-864650D01*
X1143991Y-864650D02*
X1172563Y-864650D01*
X1172563Y-864650D02*
X1191610Y-874174D01*
X1191610Y-874174D02*
X1201134Y-893222D01*
X1201134Y-893222D02*
X1201134Y-997984D01*
X1201134Y-893222D02*
X1210658Y-874174D01*
X1210658Y-874174D02*
X1229705Y-864650D01*
X1229705Y-864650D02*
X1258277Y-864650D01*
X1258277Y-864650D02*
X1277325Y-874174D01*
X1277325Y-874174D02*
X1286848Y-893222D01*
X1286848Y-893222D02*
X1286848Y-997984D01*
X1382086Y-997984D02*
X1382086Y-864650D01*
X1382086Y-883698D02*
X1391610Y-874174D01*
X1391610Y-874174D02*
X1410658Y-864650D01*
X1410658Y-864650D02*
X1439229Y-864650D01*
X1439229Y-864650D02*
X1458277Y-874174D01*
X1458277Y-874174D02*
X1467801Y-893222D01*
X1467801Y-893222D02*
X1467801Y-997984D01*
X1467801Y-893222D02*
X1477324Y-874174D01*
X1477324Y-874174D02*
X1496372Y-864650D01*
X1496372Y-864650D02*
X1524943Y-864650D01*
X1524943Y-864650D02*
X1543991Y-874174D01*
X1543991Y-874174D02*
X1553515Y-893222D01*
X1553515Y-893222D02*
X1553515Y-997984D01*
X1943991Y-788460D02*
X1772563Y-1045603D01*
X2201134Y-797984D02*
X2220182Y-797984D01*
X2220182Y-797984D02*
X2239229Y-807508D01*
X2239229Y-807508D02*
X2248753Y-817031D01*
X2248753Y-817031D02*
X2258277Y-836079D01*
X2258277Y-836079D02*
X2267801Y-874174D01*
X2267801Y-874174D02*
X2267801Y-921793D01*
X2267801Y-921793D02*
X2258277Y-959888D01*
X2258277Y-959888D02*
X2248753Y-978936D01*
X2248753Y-978936D02*
X2239229Y-988460D01*
X2239229Y-988460D02*
X2220182Y-997984D01*
X2220182Y-997984D02*
X2201134Y-997984D01*
X2201134Y-997984D02*
X2182087Y-988460D01*
X2182087Y-988460D02*
X2172563Y-978936D01*
X2172563Y-978936D02*
X2163039Y-959888D01*
X2163039Y-959888D02*
X2153515Y-921793D01*
X2153515Y-921793D02*
X2153515Y-874174D01*
X2153515Y-874174D02*
X2163039Y-836079D01*
X2163039Y-836079D02*
X2172563Y-817031D01*
X2172563Y-817031D02*
X2182087Y-807508D01*
X2182087Y-807508D02*
X2201134Y-797984D01*
X2353515Y-978936D02*
X2363039Y-988460D01*
X2363039Y-988460D02*
X2353515Y-997984D01*
X2353515Y-997984D02*
X2343991Y-988460D01*
X2343991Y-988460D02*
X2353515Y-978936D01*
X2353515Y-978936D02*
X2353515Y-997984D01*
X2486848Y-797984D02*
X2505896Y-797984D01*
X2505896Y-797984D02*
X2524944Y-807508D01*
X2524944Y-807508D02*
X2534468Y-817031D01*
X2534468Y-817031D02*
X2543991Y-836079D01*
X2543991Y-836079D02*
X2553515Y-874174D01*
X2553515Y-874174D02*
X2553515Y-921793D01*
X2553515Y-921793D02*
X2543991Y-959888D01*
X2543991Y-959888D02*
X2534468Y-978936D01*
X2534468Y-978936D02*
X2524944Y-988460D01*
X2524944Y-988460D02*
X2505896Y-997984D01*
X2505896Y-997984D02*
X2486848Y-997984D01*
X2486848Y-997984D02*
X2467801Y-988460D01*
X2467801Y-988460D02*
X2458277Y-978936D01*
X2458277Y-978936D02*
X2448753Y-959888D01*
X2448753Y-959888D02*
X2439229Y-921793D01*
X2439229Y-921793D02*
X2439229Y-874174D01*
X2439229Y-874174D02*
X2448753Y-836079D01*
X2448753Y-836079D02*
X2458277Y-817031D01*
X2458277Y-817031D02*
X2467801Y-807508D01*
X2467801Y-807508D02*
X2486848Y-797984D01*
X2677325Y-797984D02*
X2696372Y-797984D01*
X2696372Y-797984D02*
X2715420Y-807508D01*
X2715420Y-807508D02*
X2724944Y-817031D01*
X2724944Y-817031D02*
X2734468Y-836079D01*
X2734468Y-836079D02*
X2743991Y-874174D01*
X2743991Y-874174D02*
X2743991Y-921793D01*
X2743991Y-921793D02*
X2734468Y-959888D01*
X2734468Y-959888D02*
X2724944Y-978936D01*
X2724944Y-978936D02*
X2715420Y-988460D01*
X2715420Y-988460D02*
X2696372Y-997984D01*
X2696372Y-997984D02*
X2677325Y-997984D01*
X2677325Y-997984D02*
X2658277Y-988460D01*
X2658277Y-988460D02*
X2648753Y-978936D01*
X2648753Y-978936D02*
X2639229Y-959888D01*
X2639229Y-959888D02*
X2629706Y-921793D01*
X2629706Y-921793D02*
X2629706Y-874174D01*
X2629706Y-874174D02*
X2639229Y-836079D01*
X2639229Y-836079D02*
X2648753Y-817031D01*
X2648753Y-817031D02*
X2658277Y-807508D01*
X2658277Y-807508D02*
X2677325Y-797984D01*
X2810658Y-797984D02*
X2943991Y-797984D01*
X2943991Y-797984D02*
X2858277Y-997984D01*
X3029706Y-997984D02*
X3067801Y-997984D01*
X3067801Y-997984D02*
X3086848Y-988460D01*
X3086848Y-988460D02*
X3096372Y-978936D01*
X3096372Y-978936D02*
X3115420Y-950365D01*
X3115420Y-950365D02*
X3124944Y-912269D01*
X3124944Y-912269D02*
X3124944Y-836079D01*
X3124944Y-836079D02*
X3115420Y-817031D01*
X3115420Y-817031D02*
X3105896Y-807508D01*
X3105896Y-807508D02*
X3086848Y-797984D01*
X3086848Y-797984D02*
X3048753Y-797984D01*
X3048753Y-797984D02*
X3029706Y-807508D01*
X3029706Y-807508D02*
X3020182Y-817031D01*
X3020182Y-817031D02*
X3010658Y-836079D01*
X3010658Y-836079D02*
X3010658Y-883698D01*
X3010658Y-883698D02*
X3020182Y-902746D01*
X3020182Y-902746D02*
X3029706Y-912269D01*
X3029706Y-912269D02*
X3048753Y-921793D01*
X3048753Y-921793D02*
X3086848Y-921793D01*
X3086848Y-921793D02*
X3105896Y-912269D01*
X3105896Y-912269D02*
X3115420Y-902746D01*
X3115420Y-902746D02*
X3124944Y-883698D01*
X3201134Y-797984D02*
X3201134Y-836079D01*
X3277325Y-797984D02*
X3277325Y-836079D01*
X3572563Y-1074174D02*
X3563039Y-1064650D01*
X3563039Y-1064650D02*
X3543991Y-1036079D01*
X3543991Y-1036079D02*
X3534468Y-1017031D01*
X3534468Y-1017031D02*
X3524944Y-988460D01*
X3524944Y-988460D02*
X3515420Y-940841D01*
X3515420Y-940841D02*
X3515420Y-902746D01*
X3515420Y-902746D02*
X3524944Y-855127D01*
X3524944Y-855127D02*
X3534468Y-826555D01*
X3534468Y-826555D02*
X3543991Y-807508D01*
X3543991Y-807508D02*
X3563039Y-778936D01*
X3563039Y-778936D02*
X3572563Y-769412D01*
X3743991Y-797984D02*
X3648753Y-797984D01*
X3648753Y-797984D02*
X3639229Y-893222D01*
X3639229Y-893222D02*
X3648753Y-883698D01*
X3648753Y-883698D02*
X3667801Y-874174D01*
X3667801Y-874174D02*
X3715420Y-874174D01*
X3715420Y-874174D02*
X3734468Y-883698D01*
X3734468Y-883698D02*
X3743991Y-893222D01*
X3743991Y-893222D02*
X3753515Y-912269D01*
X3753515Y-912269D02*
X3753515Y-959888D01*
X3753515Y-959888D02*
X3743991Y-978936D01*
X3743991Y-978936D02*
X3734468Y-988460D01*
X3734468Y-988460D02*
X3715420Y-997984D01*
X3715420Y-997984D02*
X3667801Y-997984D01*
X3667801Y-997984D02*
X3648753Y-988460D01*
X3648753Y-988460D02*
X3639229Y-978936D01*
X3820182Y-797984D02*
X3943991Y-797984D01*
X3943991Y-797984D02*
X3877325Y-874174D01*
X3877325Y-874174D02*
X3905896Y-874174D01*
X3905896Y-874174D02*
X3924944Y-883698D01*
X3924944Y-883698D02*
X3934468Y-893222D01*
X3934468Y-893222D02*
X3943991Y-912269D01*
X3943991Y-912269D02*
X3943991Y-959888D01*
X3943991Y-959888D02*
X3934468Y-978936D01*
X3934468Y-978936D02*
X3924944Y-988460D01*
X3924944Y-988460D02*
X3905896Y-997984D01*
X3905896Y-997984D02*
X3848753Y-997984D01*
X3848753Y-997984D02*
X3829706Y-988460D01*
X3829706Y-988460D02*
X3820182Y-978936D01*
X4182087Y-997984D02*
X4182087Y-797984D01*
X4267801Y-997984D02*
X4267801Y-893222D01*
X4267801Y-893222D02*
X4258277Y-874174D01*
X4258277Y-874174D02*
X4239230Y-864650D01*
X4239230Y-864650D02*
X4210658Y-864650D01*
X4210658Y-864650D02*
X4191610Y-874174D01*
X4191610Y-874174D02*
X4182087Y-883698D01*
X4391611Y-997984D02*
X4372563Y-988460D01*
X4372563Y-988460D02*
X4363039Y-978936D01*
X4363039Y-978936D02*
X4353515Y-959888D01*
X4353515Y-959888D02*
X4353515Y-902746D01*
X4353515Y-902746D02*
X4363039Y-883698D01*
X4363039Y-883698D02*
X4372563Y-874174D01*
X4372563Y-874174D02*
X4391611Y-864650D01*
X4391611Y-864650D02*
X4420182Y-864650D01*
X4420182Y-864650D02*
X4439230Y-874174D01*
X4439230Y-874174D02*
X4448753Y-883698D01*
X4448753Y-883698D02*
X4458277Y-902746D01*
X4458277Y-902746D02*
X4458277Y-959888D01*
X4458277Y-959888D02*
X4448753Y-978936D01*
X4448753Y-978936D02*
X4439230Y-988460D01*
X4439230Y-988460D02*
X4420182Y-997984D01*
X4420182Y-997984D02*
X4391611Y-997984D01*
X4572563Y-997984D02*
X4553515Y-988460D01*
X4553515Y-988460D02*
X4543992Y-969412D01*
X4543992Y-969412D02*
X4543992Y-797984D01*
X4724944Y-988460D02*
X4705896Y-997984D01*
X4705896Y-997984D02*
X4667801Y-997984D01*
X4667801Y-997984D02*
X4648753Y-988460D01*
X4648753Y-988460D02*
X4639230Y-969412D01*
X4639230Y-969412D02*
X4639230Y-893222D01*
X4639230Y-893222D02*
X4648753Y-874174D01*
X4648753Y-874174D02*
X4667801Y-864650D01*
X4667801Y-864650D02*
X4705896Y-864650D01*
X4705896Y-864650D02*
X4724944Y-874174D01*
X4724944Y-874174D02*
X4734468Y-893222D01*
X4734468Y-893222D02*
X4734468Y-912269D01*
X4734468Y-912269D02*
X4639230Y-931317D01*
X4810658Y-988460D02*
X4829706Y-997984D01*
X4829706Y-997984D02*
X4867801Y-997984D01*
X4867801Y-997984D02*
X4886849Y-988460D01*
X4886849Y-988460D02*
X4896373Y-969412D01*
X4896373Y-969412D02*
X4896373Y-959888D01*
X4896373Y-959888D02*
X4886849Y-940841D01*
X4886849Y-940841D02*
X4867801Y-931317D01*
X4867801Y-931317D02*
X4839230Y-931317D01*
X4839230Y-931317D02*
X4820182Y-921793D01*
X4820182Y-921793D02*
X4810658Y-902746D01*
X4810658Y-902746D02*
X4810658Y-893222D01*
X4810658Y-893222D02*
X4820182Y-874174D01*
X4820182Y-874174D02*
X4839230Y-864650D01*
X4839230Y-864650D02*
X4867801Y-864650D01*
X4867801Y-864650D02*
X4886849Y-874174D01*
X4963039Y-1074174D02*
X4972563Y-1064650D01*
X4972563Y-1064650D02*
X4991611Y-1036079D01*
X4991611Y-1036079D02*
X5001134Y-1017031D01*
X5001134Y-1017031D02*
X5010658Y-988460D01*
X5010658Y-988460D02*
X5020182Y-940841D01*
X5020182Y-940841D02*
X5020182Y-902746D01*
X5020182Y-902746D02*
X5010658Y-855127D01*
X5010658Y-855127D02*
X5001134Y-826555D01*
X5001134Y-826555D02*
X4991611Y-807508D01*
X4991611Y-807508D02*
X4972563Y-778936D01*
X4972563Y-778936D02*
X4963039Y-769412D01*
D12*
X-15000Y-1158000D02*
X-15000Y-1183000D01*
X-27500Y-1170500D02*
X-2500Y-1170500D01*
D11*
X296372Y-1061984D02*
X315420Y-1061984D01*
X315420Y-1061984D02*
X334467Y-1071508D01*
X334467Y-1071508D02*
X343991Y-1081031D01*
X343991Y-1081031D02*
X353515Y-1100079D01*
X353515Y-1100079D02*
X363039Y-1138174D01*
X363039Y-1138174D02*
X363039Y-1185793D01*
X363039Y-1185793D02*
X353515Y-1223889D01*
X353515Y-1223889D02*
X343991Y-1242936D01*
X343991Y-1242936D02*
X334467Y-1252460D01*
X334467Y-1252460D02*
X315420Y-1261984D01*
X315420Y-1261984D02*
X296372Y-1261984D01*
X296372Y-1261984D02*
X277324Y-1252460D01*
X277324Y-1252460D02*
X267801Y-1242936D01*
X267801Y-1242936D02*
X258277Y-1223889D01*
X258277Y-1223889D02*
X248753Y-1185793D01*
X248753Y-1185793D02*
X248753Y-1138174D01*
X248753Y-1138174D02*
X258277Y-1100079D01*
X258277Y-1100079D02*
X267801Y-1081031D01*
X267801Y-1081031D02*
X277324Y-1071508D01*
X277324Y-1071508D02*
X296372Y-1061984D01*
X448753Y-1242936D02*
X458277Y-1252460D01*
X458277Y-1252460D02*
X448753Y-1261984D01*
X448753Y-1261984D02*
X439229Y-1252460D01*
X439229Y-1252460D02*
X448753Y-1242936D01*
X448753Y-1242936D02*
X448753Y-1261984D01*
X534467Y-1081031D02*
X543991Y-1071508D01*
X543991Y-1071508D02*
X563039Y-1061984D01*
X563039Y-1061984D02*
X610658Y-1061984D01*
X610658Y-1061984D02*
X629705Y-1071508D01*
X629705Y-1071508D02*
X639229Y-1081031D01*
X639229Y-1081031D02*
X648753Y-1100079D01*
X648753Y-1100079D02*
X648753Y-1119127D01*
X648753Y-1119127D02*
X639229Y-1147698D01*
X639229Y-1147698D02*
X524944Y-1261984D01*
X524944Y-1261984D02*
X648753Y-1261984D01*
X829705Y-1061984D02*
X734467Y-1061984D01*
X734467Y-1061984D02*
X724943Y-1157222D01*
X724943Y-1157222D02*
X734467Y-1147698D01*
X734467Y-1147698D02*
X753515Y-1138174D01*
X753515Y-1138174D02*
X801134Y-1138174D01*
X801134Y-1138174D02*
X820182Y-1147698D01*
X820182Y-1147698D02*
X829705Y-1157222D01*
X829705Y-1157222D02*
X839229Y-1176270D01*
X839229Y-1176270D02*
X839229Y-1223889D01*
X839229Y-1223889D02*
X829705Y-1242936D01*
X829705Y-1242936D02*
X820182Y-1252460D01*
X820182Y-1252460D02*
X801134Y-1261984D01*
X801134Y-1261984D02*
X753515Y-1261984D01*
X753515Y-1261984D02*
X734467Y-1252460D01*
X734467Y-1252460D02*
X724943Y-1242936D01*
X963039Y-1061984D02*
X982086Y-1061984D01*
X982086Y-1061984D02*
X1001134Y-1071508D01*
X1001134Y-1071508D02*
X1010658Y-1081031D01*
X1010658Y-1081031D02*
X1020182Y-1100079D01*
X1020182Y-1100079D02*
X1029705Y-1138174D01*
X1029705Y-1138174D02*
X1029705Y-1185793D01*
X1029705Y-1185793D02*
X1020182Y-1223889D01*
X1020182Y-1223889D02*
X1010658Y-1242936D01*
X1010658Y-1242936D02*
X1001134Y-1252460D01*
X1001134Y-1252460D02*
X982086Y-1261984D01*
X982086Y-1261984D02*
X963039Y-1261984D01*
X963039Y-1261984D02*
X943991Y-1252460D01*
X943991Y-1252460D02*
X934467Y-1242936D01*
X934467Y-1242936D02*
X924943Y-1223889D01*
X924943Y-1223889D02*
X915420Y-1185793D01*
X915420Y-1185793D02*
X915420Y-1138174D01*
X915420Y-1138174D02*
X924943Y-1100079D01*
X924943Y-1100079D02*
X934467Y-1081031D01*
X934467Y-1081031D02*
X943991Y-1071508D01*
X943991Y-1071508D02*
X963039Y-1061984D01*
X1115420Y-1261984D02*
X1115420Y-1128650D01*
X1115420Y-1147698D02*
X1124944Y-1138174D01*
X1124944Y-1138174D02*
X1143991Y-1128650D01*
X1143991Y-1128650D02*
X1172563Y-1128650D01*
X1172563Y-1128650D02*
X1191610Y-1138174D01*
X1191610Y-1138174D02*
X1201134Y-1157222D01*
X1201134Y-1157222D02*
X1201134Y-1261984D01*
X1201134Y-1157222D02*
X1210658Y-1138174D01*
X1210658Y-1138174D02*
X1229705Y-1128650D01*
X1229705Y-1128650D02*
X1258277Y-1128650D01*
X1258277Y-1128650D02*
X1277325Y-1138174D01*
X1277325Y-1138174D02*
X1286848Y-1157222D01*
X1286848Y-1157222D02*
X1286848Y-1261984D01*
X1382086Y-1261984D02*
X1382086Y-1128650D01*
X1382086Y-1147698D02*
X1391610Y-1138174D01*
X1391610Y-1138174D02*
X1410658Y-1128650D01*
X1410658Y-1128650D02*
X1439229Y-1128650D01*
X1439229Y-1128650D02*
X1458277Y-1138174D01*
X1458277Y-1138174D02*
X1467801Y-1157222D01*
X1467801Y-1157222D02*
X1467801Y-1261984D01*
X1467801Y-1157222D02*
X1477324Y-1138174D01*
X1477324Y-1138174D02*
X1496372Y-1128650D01*
X1496372Y-1128650D02*
X1524943Y-1128650D01*
X1524943Y-1128650D02*
X1543991Y-1138174D01*
X1543991Y-1138174D02*
X1553515Y-1157222D01*
X1553515Y-1157222D02*
X1553515Y-1261984D01*
X1943991Y-1052460D02*
X1772563Y-1309603D01*
X2201134Y-1061984D02*
X2220182Y-1061984D01*
X2220182Y-1061984D02*
X2239229Y-1071508D01*
X2239229Y-1071508D02*
X2248753Y-1081031D01*
X2248753Y-1081031D02*
X2258277Y-1100079D01*
X2258277Y-1100079D02*
X2267801Y-1138174D01*
X2267801Y-1138174D02*
X2267801Y-1185793D01*
X2267801Y-1185793D02*
X2258277Y-1223889D01*
X2258277Y-1223889D02*
X2248753Y-1242936D01*
X2248753Y-1242936D02*
X2239229Y-1252460D01*
X2239229Y-1252460D02*
X2220182Y-1261984D01*
X2220182Y-1261984D02*
X2201134Y-1261984D01*
X2201134Y-1261984D02*
X2182087Y-1252460D01*
X2182087Y-1252460D02*
X2172563Y-1242936D01*
X2172563Y-1242936D02*
X2163039Y-1223889D01*
X2163039Y-1223889D02*
X2153515Y-1185793D01*
X2153515Y-1185793D02*
X2153515Y-1138174D01*
X2153515Y-1138174D02*
X2163039Y-1100079D01*
X2163039Y-1100079D02*
X2172563Y-1081031D01*
X2172563Y-1081031D02*
X2182087Y-1071508D01*
X2182087Y-1071508D02*
X2201134Y-1061984D01*
X2353515Y-1242936D02*
X2363039Y-1252460D01*
X2363039Y-1252460D02*
X2353515Y-1261984D01*
X2353515Y-1261984D02*
X2343991Y-1252460D01*
X2343991Y-1252460D02*
X2353515Y-1242936D01*
X2353515Y-1242936D02*
X2353515Y-1261984D01*
X2486848Y-1061984D02*
X2505896Y-1061984D01*
X2505896Y-1061984D02*
X2524944Y-1071508D01*
X2524944Y-1071508D02*
X2534468Y-1081031D01*
X2534468Y-1081031D02*
X2543991Y-1100079D01*
X2543991Y-1100079D02*
X2553515Y-1138174D01*
X2553515Y-1138174D02*
X2553515Y-1185793D01*
X2553515Y-1185793D02*
X2543991Y-1223889D01*
X2543991Y-1223889D02*
X2534468Y-1242936D01*
X2534468Y-1242936D02*
X2524944Y-1252460D01*
X2524944Y-1252460D02*
X2505896Y-1261984D01*
X2505896Y-1261984D02*
X2486848Y-1261984D01*
X2486848Y-1261984D02*
X2467801Y-1252460D01*
X2467801Y-1252460D02*
X2458277Y-1242936D01*
X2458277Y-1242936D02*
X2448753Y-1223889D01*
X2448753Y-1223889D02*
X2439229Y-1185793D01*
X2439229Y-1185793D02*
X2439229Y-1138174D01*
X2439229Y-1138174D02*
X2448753Y-1100079D01*
X2448753Y-1100079D02*
X2458277Y-1081031D01*
X2458277Y-1081031D02*
X2467801Y-1071508D01*
X2467801Y-1071508D02*
X2486848Y-1061984D01*
X2677325Y-1061984D02*
X2696372Y-1061984D01*
X2696372Y-1061984D02*
X2715420Y-1071508D01*
X2715420Y-1071508D02*
X2724944Y-1081031D01*
X2724944Y-1081031D02*
X2734468Y-1100079D01*
X2734468Y-1100079D02*
X2743991Y-1138174D01*
X2743991Y-1138174D02*
X2743991Y-1185793D01*
X2743991Y-1185793D02*
X2734468Y-1223889D01*
X2734468Y-1223889D02*
X2724944Y-1242936D01*
X2724944Y-1242936D02*
X2715420Y-1252460D01*
X2715420Y-1252460D02*
X2696372Y-1261984D01*
X2696372Y-1261984D02*
X2677325Y-1261984D01*
X2677325Y-1261984D02*
X2658277Y-1252460D01*
X2658277Y-1252460D02*
X2648753Y-1242936D01*
X2648753Y-1242936D02*
X2639229Y-1223889D01*
X2639229Y-1223889D02*
X2629706Y-1185793D01*
X2629706Y-1185793D02*
X2629706Y-1138174D01*
X2629706Y-1138174D02*
X2639229Y-1100079D01*
X2639229Y-1100079D02*
X2648753Y-1081031D01*
X2648753Y-1081031D02*
X2658277Y-1071508D01*
X2658277Y-1071508D02*
X2677325Y-1061984D01*
X2839229Y-1261984D02*
X2877325Y-1261984D01*
X2877325Y-1261984D02*
X2896372Y-1252460D01*
X2896372Y-1252460D02*
X2905896Y-1242936D01*
X2905896Y-1242936D02*
X2924944Y-1214365D01*
X2924944Y-1214365D02*
X2934467Y-1176270D01*
X2934467Y-1176270D02*
X2934467Y-1100079D01*
X2934467Y-1100079D02*
X2924944Y-1081031D01*
X2924944Y-1081031D02*
X2915420Y-1071508D01*
X2915420Y-1071508D02*
X2896372Y-1061984D01*
X2896372Y-1061984D02*
X2858277Y-1061984D01*
X2858277Y-1061984D02*
X2839229Y-1071508D01*
X2839229Y-1071508D02*
X2829706Y-1081031D01*
X2829706Y-1081031D02*
X2820182Y-1100079D01*
X2820182Y-1100079D02*
X2820182Y-1147698D01*
X2820182Y-1147698D02*
X2829706Y-1166746D01*
X2829706Y-1166746D02*
X2839229Y-1176270D01*
X2839229Y-1176270D02*
X2858277Y-1185793D01*
X2858277Y-1185793D02*
X2896372Y-1185793D01*
X2896372Y-1185793D02*
X2915420Y-1176270D01*
X2915420Y-1176270D02*
X2924944Y-1166746D01*
X2924944Y-1166746D02*
X2934467Y-1147698D01*
X3048753Y-1147698D02*
X3029706Y-1138174D01*
X3029706Y-1138174D02*
X3020182Y-1128650D01*
X3020182Y-1128650D02*
X3010658Y-1109603D01*
X3010658Y-1109603D02*
X3010658Y-1100079D01*
X3010658Y-1100079D02*
X3020182Y-1081031D01*
X3020182Y-1081031D02*
X3029706Y-1071508D01*
X3029706Y-1071508D02*
X3048753Y-1061984D01*
X3048753Y-1061984D02*
X3086848Y-1061984D01*
X3086848Y-1061984D02*
X3105896Y-1071508D01*
X3105896Y-1071508D02*
X3115420Y-1081031D01*
X3115420Y-1081031D02*
X3124944Y-1100079D01*
X3124944Y-1100079D02*
X3124944Y-1109603D01*
X3124944Y-1109603D02*
X3115420Y-1128650D01*
X3115420Y-1128650D02*
X3105896Y-1138174D01*
X3105896Y-1138174D02*
X3086848Y-1147698D01*
X3086848Y-1147698D02*
X3048753Y-1147698D01*
X3048753Y-1147698D02*
X3029706Y-1157222D01*
X3029706Y-1157222D02*
X3020182Y-1166746D01*
X3020182Y-1166746D02*
X3010658Y-1185793D01*
X3010658Y-1185793D02*
X3010658Y-1223889D01*
X3010658Y-1223889D02*
X3020182Y-1242936D01*
X3020182Y-1242936D02*
X3029706Y-1252460D01*
X3029706Y-1252460D02*
X3048753Y-1261984D01*
X3048753Y-1261984D02*
X3086848Y-1261984D01*
X3086848Y-1261984D02*
X3105896Y-1252460D01*
X3105896Y-1252460D02*
X3115420Y-1242936D01*
X3115420Y-1242936D02*
X3124944Y-1223889D01*
X3124944Y-1223889D02*
X3124944Y-1185793D01*
X3124944Y-1185793D02*
X3115420Y-1166746D01*
X3115420Y-1166746D02*
X3105896Y-1157222D01*
X3105896Y-1157222D02*
X3086848Y-1147698D01*
X3201134Y-1061984D02*
X3201134Y-1100079D01*
X3277325Y-1061984D02*
X3277325Y-1100079D01*
X3572563Y-1338174D02*
X3563039Y-1328650D01*
X3563039Y-1328650D02*
X3543991Y-1300079D01*
X3543991Y-1300079D02*
X3534468Y-1281031D01*
X3534468Y-1281031D02*
X3524944Y-1252460D01*
X3524944Y-1252460D02*
X3515420Y-1204841D01*
X3515420Y-1204841D02*
X3515420Y-1166746D01*
X3515420Y-1166746D02*
X3524944Y-1119127D01*
X3524944Y-1119127D02*
X3534468Y-1090555D01*
X3534468Y-1090555D02*
X3543991Y-1071508D01*
X3543991Y-1071508D02*
X3563039Y-1042936D01*
X3563039Y-1042936D02*
X3572563Y-1033412D01*
X3677325Y-1147698D02*
X3658277Y-1138174D01*
X3658277Y-1138174D02*
X3648753Y-1128650D01*
X3648753Y-1128650D02*
X3639229Y-1109603D01*
X3639229Y-1109603D02*
X3639229Y-1100079D01*
X3639229Y-1100079D02*
X3648753Y-1081031D01*
X3648753Y-1081031D02*
X3658277Y-1071508D01*
X3658277Y-1071508D02*
X3677325Y-1061984D01*
X3677325Y-1061984D02*
X3715420Y-1061984D01*
X3715420Y-1061984D02*
X3734468Y-1071508D01*
X3734468Y-1071508D02*
X3743991Y-1081031D01*
X3743991Y-1081031D02*
X3753515Y-1100079D01*
X3753515Y-1100079D02*
X3753515Y-1109603D01*
X3753515Y-1109603D02*
X3743991Y-1128650D01*
X3743991Y-1128650D02*
X3734468Y-1138174D01*
X3734468Y-1138174D02*
X3715420Y-1147698D01*
X3715420Y-1147698D02*
X3677325Y-1147698D01*
X3677325Y-1147698D02*
X3658277Y-1157222D01*
X3658277Y-1157222D02*
X3648753Y-1166746D01*
X3648753Y-1166746D02*
X3639229Y-1185793D01*
X3639229Y-1185793D02*
X3639229Y-1223889D01*
X3639229Y-1223889D02*
X3648753Y-1242936D01*
X3648753Y-1242936D02*
X3658277Y-1252460D01*
X3658277Y-1252460D02*
X3677325Y-1261984D01*
X3677325Y-1261984D02*
X3715420Y-1261984D01*
X3715420Y-1261984D02*
X3734468Y-1252460D01*
X3734468Y-1252460D02*
X3743991Y-1242936D01*
X3743991Y-1242936D02*
X3753515Y-1223889D01*
X3753515Y-1223889D02*
X3753515Y-1185793D01*
X3753515Y-1185793D02*
X3743991Y-1166746D01*
X3743991Y-1166746D02*
X3734468Y-1157222D01*
X3734468Y-1157222D02*
X3715420Y-1147698D01*
X3991610Y-1261984D02*
X3991610Y-1061984D01*
X4077325Y-1261984D02*
X4077325Y-1157222D01*
X4077325Y-1157222D02*
X4067801Y-1138174D01*
X4067801Y-1138174D02*
X4048753Y-1128650D01*
X4048753Y-1128650D02*
X4020182Y-1128650D01*
X4020182Y-1128650D02*
X4001134Y-1138174D01*
X4001134Y-1138174D02*
X3991610Y-1147698D01*
X4201134Y-1261984D02*
X4182087Y-1252460D01*
X4182087Y-1252460D02*
X4172563Y-1242936D01*
X4172563Y-1242936D02*
X4163039Y-1223889D01*
X4163039Y-1223889D02*
X4163039Y-1166746D01*
X4163039Y-1166746D02*
X4172563Y-1147698D01*
X4172563Y-1147698D02*
X4182087Y-1138174D01*
X4182087Y-1138174D02*
X4201134Y-1128650D01*
X4201134Y-1128650D02*
X4229706Y-1128650D01*
X4229706Y-1128650D02*
X4248753Y-1138174D01*
X4248753Y-1138174D02*
X4258277Y-1147698D01*
X4258277Y-1147698D02*
X4267801Y-1166746D01*
X4267801Y-1166746D02*
X4267801Y-1223889D01*
X4267801Y-1223889D02*
X4258277Y-1242936D01*
X4258277Y-1242936D02*
X4248753Y-1252460D01*
X4248753Y-1252460D02*
X4229706Y-1261984D01*
X4229706Y-1261984D02*
X4201134Y-1261984D01*
X4382087Y-1261984D02*
X4363039Y-1252460D01*
X4363039Y-1252460D02*
X4353515Y-1233412D01*
X4353515Y-1233412D02*
X4353515Y-1061984D01*
X4534468Y-1252460D02*
X4515420Y-1261984D01*
X4515420Y-1261984D02*
X4477325Y-1261984D01*
X4477325Y-1261984D02*
X4458277Y-1252460D01*
X4458277Y-1252460D02*
X4448753Y-1233412D01*
X4448753Y-1233412D02*
X4448753Y-1157222D01*
X4448753Y-1157222D02*
X4458277Y-1138174D01*
X4458277Y-1138174D02*
X4477325Y-1128650D01*
X4477325Y-1128650D02*
X4515420Y-1128650D01*
X4515420Y-1128650D02*
X4534468Y-1138174D01*
X4534468Y-1138174D02*
X4543992Y-1157222D01*
X4543992Y-1157222D02*
X4543992Y-1176270D01*
X4543992Y-1176270D02*
X4448753Y-1195317D01*
X4620182Y-1252460D02*
X4639230Y-1261984D01*
X4639230Y-1261984D02*
X4677325Y-1261984D01*
X4677325Y-1261984D02*
X4696373Y-1252460D01*
X4696373Y-1252460D02*
X4705896Y-1233412D01*
X4705896Y-1233412D02*
X4705896Y-1223889D01*
X4705896Y-1223889D02*
X4696373Y-1204841D01*
X4696373Y-1204841D02*
X4677325Y-1195317D01*
X4677325Y-1195317D02*
X4648753Y-1195317D01*
X4648753Y-1195317D02*
X4629706Y-1185793D01*
X4629706Y-1185793D02*
X4620182Y-1166746D01*
X4620182Y-1166746D02*
X4620182Y-1157222D01*
X4620182Y-1157222D02*
X4629706Y-1138174D01*
X4629706Y-1138174D02*
X4648753Y-1128650D01*
X4648753Y-1128650D02*
X4677325Y-1128650D01*
X4677325Y-1128650D02*
X4696373Y-1138174D01*
X4772563Y-1338174D02*
X4782087Y-1328650D01*
X4782087Y-1328650D02*
X4801134Y-1300079D01*
X4801134Y-1300079D02*
X4810658Y-1281031D01*
X4810658Y-1281031D02*
X4820182Y-1252460D01*
X4820182Y-1252460D02*
X4829706Y-1204841D01*
X4829706Y-1204841D02*
X4829706Y-1166746D01*
X4829706Y-1166746D02*
X4820182Y-1119127D01*
X4820182Y-1119127D02*
X4810658Y-1090555D01*
X4810658Y-1090555D02*
X4801134Y-1071508D01*
X4801134Y-1071508D02*
X4782087Y-1042936D01*
X4782087Y-1042936D02*
X4772563Y-1033412D01*
D12*
X-6220Y-1443480D02*
X-6220Y-1425520D01*
X-24180Y-1425520D01*
X-24180Y-1443480D01*
X-6220Y-1443480D01*
D11*
X296372Y-1325984D02*
X315420Y-1325984D01*
X315420Y-1325984D02*
X334467Y-1335508D01*
X334467Y-1335508D02*
X343991Y-1345031D01*
X343991Y-1345031D02*
X353515Y-1364079D01*
X353515Y-1364079D02*
X363039Y-1402174D01*
X363039Y-1402174D02*
X363039Y-1449793D01*
X363039Y-1449793D02*
X353515Y-1487888D01*
X353515Y-1487888D02*
X343991Y-1506936D01*
X343991Y-1506936D02*
X334467Y-1516460D01*
X334467Y-1516460D02*
X315420Y-1525984D01*
X315420Y-1525984D02*
X296372Y-1525984D01*
X296372Y-1525984D02*
X277324Y-1516460D01*
X277324Y-1516460D02*
X267801Y-1506936D01*
X267801Y-1506936D02*
X258277Y-1487888D01*
X258277Y-1487888D02*
X248753Y-1449793D01*
X248753Y-1449793D02*
X248753Y-1402174D01*
X248753Y-1402174D02*
X258277Y-1364079D01*
X258277Y-1364079D02*
X267801Y-1345031D01*
X267801Y-1345031D02*
X277324Y-1335508D01*
X277324Y-1335508D02*
X296372Y-1325984D01*
X448753Y-1506936D02*
X458277Y-1516460D01*
X458277Y-1516460D02*
X448753Y-1525984D01*
X448753Y-1525984D02*
X439229Y-1516460D01*
X439229Y-1516460D02*
X448753Y-1506936D01*
X448753Y-1506936D02*
X448753Y-1525984D01*
X534467Y-1345031D02*
X543991Y-1335508D01*
X543991Y-1335508D02*
X563039Y-1325984D01*
X563039Y-1325984D02*
X610658Y-1325984D01*
X610658Y-1325984D02*
X629705Y-1335508D01*
X629705Y-1335508D02*
X639229Y-1345031D01*
X639229Y-1345031D02*
X648753Y-1364079D01*
X648753Y-1364079D02*
X648753Y-1383127D01*
X648753Y-1383127D02*
X639229Y-1411698D01*
X639229Y-1411698D02*
X524944Y-1525984D01*
X524944Y-1525984D02*
X648753Y-1525984D01*
X829705Y-1325984D02*
X734467Y-1325984D01*
X734467Y-1325984D02*
X724943Y-1421222D01*
X724943Y-1421222D02*
X734467Y-1411698D01*
X734467Y-1411698D02*
X753515Y-1402174D01*
X753515Y-1402174D02*
X801134Y-1402174D01*
X801134Y-1402174D02*
X820182Y-1411698D01*
X820182Y-1411698D02*
X829705Y-1421222D01*
X829705Y-1421222D02*
X839229Y-1440269D01*
X839229Y-1440269D02*
X839229Y-1487888D01*
X839229Y-1487888D02*
X829705Y-1506936D01*
X829705Y-1506936D02*
X820182Y-1516460D01*
X820182Y-1516460D02*
X801134Y-1525984D01*
X801134Y-1525984D02*
X753515Y-1525984D01*
X753515Y-1525984D02*
X734467Y-1516460D01*
X734467Y-1516460D02*
X724943Y-1506936D01*
X1010658Y-1392650D02*
X1010658Y-1525984D01*
X963039Y-1316460D02*
X915420Y-1459317D01*
X915420Y-1459317D02*
X1039229Y-1459317D01*
X1115420Y-1525984D02*
X1115420Y-1392650D01*
X1115420Y-1411698D02*
X1124944Y-1402174D01*
X1124944Y-1402174D02*
X1143991Y-1392650D01*
X1143991Y-1392650D02*
X1172563Y-1392650D01*
X1172563Y-1392650D02*
X1191610Y-1402174D01*
X1191610Y-1402174D02*
X1201134Y-1421222D01*
X1201134Y-1421222D02*
X1201134Y-1525984D01*
X1201134Y-1421222D02*
X1210658Y-1402174D01*
X1210658Y-1402174D02*
X1229705Y-1392650D01*
X1229705Y-1392650D02*
X1258277Y-1392650D01*
X1258277Y-1392650D02*
X1277325Y-1402174D01*
X1277325Y-1402174D02*
X1286848Y-1421222D01*
X1286848Y-1421222D02*
X1286848Y-1525984D01*
X1382086Y-1525984D02*
X1382086Y-1392650D01*
X1382086Y-1411698D02*
X1391610Y-1402174D01*
X1391610Y-1402174D02*
X1410658Y-1392650D01*
X1410658Y-1392650D02*
X1439229Y-1392650D01*
X1439229Y-1392650D02*
X1458277Y-1402174D01*
X1458277Y-1402174D02*
X1467801Y-1421222D01*
X1467801Y-1421222D02*
X1467801Y-1525984D01*
X1467801Y-1421222D02*
X1477324Y-1402174D01*
X1477324Y-1402174D02*
X1496372Y-1392650D01*
X1496372Y-1392650D02*
X1524943Y-1392650D01*
X1524943Y-1392650D02*
X1543991Y-1402174D01*
X1543991Y-1402174D02*
X1553515Y-1421222D01*
X1553515Y-1421222D02*
X1553515Y-1525984D01*
X1943991Y-1316460D02*
X1772563Y-1573603D01*
X2201134Y-1325984D02*
X2220182Y-1325984D01*
X2220182Y-1325984D02*
X2239229Y-1335508D01*
X2239229Y-1335508D02*
X2248753Y-1345031D01*
X2248753Y-1345031D02*
X2258277Y-1364079D01*
X2258277Y-1364079D02*
X2267801Y-1402174D01*
X2267801Y-1402174D02*
X2267801Y-1449793D01*
X2267801Y-1449793D02*
X2258277Y-1487888D01*
X2258277Y-1487888D02*
X2248753Y-1506936D01*
X2248753Y-1506936D02*
X2239229Y-1516460D01*
X2239229Y-1516460D02*
X2220182Y-1525984D01*
X2220182Y-1525984D02*
X2201134Y-1525984D01*
X2201134Y-1525984D02*
X2182087Y-1516460D01*
X2182087Y-1516460D02*
X2172563Y-1506936D01*
X2172563Y-1506936D02*
X2163039Y-1487888D01*
X2163039Y-1487888D02*
X2153515Y-1449793D01*
X2153515Y-1449793D02*
X2153515Y-1402174D01*
X2153515Y-1402174D02*
X2163039Y-1364079D01*
X2163039Y-1364079D02*
X2172563Y-1345031D01*
X2172563Y-1345031D02*
X2182087Y-1335508D01*
X2182087Y-1335508D02*
X2201134Y-1325984D01*
X2353515Y-1506936D02*
X2363039Y-1516460D01*
X2363039Y-1516460D02*
X2353515Y-1525984D01*
X2353515Y-1525984D02*
X2343991Y-1516460D01*
X2343991Y-1516460D02*
X2353515Y-1506936D01*
X2353515Y-1506936D02*
X2353515Y-1525984D01*
X2486848Y-1325984D02*
X2505896Y-1325984D01*
X2505896Y-1325984D02*
X2524944Y-1335508D01*
X2524944Y-1335508D02*
X2534468Y-1345031D01*
X2534468Y-1345031D02*
X2543991Y-1364079D01*
X2543991Y-1364079D02*
X2553515Y-1402174D01*
X2553515Y-1402174D02*
X2553515Y-1449793D01*
X2553515Y-1449793D02*
X2543991Y-1487888D01*
X2543991Y-1487888D02*
X2534468Y-1506936D01*
X2534468Y-1506936D02*
X2524944Y-1516460D01*
X2524944Y-1516460D02*
X2505896Y-1525984D01*
X2505896Y-1525984D02*
X2486848Y-1525984D01*
X2486848Y-1525984D02*
X2467801Y-1516460D01*
X2467801Y-1516460D02*
X2458277Y-1506936D01*
X2458277Y-1506936D02*
X2448753Y-1487888D01*
X2448753Y-1487888D02*
X2439229Y-1449793D01*
X2439229Y-1449793D02*
X2439229Y-1402174D01*
X2439229Y-1402174D02*
X2448753Y-1364079D01*
X2448753Y-1364079D02*
X2458277Y-1345031D01*
X2458277Y-1345031D02*
X2467801Y-1335508D01*
X2467801Y-1335508D02*
X2486848Y-1325984D01*
X2743991Y-1525984D02*
X2629706Y-1525984D01*
X2686848Y-1525984D02*
X2686848Y-1325984D01*
X2686848Y-1325984D02*
X2667801Y-1354555D01*
X2667801Y-1354555D02*
X2648753Y-1373603D01*
X2648753Y-1373603D02*
X2629706Y-1383127D01*
X2867801Y-1325984D02*
X2886848Y-1325984D01*
X2886848Y-1325984D02*
X2905896Y-1335508D01*
X2905896Y-1335508D02*
X2915420Y-1345031D01*
X2915420Y-1345031D02*
X2924944Y-1364079D01*
X2924944Y-1364079D02*
X2934467Y-1402174D01*
X2934467Y-1402174D02*
X2934467Y-1449793D01*
X2934467Y-1449793D02*
X2924944Y-1487888D01*
X2924944Y-1487888D02*
X2915420Y-1506936D01*
X2915420Y-1506936D02*
X2905896Y-1516460D01*
X2905896Y-1516460D02*
X2886848Y-1525984D01*
X2886848Y-1525984D02*
X2867801Y-1525984D01*
X2867801Y-1525984D02*
X2848753Y-1516460D01*
X2848753Y-1516460D02*
X2839229Y-1506936D01*
X2839229Y-1506936D02*
X2829706Y-1487888D01*
X2829706Y-1487888D02*
X2820182Y-1449793D01*
X2820182Y-1449793D02*
X2820182Y-1402174D01*
X2820182Y-1402174D02*
X2829706Y-1364079D01*
X2829706Y-1364079D02*
X2839229Y-1345031D01*
X2839229Y-1345031D02*
X2848753Y-1335508D01*
X2848753Y-1335508D02*
X2867801Y-1325984D01*
X3058277Y-1325984D02*
X3077325Y-1325984D01*
X3077325Y-1325984D02*
X3096372Y-1335508D01*
X3096372Y-1335508D02*
X3105896Y-1345031D01*
X3105896Y-1345031D02*
X3115420Y-1364079D01*
X3115420Y-1364079D02*
X3124944Y-1402174D01*
X3124944Y-1402174D02*
X3124944Y-1449793D01*
X3124944Y-1449793D02*
X3115420Y-1487888D01*
X3115420Y-1487888D02*
X3105896Y-1506936D01*
X3105896Y-1506936D02*
X3096372Y-1516460D01*
X3096372Y-1516460D02*
X3077325Y-1525984D01*
X3077325Y-1525984D02*
X3058277Y-1525984D01*
X3058277Y-1525984D02*
X3039229Y-1516460D01*
X3039229Y-1516460D02*
X3029706Y-1506936D01*
X3029706Y-1506936D02*
X3020182Y-1487888D01*
X3020182Y-1487888D02*
X3010658Y-1449793D01*
X3010658Y-1449793D02*
X3010658Y-1402174D01*
X3010658Y-1402174D02*
X3020182Y-1364079D01*
X3020182Y-1364079D02*
X3029706Y-1345031D01*
X3029706Y-1345031D02*
X3039229Y-1335508D01*
X3039229Y-1335508D02*
X3058277Y-1325984D01*
X3201134Y-1325984D02*
X3201134Y-1364079D01*
X3277325Y-1325984D02*
X3277325Y-1364079D01*
X3572563Y-1602174D02*
X3563039Y-1592650D01*
X3563039Y-1592650D02*
X3543991Y-1564079D01*
X3543991Y-1564079D02*
X3534468Y-1545031D01*
X3534468Y-1545031D02*
X3524944Y-1516460D01*
X3524944Y-1516460D02*
X3515420Y-1468841D01*
X3515420Y-1468841D02*
X3515420Y-1430746D01*
X3515420Y-1430746D02*
X3524944Y-1383127D01*
X3524944Y-1383127D02*
X3534468Y-1354555D01*
X3534468Y-1354555D02*
X3543991Y-1335508D01*
X3543991Y-1335508D02*
X3563039Y-1306936D01*
X3563039Y-1306936D02*
X3572563Y-1297412D01*
X3753515Y-1525984D02*
X3639229Y-1525984D01*
X3696372Y-1525984D02*
X3696372Y-1325984D01*
X3696372Y-1325984D02*
X3677325Y-1354555D01*
X3677325Y-1354555D02*
X3658277Y-1373603D01*
X3658277Y-1373603D02*
X3639229Y-1383127D01*
X3991610Y-1525984D02*
X3991610Y-1325984D01*
X4077325Y-1525984D02*
X4077325Y-1421222D01*
X4077325Y-1421222D02*
X4067801Y-1402174D01*
X4067801Y-1402174D02*
X4048753Y-1392650D01*
X4048753Y-1392650D02*
X4020182Y-1392650D01*
X4020182Y-1392650D02*
X4001134Y-1402174D01*
X4001134Y-1402174D02*
X3991610Y-1411698D01*
X4201134Y-1525984D02*
X4182087Y-1516460D01*
X4182087Y-1516460D02*
X4172563Y-1506936D01*
X4172563Y-1506936D02*
X4163039Y-1487888D01*
X4163039Y-1487888D02*
X4163039Y-1430746D01*
X4163039Y-1430746D02*
X4172563Y-1411698D01*
X4172563Y-1411698D02*
X4182087Y-1402174D01*
X4182087Y-1402174D02*
X4201134Y-1392650D01*
X4201134Y-1392650D02*
X4229706Y-1392650D01*
X4229706Y-1392650D02*
X4248753Y-1402174D01*
X4248753Y-1402174D02*
X4258277Y-1411698D01*
X4258277Y-1411698D02*
X4267801Y-1430746D01*
X4267801Y-1430746D02*
X4267801Y-1487888D01*
X4267801Y-1487888D02*
X4258277Y-1506936D01*
X4258277Y-1506936D02*
X4248753Y-1516460D01*
X4248753Y-1516460D02*
X4229706Y-1525984D01*
X4229706Y-1525984D02*
X4201134Y-1525984D01*
X4382087Y-1525984D02*
X4363039Y-1516460D01*
X4363039Y-1516460D02*
X4353515Y-1497412D01*
X4353515Y-1497412D02*
X4353515Y-1325984D01*
X4534468Y-1516460D02*
X4515420Y-1525984D01*
X4515420Y-1525984D02*
X4477325Y-1525984D01*
X4477325Y-1525984D02*
X4458277Y-1516460D01*
X4458277Y-1516460D02*
X4448753Y-1497412D01*
X4448753Y-1497412D02*
X4448753Y-1421222D01*
X4448753Y-1421222D02*
X4458277Y-1402174D01*
X4458277Y-1402174D02*
X4477325Y-1392650D01*
X4477325Y-1392650D02*
X4515420Y-1392650D01*
X4515420Y-1392650D02*
X4534468Y-1402174D01*
X4534468Y-1402174D02*
X4543992Y-1421222D01*
X4543992Y-1421222D02*
X4543992Y-1440269D01*
X4543992Y-1440269D02*
X4448753Y-1459317D01*
X4610658Y-1602174D02*
X4620182Y-1592650D01*
X4620182Y-1592650D02*
X4639230Y-1564079D01*
X4639230Y-1564079D02*
X4648753Y-1545031D01*
X4648753Y-1545031D02*
X4658277Y-1516460D01*
X4658277Y-1516460D02*
X4667801Y-1468841D01*
X4667801Y-1468841D02*
X4667801Y-1430746D01*
X4667801Y-1430746D02*
X4658277Y-1383127D01*
X4658277Y-1383127D02*
X4648753Y-1354555D01*
X4648753Y-1354555D02*
X4639230Y-1335508D01*
X4639230Y-1335508D02*
X4620182Y-1306936D01*
X4620182Y-1306936D02*
X4610658Y-1297412D01*
D12*
X-17500Y-1713500D02*
X-2500Y-1698500D01*
X-17500Y-1683500D01*
X-32500Y-1698500D01*
X-17500Y-1713500D01*
D11*
X296372Y-1589984D02*
X315420Y-1589984D01*
X315420Y-1589984D02*
X334467Y-1599508D01*
X334467Y-1599508D02*
X343991Y-1609031D01*
X343991Y-1609031D02*
X353515Y-1628079D01*
X353515Y-1628079D02*
X363039Y-1666174D01*
X363039Y-1666174D02*
X363039Y-1713793D01*
X363039Y-1713793D02*
X353515Y-1751888D01*
X353515Y-1751888D02*
X343991Y-1770936D01*
X343991Y-1770936D02*
X334467Y-1780460D01*
X334467Y-1780460D02*
X315420Y-1789984D01*
X315420Y-1789984D02*
X296372Y-1789984D01*
X296372Y-1789984D02*
X277324Y-1780460D01*
X277324Y-1780460D02*
X267801Y-1770936D01*
X267801Y-1770936D02*
X258277Y-1751888D01*
X258277Y-1751888D02*
X248753Y-1713793D01*
X248753Y-1713793D02*
X248753Y-1666174D01*
X248753Y-1666174D02*
X258277Y-1628079D01*
X258277Y-1628079D02*
X267801Y-1609031D01*
X267801Y-1609031D02*
X277324Y-1599508D01*
X277324Y-1599508D02*
X296372Y-1589984D01*
X448753Y-1770936D02*
X458277Y-1780460D01*
X458277Y-1780460D02*
X448753Y-1789984D01*
X448753Y-1789984D02*
X439229Y-1780460D01*
X439229Y-1780460D02*
X448753Y-1770936D01*
X448753Y-1770936D02*
X448753Y-1789984D01*
X524944Y-1589984D02*
X648753Y-1589984D01*
X648753Y-1589984D02*
X582086Y-1666174D01*
X582086Y-1666174D02*
X610658Y-1666174D01*
X610658Y-1666174D02*
X629705Y-1675698D01*
X629705Y-1675698D02*
X639229Y-1685222D01*
X639229Y-1685222D02*
X648753Y-1704269D01*
X648753Y-1704269D02*
X648753Y-1751888D01*
X648753Y-1751888D02*
X639229Y-1770936D01*
X639229Y-1770936D02*
X629705Y-1780460D01*
X629705Y-1780460D02*
X610658Y-1789984D01*
X610658Y-1789984D02*
X553515Y-1789984D01*
X553515Y-1789984D02*
X534467Y-1780460D01*
X534467Y-1780460D02*
X524944Y-1770936D01*
X772562Y-1589984D02*
X791610Y-1589984D01*
X791610Y-1589984D02*
X810658Y-1599508D01*
X810658Y-1599508D02*
X820182Y-1609031D01*
X820182Y-1609031D02*
X829705Y-1628079D01*
X829705Y-1628079D02*
X839229Y-1666174D01*
X839229Y-1666174D02*
X839229Y-1713793D01*
X839229Y-1713793D02*
X829705Y-1751888D01*
X829705Y-1751888D02*
X820182Y-1770936D01*
X820182Y-1770936D02*
X810658Y-1780460D01*
X810658Y-1780460D02*
X791610Y-1789984D01*
X791610Y-1789984D02*
X772562Y-1789984D01*
X772562Y-1789984D02*
X753515Y-1780460D01*
X753515Y-1780460D02*
X743991Y-1770936D01*
X743991Y-1770936D02*
X734467Y-1751888D01*
X734467Y-1751888D02*
X724943Y-1713793D01*
X724943Y-1713793D02*
X724943Y-1666174D01*
X724943Y-1666174D02*
X734467Y-1628079D01*
X734467Y-1628079D02*
X743991Y-1609031D01*
X743991Y-1609031D02*
X753515Y-1599508D01*
X753515Y-1599508D02*
X772562Y-1589984D01*
X963039Y-1589984D02*
X982086Y-1589984D01*
X982086Y-1589984D02*
X1001134Y-1599508D01*
X1001134Y-1599508D02*
X1010658Y-1609031D01*
X1010658Y-1609031D02*
X1020182Y-1628079D01*
X1020182Y-1628079D02*
X1029705Y-1666174D01*
X1029705Y-1666174D02*
X1029705Y-1713793D01*
X1029705Y-1713793D02*
X1020182Y-1751888D01*
X1020182Y-1751888D02*
X1010658Y-1770936D01*
X1010658Y-1770936D02*
X1001134Y-1780460D01*
X1001134Y-1780460D02*
X982086Y-1789984D01*
X982086Y-1789984D02*
X963039Y-1789984D01*
X963039Y-1789984D02*
X943991Y-1780460D01*
X943991Y-1780460D02*
X934467Y-1770936D01*
X934467Y-1770936D02*
X924943Y-1751888D01*
X924943Y-1751888D02*
X915420Y-1713793D01*
X915420Y-1713793D02*
X915420Y-1666174D01*
X915420Y-1666174D02*
X924943Y-1628079D01*
X924943Y-1628079D02*
X934467Y-1609031D01*
X934467Y-1609031D02*
X943991Y-1599508D01*
X943991Y-1599508D02*
X963039Y-1589984D01*
X1115420Y-1789984D02*
X1115420Y-1656650D01*
X1115420Y-1675698D02*
X1124944Y-1666174D01*
X1124944Y-1666174D02*
X1143991Y-1656650D01*
X1143991Y-1656650D02*
X1172563Y-1656650D01*
X1172563Y-1656650D02*
X1191610Y-1666174D01*
X1191610Y-1666174D02*
X1201134Y-1685222D01*
X1201134Y-1685222D02*
X1201134Y-1789984D01*
X1201134Y-1685222D02*
X1210658Y-1666174D01*
X1210658Y-1666174D02*
X1229705Y-1656650D01*
X1229705Y-1656650D02*
X1258277Y-1656650D01*
X1258277Y-1656650D02*
X1277325Y-1666174D01*
X1277325Y-1666174D02*
X1286848Y-1685222D01*
X1286848Y-1685222D02*
X1286848Y-1789984D01*
X1382086Y-1789984D02*
X1382086Y-1656650D01*
X1382086Y-1675698D02*
X1391610Y-1666174D01*
X1391610Y-1666174D02*
X1410658Y-1656650D01*
X1410658Y-1656650D02*
X1439229Y-1656650D01*
X1439229Y-1656650D02*
X1458277Y-1666174D01*
X1458277Y-1666174D02*
X1467801Y-1685222D01*
X1467801Y-1685222D02*
X1467801Y-1789984D01*
X1467801Y-1685222D02*
X1477324Y-1666174D01*
X1477324Y-1666174D02*
X1496372Y-1656650D01*
X1496372Y-1656650D02*
X1524943Y-1656650D01*
X1524943Y-1656650D02*
X1543991Y-1666174D01*
X1543991Y-1666174D02*
X1553515Y-1685222D01*
X1553515Y-1685222D02*
X1553515Y-1789984D01*
X1943991Y-1580460D02*
X1772563Y-1837603D01*
X2201134Y-1589984D02*
X2220182Y-1589984D01*
X2220182Y-1589984D02*
X2239229Y-1599508D01*
X2239229Y-1599508D02*
X2248753Y-1609031D01*
X2248753Y-1609031D02*
X2258277Y-1628079D01*
X2258277Y-1628079D02*
X2267801Y-1666174D01*
X2267801Y-1666174D02*
X2267801Y-1713793D01*
X2267801Y-1713793D02*
X2258277Y-1751888D01*
X2258277Y-1751888D02*
X2248753Y-1770936D01*
X2248753Y-1770936D02*
X2239229Y-1780460D01*
X2239229Y-1780460D02*
X2220182Y-1789984D01*
X2220182Y-1789984D02*
X2201134Y-1789984D01*
X2201134Y-1789984D02*
X2182087Y-1780460D01*
X2182087Y-1780460D02*
X2172563Y-1770936D01*
X2172563Y-1770936D02*
X2163039Y-1751888D01*
X2163039Y-1751888D02*
X2153515Y-1713793D01*
X2153515Y-1713793D02*
X2153515Y-1666174D01*
X2153515Y-1666174D02*
X2163039Y-1628079D01*
X2163039Y-1628079D02*
X2172563Y-1609031D01*
X2172563Y-1609031D02*
X2182087Y-1599508D01*
X2182087Y-1599508D02*
X2201134Y-1589984D01*
X2353515Y-1770936D02*
X2363039Y-1780460D01*
X2363039Y-1780460D02*
X2353515Y-1789984D01*
X2353515Y-1789984D02*
X2343991Y-1780460D01*
X2343991Y-1780460D02*
X2353515Y-1770936D01*
X2353515Y-1770936D02*
X2353515Y-1789984D01*
X2486848Y-1589984D02*
X2505896Y-1589984D01*
X2505896Y-1589984D02*
X2524944Y-1599508D01*
X2524944Y-1599508D02*
X2534468Y-1609031D01*
X2534468Y-1609031D02*
X2543991Y-1628079D01*
X2543991Y-1628079D02*
X2553515Y-1666174D01*
X2553515Y-1666174D02*
X2553515Y-1713793D01*
X2553515Y-1713793D02*
X2543991Y-1751888D01*
X2543991Y-1751888D02*
X2534468Y-1770936D01*
X2534468Y-1770936D02*
X2524944Y-1780460D01*
X2524944Y-1780460D02*
X2505896Y-1789984D01*
X2505896Y-1789984D02*
X2486848Y-1789984D01*
X2486848Y-1789984D02*
X2467801Y-1780460D01*
X2467801Y-1780460D02*
X2458277Y-1770936D01*
X2458277Y-1770936D02*
X2448753Y-1751888D01*
X2448753Y-1751888D02*
X2439229Y-1713793D01*
X2439229Y-1713793D02*
X2439229Y-1666174D01*
X2439229Y-1666174D02*
X2448753Y-1628079D01*
X2448753Y-1628079D02*
X2458277Y-1609031D01*
X2458277Y-1609031D02*
X2467801Y-1599508D01*
X2467801Y-1599508D02*
X2486848Y-1589984D01*
X2743991Y-1789984D02*
X2629706Y-1789984D01*
X2686848Y-1789984D02*
X2686848Y-1589984D01*
X2686848Y-1589984D02*
X2667801Y-1618555D01*
X2667801Y-1618555D02*
X2648753Y-1637603D01*
X2648753Y-1637603D02*
X2629706Y-1647127D01*
X2934467Y-1789984D02*
X2820182Y-1789984D01*
X2877325Y-1789984D02*
X2877325Y-1589984D01*
X2877325Y-1589984D02*
X2858277Y-1618555D01*
X2858277Y-1618555D02*
X2839229Y-1637603D01*
X2839229Y-1637603D02*
X2820182Y-1647127D01*
X3048753Y-1675698D02*
X3029706Y-1666174D01*
X3029706Y-1666174D02*
X3020182Y-1656650D01*
X3020182Y-1656650D02*
X3010658Y-1637603D01*
X3010658Y-1637603D02*
X3010658Y-1628079D01*
X3010658Y-1628079D02*
X3020182Y-1609031D01*
X3020182Y-1609031D02*
X3029706Y-1599508D01*
X3029706Y-1599508D02*
X3048753Y-1589984D01*
X3048753Y-1589984D02*
X3086848Y-1589984D01*
X3086848Y-1589984D02*
X3105896Y-1599508D01*
X3105896Y-1599508D02*
X3115420Y-1609031D01*
X3115420Y-1609031D02*
X3124944Y-1628079D01*
X3124944Y-1628079D02*
X3124944Y-1637603D01*
X3124944Y-1637603D02*
X3115420Y-1656650D01*
X3115420Y-1656650D02*
X3105896Y-1666174D01*
X3105896Y-1666174D02*
X3086848Y-1675698D01*
X3086848Y-1675698D02*
X3048753Y-1675698D01*
X3048753Y-1675698D02*
X3029706Y-1685222D01*
X3029706Y-1685222D02*
X3020182Y-1694746D01*
X3020182Y-1694746D02*
X3010658Y-1713793D01*
X3010658Y-1713793D02*
X3010658Y-1751888D01*
X3010658Y-1751888D02*
X3020182Y-1770936D01*
X3020182Y-1770936D02*
X3029706Y-1780460D01*
X3029706Y-1780460D02*
X3048753Y-1789984D01*
X3048753Y-1789984D02*
X3086848Y-1789984D01*
X3086848Y-1789984D02*
X3105896Y-1780460D01*
X3105896Y-1780460D02*
X3115420Y-1770936D01*
X3115420Y-1770936D02*
X3124944Y-1751888D01*
X3124944Y-1751888D02*
X3124944Y-1713793D01*
X3124944Y-1713793D02*
X3115420Y-1694746D01*
X3115420Y-1694746D02*
X3105896Y-1685222D01*
X3105896Y-1685222D02*
X3086848Y-1675698D01*
X3201134Y-1589984D02*
X3201134Y-1628079D01*
X3277325Y-1589984D02*
X3277325Y-1628079D01*
X3572563Y-1866174D02*
X3563039Y-1856650D01*
X3563039Y-1856650D02*
X3543991Y-1828079D01*
X3543991Y-1828079D02*
X3534468Y-1809031D01*
X3534468Y-1809031D02*
X3524944Y-1780460D01*
X3524944Y-1780460D02*
X3515420Y-1732841D01*
X3515420Y-1732841D02*
X3515420Y-1694746D01*
X3515420Y-1694746D02*
X3524944Y-1647127D01*
X3524944Y-1647127D02*
X3534468Y-1618555D01*
X3534468Y-1618555D02*
X3543991Y-1599508D01*
X3543991Y-1599508D02*
X3563039Y-1570936D01*
X3563039Y-1570936D02*
X3572563Y-1561412D01*
X3734468Y-1656650D02*
X3734468Y-1789984D01*
X3686848Y-1580460D02*
X3639229Y-1723317D01*
X3639229Y-1723317D02*
X3763039Y-1723317D01*
X3820182Y-1589984D02*
X3953515Y-1589984D01*
X3953515Y-1589984D02*
X3867801Y-1789984D01*
X4182087Y-1789984D02*
X4182087Y-1589984D01*
X4267801Y-1789984D02*
X4267801Y-1685222D01*
X4267801Y-1685222D02*
X4258277Y-1666174D01*
X4258277Y-1666174D02*
X4239230Y-1656650D01*
X4239230Y-1656650D02*
X4210658Y-1656650D01*
X4210658Y-1656650D02*
X4191610Y-1666174D01*
X4191610Y-1666174D02*
X4182087Y-1675698D01*
X4391611Y-1789984D02*
X4372563Y-1780460D01*
X4372563Y-1780460D02*
X4363039Y-1770936D01*
X4363039Y-1770936D02*
X4353515Y-1751888D01*
X4353515Y-1751888D02*
X4353515Y-1694746D01*
X4353515Y-1694746D02*
X4363039Y-1675698D01*
X4363039Y-1675698D02*
X4372563Y-1666174D01*
X4372563Y-1666174D02*
X4391611Y-1656650D01*
X4391611Y-1656650D02*
X4420182Y-1656650D01*
X4420182Y-1656650D02*
X4439230Y-1666174D01*
X4439230Y-1666174D02*
X4448753Y-1675698D01*
X4448753Y-1675698D02*
X4458277Y-1694746D01*
X4458277Y-1694746D02*
X4458277Y-1751888D01*
X4458277Y-1751888D02*
X4448753Y-1770936D01*
X4448753Y-1770936D02*
X4439230Y-1780460D01*
X4439230Y-1780460D02*
X4420182Y-1789984D01*
X4420182Y-1789984D02*
X4391611Y-1789984D01*
X4572563Y-1789984D02*
X4553515Y-1780460D01*
X4553515Y-1780460D02*
X4543992Y-1761412D01*
X4543992Y-1761412D02*
X4543992Y-1589984D01*
X4724944Y-1780460D02*
X4705896Y-1789984D01*
X4705896Y-1789984D02*
X4667801Y-1789984D01*
X4667801Y-1789984D02*
X4648753Y-1780460D01*
X4648753Y-1780460D02*
X4639230Y-1761412D01*
X4639230Y-1761412D02*
X4639230Y-1685222D01*
X4639230Y-1685222D02*
X4648753Y-1666174D01*
X4648753Y-1666174D02*
X4667801Y-1656650D01*
X4667801Y-1656650D02*
X4705896Y-1656650D01*
X4705896Y-1656650D02*
X4724944Y-1666174D01*
X4724944Y-1666174D02*
X4734468Y-1685222D01*
X4734468Y-1685222D02*
X4734468Y-1704269D01*
X4734468Y-1704269D02*
X4639230Y-1723317D01*
X4810658Y-1780460D02*
X4829706Y-1789984D01*
X4829706Y-1789984D02*
X4867801Y-1789984D01*
X4867801Y-1789984D02*
X4886849Y-1780460D01*
X4886849Y-1780460D02*
X4896373Y-1761412D01*
X4896373Y-1761412D02*
X4896373Y-1751888D01*
X4896373Y-1751888D02*
X4886849Y-1732841D01*
X4886849Y-1732841D02*
X4867801Y-1723317D01*
X4867801Y-1723317D02*
X4839230Y-1723317D01*
X4839230Y-1723317D02*
X4820182Y-1713793D01*
X4820182Y-1713793D02*
X4810658Y-1694746D01*
X4810658Y-1694746D02*
X4810658Y-1685222D01*
X4810658Y-1685222D02*
X4820182Y-1666174D01*
X4820182Y-1666174D02*
X4839230Y-1656650D01*
X4839230Y-1656650D02*
X4867801Y-1656650D01*
X4867801Y-1656650D02*
X4886849Y-1666174D01*
X4963039Y-1866174D02*
X4972563Y-1856650D01*
X4972563Y-1856650D02*
X4991611Y-1828079D01*
X4991611Y-1828079D02*
X5001134Y-1809031D01*
X5001134Y-1809031D02*
X5010658Y-1780460D01*
X5010658Y-1780460D02*
X5020182Y-1732841D01*
X5020182Y-1732841D02*
X5020182Y-1694746D01*
X5020182Y-1694746D02*
X5010658Y-1647127D01*
X5010658Y-1647127D02*
X5001134Y-1618555D01*
X5001134Y-1618555D02*
X4991611Y-1599508D01*
X4991611Y-1599508D02*
X4972563Y-1570936D01*
X4972563Y-1570936D02*
X4963039Y-1561412D01*
D12*
X-52500Y-1937500D02*
X-2500Y-1987500D01*
X-2500Y-1937500D02*
X-52500Y-1987500D01*
X-2500Y-1962500D02*
G75*
G02*
X-52500Y-1962500I-25000J0D01*
G01*
X-52500Y-1962500D02*
G75*
G02*
X-2500Y-1962500I25000J0D01*
G01*
D11*
X296372Y-1853984D02*
X315420Y-1853984D01*
X315420Y-1853984D02*
X334467Y-1863508D01*
X334467Y-1863508D02*
X343991Y-1873031D01*
X343991Y-1873031D02*
X353515Y-1892079D01*
X353515Y-1892079D02*
X363039Y-1930174D01*
X363039Y-1930174D02*
X363039Y-1977793D01*
X363039Y-1977793D02*
X353515Y-2015888D01*
X353515Y-2015888D02*
X343991Y-2034936D01*
X343991Y-2034936D02*
X334467Y-2044460D01*
X334467Y-2044460D02*
X315420Y-2053984D01*
X315420Y-2053984D02*
X296372Y-2053984D01*
X296372Y-2053984D02*
X277324Y-2044460D01*
X277324Y-2044460D02*
X267801Y-2034936D01*
X267801Y-2034936D02*
X258277Y-2015888D01*
X258277Y-2015888D02*
X248753Y-1977793D01*
X248753Y-1977793D02*
X248753Y-1930174D01*
X248753Y-1930174D02*
X258277Y-1892079D01*
X258277Y-1892079D02*
X267801Y-1873031D01*
X267801Y-1873031D02*
X277324Y-1863508D01*
X277324Y-1863508D02*
X296372Y-1853984D01*
X448753Y-2034936D02*
X458277Y-2044460D01*
X458277Y-2044460D02*
X448753Y-2053984D01*
X448753Y-2053984D02*
X439229Y-2044460D01*
X439229Y-2044460D02*
X448753Y-2034936D01*
X448753Y-2034936D02*
X448753Y-2053984D01*
X639229Y-1853984D02*
X543991Y-1853984D01*
X543991Y-1853984D02*
X534467Y-1949222D01*
X534467Y-1949222D02*
X543991Y-1939698D01*
X543991Y-1939698D02*
X563039Y-1930174D01*
X563039Y-1930174D02*
X610658Y-1930174D01*
X610658Y-1930174D02*
X629705Y-1939698D01*
X629705Y-1939698D02*
X639229Y-1949222D01*
X639229Y-1949222D02*
X648753Y-1968269D01*
X648753Y-1968269D02*
X648753Y-2015888D01*
X648753Y-2015888D02*
X639229Y-2034936D01*
X639229Y-2034936D02*
X629705Y-2044460D01*
X629705Y-2044460D02*
X610658Y-2053984D01*
X610658Y-2053984D02*
X563039Y-2053984D01*
X563039Y-2053984D02*
X543991Y-2044460D01*
X543991Y-2044460D02*
X534467Y-2034936D01*
X772562Y-1853984D02*
X791610Y-1853984D01*
X791610Y-1853984D02*
X810658Y-1863508D01*
X810658Y-1863508D02*
X820182Y-1873031D01*
X820182Y-1873031D02*
X829705Y-1892079D01*
X829705Y-1892079D02*
X839229Y-1930174D01*
X839229Y-1930174D02*
X839229Y-1977793D01*
X839229Y-1977793D02*
X829705Y-2015888D01*
X829705Y-2015888D02*
X820182Y-2034936D01*
X820182Y-2034936D02*
X810658Y-2044460D01*
X810658Y-2044460D02*
X791610Y-2053984D01*
X791610Y-2053984D02*
X772562Y-2053984D01*
X772562Y-2053984D02*
X753515Y-2044460D01*
X753515Y-2044460D02*
X743991Y-2034936D01*
X743991Y-2034936D02*
X734467Y-2015888D01*
X734467Y-2015888D02*
X724943Y-1977793D01*
X724943Y-1977793D02*
X724943Y-1930174D01*
X724943Y-1930174D02*
X734467Y-1892079D01*
X734467Y-1892079D02*
X743991Y-1873031D01*
X743991Y-1873031D02*
X753515Y-1863508D01*
X753515Y-1863508D02*
X772562Y-1853984D01*
X963039Y-1853984D02*
X982086Y-1853984D01*
X982086Y-1853984D02*
X1001134Y-1863508D01*
X1001134Y-1863508D02*
X1010658Y-1873031D01*
X1010658Y-1873031D02*
X1020182Y-1892079D01*
X1020182Y-1892079D02*
X1029705Y-1930174D01*
X1029705Y-1930174D02*
X1029705Y-1977793D01*
X1029705Y-1977793D02*
X1020182Y-2015888D01*
X1020182Y-2015888D02*
X1010658Y-2034936D01*
X1010658Y-2034936D02*
X1001134Y-2044460D01*
X1001134Y-2044460D02*
X982086Y-2053984D01*
X982086Y-2053984D02*
X963039Y-2053984D01*
X963039Y-2053984D02*
X943991Y-2044460D01*
X943991Y-2044460D02*
X934467Y-2034936D01*
X934467Y-2034936D02*
X924943Y-2015888D01*
X924943Y-2015888D02*
X915420Y-1977793D01*
X915420Y-1977793D02*
X915420Y-1930174D01*
X915420Y-1930174D02*
X924943Y-1892079D01*
X924943Y-1892079D02*
X934467Y-1873031D01*
X934467Y-1873031D02*
X943991Y-1863508D01*
X943991Y-1863508D02*
X963039Y-1853984D01*
X1115420Y-2053984D02*
X1115420Y-1920650D01*
X1115420Y-1939698D02*
X1124944Y-1930174D01*
X1124944Y-1930174D02*
X1143991Y-1920650D01*
X1143991Y-1920650D02*
X1172563Y-1920650D01*
X1172563Y-1920650D02*
X1191610Y-1930174D01*
X1191610Y-1930174D02*
X1201134Y-1949222D01*
X1201134Y-1949222D02*
X1201134Y-2053984D01*
X1201134Y-1949222D02*
X1210658Y-1930174D01*
X1210658Y-1930174D02*
X1229705Y-1920650D01*
X1229705Y-1920650D02*
X1258277Y-1920650D01*
X1258277Y-1920650D02*
X1277325Y-1930174D01*
X1277325Y-1930174D02*
X1286848Y-1949222D01*
X1286848Y-1949222D02*
X1286848Y-2053984D01*
X1382086Y-2053984D02*
X1382086Y-1920650D01*
X1382086Y-1939698D02*
X1391610Y-1930174D01*
X1391610Y-1930174D02*
X1410658Y-1920650D01*
X1410658Y-1920650D02*
X1439229Y-1920650D01*
X1439229Y-1920650D02*
X1458277Y-1930174D01*
X1458277Y-1930174D02*
X1467801Y-1949222D01*
X1467801Y-1949222D02*
X1467801Y-2053984D01*
X1467801Y-1949222D02*
X1477324Y-1930174D01*
X1477324Y-1930174D02*
X1496372Y-1920650D01*
X1496372Y-1920650D02*
X1524943Y-1920650D01*
X1524943Y-1920650D02*
X1543991Y-1930174D01*
X1543991Y-1930174D02*
X1553515Y-1949222D01*
X1553515Y-1949222D02*
X1553515Y-2053984D01*
X1943991Y-1844460D02*
X1772563Y-2101603D01*
X2201134Y-1853984D02*
X2220182Y-1853984D01*
X2220182Y-1853984D02*
X2239229Y-1863508D01*
X2239229Y-1863508D02*
X2248753Y-1873031D01*
X2248753Y-1873031D02*
X2258277Y-1892079D01*
X2258277Y-1892079D02*
X2267801Y-1930174D01*
X2267801Y-1930174D02*
X2267801Y-1977793D01*
X2267801Y-1977793D02*
X2258277Y-2015888D01*
X2258277Y-2015888D02*
X2248753Y-2034936D01*
X2248753Y-2034936D02*
X2239229Y-2044460D01*
X2239229Y-2044460D02*
X2220182Y-2053984D01*
X2220182Y-2053984D02*
X2201134Y-2053984D01*
X2201134Y-2053984D02*
X2182087Y-2044460D01*
X2182087Y-2044460D02*
X2172563Y-2034936D01*
X2172563Y-2034936D02*
X2163039Y-2015888D01*
X2163039Y-2015888D02*
X2153515Y-1977793D01*
X2153515Y-1977793D02*
X2153515Y-1930174D01*
X2153515Y-1930174D02*
X2163039Y-1892079D01*
X2163039Y-1892079D02*
X2172563Y-1873031D01*
X2172563Y-1873031D02*
X2182087Y-1863508D01*
X2182087Y-1863508D02*
X2201134Y-1853984D01*
X2353515Y-2034936D02*
X2363039Y-2044460D01*
X2363039Y-2044460D02*
X2353515Y-2053984D01*
X2353515Y-2053984D02*
X2343991Y-2044460D01*
X2343991Y-2044460D02*
X2353515Y-2034936D01*
X2353515Y-2034936D02*
X2353515Y-2053984D01*
X2486848Y-1853984D02*
X2505896Y-1853984D01*
X2505896Y-1853984D02*
X2524944Y-1863508D01*
X2524944Y-1863508D02*
X2534468Y-1873031D01*
X2534468Y-1873031D02*
X2543991Y-1892079D01*
X2543991Y-1892079D02*
X2553515Y-1930174D01*
X2553515Y-1930174D02*
X2553515Y-1977793D01*
X2553515Y-1977793D02*
X2543991Y-2015888D01*
X2543991Y-2015888D02*
X2534468Y-2034936D01*
X2534468Y-2034936D02*
X2524944Y-2044460D01*
X2524944Y-2044460D02*
X2505896Y-2053984D01*
X2505896Y-2053984D02*
X2486848Y-2053984D01*
X2486848Y-2053984D02*
X2467801Y-2044460D01*
X2467801Y-2044460D02*
X2458277Y-2034936D01*
X2458277Y-2034936D02*
X2448753Y-2015888D01*
X2448753Y-2015888D02*
X2439229Y-1977793D01*
X2439229Y-1977793D02*
X2439229Y-1930174D01*
X2439229Y-1930174D02*
X2448753Y-1892079D01*
X2448753Y-1892079D02*
X2458277Y-1873031D01*
X2458277Y-1873031D02*
X2467801Y-1863508D01*
X2467801Y-1863508D02*
X2486848Y-1853984D01*
X2743991Y-2053984D02*
X2629706Y-2053984D01*
X2686848Y-2053984D02*
X2686848Y-1853984D01*
X2686848Y-1853984D02*
X2667801Y-1882555D01*
X2667801Y-1882555D02*
X2648753Y-1901603D01*
X2648753Y-1901603D02*
X2629706Y-1911127D01*
X2839229Y-2053984D02*
X2877325Y-2053984D01*
X2877325Y-2053984D02*
X2896372Y-2044460D01*
X2896372Y-2044460D02*
X2905896Y-2034936D01*
X2905896Y-2034936D02*
X2924944Y-2006365D01*
X2924944Y-2006365D02*
X2934467Y-1968269D01*
X2934467Y-1968269D02*
X2934467Y-1892079D01*
X2934467Y-1892079D02*
X2924944Y-1873031D01*
X2924944Y-1873031D02*
X2915420Y-1863508D01*
X2915420Y-1863508D02*
X2896372Y-1853984D01*
X2896372Y-1853984D02*
X2858277Y-1853984D01*
X2858277Y-1853984D02*
X2839229Y-1863508D01*
X2839229Y-1863508D02*
X2829706Y-1873031D01*
X2829706Y-1873031D02*
X2820182Y-1892079D01*
X2820182Y-1892079D02*
X2820182Y-1939698D01*
X2820182Y-1939698D02*
X2829706Y-1958746D01*
X2829706Y-1958746D02*
X2839229Y-1968269D01*
X2839229Y-1968269D02*
X2858277Y-1977793D01*
X2858277Y-1977793D02*
X2896372Y-1977793D01*
X2896372Y-1977793D02*
X2915420Y-1968269D01*
X2915420Y-1968269D02*
X2924944Y-1958746D01*
X2924944Y-1958746D02*
X2934467Y-1939698D01*
X3001134Y-1853984D02*
X3134467Y-1853984D01*
X3134467Y-1853984D02*
X3048753Y-2053984D01*
X3201134Y-1853984D02*
X3201134Y-1892079D01*
X3277325Y-1853984D02*
X3277325Y-1892079D01*
X3572563Y-2130174D02*
X3563039Y-2120650D01*
X3563039Y-2120650D02*
X3543991Y-2092079D01*
X3543991Y-2092079D02*
X3534468Y-2073031D01*
X3534468Y-2073031D02*
X3524944Y-2044460D01*
X3524944Y-2044460D02*
X3515420Y-1996841D01*
X3515420Y-1996841D02*
X3515420Y-1958746D01*
X3515420Y-1958746D02*
X3524944Y-1911127D01*
X3524944Y-1911127D02*
X3534468Y-1882555D01*
X3534468Y-1882555D02*
X3543991Y-1863508D01*
X3543991Y-1863508D02*
X3563039Y-1834936D01*
X3563039Y-1834936D02*
X3572563Y-1825412D01*
X3686848Y-1853984D02*
X3705896Y-1853984D01*
X3705896Y-1853984D02*
X3724944Y-1863508D01*
X3724944Y-1863508D02*
X3734468Y-1873031D01*
X3734468Y-1873031D02*
X3743991Y-1892079D01*
X3743991Y-1892079D02*
X3753515Y-1930174D01*
X3753515Y-1930174D02*
X3753515Y-1977793D01*
X3753515Y-1977793D02*
X3743991Y-2015888D01*
X3743991Y-2015888D02*
X3734468Y-2034936D01*
X3734468Y-2034936D02*
X3724944Y-2044460D01*
X3724944Y-2044460D02*
X3705896Y-2053984D01*
X3705896Y-2053984D02*
X3686848Y-2053984D01*
X3686848Y-2053984D02*
X3667801Y-2044460D01*
X3667801Y-2044460D02*
X3658277Y-2034936D01*
X3658277Y-2034936D02*
X3648753Y-2015888D01*
X3648753Y-2015888D02*
X3639229Y-1977793D01*
X3639229Y-1977793D02*
X3639229Y-1930174D01*
X3639229Y-1930174D02*
X3648753Y-1892079D01*
X3648753Y-1892079D02*
X3658277Y-1873031D01*
X3658277Y-1873031D02*
X3667801Y-1863508D01*
X3667801Y-1863508D02*
X3686848Y-1853984D01*
X3991610Y-2053984D02*
X3991610Y-1853984D01*
X4077325Y-2053984D02*
X4077325Y-1949222D01*
X4077325Y-1949222D02*
X4067801Y-1930174D01*
X4067801Y-1930174D02*
X4048753Y-1920650D01*
X4048753Y-1920650D02*
X4020182Y-1920650D01*
X4020182Y-1920650D02*
X4001134Y-1930174D01*
X4001134Y-1930174D02*
X3991610Y-1939698D01*
X4201134Y-2053984D02*
X4182087Y-2044460D01*
X4182087Y-2044460D02*
X4172563Y-2034936D01*
X4172563Y-2034936D02*
X4163039Y-2015888D01*
X4163039Y-2015888D02*
X4163039Y-1958746D01*
X4163039Y-1958746D02*
X4172563Y-1939698D01*
X4172563Y-1939698D02*
X4182087Y-1930174D01*
X4182087Y-1930174D02*
X4201134Y-1920650D01*
X4201134Y-1920650D02*
X4229706Y-1920650D01*
X4229706Y-1920650D02*
X4248753Y-1930174D01*
X4248753Y-1930174D02*
X4258277Y-1939698D01*
X4258277Y-1939698D02*
X4267801Y-1958746D01*
X4267801Y-1958746D02*
X4267801Y-2015888D01*
X4267801Y-2015888D02*
X4258277Y-2034936D01*
X4258277Y-2034936D02*
X4248753Y-2044460D01*
X4248753Y-2044460D02*
X4229706Y-2053984D01*
X4229706Y-2053984D02*
X4201134Y-2053984D01*
X4382087Y-2053984D02*
X4363039Y-2044460D01*
X4363039Y-2044460D02*
X4353515Y-2025412D01*
X4353515Y-2025412D02*
X4353515Y-1853984D01*
X4534468Y-2044460D02*
X4515420Y-2053984D01*
X4515420Y-2053984D02*
X4477325Y-2053984D01*
X4477325Y-2053984D02*
X4458277Y-2044460D01*
X4458277Y-2044460D02*
X4448753Y-2025412D01*
X4448753Y-2025412D02*
X4448753Y-1949222D01*
X4448753Y-1949222D02*
X4458277Y-1930174D01*
X4458277Y-1930174D02*
X4477325Y-1920650D01*
X4477325Y-1920650D02*
X4515420Y-1920650D01*
X4515420Y-1920650D02*
X4534468Y-1930174D01*
X4534468Y-1930174D02*
X4543992Y-1949222D01*
X4543992Y-1949222D02*
X4543992Y-1968269D01*
X4543992Y-1968269D02*
X4448753Y-1987317D01*
X4620182Y-2044460D02*
X4639230Y-2053984D01*
X4639230Y-2053984D02*
X4677325Y-2053984D01*
X4677325Y-2053984D02*
X4696373Y-2044460D01*
X4696373Y-2044460D02*
X4705896Y-2025412D01*
X4705896Y-2025412D02*
X4705896Y-2015888D01*
X4705896Y-2015888D02*
X4696373Y-1996841D01*
X4696373Y-1996841D02*
X4677325Y-1987317D01*
X4677325Y-1987317D02*
X4648753Y-1987317D01*
X4648753Y-1987317D02*
X4629706Y-1977793D01*
X4629706Y-1977793D02*
X4620182Y-1958746D01*
X4620182Y-1958746D02*
X4620182Y-1949222D01*
X4620182Y-1949222D02*
X4629706Y-1930174D01*
X4629706Y-1930174D02*
X4648753Y-1920650D01*
X4648753Y-1920650D02*
X4677325Y-1920650D01*
X4677325Y-1920650D02*
X4696373Y-1930174D01*
X4943992Y-1977793D02*
X5096373Y-1977793D01*
X5020182Y-2053984D02*
X5020182Y-1901603D01*
X5334468Y-1873031D02*
X5343992Y-1863508D01*
X5343992Y-1863508D02*
X5363039Y-1853984D01*
X5363039Y-1853984D02*
X5410658Y-1853984D01*
X5410658Y-1853984D02*
X5429706Y-1863508D01*
X5429706Y-1863508D02*
X5439230Y-1873031D01*
X5439230Y-1873031D02*
X5448754Y-1892079D01*
X5448754Y-1892079D02*
X5448754Y-1911127D01*
X5448754Y-1911127D02*
X5439230Y-1939698D01*
X5439230Y-1939698D02*
X5324944Y-2053984D01*
X5324944Y-2053984D02*
X5448754Y-2053984D01*
X5677325Y-2044460D02*
X5696373Y-2053984D01*
X5696373Y-2053984D02*
X5734468Y-2053984D01*
X5734468Y-2053984D02*
X5753515Y-2044460D01*
X5753515Y-2044460D02*
X5763039Y-2025412D01*
X5763039Y-2025412D02*
X5763039Y-2015888D01*
X5763039Y-2015888D02*
X5753515Y-1996841D01*
X5753515Y-1996841D02*
X5734468Y-1987317D01*
X5734468Y-1987317D02*
X5705896Y-1987317D01*
X5705896Y-1987317D02*
X5686849Y-1977793D01*
X5686849Y-1977793D02*
X5677325Y-1958746D01*
X5677325Y-1958746D02*
X5677325Y-1949222D01*
X5677325Y-1949222D02*
X5686849Y-1930174D01*
X5686849Y-1930174D02*
X5705896Y-1920650D01*
X5705896Y-1920650D02*
X5734468Y-1920650D01*
X5734468Y-1920650D02*
X5753515Y-1930174D01*
X5877325Y-2053984D02*
X5858277Y-2044460D01*
X5858277Y-2044460D02*
X5848754Y-2025412D01*
X5848754Y-2025412D02*
X5848754Y-1853984D01*
X5982087Y-2053984D02*
X5963039Y-2044460D01*
X5963039Y-2044460D02*
X5953515Y-2034936D01*
X5953515Y-2034936D02*
X5943992Y-2015888D01*
X5943992Y-2015888D02*
X5943992Y-1958746D01*
X5943992Y-1958746D02*
X5953515Y-1939698D01*
X5953515Y-1939698D02*
X5963039Y-1930174D01*
X5963039Y-1930174D02*
X5982087Y-1920650D01*
X5982087Y-1920650D02*
X6010658Y-1920650D01*
X6010658Y-1920650D02*
X6029706Y-1930174D01*
X6029706Y-1930174D02*
X6039230Y-1939698D01*
X6039230Y-1939698D02*
X6048754Y-1958746D01*
X6048754Y-1958746D02*
X6048754Y-2015888D01*
X6048754Y-2015888D02*
X6039230Y-2034936D01*
X6039230Y-2034936D02*
X6029706Y-2044460D01*
X6029706Y-2044460D02*
X6010658Y-2053984D01*
X6010658Y-2053984D02*
X5982087Y-2053984D01*
X6105896Y-1920650D02*
X6182087Y-1920650D01*
X6134468Y-1853984D02*
X6134468Y-2025412D01*
X6134468Y-2025412D02*
X6143992Y-2044460D01*
X6143992Y-2044460D02*
X6163039Y-2053984D01*
X6163039Y-2053984D02*
X6182087Y-2053984D01*
X6239230Y-2044460D02*
X6258277Y-2053984D01*
X6258277Y-2053984D02*
X6296373Y-2053984D01*
X6296373Y-2053984D02*
X6315420Y-2044460D01*
X6315420Y-2044460D02*
X6324944Y-2025412D01*
X6324944Y-2025412D02*
X6324944Y-2015888D01*
X6324944Y-2015888D02*
X6315420Y-1996841D01*
X6315420Y-1996841D02*
X6296373Y-1987317D01*
X6296373Y-1987317D02*
X6267801Y-1987317D01*
X6267801Y-1987317D02*
X6248754Y-1977793D01*
X6248754Y-1977793D02*
X6239230Y-1958746D01*
X6239230Y-1958746D02*
X6239230Y-1949222D01*
X6239230Y-1949222D02*
X6248754Y-1930174D01*
X6248754Y-1930174D02*
X6267801Y-1920650D01*
X6267801Y-1920650D02*
X6296373Y-1920650D01*
X6296373Y-1920650D02*
X6315420Y-1930174D01*
X6391611Y-2130174D02*
X6401135Y-2120650D01*
X6401135Y-2120650D02*
X6420182Y-2092079D01*
X6420182Y-2092079D02*
X6429706Y-2073031D01*
X6429706Y-2073031D02*
X6439230Y-2044460D01*
X6439230Y-2044460D02*
X6448754Y-1996841D01*
X6448754Y-1996841D02*
X6448754Y-1958746D01*
X6448754Y-1958746D02*
X6439230Y-1911127D01*
X6439230Y-1911127D02*
X6429706Y-1882555D01*
X6429706Y-1882555D02*
X6420182Y-1863508D01*
X6420182Y-1863508D02*
X6401135Y-1834936D01*
X6401135Y-1834936D02*
X6391611Y-1825412D01*
D12*
X-57500Y-2199000D02*
X-2500Y-2254000D01*
X-2500Y-2199000D02*
X-57500Y-2254000D01*
X-30000Y-2199000D02*
X-30000Y-2254000D01*
X-57500Y-2226500D02*
X-2500Y-2226500D01*
D11*
X296372Y-2117984D02*
X315420Y-2117984D01*
X315420Y-2117984D02*
X334467Y-2127508D01*
X334467Y-2127508D02*
X343991Y-2137031D01*
X343991Y-2137031D02*
X353515Y-2156079D01*
X353515Y-2156079D02*
X363039Y-2194174D01*
X363039Y-2194174D02*
X363039Y-2241793D01*
X363039Y-2241793D02*
X353515Y-2279889D01*
X353515Y-2279889D02*
X343991Y-2298936D01*
X343991Y-2298936D02*
X334467Y-2308460D01*
X334467Y-2308460D02*
X315420Y-2317984D01*
X315420Y-2317984D02*
X296372Y-2317984D01*
X296372Y-2317984D02*
X277324Y-2308460D01*
X277324Y-2308460D02*
X267801Y-2298936D01*
X267801Y-2298936D02*
X258277Y-2279889D01*
X258277Y-2279889D02*
X248753Y-2241793D01*
X248753Y-2241793D02*
X248753Y-2194174D01*
X248753Y-2194174D02*
X258277Y-2156079D01*
X258277Y-2156079D02*
X267801Y-2137031D01*
X267801Y-2137031D02*
X277324Y-2127508D01*
X277324Y-2127508D02*
X296372Y-2117984D01*
X448753Y-2298936D02*
X458277Y-2308460D01*
X458277Y-2308460D02*
X448753Y-2317984D01*
X448753Y-2317984D02*
X439229Y-2308460D01*
X439229Y-2308460D02*
X448753Y-2298936D01*
X448753Y-2298936D02*
X448753Y-2317984D01*
X639229Y-2117984D02*
X543991Y-2117984D01*
X543991Y-2117984D02*
X534467Y-2213222D01*
X534467Y-2213222D02*
X543991Y-2203698D01*
X543991Y-2203698D02*
X563039Y-2194174D01*
X563039Y-2194174D02*
X610658Y-2194174D01*
X610658Y-2194174D02*
X629705Y-2203698D01*
X629705Y-2203698D02*
X639229Y-2213222D01*
X639229Y-2213222D02*
X648753Y-2232270D01*
X648753Y-2232270D02*
X648753Y-2279889D01*
X648753Y-2279889D02*
X639229Y-2298936D01*
X639229Y-2298936D02*
X629705Y-2308460D01*
X629705Y-2308460D02*
X610658Y-2317984D01*
X610658Y-2317984D02*
X563039Y-2317984D01*
X563039Y-2317984D02*
X543991Y-2308460D01*
X543991Y-2308460D02*
X534467Y-2298936D01*
X829705Y-2117984D02*
X734467Y-2117984D01*
X734467Y-2117984D02*
X724943Y-2213222D01*
X724943Y-2213222D02*
X734467Y-2203698D01*
X734467Y-2203698D02*
X753515Y-2194174D01*
X753515Y-2194174D02*
X801134Y-2194174D01*
X801134Y-2194174D02*
X820182Y-2203698D01*
X820182Y-2203698D02*
X829705Y-2213222D01*
X829705Y-2213222D02*
X839229Y-2232270D01*
X839229Y-2232270D02*
X839229Y-2279889D01*
X839229Y-2279889D02*
X829705Y-2298936D01*
X829705Y-2298936D02*
X820182Y-2308460D01*
X820182Y-2308460D02*
X801134Y-2317984D01*
X801134Y-2317984D02*
X753515Y-2317984D01*
X753515Y-2317984D02*
X734467Y-2308460D01*
X734467Y-2308460D02*
X724943Y-2298936D01*
X963039Y-2117984D02*
X982086Y-2117984D01*
X982086Y-2117984D02*
X1001134Y-2127508D01*
X1001134Y-2127508D02*
X1010658Y-2137031D01*
X1010658Y-2137031D02*
X1020182Y-2156079D01*
X1020182Y-2156079D02*
X1029705Y-2194174D01*
X1029705Y-2194174D02*
X1029705Y-2241793D01*
X1029705Y-2241793D02*
X1020182Y-2279889D01*
X1020182Y-2279889D02*
X1010658Y-2298936D01*
X1010658Y-2298936D02*
X1001134Y-2308460D01*
X1001134Y-2308460D02*
X982086Y-2317984D01*
X982086Y-2317984D02*
X963039Y-2317984D01*
X963039Y-2317984D02*
X943991Y-2308460D01*
X943991Y-2308460D02*
X934467Y-2298936D01*
X934467Y-2298936D02*
X924943Y-2279889D01*
X924943Y-2279889D02*
X915420Y-2241793D01*
X915420Y-2241793D02*
X915420Y-2194174D01*
X915420Y-2194174D02*
X924943Y-2156079D01*
X924943Y-2156079D02*
X934467Y-2137031D01*
X934467Y-2137031D02*
X943991Y-2127508D01*
X943991Y-2127508D02*
X963039Y-2117984D01*
X1115420Y-2317984D02*
X1115420Y-2184650D01*
X1115420Y-2203698D02*
X1124944Y-2194174D01*
X1124944Y-2194174D02*
X1143991Y-2184650D01*
X1143991Y-2184650D02*
X1172563Y-2184650D01*
X1172563Y-2184650D02*
X1191610Y-2194174D01*
X1191610Y-2194174D02*
X1201134Y-2213222D01*
X1201134Y-2213222D02*
X1201134Y-2317984D01*
X1201134Y-2213222D02*
X1210658Y-2194174D01*
X1210658Y-2194174D02*
X1229705Y-2184650D01*
X1229705Y-2184650D02*
X1258277Y-2184650D01*
X1258277Y-2184650D02*
X1277325Y-2194174D01*
X1277325Y-2194174D02*
X1286848Y-2213222D01*
X1286848Y-2213222D02*
X1286848Y-2317984D01*
X1382086Y-2317984D02*
X1382086Y-2184650D01*
X1382086Y-2203698D02*
X1391610Y-2194174D01*
X1391610Y-2194174D02*
X1410658Y-2184650D01*
X1410658Y-2184650D02*
X1439229Y-2184650D01*
X1439229Y-2184650D02*
X1458277Y-2194174D01*
X1458277Y-2194174D02*
X1467801Y-2213222D01*
X1467801Y-2213222D02*
X1467801Y-2317984D01*
X1467801Y-2213222D02*
X1477324Y-2194174D01*
X1477324Y-2194174D02*
X1496372Y-2184650D01*
X1496372Y-2184650D02*
X1524943Y-2184650D01*
X1524943Y-2184650D02*
X1543991Y-2194174D01*
X1543991Y-2194174D02*
X1553515Y-2213222D01*
X1553515Y-2213222D02*
X1553515Y-2317984D01*
X1943991Y-2108460D02*
X1772563Y-2365603D01*
X2201134Y-2117984D02*
X2220182Y-2117984D01*
X2220182Y-2117984D02*
X2239229Y-2127508D01*
X2239229Y-2127508D02*
X2248753Y-2137031D01*
X2248753Y-2137031D02*
X2258277Y-2156079D01*
X2258277Y-2156079D02*
X2267801Y-2194174D01*
X2267801Y-2194174D02*
X2267801Y-2241793D01*
X2267801Y-2241793D02*
X2258277Y-2279889D01*
X2258277Y-2279889D02*
X2248753Y-2298936D01*
X2248753Y-2298936D02*
X2239229Y-2308460D01*
X2239229Y-2308460D02*
X2220182Y-2317984D01*
X2220182Y-2317984D02*
X2201134Y-2317984D01*
X2201134Y-2317984D02*
X2182087Y-2308460D01*
X2182087Y-2308460D02*
X2172563Y-2298936D01*
X2172563Y-2298936D02*
X2163039Y-2279889D01*
X2163039Y-2279889D02*
X2153515Y-2241793D01*
X2153515Y-2241793D02*
X2153515Y-2194174D01*
X2153515Y-2194174D02*
X2163039Y-2156079D01*
X2163039Y-2156079D02*
X2172563Y-2137031D01*
X2172563Y-2137031D02*
X2182087Y-2127508D01*
X2182087Y-2127508D02*
X2201134Y-2117984D01*
X2353515Y-2298936D02*
X2363039Y-2308460D01*
X2363039Y-2308460D02*
X2353515Y-2317984D01*
X2353515Y-2317984D02*
X2343991Y-2308460D01*
X2343991Y-2308460D02*
X2353515Y-2298936D01*
X2353515Y-2298936D02*
X2353515Y-2317984D01*
X2486848Y-2117984D02*
X2505896Y-2117984D01*
X2505896Y-2117984D02*
X2524944Y-2127508D01*
X2524944Y-2127508D02*
X2534468Y-2137031D01*
X2534468Y-2137031D02*
X2543991Y-2156079D01*
X2543991Y-2156079D02*
X2553515Y-2194174D01*
X2553515Y-2194174D02*
X2553515Y-2241793D01*
X2553515Y-2241793D02*
X2543991Y-2279889D01*
X2543991Y-2279889D02*
X2534468Y-2298936D01*
X2534468Y-2298936D02*
X2524944Y-2308460D01*
X2524944Y-2308460D02*
X2505896Y-2317984D01*
X2505896Y-2317984D02*
X2486848Y-2317984D01*
X2486848Y-2317984D02*
X2467801Y-2308460D01*
X2467801Y-2308460D02*
X2458277Y-2298936D01*
X2458277Y-2298936D02*
X2448753Y-2279889D01*
X2448753Y-2279889D02*
X2439229Y-2241793D01*
X2439229Y-2241793D02*
X2439229Y-2194174D01*
X2439229Y-2194174D02*
X2448753Y-2156079D01*
X2448753Y-2156079D02*
X2458277Y-2137031D01*
X2458277Y-2137031D02*
X2467801Y-2127508D01*
X2467801Y-2127508D02*
X2486848Y-2117984D01*
X2629706Y-2137031D02*
X2639229Y-2127508D01*
X2639229Y-2127508D02*
X2658277Y-2117984D01*
X2658277Y-2117984D02*
X2705896Y-2117984D01*
X2705896Y-2117984D02*
X2724944Y-2127508D01*
X2724944Y-2127508D02*
X2734468Y-2137031D01*
X2734468Y-2137031D02*
X2743991Y-2156079D01*
X2743991Y-2156079D02*
X2743991Y-2175127D01*
X2743991Y-2175127D02*
X2734468Y-2203698D01*
X2734468Y-2203698D02*
X2620182Y-2317984D01*
X2620182Y-2317984D02*
X2743991Y-2317984D01*
X2934467Y-2317984D02*
X2820182Y-2317984D01*
X2877325Y-2317984D02*
X2877325Y-2117984D01*
X2877325Y-2117984D02*
X2858277Y-2146555D01*
X2858277Y-2146555D02*
X2839229Y-2165603D01*
X2839229Y-2165603D02*
X2820182Y-2175127D01*
X3001134Y-2117984D02*
X3134467Y-2117984D01*
X3134467Y-2117984D02*
X3048753Y-2317984D01*
X3201134Y-2117984D02*
X3201134Y-2156079D01*
X3277325Y-2117984D02*
X3277325Y-2156079D01*
X3572563Y-2394174D02*
X3563039Y-2384650D01*
X3563039Y-2384650D02*
X3543991Y-2356079D01*
X3543991Y-2356079D02*
X3534468Y-2337031D01*
X3534468Y-2337031D02*
X3524944Y-2308460D01*
X3524944Y-2308460D02*
X3515420Y-2260841D01*
X3515420Y-2260841D02*
X3515420Y-2222746D01*
X3515420Y-2222746D02*
X3524944Y-2175127D01*
X3524944Y-2175127D02*
X3534468Y-2146555D01*
X3534468Y-2146555D02*
X3543991Y-2127508D01*
X3543991Y-2127508D02*
X3563039Y-2098936D01*
X3563039Y-2098936D02*
X3572563Y-2089412D01*
X3686848Y-2117984D02*
X3705896Y-2117984D01*
X3705896Y-2117984D02*
X3724944Y-2127508D01*
X3724944Y-2127508D02*
X3734468Y-2137031D01*
X3734468Y-2137031D02*
X3743991Y-2156079D01*
X3743991Y-2156079D02*
X3753515Y-2194174D01*
X3753515Y-2194174D02*
X3753515Y-2241793D01*
X3753515Y-2241793D02*
X3743991Y-2279889D01*
X3743991Y-2279889D02*
X3734468Y-2298936D01*
X3734468Y-2298936D02*
X3724944Y-2308460D01*
X3724944Y-2308460D02*
X3705896Y-2317984D01*
X3705896Y-2317984D02*
X3686848Y-2317984D01*
X3686848Y-2317984D02*
X3667801Y-2308460D01*
X3667801Y-2308460D02*
X3658277Y-2298936D01*
X3658277Y-2298936D02*
X3648753Y-2279889D01*
X3648753Y-2279889D02*
X3639229Y-2241793D01*
X3639229Y-2241793D02*
X3639229Y-2194174D01*
X3639229Y-2194174D02*
X3648753Y-2156079D01*
X3648753Y-2156079D02*
X3658277Y-2137031D01*
X3658277Y-2137031D02*
X3667801Y-2127508D01*
X3667801Y-2127508D02*
X3686848Y-2117984D01*
X3991610Y-2317984D02*
X3991610Y-2117984D01*
X4077325Y-2317984D02*
X4077325Y-2213222D01*
X4077325Y-2213222D02*
X4067801Y-2194174D01*
X4067801Y-2194174D02*
X4048753Y-2184650D01*
X4048753Y-2184650D02*
X4020182Y-2184650D01*
X4020182Y-2184650D02*
X4001134Y-2194174D01*
X4001134Y-2194174D02*
X3991610Y-2203698D01*
X4201134Y-2317984D02*
X4182087Y-2308460D01*
X4182087Y-2308460D02*
X4172563Y-2298936D01*
X4172563Y-2298936D02*
X4163039Y-2279889D01*
X4163039Y-2279889D02*
X4163039Y-2222746D01*
X4163039Y-2222746D02*
X4172563Y-2203698D01*
X4172563Y-2203698D02*
X4182087Y-2194174D01*
X4182087Y-2194174D02*
X4201134Y-2184650D01*
X4201134Y-2184650D02*
X4229706Y-2184650D01*
X4229706Y-2184650D02*
X4248753Y-2194174D01*
X4248753Y-2194174D02*
X4258277Y-2203698D01*
X4258277Y-2203698D02*
X4267801Y-2222746D01*
X4267801Y-2222746D02*
X4267801Y-2279889D01*
X4267801Y-2279889D02*
X4258277Y-2298936D01*
X4258277Y-2298936D02*
X4248753Y-2308460D01*
X4248753Y-2308460D02*
X4229706Y-2317984D01*
X4229706Y-2317984D02*
X4201134Y-2317984D01*
X4382087Y-2317984D02*
X4363039Y-2308460D01*
X4363039Y-2308460D02*
X4353515Y-2289412D01*
X4353515Y-2289412D02*
X4353515Y-2117984D01*
X4534468Y-2308460D02*
X4515420Y-2317984D01*
X4515420Y-2317984D02*
X4477325Y-2317984D01*
X4477325Y-2317984D02*
X4458277Y-2308460D01*
X4458277Y-2308460D02*
X4448753Y-2289412D01*
X4448753Y-2289412D02*
X4448753Y-2213222D01*
X4448753Y-2213222D02*
X4458277Y-2194174D01*
X4458277Y-2194174D02*
X4477325Y-2184650D01*
X4477325Y-2184650D02*
X4515420Y-2184650D01*
X4515420Y-2184650D02*
X4534468Y-2194174D01*
X4534468Y-2194174D02*
X4543992Y-2213222D01*
X4543992Y-2213222D02*
X4543992Y-2232270D01*
X4543992Y-2232270D02*
X4448753Y-2251317D01*
X4620182Y-2308460D02*
X4639230Y-2317984D01*
X4639230Y-2317984D02*
X4677325Y-2317984D01*
X4677325Y-2317984D02*
X4696373Y-2308460D01*
X4696373Y-2308460D02*
X4705896Y-2289412D01*
X4705896Y-2289412D02*
X4705896Y-2279889D01*
X4705896Y-2279889D02*
X4696373Y-2260841D01*
X4696373Y-2260841D02*
X4677325Y-2251317D01*
X4677325Y-2251317D02*
X4648753Y-2251317D01*
X4648753Y-2251317D02*
X4629706Y-2241793D01*
X4629706Y-2241793D02*
X4620182Y-2222746D01*
X4620182Y-2222746D02*
X4620182Y-2213222D01*
X4620182Y-2213222D02*
X4629706Y-2194174D01*
X4629706Y-2194174D02*
X4648753Y-2184650D01*
X4648753Y-2184650D02*
X4677325Y-2184650D01*
X4677325Y-2184650D02*
X4696373Y-2194174D01*
X4943992Y-2241793D02*
X5096373Y-2241793D01*
X5020182Y-2317984D02*
X5020182Y-2165603D01*
X5334468Y-2137031D02*
X5343992Y-2127508D01*
X5343992Y-2127508D02*
X5363039Y-2117984D01*
X5363039Y-2117984D02*
X5410658Y-2117984D01*
X5410658Y-2117984D02*
X5429706Y-2127508D01*
X5429706Y-2127508D02*
X5439230Y-2137031D01*
X5439230Y-2137031D02*
X5448754Y-2156079D01*
X5448754Y-2156079D02*
X5448754Y-2175127D01*
X5448754Y-2175127D02*
X5439230Y-2203698D01*
X5439230Y-2203698D02*
X5324944Y-2317984D01*
X5324944Y-2317984D02*
X5448754Y-2317984D01*
X5677325Y-2308460D02*
X5696373Y-2317984D01*
X5696373Y-2317984D02*
X5734468Y-2317984D01*
X5734468Y-2317984D02*
X5753515Y-2308460D01*
X5753515Y-2308460D02*
X5763039Y-2289412D01*
X5763039Y-2289412D02*
X5763039Y-2279889D01*
X5763039Y-2279889D02*
X5753515Y-2260841D01*
X5753515Y-2260841D02*
X5734468Y-2251317D01*
X5734468Y-2251317D02*
X5705896Y-2251317D01*
X5705896Y-2251317D02*
X5686849Y-2241793D01*
X5686849Y-2241793D02*
X5677325Y-2222746D01*
X5677325Y-2222746D02*
X5677325Y-2213222D01*
X5677325Y-2213222D02*
X5686849Y-2194174D01*
X5686849Y-2194174D02*
X5705896Y-2184650D01*
X5705896Y-2184650D02*
X5734468Y-2184650D01*
X5734468Y-2184650D02*
X5753515Y-2194174D01*
X5877325Y-2317984D02*
X5858277Y-2308460D01*
X5858277Y-2308460D02*
X5848754Y-2289412D01*
X5848754Y-2289412D02*
X5848754Y-2117984D01*
X5982087Y-2317984D02*
X5963039Y-2308460D01*
X5963039Y-2308460D02*
X5953515Y-2298936D01*
X5953515Y-2298936D02*
X5943992Y-2279889D01*
X5943992Y-2279889D02*
X5943992Y-2222746D01*
X5943992Y-2222746D02*
X5953515Y-2203698D01*
X5953515Y-2203698D02*
X5963039Y-2194174D01*
X5963039Y-2194174D02*
X5982087Y-2184650D01*
X5982087Y-2184650D02*
X6010658Y-2184650D01*
X6010658Y-2184650D02*
X6029706Y-2194174D01*
X6029706Y-2194174D02*
X6039230Y-2203698D01*
X6039230Y-2203698D02*
X6048754Y-2222746D01*
X6048754Y-2222746D02*
X6048754Y-2279889D01*
X6048754Y-2279889D02*
X6039230Y-2298936D01*
X6039230Y-2298936D02*
X6029706Y-2308460D01*
X6029706Y-2308460D02*
X6010658Y-2317984D01*
X6010658Y-2317984D02*
X5982087Y-2317984D01*
X6105896Y-2184650D02*
X6182087Y-2184650D01*
X6134468Y-2117984D02*
X6134468Y-2289412D01*
X6134468Y-2289412D02*
X6143992Y-2308460D01*
X6143992Y-2308460D02*
X6163039Y-2317984D01*
X6163039Y-2317984D02*
X6182087Y-2317984D01*
X6239230Y-2308460D02*
X6258277Y-2317984D01*
X6258277Y-2317984D02*
X6296373Y-2317984D01*
X6296373Y-2317984D02*
X6315420Y-2308460D01*
X6315420Y-2308460D02*
X6324944Y-2289412D01*
X6324944Y-2289412D02*
X6324944Y-2279889D01*
X6324944Y-2279889D02*
X6315420Y-2260841D01*
X6315420Y-2260841D02*
X6296373Y-2251317D01*
X6296373Y-2251317D02*
X6267801Y-2251317D01*
X6267801Y-2251317D02*
X6248754Y-2241793D01*
X6248754Y-2241793D02*
X6239230Y-2222746D01*
X6239230Y-2222746D02*
X6239230Y-2213222D01*
X6239230Y-2213222D02*
X6248754Y-2194174D01*
X6248754Y-2194174D02*
X6267801Y-2184650D01*
X6267801Y-2184650D02*
X6296373Y-2184650D01*
X6296373Y-2184650D02*
X6315420Y-2194174D01*
X6391611Y-2394174D02*
X6401135Y-2384650D01*
X6401135Y-2384650D02*
X6420182Y-2356079D01*
X6420182Y-2356079D02*
X6429706Y-2337031D01*
X6429706Y-2337031D02*
X6439230Y-2308460D01*
X6439230Y-2308460D02*
X6448754Y-2260841D01*
X6448754Y-2260841D02*
X6448754Y-2222746D01*
X6448754Y-2222746D02*
X6439230Y-2175127D01*
X6439230Y-2175127D02*
X6429706Y-2146555D01*
X6429706Y-2146555D02*
X6420182Y-2127508D01*
X6420182Y-2127508D02*
X6401135Y-2098936D01*
X6401135Y-2098936D02*
X6391611Y-2089412D01*
D12*
X-62500Y-2460500D02*
X-2500Y-2520500D01*
X-2500Y-2460500D02*
X-62500Y-2520500D01*
X-11287Y-2511713D02*
X-11287Y-2469287D01*
X-53713Y-2469287D01*
X-53713Y-2511713D01*
X-11287Y-2511713D01*
D11*
X296372Y-2381984D02*
X315420Y-2381984D01*
X315420Y-2381984D02*
X334467Y-2391508D01*
X334467Y-2391508D02*
X343991Y-2401031D01*
X343991Y-2401031D02*
X353515Y-2420079D01*
X353515Y-2420079D02*
X363039Y-2458174D01*
X363039Y-2458174D02*
X363039Y-2505793D01*
X363039Y-2505793D02*
X353515Y-2543889D01*
X353515Y-2543889D02*
X343991Y-2562936D01*
X343991Y-2562936D02*
X334467Y-2572460D01*
X334467Y-2572460D02*
X315420Y-2581984D01*
X315420Y-2581984D02*
X296372Y-2581984D01*
X296372Y-2581984D02*
X277324Y-2572460D01*
X277324Y-2572460D02*
X267801Y-2562936D01*
X267801Y-2562936D02*
X258277Y-2543889D01*
X258277Y-2543889D02*
X248753Y-2505793D01*
X248753Y-2505793D02*
X248753Y-2458174D01*
X248753Y-2458174D02*
X258277Y-2420079D01*
X258277Y-2420079D02*
X267801Y-2401031D01*
X267801Y-2401031D02*
X277324Y-2391508D01*
X277324Y-2391508D02*
X296372Y-2381984D01*
X448753Y-2562936D02*
X458277Y-2572460D01*
X458277Y-2572460D02*
X448753Y-2581984D01*
X448753Y-2581984D02*
X439229Y-2572460D01*
X439229Y-2572460D02*
X448753Y-2562936D01*
X448753Y-2562936D02*
X448753Y-2581984D01*
X629705Y-2381984D02*
X591610Y-2381984D01*
X591610Y-2381984D02*
X572563Y-2391508D01*
X572563Y-2391508D02*
X563039Y-2401031D01*
X563039Y-2401031D02*
X543991Y-2429603D01*
X543991Y-2429603D02*
X534467Y-2467698D01*
X534467Y-2467698D02*
X534467Y-2543889D01*
X534467Y-2543889D02*
X543991Y-2562936D01*
X543991Y-2562936D02*
X553515Y-2572460D01*
X553515Y-2572460D02*
X572563Y-2581984D01*
X572563Y-2581984D02*
X610658Y-2581984D01*
X610658Y-2581984D02*
X629705Y-2572460D01*
X629705Y-2572460D02*
X639229Y-2562936D01*
X639229Y-2562936D02*
X648753Y-2543889D01*
X648753Y-2543889D02*
X648753Y-2496270D01*
X648753Y-2496270D02*
X639229Y-2477222D01*
X639229Y-2477222D02*
X629705Y-2467698D01*
X629705Y-2467698D02*
X610658Y-2458174D01*
X610658Y-2458174D02*
X572563Y-2458174D01*
X572563Y-2458174D02*
X553515Y-2467698D01*
X553515Y-2467698D02*
X543991Y-2477222D01*
X543991Y-2477222D02*
X534467Y-2496270D01*
X772562Y-2381984D02*
X791610Y-2381984D01*
X791610Y-2381984D02*
X810658Y-2391508D01*
X810658Y-2391508D02*
X820182Y-2401031D01*
X820182Y-2401031D02*
X829705Y-2420079D01*
X829705Y-2420079D02*
X839229Y-2458174D01*
X839229Y-2458174D02*
X839229Y-2505793D01*
X839229Y-2505793D02*
X829705Y-2543889D01*
X829705Y-2543889D02*
X820182Y-2562936D01*
X820182Y-2562936D02*
X810658Y-2572460D01*
X810658Y-2572460D02*
X791610Y-2581984D01*
X791610Y-2581984D02*
X772562Y-2581984D01*
X772562Y-2581984D02*
X753515Y-2572460D01*
X753515Y-2572460D02*
X743991Y-2562936D01*
X743991Y-2562936D02*
X734467Y-2543889D01*
X734467Y-2543889D02*
X724943Y-2505793D01*
X724943Y-2505793D02*
X724943Y-2458174D01*
X724943Y-2458174D02*
X734467Y-2420079D01*
X734467Y-2420079D02*
X743991Y-2401031D01*
X743991Y-2401031D02*
X753515Y-2391508D01*
X753515Y-2391508D02*
X772562Y-2381984D01*
X963039Y-2381984D02*
X982086Y-2381984D01*
X982086Y-2381984D02*
X1001134Y-2391508D01*
X1001134Y-2391508D02*
X1010658Y-2401031D01*
X1010658Y-2401031D02*
X1020182Y-2420079D01*
X1020182Y-2420079D02*
X1029705Y-2458174D01*
X1029705Y-2458174D02*
X1029705Y-2505793D01*
X1029705Y-2505793D02*
X1020182Y-2543889D01*
X1020182Y-2543889D02*
X1010658Y-2562936D01*
X1010658Y-2562936D02*
X1001134Y-2572460D01*
X1001134Y-2572460D02*
X982086Y-2581984D01*
X982086Y-2581984D02*
X963039Y-2581984D01*
X963039Y-2581984D02*
X943991Y-2572460D01*
X943991Y-2572460D02*
X934467Y-2562936D01*
X934467Y-2562936D02*
X924943Y-2543889D01*
X924943Y-2543889D02*
X915420Y-2505793D01*
X915420Y-2505793D02*
X915420Y-2458174D01*
X915420Y-2458174D02*
X924943Y-2420079D01*
X924943Y-2420079D02*
X934467Y-2401031D01*
X934467Y-2401031D02*
X943991Y-2391508D01*
X943991Y-2391508D02*
X963039Y-2381984D01*
X1115420Y-2581984D02*
X1115420Y-2448650D01*
X1115420Y-2467698D02*
X1124944Y-2458174D01*
X1124944Y-2458174D02*
X1143991Y-2448650D01*
X1143991Y-2448650D02*
X1172563Y-2448650D01*
X1172563Y-2448650D02*
X1191610Y-2458174D01*
X1191610Y-2458174D02*
X1201134Y-2477222D01*
X1201134Y-2477222D02*
X1201134Y-2581984D01*
X1201134Y-2477222D02*
X1210658Y-2458174D01*
X1210658Y-2458174D02*
X1229705Y-2448650D01*
X1229705Y-2448650D02*
X1258277Y-2448650D01*
X1258277Y-2448650D02*
X1277325Y-2458174D01*
X1277325Y-2458174D02*
X1286848Y-2477222D01*
X1286848Y-2477222D02*
X1286848Y-2581984D01*
X1382086Y-2581984D02*
X1382086Y-2448650D01*
X1382086Y-2467698D02*
X1391610Y-2458174D01*
X1391610Y-2458174D02*
X1410658Y-2448650D01*
X1410658Y-2448650D02*
X1439229Y-2448650D01*
X1439229Y-2448650D02*
X1458277Y-2458174D01*
X1458277Y-2458174D02*
X1467801Y-2477222D01*
X1467801Y-2477222D02*
X1467801Y-2581984D01*
X1467801Y-2477222D02*
X1477324Y-2458174D01*
X1477324Y-2458174D02*
X1496372Y-2448650D01*
X1496372Y-2448650D02*
X1524943Y-2448650D01*
X1524943Y-2448650D02*
X1543991Y-2458174D01*
X1543991Y-2458174D02*
X1553515Y-2477222D01*
X1553515Y-2477222D02*
X1553515Y-2581984D01*
X1943991Y-2372460D02*
X1772563Y-2629603D01*
X2201134Y-2381984D02*
X2220182Y-2381984D01*
X2220182Y-2381984D02*
X2239229Y-2391508D01*
X2239229Y-2391508D02*
X2248753Y-2401031D01*
X2248753Y-2401031D02*
X2258277Y-2420079D01*
X2258277Y-2420079D02*
X2267801Y-2458174D01*
X2267801Y-2458174D02*
X2267801Y-2505793D01*
X2267801Y-2505793D02*
X2258277Y-2543889D01*
X2258277Y-2543889D02*
X2248753Y-2562936D01*
X2248753Y-2562936D02*
X2239229Y-2572460D01*
X2239229Y-2572460D02*
X2220182Y-2581984D01*
X2220182Y-2581984D02*
X2201134Y-2581984D01*
X2201134Y-2581984D02*
X2182087Y-2572460D01*
X2182087Y-2572460D02*
X2172563Y-2562936D01*
X2172563Y-2562936D02*
X2163039Y-2543889D01*
X2163039Y-2543889D02*
X2153515Y-2505793D01*
X2153515Y-2505793D02*
X2153515Y-2458174D01*
X2153515Y-2458174D02*
X2163039Y-2420079D01*
X2163039Y-2420079D02*
X2172563Y-2401031D01*
X2172563Y-2401031D02*
X2182087Y-2391508D01*
X2182087Y-2391508D02*
X2201134Y-2381984D01*
X2353515Y-2562936D02*
X2363039Y-2572460D01*
X2363039Y-2572460D02*
X2353515Y-2581984D01*
X2353515Y-2581984D02*
X2343991Y-2572460D01*
X2343991Y-2572460D02*
X2353515Y-2562936D01*
X2353515Y-2562936D02*
X2353515Y-2581984D01*
X2486848Y-2381984D02*
X2505896Y-2381984D01*
X2505896Y-2381984D02*
X2524944Y-2391508D01*
X2524944Y-2391508D02*
X2534468Y-2401031D01*
X2534468Y-2401031D02*
X2543991Y-2420079D01*
X2543991Y-2420079D02*
X2553515Y-2458174D01*
X2553515Y-2458174D02*
X2553515Y-2505793D01*
X2553515Y-2505793D02*
X2543991Y-2543889D01*
X2543991Y-2543889D02*
X2534468Y-2562936D01*
X2534468Y-2562936D02*
X2524944Y-2572460D01*
X2524944Y-2572460D02*
X2505896Y-2581984D01*
X2505896Y-2581984D02*
X2486848Y-2581984D01*
X2486848Y-2581984D02*
X2467801Y-2572460D01*
X2467801Y-2572460D02*
X2458277Y-2562936D01*
X2458277Y-2562936D02*
X2448753Y-2543889D01*
X2448753Y-2543889D02*
X2439229Y-2505793D01*
X2439229Y-2505793D02*
X2439229Y-2458174D01*
X2439229Y-2458174D02*
X2448753Y-2420079D01*
X2448753Y-2420079D02*
X2458277Y-2401031D01*
X2458277Y-2401031D02*
X2467801Y-2391508D01*
X2467801Y-2391508D02*
X2486848Y-2381984D01*
X2629706Y-2401031D02*
X2639229Y-2391508D01*
X2639229Y-2391508D02*
X2658277Y-2381984D01*
X2658277Y-2381984D02*
X2705896Y-2381984D01*
X2705896Y-2381984D02*
X2724944Y-2391508D01*
X2724944Y-2391508D02*
X2734468Y-2401031D01*
X2734468Y-2401031D02*
X2743991Y-2420079D01*
X2743991Y-2420079D02*
X2743991Y-2439127D01*
X2743991Y-2439127D02*
X2734468Y-2467698D01*
X2734468Y-2467698D02*
X2620182Y-2581984D01*
X2620182Y-2581984D02*
X2743991Y-2581984D01*
X2810658Y-2381984D02*
X2934467Y-2381984D01*
X2934467Y-2381984D02*
X2867801Y-2458174D01*
X2867801Y-2458174D02*
X2896372Y-2458174D01*
X2896372Y-2458174D02*
X2915420Y-2467698D01*
X2915420Y-2467698D02*
X2924944Y-2477222D01*
X2924944Y-2477222D02*
X2934467Y-2496270D01*
X2934467Y-2496270D02*
X2934467Y-2543889D01*
X2934467Y-2543889D02*
X2924944Y-2562936D01*
X2924944Y-2562936D02*
X2915420Y-2572460D01*
X2915420Y-2572460D02*
X2896372Y-2581984D01*
X2896372Y-2581984D02*
X2839229Y-2581984D01*
X2839229Y-2581984D02*
X2820182Y-2572460D01*
X2820182Y-2572460D02*
X2810658Y-2562936D01*
X3105896Y-2381984D02*
X3067801Y-2381984D01*
X3067801Y-2381984D02*
X3048753Y-2391508D01*
X3048753Y-2391508D02*
X3039229Y-2401031D01*
X3039229Y-2401031D02*
X3020182Y-2429603D01*
X3020182Y-2429603D02*
X3010658Y-2467698D01*
X3010658Y-2467698D02*
X3010658Y-2543889D01*
X3010658Y-2543889D02*
X3020182Y-2562936D01*
X3020182Y-2562936D02*
X3029706Y-2572460D01*
X3029706Y-2572460D02*
X3048753Y-2581984D01*
X3048753Y-2581984D02*
X3086848Y-2581984D01*
X3086848Y-2581984D02*
X3105896Y-2572460D01*
X3105896Y-2572460D02*
X3115420Y-2562936D01*
X3115420Y-2562936D02*
X3124944Y-2543889D01*
X3124944Y-2543889D02*
X3124944Y-2496270D01*
X3124944Y-2496270D02*
X3115420Y-2477222D01*
X3115420Y-2477222D02*
X3105896Y-2467698D01*
X3105896Y-2467698D02*
X3086848Y-2458174D01*
X3086848Y-2458174D02*
X3048753Y-2458174D01*
X3048753Y-2458174D02*
X3029706Y-2467698D01*
X3029706Y-2467698D02*
X3020182Y-2477222D01*
X3020182Y-2477222D02*
X3010658Y-2496270D01*
X3201134Y-2381984D02*
X3201134Y-2420079D01*
X3277325Y-2381984D02*
X3277325Y-2420079D01*
X3572563Y-2658174D02*
X3563039Y-2648650D01*
X3563039Y-2648650D02*
X3543991Y-2620079D01*
X3543991Y-2620079D02*
X3534468Y-2601031D01*
X3534468Y-2601031D02*
X3524944Y-2572460D01*
X3524944Y-2572460D02*
X3515420Y-2524841D01*
X3515420Y-2524841D02*
X3515420Y-2486746D01*
X3515420Y-2486746D02*
X3524944Y-2439127D01*
X3524944Y-2439127D02*
X3534468Y-2410555D01*
X3534468Y-2410555D02*
X3543991Y-2391508D01*
X3543991Y-2391508D02*
X3563039Y-2362936D01*
X3563039Y-2362936D02*
X3572563Y-2353412D01*
X3753515Y-2581984D02*
X3639229Y-2581984D01*
X3696372Y-2581984D02*
X3696372Y-2381984D01*
X3696372Y-2381984D02*
X3677325Y-2410555D01*
X3677325Y-2410555D02*
X3658277Y-2429603D01*
X3658277Y-2429603D02*
X3639229Y-2439127D01*
X3877325Y-2381984D02*
X3896372Y-2381984D01*
X3896372Y-2381984D02*
X3915420Y-2391508D01*
X3915420Y-2391508D02*
X3924944Y-2401031D01*
X3924944Y-2401031D02*
X3934468Y-2420079D01*
X3934468Y-2420079D02*
X3943991Y-2458174D01*
X3943991Y-2458174D02*
X3943991Y-2505793D01*
X3943991Y-2505793D02*
X3934468Y-2543889D01*
X3934468Y-2543889D02*
X3924944Y-2562936D01*
X3924944Y-2562936D02*
X3915420Y-2572460D01*
X3915420Y-2572460D02*
X3896372Y-2581984D01*
X3896372Y-2581984D02*
X3877325Y-2581984D01*
X3877325Y-2581984D02*
X3858277Y-2572460D01*
X3858277Y-2572460D02*
X3848753Y-2562936D01*
X3848753Y-2562936D02*
X3839229Y-2543889D01*
X3839229Y-2543889D02*
X3829706Y-2505793D01*
X3829706Y-2505793D02*
X3829706Y-2458174D01*
X3829706Y-2458174D02*
X3839229Y-2420079D01*
X3839229Y-2420079D02*
X3848753Y-2401031D01*
X3848753Y-2401031D02*
X3858277Y-2391508D01*
X3858277Y-2391508D02*
X3877325Y-2381984D01*
X4182087Y-2581984D02*
X4182087Y-2381984D01*
X4267801Y-2581984D02*
X4267801Y-2477222D01*
X4267801Y-2477222D02*
X4258277Y-2458174D01*
X4258277Y-2458174D02*
X4239230Y-2448650D01*
X4239230Y-2448650D02*
X4210658Y-2448650D01*
X4210658Y-2448650D02*
X4191610Y-2458174D01*
X4191610Y-2458174D02*
X4182087Y-2467698D01*
X4391611Y-2581984D02*
X4372563Y-2572460D01*
X4372563Y-2572460D02*
X4363039Y-2562936D01*
X4363039Y-2562936D02*
X4353515Y-2543889D01*
X4353515Y-2543889D02*
X4353515Y-2486746D01*
X4353515Y-2486746D02*
X4363039Y-2467698D01*
X4363039Y-2467698D02*
X4372563Y-2458174D01*
X4372563Y-2458174D02*
X4391611Y-2448650D01*
X4391611Y-2448650D02*
X4420182Y-2448650D01*
X4420182Y-2448650D02*
X4439230Y-2458174D01*
X4439230Y-2458174D02*
X4448753Y-2467698D01*
X4448753Y-2467698D02*
X4458277Y-2486746D01*
X4458277Y-2486746D02*
X4458277Y-2543889D01*
X4458277Y-2543889D02*
X4448753Y-2562936D01*
X4448753Y-2562936D02*
X4439230Y-2572460D01*
X4439230Y-2572460D02*
X4420182Y-2581984D01*
X4420182Y-2581984D02*
X4391611Y-2581984D01*
X4572563Y-2581984D02*
X4553515Y-2572460D01*
X4553515Y-2572460D02*
X4543992Y-2553412D01*
X4543992Y-2553412D02*
X4543992Y-2381984D01*
X4724944Y-2572460D02*
X4705896Y-2581984D01*
X4705896Y-2581984D02*
X4667801Y-2581984D01*
X4667801Y-2581984D02*
X4648753Y-2572460D01*
X4648753Y-2572460D02*
X4639230Y-2553412D01*
X4639230Y-2553412D02*
X4639230Y-2477222D01*
X4639230Y-2477222D02*
X4648753Y-2458174D01*
X4648753Y-2458174D02*
X4667801Y-2448650D01*
X4667801Y-2448650D02*
X4705896Y-2448650D01*
X4705896Y-2448650D02*
X4724944Y-2458174D01*
X4724944Y-2458174D02*
X4734468Y-2477222D01*
X4734468Y-2477222D02*
X4734468Y-2496270D01*
X4734468Y-2496270D02*
X4639230Y-2515317D01*
X4810658Y-2572460D02*
X4829706Y-2581984D01*
X4829706Y-2581984D02*
X4867801Y-2581984D01*
X4867801Y-2581984D02*
X4886849Y-2572460D01*
X4886849Y-2572460D02*
X4896373Y-2553412D01*
X4896373Y-2553412D02*
X4896373Y-2543889D01*
X4896373Y-2543889D02*
X4886849Y-2524841D01*
X4886849Y-2524841D02*
X4867801Y-2515317D01*
X4867801Y-2515317D02*
X4839230Y-2515317D01*
X4839230Y-2515317D02*
X4820182Y-2505793D01*
X4820182Y-2505793D02*
X4810658Y-2486746D01*
X4810658Y-2486746D02*
X4810658Y-2477222D01*
X4810658Y-2477222D02*
X4820182Y-2458174D01*
X4820182Y-2458174D02*
X4839230Y-2448650D01*
X4839230Y-2448650D02*
X4867801Y-2448650D01*
X4867801Y-2448650D02*
X4886849Y-2458174D01*
X4963039Y-2658174D02*
X4972563Y-2648650D01*
X4972563Y-2648650D02*
X4991611Y-2620079D01*
X4991611Y-2620079D02*
X5001134Y-2601031D01*
X5001134Y-2601031D02*
X5010658Y-2572460D01*
X5010658Y-2572460D02*
X5020182Y-2524841D01*
X5020182Y-2524841D02*
X5020182Y-2486746D01*
X5020182Y-2486746D02*
X5010658Y-2439127D01*
X5010658Y-2439127D02*
X5001134Y-2410555D01*
X5001134Y-2410555D02*
X4991611Y-2391508D01*
X4991611Y-2391508D02*
X4972563Y-2362936D01*
X4972563Y-2362936D02*
X4963039Y-2353412D01*
D12*
X-67500Y-2722000D02*
X-2500Y-2787000D01*
X-2500Y-2722000D02*
X-67500Y-2787000D01*
X-35000Y-2787000D02*
X-2500Y-2754500D01*
X-35000Y-2722000D01*
X-67500Y-2754500D01*
X-35000Y-2787000D01*
D11*
X296372Y-2645984D02*
X315420Y-2645984D01*
X315420Y-2645984D02*
X334467Y-2655508D01*
X334467Y-2655508D02*
X343991Y-2665031D01*
X343991Y-2665031D02*
X353515Y-2684079D01*
X353515Y-2684079D02*
X363039Y-2722174D01*
X363039Y-2722174D02*
X363039Y-2769793D01*
X363039Y-2769793D02*
X353515Y-2807888D01*
X353515Y-2807888D02*
X343991Y-2826936D01*
X343991Y-2826936D02*
X334467Y-2836460D01*
X334467Y-2836460D02*
X315420Y-2845984D01*
X315420Y-2845984D02*
X296372Y-2845984D01*
X296372Y-2845984D02*
X277324Y-2836460D01*
X277324Y-2836460D02*
X267801Y-2826936D01*
X267801Y-2826936D02*
X258277Y-2807888D01*
X258277Y-2807888D02*
X248753Y-2769793D01*
X248753Y-2769793D02*
X248753Y-2722174D01*
X248753Y-2722174D02*
X258277Y-2684079D01*
X258277Y-2684079D02*
X267801Y-2665031D01*
X267801Y-2665031D02*
X277324Y-2655508D01*
X277324Y-2655508D02*
X296372Y-2645984D01*
X448753Y-2826936D02*
X458277Y-2836460D01*
X458277Y-2836460D02*
X448753Y-2845984D01*
X448753Y-2845984D02*
X439229Y-2836460D01*
X439229Y-2836460D02*
X448753Y-2826936D01*
X448753Y-2826936D02*
X448753Y-2845984D01*
X629705Y-2645984D02*
X591610Y-2645984D01*
X591610Y-2645984D02*
X572563Y-2655508D01*
X572563Y-2655508D02*
X563039Y-2665031D01*
X563039Y-2665031D02*
X543991Y-2693603D01*
X543991Y-2693603D02*
X534467Y-2731698D01*
X534467Y-2731698D02*
X534467Y-2807888D01*
X534467Y-2807888D02*
X543991Y-2826936D01*
X543991Y-2826936D02*
X553515Y-2836460D01*
X553515Y-2836460D02*
X572563Y-2845984D01*
X572563Y-2845984D02*
X610658Y-2845984D01*
X610658Y-2845984D02*
X629705Y-2836460D01*
X629705Y-2836460D02*
X639229Y-2826936D01*
X639229Y-2826936D02*
X648753Y-2807888D01*
X648753Y-2807888D02*
X648753Y-2760270D01*
X648753Y-2760270D02*
X639229Y-2741222D01*
X639229Y-2741222D02*
X629705Y-2731698D01*
X629705Y-2731698D02*
X610658Y-2722174D01*
X610658Y-2722174D02*
X572563Y-2722174D01*
X572563Y-2722174D02*
X553515Y-2731698D01*
X553515Y-2731698D02*
X543991Y-2741222D01*
X543991Y-2741222D02*
X534467Y-2760270D01*
X829705Y-2645984D02*
X734467Y-2645984D01*
X734467Y-2645984D02*
X724943Y-2741222D01*
X724943Y-2741222D02*
X734467Y-2731698D01*
X734467Y-2731698D02*
X753515Y-2722174D01*
X753515Y-2722174D02*
X801134Y-2722174D01*
X801134Y-2722174D02*
X820182Y-2731698D01*
X820182Y-2731698D02*
X829705Y-2741222D01*
X829705Y-2741222D02*
X839229Y-2760270D01*
X839229Y-2760270D02*
X839229Y-2807888D01*
X839229Y-2807888D02*
X829705Y-2826936D01*
X829705Y-2826936D02*
X820182Y-2836460D01*
X820182Y-2836460D02*
X801134Y-2845984D01*
X801134Y-2845984D02*
X753515Y-2845984D01*
X753515Y-2845984D02*
X734467Y-2836460D01*
X734467Y-2836460D02*
X724943Y-2826936D01*
X963039Y-2645984D02*
X982086Y-2645984D01*
X982086Y-2645984D02*
X1001134Y-2655508D01*
X1001134Y-2655508D02*
X1010658Y-2665031D01*
X1010658Y-2665031D02*
X1020182Y-2684079D01*
X1020182Y-2684079D02*
X1029705Y-2722174D01*
X1029705Y-2722174D02*
X1029705Y-2769793D01*
X1029705Y-2769793D02*
X1020182Y-2807888D01*
X1020182Y-2807888D02*
X1010658Y-2826936D01*
X1010658Y-2826936D02*
X1001134Y-2836460D01*
X1001134Y-2836460D02*
X982086Y-2845984D01*
X982086Y-2845984D02*
X963039Y-2845984D01*
X963039Y-2845984D02*
X943991Y-2836460D01*
X943991Y-2836460D02*
X934467Y-2826936D01*
X934467Y-2826936D02*
X924943Y-2807888D01*
X924943Y-2807888D02*
X915420Y-2769793D01*
X915420Y-2769793D02*
X915420Y-2722174D01*
X915420Y-2722174D02*
X924943Y-2684079D01*
X924943Y-2684079D02*
X934467Y-2665031D01*
X934467Y-2665031D02*
X943991Y-2655508D01*
X943991Y-2655508D02*
X963039Y-2645984D01*
X1115420Y-2845984D02*
X1115420Y-2712650D01*
X1115420Y-2731698D02*
X1124944Y-2722174D01*
X1124944Y-2722174D02*
X1143991Y-2712650D01*
X1143991Y-2712650D02*
X1172563Y-2712650D01*
X1172563Y-2712650D02*
X1191610Y-2722174D01*
X1191610Y-2722174D02*
X1201134Y-2741222D01*
X1201134Y-2741222D02*
X1201134Y-2845984D01*
X1201134Y-2741222D02*
X1210658Y-2722174D01*
X1210658Y-2722174D02*
X1229705Y-2712650D01*
X1229705Y-2712650D02*
X1258277Y-2712650D01*
X1258277Y-2712650D02*
X1277325Y-2722174D01*
X1277325Y-2722174D02*
X1286848Y-2741222D01*
X1286848Y-2741222D02*
X1286848Y-2845984D01*
X1382086Y-2845984D02*
X1382086Y-2712650D01*
X1382086Y-2731698D02*
X1391610Y-2722174D01*
X1391610Y-2722174D02*
X1410658Y-2712650D01*
X1410658Y-2712650D02*
X1439229Y-2712650D01*
X1439229Y-2712650D02*
X1458277Y-2722174D01*
X1458277Y-2722174D02*
X1467801Y-2741222D01*
X1467801Y-2741222D02*
X1467801Y-2845984D01*
X1467801Y-2741222D02*
X1477324Y-2722174D01*
X1477324Y-2722174D02*
X1496372Y-2712650D01*
X1496372Y-2712650D02*
X1524943Y-2712650D01*
X1524943Y-2712650D02*
X1543991Y-2722174D01*
X1543991Y-2722174D02*
X1553515Y-2741222D01*
X1553515Y-2741222D02*
X1553515Y-2845984D01*
X1943991Y-2636460D02*
X1772563Y-2893603D01*
X2201134Y-2645984D02*
X2220182Y-2645984D01*
X2220182Y-2645984D02*
X2239229Y-2655508D01*
X2239229Y-2655508D02*
X2248753Y-2665031D01*
X2248753Y-2665031D02*
X2258277Y-2684079D01*
X2258277Y-2684079D02*
X2267801Y-2722174D01*
X2267801Y-2722174D02*
X2267801Y-2769793D01*
X2267801Y-2769793D02*
X2258277Y-2807888D01*
X2258277Y-2807888D02*
X2248753Y-2826936D01*
X2248753Y-2826936D02*
X2239229Y-2836460D01*
X2239229Y-2836460D02*
X2220182Y-2845984D01*
X2220182Y-2845984D02*
X2201134Y-2845984D01*
X2201134Y-2845984D02*
X2182087Y-2836460D01*
X2182087Y-2836460D02*
X2172563Y-2826936D01*
X2172563Y-2826936D02*
X2163039Y-2807888D01*
X2163039Y-2807888D02*
X2153515Y-2769793D01*
X2153515Y-2769793D02*
X2153515Y-2722174D01*
X2153515Y-2722174D02*
X2163039Y-2684079D01*
X2163039Y-2684079D02*
X2172563Y-2665031D01*
X2172563Y-2665031D02*
X2182087Y-2655508D01*
X2182087Y-2655508D02*
X2201134Y-2645984D01*
X2353515Y-2826936D02*
X2363039Y-2836460D01*
X2363039Y-2836460D02*
X2353515Y-2845984D01*
X2353515Y-2845984D02*
X2343991Y-2836460D01*
X2343991Y-2836460D02*
X2353515Y-2826936D01*
X2353515Y-2826936D02*
X2353515Y-2845984D01*
X2486848Y-2645984D02*
X2505896Y-2645984D01*
X2505896Y-2645984D02*
X2524944Y-2655508D01*
X2524944Y-2655508D02*
X2534468Y-2665031D01*
X2534468Y-2665031D02*
X2543991Y-2684079D01*
X2543991Y-2684079D02*
X2553515Y-2722174D01*
X2553515Y-2722174D02*
X2553515Y-2769793D01*
X2553515Y-2769793D02*
X2543991Y-2807888D01*
X2543991Y-2807888D02*
X2534468Y-2826936D01*
X2534468Y-2826936D02*
X2524944Y-2836460D01*
X2524944Y-2836460D02*
X2505896Y-2845984D01*
X2505896Y-2845984D02*
X2486848Y-2845984D01*
X2486848Y-2845984D02*
X2467801Y-2836460D01*
X2467801Y-2836460D02*
X2458277Y-2826936D01*
X2458277Y-2826936D02*
X2448753Y-2807888D01*
X2448753Y-2807888D02*
X2439229Y-2769793D01*
X2439229Y-2769793D02*
X2439229Y-2722174D01*
X2439229Y-2722174D02*
X2448753Y-2684079D01*
X2448753Y-2684079D02*
X2458277Y-2665031D01*
X2458277Y-2665031D02*
X2467801Y-2655508D01*
X2467801Y-2655508D02*
X2486848Y-2645984D01*
X2629706Y-2665031D02*
X2639229Y-2655508D01*
X2639229Y-2655508D02*
X2658277Y-2645984D01*
X2658277Y-2645984D02*
X2705896Y-2645984D01*
X2705896Y-2645984D02*
X2724944Y-2655508D01*
X2724944Y-2655508D02*
X2734468Y-2665031D01*
X2734468Y-2665031D02*
X2743991Y-2684079D01*
X2743991Y-2684079D02*
X2743991Y-2703127D01*
X2743991Y-2703127D02*
X2734468Y-2731698D01*
X2734468Y-2731698D02*
X2620182Y-2845984D01*
X2620182Y-2845984D02*
X2743991Y-2845984D01*
X2924944Y-2645984D02*
X2829706Y-2645984D01*
X2829706Y-2645984D02*
X2820182Y-2741222D01*
X2820182Y-2741222D02*
X2829706Y-2731698D01*
X2829706Y-2731698D02*
X2848753Y-2722174D01*
X2848753Y-2722174D02*
X2896372Y-2722174D01*
X2896372Y-2722174D02*
X2915420Y-2731698D01*
X2915420Y-2731698D02*
X2924944Y-2741222D01*
X2924944Y-2741222D02*
X2934467Y-2760270D01*
X2934467Y-2760270D02*
X2934467Y-2807888D01*
X2934467Y-2807888D02*
X2924944Y-2826936D01*
X2924944Y-2826936D02*
X2915420Y-2836460D01*
X2915420Y-2836460D02*
X2896372Y-2845984D01*
X2896372Y-2845984D02*
X2848753Y-2845984D01*
X2848753Y-2845984D02*
X2829706Y-2836460D01*
X2829706Y-2836460D02*
X2820182Y-2826936D01*
X3105896Y-2645984D02*
X3067801Y-2645984D01*
X3067801Y-2645984D02*
X3048753Y-2655508D01*
X3048753Y-2655508D02*
X3039229Y-2665031D01*
X3039229Y-2665031D02*
X3020182Y-2693603D01*
X3020182Y-2693603D02*
X3010658Y-2731698D01*
X3010658Y-2731698D02*
X3010658Y-2807888D01*
X3010658Y-2807888D02*
X3020182Y-2826936D01*
X3020182Y-2826936D02*
X3029706Y-2836460D01*
X3029706Y-2836460D02*
X3048753Y-2845984D01*
X3048753Y-2845984D02*
X3086848Y-2845984D01*
X3086848Y-2845984D02*
X3105896Y-2836460D01*
X3105896Y-2836460D02*
X3115420Y-2826936D01*
X3115420Y-2826936D02*
X3124944Y-2807888D01*
X3124944Y-2807888D02*
X3124944Y-2760270D01*
X3124944Y-2760270D02*
X3115420Y-2741222D01*
X3115420Y-2741222D02*
X3105896Y-2731698D01*
X3105896Y-2731698D02*
X3086848Y-2722174D01*
X3086848Y-2722174D02*
X3048753Y-2722174D01*
X3048753Y-2722174D02*
X3029706Y-2731698D01*
X3029706Y-2731698D02*
X3020182Y-2741222D01*
X3020182Y-2741222D02*
X3010658Y-2760270D01*
X3201134Y-2645984D02*
X3201134Y-2684079D01*
X3277325Y-2645984D02*
X3277325Y-2684079D01*
X3572563Y-2922174D02*
X3563039Y-2912650D01*
X3563039Y-2912650D02*
X3543991Y-2884079D01*
X3543991Y-2884079D02*
X3534468Y-2865031D01*
X3534468Y-2865031D02*
X3524944Y-2836460D01*
X3524944Y-2836460D02*
X3515420Y-2788841D01*
X3515420Y-2788841D02*
X3515420Y-2750746D01*
X3515420Y-2750746D02*
X3524944Y-2703127D01*
X3524944Y-2703127D02*
X3534468Y-2674555D01*
X3534468Y-2674555D02*
X3543991Y-2655508D01*
X3543991Y-2655508D02*
X3563039Y-2626936D01*
X3563039Y-2626936D02*
X3572563Y-2617412D01*
X3639229Y-2665031D02*
X3648753Y-2655508D01*
X3648753Y-2655508D02*
X3667801Y-2645984D01*
X3667801Y-2645984D02*
X3715420Y-2645984D01*
X3715420Y-2645984D02*
X3734468Y-2655508D01*
X3734468Y-2655508D02*
X3743991Y-2665031D01*
X3743991Y-2665031D02*
X3753515Y-2684079D01*
X3753515Y-2684079D02*
X3753515Y-2703127D01*
X3753515Y-2703127D02*
X3743991Y-2731698D01*
X3743991Y-2731698D02*
X3629706Y-2845984D01*
X3629706Y-2845984D02*
X3753515Y-2845984D01*
X3924944Y-2712650D02*
X3924944Y-2845984D01*
X3877325Y-2636460D02*
X3829706Y-2779317D01*
X3829706Y-2779317D02*
X3953515Y-2779317D01*
X4182087Y-2845984D02*
X4182087Y-2645984D01*
X4267801Y-2845984D02*
X4267801Y-2741222D01*
X4267801Y-2741222D02*
X4258277Y-2722174D01*
X4258277Y-2722174D02*
X4239230Y-2712650D01*
X4239230Y-2712650D02*
X4210658Y-2712650D01*
X4210658Y-2712650D02*
X4191610Y-2722174D01*
X4191610Y-2722174D02*
X4182087Y-2731698D01*
X4391611Y-2845984D02*
X4372563Y-2836460D01*
X4372563Y-2836460D02*
X4363039Y-2826936D01*
X4363039Y-2826936D02*
X4353515Y-2807888D01*
X4353515Y-2807888D02*
X4353515Y-2750746D01*
X4353515Y-2750746D02*
X4363039Y-2731698D01*
X4363039Y-2731698D02*
X4372563Y-2722174D01*
X4372563Y-2722174D02*
X4391611Y-2712650D01*
X4391611Y-2712650D02*
X4420182Y-2712650D01*
X4420182Y-2712650D02*
X4439230Y-2722174D01*
X4439230Y-2722174D02*
X4448753Y-2731698D01*
X4448753Y-2731698D02*
X4458277Y-2750746D01*
X4458277Y-2750746D02*
X4458277Y-2807888D01*
X4458277Y-2807888D02*
X4448753Y-2826936D01*
X4448753Y-2826936D02*
X4439230Y-2836460D01*
X4439230Y-2836460D02*
X4420182Y-2845984D01*
X4420182Y-2845984D02*
X4391611Y-2845984D01*
X4572563Y-2845984D02*
X4553515Y-2836460D01*
X4553515Y-2836460D02*
X4543992Y-2817412D01*
X4543992Y-2817412D02*
X4543992Y-2645984D01*
X4724944Y-2836460D02*
X4705896Y-2845984D01*
X4705896Y-2845984D02*
X4667801Y-2845984D01*
X4667801Y-2845984D02*
X4648753Y-2836460D01*
X4648753Y-2836460D02*
X4639230Y-2817412D01*
X4639230Y-2817412D02*
X4639230Y-2741222D01*
X4639230Y-2741222D02*
X4648753Y-2722174D01*
X4648753Y-2722174D02*
X4667801Y-2712650D01*
X4667801Y-2712650D02*
X4705896Y-2712650D01*
X4705896Y-2712650D02*
X4724944Y-2722174D01*
X4724944Y-2722174D02*
X4734468Y-2741222D01*
X4734468Y-2741222D02*
X4734468Y-2760270D01*
X4734468Y-2760270D02*
X4639230Y-2779317D01*
X4810658Y-2836460D02*
X4829706Y-2845984D01*
X4829706Y-2845984D02*
X4867801Y-2845984D01*
X4867801Y-2845984D02*
X4886849Y-2836460D01*
X4886849Y-2836460D02*
X4896373Y-2817412D01*
X4896373Y-2817412D02*
X4896373Y-2807888D01*
X4896373Y-2807888D02*
X4886849Y-2788841D01*
X4886849Y-2788841D02*
X4867801Y-2779317D01*
X4867801Y-2779317D02*
X4839230Y-2779317D01*
X4839230Y-2779317D02*
X4820182Y-2769793D01*
X4820182Y-2769793D02*
X4810658Y-2750746D01*
X4810658Y-2750746D02*
X4810658Y-2741222D01*
X4810658Y-2741222D02*
X4820182Y-2722174D01*
X4820182Y-2722174D02*
X4839230Y-2712650D01*
X4839230Y-2712650D02*
X4867801Y-2712650D01*
X4867801Y-2712650D02*
X4886849Y-2722174D01*
X4963039Y-2922174D02*
X4972563Y-2912650D01*
X4972563Y-2912650D02*
X4991611Y-2884079D01*
X4991611Y-2884079D02*
X5001134Y-2865031D01*
X5001134Y-2865031D02*
X5010658Y-2836460D01*
X5010658Y-2836460D02*
X5020182Y-2788841D01*
X5020182Y-2788841D02*
X5020182Y-2750746D01*
X5020182Y-2750746D02*
X5010658Y-2703127D01*
X5010658Y-2703127D02*
X5001134Y-2674555D01*
X5001134Y-2674555D02*
X4991611Y-2655508D01*
X4991611Y-2655508D02*
X4972563Y-2626936D01*
X4972563Y-2626936D02*
X4963039Y-2617412D01*
D12*
X-52500Y-2968500D02*
X-52500Y-3068500D01*
X-102500Y-3018500D02*
X-2500Y-3018500D01*
X-2500Y-3018500D02*
G75*
G02*
X-102500Y-3018500I-50000J0D01*
G01*
X-102500Y-3018500D02*
G75*
G02*
X-2500Y-3018500I50000J0D01*
G01*
D11*
X363039Y-3109984D02*
X248753Y-3109984D01*
X305896Y-3109984D02*
X305896Y-2909984D01*
X305896Y-2909984D02*
X286848Y-2938555D01*
X286848Y-2938555D02*
X267801Y-2957603D01*
X267801Y-2957603D02*
X248753Y-2967127D01*
X448753Y-3090936D02*
X458277Y-3100460D01*
X458277Y-3100460D02*
X448753Y-3109984D01*
X448753Y-3109984D02*
X439229Y-3100460D01*
X439229Y-3100460D02*
X448753Y-3090936D01*
X448753Y-3090936D02*
X448753Y-3109984D01*
X582086Y-2909984D02*
X601134Y-2909984D01*
X601134Y-2909984D02*
X620182Y-2919508D01*
X620182Y-2919508D02*
X629705Y-2929031D01*
X629705Y-2929031D02*
X639229Y-2948079D01*
X639229Y-2948079D02*
X648753Y-2986174D01*
X648753Y-2986174D02*
X648753Y-3033793D01*
X648753Y-3033793D02*
X639229Y-3071888D01*
X639229Y-3071888D02*
X629705Y-3090936D01*
X629705Y-3090936D02*
X620182Y-3100460D01*
X620182Y-3100460D02*
X601134Y-3109984D01*
X601134Y-3109984D02*
X582086Y-3109984D01*
X582086Y-3109984D02*
X563039Y-3100460D01*
X563039Y-3100460D02*
X553515Y-3090936D01*
X553515Y-3090936D02*
X543991Y-3071888D01*
X543991Y-3071888D02*
X534467Y-3033793D01*
X534467Y-3033793D02*
X534467Y-2986174D01*
X534467Y-2986174D02*
X543991Y-2948079D01*
X543991Y-2948079D02*
X553515Y-2929031D01*
X553515Y-2929031D02*
X563039Y-2919508D01*
X563039Y-2919508D02*
X582086Y-2909984D01*
X772562Y-2909984D02*
X791610Y-2909984D01*
X791610Y-2909984D02*
X810658Y-2919508D01*
X810658Y-2919508D02*
X820182Y-2929031D01*
X820182Y-2929031D02*
X829705Y-2948079D01*
X829705Y-2948079D02*
X839229Y-2986174D01*
X839229Y-2986174D02*
X839229Y-3033793D01*
X839229Y-3033793D02*
X829705Y-3071888D01*
X829705Y-3071888D02*
X820182Y-3090936D01*
X820182Y-3090936D02*
X810658Y-3100460D01*
X810658Y-3100460D02*
X791610Y-3109984D01*
X791610Y-3109984D02*
X772562Y-3109984D01*
X772562Y-3109984D02*
X753515Y-3100460D01*
X753515Y-3100460D02*
X743991Y-3090936D01*
X743991Y-3090936D02*
X734467Y-3071888D01*
X734467Y-3071888D02*
X724943Y-3033793D01*
X724943Y-3033793D02*
X724943Y-2986174D01*
X724943Y-2986174D02*
X734467Y-2948079D01*
X734467Y-2948079D02*
X743991Y-2929031D01*
X743991Y-2929031D02*
X753515Y-2919508D01*
X753515Y-2919508D02*
X772562Y-2909984D01*
X963039Y-2909984D02*
X982086Y-2909984D01*
X982086Y-2909984D02*
X1001134Y-2919508D01*
X1001134Y-2919508D02*
X1010658Y-2929031D01*
X1010658Y-2929031D02*
X1020182Y-2948079D01*
X1020182Y-2948079D02*
X1029705Y-2986174D01*
X1029705Y-2986174D02*
X1029705Y-3033793D01*
X1029705Y-3033793D02*
X1020182Y-3071888D01*
X1020182Y-3071888D02*
X1010658Y-3090936D01*
X1010658Y-3090936D02*
X1001134Y-3100460D01*
X1001134Y-3100460D02*
X982086Y-3109984D01*
X982086Y-3109984D02*
X963039Y-3109984D01*
X963039Y-3109984D02*
X943991Y-3100460D01*
X943991Y-3100460D02*
X934467Y-3090936D01*
X934467Y-3090936D02*
X924943Y-3071888D01*
X924943Y-3071888D02*
X915420Y-3033793D01*
X915420Y-3033793D02*
X915420Y-2986174D01*
X915420Y-2986174D02*
X924943Y-2948079D01*
X924943Y-2948079D02*
X934467Y-2929031D01*
X934467Y-2929031D02*
X943991Y-2919508D01*
X943991Y-2919508D02*
X963039Y-2909984D01*
X1115420Y-3109984D02*
X1115420Y-2976650D01*
X1115420Y-2995698D02*
X1124944Y-2986174D01*
X1124944Y-2986174D02*
X1143991Y-2976650D01*
X1143991Y-2976650D02*
X1172563Y-2976650D01*
X1172563Y-2976650D02*
X1191610Y-2986174D01*
X1191610Y-2986174D02*
X1201134Y-3005222D01*
X1201134Y-3005222D02*
X1201134Y-3109984D01*
X1201134Y-3005222D02*
X1210658Y-2986174D01*
X1210658Y-2986174D02*
X1229705Y-2976650D01*
X1229705Y-2976650D02*
X1258277Y-2976650D01*
X1258277Y-2976650D02*
X1277325Y-2986174D01*
X1277325Y-2986174D02*
X1286848Y-3005222D01*
X1286848Y-3005222D02*
X1286848Y-3109984D01*
X1382086Y-3109984D02*
X1382086Y-2976650D01*
X1382086Y-2995698D02*
X1391610Y-2986174D01*
X1391610Y-2986174D02*
X1410658Y-2976650D01*
X1410658Y-2976650D02*
X1439229Y-2976650D01*
X1439229Y-2976650D02*
X1458277Y-2986174D01*
X1458277Y-2986174D02*
X1467801Y-3005222D01*
X1467801Y-3005222D02*
X1467801Y-3109984D01*
X1467801Y-3005222D02*
X1477324Y-2986174D01*
X1477324Y-2986174D02*
X1496372Y-2976650D01*
X1496372Y-2976650D02*
X1524943Y-2976650D01*
X1524943Y-2976650D02*
X1543991Y-2986174D01*
X1543991Y-2986174D02*
X1553515Y-3005222D01*
X1553515Y-3005222D02*
X1553515Y-3109984D01*
X1943991Y-2900460D02*
X1772563Y-3157603D01*
X2201134Y-2909984D02*
X2220182Y-2909984D01*
X2220182Y-2909984D02*
X2239229Y-2919508D01*
X2239229Y-2919508D02*
X2248753Y-2929031D01*
X2248753Y-2929031D02*
X2258277Y-2948079D01*
X2258277Y-2948079D02*
X2267801Y-2986174D01*
X2267801Y-2986174D02*
X2267801Y-3033793D01*
X2267801Y-3033793D02*
X2258277Y-3071888D01*
X2258277Y-3071888D02*
X2248753Y-3090936D01*
X2248753Y-3090936D02*
X2239229Y-3100460D01*
X2239229Y-3100460D02*
X2220182Y-3109984D01*
X2220182Y-3109984D02*
X2201134Y-3109984D01*
X2201134Y-3109984D02*
X2182087Y-3100460D01*
X2182087Y-3100460D02*
X2172563Y-3090936D01*
X2172563Y-3090936D02*
X2163039Y-3071888D01*
X2163039Y-3071888D02*
X2153515Y-3033793D01*
X2153515Y-3033793D02*
X2153515Y-2986174D01*
X2153515Y-2986174D02*
X2163039Y-2948079D01*
X2163039Y-2948079D02*
X2172563Y-2929031D01*
X2172563Y-2929031D02*
X2182087Y-2919508D01*
X2182087Y-2919508D02*
X2201134Y-2909984D01*
X2353515Y-3090936D02*
X2363039Y-3100460D01*
X2363039Y-3100460D02*
X2353515Y-3109984D01*
X2353515Y-3109984D02*
X2343991Y-3100460D01*
X2343991Y-3100460D02*
X2353515Y-3090936D01*
X2353515Y-3090936D02*
X2353515Y-3109984D01*
X2486848Y-2909984D02*
X2505896Y-2909984D01*
X2505896Y-2909984D02*
X2524944Y-2919508D01*
X2524944Y-2919508D02*
X2534468Y-2929031D01*
X2534468Y-2929031D02*
X2543991Y-2948079D01*
X2543991Y-2948079D02*
X2553515Y-2986174D01*
X2553515Y-2986174D02*
X2553515Y-3033793D01*
X2553515Y-3033793D02*
X2543991Y-3071888D01*
X2543991Y-3071888D02*
X2534468Y-3090936D01*
X2534468Y-3090936D02*
X2524944Y-3100460D01*
X2524944Y-3100460D02*
X2505896Y-3109984D01*
X2505896Y-3109984D02*
X2486848Y-3109984D01*
X2486848Y-3109984D02*
X2467801Y-3100460D01*
X2467801Y-3100460D02*
X2458277Y-3090936D01*
X2458277Y-3090936D02*
X2448753Y-3071888D01*
X2448753Y-3071888D02*
X2439229Y-3033793D01*
X2439229Y-3033793D02*
X2439229Y-2986174D01*
X2439229Y-2986174D02*
X2448753Y-2948079D01*
X2448753Y-2948079D02*
X2458277Y-2929031D01*
X2458277Y-2929031D02*
X2467801Y-2919508D01*
X2467801Y-2919508D02*
X2486848Y-2909984D01*
X2620182Y-2909984D02*
X2743991Y-2909984D01*
X2743991Y-2909984D02*
X2677325Y-2986174D01*
X2677325Y-2986174D02*
X2705896Y-2986174D01*
X2705896Y-2986174D02*
X2724944Y-2995698D01*
X2724944Y-2995698D02*
X2734468Y-3005222D01*
X2734468Y-3005222D02*
X2743991Y-3024269D01*
X2743991Y-3024269D02*
X2743991Y-3071888D01*
X2743991Y-3071888D02*
X2734468Y-3090936D01*
X2734468Y-3090936D02*
X2724944Y-3100460D01*
X2724944Y-3100460D02*
X2705896Y-3109984D01*
X2705896Y-3109984D02*
X2648753Y-3109984D01*
X2648753Y-3109984D02*
X2629706Y-3100460D01*
X2629706Y-3100460D02*
X2620182Y-3090936D01*
X2839229Y-3109984D02*
X2877325Y-3109984D01*
X2877325Y-3109984D02*
X2896372Y-3100460D01*
X2896372Y-3100460D02*
X2905896Y-3090936D01*
X2905896Y-3090936D02*
X2924944Y-3062365D01*
X2924944Y-3062365D02*
X2934467Y-3024269D01*
X2934467Y-3024269D02*
X2934467Y-2948079D01*
X2934467Y-2948079D02*
X2924944Y-2929031D01*
X2924944Y-2929031D02*
X2915420Y-2919508D01*
X2915420Y-2919508D02*
X2896372Y-2909984D01*
X2896372Y-2909984D02*
X2858277Y-2909984D01*
X2858277Y-2909984D02*
X2839229Y-2919508D01*
X2839229Y-2919508D02*
X2829706Y-2929031D01*
X2829706Y-2929031D02*
X2820182Y-2948079D01*
X2820182Y-2948079D02*
X2820182Y-2995698D01*
X2820182Y-2995698D02*
X2829706Y-3014746D01*
X2829706Y-3014746D02*
X2839229Y-3024269D01*
X2839229Y-3024269D02*
X2858277Y-3033793D01*
X2858277Y-3033793D02*
X2896372Y-3033793D01*
X2896372Y-3033793D02*
X2915420Y-3024269D01*
X2915420Y-3024269D02*
X2924944Y-3014746D01*
X2924944Y-3014746D02*
X2934467Y-2995698D01*
X3105896Y-2976650D02*
X3105896Y-3109984D01*
X3058277Y-2900460D02*
X3010658Y-3043317D01*
X3010658Y-3043317D02*
X3134467Y-3043317D01*
X3201134Y-2909984D02*
X3201134Y-2948079D01*
X3277325Y-2909984D02*
X3277325Y-2948079D01*
X3572563Y-3186174D02*
X3563039Y-3176650D01*
X3563039Y-3176650D02*
X3543991Y-3148079D01*
X3543991Y-3148079D02*
X3534468Y-3129031D01*
X3534468Y-3129031D02*
X3524944Y-3100460D01*
X3524944Y-3100460D02*
X3515420Y-3052841D01*
X3515420Y-3052841D02*
X3515420Y-3014746D01*
X3515420Y-3014746D02*
X3524944Y-2967127D01*
X3524944Y-2967127D02*
X3534468Y-2938555D01*
X3534468Y-2938555D02*
X3543991Y-2919508D01*
X3543991Y-2919508D02*
X3563039Y-2890936D01*
X3563039Y-2890936D02*
X3572563Y-2881412D01*
X3639229Y-2929031D02*
X3648753Y-2919508D01*
X3648753Y-2919508D02*
X3667801Y-2909984D01*
X3667801Y-2909984D02*
X3715420Y-2909984D01*
X3715420Y-2909984D02*
X3734468Y-2919508D01*
X3734468Y-2919508D02*
X3743991Y-2929031D01*
X3743991Y-2929031D02*
X3753515Y-2948079D01*
X3753515Y-2948079D02*
X3753515Y-2967127D01*
X3753515Y-2967127D02*
X3743991Y-2995698D01*
X3743991Y-2995698D02*
X3629706Y-3109984D01*
X3629706Y-3109984D02*
X3753515Y-3109984D01*
X3991610Y-3109984D02*
X3991610Y-2909984D01*
X4077325Y-3109984D02*
X4077325Y-3005222D01*
X4077325Y-3005222D02*
X4067801Y-2986174D01*
X4067801Y-2986174D02*
X4048753Y-2976650D01*
X4048753Y-2976650D02*
X4020182Y-2976650D01*
X4020182Y-2976650D02*
X4001134Y-2986174D01*
X4001134Y-2986174D02*
X3991610Y-2995698D01*
X4201134Y-3109984D02*
X4182087Y-3100460D01*
X4182087Y-3100460D02*
X4172563Y-3090936D01*
X4172563Y-3090936D02*
X4163039Y-3071888D01*
X4163039Y-3071888D02*
X4163039Y-3014746D01*
X4163039Y-3014746D02*
X4172563Y-2995698D01*
X4172563Y-2995698D02*
X4182087Y-2986174D01*
X4182087Y-2986174D02*
X4201134Y-2976650D01*
X4201134Y-2976650D02*
X4229706Y-2976650D01*
X4229706Y-2976650D02*
X4248753Y-2986174D01*
X4248753Y-2986174D02*
X4258277Y-2995698D01*
X4258277Y-2995698D02*
X4267801Y-3014746D01*
X4267801Y-3014746D02*
X4267801Y-3071888D01*
X4267801Y-3071888D02*
X4258277Y-3090936D01*
X4258277Y-3090936D02*
X4248753Y-3100460D01*
X4248753Y-3100460D02*
X4229706Y-3109984D01*
X4229706Y-3109984D02*
X4201134Y-3109984D01*
X4382087Y-3109984D02*
X4363039Y-3100460D01*
X4363039Y-3100460D02*
X4353515Y-3081412D01*
X4353515Y-3081412D02*
X4353515Y-2909984D01*
X4534468Y-3100460D02*
X4515420Y-3109984D01*
X4515420Y-3109984D02*
X4477325Y-3109984D01*
X4477325Y-3109984D02*
X4458277Y-3100460D01*
X4458277Y-3100460D02*
X4448753Y-3081412D01*
X4448753Y-3081412D02*
X4448753Y-3005222D01*
X4448753Y-3005222D02*
X4458277Y-2986174D01*
X4458277Y-2986174D02*
X4477325Y-2976650D01*
X4477325Y-2976650D02*
X4515420Y-2976650D01*
X4515420Y-2976650D02*
X4534468Y-2986174D01*
X4534468Y-2986174D02*
X4543992Y-3005222D01*
X4543992Y-3005222D02*
X4543992Y-3024269D01*
X4543992Y-3024269D02*
X4448753Y-3043317D01*
X4620182Y-3100460D02*
X4639230Y-3109984D01*
X4639230Y-3109984D02*
X4677325Y-3109984D01*
X4677325Y-3109984D02*
X4696373Y-3100460D01*
X4696373Y-3100460D02*
X4705896Y-3081412D01*
X4705896Y-3081412D02*
X4705896Y-3071888D01*
X4705896Y-3071888D02*
X4696373Y-3052841D01*
X4696373Y-3052841D02*
X4677325Y-3043317D01*
X4677325Y-3043317D02*
X4648753Y-3043317D01*
X4648753Y-3043317D02*
X4629706Y-3033793D01*
X4629706Y-3033793D02*
X4620182Y-3014746D01*
X4620182Y-3014746D02*
X4620182Y-3005222D01*
X4620182Y-3005222D02*
X4629706Y-2986174D01*
X4629706Y-2986174D02*
X4648753Y-2976650D01*
X4648753Y-2976650D02*
X4677325Y-2976650D01*
X4677325Y-2976650D02*
X4696373Y-2986174D01*
X4772563Y-3186174D02*
X4782087Y-3176650D01*
X4782087Y-3176650D02*
X4801134Y-3148079D01*
X4801134Y-3148079D02*
X4810658Y-3129031D01*
X4810658Y-3129031D02*
X4820182Y-3100460D01*
X4820182Y-3100460D02*
X4829706Y-3052841D01*
X4829706Y-3052841D02*
X4829706Y-3014746D01*
X4829706Y-3014746D02*
X4820182Y-2967127D01*
X4820182Y-2967127D02*
X4810658Y-2938555D01*
X4810658Y-2938555D02*
X4801134Y-2919508D01*
X4801134Y-2919508D02*
X4782087Y-2890936D01*
X4782087Y-2890936D02*
X4772563Y-2881412D01*
X-31789Y-3353211D02*
X-31789Y-3211789D01*
X-173211Y-3211789D01*
X-173211Y-3353211D01*
X-31789Y-3353211D01*
X-2500Y-3282500D02*
G75*
G02*
X-202500Y-3282500I-100000J0D01*
G01*
X-202500Y-3282500D02*
G75*
G02*
X-2500Y-3282500I100000J0D01*
G01*
X239229Y-3173984D02*
X363039Y-3173984D01*
X363039Y-3173984D02*
X296372Y-3250174D01*
X296372Y-3250174D02*
X324944Y-3250174D01*
X324944Y-3250174D02*
X343991Y-3259698D01*
X343991Y-3259698D02*
X353515Y-3269222D01*
X353515Y-3269222D02*
X363039Y-3288269D01*
X363039Y-3288269D02*
X363039Y-3335888D01*
X363039Y-3335888D02*
X353515Y-3354936D01*
X353515Y-3354936D02*
X343991Y-3364460D01*
X343991Y-3364460D02*
X324944Y-3373984D01*
X324944Y-3373984D02*
X267801Y-3373984D01*
X267801Y-3373984D02*
X248753Y-3364460D01*
X248753Y-3364460D02*
X239229Y-3354936D01*
X448753Y-3354936D02*
X458277Y-3364460D01*
X458277Y-3364460D02*
X448753Y-3373984D01*
X448753Y-3373984D02*
X439229Y-3364460D01*
X439229Y-3364460D02*
X448753Y-3354936D01*
X448753Y-3354936D02*
X448753Y-3373984D01*
X534467Y-3193031D02*
X543991Y-3183508D01*
X543991Y-3183508D02*
X563039Y-3173984D01*
X563039Y-3173984D02*
X610658Y-3173984D01*
X610658Y-3173984D02*
X629705Y-3183508D01*
X629705Y-3183508D02*
X639229Y-3193031D01*
X639229Y-3193031D02*
X648753Y-3212079D01*
X648753Y-3212079D02*
X648753Y-3231127D01*
X648753Y-3231127D02*
X639229Y-3259698D01*
X639229Y-3259698D02*
X524944Y-3373984D01*
X524944Y-3373984D02*
X648753Y-3373984D01*
X772562Y-3173984D02*
X791610Y-3173984D01*
X791610Y-3173984D02*
X810658Y-3183508D01*
X810658Y-3183508D02*
X820182Y-3193031D01*
X820182Y-3193031D02*
X829705Y-3212079D01*
X829705Y-3212079D02*
X839229Y-3250174D01*
X839229Y-3250174D02*
X839229Y-3297793D01*
X839229Y-3297793D02*
X829705Y-3335888D01*
X829705Y-3335888D02*
X820182Y-3354936D01*
X820182Y-3354936D02*
X810658Y-3364460D01*
X810658Y-3364460D02*
X791610Y-3373984D01*
X791610Y-3373984D02*
X772562Y-3373984D01*
X772562Y-3373984D02*
X753515Y-3364460D01*
X753515Y-3364460D02*
X743991Y-3354936D01*
X743991Y-3354936D02*
X734467Y-3335888D01*
X734467Y-3335888D02*
X724943Y-3297793D01*
X724943Y-3297793D02*
X724943Y-3250174D01*
X724943Y-3250174D02*
X734467Y-3212079D01*
X734467Y-3212079D02*
X743991Y-3193031D01*
X743991Y-3193031D02*
X753515Y-3183508D01*
X753515Y-3183508D02*
X772562Y-3173984D01*
X963039Y-3173984D02*
X982086Y-3173984D01*
X982086Y-3173984D02*
X1001134Y-3183508D01*
X1001134Y-3183508D02*
X1010658Y-3193031D01*
X1010658Y-3193031D02*
X1020182Y-3212079D01*
X1020182Y-3212079D02*
X1029705Y-3250174D01*
X1029705Y-3250174D02*
X1029705Y-3297793D01*
X1029705Y-3297793D02*
X1020182Y-3335888D01*
X1020182Y-3335888D02*
X1010658Y-3354936D01*
X1010658Y-3354936D02*
X1001134Y-3364460D01*
X1001134Y-3364460D02*
X982086Y-3373984D01*
X982086Y-3373984D02*
X963039Y-3373984D01*
X963039Y-3373984D02*
X943991Y-3364460D01*
X943991Y-3364460D02*
X934467Y-3354936D01*
X934467Y-3354936D02*
X924943Y-3335888D01*
X924943Y-3335888D02*
X915420Y-3297793D01*
X915420Y-3297793D02*
X915420Y-3250174D01*
X915420Y-3250174D02*
X924943Y-3212079D01*
X924943Y-3212079D02*
X934467Y-3193031D01*
X934467Y-3193031D02*
X943991Y-3183508D01*
X943991Y-3183508D02*
X963039Y-3173984D01*
X1115420Y-3373984D02*
X1115420Y-3240650D01*
X1115420Y-3259698D02*
X1124944Y-3250174D01*
X1124944Y-3250174D02*
X1143991Y-3240650D01*
X1143991Y-3240650D02*
X1172563Y-3240650D01*
X1172563Y-3240650D02*
X1191610Y-3250174D01*
X1191610Y-3250174D02*
X1201134Y-3269222D01*
X1201134Y-3269222D02*
X1201134Y-3373984D01*
X1201134Y-3269222D02*
X1210658Y-3250174D01*
X1210658Y-3250174D02*
X1229705Y-3240650D01*
X1229705Y-3240650D02*
X1258277Y-3240650D01*
X1258277Y-3240650D02*
X1277325Y-3250174D01*
X1277325Y-3250174D02*
X1286848Y-3269222D01*
X1286848Y-3269222D02*
X1286848Y-3373984D01*
X1382086Y-3373984D02*
X1382086Y-3240650D01*
X1382086Y-3259698D02*
X1391610Y-3250174D01*
X1391610Y-3250174D02*
X1410658Y-3240650D01*
X1410658Y-3240650D02*
X1439229Y-3240650D01*
X1439229Y-3240650D02*
X1458277Y-3250174D01*
X1458277Y-3250174D02*
X1467801Y-3269222D01*
X1467801Y-3269222D02*
X1467801Y-3373984D01*
X1467801Y-3269222D02*
X1477324Y-3250174D01*
X1477324Y-3250174D02*
X1496372Y-3240650D01*
X1496372Y-3240650D02*
X1524943Y-3240650D01*
X1524943Y-3240650D02*
X1543991Y-3250174D01*
X1543991Y-3250174D02*
X1553515Y-3269222D01*
X1553515Y-3269222D02*
X1553515Y-3373984D01*
X1943991Y-3164460D02*
X1772563Y-3421603D01*
X2201134Y-3173984D02*
X2220182Y-3173984D01*
X2220182Y-3173984D02*
X2239229Y-3183508D01*
X2239229Y-3183508D02*
X2248753Y-3193031D01*
X2248753Y-3193031D02*
X2258277Y-3212079D01*
X2258277Y-3212079D02*
X2267801Y-3250174D01*
X2267801Y-3250174D02*
X2267801Y-3297793D01*
X2267801Y-3297793D02*
X2258277Y-3335888D01*
X2258277Y-3335888D02*
X2248753Y-3354936D01*
X2248753Y-3354936D02*
X2239229Y-3364460D01*
X2239229Y-3364460D02*
X2220182Y-3373984D01*
X2220182Y-3373984D02*
X2201134Y-3373984D01*
X2201134Y-3373984D02*
X2182087Y-3364460D01*
X2182087Y-3364460D02*
X2172563Y-3354936D01*
X2172563Y-3354936D02*
X2163039Y-3335888D01*
X2163039Y-3335888D02*
X2153515Y-3297793D01*
X2153515Y-3297793D02*
X2153515Y-3250174D01*
X2153515Y-3250174D02*
X2163039Y-3212079D01*
X2163039Y-3212079D02*
X2172563Y-3193031D01*
X2172563Y-3193031D02*
X2182087Y-3183508D01*
X2182087Y-3183508D02*
X2201134Y-3173984D01*
X2353515Y-3354936D02*
X2363039Y-3364460D01*
X2363039Y-3364460D02*
X2353515Y-3373984D01*
X2353515Y-3373984D02*
X2343991Y-3364460D01*
X2343991Y-3364460D02*
X2353515Y-3354936D01*
X2353515Y-3354936D02*
X2353515Y-3373984D01*
X2553515Y-3373984D02*
X2439229Y-3373984D01*
X2496372Y-3373984D02*
X2496372Y-3173984D01*
X2496372Y-3173984D02*
X2477325Y-3202555D01*
X2477325Y-3202555D02*
X2458277Y-3221603D01*
X2458277Y-3221603D02*
X2439229Y-3231127D01*
X2629706Y-3193031D02*
X2639229Y-3183508D01*
X2639229Y-3183508D02*
X2658277Y-3173984D01*
X2658277Y-3173984D02*
X2705896Y-3173984D01*
X2705896Y-3173984D02*
X2724944Y-3183508D01*
X2724944Y-3183508D02*
X2734468Y-3193031D01*
X2734468Y-3193031D02*
X2743991Y-3212079D01*
X2743991Y-3212079D02*
X2743991Y-3231127D01*
X2743991Y-3231127D02*
X2734468Y-3259698D01*
X2734468Y-3259698D02*
X2620182Y-3373984D01*
X2620182Y-3373984D02*
X2743991Y-3373984D01*
X2915420Y-3173984D02*
X2877325Y-3173984D01*
X2877325Y-3173984D02*
X2858277Y-3183508D01*
X2858277Y-3183508D02*
X2848753Y-3193031D01*
X2848753Y-3193031D02*
X2829706Y-3221603D01*
X2829706Y-3221603D02*
X2820182Y-3259698D01*
X2820182Y-3259698D02*
X2820182Y-3335888D01*
X2820182Y-3335888D02*
X2829706Y-3354936D01*
X2829706Y-3354936D02*
X2839229Y-3364460D01*
X2839229Y-3364460D02*
X2858277Y-3373984D01*
X2858277Y-3373984D02*
X2896372Y-3373984D01*
X2896372Y-3373984D02*
X2915420Y-3364460D01*
X2915420Y-3364460D02*
X2924944Y-3354936D01*
X2924944Y-3354936D02*
X2934467Y-3335888D01*
X2934467Y-3335888D02*
X2934467Y-3288269D01*
X2934467Y-3288269D02*
X2924944Y-3269222D01*
X2924944Y-3269222D02*
X2915420Y-3259698D01*
X2915420Y-3259698D02*
X2896372Y-3250174D01*
X2896372Y-3250174D02*
X2858277Y-3250174D01*
X2858277Y-3250174D02*
X2839229Y-3259698D01*
X2839229Y-3259698D02*
X2829706Y-3269222D01*
X2829706Y-3269222D02*
X2820182Y-3288269D01*
X3058277Y-3173984D02*
X3077325Y-3173984D01*
X3077325Y-3173984D02*
X3096372Y-3183508D01*
X3096372Y-3183508D02*
X3105896Y-3193031D01*
X3105896Y-3193031D02*
X3115420Y-3212079D01*
X3115420Y-3212079D02*
X3124944Y-3250174D01*
X3124944Y-3250174D02*
X3124944Y-3297793D01*
X3124944Y-3297793D02*
X3115420Y-3335888D01*
X3115420Y-3335888D02*
X3105896Y-3354936D01*
X3105896Y-3354936D02*
X3096372Y-3364460D01*
X3096372Y-3364460D02*
X3077325Y-3373984D01*
X3077325Y-3373984D02*
X3058277Y-3373984D01*
X3058277Y-3373984D02*
X3039229Y-3364460D01*
X3039229Y-3364460D02*
X3029706Y-3354936D01*
X3029706Y-3354936D02*
X3020182Y-3335888D01*
X3020182Y-3335888D02*
X3010658Y-3297793D01*
X3010658Y-3297793D02*
X3010658Y-3250174D01*
X3010658Y-3250174D02*
X3020182Y-3212079D01*
X3020182Y-3212079D02*
X3029706Y-3193031D01*
X3029706Y-3193031D02*
X3039229Y-3183508D01*
X3039229Y-3183508D02*
X3058277Y-3173984D01*
X3201134Y-3173984D02*
X3201134Y-3212079D01*
X3277325Y-3173984D02*
X3277325Y-3212079D01*
X3572563Y-3450174D02*
X3563039Y-3440650D01*
X3563039Y-3440650D02*
X3543991Y-3412079D01*
X3543991Y-3412079D02*
X3534468Y-3393031D01*
X3534468Y-3393031D02*
X3524944Y-3364460D01*
X3524944Y-3364460D02*
X3515420Y-3316841D01*
X3515420Y-3316841D02*
X3515420Y-3278746D01*
X3515420Y-3278746D02*
X3524944Y-3231127D01*
X3524944Y-3231127D02*
X3534468Y-3202555D01*
X3534468Y-3202555D02*
X3543991Y-3183508D01*
X3543991Y-3183508D02*
X3563039Y-3154936D01*
X3563039Y-3154936D02*
X3572563Y-3145412D01*
X3734468Y-3240650D02*
X3734468Y-3373984D01*
X3686848Y-3164460D02*
X3639229Y-3307317D01*
X3639229Y-3307317D02*
X3763039Y-3307317D01*
X3991610Y-3373984D02*
X3991610Y-3173984D01*
X4077325Y-3373984D02*
X4077325Y-3269222D01*
X4077325Y-3269222D02*
X4067801Y-3250174D01*
X4067801Y-3250174D02*
X4048753Y-3240650D01*
X4048753Y-3240650D02*
X4020182Y-3240650D01*
X4020182Y-3240650D02*
X4001134Y-3250174D01*
X4001134Y-3250174D02*
X3991610Y-3259698D01*
X4201134Y-3373984D02*
X4182087Y-3364460D01*
X4182087Y-3364460D02*
X4172563Y-3354936D01*
X4172563Y-3354936D02*
X4163039Y-3335888D01*
X4163039Y-3335888D02*
X4163039Y-3278746D01*
X4163039Y-3278746D02*
X4172563Y-3259698D01*
X4172563Y-3259698D02*
X4182087Y-3250174D01*
X4182087Y-3250174D02*
X4201134Y-3240650D01*
X4201134Y-3240650D02*
X4229706Y-3240650D01*
X4229706Y-3240650D02*
X4248753Y-3250174D01*
X4248753Y-3250174D02*
X4258277Y-3259698D01*
X4258277Y-3259698D02*
X4267801Y-3278746D01*
X4267801Y-3278746D02*
X4267801Y-3335888D01*
X4267801Y-3335888D02*
X4258277Y-3354936D01*
X4258277Y-3354936D02*
X4248753Y-3364460D01*
X4248753Y-3364460D02*
X4229706Y-3373984D01*
X4229706Y-3373984D02*
X4201134Y-3373984D01*
X4382087Y-3373984D02*
X4363039Y-3364460D01*
X4363039Y-3364460D02*
X4353515Y-3345412D01*
X4353515Y-3345412D02*
X4353515Y-3173984D01*
X4534468Y-3364460D02*
X4515420Y-3373984D01*
X4515420Y-3373984D02*
X4477325Y-3373984D01*
X4477325Y-3373984D02*
X4458277Y-3364460D01*
X4458277Y-3364460D02*
X4448753Y-3345412D01*
X4448753Y-3345412D02*
X4448753Y-3269222D01*
X4448753Y-3269222D02*
X4458277Y-3250174D01*
X4458277Y-3250174D02*
X4477325Y-3240650D01*
X4477325Y-3240650D02*
X4515420Y-3240650D01*
X4515420Y-3240650D02*
X4534468Y-3250174D01*
X4534468Y-3250174D02*
X4543992Y-3269222D01*
X4543992Y-3269222D02*
X4543992Y-3288269D01*
X4543992Y-3288269D02*
X4448753Y-3307317D01*
X4620182Y-3364460D02*
X4639230Y-3373984D01*
X4639230Y-3373984D02*
X4677325Y-3373984D01*
X4677325Y-3373984D02*
X4696373Y-3364460D01*
X4696373Y-3364460D02*
X4705896Y-3345412D01*
X4705896Y-3345412D02*
X4705896Y-3335888D01*
X4705896Y-3335888D02*
X4696373Y-3316841D01*
X4696373Y-3316841D02*
X4677325Y-3307317D01*
X4677325Y-3307317D02*
X4648753Y-3307317D01*
X4648753Y-3307317D02*
X4629706Y-3297793D01*
X4629706Y-3297793D02*
X4620182Y-3278746D01*
X4620182Y-3278746D02*
X4620182Y-3269222D01*
X4620182Y-3269222D02*
X4629706Y-3250174D01*
X4629706Y-3250174D02*
X4648753Y-3240650D01*
X4648753Y-3240650D02*
X4677325Y-3240650D01*
X4677325Y-3240650D02*
X4696373Y-3250174D01*
X4772563Y-3450174D02*
X4782087Y-3440650D01*
X4782087Y-3440650D02*
X4801134Y-3412079D01*
X4801134Y-3412079D02*
X4810658Y-3393031D01*
X4810658Y-3393031D02*
X4820182Y-3364460D01*
X4820182Y-3364460D02*
X4829706Y-3316841D01*
X4829706Y-3316841D02*
X4829706Y-3278746D01*
X4829706Y-3278746D02*
X4820182Y-3231127D01*
X4820182Y-3231127D02*
X4810658Y-3202555D01*
X4810658Y-3202555D02*
X4801134Y-3183508D01*
X4801134Y-3183508D02*
X4782087Y-3154936D01*
X4782087Y-3154936D02*
X4772563Y-3145412D01*
M02*
